<?xml version="1.0" encoding="UTF-8" standalone="no"?>
<svg
   xmlns:dc="http://purl.org/dc/elements/1.1/"
   xmlns:cc="http://creativecommons.org/ns#"
   xmlns:rdf="http://www.w3.org/1999/02/22-rdf-syntax-ns#"
   xmlns:svg="http://www.w3.org/2000/svg"
   xmlns="http://www.w3.org/2000/svg"
   xmlns:sodipodi="http://sodipodi.sourceforge.net/DTD/sodipodi-0.dtd"
   xmlns:inkscape="http://www.inkscape.org/namespaces/inkscape"
   width="13.229167mm"
   height="13.229167mm"
   viewBox="0 0 13.229167 13.229167"
   version="1.1"
   id="svg8"
   sodipodi:docname="VCS_resized_71.svg"
   inkscape:version="1.0.2-2 (e86c870879, 2021-01-15)">
  <defs
     id="defs2" />
  <sodipodi:namedview
     id="base"
     pagecolor="#ffffff"
     bordercolor="#666666"
     borderopacity="1.0"
     inkscape:pageopacity="0.0"
     inkscape:pageshadow="2"
     inkscape:zoom="2.8284271"
     inkscape:cx="8.6212998"
     inkscape:cy="45.305994"
     inkscape:document-units="mm"
     inkscape:current-layer="layer1"
     inkscape:document-rotation="0"
     showgrid="false"
     inkscape:window-width="958"
     inkscape:window-height="1008"
     inkscape:window-x="1913"
     inkscape:window-y="0"
     inkscape:window-maximized="0" />
  <metadata
     id="metadata5">
    <rdf:RDF>
      <cc:Work
         rdf:about="">
        <dc:format>image/svg+xml</dc:format>
        <dc:type
           rdf:resource="http://purl.org/dc/dcmitype/StillImage" />
        <dc:title></dc:title>
      </cc:Work>
    </rdf:RDF>
  </metadata>
  <g
     inkscape:label="Ebene 1"
     inkscape:groupmode="layer"
     id="layer1"
     transform="translate(-35.918934,-14.604402)">
    <path
       style="fill:#000000;stroke-width:0.264582"
       d="m 38.955649,26.333339 c -0.456194,-0.169821 -0.923416,-0.535762 -1.09,-0.853719 -0.03949,-0.07537 -0.09856,-0.290726 -0.131272,-0.478562 -0.05278,-0.303088 -0.04766,-0.371494 0.04552,-0.607892 0.163264,-0.4142 0.384944,-0.703735 0.897446,-1.172142 1.42631,-1.303594 1.397416,-2.228929 -0.119352,-3.82207 -0.406148,-0.426597 -0.54841,-0.621062 -0.774234,-1.058333 -0.16622,-0.321858 -0.177748,-0.377958 -0.1794,-0.873125 -0.0016,-0.490108 0.01,-0.550517 0.156984,-0.818425 0.223764,-0.407721 0.512542,-0.599196 0.945242,-0.626749 0.294272,-0.01874 0.378508,-2.2e-4 0.700058,0.153943 0.38552,0.184825 0.689736,0.46244 1.544324,1.40928 0.666952,0.73895 1.215798,0.965286 1.909676,0.787523 0.455292,-0.116641 0.70736,-0.306462 1.251128,-0.942168 0.59266,-0.692867 0.89116,-0.975796 1.270074,-1.203822 0.26797,-0.161261 0.346178,-0.182442 0.683856,-0.185208 0.334994,-0.0027 0.412958,0.01637 0.642212,0.157443 0.593264,0.365075 0.801832,1.318714 0.46482,2.125301 -0.135816,0.325051 -0.406772,0.706156 -0.839074,1.180174 -1.00325,1.100063 -1.234684,1.826727 -0.84042,2.638786 0.109416,0.225361 0.34079,0.491748 0.948326,1.091839 0.713712,0.704965 0.816848,0.829264 0.92205,1.11125 0.09199,0.24658 0.112504,0.388419 0.09183,0.635 -0.03241,0.386585 -0.13096,0.588501 -0.436236,0.893776 -0.456846,0.456847 -1.172144,0.560443 -2.440712,0.353488 -1.633996,-0.266573 -2.181284,-0.266525 -3.456948,3.2e-4 -1.024964,0.214387 -1.773062,0.250347 -2.1659,0.104111 z m 1.2134,-0.238723 c 2.43063,-0.417554 2.529706,-0.42185 4.186578,-0.181552 1.38055,0.200223 1.752462,0.192989 2.17098,-0.04223 0.405268,-0.227769 0.590342,-0.50978 0.617828,-0.941429 0.0191,-0.299847 0.0038,-0.371745 -0.126136,-0.594224 -0.08132,-0.139207 -0.476906,-0.589659 -0.879076,-1.001004 -0.5956,-0.609191 -0.763134,-0.815291 -0.9033,-1.11125 -0.153086,-0.323239 -0.17124,-0.410081 -0.164456,-0.786683 0.01302,-0.723127 0.258302,-1.203153 1.122086,-2.196042 0.775126,-0.890974 1.015614,-1.506287 0.833526,-2.132647 -0.161376,-0.55512 -0.634476,-0.849209 -1.172442,-0.728818 -0.469146,0.104991 -0.734624,0.318225 -1.425632,1.145081 -0.534694,0.639811 -0.749874,0.831251 -1.19079,1.059415 -0.256862,0.132921 -0.34697,0.150573 -0.76729,0.150313 -0.435916,-2.6e-4 -0.506986,-0.01563 -0.839154,-0.181354 -0.28943,-0.144402 -0.455486,-0.282419 -0.820208,-0.681717 -1.209972,-1.324678 -1.467506,-1.515234 -2.044806,-1.513005 -0.247918,9.6e-4 -0.353634,0.02808 -0.482376,0.123763 -0.36964,0.274717 -0.52634,0.859994 -0.372208,1.390192 0.110814,0.381185 0.389702,0.802852 0.957802,1.448152 0.559502,0.635535 0.776118,0.950637 0.952792,1.385983 0.180628,0.445091 0.217524,0.816438 0.118602,1.19372 -0.121644,0.463954 -0.307828,0.732546 -1.028342,1.483507 -0.885242,0.922652 -1.025494,1.225059 -0.831806,1.793504 0.174738,0.512826 0.870182,0.979291 1.479286,0.992222 0.08731,0.0019 0.361156,-0.0314 0.608542,-0.0739 z"
       id="path1178" />
  </g>
</svg>
