<?xml version="1.0" encoding="UTF-8" standalone="no"?>
<svg
   xmlns:dc="http://purl.org/dc/elements/1.1/"
   xmlns:cc="http://creativecommons.org/ns#"
   xmlns:rdf="http://www.w3.org/1999/02/22-rdf-syntax-ns#"
   xmlns:svg="http://www.w3.org/2000/svg"
   xmlns="http://www.w3.org/2000/svg"
   xmlns:sodipodi="http://sodipodi.sourceforge.net/DTD/sodipodi-0.dtd"
   xmlns:inkscape="http://www.inkscape.org/namespaces/inkscape"
   width="13.229167mm"
   height="13.229167mm"
   viewBox="0 0 13.229169 13.229168"
   version="1.1"
   id="svg8"
   sodipodi:docname="VCS_resized_185.svg"
   inkscape:version="1.0.2-2 (e86c870879, 2021-01-15)">
  <defs
     id="defs2" />
  <sodipodi:namedview
     id="base"
     pagecolor="#ffffff"
     bordercolor="#666666"
     borderopacity="1.0"
     inkscape:pageopacity="0.0"
     inkscape:pageshadow="2"
     inkscape:zoom="2.8284271"
     inkscape:cx="2.2459798"
     inkscape:cy="20.709751"
     inkscape:document-units="mm"
     inkscape:current-layer="layer1"
     inkscape:document-rotation="0"
     showgrid="false"
     inkscape:window-width="958"
     inkscape:window-height="1008"
     inkscape:window-x="1913"
     inkscape:window-y="0"
     inkscape:window-maximized="0" />
  <metadata
     id="metadata5">
    <rdf:RDF>
      <cc:Work
         rdf:about="">
        <dc:format>image/svg+xml</dc:format>
        <dc:type
           rdf:resource="http://purl.org/dc/dcmitype/StillImage" />
        <dc:title></dc:title>
      </cc:Work>
    </rdf:RDF>
  </metadata>
  <g
     inkscape:label="Ebene 1"
     inkscape:groupmode="layer"
     id="layer1"
     transform="translate(-47.969112,-25.201046)">
    <path
       style="fill:#000000;stroke-width:0.264582"
       d="m 51.240942,37.777847 c -0.04501,-0.03638 -0.30257,-0.494771 -0.572348,-1.018646 -0.26978,-0.523875 -0.593898,-1.13206 -0.720262,-1.351524 -0.315966,-0.548749 -0.630234,-1.241781 -0.706906,-1.558893 -0.116212,-0.480646 -0.07849,-1.227035 0.09559,-1.891293 0.228772,-0.872962 0.248658,-1.255037 0.09201,-1.767681 -0.06985,-0.228585 -0.187264,-0.57306 -0.26092,-0.765501 -0.07365,-0.192441 -0.160882,-0.54682 -0.193836,-0.787509 -0.05841,-0.426618 -0.05664,-0.442221 0.07046,-0.620856 0.178438,-0.250788 0.877908,-0.824058 1.279464,-1.04862 0.458178,-0.256228 0.955558,-0.415677 1.809258,-0.580009 0.401584,-0.0773 1.140066,-0.243937 1.641072,-0.370299 l 0.910922,-0.229748 0.629386,0.17433 c 0.346164,0.09588 0.817312,0.24577 1.046996,0.333086 0.313252,0.119083 0.548638,0.167464 0.941948,0.193607 0.87298,0.05803 1.124712,0.143928 1.88007,0.641561 0.564068,0.371609 0.943066,0.737482 1.015958,0.980776 0.08365,0.279183 -0.0084,0.818936 -0.241624,1.416415 -0.336158,0.861289 -0.354092,1.37668 -0.08318,2.390283 0.202726,0.758498 0.232712,1.042271 0.157896,1.494293 -0.08862,0.535412 -0.294956,1.044385 -0.812774,2.00487 -0.245182,0.454779 -0.606522,1.142976 -0.802978,1.529326 -0.196456,0.386351 -0.40123,0.746493 -0.455054,0.800317 -0.09309,0.09309 -0.257234,0.09786 -3.36858,0.09786 -2.537648,0 -3.289062,-0.01483 -3.352562,-0.06615 z m 6.245902,-0.193618 c 0.19351,-0.0275 0.30317,-0.07254 0.343958,-0.141279 0.03293,-0.0555 0.251514,-0.470173 0.485736,-0.921496 0.23422,-0.451323 0.574522,-1.098492 0.756224,-1.438154 0.45449,-0.849588 0.648334,-1.396971 0.680794,-1.922432 0.02272,-0.367836 4e-4,-0.523922 -0.17072,-1.190625 -0.18084,-0.704811 -0.19443,-0.8084 -0.166884,-1.272109 0.02894,-0.487132 0.08871,-0.723055 0.4084,-1.61185 0.06341,-0.176307 0.11773,-0.462523 0.122138,-0.643614 0.0092,-0.379445 -0.03725,-0.446338 -0.6006,-0.864206 -0.585488,-0.434288 -1.087514,-0.67608 -1.5346,-0.739115 -0.218272,-0.03077 -0.568714,-0.08114 -0.778758,-0.111927 -0.210044,-0.03079 -0.694824,-0.161411 -1.077288,-0.290277 -1.164392,-0.392327 -1.17799,-0.392982 -2.324992,-0.112 -0.538778,0.131985 -1.19485,0.27732 -1.457938,0.322966 -0.597114,0.103601 -1.309464,0.341744 -1.736346,0.58047 -0.467174,0.261258 -1.125366,0.80137 -1.184986,0.972399 -0.08089,0.232038 0.02658,0.821178 0.25387,1.391682 0.358498,0.899846 0.394776,1.426762 0.16057,2.33218 -0.188492,0.728694 -0.251188,1.398984 -0.167398,1.789684 0.0758,0.353452 0.373692,0.992777 0.876208,1.880508 0.214176,0.378355 0.528468,0.968561 0.698426,1.31157 0.265734,0.536297 0.331272,0.630132 0.467896,0.669915 0.195232,0.05685 5.551646,0.06379 5.94629,0.0077 z"
       id="path3020" />
  </g>
</svg>
