<?xml version="1.0" encoding="UTF-8" standalone="no"?>
<svg
   xmlns:dc="http://purl.org/dc/elements/1.1/"
   xmlns:cc="http://creativecommons.org/ns#"
   xmlns:rdf="http://www.w3.org/1999/02/22-rdf-syntax-ns#"
   xmlns:svg="http://www.w3.org/2000/svg"
   xmlns="http://www.w3.org/2000/svg"
   xmlns:sodipodi="http://sodipodi.sourceforge.net/DTD/sodipodi-0.dtd"
   xmlns:inkscape="http://www.inkscape.org/namespaces/inkscape"
   width="13.229167mm"
   height="13.229167mm"
   viewBox="0 0 13.229169 13.229168"
   version="1.1"
   id="svg8"
   sodipodi:docname="VCS_resized_219.svg"
   inkscape:version="1.0.2-2 (e86c870879, 2021-01-15)">
  <defs
     id="defs2" />
  <sodipodi:namedview
     id="base"
     pagecolor="#ffffff"
     bordercolor="#666666"
     borderopacity="1.0"
     inkscape:pageopacity="0.0"
     inkscape:pageshadow="2"
     inkscape:zoom="2.8284271"
     inkscape:cx="9.9222364"
     inkscape:cy="86.426118"
     inkscape:document-units="mm"
     inkscape:current-layer="layer1"
     inkscape:document-rotation="0"
     showgrid="false"
     inkscape:window-width="958"
     inkscape:window-height="1008"
     inkscape:window-x="1913"
     inkscape:window-y="0"
     inkscape:window-maximized="0" />
  <metadata
     id="metadata5">
    <rdf:RDF>
      <cc:Work
         rdf:about="">
        <dc:format>image/svg+xml</dc:format>
        <dc:type
           rdf:resource="http://purl.org/dc/dcmitype/StillImage" />
        <dc:title></dc:title>
      </cc:Work>
    </rdf:RDF>
  </metadata>
  <g
     inkscape:label="Ebene 1"
     inkscape:groupmode="layer"
     id="layer1"
     transform="translate(-45.938103,-7.8135929)">
    <path
       style="fill:#000000;stroke-width:0.264582"
       d="m 48.618048,20.57557 c -0.04817,-0.05322 -0.08758,-0.126195 -0.08758,-0.162158 0,-0.03596 -0.224292,-0.736557 -0.498426,-1.556875 -0.274134,-0.820318 -0.525326,-1.634362 -0.558204,-1.808987 -0.03288,-0.174625 -0.117058,-0.543719 -0.187066,-0.820209 -0.07001,-0.276489 -0.187156,-0.770473 -0.260334,-1.097742 -0.07318,-0.327268 -0.229178,-0.840895 -0.346668,-1.141394 -0.240714,-0.615668 -0.474858,-1.379872 -0.476526,-1.5553 -8e-4,-0.08991 0.08703,-0.167142 0.382536,-0.336151 0.211006,-0.120682 0.514614,-0.2977 0.674688,-0.393373 0.160072,-0.09567 0.469634,-0.2684 0.687916,-0.383837 1.097924,-0.580633 1.513026,-0.82107 1.991298,-1.153406 0.44837,-0.311559 0.834544,-0.608162 2.341938,-1.798738 0.127706,-0.100865 0.253518,-0.183392 0.279584,-0.183392 0.05529,0 0.876416,0.621214 1.716568,1.298647 0.849926,0.685313 1.354316,0.999163 3.566028,2.218912 0.919012,0.506831 1.058334,0.603747 1.058334,0.736204 0,0.144778 -0.166748,0.718388 -0.3171,1.09082 -0.18375,0.455161 -0.363138,1.081116 -0.508028,1.772709 -0.26123,1.246904 -0.574244,2.328516 -1.263392,4.365625 -0.162458,0.480218 -0.335052,0.90289 -0.383542,0.93927 -0.06863,0.05149 -0.934094,0.06615 -3.906308,0.06615 -3.631752,0 -3.82242,-0.0047 -3.90572,-0.09677 z m 8.177304,-1.725258 c 0.458004,-1.367956 0.711674,-2.293718 1.04497,-3.813596 0.05744,-0.261937 0.191866,-0.726281 0.298724,-1.031875 0.106858,-0.305593 0.24849,-0.710406 0.314742,-0.899583 0.06625,-0.189177 0.135632,-0.416975 0.15418,-0.506217 l 0.03373,-0.162259 -0.994258,-0.54766 C 57.1006,11.587909 56.415058,11.21073 56.124016,11.050946 55.392822,10.649516 54.764878,10.222873 53.936758,9.564866 52.908554,8.747874 52.647446,8.554425 52.572922,8.554425 c -0.03664,0 -0.431346,0.286871 -0.877134,0.637492 -1.565684,1.231444 -2.034756,1.537778 -3.546354,2.315994 -0.830006,0.427311 -1.586278,0.872363 -1.61658,0.951324 -0.04566,0.118992 0.124308,0.739143 0.387356,1.413315 0.124916,0.320145 0.290022,0.84402 0.366904,1.164166 0.07688,0.320146 0.185094,0.760677 0.24047,0.978959 0.05538,0.218281 0.13558,0.587375 0.178232,0.820208 0.04265,0.232833 0.311132,1.131092 0.596624,1.996129 l 0.519076,1.572796 3.730626,-0.01175 3.730626,-0.01175 z"
       id="path4403" />
  </g>
</svg>
