<?xml version="1.0" encoding="UTF-8" standalone="no"?>
<svg
   xmlns:dc="http://purl.org/dc/elements/1.1/"
   xmlns:cc="http://creativecommons.org/ns#"
   xmlns:rdf="http://www.w3.org/1999/02/22-rdf-syntax-ns#"
   xmlns:svg="http://www.w3.org/2000/svg"
   xmlns="http://www.w3.org/2000/svg"
   xmlns:sodipodi="http://sodipodi.sourceforge.net/DTD/sodipodi-0.dtd"
   xmlns:inkscape="http://www.inkscape.org/namespaces/inkscape"
   width="13.229167mm"
   height="13.229167mm"
   viewBox="0 0 13.229169 13.229168"
   version="1.1"
   id="svg8"
   sodipodi:docname="VCS_resized_191.svg"
   inkscape:version="1.0.2-2 (e86c870879, 2021-01-15)">
  <defs
     id="defs2" />
  <sodipodi:namedview
     id="base"
     pagecolor="#ffffff"
     bordercolor="#666666"
     borderopacity="1.0"
     inkscape:pageopacity="0.0"
     inkscape:pageshadow="2"
     inkscape:zoom="2.8284271"
     inkscape:cx="11.084244"
     inkscape:cy="41.954703"
     inkscape:document-units="mm"
     inkscape:current-layer="layer1"
     inkscape:document-rotation="0"
     showgrid="false"
     inkscape:window-width="958"
     inkscape:window-height="1008"
     inkscape:window-x="1913"
     inkscape:window-y="0"
     inkscape:window-maximized="0" />
  <metadata
     id="metadata5">
    <rdf:RDF>
      <cc:Work
         rdf:about="">
        <dc:format>image/svg+xml</dc:format>
        <dc:type
           rdf:resource="http://purl.org/dc/dcmitype/StillImage" />
        <dc:title></dc:title>
      </cc:Work>
    </rdf:RDF>
  </metadata>
  <g
     inkscape:label="Ebene 1"
     inkscape:groupmode="layer"
     id="layer1"
     transform="translate(-45.630653,-19.579987)">
    <path
       style="fill:#000000;stroke-width:0.264582"
       d="m 49.195967,32.245775 -0.396876,-0.02646 -0.3175,-0.635103 c -0.174624,-0.349307 -0.55728,-1.099768 -0.850344,-1.667692 -0.590942,-1.145171 -0.70944,-1.504643 -0.749788,-2.274496 -0.02029,-0.387183 8e-4,-0.642224 0.09154,-1.109811 0.154266,-0.79444 0.131832,-1.394173 -0.0733,-1.959356 -0.250046,-0.688943 -0.347904,-1.068019 -0.382358,-1.481168 l -0.03345,-0.401042 0.287888,-0.26275 c 0.625608,-0.570974 1.40201,-0.997529 2.21251,-1.215552 0.625576,-0.168278 1.90277,-0.583028 2.672292,-0.867788 0.320146,-0.118469 0.631122,-0.215691 0.69106,-0.216049 0.131196,-7.8e-4 1.233052,0.399767 1.725902,0.627405 0.206666,0.09546 0.634782,0.219491 1.031874,0.298958 0.51681,0.103425 0.792244,0.191599 1.154914,0.36972 0.549012,0.26964 1.177508,0.673328 1.513328,0.972021 l 0.232922,0.207172 -0.0074,0.468599 c -0.0052,0.332697 -0.04065,0.56068 -0.122074,0.786099 -0.2947,0.815843 -0.3329,0.971343 -0.357498,1.455208 -0.01878,0.369521 0.0038,0.669258 0.08518,1.131334 0.180064,1.022177 0.127778,1.662903 -0.199316,2.442512 -0.171302,0.408285 -1.522412,3.066025 -1.647864,3.241475 -0.07879,0.110198 -0.101624,0.111128 -3.122084,0.127115 -1.673488,0.0089 -3.221302,0.0042 -3.439582,-0.01035 z m 6.262934,-0.257709 c 0.12483,-0.0491 1.517962,-2.765493 1.753984,-3.42 0.22159,-0.614484 0.26002,-1.023266 0.159192,-1.693333 -0.182236,-1.211061 -0.19344,-1.359677 -0.131442,-1.74367 0.06041,-0.374141 0.166722,-0.75502 0.36308,-1.300763 0.05793,-0.161021 0.121628,-0.472548 0.14154,-0.69228 l 0.0362,-0.399514 -0.23139,-0.185793 c -0.75315,-0.604733 -1.463892,-0.961645 -2.358192,-1.184212 -0.401884,-0.100018 -1.147418,-0.346075 -1.65674,-0.546794 -0.509322,-0.20072 -0.986906,-0.378711 -1.061296,-0.395536 -0.08909,-0.02015 -0.396124,0.06016 -0.899582,0.235295 -0.761158,0.264784 -1.14427,0.389606 -2.35183,0.76625 -0.34925,0.108933 -0.807438,0.276299 -1.018194,0.371926 -0.44882,0.203643 -1.315838,0.783467 -1.396278,0.933769 -0.0868,0.162186 -0.0024,0.774391 0.174734,1.267701 0.381584,1.062605 0.454256,1.710983 0.286496,2.556121 -0.107736,0.542753 -0.109034,1.44198 -0.0027,1.854195 0.08597,0.33319 0.176886,0.525327 1.12448,2.376399 0.327004,0.638786 0.62404,1.180155 0.660078,1.203044 0.08244,0.05236 6.274482,0.04965 6.407834,-0.0028 z"
       id="path3939" />
  </g>
</svg>
