<?xml version="1.0" encoding="UTF-8" standalone="no"?>
<svg
   xmlns:dc="http://purl.org/dc/elements/1.1/"
   xmlns:cc="http://creativecommons.org/ns#"
   xmlns:rdf="http://www.w3.org/1999/02/22-rdf-syntax-ns#"
   xmlns:svg="http://www.w3.org/2000/svg"
   xmlns="http://www.w3.org/2000/svg"
   xmlns:sodipodi="http://sodipodi.sourceforge.net/DTD/sodipodi-0.dtd"
   xmlns:inkscape="http://www.inkscape.org/namespaces/inkscape"
   width="13.229167mm"
   height="13.229167mm"
   viewBox="0 0 13.229169 13.229168"
   version="1.1"
   id="svg8"
   sodipodi:docname="VCS_resized_343.svg"
   inkscape:version="1.0.2-2 (e86c870879, 2021-01-15)">
  <defs
     id="defs2" />
  <sodipodi:namedview
     id="base"
     pagecolor="#ffffff"
     bordercolor="#666666"
     borderopacity="1.0"
     inkscape:pageopacity="0.0"
     inkscape:pageshadow="2"
     inkscape:zoom="4"
     inkscape:cx="2.7609442"
     inkscape:cy="7.7691693"
     inkscape:document-units="mm"
     inkscape:current-layer="layer1"
     inkscape:document-rotation="0"
     showgrid="false"
     inkscape:window-width="958"
     inkscape:window-height="1008"
     inkscape:window-x="1913"
     inkscape:window-y="0"
     inkscape:window-maximized="0" />
  <metadata
     id="metadata5">
    <rdf:RDF>
      <cc:Work
         rdf:about="">
        <dc:format>image/svg+xml</dc:format>
        <dc:type
           rdf:resource="http://purl.org/dc/dcmitype/StillImage" />
        <dc:title></dc:title>
      </cc:Work>
    </rdf:RDF>
  </metadata>
  <g
     inkscape:label="Ebene 1"
     inkscape:groupmode="layer"
     id="layer1"
     transform="translate(-97.143097,10.478813)">
    <path
       style="fill:#000000;stroke-width:0.264582"
       d="m 103.18266,2.0471452 c -0.11397,-0.063777 -0.44834,-0.554237 -0.66267,-0.9720098 -0.32662,-0.63663458 -0.42766,-0.92371698 -0.46067,-1.30883718 -0.0559,-0.6520174 -0.18845,-1.69764022 -0.24032,-1.89550362 -0.0447,-0.1703852 -0.0954,-0.2110528 -0.53953,-0.43202 -0.26962,-0.1341608 -0.86924,-0.4135236 -1.332477,-0.6208068 -0.841492,-0.376537 -2.160386,-1.0619798 -2.301742,-1.1962394 -0.06109,-0.058023 -0.06241,-0.086032 -0.0072,-0.1525466 0.104284,-0.1256558 0.95269,-0.3753294 1.801834,-0.5302546 1.446485,-0.2639092 2.668645,-0.5133224 2.763125,-0.5638838 0.13616,-0.072872 0.40844,-0.634312 0.8118,-1.6739578 0.33827,-0.8718506 1.20167,-2.5003252 1.32564,-2.5003252 0.039,0 0.10395,0.065484 0.14438,0.1455208 0.14008,0.2773512 0.40081,1.1540838 0.53898,1.8123958 0.16909,0.8055938 0.52287,2.2521318 0.59579,2.4360442 0.0449,0.1133026 0.21661,0.1982222 1.10392,0.546018 2.14965,0.8425852 3.19386,1.3300064 3.19386,1.490845 0,0.1509502 -1.05315,0.5355278 -2.38125,0.869559 -0.91199,0.2293762 -1.69928,0.450079 -1.91366,0.5364596 -0.18232,0.073466 -0.28629,0.3204756 -0.59915,1.42357422 -0.13621,0.4802188 -0.27543,0.9124808 -0.3094,0.9605826 -0.034,0.048102 -0.18004,0.2615146 -0.32463,0.4742508 -0.26435,0.38895698 -0.87363,1.07248578 -1.03111,1.15676418 -0.0486,0.025998 -0.12328,0.023603 -0.17551,-0.00563 z m 0.49736,-0.6705244 c 0.62758,-0.67008118 0.82399,-1.01729238 1.08918,-1.92535558 0.13014,-0.445663 0.30051,-0.97690722 0.37858,-1.18054222 0.13833,-0.3607944 0.14868,-0.3725032 0.40525,-0.4586886 0.28005,-0.09407 0.95652,-0.2915004 1.48038,-0.4320524 2.00812,-0.538779 2.45999,-0.6945216 2.34459,-0.8080894 -0.12436,-0.1223872 -0.81453,-0.4369862 -1.84806,-0.842402 -0.55814,-0.2189338 -1.2476,-0.496516 -1.53214,-0.6168502 -0.48932,-0.2069364 -0.52178,-0.2305256 -0.59915,-0.4354386 -0.11077,-0.2933758 -0.36074,-1.2848462 -0.53453,-2.1201396 -0.2345,-1.1271006 -0.46099,-1.8490414 -0.56947,-1.8152136 -0.12404,0.038676 -0.64025,1.0981684 -1.25754,2.5809952 -0.38036,0.9136904 -0.5672,1.2550648 -0.70599,1.2898992 -0.22148,0.055588 -1.65444,0.3442156 -2.388539,0.481102 -1.307042,0.2437204 -1.777474,0.3694536 -1.788278,0.477957 -0.0078,0.078536 0.77597,0.5012108 1.73536,0.9358266 0.465667,0.2109528 1.132417,0.527222 1.481667,0.70282 l 0.635,0.3192702 0.0866,0.4497916 c 0.0476,0.2473854 0.12328,0.8499936 0.16811,1.33912982 l 0.0815,0.8893376 0.29534,0.5831824 c 0.31831,0.62854098 0.53227,0.94543358 0.63833,0.94543358 0.0367,0 0.2184,-0.161988 0.40382,-0.359973 z"
       id="path6409" />
  </g>
</svg>
