<?xml version="1.0" encoding="UTF-8" standalone="no"?>
<svg
   xmlns:dc="http://purl.org/dc/elements/1.1/"
   xmlns:cc="http://creativecommons.org/ns#"
   xmlns:rdf="http://www.w3.org/1999/02/22-rdf-syntax-ns#"
   xmlns:svg="http://www.w3.org/2000/svg"
   xmlns="http://www.w3.org/2000/svg"
   xmlns:sodipodi="http://sodipodi.sourceforge.net/DTD/sodipodi-0.dtd"
   xmlns:inkscape="http://www.inkscape.org/namespaces/inkscape"
   width="13.229167mm"
   height="13.229167mm"
   viewBox="0 0 13.229169 13.229168"
   version="1.1"
   id="svg8"
   sodipodi:docname="VCS_resized_136.svg"
   inkscape:version="1.0.2-2 (e86c870879, 2021-01-15)">
  <defs
     id="defs2" />
  <sodipodi:namedview
     id="base"
     pagecolor="#ffffff"
     bordercolor="#666666"
     borderopacity="1.0"
     inkscape:pageopacity="0.0"
     inkscape:pageshadow="2"
     inkscape:zoom="2.8284271"
     inkscape:cx="26.441222"
     inkscape:cy="26.44877"
     inkscape:document-units="mm"
     inkscape:current-layer="layer1"
     inkscape:document-rotation="0"
     showgrid="false"
     inkscape:window-width="958"
     inkscape:window-height="1008"
     inkscape:window-x="1913"
     inkscape:window-y="0"
     inkscape:window-maximized="0" />
  <metadata
     id="metadata5">
    <rdf:RDF>
      <cc:Work
         rdf:about="">
        <dc:format>image/svg+xml</dc:format>
        <dc:type
           rdf:resource="http://purl.org/dc/dcmitype/StillImage" />
        <dc:title></dc:title>
      </cc:Work>
    </rdf:RDF>
  </metadata>
  <g
     inkscape:label="Ebene 1"
     inkscape:groupmode="layer"
     id="layer1"
     transform="translate(-31.204077,-19.593708)">
    <path
       style="fill:#000000;stroke-width:0.264582"
       d="m 36.083485,32.321241 c -0.305594,-0.0537 -0.671698,-0.114064 -0.813564,-0.134134 -0.291894,-0.0413 -0.226842,0.03013 -1.223332,-1.343108 -1.358557,-1.872185 -1.468223,-2.069594 -1.540249,-2.772609 -0.04795,-0.468012 0.09646,-0.852671 0.499508,-1.330521 0.798463,-0.946653 0.961765,-1.268535 0.959715,-1.891667 -0.0016,-0.456447 -0.102638,-0.726177 -0.559761,-1.492911 -0.462848,-0.776336 -0.563801,-1.038993 -0.591686,-1.539418 -0.04064,-0.729432 0.214376,-1.327454 0.70452,-1.652111 0.371175,-0.245856 0.684879,-0.236458 1.199397,0.03593 0.212572,0.112538 0.697306,0.369113 1.07719,0.570167 1.10339,0.583975 1.29562,0.657839 1.881122,0.722818 0.615092,0.06826 0.95603,0.01593 1.581018,-0.242686 0.460244,-0.190446 0.725772,-0.345479 1.059456,-0.618582 0.729758,-0.597272 1.248862,-0.758469 1.715324,-0.532659 0.288098,0.139466 0.47709,0.351945 0.66087,0.742996 0.119202,0.25364 0.136528,0.359045 0.13482,0.820208 -0.0022,0.605596 -0.116186,0.951783 -0.496784,1.509358 -0.475718,0.69693 -0.726178,1.362865 -0.664758,1.767491 0.09572,0.630561 0.209354,0.856349 0.75853,1.507146 0.613706,0.727268 0.7695,1.113648 0.699496,1.734802 -0.0564,0.500445 -0.26705,0.941973 -0.786974,1.64951 -0.227518,0.309619 -0.669946,0.926259 -0.983174,1.37031 -0.31323,0.444052 -0.611592,0.82989 -0.66303,0.857419 -0.132488,0.07091 -0.731836,0.199318 -1.36616,0.292704 -0.77836,0.114592 -2.508622,0.09833 -3.241494,-0.03046 z m 3.507938,-0.266129 c 0.35531,-0.06149 0.71871,-0.141657 0.807552,-0.178143 0.1217,-0.04998 0.40726,-0.410607 1.158046,-1.462467 1.17447,-1.645447 1.268424,-1.821131 1.270166,-2.375086 0.0016,-0.483083 -0.128382,-0.777505 -0.60703,-1.375834 -0.669638,-0.837073 -0.845006,-1.204933 -0.845006,-1.77253 0,-0.560868 0.214796,-1.10813 0.768136,-1.957076 0.474788,-0.728431 0.57137,-1.431453 0.276532,-2.012883 -0.158034,-0.311647 -0.263164,-0.415058 -0.53922,-0.530402 -0.357846,-0.149517 -0.619204,-0.05526 -1.48404,0.535231 -0.943476,0.644181 -1.50048,0.837718 -2.408074,0.83671 -0.778866,-8.6e-4 -1.066394,-0.09752 -2.513534,-0.844962 -1.20491,-0.62233 -1.412724,-0.681909 -1.760201,-0.50464 -0.400204,0.204169 -0.648592,0.671903 -0.646222,1.216893 0.002,0.467555 0.08364,0.71678 0.432754,1.321584 0.467495,0.809888 0.613691,1.121854 0.702731,1.499539 0.193898,0.822455 0.06193,1.188853 -0.832825,2.31234 -0.469012,0.588908 -0.587718,0.876524 -0.55731,1.350332 0.03654,0.569386 0.227514,0.891302 1.698187,2.862573 0.06514,0.08731 0.210992,0.295383 0.324116,0.46238 0.113124,0.166996 0.248794,0.342647 0.301488,0.390336 0.05894,0.05334 0.366258,0.133032 0.798626,0.207092 1.001666,0.171575 2.721896,0.180523 3.655128,0.01901 z"
       id="path2218" />
  </g>
</svg>
