<?xml version="1.0" encoding="UTF-8" standalone="no"?>
<svg
   xmlns:dc="http://purl.org/dc/elements/1.1/"
   xmlns:cc="http://creativecommons.org/ns#"
   xmlns:rdf="http://www.w3.org/1999/02/22-rdf-syntax-ns#"
   xmlns:svg="http://www.w3.org/2000/svg"
   xmlns="http://www.w3.org/2000/svg"
   xmlns:sodipodi="http://sodipodi.sourceforge.net/DTD/sodipodi-0.dtd"
   xmlns:inkscape="http://www.inkscape.org/namespaces/inkscape"
   width="13.229167mm"
   height="13.229167mm"
   viewBox="0 0 13.229169 13.229168"
   version="1.1"
   id="svg8"
   sodipodi:docname="VCS_resized_304.svg"
   inkscape:version="1.0.2-2 (e86c870879, 2021-01-15)">
  <defs
     id="defs2" />
  <sodipodi:namedview
     id="base"
     pagecolor="#ffffff"
     bordercolor="#666666"
     borderopacity="1.0"
     inkscape:pageopacity="0.0"
     inkscape:pageshadow="2"
     inkscape:zoom="4"
     inkscape:cx="22.755405"
     inkscape:cy="8.6648489"
     inkscape:document-units="mm"
     inkscape:current-layer="layer1"
     inkscape:document-rotation="0"
     showgrid="false"
     inkscape:window-width="958"
     inkscape:window-height="1008"
     inkscape:window-x="1913"
     inkscape:window-y="0"
     inkscape:window-maximized="0" />
  <metadata
     id="metadata5">
    <rdf:RDF>
      <cc:Work
         rdf:about="">
        <dc:format>image/svg+xml</dc:format>
        <dc:type
           rdf:resource="http://purl.org/dc/dcmitype/StillImage" />
        <dc:title></dc:title>
      </cc:Work>
    </rdf:RDF>
  </metadata>
  <g
     inkscape:label="Ebene 1"
     inkscape:groupmode="layer"
     id="layer1"
     transform="translate(-89.207062,10.715794)">
    <path
       style="fill:#000000;stroke-width:0.264582"
       d="m 95.339384,1.9178075 c -0.189178,-0.04199 -0.660786,-0.130714 -1.048022,-0.197166 -0.387234,-0.06645 -0.72831,-0.145067 -0.757946,-0.174703 -0.02964,-0.02964 -0.08658,-0.360507 -0.126538,-0.73527005 -0.03996,-0.3747629 -0.133462,-1.1730929 -0.207782,-1.7740669 -0.07432,-0.60097395 -0.135128,-1.10466755 -0.135128,-1.11931915 0,-0.027195 -0.129096,-0.12192 -1.74625,-1.2813309 -1.684354,-1.207588 -2.017338,-1.4613266 -1.997158,-1.5218644 0.02305,-0.069145 0.57075,-0.2152618 1.917782,-0.5116284 1.138444,-0.2504742 2.522216,-0.5753142 2.540572,-0.5963984 0.04315,-0.04957 0.351158,-0.7015766 0.738698,-1.5637283 1.132934,-2.520408 1.218862,-2.685314 1.369174,-2.627633 0.04074,0.01563 0.194314,0.294935 0.341274,0.6206702 0.14696,0.3257352 0.521494,1.1518394 0.832302,1.8357874 0.310804,0.6839481 0.615398,1.3574703 0.676874,1.4967167 0.0697,0.1578822 0.152346,0.2620132 0.219566,0.2766564 0.05928,0.012914 0.476884,0.1100682 0.927998,0.2158968 0.451116,0.105828 1.21312,0.2822834 1.69333,0.3921226 1.04743,0.239576 1.74655,0.4283016 1.74544,0.4711806 -4e-4,0.017262 -0.0183,0.057588 -0.0397,0.089612 -0.0382,0.057264 -1.51237,1.1409664 -2.930792,2.1545581 -0.45802,0.3272954 -0.732834,0.5590556 -0.751022,0.6333612 -0.01578,0.064453 -0.08936,0.6172496 -0.16352,1.22843695 -0.213882,1.7627035 -0.299578,2.32517755 -0.359934,2.36247955 -0.03096,0.01914 -0.213468,0.05942 -0.405572,0.08952 -0.192106,0.0301 -0.682656,0.115692 -1.090114,0.190201 -0.830552,0.151879 -0.77529,0.149839 -1.243542,0.04591 z m 1.74203,-0.406519 c 0.419688,-0.07636 0.774694,-0.150467 0.788902,-0.164675 0.02827,-0.02827 0.21915,-1.38456775 0.353786,-2.5137903 0.143934,-1.2071932 -0.03015,-0.9665688 1.480908,-2.0469107 1.78927,-1.2792508 2.03258,-1.4623314 2.03511,-1.5313162 0.002,-0.066745 -0.16344,-0.1159626 -1.10908,-0.329056 -1.566308,-0.352959 -2.83666,-0.6554402 -2.909108,-0.692684 -0.04294,-0.022076 -0.190914,-0.2879428 -0.328824,-0.590815 -0.137912,-0.3028718 -0.534024,-1.1772701 -0.880252,-1.9431065 -0.346228,-0.7658366 -0.64983,-1.3941242 -0.674672,-1.396195 -0.02484,-0.00207 -0.06321,0.02921 -0.08526,0.069513 -0.06017,0.109972 -0.761298,1.6366114 -1.260928,2.7455701 -0.242584,0.5384272 -0.473708,1.0177442 -0.513608,1.0651496 -0.0399,0.047405 -0.220296,0.1148964 -0.400878,0.1499806 -0.180584,0.035084 -0.709332,0.155011 -1.175,0.2665032 -0.465666,0.1114922 -1.203854,0.2781586 -1.640416,0.37037 -0.436562,0.092211 -0.817562,0.1912606 -0.846666,0.2201096 -0.06799,0.067397 -0.03769,0.091281 1.666874,1.3135394 0.771262,0.5530335 1.472014,1.0616283 1.557232,1.1302103 l 0.154938,0.1246946 0.225568,1.78644315 c 0.124062,0.982544 0.232934,1.79374775 0.241936,1.80267575 0.009,0.0089 0.397368,0.0801 0.863034,0.158167 0.465668,0.07807 0.858574,0.153711 0.873126,0.168101 0.05383,0.05323 0.842694,-0.02773 1.58328,-0.162479 z"
       id="path5779" />
  </g>
</svg>
