<?xml version="1.0" encoding="UTF-8" standalone="no"?>
<svg
   xmlns:dc="http://purl.org/dc/elements/1.1/"
   xmlns:cc="http://creativecommons.org/ns#"
   xmlns:rdf="http://www.w3.org/1999/02/22-rdf-syntax-ns#"
   xmlns:svg="http://www.w3.org/2000/svg"
   xmlns="http://www.w3.org/2000/svg"
   xmlns:sodipodi="http://sodipodi.sourceforge.net/DTD/sodipodi-0.dtd"
   xmlns:inkscape="http://www.inkscape.org/namespaces/inkscape"
   width="13.229167mm"
   height="13.229167mm"
   viewBox="0 0 13.229167 13.229167"
   version="1.1"
   id="svg8"
   sodipodi:docname="VCS_resized_40.svg"
   inkscape:version="1.0.2-2 (e86c870879, 2021-01-15)">
  <defs
     id="defs2" />
  <sodipodi:namedview
     id="base"
     pagecolor="#ffffff"
     bordercolor="#666666"
     borderopacity="1.0"
     inkscape:pageopacity="0.0"
     inkscape:pageshadow="2"
     inkscape:zoom="2.8284271"
     inkscape:cx="0.89909088"
     inkscape:cy="36.14306"
     inkscape:document-units="mm"
     inkscape:current-layer="layer1"
     inkscape:document-rotation="0"
     showgrid="false"
     inkscape:window-width="958"
     inkscape:window-height="1008"
     inkscape:window-x="1913"
     inkscape:window-y="0"
     inkscape:window-maximized="0" />
  <metadata
     id="metadata5">
    <rdf:RDF>
      <cc:Work
         rdf:about="">
        <dc:format>image/svg+xml</dc:format>
        <dc:type
           rdf:resource="http://purl.org/dc/dcmitype/StillImage" />
        <dc:title></dc:title>
      </cc:Work>
    </rdf:RDF>
  </metadata>
  <g
     inkscape:label="Ebene 1"
     inkscape:groupmode="layer"
     id="layer1"
     transform="translate(-37.962101,-17.028761)">
    <path
       style="fill:#000000;stroke-width:0.264582"
       d="m 41.287921,28.542471 c -0.290678,-0.05744 -0.461762,-0.202114 -0.618956,-0.523404 -0.117586,-0.240338 -0.145046,-0.368392 -0.143568,-0.669482 0.0016,-0.316184 0.03048,-0.432128 0.191904,-0.769179 0.104542,-0.218282 0.336162,-0.575469 0.514712,-0.79375 0.691452,-0.845317 0.898462,-1.584174 0.61644,-2.20019 -0.168082,-0.36714 -0.41258,-0.63898 -1.142488,-1.270254 -0.868254,-0.750925 -1.218336,-1.286686 -1.21634,-1.861478 0.002,-0.570999 0.406408,-0.912124 1.088096,-0.917789 0.591378,-0.0049 0.984516,0.16473 1.82145,0.785982 0.675868,0.501693 1.130522,0.711568 1.607826,0.7422 0.673972,0.04325 0.988186,-0.16122 1.797714,-1.16985 0.681634,-0.84928 1.134804,-1.150932 1.780294,-1.185047 0.334216,-0.01766 0.424588,-0.0035 0.572416,0.08953 0.342516,0.215618 0.557102,0.961542 0.430834,1.497618 -0.09096,0.386172 -0.249418,0.681854 -0.659976,1.231516 -0.688166,0.92133 -0.887984,1.536691 -0.691284,2.1289 0.118096,0.355553 0.392654,0.656801 1.169636,1.283337 0.965194,0.778306 1.256058,1.207997 1.257116,1.857128 6e-4,0.421625 -0.08163,0.557911 -0.464128,0.768429 -0.210066,0.115614 -0.351894,0.149876 -0.694952,0.167882 -0.52224,0.02741 -0.746138,-0.03809 -1.612766,-0.471784 -1.02557,-0.513239 -1.647344,-0.627633 -2.270464,-0.417719 -0.402218,0.135499 -0.709034,0.347617 -1.251536,0.865255 -0.550648,0.52541 -0.774736,0.68872 -1.091642,0.795556 -0.258678,0.08721 -0.659292,0.102008 -0.990338,0.03659 z m 1.041232,-0.344396 c 0.17144,-0.07982 0.498142,-0.338478 0.873126,-0.691272 1.316098,-1.238217 2.078998,-1.325833 3.842708,-0.441316 0.71035,0.356248 0.782146,0.380852 1.178284,0.403784 0.736354,0.04263 1.162082,-0.222026 1.159738,-0.720947 -0.0023,-0.499436 -0.306662,-0.911154 -1.222878,-1.654474 -0.885784,-0.718629 -1.263044,-1.246443 -1.263044,-1.767092 0,-0.59535 0.24195,-1.172655 0.798692,-1.905727 0.511162,-0.673055 0.64938,-0.98122 0.652684,-1.455209 0.0048,-0.685963 -0.223248,-0.978696 -0.759786,-0.975364 -0.545922,0.0034 -1.012666,0.32124 -1.59493,1.086134 -0.673316,0.884503 -1.266938,1.296958 -1.850844,1.285983 -0.579872,-0.0109 -1.186308,-0.29076 -2.117088,-0.977004 -0.533764,-0.393534 -0.96549,-0.578639 -1.346436,-0.577295 -0.43175,0.0015 -0.720516,0.137302 -0.843588,0.39666 -0.20621,0.434554 0.02226,0.948124 0.705784,1.586511 1.083662,1.012101 1.37743,1.331596 1.539628,1.674452 0.33448,0.707031 0.16987,1.39199 -0.573548,2.386591 -0.644372,0.862092 -0.82064,1.380491 -0.647638,1.904693 0.167014,0.506052 0.873694,0.71813 1.469136,0.440892 z"
       id="path650" />
  </g>
</svg>
