<?xml version="1.0" encoding="UTF-8" standalone="no"?>
<svg
   xmlns:dc="http://purl.org/dc/elements/1.1/"
   xmlns:cc="http://creativecommons.org/ns#"
   xmlns:rdf="http://www.w3.org/1999/02/22-rdf-syntax-ns#"
   xmlns:svg="http://www.w3.org/2000/svg"
   xmlns="http://www.w3.org/2000/svg"
   xmlns:sodipodi="http://sodipodi.sourceforge.net/DTD/sodipodi-0.dtd"
   xmlns:inkscape="http://www.inkscape.org/namespaces/inkscape"
   width="13.229167mm"
   height="13.229167mm"
   viewBox="0 0 13.229169 13.229168"
   version="1.1"
   id="svg8"
   sodipodi:docname="VCS_resized_259.svg"
   inkscape:version="1.0.2-2 (e86c870879, 2021-01-15)">
  <defs
     id="defs2" />
  <sodipodi:namedview
     id="base"
     pagecolor="#ffffff"
     bordercolor="#666666"
     borderopacity="1.0"
     inkscape:pageopacity="0.0"
     inkscape:pageshadow="2"
     inkscape:zoom="2.8284271"
     inkscape:cx="17.297762"
     inkscape:cy="24.767672"
     inkscape:document-units="mm"
     inkscape:current-layer="layer1"
     inkscape:document-rotation="0"
     showgrid="false"
     inkscape:window-width="958"
     inkscape:window-height="1008"
     inkscape:window-x="1913"
     inkscape:window-y="0"
     inkscape:window-maximized="0" />
  <metadata
     id="metadata5">
    <rdf:RDF>
      <cc:Work
         rdf:about="">
        <dc:format>image/svg+xml</dc:format>
        <dc:type
           rdf:resource="http://purl.org/dc/dcmitype/StillImage" />
        <dc:title></dc:title>
      </cc:Work>
    </rdf:RDF>
  </metadata>
  <g
     inkscape:label="Ebene 1"
     inkscape:groupmode="layer"
     id="layer1"
     transform="translate(-73.465401,-0.46975869)">
    <path
       style="fill:#000000;stroke-width:0.264582"
       d="m 76.146338,13.023032 c -0.0164,-0.211005 -0.06775,-1.074208 -0.11412,-1.918229 -0.12431,-2.2627027 -0.02105,-1.9193493 -1.003586,-3.3370443 -1.407096,-2.0302924 -1.561996,-2.265135 -1.520688,-2.305512 0.05334,-0.052143 0.505428,-0.1932734 3.308256,-1.0327624 l 0.67554,-0.2023348 0.78378,-1.0855484 c 0.431078,-0.5970518 0.983398,-1.3772516 1.22738,-1.7337776 0.374304,-0.54696821 0.46459,-0.64784761 0.57797,-0.64578621 0.11431,0.00208 0.252566,0.1725138 0.92606,1.14161421 0.43543,0.6265442 0.98293,1.3993042 1.21667,1.7172438 l 0.424982,0.5780728 0.556038,0.180584 c 0.30582,0.099321 0.794164,0.2516018 1.085204,0.3384016 1.977798,0.5898514 2.32227,0.6975352 2.36361,0.7388744 0.02652,0.026517 -0.07406,0.2145358 -0.235076,0.4394522 -0.15478,0.216208 -0.5553,0.7979182 -0.890042,1.292689 -0.334744,0.4947708 -0.740888,1.0900834 -0.902542,1.3229168 -0.161656,0.2328332 -0.323314,0.4792286 -0.35924,0.5475446 -0.06357,0.120885 -0.178354,1.6933203 -0.243946,3.3418303 -0.0168,0.422011 -0.04138,0.82087 -0.05463,0.886354 l -0.0241,0.119063 h -3.88386 -3.883852 z m 7.595494,-0.621771 c 0.01874,-0.392906 0.07361,-1.315903 0.12191,-2.051105 L 83.951562,9.0134257 84.8051,7.7572389 C 85.274546,7.0663365 85.785234,6.3232215 85.93996,6.1058727 86.227644,5.7017565 86.271632,5.5881401 86.155138,5.5500773 86.118758,5.5381913 85.850866,5.4575583 85.559824,5.3708945 85.268784,5.2842307 84.70919,5.1176201 84.316284,5.0006477 83.923378,4.8836759 83.356604,4.7136229 83.056786,4.6227529 L 82.511666,4.4575343 81.991902,3.7595015 C 81.706034,3.3755837 81.206088,2.6804693 80.880914,2.2148027 c -0.81475,-1.1667594 -0.769,-1.1089392 -0.84183,-1.0639266 -0.03547,0.021919 -0.2109,0.2583624 -0.389852,0.5254308 -0.403712,0.6024946 -1.279642,1.832049 -1.691564,2.3744666 l -0.30925,0.4072206 -0.59513,0.1850042 c -0.327322,0.1017524 -0.761818,0.2311198 -0.965546,0.2874834 -0.670548,0.1855142 -2.149744,0.6419612 -2.188884,0.6754406 -0.01676,0.014328 0.499034,0.7685722 1.89954,2.7777434 l 0.353254,0.5067798 0.06332,0.8690532 c 0.03482,0.4779803 0.08593,1.1620543 0.113566,1.5201663 0.02764,0.358111 0.05051,0.834361 0.05083,1.058333 4e-4,0.223972 0.01536,0.496682 0.03344,0.606022 l 0.03286,0.1988 3.631038,-0.01359 3.631038,-0.01359 z"
       id="path5057" />
  </g>
</svg>
