<?xml version="1.0" encoding="UTF-8" standalone="no"?>
<svg
   xmlns:dc="http://purl.org/dc/elements/1.1/"
   xmlns:cc="http://creativecommons.org/ns#"
   xmlns:rdf="http://www.w3.org/1999/02/22-rdf-syntax-ns#"
   xmlns:svg="http://www.w3.org/2000/svg"
   xmlns="http://www.w3.org/2000/svg"
   xmlns:sodipodi="http://sodipodi.sourceforge.net/DTD/sodipodi-0.dtd"
   xmlns:inkscape="http://www.inkscape.org/namespaces/inkscape"
   width="13.229167mm"
   height="13.229167mm"
   viewBox="0 0 13.229169 13.229168"
   version="1.1"
   id="svg8"
   sodipodi:docname="VCS_resized_118.svg"
   inkscape:version="1.0.2-2 (e86c870879, 2021-01-15)">
  <defs
     id="defs2" />
  <sodipodi:namedview
     id="base"
     pagecolor="#ffffff"
     bordercolor="#666666"
     borderopacity="1.0"
     inkscape:pageopacity="0.0"
     inkscape:pageshadow="2"
     inkscape:zoom="2.8284271"
     inkscape:cx="-10.774236"
     inkscape:cy="43.210288"
     inkscape:document-units="mm"
     inkscape:current-layer="layer1"
     inkscape:document-rotation="0"
     showgrid="false"
     inkscape:window-width="958"
     inkscape:window-height="1008"
     inkscape:window-x="1913"
     inkscape:window-y="0"
     inkscape:window-maximized="0" />
  <metadata
     id="metadata5">
    <rdf:RDF>
      <cc:Work
         rdf:about="">
        <dc:format>image/svg+xml</dc:format>
        <dc:type
           rdf:resource="http://purl.org/dc/dcmitype/StillImage" />
        <dc:title></dc:title>
      </cc:Work>
    </rdf:RDF>
  </metadata>
  <g
     inkscape:label="Ebene 1"
     inkscape:groupmode="layer"
     id="layer1"
     transform="translate(-41.050667,-15.158891)">
    <path
       style="fill:#000000;stroke-width:0.264582"
       d="m 45.97546,27.843624 c -0.363802,-0.09742 -0.760674,-0.203964 -0.88194,-0.236773 -0.190294,-0.05148 -0.34181,-0.191759 -1.106626,-1.02453 -1.209454,-1.316912 -1.451016,-1.715313 -1.451016,-2.393116 0,-0.344794 0.247638,-0.785276 0.65478,-1.164679 0.73931,-0.688939 1.090736,-1.256863 1.132132,-1.829591 0.03488,-0.482589 -0.08414,-0.850418 -0.44752,-1.383013 -1.054764,-1.54594 -1.129584,-1.697764 -1.168016,-2.370104 -0.03326,-0.581826 0.04888,-0.961042 0.288856,-1.333594 0.32483,-0.504284 0.852112,-0.693583 1.392994,-0.500099 0.248404,0.08886 0.80498,0.526054 1.464828,1.150633 0.62548,0.592047 0.938706,0.813238 1.306134,0.922353 0.30122,0.08945 0.923478,0.102532 1.196644,0.02515 0.280072,-0.07934 0.857298,-0.536569 1.534584,-1.215579 0.80439,-0.806437 0.95925,-0.90897 1.41531,-0.937079 0.439796,-0.02711 0.677732,0.09093 0.97433,0.483363 0.275866,0.364997 0.383194,0.794073 0.34991,1.398874 -0.02225,0.404349 -0.05424,0.534613 -0.211874,0.862881 -0.102116,0.212649 -0.30227,0.541417 -0.444788,0.730594 -0.802164,1.064797 -0.996246,1.492999 -0.959374,2.116667 0.03452,0.583937 0.224136,0.919024 0.947518,1.67448 0.716742,0.748522 0.866536,1.025276 0.826292,1.526628 -0.01874,0.233355 -0.07604,0.423907 -0.194142,0.645484 -0.185526,0.348079 -0.943396,1.25902 -1.714608,2.06091 l -0.501906,0.521873 -0.759272,0.210957 -0.759272,0.210956 -1.11125,0.01174 C 46.63787,28.02074 46.636352,28.0206 45.97546,27.843625 Z m 3.568208,-0.320474 c 0.786402,-0.210446 0.723474,-0.164101 1.689412,-1.244249 1.194324,-1.335538 1.25113,-1.424203 1.25113,-1.952772 0,-0.495189 -0.06659,-0.606473 -0.873864,-1.460353 -0.737634,-0.780218 -0.983206,-1.370713 -0.86927,-2.090208 0.08607,-0.543496 0.261454,-0.873639 1.13817,-2.142465 0.183306,-0.265288 0.333082,-0.557747 0.402236,-0.785426 0.22243,-0.732299 0.03475,-1.492806 -0.447074,-1.811666 -0.182614,-0.120847 -0.254512,-0.137327 -0.516476,-0.118378 -0.384272,0.0278 -0.731434,0.255341 -1.313058,0.860634 -1.084318,1.128443 -1.755064,1.435609 -2.671024,1.223184 -0.66023,-0.153118 -0.932392,-0.335652 -2.0054,-1.344983 -0.34254,-0.322213 -0.758496,-0.59669 -1.06152,-0.700465 -0.475716,-0.162917 -0.919044,0.03585 -1.156782,0.518647 -0.105542,0.214338 -0.12448,0.333291 -0.12448,0.78196 0,0.482459 0.01448,0.559526 0.164,0.873125 0.0902,0.189177 0.391138,0.680724 0.668754,1.092327 0.541646,0.803062 0.70812,1.164718 0.792264,1.721166 0.09902,0.654791 -0.137388,1.119569 -1.112472,2.187132 -0.577026,0.631753 -0.671702,0.800316 -0.668738,1.190625 0.0033,0.436226 0.191578,0.782992 0.790066,1.455208 0.706454,0.793483 1.439024,1.56071 1.492014,1.562601 0.02403,8.6e-4 0.353258,0.08328 0.731614,0.183161 0.682588,0.180195 0.696932,0.181612 1.852082,0.182953 1.16278,0.0013 1.164982,0.0011 1.848416,-0.181758 z"
       id="path1930" />
  </g>
</svg>
