<?xml version="1.0" encoding="UTF-8" standalone="no"?>
<svg
   xmlns:dc="http://purl.org/dc/elements/1.1/"
   xmlns:cc="http://creativecommons.org/ns#"
   xmlns:rdf="http://www.w3.org/1999/02/22-rdf-syntax-ns#"
   xmlns:svg="http://www.w3.org/2000/svg"
   xmlns="http://www.w3.org/2000/svg"
   xmlns:sodipodi="http://sodipodi.sourceforge.net/DTD/sodipodi-0.dtd"
   xmlns:inkscape="http://www.inkscape.org/namespaces/inkscape"
   width="13.229167mm"
   height="13.229167mm"
   viewBox="0 0 13.229167 13.229167"
   version="1.1"
   id="svg8"
   sodipodi:docname="VCS_resized_5.svg"
   inkscape:version="1.0.2-2 (e86c870879, 2021-01-15)">
  <defs
     id="defs2" />
  <sodipodi:namedview
     id="base"
     pagecolor="#ffffff"
     bordercolor="#666666"
     borderopacity="1.0"
     inkscape:pageopacity="0.0"
     inkscape:pageshadow="2"
     inkscape:zoom="2.8284271"
     inkscape:cx="30.689013"
     inkscape:cy="66.451232"
     inkscape:document-units="mm"
     inkscape:current-layer="layer1"
     inkscape:document-rotation="0"
     showgrid="false"
     inkscape:window-width="958"
     inkscape:window-height="1008"
     inkscape:window-x="1913"
     inkscape:window-y="0"
     inkscape:window-maximized="0" />
  <metadata
     id="metadata5">
    <rdf:RDF>
      <cc:Work
         rdf:about="">
        <dc:format>image/svg+xml</dc:format>
        <dc:type
           rdf:resource="http://purl.org/dc/dcmitype/StillImage" />
        <dc:title></dc:title>
      </cc:Work>
    </rdf:RDF>
  </metadata>
  <g
     inkscape:label="Ebene 1"
     inkscape:groupmode="layer"
     id="layer1"
     transform="translate(-30.080187,-9.0097237)">
    <path
       style="fill:#000000;stroke-width:0.264582"
       d="m 34.92146,20.957207 c -0.165494,-0.326587 -0.29132,-0.906295 -0.29132,-1.342168 0,-0.181105 0.03553,-0.614126 0.07895,-0.96227 0.09449,-0.757537 0.100398,-1.246856 0.0206,-1.705101 -0.05835,-0.335057 -0.06403,-0.343496 -0.3952,-0.586675 -0.1848,-0.1357 -0.699896,-0.434435 -1.144656,-0.663854 -0.963394,-0.496947 -1.616445,-0.916276 -1.95959,-1.258267 -0.390398,-0.389086 -0.340792,-0.500153 0.330728,-0.740501 0.33538,-0.120037 0.390617,-0.123114 2.214592,-0.12335 l 1.870632,-2.6e-4 0.231346,-0.264583 c 0.127242,-0.145521 0.360918,-0.502708 0.51928,-0.79375 0.709102,-1.303207 0.78586,-1.416176 1.338866,-1.97049 0.388888,-0.389809 0.564902,-0.532362 0.627612,-0.508298 0.110106,0.04225 0.245106,0.357715 0.36645,0.856307 0.09771,0.401477 0.09744,0.551208 -0.0043,2.342492 -0.04846,0.85355 1.04e-4,1.191992 0.19756,1.376427 0.22779,0.212787 0.787148,0.56765 1.44854,0.918969 0.77449,0.411395 1.191732,0.703165 1.653646,1.156367 0.45202,0.443495 0.48347,0.564867 0.185208,0.714758 -0.473338,0.237877 -1.10992,0.290431 -2.500312,0.206416 -0.363802,-0.02198 -0.919958,-0.01826 -1.2359,0.0083 -0.551336,0.04629 -0.581806,0.05535 -0.757588,0.225177 -0.226218,0.218557 -0.55552,0.714661 -0.8902,1.341112 -0.528806,0.989814 -0.683578,1.216808 -1.109358,1.627008 -0.519476,0.500466 -0.607902,0.516721 -0.795632,0.146252 z m 0.65507,-0.349067 c 0.273086,-0.245528 0.662624,-0.831326 1.035016,-1.556485 0.256442,-0.499367 0.628138,-1.060841 0.902552,-1.363366 0.204214,-0.225133 0.226572,-0.235144 0.635,-0.284311 0.239622,-0.02885 1.008914,-0.03702 1.772708,-0.01883 1.142802,0.02721 1.39798,0.01914 1.666874,-0.05273 0.435828,-0.11649 0.495972,-0.183948 0.348568,-0.390959 -0.180234,-0.253115 -0.901098,-0.760011 -1.662536,-1.169057 -0.695,-0.373355 -1.60086,-0.980762 -1.683864,-1.12908 -0.09538,-0.170437 -0.14142,-1.19556 -0.08062,-1.79519 0.08714,-0.859447 0.07495,-1.596061 -0.03232,-1.951952 -0.116972,-0.388114 -0.200864,-0.45986 -0.394692,-0.337554 -0.37426,0.23616 -0.685082,0.653445 -1.202118,1.613861 -0.420966,0.781963 -0.750646,1.289177 -0.98025,1.508125 l -0.166474,0.15875 -1.816792,-0.01315 c -1.700034,-0.01231 -1.839238,-0.0062 -2.166076,0.09473 -0.432262,0.133513 -0.44798,0.218544 -0.09793,0.529802 0.336038,0.298797 0.709495,0.535283 1.441074,0.912539 1.046926,0.539873 1.766174,1.010349 1.823634,1.192881 0.11854,0.376566 0.13657,1.503507 0.034,2.125075 -0.147274,0.892466 0.01904,2.169583 0.282538,2.169583 0.03948,0 0.193254,-0.109206 0.34171,-0.242681 z"
       id="path72" />
  </g>
</svg>
