<?xml version="1.0" encoding="UTF-8" standalone="no"?>
<svg
   xmlns:dc="http://purl.org/dc/elements/1.1/"
   xmlns:cc="http://creativecommons.org/ns#"
   xmlns:rdf="http://www.w3.org/1999/02/22-rdf-syntax-ns#"
   xmlns:svg="http://www.w3.org/2000/svg"
   xmlns="http://www.w3.org/2000/svg"
   xmlns:sodipodi="http://sodipodi.sourceforge.net/DTD/sodipodi-0.dtd"
   xmlns:inkscape="http://www.inkscape.org/namespaces/inkscape"
   width="13.229167mm"
   height="13.229167mm"
   viewBox="0 0 13.229169 13.229168"
   version="1.1"
   id="svg8"
   sodipodi:docname="VCS_resized_173.svg"
   inkscape:version="1.0.2-2 (e86c870879, 2021-01-15)">
  <defs
     id="defs2" />
  <sodipodi:namedview
     id="base"
     pagecolor="#ffffff"
     bordercolor="#666666"
     borderopacity="1.0"
     inkscape:pageopacity="0.0"
     inkscape:pageshadow="2"
     inkscape:zoom="2.8284271"
     inkscape:cx="-13.48225"
     inkscape:cy="38.437912"
     inkscape:document-units="mm"
     inkscape:current-layer="layer1"
     inkscape:document-rotation="0"
     showgrid="false"
     inkscape:window-width="958"
     inkscape:window-height="1008"
     inkscape:window-x="1913"
     inkscape:window-y="0"
     inkscape:window-maximized="0" />
  <metadata
     id="metadata5">
    <rdf:RDF>
      <cc:Work
         rdf:about="">
        <dc:format>image/svg+xml</dc:format>
        <dc:type
           rdf:resource="http://purl.org/dc/dcmitype/StillImage" />
        <dc:title></dc:title>
      </cc:Work>
    </rdf:RDF>
  </metadata>
  <g
     inkscape:label="Ebene 1"
     inkscape:groupmode="layer"
     id="layer1"
     transform="translate(-41.767159,-16.421581)">
    <path
       style="fill:#000000;stroke-width:0.264582"
       d="m 45.517265,28.917365 -0.326868,-0.02214 -0.595738,-1.069138 c -0.327656,-0.588026 -0.761008,-1.33864 -0.963004,-1.668031 -0.500208,-0.815679 -0.672288,-1.242291 -0.722264,-1.790604 -0.05874,-0.644456 0.0018,-0.940107 0.3463,-1.690793 0.09493,-0.206868 0.20173,-0.480712 0.23733,-0.608542 0.101732,-0.365281 0.0814,-0.980146 -0.04357,-1.317209 -0.39652,-1.069547 -0.4453,-1.239578 -0.453096,-1.579303 -0.0068,-0.297936 0.01544,-0.394829 0.14467,-0.629315 0.203772,-0.369728 0.72281,-0.859253 1.14396,-1.078909 l 0.342058,-0.178405 1.031876,-0.0053 c 0.567532,-0.0029 1.377156,-0.03865 1.799166,-0.07943 0.913186,-0.08824 1.45771,-0.07967 2.215752,0.03488 0.436166,0.06591 0.752778,0.0769 1.410802,0.049 0.957148,-0.04059 1.138678,-0.01089 1.535952,0.251301 0.388972,0.25671 0.917348,0.808196 1.040012,1.085497 0.08912,0.20148 0.10212,0.307217 0.07441,0.605397 -0.03424,0.368427 -0.07357,0.50157 -0.322874,1.093101 -0.325106,0.771383 -0.304862,1.428859 0.06868,2.230646 0.41117,0.882555 0.398318,0.836951 0.390616,1.386011 -0.01158,0.825995 -0.131204,1.122804 -1.158194,2.873781 -0.204844,0.34925 -0.46135,0.813593 -0.570016,1.031875 -0.256192,0.514628 -0.563046,0.994489 -0.66347,1.037548 -0.08922,0.03825 -5.454124,0.07251 -5.962492,0.03808 z m 4.778888,-0.221401 c 0.689884,-0.02676 0.984114,-0.05762 1.047034,-0.10984 0.04813,-0.03995 0.173116,-0.229726 0.277744,-0.421735 0.104626,-0.192009 0.497608,-0.890725 0.873292,-1.552703 0.782968,-1.379637 0.965458,-1.761998 1.05277,-2.205794 0.106386,-0.54075 0.05124,-0.850542 -0.292696,-1.644152 -0.27989,-0.645833 -0.31178,-0.757531 -0.332368,-1.164167 -0.02706,-0.534424 0.07692,-1.091966 0.278478,-1.493267 0.164208,-0.32693 0.290182,-0.781672 0.290182,-1.04749 0,-0.117773 -0.05689,-0.279892 -0.149406,-0.425779 -0.191716,-0.302305 -0.724758,-0.784754 -1.05144,-0.951645 -0.245088,-0.125206 -0.287394,-0.129384 -1.160316,-0.114603 -0.508844,0.0086 -1.065526,-0.01104 -1.27,-0.04485 -0.761116,-0.125831 -1.260884,-0.140204 -2.242588,-0.0645 -0.538426,0.04152 -1.395676,0.08019 -1.905,0.08592 -0.91609,0.01031 -0.9298,0.01219 -1.27584,0.174995 -0.432122,0.203298 -0.879334,0.63743 -1.080776,1.049162 -0.141572,0.28936 -0.144774,0.31368 -0.08445,0.641097 0.03449,0.187181 0.14327,0.524547 0.241734,0.749702 0.40521,0.926582 0.439944,1.702871 0.108538,2.42571 -0.513676,1.120391 -0.571784,1.794125 -0.218592,2.534498 0.09719,0.203729 0.40826,0.760907 0.691272,1.238173 0.28301,0.477266 0.682748,1.174372 0.888304,1.549123 0.205556,0.374752 0.400276,0.698637 0.43271,0.719744 0.140144,0.0912 3.219066,0.136861 4.88141,0.07239 z"
       id="path2812" />
  </g>
</svg>
