<?xml version="1.0" encoding="UTF-8" standalone="no"?>
<svg
   xmlns:dc="http://purl.org/dc/elements/1.1/"
   xmlns:cc="http://creativecommons.org/ns#"
   xmlns:rdf="http://www.w3.org/1999/02/22-rdf-syntax-ns#"
   xmlns:svg="http://www.w3.org/2000/svg"
   xmlns="http://www.w3.org/2000/svg"
   xmlns:sodipodi="http://sodipodi.sourceforge.net/DTD/sodipodi-0.dtd"
   xmlns:inkscape="http://www.inkscape.org/namespaces/inkscape"
   width="13.229167mm"
   height="13.229167mm"
   viewBox="0 0 13.229167 13.229167"
   version="1.1"
   id="svg8"
   sodipodi:docname="VCS_resized_75.svg"
   inkscape:version="1.0.2-2 (e86c870879, 2021-01-15)">
  <defs
     id="defs2" />
  <sodipodi:namedview
     id="base"
     pagecolor="#ffffff"
     bordercolor="#666666"
     borderopacity="1.0"
     inkscape:pageopacity="0.0"
     inkscape:pageshadow="2"
     inkscape:zoom="2.8284271"
     inkscape:cx="8.9545086"
     inkscape:cy="27.774941"
     inkscape:document-units="mm"
     inkscape:current-layer="layer1"
     inkscape:document-rotation="0"
     showgrid="false"
     inkscape:window-width="958"
     inkscape:window-height="1008"
     inkscape:window-x="1913"
     inkscape:window-y="0"
     inkscape:window-maximized="0" />
  <metadata
     id="metadata5">
    <rdf:RDF>
      <cc:Work
         rdf:about="">
        <dc:format>image/svg+xml</dc:format>
        <dc:type
           rdf:resource="http://purl.org/dc/dcmitype/StillImage" />
        <dc:title></dc:title>
      </cc:Work>
    </rdf:RDF>
  </metadata>
  <g
     inkscape:label="Ebene 1"
     inkscape:groupmode="layer"
     id="layer1"
     transform="translate(-35.830772,-19.242826)">
    <path
       style="fill:#000000;stroke-width:0.264582"
       d="m 39.083022,31.090305 c -0.380024,-0.107102 -0.727616,-0.303899 -1.00284,-0.567782 -0.337774,-0.323855 -0.429226,-0.515539 -0.46375,-0.972032 -0.04343,-0.57423 0.106216,-0.846653 0.889018,-1.61842 0.958728,-0.945211 1.14932,-1.290448 1.093856,-1.981409 -0.04634,-0.577306 -0.260066,-0.950558 -1.047058,-1.828591 -0.730292,-0.814772 -0.99439,-1.302115 -1.041226,-1.921386 -0.03754,-0.496374 0.07106,-0.885642 0.332188,-1.190714 0.597154,-0.697638 1.4861,-0.550859 2.318798,0.382869 1.168748,1.310547 1.450138,1.534167 2.034434,1.616757 0.7289,0.103029 1.229204,-0.169793 1.939886,-1.057846 0.978188,-1.222322 1.800604,-1.614712 2.490452,-1.188241 0.481196,0.29748 0.691046,0.79779 0.644896,1.537519 -0.02151,0.344691 -0.06143,0.50324 -0.195046,0.774663 -0.162658,0.330405 -0.275542,0.478741 -1.008608,1.325355 -0.452692,0.52281 -0.666872,0.888739 -0.773798,1.322033 -0.183744,0.744578 0.06271,1.234678 1.123306,2.233827 0.558994,0.526606 0.698874,0.690097 0.829784,0.969846 0.13692,0.292591 0.154018,0.379265 0.13111,0.664638 -0.04984,0.620914 -0.416796,1.085305 -1.033342,1.307722 -0.311466,0.112361 -0.446564,0.128517 -1.07081,0.128061 -0.392906,-2.6e-4 -1.202532,-0.03231 -1.799168,-0.07115 -1.037432,-0.06755 -1.128684,-0.06543 -2.090208,0.04839 -1.24662,0.147575 -1.98521,0.175134 -2.301874,0.08589 z m 1.334544,-0.269923 c 1.715294,-0.236556 2.183464,-0.242011 4.736188,-0.05518 1.127828,0.08255 1.919684,-0.431901 1.919684,-1.247163 0,-0.404209 -0.145476,-0.624541 -0.974314,-1.475659 -0.818912,-0.840923 -1.01298,-1.139581 -1.084904,-1.66959 -0.11047,-0.814052 0.18336,-1.420935 1.307486,-2.700511 0.704462,-0.801881 0.899046,-1.678614 0.506808,-2.283533 -0.205224,-0.316502 -0.422484,-0.441676 -0.766606,-0.441676 -0.51639,0 -0.975324,0.297765 -1.530654,0.993115 -0.582688,0.729606 -0.918168,1.048177 -1.303658,1.237953 -0.321866,0.158454 -0.405348,0.176641 -0.810824,0.176641 -0.403544,0 -0.489688,-0.01855 -0.803294,-0.172934 -0.381118,-0.187623 -0.736708,-0.513831 -1.318516,-1.209573 -0.647664,-0.774491 -1.069046,-1.05296 -1.588756,-1.049921 -0.23987,0.0014 -0.333642,0.02935 -0.484464,0.144388 -0.426918,0.325626 -0.55329,0.829605 -0.36416,1.452279 0.123804,0.407597 0.359404,0.758142 1.08219,1.61018 0.756046,0.891242 1.07616,1.684407 0.936816,2.321206 -0.104786,0.478868 -0.308284,0.780071 -1.04145,1.541479 -0.383722,0.398502 -0.746862,0.820963 -0.80698,0.938802 -0.129862,0.254549 -0.145966,0.716207 -0.0343,0.983447 0.147974,0.354153 0.681726,0.773065 1.142084,0.89636 0.374084,0.100188 0.613468,0.102035 1.281628,0.0099 z"
       id="path1242" />
  </g>
</svg>
