<?xml version="1.0" encoding="UTF-8" standalone="no"?>
<svg
   xmlns:dc="http://purl.org/dc/elements/1.1/"
   xmlns:cc="http://creativecommons.org/ns#"
   xmlns:rdf="http://www.w3.org/1999/02/22-rdf-syntax-ns#"
   xmlns:svg="http://www.w3.org/2000/svg"
   xmlns="http://www.w3.org/2000/svg"
   xmlns:sodipodi="http://sodipodi.sourceforge.net/DTD/sodipodi-0.dtd"
   xmlns:inkscape="http://www.inkscape.org/namespaces/inkscape"
   width="13.229167mm"
   height="13.229167mm"
   viewBox="0 0 13.229169 13.229168"
   version="1.1"
   id="svg8"
   sodipodi:docname="VCS_resized_253.svg"
   inkscape:version="1.0.2-2 (e86c870879, 2021-01-15)">
  <defs
     id="defs2" />
  <sodipodi:namedview
     id="base"
     pagecolor="#ffffff"
     bordercolor="#666666"
     borderopacity="1.0"
     inkscape:pageopacity="0.0"
     inkscape:pageshadow="2"
     inkscape:zoom="2.8284271"
     inkscape:cx="20.050808"
     inkscape:cy="42.407358"
     inkscape:document-units="mm"
     inkscape:current-layer="layer1"
     inkscape:document-rotation="0"
     showgrid="false"
     inkscape:window-width="958"
     inkscape:window-height="1008"
     inkscape:window-x="1913"
     inkscape:window-y="0"
     inkscape:window-maximized="0" />
  <metadata
     id="metadata5">
    <rdf:RDF>
      <cc:Work
         rdf:about="">
        <dc:format>image/svg+xml</dc:format>
        <dc:type
           rdf:resource="http://purl.org/dc/dcmitype/StillImage" />
        <dc:title></dc:title>
      </cc:Work>
    </rdf:RDF>
  </metadata>
  <g
     inkscape:label="Ebene 1"
     inkscape:groupmode="layer"
     id="layer1"
     transform="translate(-76.734695,-1.6887348)">
    <path
       style="fill:#000000;stroke-width:0.264582"
       d="m 79.373162,14.58051 c -0.02302,-0.02967 -0.07053,-0.423046 -0.105568,-0.87416 -0.05332,-0.686488 -0.134796,-1.563285 -0.290984,-3.131403 -0.02648,-0.265873 -0.03021,-0.272598 -1.037166,-1.8692222 -1.15292,-1.8280654 -1.221806,-1.948744 -1.149798,-2.0142908 0.03641,-0.033142 0.88773,-0.3407818 1.891824,-0.6836448 1.004094,-0.342863 1.855782,-0.6348344 1.89264,-0.6488256 0.08613,-0.032693 0.839576,-0.976968 1.834358,-2.2989548 0.431238,-0.5730814 0.81683,-1.0545372 0.856868,-1.0699018 0.129274,-0.049607 0.198054,0.015084 0.628424,0.591073 0.68056,0.910826 1.665354,2.1869194 1.90948,2.4742998 0.216708,0.2551038 0.258674,0.277507 1.063068,0.5675196 0.4606,0.166062 1.292456,0.4546626 1.848573,0.641334 1.133044,0.3803296 1.257002,0.4344702 1.203884,0.525817 -0.0203,0.03492 -0.149022,0.2420848 -0.28604,0.460366 -0.137016,0.2182814 -0.635056,1.0220532 -1.106755,1.7861598 l -0.857634,1.3892848 -0.07022,0.780298 c -0.03862,0.429165 -0.122198,1.363705 -0.185732,2.076757 -0.06353,0.713052 -0.124582,1.305792 -0.13566,1.317199 -0.0494,0.05086 -7.863932,0.03138 -7.903566,-0.01971 z m 7.611118,-0.234885 c 0.05354,-0.0339 0.09291,-0.281043 0.141056,-0.885544 0.03673,-0.461188 0.09276,-1.076648 0.124506,-1.36769 0.03175,-0.291041 0.08016,-0.809223 0.107586,-1.151513 l 0.04987,-0.622348 0.74132,-1.2032768 c 0.407726,-0.6618032 0.879243,-1.4175908 1.047817,-1.6795284 0.168572,-0.2619374 0.306496,-0.5094964 0.306496,-0.5501306 0,-0.049468 -0.480858,-0.2370578 -1.455209,-0.567697 C 87.247354,6.0462988 86.41967,5.76154 86.208418,5.6851008 L 85.824326,5.5461204 85.251474,4.8240476 C 84.936404,4.4269076 84.38782,3.7150218 84.032396,3.242079 83.676974,2.7691362 83.357504,2.3831852 83.322466,2.3844098 c -0.03504,0.00122 -0.153742,0.1262404 -0.263786,0.2778126 -0.916328,1.2621264 -2.150196,2.828626 -2.292596,2.9106484 -0.04024,0.023181 -0.863936,0.3114686 -1.830426,0.6406404 -0.96649,0.3291718 -1.764756,0.6209988 -1.773924,0.6485048 -0.0092,0.027506 0.201006,0.3940616 0.467054,0.814568 0.266048,0.4205066 0.555826,0.88362 0.643952,1.0291408 0.08812,0.1455208 0.33554,0.5412624 0.54981,0.8794264 l 0.389584,0.6148418 0.153284,1.554741 c 0.08431,0.855107 0.170006,1.780959 0.190446,2.057449 0.02044,0.27649 0.04778,0.520568 0.06076,0.542396 0.03372,0.05672 7.277838,0.04791 7.36766,-0.009 z"
       id="path4947" />
  </g>
</svg>
