<?xml version="1.0" encoding="UTF-8" standalone="no"?>
<svg
   xmlns:dc="http://purl.org/dc/elements/1.1/"
   xmlns:cc="http://creativecommons.org/ns#"
   xmlns:rdf="http://www.w3.org/1999/02/22-rdf-syntax-ns#"
   xmlns:svg="http://www.w3.org/2000/svg"
   xmlns="http://www.w3.org/2000/svg"
   xmlns:sodipodi="http://sodipodi.sourceforge.net/DTD/sodipodi-0.dtd"
   xmlns:inkscape="http://www.inkscape.org/namespaces/inkscape"
   width="13.229167mm"
   height="13.229167mm"
   viewBox="0 0 13.229169 13.229168"
   version="1.1"
   id="svg8"
   sodipodi:docname="VCS_resized_295.svg"
   inkscape:version="1.0.2-2 (e86c870879, 2021-01-15)">
  <defs
     id="defs2" />
  <sodipodi:namedview
     id="base"
     pagecolor="#ffffff"
     bordercolor="#666666"
     borderopacity="1.0"
     inkscape:pageopacity="0.0"
     inkscape:pageshadow="2"
     inkscape:zoom="4"
     inkscape:cx="12.738787"
     inkscape:cy="25.893833"
     inkscape:document-units="mm"
     inkscape:current-layer="layer1"
     inkscape:document-rotation="0"
     showgrid="false"
     inkscape:window-width="958"
     inkscape:window-height="1008"
     inkscape:window-x="1913"
     inkscape:window-y="0"
     inkscape:window-maximized="0" />
  <metadata
     id="metadata5">
    <rdf:RDF>
      <cc:Work
         rdf:about="">
        <dc:format>image/svg+xml</dc:format>
        <dc:type
           rdf:resource="http://purl.org/dc/dcmitype/StillImage" />
        <dc:title></dc:title>
      </cc:Work>
    </rdf:RDF>
  </metadata>
  <g
     inkscape:label="Ebene 1"
     inkscape:groupmode="layer"
     id="layer1"
     transform="translate(-91.857292,15.274296)">
    <path
       style="fill:#000000;stroke-width:0.264582"
       d="m 97.091094,-2.6411433 c -0.625738,-0.040333 -1.164466,-0.082964 -1.197172,-0.094735 -0.07558,-0.027202 -0.111302,-0.2250884 -0.177322,-0.9823508 -0.209994,-2.4086898 -0.272734,-2.9360992 -0.361068,-3.0352968 -0.09599,-0.1077938 -0.309016,-0.2887514 -2.17831,-1.850372 -0.655922,-0.5479616 -1.199606,-1.0375746 -1.208186,-1.0880286 -0.01322,-0.077731 0.103918,-0.117085 0.767292,-0.2577856 0.786838,-0.1668879 2.753806,-0.5934379 3.296434,-0.7148529 l 0.29104,-0.06512 1.005418,-2.010834 c 0.92075,-1.8415 1.016556,-2.010834 1.137708,-2.010834 0.121152,0 0.216958,0.169334 1.137707,2.010834 l 1.005425,2.010834 0.42333,0.09067 c 1.03648,0.221993 3.56394,0.7876265 3.74385,0.8378603 0.10915,0.030471 0.19844,0.086448 0.19844,0.1243928 0,0.037944 -0.34161,0.3563286 -0.75914,0.7075202 -0.41753,0.351192 -0.79258,0.6706848 -0.83344,0.7099838 -0.0409,0.0393 -0.37195,0.3187823 -0.73575,0.6210725 -0.91999,0.7644341 -1.0558,0.8901657 -1.10698,1.0247793 -0.0486,0.1277948 -0.16353,1.1867632 -0.29701,2.7364298 -0.0464,0.5384272 -0.0963,1.0206302 -0.11102,1.0715626 -0.0148,0.051203 -0.0783,0.093109 -0.1422,0.093734 -0.0635,6.2e-4 -0.62747,0.035832 -1.253215,0.078245 -1.301099,0.088189 -1.151325,0.088625 -2.645831,-0.00771 z m 2.554391,-0.2549742 c 0.633655,-0.042054 1.172965,-0.089358 1.198465,-0.1051194 0.0255,-0.015762 0.0617,-0.2013914 0.0805,-0.4125118 0.0188,-0.2111202 0.0573,-0.5981674 0.0856,-0.860105 0.14189,-1.3137774 0.2615,-2.4587956 0.2615,-2.5033118 0,-0.0274 0.23561,-0.2492708 0.52358,-0.4930452 2.24385,-1.8994734 2.69576,-2.2928384 2.67418,-2.3277432 -0.0273,-0.044225 -0.33826,-0.1163374 -2.47575,-0.5741891 -0.81071,-0.173656 -1.51138,-0.346332 -1.55704,-0.383724 -0.0457,-0.03739 -0.495575,-0.909366 -0.999805,-1.937719 -0.504227,-1.028353 -0.940045,-1.861791 -0.968481,-1.852084 -0.02844,0.0097 -0.478822,0.878736 -1.000856,1.931174 l -0.94915,1.913523 -0.308864,0.06167 c -0.169876,0.03392 -0.393608,0.08335 -0.497182,0.109854 -0.185144,0.04737 -3.176256,0.6845567 -3.213502,0.6845567 -0.01048,0 -0.01136,0.03226 -0.002,0.071689 0.01458,0.061109 0.697196,0.6473666 2.319466,1.9920612 0.85813,0.7113016 0.839214,0.6882554 0.89518,1.09072 0.02788,0.2004684 0.100744,0.924082 0.161926,1.60803 0.06118,0.683948 0.128052,1.3864166 0.148598,1.5610416 l 0.03736,0.3175 0.370416,0.03885 c 0.323124,0.033891 1.442124,0.1146656 1.905,0.1375124 0.08731,0.00431 0.677192,-0.026572 1.310839,-0.068627 z"
       id="path5635" />
  </g>
</svg>
