<?xml version="1.0" encoding="UTF-8" standalone="no"?>
<svg
   xmlns:dc="http://purl.org/dc/elements/1.1/"
   xmlns:cc="http://creativecommons.org/ns#"
   xmlns:rdf="http://www.w3.org/1999/02/22-rdf-syntax-ns#"
   xmlns:svg="http://www.w3.org/2000/svg"
   xmlns="http://www.w3.org/2000/svg"
   xmlns:sodipodi="http://sodipodi.sourceforge.net/DTD/sodipodi-0.dtd"
   xmlns:inkscape="http://www.inkscape.org/namespaces/inkscape"
   width="13.229167mm"
   height="13.229167mm"
   viewBox="0 0 13.229169 13.229168"
   version="1.1"
   id="svg8"
   sodipodi:docname="VCS_resized_279.svg"
   inkscape:version="1.0.2-2 (e86c870879, 2021-01-15)">
  <defs
     id="defs2" />
  <sodipodi:namedview
     id="base"
     pagecolor="#ffffff"
     bordercolor="#666666"
     borderopacity="1.0"
     inkscape:pageopacity="0.0"
     inkscape:pageshadow="2"
     inkscape:zoom="4"
     inkscape:cx="15.255331"
     inkscape:cy="28.861428"
     inkscape:document-units="mm"
     inkscape:current-layer="layer1"
     inkscape:document-rotation="0"
     showgrid="false"
     inkscape:window-width="958"
     inkscape:window-height="1008"
     inkscape:window-x="1913"
     inkscape:window-y="0"
     inkscape:window-maximized="0" />
  <metadata
     id="metadata5">
    <rdf:RDF>
      <cc:Work
         rdf:about="">
        <dc:format>image/svg+xml</dc:format>
        <dc:type
           rdf:resource="http://purl.org/dc/dcmitype/StillImage" />
        <dc:title></dc:title>
      </cc:Work>
    </rdf:RDF>
  </metadata>
  <g
     inkscape:label="Ebene 1"
     inkscape:groupmode="layer"
     id="layer1"
     transform="translate(-81.655113,12.557199)">
    <path
       style="fill:#000000;stroke-width:0.264582"
       d="m 84.965535,-0.16610438 c -0.01664,-0.2401094 -0.05555,-0.88900002 -0.08648,-1.44197902 -0.03093,-0.5529792 -0.08101,-1.3264204 -0.111296,-1.7187588 l -0.05507,-0.7133416 -0.2173,-0.2391584 c -0.119516,-0.1315366 -0.79708,-0.8554804 -1.5057,-1.608763 -0.708618,-0.753283 -1.2797,-1.3962206 -1.269072,-1.42875 0.01062,-0.03253 0.100858,-0.078786 0.200512,-0.1027906 0.09966,-0.024005 1.045014,-0.2409222 2.100798,-0.4820386 1.055784,-0.2411164 1.927762,-0.4476946 1.937728,-0.4590626 0.01,-0.011368 0.436454,-0.7588574 0.947748,-1.661086 1.199604,-2.116818 1.197264,-2.113156 1.362726,-2.132426 0.125128,-0.01457 0.180364,0.06505 0.734158,1.058334 0.329368,0.59075 0.650486,1.1574352 0.713598,1.2592998 0.06311,0.1018646 0.280356,0.4754632 0.482764,0.8302192 0.346972,0.6081288 0.380128,0.6482524 0.579842,0.7016966 0.323287,0.086511 1.242341,0.2980352 2.659743,0.6121496 0.70606,0.156472 1.307324,0.2990676 1.336144,0.3168792 0.104542,0.064609 0.04318,0.1532346 -0.489996,0.7076694 -0.606826,0.6310282 -2.028784,2.1776436 -2.318458,2.5217094 l -0.188564,0.2239698 -0.06623,1.1306662 c -0.03642,0.621866 -0.08849,1.4837944 -0.115706,1.91539602 -0.02722,0.431602 -0.04948,0.8661802 -0.04948,0.9657292 v 0.1809988 H 88.271859 84.995777 Z M 91.33202,-1.0392294 c 0.0367,-0.5748072 0.09503,-1.501947 0.129602,-2.0603098 l 0.06287,-1.0152062 0.421834,-0.432343 c 0.232008,-0.2377884 0.445912,-0.4596024 0.475342,-0.4929192 0.02943,-0.033317 0.41043,-0.4509184 0.846668,-0.9280034 1.009828,-1.1043878 1.09663,-1.2088522 1.035732,-1.246489 -0.02759,-0.01705 -0.855454,-0.2117218 -1.839702,-0.4326028 -0.984246,-0.220881 -1.860979,-0.4312068 -1.948291,-0.4673908 -0.13238,-0.05486 -0.300686,-0.3154352 -1.013202,-1.5686478 -0.469948,-0.8265726 -0.930612,-1.6397806 -1.023696,-1.8071296 -0.09309,-0.167349 -0.18732,-0.304271 -0.209412,-0.304271 -0.02209,0 -0.489558,0.789839 -1.038816,1.755197 -0.549256,0.9653574 -1.034924,1.7993644 -1.07926,1.8533478 -0.06088,0.074124 -0.556674,0.204106 -2.025302,0.5309696 -1.069578,0.2380498 -1.944686,0.453752 -1.944686,0.4793382 0,0.025586 0.37766,0.443421 0.839244,0.9285214 0.461586,0.4851008 1.08935,1.1541876 1.395032,1.4868604 l 0.555786,0.6048592 0.05851,0.7709742 c 0.09962,1.3126328 0.16779,2.44895202 0.16847,2.80826582 4e-4,0.189177 0.015,0.3975364 0.03256,0.4630208 l 0.03191,0.1190624 h 3.001036 3.001037 z"
       id="path5379" />
  </g>
</svg>
