<?xml version="1.0" encoding="UTF-8" standalone="no"?>
<svg
   xmlns:dc="http://purl.org/dc/elements/1.1/"
   xmlns:cc="http://creativecommons.org/ns#"
   xmlns:rdf="http://www.w3.org/1999/02/22-rdf-syntax-ns#"
   xmlns:svg="http://www.w3.org/2000/svg"
   xmlns="http://www.w3.org/2000/svg"
   xmlns:sodipodi="http://sodipodi.sourceforge.net/DTD/sodipodi-0.dtd"
   xmlns:inkscape="http://www.inkscape.org/namespaces/inkscape"
   width="13.229167mm"
   height="13.229167mm"
   viewBox="0 0 13.229169 13.229168"
   version="1.1"
   id="svg8"
   sodipodi:docname="VCS_resized_352.svg"
   inkscape:version="1.0.2-2 (e86c870879, 2021-01-15)">
  <defs
     id="defs2" />
  <sodipodi:namedview
     id="base"
     pagecolor="#ffffff"
     bordercolor="#666666"
     borderopacity="1.0"
     inkscape:pageopacity="0.0"
     inkscape:pageshadow="2"
     inkscape:zoom="4"
     inkscape:cx="-12.359159"
     inkscape:cy="20.947635"
     inkscape:document-units="mm"
     inkscape:current-layer="layer1"
     inkscape:document-rotation="0"
     showgrid="false"
     inkscape:window-width="958"
     inkscape:window-height="1008"
     inkscape:window-x="1913"
     inkscape:window-y="0"
     inkscape:window-maximized="0" />
  <metadata
     id="metadata5">
    <rdf:RDF>
      <cc:Work
         rdf:about="">
        <dc:format>image/svg+xml</dc:format>
        <dc:type
           rdf:resource="http://purl.org/dc/dcmitype/StillImage" />
        <dc:title></dc:title>
      </cc:Work>
    </rdf:RDF>
  </metadata>
  <g
     inkscape:label="Ebene 1"
     inkscape:groupmode="layer"
     id="layer1"
     transform="translate(-101.14362,13.965614)">
    <path
       style="fill:#000000;stroke-width:0.264582"
       d="m 106.71864,-1.6254959 c -0.14131,-0.168517 -0.23727,-0.3529538 -0.37857,-0.7276042 -0.20816,-0.5519494 -0.29037,-1.0245832 -0.35368,-2.0333838 -0.0513,-0.8175955 -0.10943,-1.2957679 -0.18781,-1.5451039 -0.0416,-0.1324578 -0.53764,-0.41451 -1.63806,-0.9314926 -0.55298,-0.2597916 -1.16049,-0.5657622 -1.35002,-0.6799342 -0.18953,-0.1141724 -0.41343,-0.2433044 -0.49755,-0.2869606 -0.0841,-0.043656 -0.25052,-0.166833 -0.36977,-0.2737264 -0.19817,-0.177628 -0.20965,-0.2017166 -0.13342,-0.2799576 0.23012,-0.2361756 1.09321,-0.4102398 3.01222,-0.6074865 0.91808,-0.094366 1.54968,-0.2121334 1.65674,-0.3089148 0.0526,-0.047583 0.27469,-0.4566084 0.49345,-0.9089445 0.78729,-1.62792 1.15019,-2.263314 1.60182,-2.804658 0.13161,-0.157757 0.16442,-0.173361 0.23728,-0.112887 0.20336,0.168772 0.50318,1.45816 0.58561,2.51845 0.051,0.6561215 0.20456,1.6183349 0.29708,1.86168 0.0332,0.08725 0.24208,0.2192238 0.72954,0.4608852 0.37568,0.1862444 0.73945,0.3558798 0.80837,0.3769666 0.49588,0.1517168 2.3883,1.210155 2.50696,1.4021504 0.12889,0.208543 -0.85277,0.5707512 -1.85492,0.6844232 -1.29612,0.147014 -2.42944,0.360508 -2.63753,0.496853 -0.11454,0.07505 -0.49626,0.8893377 -0.74826,1.5962081 -0.16799,0.4712038 -0.7218,1.3446544 -1.12841,1.7796928 -0.39922,0.4271264 -0.51577,0.4850844 -0.65107,0.3237448 z m 0.5256,-0.5612136 c 0.43028,-0.4549574 0.86413,-1.1785558 1.10194,-1.837845 0.0778,-0.2157624 0.25609,-0.6370776 0.39614,-0.9362559 0.22111,-0.4723404 0.27881,-0.5540596 0.43824,-0.6206716 0.235,-0.098191 1.39656,-0.3128308 2.28246,-0.421767 0.80503,-0.098992 1.27236,-0.2002076 1.60618,-0.34787 l 0.2405,-0.1063874 -0.15605,-0.1527906 c -0.18627,-0.1823778 -0.97979,-0.6102106 -1.82169,-0.9821686 -0.73016,-0.322595 -1.78079,-0.8508938 -1.82075,-0.9155452 -0.072,-0.1164606 -0.29737,-1.4247737 -0.34813,-2.0207142 -0.10139,-1.19051 -0.30631,-2.070259 -0.49059,-2.106222 -0.11278,-0.02201 -0.53674,0.624052 -0.90015,1.371723 -0.16099,0.331214 -0.44056,0.906742 -0.62127,1.2789531 -0.35499,0.7312042 -0.51572,0.9620732 -0.70175,1.0080276 -0.18786,0.046407 -2.12192,0.2921523 -2.76537,0.3513723 -0.63735,0.05866 -1.26251,0.2094162 -1.38774,0.3346552 -0.0713,0.071241 -0.0549,0.095624 0.15137,0.2252466 0.1272,0.079947 0.2908,0.1852454 0.36356,0.233997 0.17369,0.116377 0.67693,0.3714268 1.74865,0.8862388 0.48154,0.2313124 1.0089,0.5058864 1.17192,0.6101646 l 0.29638,0.1895968 0.0547,0.3613524 c 0.11487,0.7587066 0.16806,1.2740097 0.16838,1.6313527 4e-4,0.5025756 0.0764,0.9335496 0.26757,1.518918 0.17497,0.5356922 0.27799,0.7300404 0.38697,0.7300404 0.0388,0 0.19109,-0.1275308 0.33851,-0.283401 z"
       id="path6553" />
  </g>
</svg>
