<?xml version="1.0" encoding="UTF-8" standalone="no"?>
<svg
   xmlns:dc="http://purl.org/dc/elements/1.1/"
   xmlns:cc="http://creativecommons.org/ns#"
   xmlns:rdf="http://www.w3.org/1999/02/22-rdf-syntax-ns#"
   xmlns:svg="http://www.w3.org/2000/svg"
   xmlns="http://www.w3.org/2000/svg"
   xmlns:sodipodi="http://sodipodi.sourceforge.net/DTD/sodipodi-0.dtd"
   xmlns:inkscape="http://www.inkscape.org/namespaces/inkscape"
   width="13.229167mm"
   height="13.229167mm"
   viewBox="0 0 13.229167 13.229167"
   version="1.1"
   id="svg8"
   sodipodi:docname="VCS_resized_55.svg"
   inkscape:version="1.0.2-2 (e86c870879, 2021-01-15)">
  <defs
     id="defs2" />
  <sodipodi:namedview
     id="base"
     pagecolor="#ffffff"
     bordercolor="#666666"
     borderopacity="1.0"
     inkscape:pageopacity="0.0"
     inkscape:pageshadow="2"
     inkscape:zoom="2.8284271"
     inkscape:cx="4.7217447"
     inkscape:cy="57.426272"
     inkscape:document-units="mm"
     inkscape:current-layer="layer1"
     inkscape:document-rotation="0"
     showgrid="false"
     inkscape:window-width="958"
     inkscape:window-height="1008"
     inkscape:window-x="1913"
     inkscape:window-y="0"
     inkscape:window-maximized="0" />
  <metadata
     id="metadata5">
    <rdf:RDF>
      <cc:Work
         rdf:about="">
        <dc:format>image/svg+xml</dc:format>
        <dc:type
           rdf:resource="http://purl.org/dc/dcmitype/StillImage" />
        <dc:title></dc:title>
      </cc:Work>
    </rdf:RDF>
  </metadata>
  <g
     inkscape:label="Ebene 1"
     inkscape:groupmode="layer"
     id="layer1"
     transform="translate(-36.950691,-11.397578)">
    <path
       style="fill:#000000;stroke-width:0.264582"
       d="m 40.206217,22.978536 c -0.793356,-0.166194 -1.23146,-0.65384 -1.236522,-1.37635 -0.0035,-0.504378 0.227484,-0.912106 0.936104,-1.652144 0.698254,-0.729216 0.907132,-1.104764 0.907132,-1.630965 0,-0.625736 -0.223732,-1.015701 -1.096344,-1.910928 -0.317994,-0.326234 -0.658006,-0.705444 -0.755582,-0.842688 -0.503856,-0.708685 -0.521462,-1.533278 -0.04295,-2.011786 0.351306,-0.351306 0.714182,-0.414923 1.312544,-0.230108 0.370608,0.114469 0.890666,0.488361 1.356242,0.975061 0.68039,0.71126 1.383418,1.078822 1.938628,1.013568 0.479316,-0.05633 0.749292,-0.211622 1.183278,-0.680611 1.194254,-1.290577 1.546696,-1.560503 2.107962,-1.614433 0.607338,-0.05836 1.051046,0.246016 1.23329,0.846011 0.22766,0.749524 0.01628,1.381685 -0.747942,2.236802 -0.518158,0.579787 -0.788614,0.972858 -0.910244,1.322917 -0.104774,0.301538 -0.116958,0.818471 -0.02522,1.069677 0.111288,0.304723 0.475922,0.748173 0.959,1.166289 0.662266,0.573208 0.909018,0.843202 1.06227,1.162328 0.452704,0.942694 -0.01656,1.778712 -1.081204,1.92625 -0.458532,0.06354 -0.74224,-0.0029 -1.620488,-0.379794 -1.58792,-0.681354 -2.278938,-0.659234 -3.628738,0.116156 -0.813242,0.467164 -1.327194,0.604522 -1.851216,0.494748 z m 0.963516,-0.362326 c 0.1635,-0.06726 0.533656,-0.254318 0.822568,-0.415692 1.41623,-0.791052 2.121224,-0.797974 3.856582,-0.03787 0.877828,0.384498 1.434846,0.425008 1.941706,0.141216 0.315392,-0.176588 0.463842,-0.43591 0.463252,-0.809246 -6e-4,-0.41497 -0.18123,-0.731028 -0.69585,-1.217932 -1.320444,-1.249334 -1.485366,-1.487586 -1.517574,-2.192348 -0.0303,-0.663006 0.253146,-1.254418 1.001776,-2.090208 0.395504,-0.441552 0.715094,-0.922074 0.788128,-1.185 0.134464,-0.484066 0.01392,-0.994361 -0.305808,-1.2946 -0.13289,-0.124789 -0.220954,-0.156072 -0.503126,-0.178722 -0.289918,-0.02327 -0.385328,-0.0073 -0.626108,0.104985 -0.354258,0.165165 -0.659658,0.428715 -1.019914,0.880154 -0.75912,0.951252 -1.271524,1.284937 -1.968326,1.281804 -0.663764,-0.003 -1.067886,-0.214795 -1.85978,-0.974752 -0.922648,-0.885436 -1.273682,-1.094494 -1.83779,-1.094494 -0.335998,0 -0.578034,0.144301 -0.757058,0.451356 -0.101094,0.173393 -0.118642,0.265848 -0.10044,0.529158 0.03681,0.532462 0.240488,0.853776 1.130352,1.783178 0.633832,0.661994 0.866204,0.995236 1.02479,1.469641 0.243142,0.727356 0.02953,1.377488 -0.710438,2.162194 -0.854222,0.90587 -1.035736,1.203844 -1.036004,1.700722 -2e-4,0.500178 0.327278,0.88771 0.897416,1.061766 0.26888,0.08209 0.70859,0.04935 1.011646,-0.07531 z"
       id="path906" />
  </g>
</svg>
