<?xml version="1.0" encoding="UTF-8" standalone="no"?>
<svg
   xmlns:dc="http://purl.org/dc/elements/1.1/"
   xmlns:cc="http://creativecommons.org/ns#"
   xmlns:rdf="http://www.w3.org/1999/02/22-rdf-syntax-ns#"
   xmlns:svg="http://www.w3.org/2000/svg"
   xmlns="http://www.w3.org/2000/svg"
   xmlns:sodipodi="http://sodipodi.sourceforge.net/DTD/sodipodi-0.dtd"
   xmlns:inkscape="http://www.inkscape.org/namespaces/inkscape"
   width="13.229167mm"
   height="13.229167mm"
   viewBox="0 0 13.229169 13.229168"
   version="1.1"
   id="svg8"
   sodipodi:docname="VCS_resized_214.svg"
   inkscape:version="1.0.2-2 (e86c870879, 2021-01-15)">
  <defs
     id="defs2" />
  <sodipodi:namedview
     id="base"
     pagecolor="#ffffff"
     bordercolor="#666666"
     borderopacity="1.0"
     inkscape:pageopacity="0.0"
     inkscape:pageshadow="2"
     inkscape:zoom="2.8284271"
     inkscape:cx="17.424531"
     inkscape:cy="60.968564"
     inkscape:document-units="mm"
     inkscape:current-layer="layer1"
     inkscape:document-rotation="0"
     showgrid="false"
     inkscape:window-width="958"
     inkscape:window-height="1008"
     inkscape:window-x="1913"
     inkscape:window-y="0"
     inkscape:window-maximized="0" />
  <metadata
     id="metadata5">
    <rdf:RDF>
      <cc:Work
         rdf:about="">
        <dc:format>image/svg+xml</dc:format>
        <dc:type
           rdf:resource="http://purl.org/dc/dcmitype/StillImage" />
        <dc:title></dc:title>
      </cc:Work>
    </rdf:RDF>
  </metadata>
  <g
     inkscape:label="Ebene 1"
     inkscape:groupmode="layer"
     id="layer1"
     transform="translate(-43.953121,-14.549237)">
    <path
       style="fill:#000000;stroke-width:0.264582"
       d="m 46.751597,27.320088 c -0.04861,-0.02837 -0.141518,-0.212188 -0.206466,-0.408495 -0.06495,-0.196309 -0.27185,-0.761736 -0.459782,-1.256507 -0.410088,-1.079641 -0.62258,-1.72553 -0.671592,-2.041373 -0.01998,-0.128724 -0.08033,-0.460263 -0.134114,-0.736752 -0.05379,-0.27649 -0.13753,-0.764646 -0.186092,-1.084792 -0.05839,-0.384955 -0.167972,-0.797132 -0.323568,-1.217083 -0.27719,-0.748139 -0.50442,-1.584577 -0.461124,-1.697404 0.04692,-0.122286 1.859538,-1.187266 2.647856,-1.555717 0.48089,-0.224764 1.29293,-0.747019 2.47301,-1.590494 0.573604,-0.409991 1.077696,-0.758784 1.120202,-0.775095 0.08808,-0.0338 0.598094,0.306143 1.856736,1.237565 0.478256,0.35392 1.055456,0.710342 1.73581,1.071869 1.366214,0.725977 2.604368,1.462566 2.672516,1.589902 0.067,0.125191 -0.07077,0.705325 -0.320342,1.348957 -0.199414,0.514269 -0.400626,1.350418 -0.445686,1.852083 -0.0384,0.427452 -0.256298,1.482708 -0.409758,1.984375 -0.05787,0.189178 -0.329012,0.944118 -0.602536,1.677647 -0.273524,0.733529 -0.497318,1.358607 -0.497318,1.389063 0,0.03045 -0.04763,0.102999 -0.105834,0.161207 -0.10387,0.10387 -0.175286,0.105804 -3.849686,0.104224 -2.332022,-0.001 -3.777182,-0.02106 -3.832232,-0.05318 z m 7.611642,-0.553752 c 0.06366,-0.174625 0.226774,-0.615156 0.362486,-0.978959 0.721298,-1.933584 0.875554,-2.498222 1.05532,-3.862916 0.08686,-0.65941 0.165426,-0.959333 0.505562,-1.930038 0.122104,-0.348469 0.225406,-0.736327 0.229562,-0.861906 l 0.0076,-0.228327 -0.682314,-0.395382 c -0.375272,-0.217459 -1.006304,-0.565569 -1.402292,-0.773576 -0.843226,-0.442935 -1.848172,-1.043968 -2.148726,-1.285098 -0.19257,-0.154496 -0.694288,-0.517157 -1.33955,-0.968277 -0.135296,-0.09459 -0.294058,-0.171587 -0.352804,-0.171107 -0.05875,4.8e-4 -0.475906,0.266206 -0.927022,0.590503 -1.288714,0.92643 -1.913912,1.317054 -2.93747,1.835333 -1.345718,0.681405 -2.112224,1.138217 -2.13269,1.271011 -0.02219,0.143969 0.166522,0.808398 0.418068,1.471983 0.19245,0.507689 0.318696,0.984739 0.389372,1.471339 0.219358,1.510261 0.386854,2.181509 0.840464,3.368193 0.21526,0.56314 0.433568,1.154859 0.485128,1.314932 0.05156,0.160073 0.115306,0.332877 0.14166,0.384007 0.04511,0.08752 0.262426,0.09217 3.709934,0.07938 l 3.662022,-0.01359 z"
       id="path4323" />
  </g>
</svg>
