<?xml version="1.0" encoding="UTF-8" standalone="no"?>
<svg
   xmlns:dc="http://purl.org/dc/elements/1.1/"
   xmlns:cc="http://creativecommons.org/ns#"
   xmlns:rdf="http://www.w3.org/1999/02/22-rdf-syntax-ns#"
   xmlns:svg="http://www.w3.org/2000/svg"
   xmlns="http://www.w3.org/2000/svg"
   xmlns:sodipodi="http://sodipodi.sourceforge.net/DTD/sodipodi-0.dtd"
   xmlns:inkscape="http://www.inkscape.org/namespaces/inkscape"
   width="13.229167mm"
   height="13.229167mm"
   viewBox="0 0 13.229169 13.229168"
   version="1.1"
   id="svg8"
   sodipodi:docname="VCS_resized_135.svg"
   inkscape:version="1.0.2-2 (e86c870879, 2021-01-15)">
  <defs
     id="defs2" />
  <sodipodi:namedview
     id="base"
     pagecolor="#ffffff"
     bordercolor="#666666"
     borderopacity="1.0"
     inkscape:pageopacity="0.0"
     inkscape:pageshadow="2"
     inkscape:zoom="2.8284271"
     inkscape:cx="19.088291"
     inkscape:cy="17.674181"
     inkscape:document-units="mm"
     inkscape:current-layer="layer1"
     inkscape:document-rotation="0"
     showgrid="false"
     inkscape:window-width="958"
     inkscape:window-height="1008"
     inkscape:window-x="1913"
     inkscape:window-y="0"
     inkscape:window-maximized="0" />
  <metadata
     id="metadata5">
    <rdf:RDF>
      <cc:Work
         rdf:about="">
        <dc:format>image/svg+xml</dc:format>
        <dc:type
           rdf:resource="http://purl.org/dc/dcmitype/StillImage" />
        <dc:title></dc:title>
      </cc:Work>
    </rdf:RDF>
  </metadata>
  <g
     inkscape:label="Ebene 1"
     inkscape:groupmode="layer"
     id="layer1"
     transform="translate(-33.14954,-21.915318)">
    <path
       style="fill:#000000;stroke-width:0.264582"
       d="m 38.35298,34.707839 c -0.130968,-0.02418 -0.464344,-0.08288 -0.740834,-0.130434 -0.276488,-0.04756 -0.552304,-0.106181 -0.61292,-0.130277 -0.06062,-0.0241 -0.337458,-0.361651 -0.615198,-0.750123 -0.277744,-0.388471 -0.737088,-1.015875 -1.020766,-1.394229 -0.595474,-0.794207 -0.798886,-1.195813 -0.87403,-1.725648 -0.09469,-0.667621 0.02571,-0.928812 0.913736,-1.982238 0.49442,-0.586512 0.670664,-1.234675 0.497044,-1.827959 -0.04587,-0.156744 -0.216284,-0.511207 -0.378698,-0.787696 -0.587778,-1.000613 -0.722264,-1.324585 -0.752758,-1.81336 -0.04634,-0.742746 0.217354,-1.365437 0.712982,-1.683658 0.227172,-0.145856 0.286038,-0.160003 0.596026,-0.143239 0.311606,0.01685 0.401196,0.05152 0.9525,0.36853 1.8244,1.04908 2.361972,1.251041 3.151826,1.184114 0.575292,-0.04875 1.486246,-0.434763 1.954632,-0.828274 0.40167,-0.33746 0.928606,-0.664809 1.178434,-0.732081 0.415256,-0.111817 0.861424,0.09753 1.16241,0.545425 0.23776,0.353808 0.305686,0.618394 0.300648,1.171084 -0.0053,0.57676 -0.09995,0.839347 -0.558574,1.548927 -0.526684,0.814885 -0.601252,1.013269 -0.601252,1.599615 0,0.647559 0.109764,0.891775 0.736142,1.637879 0.599934,0.714606 0.678368,0.871196 0.708158,1.413833 0.03227,0.587785 -0.154,1.082737 -0.666298,1.770469 -0.07865,0.105586 -0.458314,0.629461 -0.843696,1.164167 -0.385384,0.534707 -0.744288,1.027913 -0.797568,1.096015 -0.109866,0.14043 -0.385542,0.217331 -1.359238,0.379161 -0.501714,0.08339 -0.862694,0.104324 -1.719792,0.09975 -0.596634,-0.0032 -1.191948,-0.02557 -1.322916,-0.04975 z m 2.880772,-0.268716 c 0.176378,-0.03283 0.533512,-0.110223 0.793632,-0.171979 0.454684,-0.107948 0.479384,-0.121479 0.639644,-0.350409 0.09168,-0.130969 0.384432,-0.535782 0.650552,-0.899584 0.69861,-0.955044 1.304344,-1.854065 1.372666,-2.037291 0.114354,-0.306672 0.128288,-0.594483 0.0446,-0.921149 -0.09733,-0.379919 -0.212168,-0.570697 -0.721886,-1.19925 -0.21075,-0.259885 -0.456886,-0.627299 -0.546968,-0.816476 -0.146976,-0.308653 -0.162904,-0.390311 -0.155168,-0.795539 0.0124,-0.649152 0.19238,-1.10091 0.81098,-2.035503 0.506108,-0.764637 0.553758,-1.611299 0.122878,-2.183301 -0.151774,-0.201485 -0.480028,-0.383378 -0.690532,-0.382641 -0.212824,7.4e-4 -0.602178,0.197579 -1.19826,0.605767 -1.102548,0.755006 -1.772448,0.964185 -2.776866,0.867087 -0.52574,-0.05082 -0.936524,-0.204787 -1.763756,-0.661059 -0.948602,-0.523218 -1.580976,-0.8118 -1.7795,-0.812073 -0.562042,-7.8e-4 -1.01875,0.60344 -1.01481,1.34256 0.0023,0.43838 0.116342,0.739257 0.600438,1.584631 0.844916,1.475478 0.861448,2.103438 0.08136,3.090336 -0.826928,1.046152 -0.986582,1.3729 -0.931514,1.90645 0.04149,0.402027 0.252584,0.796679 0.872136,1.630525 0.28246,0.380159 0.62072,0.839872 0.75169,1.021585 0.598116,0.829854 0.701792,0.956877 0.81031,0.99278 0.06365,0.02106 0.401482,0.09135 0.75073,0.15619 0.525056,0.09749 0.836016,0.118778 1.795982,0.122969 0.660878,0.0029 1.29912,-0.02064 1.481666,-0.05463 z"
       id="path2202" />
  </g>
</svg>
