<?xml version="1.0" encoding="UTF-8" standalone="no"?>
<svg
   xmlns:dc="http://purl.org/dc/elements/1.1/"
   xmlns:cc="http://creativecommons.org/ns#"
   xmlns:rdf="http://www.w3.org/1999/02/22-rdf-syntax-ns#"
   xmlns:svg="http://www.w3.org/2000/svg"
   xmlns="http://www.w3.org/2000/svg"
   xmlns:sodipodi="http://sodipodi.sourceforge.net/DTD/sodipodi-0.dtd"
   xmlns:inkscape="http://www.inkscape.org/namespaces/inkscape"
   width="13.229167mm"
   height="13.229167mm"
   viewBox="0 0 13.229169 13.229168"
   version="1.1"
   id="svg8"
   sodipodi:docname="VCS_resized_205.svg"
   inkscape:version="1.0.2-2 (e86c870879, 2021-01-15)">
  <defs
     id="defs2" />
  <sodipodi:namedview
     id="base"
     pagecolor="#ffffff"
     bordercolor="#666666"
     borderopacity="1.0"
     inkscape:pageopacity="0.0"
     inkscape:pageshadow="2"
     inkscape:zoom="2.8284271"
     inkscape:cx="17.603725"
     inkscape:cy="58.76825"
     inkscape:document-units="mm"
     inkscape:current-layer="layer1"
     inkscape:document-rotation="0"
     showgrid="false"
     inkscape:window-width="958"
     inkscape:window-height="1008"
     inkscape:window-x="1913"
     inkscape:window-y="0"
     inkscape:window-maximized="0" />
  <metadata
     id="metadata5">
    <rdf:RDF>
      <cc:Work
         rdf:about="">
        <dc:format>image/svg+xml</dc:format>
        <dc:type
           rdf:resource="http://purl.org/dc/dcmitype/StillImage" />
        <dc:title></dc:title>
      </cc:Work>
    </rdf:RDF>
  </metadata>
  <g
     inkscape:label="Ebene 1"
     inkscape:groupmode="layer"
     id="layer1"
     transform="translate(-43.905708,-15.131403)">
    <path
       style="fill:#000000;stroke-width:0.264582"
       d="m 46.8668,27.844631 c -0.04836,-0.03638 -0.205464,-0.351896 -0.349118,-0.701146 -0.143654,-0.34925 -0.413908,-0.980281 -0.600564,-1.402291 -0.186654,-0.422011 -0.36653,-0.838729 -0.399724,-0.926042 -0.193268,-0.508372 -0.329144,-1.469963 -0.329144,-2.32934 0,-0.712673 -0.08157,-1.161445 -0.347208,-1.910271 -0.126714,-0.357196 -0.269196,-0.856558 -0.31663,-1.109693 l -0.08624,-0.460246 0.150144,-0.147406 c 0.347312,-0.340975 1.616542,-1.056807 2.663824,-1.502368 0.661204,-0.281305 1.566378,-0.768155 2.745062,-1.476438 0.272932,-0.164008 0.531606,-0.298196 0.574834,-0.298196 0.09053,0 0.80131,0.394009 1.589772,0.88126 0.655688,0.405199 1.118088,0.641699 1.680328,0.859426 0.829062,0.321052 2.679512,1.424967 2.747454,1.639037 0.05404,0.170262 -0.0644,0.714444 -0.3232,1.484982 -0.260528,0.775677 -0.316738,1.131458 -0.330806,2.093836 -0.0097,0.666176 -0.06293,1.111138 -0.196096,1.640417 -0.114032,0.45323 -0.229336,0.752325 -0.795594,2.06375 -0.276472,0.640292 -0.541402,1.255834 -0.588736,1.367873 -0.04919,0.116423 -0.139762,0.224122 -0.211388,0.251354 -0.06977,0.02652 -1.691024,0.04765 -3.657182,0.04765 -2.743312,0 -3.551488,-0.01477 -3.619786,-0.06615 z m 7.59823,-1.177396 c 1.028976,-2.352078 1.130346,-2.702862 1.17748,-4.074583 0.03758,-1.093564 0.08138,-1.354637 0.374892,-2.234436 0.133744,-0.400894 0.255096,-0.873049 0.26967,-1.049234 l 0.0265,-0.320337 -0.33714,-0.214829 C 55.218766,18.291022 54.31406,17.807149 53.77667,17.597296 53.298088,17.410406 52.492178,16.984084 51.624546,16.458831 51.162684,16.179227 50.72878,15.9364 50.660312,15.919216 c -0.08155,-0.02047 -0.20256,0.01422 -0.350876,0.100578 -1.420824,0.827304 -2.26273,1.28867 -2.683498,1.470563 -1.142364,0.493831 -1.647662,0.742589 -2.22602,1.095869 l -0.608542,0.371716 0.0076,0.339911 c 0.0057,0.253965 0.07486,0.539548 0.27363,1.129439 0.306634,0.909993 0.368608,1.212584 0.405562,1.980152 0.08841,1.836426 0.136938,2.052051 0.768098,3.413125 0.121466,0.261937 0.340396,0.762 0.48651,1.11125 0.146114,0.34925 0.276602,0.653028 0.289972,0.675064 0.01336,0.02203 1.5996,0.03394 3.524954,0.02646 l 3.500644,-0.01361 z"
       id="path4179" />
  </g>
</svg>
