<?xml version="1.0" encoding="UTF-8" standalone="no"?>
<svg
   xmlns:dc="http://purl.org/dc/elements/1.1/"
   xmlns:cc="http://creativecommons.org/ns#"
   xmlns:rdf="http://www.w3.org/1999/02/22-rdf-syntax-ns#"
   xmlns:svg="http://www.w3.org/2000/svg"
   xmlns="http://www.w3.org/2000/svg"
   xmlns:sodipodi="http://sodipodi.sourceforge.net/DTD/sodipodi-0.dtd"
   xmlns:inkscape="http://www.inkscape.org/namespaces/inkscape"
   width="13.229167mm"
   height="13.229167mm"
   viewBox="0 0 13.229169 13.229168"
   version="1.1"
   id="svg8"
   sodipodi:docname="VCS_resized_182.svg"
   inkscape:version="1.0.2-2 (e86c870879, 2021-01-15)">
  <defs
     id="defs2" />
  <sodipodi:namedview
     id="base"
     pagecolor="#ffffff"
     bordercolor="#666666"
     borderopacity="1.0"
     inkscape:pageopacity="0.0"
     inkscape:pageshadow="2"
     inkscape:zoom="2.8284271"
     inkscape:cx="2.5316959"
     inkscape:cy="39.339873"
     inkscape:document-units="mm"
     inkscape:current-layer="layer1"
     inkscape:document-rotation="0"
     showgrid="false"
     inkscape:window-width="958"
     inkscape:window-height="1008"
     inkscape:window-x="1913"
     inkscape:window-y="0"
     inkscape:window-maximized="0" />
  <metadata
     id="metadata5">
    <rdf:RDF>
      <cc:Work
         rdf:about="">
        <dc:format>image/svg+xml</dc:format>
        <dc:type
           rdf:resource="http://purl.org/dc/dcmitype/StillImage" />
        <dc:title></dc:title>
      </cc:Work>
    </rdf:RDF>
  </metadata>
  <g
     inkscape:label="Ebene 1"
     inkscape:groupmode="layer"
     id="layer1"
     transform="translate(-47.893517,-20.271826)">
    <path
       style="fill:#000000;stroke-width:0.264582"
       d="M 51.207708,32.813255 C 51.162718,32.776875 50.96431,32.437547 50.7668,32.059193 50.56929,31.680839 50.190114,30.97837 49.924188,30.498151 49.15488,29.10891 49.079924,28.894897 49.080904,28.090443 c 6e-4,-0.458303 0.02652,-0.612985 0.193876,-1.155066 0.328274,-1.063327 0.318226,-1.402133 -0.07231,-2.4385 -0.209914,-0.557045 -0.310248,-1.152801 -0.240768,-1.429627 0.01922,-0.07658 0.195052,-0.296418 0.39074,-0.488536 0.747418,-0.733783 1.469694,-1.071186 2.602516,-1.215732 0.56972,-0.0727 1.909578,-0.322273 2.419658,-0.450712 0.247974,-0.06244 0.73254,0.03296 1.710082,0.336672 0.402678,0.125109 0.651228,0.164387 1.249108,0.197394 0.633032,0.03495 0.791114,0.06168 1.040786,0.175981 0.660188,0.302245 1.462304,0.959635 1.630988,1.336711 0.08287,0.185241 0.0882,0.264818 0.04073,0.607409 -0.0551,0.397579 -0.07544,0.465099 -0.342778,1.137339 -0.129488,0.325611 -0.147398,0.440826 -0.148064,0.9525 -6e-4,0.537137 0.01544,0.631116 0.208924,1.217084 0.187094,0.56659 0.209328,0.689157 0.206384,1.137708 -0.0028,0.422179 -0.03052,0.582199 -0.173232,0.998934 -0.166672,0.48671 -0.251162,0.657616 -0.905578,1.831782 -0.178332,0.319967 -0.38418,0.712873 -0.457442,0.873125 -0.252634,0.552618 -0.602278,1.098862 -0.724302,1.131575 -0.06457,0.01731 -1.535642,0.0318 -3.269054,0.0322 -2.443306,5.6e-4 -3.170042,-0.01414 -3.233454,-0.06542 z m 6.366408,-0.218687 c 0.04792,-0.02188 0.164184,-0.187014 0.258362,-0.366957 0.09418,-0.179942 0.467796,-0.879558 0.830264,-1.554701 0.85985,-1.601585 0.97947,-1.90511 1.007322,-2.556009 0.01968,-0.460034 0.0058,-0.552367 -0.16338,-1.087692 -0.280758,-0.888304 -0.308152,-1.097938 -0.220106,-1.684458 0.04305,-0.286801 0.154748,-0.704941 0.26081,-0.976366 0.210752,-0.539339 0.290654,-0.955653 0.23524,-1.22565 -0.04268,-0.207949 -0.388774,-0.557223 -0.886038,-0.894181 -0.591966,-0.401132 -0.738818,-0.449551 -1.541896,-0.508383 -0.611926,-0.04483 -0.76714,-0.07433 -1.534584,-0.291707 -1.132856,-0.320876 -1.035834,-0.320614 -2.725208,-0.0073 -0.465666,0.08635 -1.047742,0.18501 -1.293502,0.219236 -0.879556,0.122495 -1.541754,0.447871 -2.2269,1.094202 l -0.382352,0.360692 0.02755,0.401965 c 0.01824,0.266252 0.07565,0.516546 0.170022,0.741342 0.267042,0.636114 0.353218,0.969823 0.38298,1.483035 0.02804,0.483536 0.01938,0.54103 -0.175206,1.164166 -0.18952,0.606889 -0.20478,0.702746 -0.205732,1.292355 l -10e-4,0.636846 0.269564,0.553779 c 0.14826,0.304579 0.407686,0.791905 0.576502,1.082946 0.168816,0.291042 0.485982,0.874448 0.704816,1.296459 0.218834,0.42201 0.406894,0.778214 0.41791,0.791564 0.0644,0.07804 0.813234,0.09759 3.322874,0.08675 1.542522,-0.0067 2.843792,-0.03002 2.891714,-0.0519 z"
       id="path2972" />
  </g>
</svg>
