<?xml version="1.0" encoding="UTF-8" standalone="no"?>
<svg
   xmlns:dc="http://purl.org/dc/elements/1.1/"
   xmlns:cc="http://creativecommons.org/ns#"
   xmlns:rdf="http://www.w3.org/1999/02/22-rdf-syntax-ns#"
   xmlns:svg="http://www.w3.org/2000/svg"
   xmlns="http://www.w3.org/2000/svg"
   xmlns:sodipodi="http://sodipodi.sourceforge.net/DTD/sodipodi-0.dtd"
   xmlns:inkscape="http://www.inkscape.org/namespaces/inkscape"
   width="13.229167mm"
   height="13.229167mm"
   viewBox="0 0 13.229169 13.229168"
   version="1.1"
   id="svg8"
   sodipodi:docname="VCS_resized_157.svg"
   inkscape:version="1.0.2-2 (e86c870879, 2021-01-15)">
  <defs
     id="defs2" />
  <sodipodi:namedview
     id="base"
     pagecolor="#ffffff"
     bordercolor="#666666"
     borderopacity="1.0"
     inkscape:pageopacity="0.0"
     inkscape:pageshadow="2"
     inkscape:zoom="2.8284271"
     inkscape:cx="-18.591811"
     inkscape:cy="42.981849"
     inkscape:document-units="mm"
     inkscape:current-layer="layer1"
     inkscape:document-rotation="0"
     showgrid="false"
     inkscape:window-width="958"
     inkscape:window-height="1008"
     inkscape:window-x="1913"
     inkscape:window-y="0"
     inkscape:window-maximized="0" />
  <metadata
     id="metadata5">
    <rdf:RDF>
      <cc:Work
         rdf:about="">
        <dc:format>image/svg+xml</dc:format>
        <dc:type
           rdf:resource="http://purl.org/dc/dcmitype/StillImage" />
        <dc:title></dc:title>
      </cc:Work>
    </rdf:RDF>
  </metadata>
  <g
     inkscape:label="Ebene 1"
     inkscape:groupmode="layer"
     id="layer1"
     transform="translate(-43.119064,-15.219331)">
    <path
       style="fill:#000000;stroke-width:0.264582"
       d="m 48.030158,27.84758 c -0.04366,-0.01168 -0.336648,-0.03688 -0.651092,-0.056 -0.455658,-0.0277 -0.589938,-0.05438 -0.66146,-0.131435 -0.04936,-0.05317 -0.30401,-0.449653 -0.565894,-0.881067 -0.261886,-0.431415 -0.684196,-1.099868 -0.938468,-1.485453 -0.75906,-1.151062 -0.940168,-1.597337 -0.940168,-2.316701 0,-0.46294 0.09797,-0.801807 0.35145,-1.21557 0.536112,-0.875125 0.706882,-1.271056 0.706882,-1.638903 0,-0.28225 -0.153398,-0.773299 -0.423272,-1.354947 -0.30702,-0.661706 -0.401638,-1.126392 -0.319656,-1.569874 0.139038,-0.752123 0.800136,-1.389401 1.441334,-1.389401 0.147072,0 0.449482,0.06808 0.717214,0.161458 0.265022,0.09243 0.817366,0.217255 1.292026,0.291976 0.751692,0.118332 0.939436,0.128183 2.010832,0.105511 1.379502,-0.02919 1.659648,-0.06908 2.47819,-0.352882 0.69246,-0.240085 0.989952,-0.264671 1.338254,-0.1106 0.468042,0.207037 0.934502,0.844765 1.01535,1.388149 0.05275,0.354573 -0.08822,0.92191 -0.3635,1.462859 -0.536356,1.053988 -0.515716,1.676793 0.08604,2.59599 0.147862,0.225866 0.342486,0.565446 0.432496,0.754623 0.148236,0.311552 0.162952,0.388895 0.156194,0.820919 -0.01234,0.788637 -0.12377,1.066613 -0.963106,2.402549 -0.339818,0.540874 -0.769348,1.236652 -0.95451,1.546174 -0.501866,0.838936 -0.488766,0.827072 -0.98534,0.892355 -0.409216,0.0538 -4.098878,0.123323 -4.259792,0.08027 z M 51.8137,27.552908 c 0.415774,-0.03521 0.618088,-0.07616 0.708098,-0.143322 0.06931,-0.05171 0.357366,-0.474567 0.640126,-0.93967 0.282762,-0.465104 0.661916,-1.071862 0.842564,-1.348351 0.180648,-0.27649 0.44763,-0.740981 0.59329,-1.032203 0.441392,-0.882476 0.420748,-1.461932 -0.082,-2.301547 -0.130704,-0.218282 -0.327798,-0.575469 -0.437986,-0.79375 -0.190742,-0.377853 -0.20024,-0.42097 -0.198176,-0.899584 0.0025,-0.578033 0.07105,-0.821169 0.450738,-1.59848 0.138006,-0.282529 0.267258,-0.632491 0.28723,-0.777694 0.07007,-0.509487 -0.214898,-1.11859 -0.661654,-1.41424 -0.334258,-0.221201 -0.612704,-0.222054 -1.380474,-0.0042 -1.041544,0.2955 -1.317418,0.328885 -2.693216,0.325924 -1.35941,-0.0029 -1.896166,-0.06427 -3.026384,-0.34588 -0.340272,-0.08478 -0.704176,-0.154152 -0.808678,-0.154152 -0.733524,0 -1.367888,0.896346 -1.197302,1.691763 0.03102,0.144657 0.177476,0.531345 0.325448,0.859308 0.302666,0.670817 0.418738,1.093789 0.419884,1.530089 10e-4,0.388554 -0.09135,0.637094 -0.498908,1.342412 -0.432934,0.749232 -0.519744,1.004486 -0.523716,1.539891 -0.003,0.398522 0.01252,0.460956 0.222824,0.899256 0.124302,0.259051 0.461116,0.828336 0.748476,1.265079 0.28736,0.436742 0.710144,1.10364 0.939522,1.481994 0.26396,0.435401 0.46695,0.712277 0.552996,0.754281 0.302388,0.147612 3.310254,0.187344 4.777296,0.0631 z"
       id="path2556" />
  </g>
</svg>
