<?xml version="1.0" encoding="UTF-8" standalone="no"?>
<svg
   xmlns:dc="http://purl.org/dc/elements/1.1/"
   xmlns:cc="http://creativecommons.org/ns#"
   xmlns:rdf="http://www.w3.org/1999/02/22-rdf-syntax-ns#"
   xmlns:svg="http://www.w3.org/2000/svg"
   xmlns="http://www.w3.org/2000/svg"
   xmlns:sodipodi="http://sodipodi.sourceforge.net/DTD/sodipodi-0.dtd"
   xmlns:inkscape="http://www.inkscape.org/namespaces/inkscape"
   width="13.229167mm"
   height="13.229167mm"
   viewBox="0 0 13.229169 13.229168"
   version="1.1"
   id="svg8"
   sodipodi:docname="VCS_resized_341.svg"
   inkscape:version="1.0.2-2 (e86c870879, 2021-01-15)">
  <defs
     id="defs2" />
  <sodipodi:namedview
     id="base"
     pagecolor="#ffffff"
     bordercolor="#666666"
     borderopacity="1.0"
     inkscape:pageopacity="0.0"
     inkscape:pageshadow="2"
     inkscape:zoom="4"
     inkscape:cx="4.673082"
     inkscape:cy="16.101148"
     inkscape:document-units="mm"
     inkscape:current-layer="layer1"
     inkscape:document-rotation="0"
     showgrid="false"
     inkscape:window-width="958"
     inkscape:window-height="1008"
     inkscape:window-x="1913"
     inkscape:window-y="0"
     inkscape:window-maximized="0" />
  <metadata
     id="metadata5">
    <rdf:RDF>
      <cc:Work
         rdf:about="">
        <dc:format>image/svg+xml</dc:format>
        <dc:type
           rdf:resource="http://purl.org/dc/dcmitype/StillImage" />
        <dc:title></dc:title>
      </cc:Work>
    </rdf:RDF>
  </metadata>
  <g
     inkscape:label="Ebene 1"
     inkscape:groupmode="layer"
     id="layer1"
     transform="translate(-96.637177,12.683316)">
    <path
       style="fill:#000000;stroke-width:0.264582"
       d="m 102.70823,-0.19259514 c -0.20776,-0.207756 -0.59279,-0.8014498 -0.84685,-1.30579316 -0.25432,-0.5048574 -0.26923,-0.5583382 -0.32473,-1.1641668 -0.10527,-1.1491754 -0.20765,-1.7375124 -0.31876,-1.8318108 -0.0555,-0.047059 -0.54859,-0.2844336 -1.09585,-0.5274988 -1.14351,-0.50789 -2.914539,-1.3889762 -3.032007,-1.508425 -0.07104,-0.072243 -0.06832,-0.089448 0.02519,-0.1587378 0.146088,-0.1082586 0.857464,-0.3265552 1.456167,-0.4468502 2.49281,-0.5008614 3.12544,-0.6525174 3.2112,-0.7697988 0.0364,-0.049836 0.13974,-0.2716456 0.22956,-0.4929114 0.59081,-1.4555172 0.76925,-1.8621251 1.19827,-2.7306341 0.44286,-0.896493 0.50872,-0.989035 0.62002,-0.871235 0.11451,0.121191 0.53243,1.465129 0.77282,2.4851937 0.29172,1.2379244 0.51194,1.9447742 0.62444,2.0042694 0.0498,0.026345 0.79304,0.3156712 1.65161,0.6429476 1.74203,0.6640376 2.60956,1.0660402 2.58314,1.196994 -0.0311,0.1542542 -1.11891,0.5563854 -2.63606,0.9744822 -0.93819,0.2585504 -1.72932,0.5209614 -1.78778,0.5929916 -0.0759,0.093494 -0.30395,0.8403632 -0.49416,1.6182054 l -0.16372,0.6694848 -0.43633,0.5820832 c -0.42295,0.56423876 -0.96914,1.13770836 -1.08359,1.13770836 -0.0308,0 -0.0995,-0.043424 -0.15258,-0.0964984 z m 0.55607,-0.6046474 c 0.17832,-0.181901 0.45344,-0.52224196 0.61137,-0.75631296 0.23296,-0.345256 0.30916,-0.516399 0.40373,-0.9067256 0.17814,-0.7352146 0.50813,-1.758487 0.5928,-1.838206 0.0793,-0.074704 0.68341,-0.2788158 1.66315,-0.561967 0.95009,-0.274582 2.04897,-0.6302634 2.27146,-0.7352172 l 0.20771,-0.097982 -0.23417,-0.1234076 c -0.34517,-0.1819088 -0.66167,-0.3108298 -2.29791,-0.936011 -1.53883,-0.5879614 -1.49614,-0.5672716 -1.57865,-0.7650888 -0.0972,-0.2331064 -0.36675,-1.203851 -0.53977,-1.9441864 -0.25179,-1.0773129 -0.55271,-2.0375969 -0.6383,-2.0369039 -0.0934,7.6e-4 -0.57342,1.009203 -1.15857,2.4337789 -0.35799,0.8715704 -0.6491,1.444027 -0.74988,1.4746414 -0.0535,0.016262 -0.35927,0.091674 -0.67942,0.1675828 -0.58007,0.137538 -0.91744,0.2086526 -2.2225,0.468484 -0.789683,0.1572228 -1.253253,0.2963974 -1.282115,0.3849228 -0.02473,0.075835 0.524874,0.3665664 1.703865,0.9013254 0.49564,0.2248094 1.18692,0.5525874 1.53617,0.7283942 l 0.635,0.3196494 0.0649,0.3175 c 0.0741,0.362357 0.158,1.029642 0.22624,1.7991666 0.0499,0.5626218 0.13428,0.792035 0.49918,1.3571316 0.32027,0.49598476 0.47123,0.68016016 0.55749,0.68016016 0.0462,0 0.22988,-0.1488282 0.4082,-0.3307292 z"
       id="path6375" />
  </g>
</svg>
