<?xml version="1.0" encoding="UTF-8" standalone="no"?>
<svg
   xmlns:dc="http://purl.org/dc/elements/1.1/"
   xmlns:cc="http://creativecommons.org/ns#"
   xmlns:rdf="http://www.w3.org/1999/02/22-rdf-syntax-ns#"
   xmlns:svg="http://www.w3.org/2000/svg"
   xmlns="http://www.w3.org/2000/svg"
   xmlns:sodipodi="http://sodipodi.sourceforge.net/DTD/sodipodi-0.dtd"
   xmlns:inkscape="http://www.inkscape.org/namespaces/inkscape"
   width="13.229167mm"
   height="13.229167mm"
   viewBox="0 0 13.229169 13.229168"
   version="1.1"
   id="svg8"
   sodipodi:docname="VCS_resized_110.svg"
   inkscape:version="1.0.2-2 (e86c870879, 2021-01-15)">
  <defs
     id="defs2" />
  <sodipodi:namedview
     id="base"
     pagecolor="#ffffff"
     bordercolor="#666666"
     borderopacity="1.0"
     inkscape:pageopacity="0.0"
     inkscape:pageshadow="2"
     inkscape:zoom="2.8284271"
     inkscape:cx="-5.8658378"
     inkscape:cy="52.990572"
     inkscape:document-units="mm"
     inkscape:current-layer="layer1"
     inkscape:document-rotation="0"
     showgrid="false"
     inkscape:window-width="958"
     inkscape:window-height="1008"
     inkscape:window-x="1913"
     inkscape:window-y="0"
     inkscape:window-maximized="0" />
  <metadata
     id="metadata5">
    <rdf:RDF>
      <cc:Work
         rdf:about="">
        <dc:format>image/svg+xml</dc:format>
        <dc:type
           rdf:resource="http://purl.org/dc/dcmitype/StillImage" />
        <dc:title></dc:title>
      </cc:Work>
    </rdf:RDF>
  </metadata>
  <g
     inkscape:label="Ebene 1"
     inkscape:groupmode="layer"
     id="layer1"
     transform="translate(-39.751987,-12.571191)">
    <path
       style="fill:#000000;stroke-width:0.264582"
       d="m 44.505641,25.124963 c -0.397604,-0.09425 -0.766698,-0.205043 -0.820208,-0.246211 -0.576848,-0.443794 -1.645702,-1.385945 -1.844968,-1.626261 -0.336064,-0.405298 -0.517976,-0.808378 -0.543184,-1.203586 -0.03062,-0.480031 0.09196,-0.703487 0.787924,-1.436294 0.925668,-0.974678 1.14659,-1.38786 1.093788,-2.04566 -0.03638,-0.453247 -0.2151,-0.805398 -0.815338,-1.606556 -0.74159,-0.989825 -0.971554,-1.507152 -0.971554,-2.185604 0,-0.724601 0.276,-1.304868 0.741044,-1.557976 0.652354,-0.355056 1.244306,-0.08505 2.35848,1.075757 0.647714,0.674828 0.998422,0.941972 1.40118,1.067324 0.563408,0.175353 1.043724,0.117492 1.47227,-0.177356 0.239236,-0.164598 0.77194,-0.680495 1.382442,-1.338822 0.189178,-0.203997 0.46302,-0.453439 0.608542,-0.554316 0.244442,-0.169451 0.294794,-0.183413 0.661458,-0.183413 0.343676,0 0.426968,0.01956 0.621364,0.145928 0.443992,0.288614 0.655834,0.783439 0.662466,1.547405 0.0039,0.443775 -0.01544,0.576132 -0.119518,0.820208 -0.140728,0.330008 -0.55346,0.972716 -0.951492,1.481667 -0.77251,0.987781 -0.894312,1.852419 -0.368994,2.619375 0.07974,0.116417 0.405102,0.475918 0.723032,0.798893 0.626916,0.636866 0.810394,0.933064 0.849322,1.371106 0.03149,0.354343 -0.05091,0.633119 -0.298416,1.009577 -0.352836,0.536671 -1.508918,1.644937 -2.030802,1.946807 -0.123568,0.07147 -0.527374,0.203388 -0.897346,0.293139 -0.64957,0.157581 -0.71228,0.163067 -1.825626,0.159708 -1.109644,-0.0033 -1.1801,-0.0099 -1.875866,-0.174839 z m 3.71271,-0.266541 c 0.550588,-0.135147 0.646336,-0.177303 1.005416,-0.442666 0.516496,-0.381697 1.640252,-1.51425 1.771238,-1.785105 0.142606,-0.294881 0.171462,-0.858057 0.05546,-1.082381 -0.04914,-0.09502 -0.307604,-0.410814 -0.574372,-0.701771 -1.080508,-1.17848 -1.229864,-1.460017 -1.18887,-2.241034 0.02099,-0.399936 0.04794,-0.49331 0.26977,-0.93461 0.135546,-0.269656 0.439874,-0.75222 0.676284,-1.072366 0.648784,-0.878584 0.802732,-1.237998 0.79935,-1.866212 -0.0026,-0.490852 -0.129618,-0.815826 -0.417918,-1.069598 -0.218528,-0.192357 -0.26909,-0.212732 -0.527894,-0.212732 -0.424442,0 -0.805248,0.233647 -1.32784,0.814709 -0.549662,0.611161 -1.133664,1.140784 -1.403466,1.272786 -0.604742,0.295873 -1.235638,0.285161 -1.888826,-0.03207 -0.273056,-0.132615 -0.486378,-0.310617 -1.034874,-0.863533 -0.738856,-0.744807 -1.054152,-0.992595 -1.45855,-1.146254 -0.701372,-0.2665 -1.316576,0.322687 -1.316576,1.260899 0,0.536796 0.29158,1.162935 0.956352,2.05367 0.173766,0.232834 0.426868,0.643961 0.562448,0.913617 0.221136,0.439822 0.248778,0.535131 0.268566,0.926041 0.03727,0.736287 -0.125724,1.039686 -1.188818,2.212831 -0.549756,0.606666 -0.67027,0.81623 -0.67118,1.167117 -0.0016,0.581659 0.47603,1.176034 1.791706,2.230071 l 0.552714,0.442801 0.623586,0.139554 c 0.342972,0.07676 0.683116,0.150135 0.755876,0.163067 0.07276,0.01293 0.620448,0.01879 1.217084,0.01303 0.990768,-0.0096 1.137536,-0.02343 1.693334,-0.159858 z"
       id="path1802" />
  </g>
</svg>
