<?xml version="1.0" encoding="UTF-8" standalone="no"?>
<svg
   xmlns:dc="http://purl.org/dc/elements/1.1/"
   xmlns:cc="http://creativecommons.org/ns#"
   xmlns:rdf="http://www.w3.org/1999/02/22-rdf-syntax-ns#"
   xmlns:svg="http://www.w3.org/2000/svg"
   xmlns="http://www.w3.org/2000/svg"
   xmlns:sodipodi="http://sodipodi.sourceforge.net/DTD/sodipodi-0.dtd"
   xmlns:inkscape="http://www.inkscape.org/namespaces/inkscape"
   width="13.229167mm"
   height="13.229167mm"
   viewBox="0 0 13.229169 13.229168"
   version="1.1"
   id="svg8"
   sodipodi:docname="VCS_resized_235.svg"
   inkscape:version="1.0.2-2 (e86c870879, 2021-01-15)">
  <defs
     id="defs2" />
  <sodipodi:namedview
     id="base"
     pagecolor="#ffffff"
     bordercolor="#666666"
     borderopacity="1.0"
     inkscape:pageopacity="0.0"
     inkscape:pageshadow="2"
     inkscape:zoom="2.8284271"
     inkscape:cx="-17.008554"
     inkscape:cy="45.271603"
     inkscape:document-units="mm"
     inkscape:current-layer="layer1"
     inkscape:document-rotation="0"
     showgrid="false"
     inkscape:window-width="958"
     inkscape:window-height="1008"
     inkscape:window-x="1913"
     inkscape:window-y="0"
     inkscape:window-maximized="0" />
  <metadata
     id="metadata5">
    <rdf:RDF>
      <cc:Work
         rdf:about="">
        <dc:format>image/svg+xml</dc:format>
        <dc:type
           rdf:resource="http://purl.org/dc/dcmitype/StillImage" />
        <dc:title></dc:title>
      </cc:Work>
    </rdf:RDF>
  </metadata>
  <g
     inkscape:label="Ebene 1"
     inkscape:groupmode="layer"
     id="layer1"
     transform="translate(-74.467422,-36.304497)">
    <path
       style="fill:#000000;stroke-width:0.264582"
       d="m 77.028451,49.123952 c -0.02786,-0.03638 -0.115892,-0.411427 -0.195626,-0.833437 -0.07974,-0.422011 -0.20421,-1.02923 -0.27661,-1.349375 -0.0724,-0.320146 -0.185266,-0.87974 -0.250814,-1.243542 -0.101998,-0.566107 -0.180948,-0.806392 -0.547686,-1.666875 -0.23568,-0.552979 -0.594222,-1.363945 -0.796762,-1.802145 -0.20254,-0.438201 -0.384768,-0.848763 -0.404954,-0.912361 -0.03364,-0.105978 0.03316,-0.149162 0.80016,-0.517325 0.460274,-0.220931 0.944016,-0.445252 1.074986,-0.49849 0.75445,-0.306679 1.63545,-0.77239 1.902714,-1.005807 0.16133,-0.140898 0.82883,-0.793831 1.483334,-1.450962 0.654506,-0.657132 1.226406,-1.194785 1.27089,-1.194785 0.04449,0 0.698346,0.621935 1.453024,1.382078 l 1.372142,1.382078 0.87932,0.430318 c 0.483626,0.236675 1.092106,0.524055 1.352178,0.638623 0.60467,0.266373 1.41284,0.659079 1.46786,0.713263 0.02338,0.02302 -0.146694,0.468025 -0.37794,0.988895 -1.07267,2.416138 -1.285704,2.965899 -1.38967,3.586208 -0.05427,0.323809 -0.137308,0.755433 -0.184526,0.959162 -0.04722,0.203729 -0.176478,0.820137 -0.287246,1.369795 -0.117106,0.581101 -0.231056,1.018177 -0.27226,1.044294 -0.03897,0.0247 -1.859838,0.04528 -4.046362,0.04573 -3.11888,6.4e-4 -3.986414,-0.01344 -4.026152,-0.06534 z m 7.890368,-0.242536 c 0.015,-0.02425 0.07757,-0.304051 0.139076,-0.62177 0.0615,-0.317721 0.191454,-0.934861 0.288784,-1.371423 0.09733,-0.436563 0.2159,-1.029692 0.263488,-1.318064 0.05757,-0.348823 0.167476,-0.720766 0.32838,-1.11125 0.417404,-1.01296 0.855752,-2.018701 1.102332,-2.529174 0.13069,-0.27056 0.237748,-0.522344 0.237902,-0.559519 2e-4,-0.06686 -0.349438,-0.244699 -1.42847,-0.726418 -1.118752,-0.499451 -1.72597,-0.793575 -1.99163,-0.964702 -0.250606,-0.161431 -2.397942,-2.269932 -2.587816,-2.541015 -0.116062,-0.165702 -0.25494,-0.148243 -0.422892,0.05316 -0.233956,0.280558 -1.5518,1.618955 -2.06366,2.095846 -0.520636,0.485065 -0.654718,0.562008 -2.115044,1.213718 -1.38313,0.617259 -1.77269,0.803154 -1.77286,0.845996 -2e-4,0.06477 0.276232,0.701152 0.534874,1.231088 0.135582,0.277798 0.426196,0.944548 0.645806,1.481667 0.306828,0.750433 0.417882,1.092993 0.47957,1.479289 0.04415,0.276489 0.161334,0.859896 0.2604,1.296458 0.09907,0.436563 0.235058,1.085453 0.302206,1.441979 l 0.122086,0.64823 h 3.825108 c 2.103808,0 3.83737,-0.01984 3.85236,-0.0441 z"
       id="path4659" />
  </g>
</svg>
