<?xml version="1.0" encoding="UTF-8" standalone="no"?>
<svg
   xmlns:dc="http://purl.org/dc/elements/1.1/"
   xmlns:cc="http://creativecommons.org/ns#"
   xmlns:rdf="http://www.w3.org/1999/02/22-rdf-syntax-ns#"
   xmlns:svg="http://www.w3.org/2000/svg"
   xmlns="http://www.w3.org/2000/svg"
   xmlns:sodipodi="http://sodipodi.sourceforge.net/DTD/sodipodi-0.dtd"
   xmlns:inkscape="http://www.inkscape.org/namespaces/inkscape"
   width="13.229167mm"
   height="13.229167mm"
   viewBox="0 0 13.229169 13.229168"
   version="1.1"
   id="svg8"
   sodipodi:docname="VCS_resized_359.svg"
   inkscape:version="1.0.2-2 (e86c870879, 2021-01-15)">
  <defs
     id="defs2" />
  <sodipodi:namedview
     id="base"
     pagecolor="#ffffff"
     bordercolor="#666666"
     borderopacity="1.0"
     inkscape:pageopacity="0.0"
     inkscape:pageshadow="2"
     inkscape:zoom="4"
     inkscape:cx="11.713172"
     inkscape:cy="28.799197"
     inkscape:document-units="mm"
     inkscape:current-layer="layer1"
     inkscape:document-rotation="0"
     showgrid="false"
     inkscape:window-width="958"
     inkscape:window-height="1008"
     inkscape:window-x="1913"
     inkscape:window-y="0"
     inkscape:window-maximized="0" />
  <metadata
     id="metadata5">
    <rdf:RDF>
      <cc:Work
         rdf:about="">
        <dc:format>image/svg+xml</dc:format>
        <dc:type
           rdf:resource="http://purl.org/dc/dcmitype/StillImage" />
        <dc:title></dc:title>
      </cc:Work>
    </rdf:RDF>
  </metadata>
  <g
     inkscape:label="Ebene 1"
     inkscape:groupmode="layer"
     id="layer1"
     transform="translate(-94.774483,16.043007)">
    <path
       style="fill:#000000;stroke-width:0.264582"
       d="m 100.08426,-3.7877419 c -0.133067,-0.1513582 -0.287019,-0.4932352 -0.387229,-0.8598958 -0.07516,-0.2749906 -0.09719,-0.5986094 -0.109908,-1.6139586 -0.01548,-1.23659 -0.07842,-1.879996 -0.198892,-2.033141 -0.111896,-0.142247 -0.748402,-0.510596 -1.514382,-0.876382 -0.887292,-0.423716 -1.906792,-1.0193137 -2.158654,-1.2610967 -0.246434,-0.236574 -0.216912,-0.390178 0.09786,-0.509173 0.538982,-0.203755 0.936456,-0.262385 2.166628,-0.319591 1.244986,-0.0579 2.081467,-0.135007 2.203017,-0.203084 0.13806,-0.07733 0.41607,-0.532209 0.87297,-1.428403 0.47943,-0.940377 0.83913,-1.491145 1.31567,-2.014566 0.36941,-0.405744 0.39636,-0.385863 0.67279,0.496271 0.11979,0.382269 0.13678,0.551658 0.17515,1.74625 0.0234,0.727604 0.0711,1.472288 0.10606,1.654853 0.0606,0.316577 0.0749,0.338417 0.30906,0.471974 0.13502,0.07702 0.28125,0.17007 0.32496,0.206775 0.0437,0.03671 0.42471,0.238844 0.84666,0.4491957 1.06516,0.530996 1.44075,0.752986 1.94117,1.147329 0.57257,0.451192 0.60786,0.557679 0.23843,0.719412 -0.49546,0.216912 -0.93978,0.281043 -2.25907,0.326064 -0.85588,0.02921 -1.73501,0.131822 -2.00332,0.233833 -0.17816,0.06773 -0.43576,0.48411 -0.95118,1.537439 -0.24922,0.509322 -0.54366,1.0617052 -0.65431,1.2275174 -0.2071,0.3103462 -0.83263,0.9949822 -0.90908,0.9949822 -0.0236,0 -0.0796,-0.041672 -0.1244,-0.092604 z m 0.43877,-0.555625 c 0.32815,-0.350155 0.55819,-0.7235286 0.96399,-1.5646214 0.35475,-0.73531 0.71094,-1.36569 0.92776,-1.641962 0.15484,-0.197301 0.86394,-0.308557 2.41761,-0.379316 0.61118,-0.02783 1.24222,-0.08376 1.40229,-0.12427 0.32021,-0.08104 0.58208,-0.190574 0.58208,-0.243465 0,-0.06301 -0.34143,-0.35602 -0.67262,-0.577242 -0.18077,-0.120744 -0.69273,-0.400507 -1.13771,-0.621697 -0.44497,-0.22119 -1.03852,-0.5445627 -1.31899,-0.7186057 -0.48561,-0.301345 -0.51173,-0.326944 -0.54747,-0.536538 -0.13082,-0.767204 -0.17346,-1.248289 -0.16018,-1.807595 0.008,-0.34925 -0.005,-0.813594 -0.0303,-1.031875 -0.052,-0.455012 -0.25537,-1.11125 -0.34437,-1.11125 -0.0796,0 -0.50315,0.455697 -0.67166,0.722633 -0.0735,0.116479 -0.35348,0.638521 -0.62212,1.160094 -0.63508,1.233053 -0.86385,1.566349 -1.10943,1.616327 -0.343365,0.06988 -1.391987,0.15712 -2.458351,0.204522 -0.830264,0.03691 -1.137838,0.07125 -1.417524,0.15828 -0.26589,0.08274 -0.357186,0.135266 -0.357186,0.205513 0,0.149891 0.623204,0.538879 1.868936,1.1665417 1.270466,0.640124 1.725352,0.919593 1.81664,1.116089 0.09769,0.210286 0.17734,1.147334 0.17734,2.086438 0,1.1473422 0.188445,2.1468952 0.404745,2.1468952 0.0417,0 0.1706,-0.1012032 0.28652,-0.2248958 z"
       id="path6665" />
  </g>
</svg>
