<?xml version="1.0" encoding="UTF-8" standalone="no"?>
<svg
   xmlns:dc="http://purl.org/dc/elements/1.1/"
   xmlns:cc="http://creativecommons.org/ns#"
   xmlns:rdf="http://www.w3.org/1999/02/22-rdf-syntax-ns#"
   xmlns:svg="http://www.w3.org/2000/svg"
   xmlns="http://www.w3.org/2000/svg"
   xmlns:sodipodi="http://sodipodi.sourceforge.net/DTD/sodipodi-0.dtd"
   xmlns:inkscape="http://www.inkscape.org/namespaces/inkscape"
   width="13.229167mm"
   height="13.229167mm"
   viewBox="0 0 13.229167 13.229167"
   version="1.1"
   id="svg8"
   sodipodi:docname="VCS_resized_49.svg"
   inkscape:version="1.0.2-2 (e86c870879, 2021-01-15)">
  <defs
     id="defs2" />
  <sodipodi:namedview
     id="base"
     pagecolor="#ffffff"
     bordercolor="#666666"
     borderopacity="1.0"
     inkscape:pageopacity="0.0"
     inkscape:pageshadow="2"
     inkscape:zoom="2.8284271"
     inkscape:cx="0.46400639"
     inkscape:cy="58.546355"
     inkscape:document-units="mm"
     inkscape:current-layer="layer1"
     inkscape:document-rotation="0"
     showgrid="false"
     inkscape:window-width="958"
     inkscape:window-height="1008"
     inkscape:window-x="1913"
     inkscape:window-y="0"
     inkscape:window-maximized="0" />
  <metadata
     id="metadata5">
    <rdf:RDF>
      <cc:Work
         rdf:about="">
        <dc:format>image/svg+xml</dc:format>
        <dc:type
           rdf:resource="http://purl.org/dc/dcmitype/StillImage" />
        <dc:title></dc:title>
      </cc:Work>
    </rdf:RDF>
  </metadata>
  <g
     inkscape:label="Ebene 1"
     inkscape:groupmode="layer"
     id="layer1"
     transform="translate(-38.077217,-11.101223)">
    <path
       style="fill:#000000;stroke-width:0.264582"
       d="m 41.348454,22.632477 c -0.729768,-0.123912 -1.189468,-0.65359 -1.180538,-1.360242 0.0066,-0.51901 0.21407,-0.897464 0.874242,-1.594441 0.848354,-0.895649 1.078536,-1.464607 0.862158,-2.131058 -0.145034,-0.446709 -0.261602,-0.602051 -1.090932,-1.453833 -0.791558,-0.812987 -0.977962,-1.078523 -1.09609,-1.561411 -0.08568,-0.350251 -0.001,-0.809572 0.193648,-1.050426 0.218478,-0.270335 0.442006,-0.38236 0.824142,-0.413034 0.615044,-0.04937 1.151088,0.227085 2.019146,1.041339 0.53235,0.499354 0.770412,0.664538 1.150014,0.797958 0.365166,0.128344 0.778358,0.13447 1.12572,0.01669 0.267016,-0.09054 0.467172,-0.272997 1.510066,-1.376541 0.522298,-0.552673 0.958064,-0.7842 1.47481,-0.783581 0.78189,9.4e-4 1.21037,0.532676 1.153296,1.431231 -0.02939,0.462642 -0.193814,0.831508 -0.564832,1.267106 -0.67764,0.79559 -0.852538,1.027941 -1.01474,1.348078 -0.150224,0.296498 -0.17368,0.396305 -0.174104,0.740834 -8e-4,0.571723 0.127534,0.810438 0.754026,1.403588 1.043936,0.988377 1.281714,1.242515 1.388594,1.484133 0.222916,0.503938 0.180146,1.124348 -0.09821,1.424536 -0.07428,0.08011 -0.280496,0.214456 -0.458258,0.298552 -0.257214,0.121684 -0.39635,0.15291 -0.681444,0.152944 -0.4219,5e-5 -0.74407,-0.116856 -1.526632,-0.553964 -0.778138,-0.434638 -1.070482,-0.521808 -1.766378,-0.526696 -0.54943,-0.0039 -0.602158,0.0054 -0.939934,0.16542 -0.196818,0.09323 -0.536766,0.307542 -0.75544,0.47625 -0.948092,0.731452 -1.312088,0.870374 -1.982334,0.756568 z m 0.94247,-0.374946 c 0.125452,-0.05402 0.470734,-0.284508 0.767292,-0.512194 1.028058,-0.789302 1.67745,-0.966308 2.655862,-0.723912 0.313178,0.07759 0.7279,0.266712 1.619084,0.738336 0.52383,0.277216 0.830064,0.333402 1.293462,0.237318 0.419072,-0.08689 0.733036,-0.383082 0.784908,-0.740472 0.06588,-0.453858 -0.137012,-0.851494 -0.715498,-1.402291 -0.942062,-0.896968 -1.24795,-1.229115 -1.388902,-1.508125 -0.386716,-0.765487 -0.155598,-1.613771 0.70645,-2.592916 0.775344,-0.880667 0.932556,-1.199796 0.889246,-1.80511 -0.04428,-0.618832 -0.39025,-0.927203 -0.991006,-0.883299 -0.546068,0.03991 -0.90435,0.298401 -1.660214,1.197812 -0.681866,0.811362 -1.308334,1.134661 -1.993246,1.028646 -0.621334,-0.09617 -1.029622,-0.344975 -1.878034,-1.144427 -0.950964,-0.896089 -1.850312,-1.053597 -2.293044,-0.401595 -0.106016,0.156129 -0.120744,0.231803 -0.102434,0.526306 0.03308,0.53203 0.18316,0.778756 0.933228,1.534187 1.113918,1.121884 1.3589,1.545608 1.317978,2.279585 -0.03436,0.616283 -0.210904,0.936065 -0.966064,1.74989 -0.233336,0.251463 -0.50759,0.595855 -0.609456,0.765315 -0.166736,0.277382 -0.184998,0.345952 -0.183102,0.68755 0.0027,0.479564 0.153762,0.740178 0.536798,0.925854 0.45381,0.219982 0.836626,0.233038 1.276692,0.04354 z"
       id="path794" />
  </g>
</svg>
