<?xml version="1.0" encoding="UTF-8" standalone="no"?>
<svg
   xmlns:dc="http://purl.org/dc/elements/1.1/"
   xmlns:cc="http://creativecommons.org/ns#"
   xmlns:rdf="http://www.w3.org/1999/02/22-rdf-syntax-ns#"
   xmlns:svg="http://www.w3.org/2000/svg"
   xmlns="http://www.w3.org/2000/svg"
   xmlns:sodipodi="http://sodipodi.sourceforge.net/DTD/sodipodi-0.dtd"
   xmlns:inkscape="http://www.inkscape.org/namespaces/inkscape"
   width="13.229167mm"
   height="13.229167mm"
   viewBox="0 0 13.229169 13.229168"
   version="1.1"
   id="svg8"
   sodipodi:docname="VCS_resized_266.svg"
   inkscape:version="1.0.2-2 (e86c870879, 2021-01-15)">
  <defs
     id="defs2" />
  <sodipodi:namedview
     id="base"
     pagecolor="#ffffff"
     bordercolor="#666666"
     borderopacity="1.0"
     inkscape:pageopacity="0.0"
     inkscape:pageshadow="2"
     inkscape:zoom="4"
     inkscape:cx="5.7592653"
     inkscape:cy="49.008129"
     inkscape:document-units="mm"
     inkscape:current-layer="layer1"
     inkscape:document-rotation="0"
     showgrid="false"
     inkscape:window-width="958"
     inkscape:window-height="1008"
     inkscape:window-x="1913"
     inkscape:window-y="0"
     inkscape:window-maximized="0" />
  <metadata
     id="metadata5">
    <rdf:RDF>
      <cc:Work
         rdf:about="">
        <dc:format>image/svg+xml</dc:format>
        <dc:type
           rdf:resource="http://purl.org/dc/dcmitype/StillImage" />
        <dc:title></dc:title>
      </cc:Work>
    </rdf:RDF>
  </metadata>
  <g
     inkscape:label="Ebene 1"
     inkscape:groupmode="layer"
     id="layer1"
     transform="translate(-77.239548,17.582022)">
    <path
       style="fill:#000000;stroke-width:0.264582"
       d="m 80.084998,-4.6582516 c -0.01314,-0.021828 -0.05238,-1.016 -0.08718,-2.2092708 l -0.06328,-2.1695834 -0.16629,-0.238125 c -0.168512,-0.2413058 -0.59121,-0.7930382 -1.37621,-1.7963102 -0.851024,-1.087655 -1.14935,-1.503222 -1.108476,-1.544098 0.03402,-0.03402 3.951336,-1.051675 4.048274,-1.051675 0.029,0 0.737118,-1.072422 1.842724,-2.790756 0.473724,-0.736264 0.571828,-0.859146 0.685178,-0.858237 0.112828,9e-4 0.209666,0.123435 0.658198,0.832839 0.289248,0.457479 0.810056,1.265402 1.15735,1.795385 0.61159,0.933311 0.639144,0.966114 0.876386,1.043368 0.226688,0.07382 3.780218,0.982818 3.842104,0.982818 0.100914,0 -0.02191,0.232187 -0.331628,0.626923 -0.19759,0.251828 -0.571872,0.743619 -0.831738,1.092869 -0.259864,0.34925 -0.678056,0.896937 -0.929314,1.2170826 -0.251258,0.3201458 -0.481066,0.6297084 -0.510682,0.6879166 -0.0302,0.059347 -0.08389,1.0530036 -0.12225,2.2621876 l -0.0684,2.1563542 h -3.745432 c -2.059988,0 -3.756188,-0.01786 -3.769336,-0.039688 z m 7.27368,-0.9921874 c 0.0181,-0.4074584 0.05141,-1.355308 0.07404,-2.1063332 l 0.04114,-1.3654992 0.28432,-0.3468662 c 0.228304,-0.2785262 2.010982,-2.6190244 2.211574,-2.9036004 0.02807,-0.03983 0.03974,-0.08372 0.02593,-0.09753 -0.01382,-0.01381 -0.846408,-0.231888 -1.850212,-0.484613 -1.003804,-0.252726 -1.86874,-0.482584 -1.922078,-0.510796 -0.08636,-0.04568 -1.395872,-1.992205 -2.06691,-3.072367 -0.140126,-0.225557 -0.276436,-0.410104 -0.302912,-0.410104 -0.02648,0 -0.164858,0.184547 -0.307512,0.410104 -0.90869,1.436769 -1.940674,2.999633 -2.023094,3.06383 -0.03901,0.03039 -0.910316,0.264828 -1.936238,0.520985 -1.025922,0.256157 -1.865314,0.488065 -1.865314,0.515351 0,0.02729 0.242994,0.363091 0.539986,0.746234 1.852754,2.3901916 1.947152,2.5237866 1.946184,2.7543296 -6e-4,0.1197394 0.0279,1.081079 0.06312,2.1363114 l 0.06404,1.9186034 3.495522,-0.013604 3.49552,-0.013604 z"
       id="path5169" />
  </g>
</svg>
