<?xml version="1.0" encoding="UTF-8" standalone="no"?>
<svg
   xmlns:dc="http://purl.org/dc/elements/1.1/"
   xmlns:cc="http://creativecommons.org/ns#"
   xmlns:rdf="http://www.w3.org/1999/02/22-rdf-syntax-ns#"
   xmlns:svg="http://www.w3.org/2000/svg"
   xmlns="http://www.w3.org/2000/svg"
   xmlns:sodipodi="http://sodipodi.sourceforge.net/DTD/sodipodi-0.dtd"
   xmlns:inkscape="http://www.inkscape.org/namespaces/inkscape"
   width="13.229167mm"
   height="13.229167mm"
   viewBox="0 0 13.229169 13.229168"
   version="1.1"
   id="svg8"
   sodipodi:docname="VCS_resized_237.svg"
   inkscape:version="1.0.2-2 (e86c870879, 2021-01-15)">
  <defs
     id="defs2" />
  <sodipodi:namedview
     id="base"
     pagecolor="#ffffff"
     bordercolor="#666666"
     borderopacity="1.0"
     inkscape:pageopacity="0.0"
     inkscape:pageshadow="2"
     inkscape:zoom="2.8284271"
     inkscape:cx="-19.904502"
     inkscape:cy="49.8466"
     inkscape:document-units="mm"
     inkscape:current-layer="layer1"
     inkscape:document-rotation="0"
     showgrid="false"
     inkscape:window-width="958"
     inkscape:window-height="1008"
     inkscape:window-x="1913"
     inkscape:window-y="0"
     inkscape:window-maximized="0" />
  <metadata
     id="metadata5">
    <rdf:RDF>
      <cc:Work
         rdf:about="">
        <dc:format>image/svg+xml</dc:format>
        <dc:type
           rdf:resource="http://purl.org/dc/dcmitype/StillImage" />
        <dc:title></dc:title>
      </cc:Work>
    </rdf:RDF>
  </metadata>
  <g
     inkscape:label="Ebene 1"
     inkscape:groupmode="layer"
     id="layer1"
     transform="translate(-78.967407,-38.841228)">
    <path
       style="fill:#000000;stroke-width:0.264582"
       d="m 81.468901,51.700801 c -0.01772,-0.02869 -0.10244,-0.475169 -0.18825,-0.992188 -0.08581,-0.517019 -0.19119,-1.082909 -0.234182,-1.257534 -0.04299,-0.174625 -0.137868,-0.665488 -0.210836,-1.090807 -0.104712,-0.610355 -0.176212,-0.866821 -0.339306,-1.217084 -0.113652,-0.244076 -0.271162,-0.598557 -0.350026,-0.787734 -0.07886,-0.189177 -0.268816,-0.59399 -0.422116,-0.899584 -0.153302,-0.305593 -0.381122,-0.788978 -0.50627,-1.074188 -0.195216,-0.444898 -0.216904,-0.528746 -0.152678,-0.590253 0.06962,-0.06668 0.611596,-0.322059 1.768192,-0.833189 0.261938,-0.115758 0.785812,-0.36085 1.164166,-0.54465 l 0.687918,-0.334182 0.795442,-0.812081 c 0.437494,-0.446645 1.071494,-1.103785 1.40889,-1.460311 0.337396,-0.356526 0.637656,-0.648229 0.667244,-0.648229 0.02959,0 0.217118,0.171877 0.416736,0.381948 2.345934,2.468806 2.351586,2.473906 3.193981,2.882515 0.392906,0.190582 0.869156,0.411516 1.058332,0.490963 0.871724,0.366089 1.905,0.869858 1.905,0.928772 0,0.03579 -0.13315,0.347847 -0.295888,0.693459 -0.531086,1.127873 -1.387042,3.069423 -1.446044,3.280028 -0.03172,0.113221 -0.09474,0.455888 -0.14004,0.761482 -0.0453,0.305594 -0.12638,0.734219 -0.180172,0.9525 -0.05379,0.218281 -0.149696,0.728271 -0.213122,1.133311 -0.12084,0.7717 -0.177144,0.981403 -0.281272,1.047614 -0.09719,0.0618 -8.067397,0.05139 -8.105699,-0.01058 z m 7.955437,-0.305035 c 0.02673,-0.05093 0.08931,-0.342635 0.139086,-0.648229 0.04977,-0.305594 0.157862,-0.865187 0.2402,-1.243542 0.08234,-0.378354 0.190108,-0.949854 0.239486,-1.27 0.105834,-0.686169 0.113282,-0.706534 0.871032,-2.38125 0.02634,-0.05821 0.227592,-0.484533 0.447234,-0.947388 0.21964,-0.462855 0.399346,-0.875083 0.399346,-0.916061 0,-0.06789 -0.502836,-0.324202 -1.481666,-0.75526 -0.189178,-0.08331 -0.717622,-0.32253 -1.174322,-0.5316 l -0.830365,-0.380127 -0.950706,-0.95999 c -0.522888,-0.527995 -1.11363,-1.143853 -1.312762,-1.368573 -0.19913,-0.224721 -0.399498,-0.409268 -0.445262,-0.410105 -0.04576,-8.4e-4 -0.224144,0.159214 -0.396402,0.355667 -0.172256,0.196453 -0.763908,0.81588 -1.314778,1.376504 -1.138614,1.158769 -0.964378,1.046885 -3.042028,1.953431 -1.205828,0.526141 -1.43421,0.637541 -1.43421,0.699574 0,0.07618 0.152512,0.421665 0.516298,1.169553 0.714994,1.469919 1.02795,2.230556 1.132142,2.751667 0.05528,0.27649 0.160534,0.800365 0.233894,1.164167 0.07336,0.363802 0.191142,0.994428 0.261736,1.401392 0.07059,0.406963 0.142826,0.805823 0.160514,0.886354 l 0.03216,0.14642 h 3.830392 c 3.594205,0 3.833389,-0.0057 3.878983,-0.0926 z"
       id="path4691" />
  </g>
</svg>
