<?xml version="1.0" encoding="UTF-8" standalone="no"?>
<svg
   xmlns:dc="http://purl.org/dc/elements/1.1/"
   xmlns:cc="http://creativecommons.org/ns#"
   xmlns:rdf="http://www.w3.org/1999/02/22-rdf-syntax-ns#"
   xmlns:svg="http://www.w3.org/2000/svg"
   xmlns="http://www.w3.org/2000/svg"
   xmlns:sodipodi="http://sodipodi.sourceforge.net/DTD/sodipodi-0.dtd"
   xmlns:inkscape="http://www.inkscape.org/namespaces/inkscape"
   width="13.229167mm"
   height="13.229167mm"
   viewBox="0 0 13.229167 13.229167"
   version="1.1"
   id="svg8"
   sodipodi:docname="VCS_resized_72.svg"
   inkscape:version="1.0.2-2 (e86c870879, 2021-01-15)">
  <defs
     id="defs2" />
  <sodipodi:namedview
     id="base"
     pagecolor="#ffffff"
     bordercolor="#666666"
     borderopacity="1.0"
     inkscape:pageopacity="0.0"
     inkscape:pageshadow="2"
     inkscape:zoom="2.8284271"
     inkscape:cx="27.273101"
     inkscape:cy="37.763056"
     inkscape:document-units="mm"
     inkscape:current-layer="layer1"
     inkscape:document-rotation="0"
     showgrid="false"
     inkscape:window-width="958"
     inkscape:window-height="1008"
     inkscape:window-x="1913"
     inkscape:window-y="0"
     inkscape:window-maximized="0" />
  <metadata
     id="metadata5">
    <rdf:RDF>
      <cc:Work
         rdf:about="">
        <dc:format>image/svg+xml</dc:format>
        <dc:type
           rdf:resource="http://purl.org/dc/dcmitype/StillImage" />
        <dc:title></dc:title>
      </cc:Work>
    </rdf:RDF>
  </metadata>
  <g
     inkscape:label="Ebene 1"
     inkscape:groupmode="layer"
     id="layer1"
     transform="translate(-30.983978,-16.600138)">
    <path
       style="fill:#000000;stroke-width:0.264582"
       d="m 33.97046,28.309017 c -0.786416,-0.323513 -1.206192,-0.869561 -1.210964,-1.575227 -0.0023,-0.341465 0.316698,-0.878835 0.799722,-1.347146 0.919182,-0.891183 1.121772,-1.174732 1.200072,-1.679645 0.10235,-0.660001 -0.121342,-1.173752 -0.901544,-2.070557 -0.299154,-0.343867 -0.612226,-0.711431 -0.695714,-0.81681 -0.600996,-0.758577 -0.672824,-1.833759 -0.162348,-2.430135 0.263604,-0.307962 0.431368,-0.382871 0.866588,-0.386946 0.621822,-0.0058 1.007226,0.265309 2.048112,1.440842 0.623486,0.704137 1.031812,0.94502 1.612206,0.951084 0.68397,0.0071 0.9851,-0.179263 1.772756,-1.097402 0.835764,-0.974215 1.29946,-1.297336 1.868732,-1.302198 0.502544,-0.0043 0.873764,0.247028 1.107414,0.749737 0.115792,0.249128 0.137734,0.371829 0.13877,0.775982 0.0012,0.46005 -0.0081,0.498652 -0.222728,0.926041 -0.158532,0.315686 -0.363554,0.600578 -0.701768,0.975147 -0.262794,0.291042 -0.573588,0.67102 -0.690656,0.844397 -0.279718,0.414259 -0.445116,0.95421 -0.402504,1.314001 0.06034,0.509461 0.25225,0.793745 1.114954,1.651602 0.709678,0.705691 0.812262,0.830301 0.924694,1.123219 0.396722,1.033591 -0.414644,2.022531 -1.661176,2.02474 -0.174626,3.2e-4 -0.60325,-0.04575 -0.9525,-0.102345 -1.725858,-0.279689 -2.489396,-0.265346 -4.191416,0.07874 -0.595664,0.120421 -1.302166,0.100375 -1.660702,-0.04712 z m 1.883368,-0.290612 c 1.196134,-0.264929 2.242238,-0.275719 3.920644,-0.04044 1.073534,0.150487 1.336164,0.140898 1.758956,-0.06423 0.464846,-0.225529 0.696858,-0.581809 0.696858,-1.070101 0,-0.391288 -0.172942,-0.649024 -0.99279,-1.47956 -0.578266,-0.585804 -0.74048,-0.785393 -0.9013,-1.108967 -0.18135,-0.36488 -0.19545,-0.426643 -0.187242,-0.820209 0.0154,-0.737954 0.245888,-1.184345 1.148828,-2.224889 0.798278,-0.919935 1.005056,-1.472667 0.806476,-2.155761 -0.06174,-0.212376 -0.142094,-0.343446 -0.295548,-0.482083 -0.24512,-0.221451 -0.390106,-0.267966 -0.732232,-0.234919 -0.510534,0.04931 -0.829126,0.289276 -1.577392,1.188087 -0.774878,0.930778 -1.223686,1.207541 -1.951926,1.20368 -0.74717,-0.004 -1.234626,-0.32536 -2.128938,-1.403694 -0.60833,-0.733505 -1.015824,-0.996036 -1.54877,-0.997802 -0.526838,-0.0017 -0.870746,0.342218 -0.932454,0.932605 -0.06328,0.605448 0.228448,1.183418 1.050852,2.081925 0.880652,0.962147 1.231288,1.845472 1.020452,2.570728 -0.141274,0.485962 -0.319792,0.739427 -1.017168,1.444201 -0.726238,0.733941 -0.915432,1.03392 -0.915432,1.45147 0,0.32465 0.108976,0.558047 0.389466,0.834129 0.542952,0.534421 1.203436,0.63834 2.38866,0.375828 z"
       id="path1194" />
  </g>
</svg>
