<?xml version="1.0" encoding="UTF-8" standalone="no"?>
<svg
   xmlns:dc="http://purl.org/dc/elements/1.1/"
   xmlns:cc="http://creativecommons.org/ns#"
   xmlns:rdf="http://www.w3.org/1999/02/22-rdf-syntax-ns#"
   xmlns:svg="http://www.w3.org/2000/svg"
   xmlns="http://www.w3.org/2000/svg"
   xmlns:sodipodi="http://sodipodi.sourceforge.net/DTD/sodipodi-0.dtd"
   xmlns:inkscape="http://www.inkscape.org/namespaces/inkscape"
   width="13.229167mm"
   height="13.229167mm"
   viewBox="0 0 13.229169 13.229168"
   version="1.1"
   id="svg8"
   sodipodi:docname="VCS_resized_146.svg"
   inkscape:version="1.0.2-2 (e86c870879, 2021-01-15)">
  <defs
     id="defs2" />
  <sodipodi:namedview
     id="base"
     pagecolor="#ffffff"
     bordercolor="#666666"
     borderopacity="1.0"
     inkscape:pageopacity="0.0"
     inkscape:pageshadow="2"
     inkscape:zoom="2.8284271"
     inkscape:cx="-2.3694719"
     inkscape:cy="80.395267"
     inkscape:document-units="mm"
     inkscape:current-layer="layer1"
     inkscape:document-rotation="0"
     showgrid="false"
     inkscape:window-width="958"
     inkscape:window-height="1008"
     inkscape:window-x="1913"
     inkscape:window-y="0"
     inkscape:window-maximized="0" />
  <metadata
     id="metadata5">
    <rdf:RDF>
      <cc:Work
         rdf:about="">
        <dc:format>image/svg+xml</dc:format>
        <dc:type
           rdf:resource="http://purl.org/dc/dcmitype/StillImage" />
        <dc:title></dc:title>
      </cc:Work>
    </rdf:RDF>
  </metadata>
  <g
     inkscape:label="Ebene 1"
     inkscape:groupmode="layer"
     id="layer1"
     transform="translate(-38.826904,-5.3203645)">
    <path
       style="fill:#000000;stroke-width:0.264582"
       d="m 43.701769,18.053759 c -0.160072,-0.02028 -0.45773,-0.0557 -0.661458,-0.0787 -0.20373,-0.023 -0.40421,-0.06839 -0.445514,-0.100866 -0.0413,-0.03247 -0.325364,-0.440041 -0.631244,-0.905708 -0.30588,-0.465667 -0.77939,-1.162261 -1.052244,-1.547987 -0.607132,-0.858288 -0.789428,-1.235034 -0.87212,-1.802385 -0.08421,-0.577741 -0.0052,-0.975643 0.28183,-1.419079 0.1155,-0.178447 0.255712,-0.36582 0.311584,-0.416382 0.210528,-0.190525 0.528684,-0.754347 0.61815,-1.095456 0.139912,-0.533445 0.06136,-0.8905233 -0.399274,-1.814961 -0.237292,-0.4762214 -0.389882,-0.8561504 -0.427202,-1.063686 -0.139968,-0.778341 0.198924,-1.63825 0.755106,-1.9160212 0.384072,-0.1918152 0.667582,-0.1597598 1.323522,0.1496468 0.578758,0.2729992 0.983388,0.4282306 1.675114,0.642639 0.358542,0.1111338 0.496544,0.122936 1.42875,0.122191 0.971456,-7.8e-4 1.06131,-0.00944 1.534584,-0.148016 0.276488,-0.080955 0.633676,-0.2266542 0.79375,-0.323776 0.160072,-0.097122 0.457728,-0.264808 0.661458,-0.3726366 0.335666,-0.1776594 0.401342,-0.194109 0.700058,-0.1753414 0.460446,0.028929 0.719862,0.2168766 0.966816,0.7004598 0.16125,0.3157572 0.18754,0.421657 0.203234,0.8186432 0.02136,0.5402576 -0.08997,0.9334152 -0.423094,1.4941412 -0.62455,1.0512729 -0.614708,1.8869832 0.032,2.7175902 0.728226,0.9353 0.871782,1.320989 0.771678,2.073226 -0.07402,0.556246 -0.231878,0.916792 -0.72565,1.657399 -0.203744,0.305593 -0.671788,1.013533 -1.040098,1.573199 -0.478204,0.726658 -0.703764,1.02485 -0.788966,1.043022 -0.43269,0.09228 -0.77602,0.141475 -1.309938,0.187695 -0.672902,0.05825 -2.824212,0.059 -3.280834,0.0011 z m 3.443146,-0.270555 c 0.295284,-0.03212 0.647452,-0.0857 0.782596,-0.119062 l 0.245716,-0.06066 0.99047,-1.481667 c 0.54476,-0.814916 1.072498,-1.648353 1.17275,-1.852083 0.219476,-0.446004 0.279326,-0.846726 0.1906,-1.276176 -0.08303,-0.401898 -0.227798,-0.679763 -0.653988,-1.255271 -0.483338,-0.652678 -0.577576,-0.925781 -0.55074,-1.596053 0.0239,-0.5968714 0.163518,-1.001903 0.563914,-1.6358854 0.250866,-0.39722 0.321194,-0.6523016 0.322992,-1.1715372 0.0024,-0.6868624 -0.370524,-1.1739284 -0.939278,-1.2268292 -0.223594,-0.020797 -0.318384,0.01108 -0.895806,0.3012444 -1.177782,0.5918576 -1.760006,0.723107 -2.998976,0.6760524 -0.908114,-0.034489 -1.391692,-0.1526066 -2.57298,-0.628468 -1.204992,-0.4854114 -1.583142,-0.4591224 -1.930872,0.1342348 -0.179656,0.306558 -0.250648,0.713285 -0.190114,1.0891762 0.0307,0.1905942 0.177932,0.5650278 0.399786,1.0166816 0.388892,0.7917074 0.499424,1.1648791 0.502232,1.6956134 0.0023,0.4422 -0.09318,0.698513 -0.439178,1.178467 -0.736968,1.022292 -0.860608,1.317133 -0.815676,1.945123 0.03169,0.442877 0.239338,0.883011 0.783918,1.661585 0.20035,0.286436 0.653906,0.954079 1.007904,1.483651 0.353998,0.529573 0.68203,0.97962 0.728962,1.000106 0.357276,0.15595 3.232374,0.237439 4.295768,0.121754 z"
       id="path2380" />
  </g>
</svg>
