<?xml version="1.0" encoding="UTF-8" standalone="no"?>
<svg
   xmlns:dc="http://purl.org/dc/elements/1.1/"
   xmlns:cc="http://creativecommons.org/ns#"
   xmlns:rdf="http://www.w3.org/1999/02/22-rdf-syntax-ns#"
   xmlns:svg="http://www.w3.org/2000/svg"
   xmlns="http://www.w3.org/2000/svg"
   xmlns:sodipodi="http://sodipodi.sourceforge.net/DTD/sodipodi-0.dtd"
   xmlns:inkscape="http://www.inkscape.org/namespaces/inkscape"
   width="13.229167mm"
   height="13.229167mm"
   viewBox="0 0 13.229169 13.229168"
   version="1.1"
   id="svg8"
   sodipodi:docname="VCS_resized_311.svg"
   inkscape:version="1.0.2-2 (e86c870879, 2021-01-15)">
  <defs
     id="defs2" />
  <sodipodi:namedview
     id="base"
     pagecolor="#ffffff"
     bordercolor="#666666"
     borderopacity="1.0"
     inkscape:pageopacity="0.0"
     inkscape:pageshadow="2"
     inkscape:zoom="4"
     inkscape:cx="39.708567"
     inkscape:cy="55.896781"
     inkscape:document-units="mm"
     inkscape:current-layer="layer1"
     inkscape:document-rotation="0"
     showgrid="false"
     inkscape:window-width="958"
     inkscape:window-height="1008"
     inkscape:window-x="1913"
     inkscape:window-y="0"
     inkscape:window-maximized="0" />
  <metadata
     id="metadata5">
    <rdf:RDF>
      <cc:Work
         rdf:about="">
        <dc:format>image/svg+xml</dc:format>
        <dc:type
           rdf:resource="http://purl.org/dc/dcmitype/StillImage" />
        <dc:title></dc:title>
      </cc:Work>
    </rdf:RDF>
  </metadata>
  <g
     inkscape:label="Ebene 1"
     inkscape:groupmode="layer"
     id="layer1"
     transform="translate(-87.367371,23.212576)">
    <path
       style="fill:#000000;stroke-width:0.264582"
       d="m 92.836646,-10.853204 -0.898,-0.276933 -0.04101,-0.197397 c -0.02256,-0.108568 -0.06407,-0.392618 -0.09225,-0.631223 -0.110472,-0.935396 -0.367938,-2.593354 -0.408828,-2.632658 -0.02374,-0.02282 -0.590848,-0.391429 -1.260244,-0.819135 -2.277408,-1.455137 -2.619376,-1.686391 -2.619376,-1.771345 0,-0.08628 0.269484,-0.158041 3.175,-0.845474 0.62574,-0.148047 1.187138,-0.289744 1.247554,-0.314882 0.111848,-0.04654 0.138178,-0.101032 0.845394,-1.749707 0.19351,-0.451115 0.429196,-0.998802 0.523748,-1.217083 0.09455,-0.218282 0.24999,-0.581035 0.34542,-0.806119 0.193598,-0.45663 0.284334,-0.564405 0.408976,-0.485783 0.04476,0.02824 0.247514,0.443574 0.45056,0.922974 0.41997,0.991558 1.013411,2.387335 1.248037,2.935386 0.184694,0.431416 0.07114,0.377294 1.49198,0.711082 0.509322,0.119652 1.05701,0.252238 1.217082,0.294636 0.160074,0.0424 0.657106,0.170944 1.104514,0.285657 0.447407,0.114713 0.836447,0.231542 0.864527,0.25962 0.056,0.05599 -0.21473,0.277371 -0.733113,0.599476 -0.170436,0.105905 -0.690886,0.440311 -1.156552,0.743126 -0.465668,0.302815 -1.09343,0.703878 -1.395028,0.891254 -0.318554,0.197908 -0.567116,0.390011 -0.593114,0.458391 -0.02462,0.06474 -0.129042,0.708121 -0.23206,1.429734 -0.10302,0.721613 -0.213094,1.456786 -0.244612,1.633718 l -0.0573,0.321694 -0.379358,0.122679 c -0.866873,0.280329 -1.439205,0.424285 -1.669427,0.419902 -0.134486,-0.0026 -0.64862,-0.129276 -1.14252,-0.28159 z m 2.114176,-0.210026 c 0.427071,-0.127429 0.794915,-0.252444 0.817431,-0.277813 0.03628,-0.04088 0.187636,-0.969686 0.457124,-2.805211 l 0.08655,-0.589504 0.404694,-0.252797 c 1.71107,-1.068838 3.184104,-2.054117 3.138772,-2.09945 -0.02843,-0.02843 -0.951522,-0.274907 -2.051328,-0.547738 -1.099804,-0.272831 -2.027684,-0.526326 -2.061956,-0.563323 -0.03427,-0.037 -0.18695,-0.364923 -0.339288,-0.728725 -0.152339,-0.363803 -0.391249,-0.923396 -0.530913,-1.243542 -0.139662,-0.320146 -0.337428,-0.78449 -0.439476,-1.031875 -0.378404,-0.91732 -0.4072,-0.97321 -0.469386,-0.911024 -0.03241,0.03241 -0.14646,0.268507 -0.253444,0.524662 -0.466692,1.117396 -1.450426,3.380244 -1.488172,3.423182 -0.02274,0.02587 -0.370222,0.124137 -0.772186,0.21838 -3.513684,0.823806 -3.421488,0.799799 -3.372986,0.878278 0.03529,0.0571 0.524512,0.377459 2.278696,1.492153 0.673232,0.427804 1.247718,0.807469 1.276638,0.843701 0.02892,0.03623 0.15186,0.768345 0.2732,1.626918 0.121342,0.858573 0.231192,1.611724 0.24411,1.673669 0.01678,0.08043 0.08795,0.129664 0.248992,0.172223 0.124026,0.03278 0.499346,0.141666 0.834044,0.241975 0.334698,0.100309 0.683658,0.183543 0.775468,0.184965 0.09181,0.0014 0.516346,-0.101675 0.943418,-0.229104 z"
       id="path5891" />
  </g>
</svg>
