<?xml version="1.0" encoding="UTF-8" standalone="no"?>
<svg
   xmlns:dc="http://purl.org/dc/elements/1.1/"
   xmlns:cc="http://creativecommons.org/ns#"
   xmlns:rdf="http://www.w3.org/1999/02/22-rdf-syntax-ns#"
   xmlns:svg="http://www.w3.org/2000/svg"
   xmlns="http://www.w3.org/2000/svg"
   xmlns:sodipodi="http://sodipodi.sourceforge.net/DTD/sodipodi-0.dtd"
   xmlns:inkscape="http://www.inkscape.org/namespaces/inkscape"
   width="13.229167mm"
   height="13.229167mm"
   viewBox="0 0 13.229167 13.229167"
   version="1.1"
   id="svg8"
   sodipodi:docname="VCS_resized_74.svg"
   inkscape:version="1.0.2-2 (e86c870879, 2021-01-15)">
  <defs
     id="defs2" />
  <sodipodi:namedview
     id="base"
     pagecolor="#ffffff"
     bordercolor="#666666"
     borderopacity="1.0"
     inkscape:pageopacity="0.0"
     inkscape:pageshadow="2"
     inkscape:zoom="2.8284271"
     inkscape:cx="-2.9843711"
     inkscape:cy="20.766278"
     inkscape:document-units="mm"
     inkscape:current-layer="layer1"
     inkscape:document-rotation="0"
     showgrid="false"
     inkscape:window-width="958"
     inkscape:window-height="1008"
     inkscape:window-x="1913"
     inkscape:window-y="0"
     inkscape:window-maximized="0" />
  <metadata
     id="metadata5">
    <rdf:RDF>
      <cc:Work
         rdf:about="">
        <dc:format>image/svg+xml</dc:format>
        <dc:type
           rdf:resource="http://purl.org/dc/dcmitype/StillImage" />
        <dc:title></dc:title>
      </cc:Work>
    </rdf:RDF>
  </metadata>
  <g
     inkscape:label="Ebene 1"
     inkscape:groupmode="layer"
     id="layer1"
     transform="translate(-38.989601,-21.097202)">
    <path
       style="fill:#000000;stroke-width:0.264582"
       d="m 42.333643,32.933235 c -0.533244,-0.09019 -1.223984,-0.567787 -1.448158,-1.001293 -0.04963,-0.09598 -0.103156,-0.345282 -0.118942,-0.554011 -0.02408,-0.318389 -0.01074,-0.414701 0.08278,-0.598037 0.214366,-0.42019 0.428314,-0.68593 0.897474,-1.114723 0.260024,-0.237653 0.587244,-0.599632 0.727154,-0.804397 0.244424,-0.357727 0.255246,-0.389382 0.276472,-0.808633 0.03583,-0.707754 -0.142894,-1.078053 -0.976804,-2.023831 -0.590118,-0.669283 -0.701682,-0.820015 -0.920408,-1.243542 -0.16622,-0.321858 -0.177748,-0.377958 -0.1794,-0.873125 -0.0016,-0.472579 0.01324,-0.55746 0.138516,-0.79375 0.263966,-0.497857 0.55079,-0.679792 1.056972,-0.670444 0.633618,0.0117 1.055318,0.311527 1.996316,1.419374 0.766104,0.901941 1.457626,1.194735 2.21531,0.937973 0.385054,-0.130486 0.63735,-0.339802 1.179836,-0.978848 0.865462,-1.019507 1.26914,-1.315564 1.850516,-1.357161 0.54929,-0.0393 0.90511,0.182913 1.158664,0.723602 0.120944,0.257905 0.138702,0.3639 0.138236,0.825087 -4e-4,0.47489 -0.01626,0.561733 -0.153874,0.846667 -0.177218,0.366936 -0.339386,0.585078 -0.845148,1.136857 -0.745026,0.812815 -1.087238,1.5169 -1.014702,2.087702 0.06558,0.516104 0.250488,0.788314 1.116564,1.643774 0.70557,0.696923 0.817408,0.831109 0.916792,1.100006 0.213848,0.578583 0.106692,1.085752 -0.321254,1.520501 -0.49154,0.499355 -1.075126,0.602943 -2.56275,0.454892 -1.812334,-0.180365 -1.946736,-0.177611 -3.723218,0.0763 -0.747158,0.10679 -1.08059,0.117792 -1.486946,0.04906 z m 1.777986,-0.396185 c 0.866848,-0.139715 1.932446,-0.157837 3.04271,-0.05174 1.422128,0.135893 1.920502,0.132153 2.246044,-0.01686 0.572804,-0.262188 0.823122,-0.608123 0.823122,-1.137537 0,-0.390154 -0.172818,-0.643925 -1.038518,-1.524981 -0.575228,-0.585431 -0.736146,-0.783586 -0.859454,-1.058333 -0.201662,-0.449326 -0.23314,-0.657204 -0.164542,-1.086605 0.10357,-0.648333 0.287136,-0.942482 1.479392,-2.370624 0.895202,-1.072316 0.604994,-2.514134 -0.506446,-2.51614 -0.424226,-7.6e-4 -1.041406,0.472779 -1.689318,1.296163 -0.372342,0.473181 -0.730078,0.794525 -1.07073,0.961803 -0.269242,0.132211 -0.36245,0.149447 -0.808164,0.149447 -0.847526,0 -1.148778,-0.202994 -2.27999,-1.536339 -0.511634,-0.603056 -0.869172,-0.831582 -1.348834,-0.862124 -0.276344,-0.0176 -0.366122,-0.001 -0.524688,0.097 -0.269478,0.166546 -0.4356,0.455665 -0.478208,0.832274 -0.06977,0.616663 0.200132,1.145279 1.141894,2.23648 0.545464,0.632017 0.867876,1.215853 0.958036,1.734844 0.04766,0.274341 0.04234,0.394757 -0.03038,0.687917 -0.119286,0.480876 -0.328664,0.778588 -1.070928,1.522745 -0.705528,0.707327 -0.863706,0.962076 -0.863706,1.391025 0,0.334262 0.09913,0.588343 0.309962,0.794432 0.645726,0.631218 1.139882,0.713884 2.732746,0.457153 z"
       id="path1226" />
  </g>
</svg>
