<?xml version="1.0" encoding="UTF-8" standalone="no"?>
<svg
   xmlns:dc="http://purl.org/dc/elements/1.1/"
   xmlns:cc="http://creativecommons.org/ns#"
   xmlns:rdf="http://www.w3.org/1999/02/22-rdf-syntax-ns#"
   xmlns:svg="http://www.w3.org/2000/svg"
   xmlns="http://www.w3.org/2000/svg"
   xmlns:sodipodi="http://sodipodi.sourceforge.net/DTD/sodipodi-0.dtd"
   xmlns:inkscape="http://www.inkscape.org/namespaces/inkscape"
   width="13.229167mm"
   height="13.229167mm"
   viewBox="0 0 13.229169 13.229168"
   version="1.1"
   id="svg8"
   sodipodi:docname="VCS_resized_350.svg"
   inkscape:version="1.0.2-2 (e86c870879, 2021-01-15)">
  <defs
     id="defs2" />
  <sodipodi:namedview
     id="base"
     pagecolor="#ffffff"
     bordercolor="#666666"
     borderopacity="1.0"
     inkscape:pageopacity="0.0"
     inkscape:pageshadow="2"
     inkscape:zoom="4"
     inkscape:cx="-2.8166236"
     inkscape:cy="16.812143"
     inkscape:document-units="mm"
     inkscape:current-layer="layer1"
     inkscape:document-rotation="0"
     showgrid="false"
     inkscape:window-width="958"
     inkscape:window-height="1008"
     inkscape:window-x="1913"
     inkscape:window-y="0"
     inkscape:window-maximized="0" />
  <metadata
     id="metadata5">
    <rdf:RDF>
      <cc:Work
         rdf:about="">
        <dc:format>image/svg+xml</dc:format>
        <dc:type
           rdf:resource="http://purl.org/dc/dcmitype/StillImage" />
        <dc:title></dc:title>
      </cc:Work>
    </rdf:RDF>
  </metadata>
  <g
     inkscape:label="Ebene 1"
     inkscape:groupmode="layer"
     id="layer1"
     transform="translate(-98.618828,12.871432)">
    <path
       style="fill:#000000;stroke-width:0.264582"
       d="m 104.23036,-0.53891775 c -0.36516,-0.46422455 -0.71174,-1.57326115 -0.76574,-2.45036175 -0.0394,-0.6391422 -0.0739,-0.987744 -0.14587,-1.4705795 -0.046,-0.3084426 -0.0839,-0.4065492 -0.18914,-0.4893458 -0.12832,-0.1009422 -0.50157,-0.2888942 -2.07563,-1.0452152 -0.7277,-0.3496512 -1.557355,-0.8226706 -1.759485,-1.0031582 -0.17003,-0.1518164 -0.11356,-0.262509 0.1923,-0.3769428 0.50761,-0.1899238 0.883305,-0.2629948 2.202185,-0.4283218 1.44847,-0.1815724 2.10061,-0.2930739 2.2009,-0.3763023 0.0754,-0.062589 0.52334,-0.9702038 0.86489,-1.7524914 0.32283,-0.7394135 1.15089,-2.1154175 1.31296,-2.1817815 0.18186,-0.07447 0.50167,0.92437 0.65103,2.033305 0.17155,1.2736521 0.21443,1.5412659 0.32394,2.0214996 l 0.105,0.460458 0.45887,0.2194226 c 0.25237,0.1206828 0.81605,0.3760228 1.25262,0.5674218 1.23338,0.5407432 2.4077,1.1934762 2.4077,1.33829 0,0.084977 -0.32074,0.2533958 -0.74083,0.3889974 -0.52449,0.169303 -0.78781,0.225246 -1.64042,0.3485074 -0.99516,0.143872 -1.99658,0.3704232 -2.1416,0.4844946 -0.11657,0.091698 -0.41049,0.7675873 -0.69504,1.5982975 -0.17912,0.5229188 -0.72031,1.3661284 -1.18448,1.84550575 -0.2188,0.2259706 -0.42577,0.4108556 -0.45993,0.4108556 -0.0341,0 -0.11256,-0.06415 -0.17423,-0.142555 z m 0.57237,-0.57549355 c 0.39507,-0.4311496 0.85786,-1.1916166 1.04437,-1.7161182 0.21213,-0.596555 0.49604,-1.2746025 0.61648,-1.4722945 0.0589,-0.096709 0.1696,-0.1999038 0.24595,-0.2293202 0.21825,-0.084085 1.27815,-0.3008852 2.17611,-0.4451202 0.8756,-0.1406408 1.49785,-0.2912676 1.75711,-0.4253394 l 0.15975,-0.082609 -0.17791,-0.1489566 c -0.18336,-0.153525 -1.13902,-0.6350192 -1.97707,-0.9961156 -0.26194,-0.1128628 -0.74383,-0.3328374 -1.07086,-0.4888314 -0.58692,-0.2799562 -0.59559,-0.2867406 -0.67012,-0.5242904 -0.0415,-0.1323652 -0.0865,-0.3001952 -0.1,-0.3729556 -0.0135,-0.07276 -0.0622,-0.3108855 -0.10831,-0.5291669 -0.0461,-0.2182812 -0.11994,-0.7302854 -0.16409,-1.1377872 -0.10649,-0.9829305 -0.35566,-1.9313795 -0.50741,-1.9313795 -0.0937,0 -0.56798,0.800083 -0.90962,1.534583 -0.68457,1.4717981 -1.0148,2.0860882 -1.15846,2.1549398 -0.13581,0.065095 -1.40727,0.2701194 -2.37551,0.3830526 -1.28657,0.1500632 -1.905005,0.2963676 -1.905005,0.4506738 0,0.035975 0.18455,0.1728516 0.410115,0.3041696 0.45034,0.2621868 0.54892,0.312599 2.13385,1.0911994 0.59881,0.2941674 1.13131,0.5818796 1.18333,0.6393604 0.10909,0.1205446 0.28841,1.3143531 0.29213,1.9449159 0.004,0.6977386 0.34679,1.898468 0.65034,2.27887635 0.0847,0.1060996 0.11933,0.084646 0.45483,-0.28148615 z"
       id="path6521" />
  </g>
</svg>
