<?xml version="1.0" encoding="UTF-8" standalone="no"?>
<svg
   xmlns:dc="http://purl.org/dc/elements/1.1/"
   xmlns:cc="http://creativecommons.org/ns#"
   xmlns:rdf="http://www.w3.org/1999/02/22-rdf-syntax-ns#"
   xmlns:svg="http://www.w3.org/2000/svg"
   xmlns="http://www.w3.org/2000/svg"
   xmlns:sodipodi="http://sodipodi.sourceforge.net/DTD/sodipodi-0.dtd"
   xmlns:inkscape="http://www.inkscape.org/namespaces/inkscape"
   width="13.229167mm"
   height="13.229167mm"
   viewBox="0 0 13.229167 13.229167"
   version="1.1"
   id="svg8"
   sodipodi:docname="VCS_resized_47.svg"
   inkscape:version="1.0.2-2 (e86c870879, 2021-01-15)">
  <defs
     id="defs2" />
  <sodipodi:namedview
     id="base"
     pagecolor="#ffffff"
     bordercolor="#666666"
     borderopacity="1.0"
     inkscape:pageopacity="0.0"
     inkscape:pageshadow="2"
     inkscape:zoom="2.8284271"
     inkscape:cx="19.81873"
     inkscape:cy="71.917929"
     inkscape:document-units="mm"
     inkscape:current-layer="layer1"
     inkscape:document-rotation="0"
     showgrid="false"
     inkscape:window-width="958"
     inkscape:window-height="1008"
     inkscape:window-x="1913"
     inkscape:window-y="0"
     inkscape:window-maximized="0" />
  <metadata
     id="metadata5">
    <rdf:RDF>
      <cc:Work
         rdf:about="">
        <dc:format>image/svg+xml</dc:format>
        <dc:type
           rdf:resource="http://purl.org/dc/dcmitype/StillImage" />
        <dc:title></dc:title>
      </cc:Work>
    </rdf:RDF>
  </metadata>
  <g
     inkscape:label="Ebene 1"
     inkscape:groupmode="layer"
     id="layer1"
     transform="translate(-32.95628,-7.5633273)">
    <path
       style="fill:#000000;stroke-width:0.264582"
       d="m 36.383207,19.10645 c -0.456532,-0.07623 -0.68542,-0.182544 -0.887664,-0.412306 -0.289168,-0.328512 -0.406844,-0.717636 -0.33483,-1.107198 0.08689,-0.470028 0.299416,-0.830118 0.835058,-1.414862 0.340742,-0.37198 0.558462,-0.665238 0.687056,-0.92543 0.177084,-0.358306 0.186944,-0.405478 0.166286,-0.795526 -0.03391,-0.64029 -0.138894,-0.808076 -1.11938,-1.789076 -1.007642,-1.00817 -1.173674,-1.278712 -1.169958,-1.90639 0.0036,-0.611712 0.273862,-0.9569917 0.853778,-1.0908527 0.585126,-0.135063 1.175348,0.120452 2.072154,0.8970667 0.647716,0.560906 0.860656,0.706314 1.241046,0.847448 0.517558,0.192028 0.984884,0.134994 1.4577,-0.177902 0.117288,-0.07762 0.411186,-0.371196 0.653108,-0.652398 0.617248,-0.7174687 0.918122,-0.9899917 1.307708,-1.1844847 0.279152,-0.139362 0.399096,-0.168584 0.687916,-0.167603 0.394278,0.0013 0.608516,0.08921 0.814584,0.33411 0.23329,0.277249 0.319102,0.5874457 0.292004,1.0555457 -0.03205,0.553618 -0.16917,0.824996 -0.805558,1.594278 -0.276878,0.334698 -0.581576,0.76222 -0.677108,0.950052 -0.15652,0.307746 -0.173594,0.386216 -0.172708,0.79375 0.0014,0.664604 0.174696,0.938498 1.098096,1.736002 0.91179,0.787476 1.138818,1.102956 1.18857,1.651646 0.05696,0.628166 -0.101166,0.91576 -0.644958,1.173018 -0.56608,0.267804 -1.20727,0.18492 -1.960192,-0.253388 -0.971706,-0.565672 -1.671366,-0.76496 -2.313378,-0.658934 -0.447952,0.07398 -0.96451,0.328852 -1.39079,0.686226 -0.853388,0.715444 -1.30678,0.91268 -1.87854,0.817208 z m 0.820208,-0.384874 c 0.116416,-0.05047 0.465556,-0.295004 0.775868,-0.543402 0.31031,-0.248398 0.69131,-0.51333 0.846666,-0.588738 0.888532,-0.431282 1.703738,-0.371218 2.796008,0.206008 1.172532,0.619644 1.357086,0.672998 1.922172,0.555688 0.685908,-0.142394 0.951956,-0.707772 0.644168,-1.368924 -0.09074,-0.194922 -0.265096,-0.407688 -0.563726,-0.687918 -1.444404,-1.355408 -1.58239,-1.543862 -1.621322,-2.214274 -0.03941,-0.67864 0.177564,-1.133782 1.019174,-2.13791 0.53946,-0.64363 0.636826,-0.862864 0.636826,-1.433918 0,-0.497712 -0.05634,-0.6307107 -0.36453,-0.8605067 -0.223026,-0.166296 -0.82966,-0.15538 -1.117138,0.0201 -0.342736,0.209214 -0.568124,0.4218287 -1.027252,0.9690327 -0.781184,0.931042 -1.344484,1.241696 -2.071298,1.142298 -0.486674,-0.06656 -0.906726,-0.28451 -1.471656,-0.763602 -0.82665,-0.701046 -0.921534,-0.771254 -1.257296,-0.930322 -0.62745,-0.2972537 -1.218724,-0.1746797 -1.448666,0.300314 -0.09269,0.19148 -0.10966,0.291638 -0.08136,0.480328 0.06848,0.456636 0.324012,0.82416 1.151942,1.65679 0.685108,0.688996 0.803556,0.834402 0.97896,1.20177 0.17993,0.376848 0.198818,0.45695 0.192128,0.81481 -0.0091,0.486202 -0.19565,0.929848 -0.583154,1.38675 -0.140852,0.166076 -0.391982,0.46116 -0.558068,0.65574 -0.402696,0.471784 -0.536824,0.759014 -0.54121,1.158968 -0.0047,0.428002 0.04092,0.562506 0.264396,0.779564 0.137116,0.13318 0.273246,0.202826 0.490148,0.250766 0.165168,0.03651 0.32412,0.07367 0.353224,0.08258 0.09495,0.02908 0.418712,-0.03822 0.635,-0.131994 z"
       id="path762" />
  </g>
</svg>
