<?xml version="1.0" encoding="UTF-8" standalone="no"?>
<svg
   xmlns:dc="http://purl.org/dc/elements/1.1/"
   xmlns:cc="http://creativecommons.org/ns#"
   xmlns:rdf="http://www.w3.org/1999/02/22-rdf-syntax-ns#"
   xmlns:svg="http://www.w3.org/2000/svg"
   xmlns="http://www.w3.org/2000/svg"
   xmlns:sodipodi="http://sodipodi.sourceforge.net/DTD/sodipodi-0.dtd"
   xmlns:inkscape="http://www.inkscape.org/namespaces/inkscape"
   width="13.229167mm"
   height="13.229167mm"
   viewBox="0 0 13.229169 13.229168"
   version="1.1"
   id="svg8"
   sodipodi:docname="VCS_resized_325.svg"
   inkscape:version="1.0.2-2 (e86c870879, 2021-01-15)">
  <defs
     id="defs2" />
  <sodipodi:namedview
     id="base"
     pagecolor="#ffffff"
     bordercolor="#666666"
     borderopacity="1.0"
     inkscape:pageopacity="0.0"
     inkscape:pageshadow="2"
     inkscape:zoom="4"
     inkscape:cx="28.299391"
     inkscape:cy="23.528602"
     inkscape:document-units="mm"
     inkscape:current-layer="layer1"
     inkscape:document-rotation="0"
     showgrid="false"
     inkscape:window-width="958"
     inkscape:window-height="1008"
     inkscape:window-x="1913"
     inkscape:window-y="0"
     inkscape:window-maximized="0" />
  <metadata
     id="metadata5">
    <rdf:RDF>
      <cc:Work
         rdf:about="">
        <dc:format>image/svg+xml</dc:format>
        <dc:type
           rdf:resource="http://purl.org/dc/dcmitype/StillImage" />
        <dc:title></dc:title>
      </cc:Work>
    </rdf:RDF>
  </metadata>
  <g
     inkscape:label="Ebene 1"
     inkscape:groupmode="layer"
     id="layer1"
     transform="translate(-90.386047,14.648496)">
    <path
       style="fill:#000000;stroke-width:0.264582"
       d="m 96.668933,-2.0865869 c -0.101832,-0.051917 -0.370842,-0.2364672 -0.597802,-0.4101132 -0.22696,-0.1736454 -0.488432,-0.366141 -0.58105,-0.4277672 -0.273074,-0.1817 -0.308268,-0.2577884 -0.382628,-0.8272304 -0.160886,-1.2320662 -0.342046,-2.3915861 -0.379222,-2.4272275 -0.02183,-0.020927 -0.789782,-0.4356852 -1.706564,-0.9216856 -2.487354,-1.3185854 -2.5495,-1.3594986 -2.282272,-1.5025148 0.05444,-0.029135 1.079198,-0.2944706 2.277244,-0.5896362 l 2.178266,-0.5366645 0.09779,-0.1927462 c 0.05378,-0.1060105 0.233106,-0.5261215 0.398498,-0.9335805 0.588742,-1.450429 1.26158,-2.996924 1.352998,-3.109823 0.177802,-0.219576 0.22579,-0.124861 0.932126,1.839824 0.665116,1.850024 0.876542,2.4033335 0.93718,2.4526307 0.03371,0.027408 0.632797,0.2181118 1.331293,0.4237879 1.22011,0.3592656 2.99734,0.9257522 3.09638,0.9869614 0.0262,0.01616 0.0351,0.061753 0.0199,0.1013148 -0.0264,0.068927 -1.10407,0.623233 -2.50778,1.2899508 -0.3638,0.1727946 -0.892042,0.4249598 -1.173874,0.5603678 l -0.512418,0.2461954 -0.05385,0.276687 c -0.143412,0.7371649 -0.271793,1.4345341 -0.348011,1.8906451 -0.12722,0.761327 -0.144744,0.7958614 -0.561592,1.1068082 -0.39413,0.2939986 -1.070694,0.709731 -1.245108,0.7650876 -0.05835,0.01852 -0.185988,-0.0085 -0.289506,-0.061272 z m 0.662364,-0.4440242 c 0.498632,-0.294911 0.911852,-0.6023056 1.00325,-0.7463178 0.04104,-0.064666 0.17254,-0.6362778 0.292218,-1.2702496 0.11968,-0.6339714 0.243546,-1.2736629 0.275258,-1.4215363 l 0.05766,-0.2688612 1.092347,-0.5292772 c 0.60079,-0.291102 1.42572,-0.6902186 1.83318,-0.8869252 0.40746,-0.1967066 0.78846,-0.3945768 0.84667,-0.439712 0.10356,-0.080303 0.10242,-0.083384 -0.0529,-0.1435064 -0.18264,-0.070687 -1.33611,-0.4270418 -2.30188,-0.7111428 -1.626836,-0.4785694 -1.671754,-0.4952435 -1.740484,-0.6460867 -0.06307,-0.1384242 -0.131012,-0.324385 -0.900098,-2.4635857 -0.494568,-1.375634 -0.537296,-1.478093 -0.606766,-1.454936 -0.0592,0.01973 -0.52774,1.088293 -1.255856,2.86411 -0.213772,0.521371 -0.42505,0.9922817 -0.469508,1.0464689 -0.05587,0.068095 -0.374988,0.1705421 -1.033332,0.3317293 -3.356022,0.8216822 -3.229588,0.7869846 -3.177112,0.8718948 0.03133,0.050691 1.00073,0.580499 2.330446,1.2736628 1.16512,0.6073612 1.439682,0.7772332 1.47305,0.9113764 0.01646,0.066139 0.103238,0.6441282 0.192856,1.2844197 0.08962,0.6402916 0.180078,1.2694332 0.20102,1.3980922 0.03434,0.2110016 0.07437,0.2618106 0.40849,0.5184786 0.507384,0.3897698 0.98899,0.7028042 1.081274,0.7028042 0.04221,0 0.24481,-0.099405 0.450232,-0.2209 z"
       id="path6119" />
  </g>
</svg>
