<?xml version="1.0" encoding="UTF-8" standalone="no"?>
<svg
   xmlns:dc="http://purl.org/dc/elements/1.1/"
   xmlns:cc="http://creativecommons.org/ns#"
   xmlns:rdf="http://www.w3.org/1999/02/22-rdf-syntax-ns#"
   xmlns:svg="http://www.w3.org/2000/svg"
   xmlns="http://www.w3.org/2000/svg"
   xmlns:sodipodi="http://sodipodi.sourceforge.net/DTD/sodipodi-0.dtd"
   xmlns:inkscape="http://www.inkscape.org/namespaces/inkscape"
   width="13.229167mm"
   height="13.229167mm"
   viewBox="0 0 13.229169 13.229168"
   version="1.1"
   id="svg8"
   sodipodi:docname="VCS_resized_141.svg"
   inkscape:version="1.0.2-2 (e86c870879, 2021-01-15)">
  <defs
     id="defs2" />
  <sodipodi:namedview
     id="base"
     pagecolor="#ffffff"
     bordercolor="#666666"
     borderopacity="1.0"
     inkscape:pageopacity="0.0"
     inkscape:pageshadow="2"
     inkscape:zoom="2.8284271"
     inkscape:cx="-1.2708492"
     inkscape:cy="18.477099"
     inkscape:document-units="mm"
     inkscape:current-layer="layer1"
     inkscape:document-rotation="0"
     showgrid="false"
     inkscape:window-width="958"
     inkscape:window-height="1008"
     inkscape:window-x="1913"
     inkscape:window-y="0"
     inkscape:window-maximized="0" />
  <metadata
     id="metadata5">
    <rdf:RDF>
      <cc:Work
         rdf:about="">
        <dc:format>image/svg+xml</dc:format>
        <dc:type
           rdf:resource="http://purl.org/dc/dcmitype/StillImage" />
        <dc:title></dc:title>
      </cc:Work>
    </rdf:RDF>
  </metadata>
  <g
     inkscape:label="Ebene 1"
     inkscape:groupmode="layer"
     id="layer1"
     transform="translate(-38.536228,-21.702879)">
    <path
       style="fill:#000000;stroke-width:0.264582"
       d="m 43.386536,34.44992 c -0.232834,-0.04022 -0.559186,-0.08937 -0.72523,-0.109235 -0.362238,-0.04333 -0.358862,-0.04003 -0.970642,-0.947569 -0.255052,-0.378354 -0.698432,-1.01327 -0.985288,-1.410923 -0.583734,-0.809201 -0.816784,-1.257831 -0.892002,-1.717137 -0.111266,-0.679428 -0.02104,-1.058362 0.37149,-1.560119 0.786986,-1.005987 0.870612,-1.153047 0.955526,-1.680318 0.07833,-0.486401 -0.109272,-1.041043 -0.66495,-1.965878 -0.26131,-0.434905 -0.356864,-0.825035 -0.33487,-1.367208 0.01422,-0.350411 0.04859,-0.519495 0.14592,-0.717651 0.2618,-0.533028 0.66155,-0.8353 1.11262,-0.841305 0.194704,-0.0026 0.363534,0.05932 0.876176,0.321331 0.778876,0.398077 1.705346,0.778558 2.152432,0.883958 0.417012,0.09831 1.397546,0.101406 1.78986,0.0057 0.596456,-0.14558 1.068004,-0.349917 1.57187,-0.681141 0.702244,-0.46163 0.849534,-0.53157 1.12688,-0.535085 0.45052,-0.0057 0.865828,0.300142 1.105398,0.814072 0.11857,0.25436 0.136138,0.362964 0.137072,0.847377 0.001,0.54916 -0.0016,0.560859 -0.224414,1.005417 -0.124016,0.247385 -0.331712,0.640292 -0.461544,0.873125 -0.307924,0.552211 -0.379266,0.865654 -0.302486,1.329004 0.07343,0.443125 0.249006,0.80451 0.58836,1.210996 0.374478,0.448559 0.677422,0.962191 0.743658,1.26085 0.0828,0.373344 -0.01168,1.030254 -0.208748,1.451372 -0.08673,0.185339 -0.297484,0.531971 -0.468342,0.770295 -0.170858,0.238324 -0.600578,0.863971 -0.954934,1.390326 -0.354354,0.526355 -0.68875,1.00474 -0.7431,1.063077 -0.06782,0.0728 -0.22928,0.127068 -0.514764,0.173022 -0.228772,0.03683 -0.499292,0.09029 -0.601156,0.118815 -0.31423,0.08799 -3.13455,0.09957 -3.624792,0.01488 z m 3.92583,-0.327442 c 0.267436,-0.05637 0.521614,-0.131848 0.564838,-0.167722 0.04322,-0.03587 0.331678,-0.438855 0.641006,-0.895515 0.30933,-0.456661 0.728984,-1.068417 0.932564,-1.359459 0.20358,-0.291041 0.458316,-0.706525 0.56608,-0.923297 0.17782,-0.357698 0.195794,-0.433516 0.194442,-0.820208 -0.0018,-0.540333 -0.129272,-0.830998 -0.690922,-1.576596 -0.581732,-0.772256 -0.62915,-0.893259 -0.627442,-1.601149 0.0014,-0.569229 0.0061,-0.592015 0.215128,-1.031875 0.11755,-0.247385 0.32073,-0.616479 0.451514,-0.820208 0.271898,-0.423555 0.362664,-0.725467 0.361008,-1.200828 -0.0024,-0.691939 -0.450538,-1.259797 -0.994178,-1.259797 -0.213794,0 -0.50077,0.132429 -1.200702,0.554078 -0.772386,0.465299 -1.490104,0.663497 -2.397938,0.662193 -0.856492,-0.0012 -1.253436,-0.117815 -2.967406,-0.871538 -0.903974,-0.397526 -1.08154,-0.422319 -1.426774,-0.199212 -0.164218,0.106124 -0.268832,0.234036 -0.386416,0.472475 -0.149516,0.30319 -0.159882,0.360883 -0.1426,0.79375 0.01378,0.345134 0.04765,0.521962 0.129944,0.678462 0.06122,0.116417 0.248772,0.4701 0.41678,0.785963 0.499362,0.938815 0.616142,1.611923 0.380338,2.192238 -0.0679,0.167093 -0.318264,0.565479 -0.556374,0.885302 -0.61323,0.823676 -0.669554,0.95272 -0.669554,1.533997 0,0.460995 0.0074,0.489894 0.229418,0.902171 0.12618,0.234256 0.383518,0.639068 0.571862,0.899583 0.188346,0.260515 0.614688,0.86988 0.947428,1.354145 0.332742,0.484264 0.646902,0.898327 0.698138,0.920139 0.05123,0.02181 0.343186,0.08205 0.64878,0.133866 0.8029,0.136134 3.393358,0.110325 4.111038,-0.04096 z"
       id="path2298" />
  </g>
</svg>
