<?xml version="1.0" encoding="UTF-8" standalone="no"?>
<svg
   xmlns:dc="http://purl.org/dc/elements/1.1/"
   xmlns:cc="http://creativecommons.org/ns#"
   xmlns:rdf="http://www.w3.org/1999/02/22-rdf-syntax-ns#"
   xmlns:svg="http://www.w3.org/2000/svg"
   xmlns="http://www.w3.org/2000/svg"
   xmlns:sodipodi="http://sodipodi.sourceforge.net/DTD/sodipodi-0.dtd"
   xmlns:inkscape="http://www.inkscape.org/namespaces/inkscape"
   width="13.229167mm"
   height="13.229167mm"
   viewBox="0 0 13.229169 13.229168"
   version="1.1"
   id="svg8"
   sodipodi:docname="VCS_resized_188.svg"
   inkscape:version="1.0.2-2 (e86c870879, 2021-01-15)">
  <defs
     id="defs2" />
  <sodipodi:namedview
     id="base"
     pagecolor="#ffffff"
     bordercolor="#666666"
     borderopacity="1.0"
     inkscape:pageopacity="0.0"
     inkscape:pageshadow="2"
     inkscape:zoom="2.8284271"
     inkscape:cx="0.5558712"
     inkscape:cy="46.425003"
     inkscape:document-units="mm"
     inkscape:current-layer="layer1"
     inkscape:document-rotation="0"
     showgrid="false"
     inkscape:window-width="958"
     inkscape:window-height="1008"
     inkscape:window-x="1913"
     inkscape:window-y="0"
     inkscape:window-maximized="0" />
  <metadata
     id="metadata5">
    <rdf:RDF>
      <cc:Work
         rdf:about="">
        <dc:format>image/svg+xml</dc:format>
        <dc:type
           rdf:resource="http://purl.org/dc/dcmitype/StillImage" />
        <dc:title></dc:title>
      </cc:Work>
    </rdf:RDF>
  </metadata>
  <g
     inkscape:label="Ebene 1"
     inkscape:groupmode="layer"
     id="layer1"
     transform="translate(-48.416286,-18.397219)">
    <path
       style="fill:#000000;stroke-width:0.264582"
       d="m 52.091172,31.034997 -0.476252,-0.02646 -0.64804,-1.243542 c -0.976738,-1.874285 -1.159962,-2.266886 -1.252022,-2.682738 -0.117988,-0.532986 -0.107502,-1.218094 0.02657,-1.735803 0.0603,-0.232834 0.121072,-0.673365 0.135058,-0.978959 0.02711,-0.592315 -0.014,-0.798099 -0.319638,-1.600341 -0.07477,-0.19624 -0.164234,-0.569322 -0.198816,-0.82907 -0.07562,-0.567981 -0.06104,-0.599879 0.47037,-1.028967 0.84529,-0.68253 1.27274,-0.864045 3.268188,-1.387828 0.523874,-0.137512 1.15342,-0.317808 1.398988,-0.400657 0.24557,-0.08285 0.520528,-0.150637 0.611022,-0.150637 0.169564,0 1.074166,0.290013 1.773532,0.56859 0.249912,0.09955 0.592636,0.182312 0.925536,0.223509 0.290762,0.03598 0.664958,0.107844 0.831546,0.159692 0.568268,0.176864 1.738874,0.955856 1.986772,1.322116 0.198422,0.293163 0.13449,0.86923 -0.18516,1.668385 -0.168674,0.421699 -0.193194,0.543504 -0.214066,1.063404 -0.02028,0.505227 -0.0037,0.671359 0.118544,1.190625 0.30082,1.277379 0.164464,1.925881 -0.773558,3.678972 -0.2473,0.462183 -0.586974,1.119237 -0.754834,1.46012 -0.16786,0.340883 -0.333174,0.643005 -0.367366,0.671381 -0.06649,0.05518 -5.513036,0.105058 -6.356372,0.05821 z m 6.032498,-0.258122 c 0.137914,-0.02948 0.193576,-0.103323 0.424072,-0.562594 0.145926,-0.290762 0.496866,-0.97272 0.779866,-1.515461 0.727966,-1.396105 0.84755,-1.73375 0.849948,-2.399864 0.0014,-0.388486 -0.03695,-0.705018 -0.144232,-1.190625 -0.20648,-0.934595 -0.151044,-1.538511 0.229418,-2.499235 0.08713,-0.220008 0.16834,-0.550183 0.189692,-0.771185 l 0.03734,-0.386461 -0.217864,-0.207249 c -0.44361,-0.421996 -1.461732,-1.0218 -1.840798,-1.084464 -0.765412,-0.126533 -1.370306,-0.272833 -1.784728,-0.431656 -0.608082,-0.233041 -1.194972,-0.426155 -1.418506,-0.466754 -0.121834,-0.02213 -0.385726,0.03283 -0.887744,0.18489 -0.392906,0.119009 -1.035844,0.299762 -1.42875,0.401675 -1.032614,0.267843 -1.50664,0.426955 -1.977044,0.663619 -0.416376,0.209481 -1.101578,0.683736 -1.250874,0.865779 -0.130186,0.158741 -0.08306,0.697895 0.107676,1.231933 0.40841,1.143484 0.47547,1.68225 0.306664,2.463748 -0.152598,0.70646 -0.206806,1.376168 -0.144114,1.780436 0.06392,0.41219 0.303664,0.981074 0.75871,1.80034 0.185902,0.334698 0.506036,0.945998 0.711412,1.358444 0.23142,0.464752 0.409176,0.759211 0.467468,0.774383 0.14547,0.03786 6.052912,0.02867 6.232392,-0.0097 z"
       id="path3891" />
  </g>
</svg>
