<?xml version="1.0" encoding="UTF-8" standalone="no"?>
<svg
   xmlns:dc="http://purl.org/dc/elements/1.1/"
   xmlns:cc="http://creativecommons.org/ns#"
   xmlns:rdf="http://www.w3.org/1999/02/22-rdf-syntax-ns#"
   xmlns:svg="http://www.w3.org/2000/svg"
   xmlns="http://www.w3.org/2000/svg"
   xmlns:sodipodi="http://sodipodi.sourceforge.net/DTD/sodipodi-0.dtd"
   xmlns:inkscape="http://www.inkscape.org/namespaces/inkscape"
   width="13.229167mm"
   height="13.229167mm"
   viewBox="0 0 13.229167 13.229167"
   version="1.1"
   id="svg8"
   sodipodi:docname="VCS_resized_39.svg"
   inkscape:version="1.0.2-2 (e86c870879, 2021-01-15)">
  <defs
     id="defs2" />
  <sodipodi:namedview
     id="base"
     pagecolor="#ffffff"
     bordercolor="#666666"
     borderopacity="1.0"
     inkscape:pageopacity="0.0"
     inkscape:pageshadow="2"
     inkscape:zoom="2.8284271"
     inkscape:cx="-10.961214"
     inkscape:cy="50.227529"
     inkscape:document-units="mm"
     inkscape:current-layer="layer1"
     inkscape:document-rotation="0"
     showgrid="false"
     inkscape:window-width="958"
     inkscape:window-height="1008"
     inkscape:window-x="1913"
     inkscape:window-y="0"
     inkscape:window-maximized="0" />
  <metadata
     id="metadata5">
    <rdf:RDF>
      <cc:Work
         rdf:about="">
        <dc:format>image/svg+xml</dc:format>
        <dc:type
           rdf:resource="http://purl.org/dc/dcmitype/StillImage" />
        <dc:title></dc:title>
      </cc:Work>
    </rdf:RDF>
  </metadata>
  <g
     inkscape:label="Ebene 1"
     inkscape:groupmode="layer"
     id="layer1"
     transform="translate(-41.10014,-13.302245)">
    <path
       style="fill:#000000;stroke-width:0.264582"
       d="m 44.258107,24.743514 c -0.180936,-0.09124 -0.272862,-0.187072 -0.393388,-0.410104 -0.136144,-0.251929 -0.156794,-0.344377 -0.153658,-0.687917 0.0046,-0.500244 0.17128,-0.88314 0.678788,-1.55901 0.55571,-0.740062 0.800058,-1.327452 0.732346,-1.76049 -0.08802,-0.56289 -0.383912,-0.958482 -1.262228,-1.687513 -0.927132,-0.76955 -1.268608,-1.300241 -1.229818,-1.91127 0.02517,-0.396556 0.136206,-0.572317 0.469002,-0.742425 0.200602,-0.102537 0.300788,-0.11764 0.685638,-0.103354 0.552846,0.02052 0.929998,0.180786 1.688166,0.717358 0.852074,0.603032 1.160086,0.738384 1.727942,0.759321 0.59222,0.02183 0.922674,-0.214747 1.791504,-1.28259 0.625346,-0.768592 1.089516,-1.069216 1.697098,-1.099143 0.31891,-0.01571 0.396168,-9.6e-4 0.555624,0.10603 0.350682,0.235309 0.543032,0.881027 0.428142,1.437273 -0.08546,0.413774 -0.23113,0.694647 -0.66307,1.278522 -0.476644,0.644304 -0.673686,1.066411 -0.705522,1.511391 -0.04593,0.641858 0.166732,1.009684 0.946882,1.63779 1.215024,0.978228 1.542706,1.414734 1.550476,2.06539 0.0052,0.43149 -0.08379,0.581124 -0.45984,0.773636 -0.212536,0.108806 -0.376846,0.147248 -0.707226,0.16547 -0.521964,0.02879 -0.74365,-0.03605 -1.616224,-0.472734 -0.64386,-0.32222 -1.03123,-0.44967 -1.528942,-0.503042 -0.575672,-0.06173 -1.20991,0.243214 -1.855034,0.891908 -0.782024,0.786353 -1.162498,0.994565 -1.817408,0.994565 -0.229874,0 -0.39129,-0.03436 -0.55925,-0.119062 z m 1.336056,-0.321266 c 0.12485,-0.07444 0.45322,-0.353847 0.72971,-0.620897 0.589512,-0.569386 0.844962,-0.754754 1.318688,-0.95691 0.642826,-0.274318 1.312346,-0.158288 2.570686,0.445502 0.712014,0.341648 0.832052,0.382822 1.165688,0.39986 0.474478,0.02423 0.79692,-0.06273 0.986968,-0.266178 0.123124,-0.131806 0.14922,-0.206738 0.14922,-0.428478 0,-0.496876 -0.346974,-0.98868 -1.094394,-1.551204 -0.5751,-0.432834 -1.085118,-0.963884 -1.250658,-1.30224 -0.322318,-0.658792 -0.118184,-1.467089 0.62526,-2.475793 0.62741,-0.851269 0.782788,-1.372603 0.574002,-1.925945 -0.134238,-0.355771 -0.314724,-0.480143 -0.695764,-0.479452 -0.540182,9.8e-4 -1.00025,0.330156 -1.62895,1.165502 -0.391482,0.520159 -0.82528,0.906969 -1.229916,1.096697 -0.30234,0.141761 -0.36801,0.153578 -0.67738,0.121882 -0.594672,-0.06093 -1.05326,-0.28135 -2.098686,-1.008753 -0.705914,-0.491173 -1.281774,-0.622063 -1.767192,-0.401677 -0.289184,0.131293 -0.410116,0.356929 -0.370514,0.691301 0.05441,0.459421 0.352622,0.849006 1.206118,1.575678 1.556496,1.325212 1.673252,2.106462 0.54879,3.672098 -0.624286,0.86922 -0.75803,1.238402 -0.637102,1.758618 0.03941,0.169542 0.117964,0.354565 0.174562,0.411161 0.285386,0.285386 0.98843,0.325148 1.400864,0.07923 z"
       id="path634" />
  </g>
</svg>
