<?xml version="1.0" encoding="UTF-8" standalone="no"?>
<svg
   xmlns:dc="http://purl.org/dc/elements/1.1/"
   xmlns:cc="http://creativecommons.org/ns#"
   xmlns:rdf="http://www.w3.org/1999/02/22-rdf-syntax-ns#"
   xmlns:svg="http://www.w3.org/2000/svg"
   xmlns="http://www.w3.org/2000/svg"
   xmlns:sodipodi="http://sodipodi.sourceforge.net/DTD/sodipodi-0.dtd"
   xmlns:inkscape="http://www.inkscape.org/namespaces/inkscape"
   width="13.229167mm"
   height="13.229167mm"
   viewBox="0 0 13.229169 13.229168"
   version="1.1"
   id="svg8"
   sodipodi:docname="VCS_resized_314.svg"
   inkscape:version="1.0.2-2 (e86c870879, 2021-01-15)">
  <defs
     id="defs2" />
  <sodipodi:namedview
     id="base"
     pagecolor="#ffffff"
     bordercolor="#666666"
     borderopacity="1.0"
     inkscape:pageopacity="0.0"
     inkscape:pageshadow="2"
     inkscape:zoom="4"
     inkscape:cx="13.835647"
     inkscape:cy="26.742566"
     inkscape:document-units="mm"
     inkscape:current-layer="layer1"
     inkscape:document-rotation="0"
     showgrid="false"
     inkscape:window-width="958"
     inkscape:window-height="1008"
     inkscape:window-x="1913"
     inkscape:window-y="0"
     inkscape:window-maximized="0" />
  <metadata
     id="metadata5">
    <rdf:RDF>
      <cc:Work
         rdf:about="">
        <dc:format>image/svg+xml</dc:format>
        <dc:type
           rdf:resource="http://purl.org/dc/dcmitype/StillImage" />
        <dc:title></dc:title>
      </cc:Work>
    </rdf:RDF>
  </metadata>
  <g
     inkscape:label="Ebene 1"
     inkscape:groupmode="layer"
     id="layer1"
     transform="translate(-94.212914,15.498857)">
    <path
       style="fill:#000000;stroke-width:0.264582"
       d="m 99.766072,-3.2002295 c -0.71955,-0.2777368 -0.878128,-0.3580008 -0.910438,-0.4608126 -0.03415,-0.1086634 -0.20496,-1.2135416 -0.41784,-2.7027664 -0.04938,-0.3454088 -0.09386,-0.4867836 -0.176738,-0.561639 -0.06091,-0.05502 -0.539378,-0.3578892 -1.063254,-0.6730428 -0.523874,-0.3151542 -1.29778,-0.7860464 -1.719792,-1.0464272 -0.42201,-0.2603806 -0.845842,-0.5207804 -0.94185,-0.5786654 -0.10342,-0.062355 -0.168096,-0.140235 -0.158698,-0.191101 0.0165,-0.089282 0.382792,-0.188866 3.228454,-0.8777171 0.690128,-0.16706 1.277212,-0.331078 1.304628,-0.364483 0.02742,-0.03341 0.185292,-0.382207 0.350836,-0.775113 0.165542,-0.392906 0.467342,-1.107281 0.670666,-1.5875 0.203324,-0.480219 0.454424,-1.075532 0.557994,-1.322917 0.10357,-0.247386 0.21654,-0.480432 0.25104,-0.517882 0.10556,-0.114589 0.22271,-0.01847 0.36134,0.296475 0.17761,0.403517 0.85019,2.002349 1.29519,3.078907 l 0.36092,0.873125 1.29422,0.330187 c 0.71182,0.181603 1.4371,0.3677271 1.61172,0.4136095 0.17463,0.045882 0.41275,0.1065842 0.52917,0.1348936 0.56496,0.1373832 1.08479,0.3213016 1.08479,0.383803 0,0.037657 -0.4822,0.3605684 -1.07156,0.7175822 -0.58936,0.3570134 -1.1311,0.689499 -1.20386,0.7388564 -0.0728,0.049357 -0.47191,0.2912264 -0.88701,0.5374878 -0.67714,0.4017186 -0.76008,0.466787 -0.80681,0.6329558 -0.0453,0.1610852 -0.32224,1.8596716 -0.40117,2.460625 -0.0153,0.1164168 -0.0534,0.333918 -0.0847,0.4833362 l -0.0569,0.2716698 -0.48243,0.1904652 c -0.78575,0.3102138 -1.2562,0.4569612 -1.45743,0.4546124 -0.10405,-0.00122 -0.58127,-0.1535504 -1.060488,-0.3385244 z m 1.735088,-0.1161278 c 0.73484,-0.2510868 1.01139,-0.371739 1.0419,-0.4545536 0.0137,-0.03715 0.14282,-0.7797434 0.28697,-1.6502088 0.15281,-0.9227498 0.2909,-1.6087832 0.33118,-1.6453052 0.038,-0.034452 0.55725,-0.3560498 1.15389,-0.7146612 2.09695,-1.2603866 2.45382,-1.4925756 2.36795,-1.5406312 -0.0894,-0.050035 -0.94472,-0.2760626 -2.78637,-0.7363347 -0.68125,-0.170259 -1.27196,-0.342888 -1.31269,-0.383621 -0.0666,-0.06661 -0.31424,-0.645065 -1.20548,-2.815949 -0.45456,-1.107207 -0.50395,-1.211071 -0.55142,-1.159662 -0.0479,0.05189 -0.29363,0.618115 -0.962522,2.217995 -0.231194,0.552979 -0.499072,1.184011 -0.595284,1.402292 l -0.17493,0.396875 -0.57786,0.14632 c -0.317822,0.08048 -1.244608,0.3077665 -2.059526,0.5050889 -0.99872,0.2418288 -1.481666,0.3812446 -1.481666,0.4277244 0,0.037926 0.583406,0.4236064 1.296458,0.857067 2.396872,1.4570444 2.271864,1.3720698 2.325532,1.5808118 0.02646,0.102935 0.07549,0.3776546 0.10894,0.610488 0.05818,0.4049426 0.292904,1.9833378 0.347938,2.3397062 0.01446,0.093568 0.05512,0.1882266 0.09037,0.2103538 0.116664,0.073226 1.5968,0.5931348 1.69629,0.5958336 0.0537,0.00146 0.35083,-0.083877 0.66033,-0.189629 z"
       id="path5941" />
  </g>
</svg>
