<?xml version="1.0" encoding="UTF-8" standalone="no"?>
<svg
   xmlns:dc="http://purl.org/dc/elements/1.1/"
   xmlns:cc="http://creativecommons.org/ns#"
   xmlns:rdf="http://www.w3.org/1999/02/22-rdf-syntax-ns#"
   xmlns:svg="http://www.w3.org/2000/svg"
   xmlns="http://www.w3.org/2000/svg"
   xmlns:sodipodi="http://sodipodi.sourceforge.net/DTD/sodipodi-0.dtd"
   xmlns:inkscape="http://www.inkscape.org/namespaces/inkscape"
   width="13.229167mm"
   height="13.229167mm"
   viewBox="0 0 13.229167 13.229167"
   version="1.1"
   id="svg8"
   sodipodi:docname="VCS_resized_99.svg"
   inkscape:version="1.0.2-2 (e86c870879, 2021-01-15)">
  <defs
     id="defs2" />
  <sodipodi:namedview
     id="base"
     pagecolor="#ffffff"
     bordercolor="#666666"
     borderopacity="1.0"
     inkscape:pageopacity="0.0"
     inkscape:pageshadow="2"
     inkscape:zoom="2.8284271"
     inkscape:cx="-1.0043843"
     inkscape:cy="48.848701"
     inkscape:document-units="mm"
     inkscape:current-layer="layer1"
     inkscape:document-rotation="0"
     showgrid="false"
     inkscape:window-width="958"
     inkscape:window-height="1008"
     inkscape:window-x="1913"
     inkscape:window-y="0"
     inkscape:window-maximized="0" />
  <metadata
     id="metadata5">
    <rdf:RDF>
      <cc:Work
         rdf:about="">
        <dc:format>image/svg+xml</dc:format>
        <dc:type
           rdf:resource="http://purl.org/dc/dcmitype/StillImage" />
        <dc:title></dc:title>
      </cc:Work>
    </rdf:RDF>
  </metadata>
  <g
     inkscape:label="Ebene 1"
     inkscape:groupmode="layer"
     id="layer1"
     transform="translate(-38.465729,-13.667061)">
    <path
       style="fill:#000000;stroke-width:0.264582"
       d="m 43.969081,26.238463 c -1.162374,-0.207974 -1.476464,-0.306408 -2.143126,-0.671647 -0.89584,-0.490796 -1.326854,-0.892404 -1.61715,-1.506817 -0.136722,-0.28937 -0.16268,-0.401106 -0.144398,-0.621556 0.03512,-0.423463 0.20385,-0.690057 0.903294,-1.42719 0.919862,-0.969429 1.150126,-1.33938 1.148668,-1.845507 -0.0018,-0.604493 -0.298804,-1.180075 -1.10767,-2.146176 -0.890198,-1.063243 -1.114094,-2.082043 -0.660912,-3.007355 0.163122,-0.333062 0.224988,-0.405501 0.462814,-0.541899 0.307214,-0.176194 0.657278,-0.206104 0.99596,-0.0851 0.322238,0.115133 0.81937,0.550847 1.370238,1.200954 0.650682,0.767903 0.934846,1.020578 1.30242,1.158106 0.351584,0.131544 0.855406,0.140742 1.203956,0.02198 0.313312,-0.106756 0.735112,-0.491195 1.357116,-1.236909 0.726932,-0.871511 1.088502,-1.14742 1.569544,-1.197699 0.270948,-0.02832 0.358422,-0.01471 0.56345,0.08769 0.458702,0.229087 0.700106,0.609925 0.789236,1.245097 0.11509,0.820179 -0.13469,1.480894 -0.936194,2.476416 -0.564354,0.700965 -0.758782,1.017364 -0.923344,1.50259 -0.138946,0.409697 -0.140062,0.550574 -0.0074,0.936126 0.152622,0.443601 0.25616,0.586313 0.828844,1.142427 0.780122,0.757554 0.859252,0.848023 1.008446,1.152963 0.317312,0.648563 0.194292,1.171484 -0.434932,1.848784 -0.400834,0.431459 -1.012338,0.892723 -1.42619,1.075789 -0.130926,0.05792 -0.542038,0.178642 -0.913582,0.268281 -0.6351,0.153227 -0.746798,0.16392 -1.86616,0.178651 -0.654844,0.0086 -1.250156,0.005 -1.322916,-0.008 z m 2.792278,-0.393753 c 0.725064,-0.153225 1.097816,-0.283014 1.51801,-0.528562 0.906852,-0.529934 1.510546,-1.261809 1.510546,-1.83128 0,-0.323048 -0.189896,-0.621295 -0.81237,-1.275903 -0.777868,-0.818021 -0.926794,-1.015125 -1.074534,-1.422146 -0.303754,-0.836831 -0.04816,-1.650697 0.88329,-2.812609 0.672156,-0.838461 0.925426,-1.394063 0.921686,-2.021915 -0.0025,-0.420809 -0.09033,-0.692266 -0.301946,-0.933284 -0.39219,-0.446678 -0.833282,-0.450504 -1.44317,-0.01252 -0.129594,0.09307 -0.491854,0.479062 -0.805022,0.857764 -0.898516,1.086547 -1.255024,1.316917 -2.05106,1.325368 -0.40752,0.0043 -0.518396,-0.01463 -0.768298,-0.131365 -0.364694,-0.170355 -0.828872,-0.596971 -1.40549,-1.291754 -0.62278,-0.750407 -1.113892,-1.080636 -1.610698,-1.083051 -0.661054,-0.0032 -1.09083,0.861201 -0.864684,1.739144 0.105166,0.408272 0.33692,0.815001 0.852194,1.495603 0.563632,0.744474 0.71843,0.995447 0.881954,1.42989 0.200376,0.532349 0.225568,0.914775 0.08757,1.329447 -0.155626,0.467657 -0.323468,0.70519 -1.030638,1.458581 -0.626998,0.66798 -0.877956,1.058349 -0.877956,1.365679 0,0.189829 0.202708,0.689513 0.361724,0.89167 0.305258,0.388073 1.437356,1.1052 2.019526,1.279268 0.76319,0.228193 1.114152,0.269929 2.316028,0.275421 1.001012,0.0046 1.255816,-0.01099 1.693334,-0.10345 z"
       id="path1626" />
  </g>
</svg>
