<?xml version="1.0" encoding="UTF-8" standalone="no"?>
<svg
   xmlns:dc="http://purl.org/dc/elements/1.1/"
   xmlns:cc="http://creativecommons.org/ns#"
   xmlns:rdf="http://www.w3.org/1999/02/22-rdf-syntax-ns#"
   xmlns:svg="http://www.w3.org/2000/svg"
   xmlns="http://www.w3.org/2000/svg"
   xmlns:sodipodi="http://sodipodi.sourceforge.net/DTD/sodipodi-0.dtd"
   xmlns:inkscape="http://www.inkscape.org/namespaces/inkscape"
   width="13.229167mm"
   height="13.229167mm"
   viewBox="0 0 13.229169 13.229168"
   version="1.1"
   id="svg8"
   sodipodi:docname="VCS_resized_347.svg"
   inkscape:version="1.0.2-2 (e86c870879, 2021-01-15)">
  <defs
     id="defs2" />
  <sodipodi:namedview
     id="base"
     pagecolor="#ffffff"
     bordercolor="#666666"
     borderopacity="1.0"
     inkscape:pageopacity="0.0"
     inkscape:pageshadow="2"
     inkscape:zoom="4"
     inkscape:cx="18.644552"
     inkscape:cy="25.962074"
     inkscape:document-units="mm"
     inkscape:current-layer="layer1"
     inkscape:document-rotation="0"
     showgrid="false"
     inkscape:window-width="958"
     inkscape:window-height="1008"
     inkscape:window-x="1913"
     inkscape:window-y="0"
     inkscape:window-maximized="0" />
  <metadata
     id="metadata5">
    <rdf:RDF>
      <cc:Work
         rdf:about="">
        <dc:format>image/svg+xml</dc:format>
        <dc:type
           rdf:resource="http://purl.org/dc/dcmitype/StillImage" />
        <dc:title></dc:title>
      </cc:Work>
    </rdf:RDF>
  </metadata>
  <g
     inkscape:label="Ebene 1"
     inkscape:groupmode="layer"
     id="layer1"
     transform="translate(-92.940559,15.292352)">
    <path
       style="fill:#000000;stroke-width:0.264582"
       d="m 98.62545,-3.0024555 c -0.489116,-0.7130954 -0.73736,-1.480285 -0.834724,-2.5796873 -0.03995,-0.4511146 -0.10044,-0.9948126 -0.134418,-1.2082176 -0.05921,-0.3718836 -0.0708,-0.3937244 -0.278712,-0.5255044 -0.119314,-0.075622 -0.73573,-0.3824514 -1.369816,-0.6818428 -1.822242,-0.8603927 -2.524824,-1.2627967 -2.524824,-1.4460917 0,-0.180269 0.729616,-0.400248 1.931458,-0.5823317 1.370494,-0.207636 2.37849,-0.381918 2.562348,-0.443028 0.223032,-0.07413 0.340506,-0.265584 0.767796,-1.251317 0.34846,-0.803876 0.613862,-1.355704 0.90764,-1.887168 0.260302,-0.470907 0.596142,-0.970332 0.652502,-0.970332 0.17501,0 0.49403,1.080137 0.71895,2.434167 0.18511,1.114372 0.21952,1.282013 0.37606,1.831837 l 0.0771,0.270795 0.59497,0.2695047 c 0.32724,0.148228 0.80867,0.355579 1.06985,0.46078 1.28882,0.519129 2.4857,1.143854 2.4857,1.2974403 0,0.1966368 -1.14131,0.5791984 -2.43417,0.8159184 -0.55147,0.1009746 -1.69172,0.3701368 -1.89432,0.4471676 -0.18532,0.070457 -0.30294,0.3159388 -0.64298,1.3419692 -0.24238,0.7313254 -0.33396,0.9322499 -0.6198,1.3597349 -0.386928,0.5786814 -1.01871,1.2711024 -1.159786,1.2711024 -0.05413,0 -0.164352,-0.098829 -0.25082,-0.224896 z m 0.63336,-0.4497916 c 0.560454,-0.5767626 0.82861,-1.0514584 1.17687,-2.0833687 0.26265,-0.778229 0.47385,-1.2759384 0.57615,-1.3577158 0.0951,-0.076069 1.1893,-0.3492028 2.36654,-0.5907638 0.97502,-0.2000662 1.74625,-0.4357984 1.74625,-0.533755 0,-0.1139659 -1.00137,-0.6355679 -1.87854,-0.9785089 -0.4903,-0.191688 -1.89253,-0.819906 -1.95127,-0.874194 -0.077,-0.07112 -0.34129,-1.1956417 -0.45972,-1.9557557 -0.20516,-1.316745 -0.45834,-2.253328 -0.59688,-2.208057 -0.11897,0.03888 -0.60966,0.950661 -1.06732,1.98328 -0.369642,0.834025 -0.748214,1.613012 -0.850832,1.750758 -0.03753,0.05037 -1.82232,0.3743857 -2.66752,0.4842637 -1.054272,0.137058 -1.75262,0.338097 -1.66529,0.479402 0.0462,0.07476 1.914472,1.055769 2.010642,1.055769 0.05447,0 1.532158,0.7517325 1.668426,0.8487631 0.123396,0.087866 0.15453,0.1689116 0.227514,0.592246 0.04651,0.2697476 0.110538,0.8238248 0.142296,1.231283 0.06448,0.8272728 0.134648,1.1313635 0.401992,1.7421125 0.20563,0.4697618 0.365168,0.7185124 0.460826,0.7185124 0.03531,0 0.19725,-0.1369218 0.359866,-0.3042708 z"
       id="path6473" />
  </g>
</svg>
