<?xml version="1.0" encoding="UTF-8" standalone="no"?>
<svg
   xmlns:dc="http://purl.org/dc/elements/1.1/"
   xmlns:cc="http://creativecommons.org/ns#"
   xmlns:rdf="http://www.w3.org/1999/02/22-rdf-syntax-ns#"
   xmlns:svg="http://www.w3.org/2000/svg"
   xmlns="http://www.w3.org/2000/svg"
   xmlns:sodipodi="http://sodipodi.sourceforge.net/DTD/sodipodi-0.dtd"
   xmlns:inkscape="http://www.inkscape.org/namespaces/inkscape"
   width="13.229167mm"
   height="13.229167mm"
   viewBox="0 0 13.229169 13.229168"
   version="1.1"
   id="svg8"
   sodipodi:docname="VCS_resized_346.svg"
   inkscape:version="1.0.2-2 (e86c870879, 2021-01-15)">
  <defs
     id="defs2" />
  <sodipodi:namedview
     id="base"
     pagecolor="#ffffff"
     bordercolor="#666666"
     borderopacity="1.0"
     inkscape:pageopacity="0.0"
     inkscape:pageshadow="2"
     inkscape:zoom="4"
     inkscape:cx="20.294548"
     inkscape:cy="13.437072"
     inkscape:document-units="mm"
     inkscape:current-layer="layer1"
     inkscape:document-rotation="0"
     showgrid="false"
     inkscape:window-width="958"
     inkscape:window-height="1008"
     inkscape:window-x="1913"
     inkscape:window-y="0"
     inkscape:window-maximized="0" />
  <metadata
     id="metadata5">
    <rdf:RDF>
      <cc:Work
         rdf:about="">
        <dc:format>image/svg+xml</dc:format>
        <dc:type
           rdf:resource="http://purl.org/dc/dcmitype/StillImage" />
        <dc:title></dc:title>
      </cc:Work>
    </rdf:RDF>
  </metadata>
  <g
     inkscape:label="Ebene 1"
     inkscape:groupmode="layer"
     id="layer1"
     transform="translate(-92.503998,11.978445)">
    <path
       style="fill:#000000;stroke-width:0.264582"
       d="m 98.245388,0.31145032 c -0.372476,-0.5106028 -0.841546,-1.71486182 -0.842534,-2.16305602 -8e-4,-0.3288506 -0.148878,-1.6140989 -0.213896,-1.8555571 -0.06051,-0.2247092 0.119078,-0.1251934 -2.493638,-1.3818226 -0.938234,-0.45126 -1.68404,-0.8883532 -1.68404,-0.9869646 0,-0.1918462 0.852032,-0.4310676 2.460626,-0.6908588 1.561104,-0.252122 2.076786,-0.3565129 2.227718,-0.4509613 0.06108,-0.038221 0.196918,-0.2677592 0.301866,-0.5100844 0.104948,-0.242325 0.342314,-0.7858722 0.52748,-1.2078824 0.476098,-1.0850671 1.17554,-2.3283331 1.309884,-2.3283331 0.173216,0 0.486036,1.010186 0.720996,2.3283331 0.22066,1.2378698 0.42048,2.0574317 0.53171,2.1808201 0.0449,0.049837 0.1681,0.117975 0.27372,0.151419 0.10562,0.033443 0.23967,0.09016 0.29787,0.1260378 0.0582,0.035878 0.43921,0.1991658 0.84667,0.3628624 0.99794,0.400923 1.64554,0.6849204 1.95207,0.856052 0.59186,0.3304296 0.74756,0.4359248 0.76319,0.5170948 0.0327,0.1699068 -0.93855,0.5206508 -2.08792,0.7539872 -0.5669,0.115087 -1.81032,0.4135158 -2.21484,0.5315724 -0.0582,0.016988 -0.14398,0.0828 -0.1906,0.14625 -0.0867,0.1179734 -0.44706,1.1324223 -0.60492,1.7028625 -0.161448,0.5833956 -1.339422,2.14312502 -1.618582,2.14312502 -0.05519,0 -0.17116,-0.099229 -0.26283,-0.224896 z m 0.647994,-0.4497916 c 0.30413,-0.320151 0.644822,-0.7955766 0.824768,-1.15093742 0.05895,-0.1164168 0.230724,-0.5807604 0.38172,-1.031875 0.40437,-1.2081123 0.43703,-1.2629699 0.82245,-1.3814981 0.3008,-0.092506 1.18338,-0.3038812 2.49306,-0.5970794 0.59226,-0.132589 1.3434,-0.3922642 1.3434,-0.4644226 0,-0.081018 -0.75302,-0.4550366 -1.79917,-0.8936322 -1.70919,-0.7165754 -1.99734,-0.8468832 -2.08065,-0.940898 -0.0956,-0.1079252 -0.43075,-1.4569295 -0.51485,-2.0724699 -0.12943,-0.9472714 -0.443718,-2.0372911 -0.587418,-2.0372911 -0.107394,0 -0.552832,0.8453937 -1.1329,2.1501265 -0.285178,0.6414452 -0.58319,1.26826 -0.662248,1.3929218 l -0.143742,0.2266575 -0.865448,0.1629992 c -0.475996,0.08965 -1.11548,0.2015748 -1.421074,0.2487226 -1.334256,0.2058538 -1.954844,0.3560334 -1.996258,0.4830874 -0.03127,0.095928 0.777768,0.5348716 2.205752,1.1967304 0.510518,0.2366216 1.082996,0.5176606 1.272174,0.624532 l 0.343958,0.1943112 0.08535,0.4326604 c 0.04695,0.237963 0.114096,0.8066303 0.149224,1.2637055 0.06891,0.8966262 0.09287,1.0096832 0.333122,1.57187842 0.246428,0.576651 0.459916,0.9260416 0.565836,0.9260416 0.05164,0 0.223966,-0.1369218 0.38294,-0.3042708 z"
       id="path6457" />
  </g>
</svg>
