<?xml version="1.0" encoding="UTF-8" standalone="no"?>
<svg
   xmlns:dc="http://purl.org/dc/elements/1.1/"
   xmlns:cc="http://creativecommons.org/ns#"
   xmlns:rdf="http://www.w3.org/1999/02/22-rdf-syntax-ns#"
   xmlns:svg="http://www.w3.org/2000/svg"
   xmlns="http://www.w3.org/2000/svg"
   xmlns:sodipodi="http://sodipodi.sourceforge.net/DTD/sodipodi-0.dtd"
   xmlns:inkscape="http://www.inkscape.org/namespaces/inkscape"
   width="13.229167mm"
   height="13.229167mm"
   viewBox="0 0 13.229169 13.229168"
   version="1.1"
   id="svg8"
   sodipodi:docname="VCS_resized_296.svg"
   inkscape:version="1.0.2-2 (e86c870879, 2021-01-15)">
  <defs
     id="defs2" />
  <sodipodi:namedview
     id="base"
     pagecolor="#ffffff"
     bordercolor="#666666"
     borderopacity="1.0"
     inkscape:pageopacity="0.0"
     inkscape:pageshadow="2"
     inkscape:zoom="4"
     inkscape:cx="15.653508"
     inkscape:cy="32.14537"
     inkscape:document-units="mm"
     inkscape:current-layer="layer1"
     inkscape:document-rotation="0"
     showgrid="false"
     inkscape:window-width="958"
     inkscape:window-height="1008"
     inkscape:window-x="1913"
     inkscape:window-y="0"
     inkscape:window-maximized="0" />
  <metadata
     id="metadata5">
    <rdf:RDF>
      <cc:Work
         rdf:about="">
        <dc:format>image/svg+xml</dc:format>
        <dc:type
           rdf:resource="http://purl.org/dc/dcmitype/StillImage" />
        <dc:title></dc:title>
      </cc:Work>
    </rdf:RDF>
  </metadata>
  <g
     inkscape:label="Ebene 1"
     inkscape:groupmode="layer"
     id="layer1"
     transform="translate(-91.086105,16.928349)">
    <path
       style="fill:#000000;stroke-width:0.264582"
       d="m 96.433446,-4.3039344 c -0.862158,-0.061714 -1.301338,-0.113392 -1.327822,-0.1562438 -0.02177,-0.035216 -0.06893,-0.378248 -0.10482,-0.7622922 -0.135338,-1.44839 -0.268954,-2.7689858 -0.29961,-2.9612156 -0.02969,-0.1861614 -0.145924,-0.293225 -1.77553,-1.6354372 -1.104018,-0.9093168 -1.738042,-1.4659248 -1.728174,-1.5171638 0.01066,-0.0554 0.157454,-0.111116 0.465312,-0.176618 1.138974,-0.242342 2.983514,-0.643853 3.432778,-0.747234 l 0.49597,-0.114128 0.759234,-1.562191 c 1.226668,-2.523984 1.192692,-2.461775 1.344452,-2.461775 0.147052,0 0.146396,-0.0012 1.456411,2.671107 l 0.660906,1.348192 0.727277,0.165263 c 0.40001,0.0909 1.22734,0.27658 1.83853,0.412633 1.84842,0.411466 1.82563,0.405161 1.82563,0.505012 0,0.0496 -0.0661,0.139081 -0.14698,0.198847 -0.14421,0.106621 -2.52874,2.0794184 -3.0605,2.5320538 l -0.27061,0.2303394 -0.0621,0.5984848 c -0.0341,0.329166 -0.096,0.9080468 -0.13736,1.286401 -0.0414,0.3783542 -0.10482,0.9823032 -0.14094,1.342109 -0.0579,0.5772812 -0.0784,0.6592174 -0.17412,0.6969348 -0.0597,0.023508 -0.560901,0.069171 -1.113879,0.101473 -0.552981,0.032301 -1.088761,0.06749 -1.190627,0.078196 -0.101864,0.010706 -0.76492,-0.02203 -1.473456,-0.072748 z m 2.584707,-0.271835 c 0.538428,-0.034185 0.995527,-0.076943 1.015767,-0.095018 0.0331,-0.029567 0.18188,-1.3033692 0.36663,-3.139331 l 0.0677,-0.6723014 0.63124,-0.5183236 c 1.56275,-1.2832026 2.63303,-2.1981006 2.60464,-2.2264966 -0.017,-0.01699 -0.38177,-0.106207 -0.8106,-0.198252 -1.75532,-0.376761 -3.062013,-0.671596 -3.174089,-0.716183 -0.08478,-0.03373 -0.23146,-0.279605 -0.510356,-0.855485 -0.21526,-0.444486 -0.630717,-1.302266 -0.923237,-1.906177 -0.292518,-0.603912 -0.557558,-1.098021 -0.588976,-1.098021 -0.03142,0 -0.07814,0.05358 -0.103816,0.119063 -0.197762,0.504293 -1.81263,3.692006 -1.890472,3.731751 -0.111516,0.05694 -0.538664,0.154406 -2.505216,0.571644 -0.771262,0.163636 -1.420152,0.308493 -1.44198,0.321904 -0.08093,0.04972 -0.03091,0.10999 0.343958,0.414502 0.570344,0.463296 2.069282,1.7031216 2.478594,2.0501348 0.405846,0.344077 0.34747,0.1498432 0.497276,1.6545424 0.147784,1.4843786 0.243012,2.3811234 0.25849,2.4341666 0.01702,0.058304 2.153454,0.2362968 2.49387,0.207772 0.116416,-0.00976 0.652198,-0.045706 1.190625,-0.079891 z"
       id="path5651" />
  </g>
</svg>
