<?xml version="1.0" encoding="UTF-8" standalone="no"?>
<svg
   xmlns:dc="http://purl.org/dc/elements/1.1/"
   xmlns:cc="http://creativecommons.org/ns#"
   xmlns:rdf="http://www.w3.org/1999/02/22-rdf-syntax-ns#"
   xmlns:svg="http://www.w3.org/2000/svg"
   xmlns="http://www.w3.org/2000/svg"
   xmlns:sodipodi="http://sodipodi.sourceforge.net/DTD/sodipodi-0.dtd"
   xmlns:inkscape="http://www.inkscape.org/namespaces/inkscape"
   width="13.229167mm"
   height="13.229167mm"
   viewBox="0 0 13.229169 13.229168"
   version="1.1"
   id="svg8"
   sodipodi:docname="VCS_resized_294.svg"
   inkscape:version="1.0.2-2 (e86c870879, 2021-01-15)">
  <defs
     id="defs2" />
  <sodipodi:namedview
     id="base"
     pagecolor="#ffffff"
     bordercolor="#666666"
     borderopacity="1.0"
     inkscape:pageopacity="0.0"
     inkscape:pageshadow="2"
     inkscape:zoom="4"
     inkscape:cx="31.154411"
     inkscape:cy="33.655596"
     inkscape:document-units="mm"
     inkscape:current-layer="layer1"
     inkscape:document-rotation="0"
     showgrid="false"
     inkscape:window-width="958"
     inkscape:window-height="1008"
     inkscape:window-x="1913"
     inkscape:window-y="0"
     inkscape:window-maximized="0" />
  <metadata
     id="metadata5">
    <rdf:RDF>
      <cc:Work
         rdf:about="">
        <dc:format>image/svg+xml</dc:format>
        <dc:type
           rdf:resource="http://purl.org/dc/dcmitype/StillImage" />
        <dc:title></dc:title>
      </cc:Work>
    </rdf:RDF>
  </metadata>
  <g
     inkscape:label="Ebene 1"
     inkscape:groupmode="layer"
     id="layer1"
     transform="translate(-86.984825,17.327929)">
    <path
       style="fill:#000000;stroke-width:0.264582"
       d="m 92.074774,-4.6751807 c -0.60157,-0.031624 -1.10745,-0.071254 -1.12418,-0.088066 -0.01672,-0.016812 -0.112776,-0.9216872 -0.213438,-2.0108334 L 90.554134,-8.7543455 90.35321,-8.9331641 c -0.110508,-0.09835 -0.346084,-0.3007562 -0.523502,-0.4497918 -1.105568,-0.9287011 -2.717348,-2.3138701 -2.745594,-2.3595741 -0.01838,-0.02974 0.0215,-0.07811 0.08863,-0.107481 0.100906,-0.04416 2.10793,-0.48143 3.806816,-0.829397 0.222166,-0.0455 0.434798,-0.101808 0.472516,-0.125119 0.03772,-0.02331 0.51079,-0.931307 1.051272,-2.017768 0.875456,-1.759818 0.99722,-1.97708 1.115824,-1.990932 0.125676,-0.01468 0.188764,0.09671 1.126838,1.98949 l 0.993708,2.005038 0.487121,0.118131 c 0.267914,0.06497 1.094338,0.247385 1.836494,0.405362 2.037147,0.43363 2.072067,0.442981 2.053367,0.549828 -0.009,0.05049 -0.373263,0.397777 -0.809825,0.771748 -2.155582,1.8465315 -2.619376,2.2599393 -2.619376,2.3348127 0,0.044684 -0.03637,0.4536884 -0.08083,0.9088994 -0.212496,2.1759004 -0.295624,2.941539 -0.322274,2.9682138 -0.03723,0.037261 -2.196875,0.155641 -2.718983,0.1490402 -0.218282,-0.00276 -0.889068,-0.030892 -1.490638,-0.062517 z m 2.734178,-0.248548 c 0.669396,-0.032655 1.230073,-0.079894 1.245947,-0.1049744 0.01588,-0.025081 0.05882,-0.385455 0.09544,-0.8008308 0.03662,-0.4153752 0.0872,-0.933822 0.1124,-1.1521032 0.0252,-0.2182814 0.07594,-0.7240488 0.112762,-1.1239274 0.03682,-0.3998784 0.08041,-0.7460138 0.09686,-0.7691886 0.01646,-0.023175 0.279824,-0.255596 0.585262,-0.51649 0.305436,-0.260894 1.007904,-0.8653619 1.56104,-1.3432629 0.553138,-0.477901 1.015626,-0.876761 1.027752,-0.886354 0.06095,-0.04822 -0.12925,-0.100779 -1.117398,-0.308802 -1.427624,-0.30054 -2.740529,-0.601253 -2.882327,-0.660179 -0.08298,-0.03448 -0.371458,-0.568825 -1.041608,-1.929326 -0.509768,-1.0349 -0.953694,-1.881637 -0.986502,-1.881637 -0.03281,0 -0.470888,0.839391 -0.973514,1.865313 -0.502622,1.025921 -0.948736,1.893954 -0.991362,1.928961 -0.06423,0.05275 -1.047344,0.27345 -3.666678,0.82313 -0.172246,0.03615 -0.32238,0.09345 -0.33363,0.127338 -0.01126,0.03389 0.296366,0.328588 0.68359,0.654885 0.82291,0.693429 1.483442,1.2579851 2.057548,1.7585789 l 0.411046,0.3584142 0.03204,0.3295026 c 0.01762,0.1812262 0.07908,0.8533774 0.136566,1.4936692 0.134738,1.5006578 0.190588,1.9825356 0.234974,2.027419 0.03055,0.030887 1.373104,0.1312206 2.14458,0.1602708 0.13097,0.00493 0.785814,-0.01775 1.455208,-0.050406 z"
       id="path5619" />
  </g>
</svg>
