<?xml version="1.0" encoding="UTF-8" standalone="no"?>
<svg
   xmlns:dc="http://purl.org/dc/elements/1.1/"
   xmlns:cc="http://creativecommons.org/ns#"
   xmlns:rdf="http://www.w3.org/1999/02/22-rdf-syntax-ns#"
   xmlns:svg="http://www.w3.org/2000/svg"
   xmlns="http://www.w3.org/2000/svg"
   xmlns:sodipodi="http://sodipodi.sourceforge.net/DTD/sodipodi-0.dtd"
   xmlns:inkscape="http://www.inkscape.org/namespaces/inkscape"
   width="13.229167mm"
   height="13.229167mm"
   viewBox="0 0 13.229169 13.229168"
   version="1.1"
   id="svg8"
   sodipodi:docname="VCS_resized_134.svg"
   inkscape:version="1.0.2-2 (e86c870879, 2021-01-15)">
  <defs
     id="defs2" />
  <sodipodi:namedview
     id="base"
     pagecolor="#ffffff"
     bordercolor="#666666"
     borderopacity="1.0"
     inkscape:pageopacity="0.0"
     inkscape:pageshadow="2"
     inkscape:zoom="2.8284271"
     inkscape:cx="8.2362198"
     inkscape:cy="31.365367"
     inkscape:document-units="mm"
     inkscape:current-layer="layer1"
     inkscape:document-rotation="0"
     showgrid="false"
     inkscape:window-width="958"
     inkscape:window-height="1008"
     inkscape:window-x="1913"
     inkscape:window-y="0"
     inkscape:window-maximized="0" />
  <metadata
     id="metadata5">
    <rdf:RDF>
      <cc:Work
         rdf:about="">
        <dc:format>image/svg+xml</dc:format>
        <dc:type
           rdf:resource="http://purl.org/dc/dcmitype/StillImage" />
        <dc:title></dc:title>
      </cc:Work>
    </rdf:RDF>
  </metadata>
  <g
     inkscape:label="Ebene 1"
     inkscape:groupmode="layer"
     id="layer1"
     transform="translate(-36.020817,-18.292858)">
    <path
       style="fill:#000000;stroke-width:0.264582"
       d="m 40.773211,31.010074 c -0.363802,-0.06875 -0.737556,-0.139078 -0.830564,-0.156285 -0.144,-0.02664 -0.247126,-0.13904 -0.69459,-0.757033 -0.289016,-0.399159 -0.75797,-1.035307 -1.04212,-1.413661 -0.28415,-0.378355 -0.590426,-0.842698 -0.680614,-1.031875 -0.149282,-0.313133 -0.164034,-0.391383 -0.164608,-0.873125 -6e-4,-0.481721 0.01264,-0.55289 0.147386,-0.79375 0.08141,-0.145521 0.32879,-0.46699 0.549738,-0.714375 0.543712,-0.608771 0.76796,-1.073886 0.771636,-1.600466 0.0033,-0.474339 -0.09738,-0.747205 -0.543836,-1.473711 -0.180394,-0.29355 -0.401526,-0.692307 -0.491406,-0.886129 -0.148916,-0.321125 -0.163674,-0.401717 -0.166284,-0.908028 -0.0026,-0.504999 0.01116,-0.58604 0.151058,-0.889435 0.278372,-0.6037 0.854466,-0.948838 1.346232,-0.806526 0.09771,0.02828 0.663802,0.329173 1.257984,0.668661 1.438442,0.821856 1.594708,0.883652 2.303848,0.911059 0.623972,0.02412 0.841458,-0.02499 1.47945,-0.334012 0.357198,-0.173018 0.472982,-0.249888 1.162924,-0.772084 0.637964,-0.482855 0.9038,-0.579421 1.294192,-0.470119 0.649,0.181709 1.095676,1.023035 1.0063,1.895388 -0.04466,0.435899 -0.212414,0.84354 -0.557738,1.355289 -0.15204,0.225312 -0.363494,0.591964 -0.469898,0.814781 -0.166404,0.348458 -0.193296,0.456935 -0.19226,0.77554 0.0022,0.687706 0.121844,0.926266 0.986814,1.968212 0.407666,0.491077 0.53526,0.825936 0.510242,1.33908 -0.02584,0.529904 -0.166964,0.821695 -0.876398,1.812013 -0.31292,0.436812 -0.75059,1.047196 -0.9726,1.356408 -0.22201,0.309212 -0.460136,0.611575 -0.529168,0.671917 -0.133642,0.116821 -0.59449,0.234206 -1.434628,0.365421 -0.8335,0.130177 -2.49136,0.103643 -3.321092,-0.05316 z m 3.510486,-0.236816 c 0.79944,-0.145322 0.988188,-0.202733 1.100664,-0.334786 0.180896,-0.212383 1.488804,-2.014902 1.826172,-2.516778 0.36847,-0.548141 0.41439,-0.695999 0.377172,-1.214457 -0.03076,-0.428437 -0.144394,-0.664297 -0.584604,-1.213371 -0.759492,-0.947313 -0.882058,-1.195281 -0.88405,-1.788563 -0.0021,-0.6202 0.187098,-1.109023 0.776814,-2.007208 0.471228,-0.717718 0.590158,-1.266581 0.403062,-1.860123 -0.156592,-0.496763 -0.51869,-0.812169 -0.932402,-0.812169 -0.23564,0 -0.670044,0.22834 -1.21358,0.637906 -0.522536,0.393743 -1.110938,0.693845 -1.601608,0.816865 -0.288726,0.07239 -0.492954,0.08612 -0.926042,0.06224 -0.692792,-0.03819 -1.03981,-0.15969 -1.95003,-0.68275 -1.165462,-0.669736 -1.475744,-0.807806 -1.81537,-0.807806 -0.254026,0 -0.330154,0.02445 -0.50271,0.161453 -0.111842,0.0888 -0.26288,0.279299 -0.33564,0.423333 -0.112332,0.22237 -0.132106,0.333735 -0.13106,0.738131 0.0014,0.547547 0.06865,0.728548 0.59552,1.603095 0.865396,1.436473 0.858594,2.209168 -0.02874,3.265238 -0.892924,1.062722 -1.03132,1.557422 -0.651238,2.327866 0.08627,0.174882 0.497482,0.775465 0.913794,1.334629 0.416314,0.559164 0.860676,1.160195 0.987474,1.335627 0.249316,0.344938 0.267534,0.353834 0.986542,0.481716 0.203728,0.03623 0.45376,0.08372 0.555624,0.105519 0.101866,0.0218 0.697178,0.04167 1.322918,0.04415 0.917286,0.0036 1.24884,-0.01569 1.711318,-0.09976 z"
       id="path2186" />
  </g>
</svg>
