<?xml version="1.0" encoding="UTF-8" standalone="no"?>
<svg
   xmlns:dc="http://purl.org/dc/elements/1.1/"
   xmlns:cc="http://creativecommons.org/ns#"
   xmlns:rdf="http://www.w3.org/1999/02/22-rdf-syntax-ns#"
   xmlns:svg="http://www.w3.org/2000/svg"
   xmlns="http://www.w3.org/2000/svg"
   xmlns:sodipodi="http://sodipodi.sourceforge.net/DTD/sodipodi-0.dtd"
   xmlns:inkscape="http://www.inkscape.org/namespaces/inkscape"
   width="13.229167mm"
   height="13.229167mm"
   viewBox="0 0 13.229169 13.229168"
   version="1.1"
   id="svg8"
   sodipodi:docname="VCS_resized_301.svg"
   inkscape:version="1.0.2-2 (e86c870879, 2021-01-15)">
  <defs
     id="defs2" />
  <sodipodi:namedview
     id="base"
     pagecolor="#ffffff"
     bordercolor="#666666"
     borderopacity="1.0"
     inkscape:pageopacity="0.0"
     inkscape:pageshadow="2"
     inkscape:zoom="4"
     inkscape:cx="2.5306719"
     inkscape:cy="40.540775"
     inkscape:document-units="mm"
     inkscape:current-layer="layer1"
     inkscape:document-rotation="0"
     showgrid="false"
     inkscape:window-width="958"
     inkscape:window-height="1008"
     inkscape:window-x="1913"
     inkscape:window-y="0"
     inkscape:window-maximized="0" />
  <metadata
     id="metadata5">
    <rdf:RDF>
      <cc:Work
         rdf:about="">
        <dc:format>image/svg+xml</dc:format>
        <dc:type
           rdf:resource="http://purl.org/dc/dcmitype/StillImage" />
        <dc:title></dc:title>
      </cc:Work>
    </rdf:RDF>
  </metadata>
  <g
     inkscape:label="Ebene 1"
     inkscape:groupmode="layer"
     id="layer1"
     transform="translate(-94.558189,19.149633)">
    <path
       style="fill:#000000;stroke-width:0.264582"
       d="m 100.7234,-6.5129973 c -0.14552,-0.023048 -0.63129,-0.090312 -1.079485,-0.1494768 -0.44819,-0.059165 -0.83546,-0.1281436 -0.86061,-0.1532874 -0.0485,-0.04849 -0.0705,-0.2197486 -0.280808,-2.1821269 -0.07329,-0.6839478 -0.146058,-1.3191826 -0.161704,-1.4116336 -0.02992,-0.176768 0.01496,-0.140383 -2.849514,-2.310371 -0.454764,-0.344509 -0.826846,-0.660024 -0.826846,-0.701146 0,-0.04112 0.006,-0.07477 0.0133,-0.07477 0.0073,0 0.703836,-0.15538 1.547814,-0.345288 0.843976,-0.189908 1.820252,-0.408156 2.169502,-0.484993 0.349256,-0.07684 0.661516,-0.159798 0.693916,-0.184356 0.0324,-0.02456 0.25688,-0.467107 0.49885,-0.983444 0.24197,-0.516337 0.663135,-1.414373 0.935915,-1.995635 0.27279,-0.581263 0.52243,-1.073189 0.55476,-1.09317 0.19478,-0.120381 0.34797,0.153501 1.52815,2.732094 0.14652,0.320146 0.35423,0.758989 0.46158,0.975208 l 0.19517,0.393125 1.00542,0.224761 c 2.50523,0.560048 3.41375,0.787895 3.41231,0.85578 -4e-4,0.02102 -0.0183,0.06291 -0.0397,0.0931 -0.0349,0.04925 -1.59135,1.246072 -3.0085,2.313341 -0.29451,0.221792 -0.54959,0.440083 -0.56686,0.485089 -0.0173,0.04501 -0.0923,0.6120462 -0.16667,1.260089 -0.17184,1.4968565 -0.29297,2.4403619 -0.31631,2.4636923 -0.0327,0.032664 -2.27303,0.3286658 -2.43637,0.321899 -0.0873,-0.00362 -0.27781,-0.025434 -0.42333,-0.048482 z m 1.53096,-0.3472296 c 0.58407,-0.075766 1.07556,-0.1531562 1.0922,-0.1719792 0.0166,-0.018824 0.0956,-0.5938176 0.17546,-1.2777654 0.20627,-1.7661805 0.29422,-2.4004395 0.33811,-2.4380735 0.0211,-0.01805 0.4788,-0.364905 1.01722,-0.77079 2.20903,-1.665243 2.3258,-1.760963 2.21666,-1.817128 -0.0404,-0.02081 -0.94269,-0.235372 -2.00499,-0.476799 -1.18678,-0.269718 -1.96606,-0.471754 -2.0212,-0.524022 -0.0494,-0.04678 -0.25454,-0.44225 -0.45595,-0.878813 -0.20141,-0.436563 -0.45604,-0.98425 -0.56584,-1.217083 -0.2445,-0.518495 -0.52402,-1.121702 -0.69655,-1.503221 -0.10938,-0.241863 -0.14027,-0.274615 -0.19962,-0.211667 -0.0386,0.04096 -0.24187,0.443565 -0.45167,0.894679 -1.164335,2.503578 -1.347665,2.889224 -1.399575,2.944152 -0.0313,0.03311 -0.28311,0.108965 -0.5596,0.168576 -1.542004,0.332453 -3.418548,0.762774 -3.482588,0.798611 -0.08914,0.04988 -0.0945,0.04548 1.794264,1.475098 0.774014,0.58586 1.433632,1.096927 1.465814,1.135705 0.03218,0.03878 0.14424,0.8433952 0.24901,1.7880364 0.10478,0.9446421 0.21167,1.7690589 0.23754,1.8320377 0.0392,0.095372 0.10727,0.1208684 0.40744,0.1525756 0.19822,0.020938 0.646155,0.080032 0.995405,0.1313186 0.34925,0.051287 0.66909,0.095737 0.71075,0.098778 0.0417,0.00304 0.55364,-0.056461 1.13771,-0.1322262 z"
       id="path5731" />
  </g>
</svg>
