<?xml version="1.0" encoding="UTF-8" standalone="no"?>
<svg
   xmlns:dc="http://purl.org/dc/elements/1.1/"
   xmlns:cc="http://creativecommons.org/ns#"
   xmlns:rdf="http://www.w3.org/1999/02/22-rdf-syntax-ns#"
   xmlns:svg="http://www.w3.org/2000/svg"
   xmlns="http://www.w3.org/2000/svg"
   xmlns:sodipodi="http://sodipodi.sourceforge.net/DTD/sodipodi-0.dtd"
   xmlns:inkscape="http://www.inkscape.org/namespaces/inkscape"
   width="13.229167mm"
   height="13.229167mm"
   viewBox="0 0 13.229169 13.229168"
   version="1.1"
   id="svg8"
   sodipodi:docname="VCS_resized_257.svg"
   inkscape:version="1.0.2-2 (e86c870879, 2021-01-15)">
  <defs
     id="defs2" />
  <sodipodi:namedview
     id="base"
     pagecolor="#ffffff"
     bordercolor="#666666"
     borderopacity="1.0"
     inkscape:pageopacity="0.0"
     inkscape:pageshadow="2"
     inkscape:zoom="2.8284271"
     inkscape:cx="27.223924"
     inkscape:cy="-11.445664"
     inkscape:document-units="mm"
     inkscape:current-layer="layer1"
     inkscape:document-rotation="0"
     showgrid="false"
     inkscape:window-width="958"
     inkscape:window-height="1008"
     inkscape:window-x="1913"
     inkscape:window-y="0"
     inkscape:window-maximized="0" />
  <metadata
     id="metadata5">
    <rdf:RDF>
      <cc:Work
         rdf:about="">
        <dc:format>image/svg+xml</dc:format>
        <dc:type
           rdf:resource="http://purl.org/dc/dcmitype/StillImage" />
        <dc:title></dc:title>
      </cc:Work>
    </rdf:RDF>
  </metadata>
  <g
     inkscape:label="Ebene 1"
     inkscape:groupmode="layer"
     id="layer1"
     transform="translate(-70.839104,-10.051204)">
    <path
       style="fill:#000000;stroke-width:0.264582"
       d="m 73.524524,22.920712 c -0.01096,-0.03638 -0.06,-0.709084 -0.108984,-1.494896 -0.04899,-0.785813 -0.117772,-1.739118 -0.152856,-2.118457 l -0.06379,-0.689708 -1.002962,-1.492382 C 71.00435,15.352225 70.8394,15.089378 70.890016,15.044311 c 0.0373,-0.03321 1.313578,-0.445843 2.76358,-0.893494 0.392906,-0.121301 0.809624,-0.250322 0.926042,-0.286715 0.154992,-0.04845 0.279482,-0.150062 0.464938,-0.379483 0.282468,-0.34943 1.445786,-1.932464 1.907494,-2.595701 0.341662,-0.490794 0.416736,-0.564968 0.54652,-0.539974 0.05115,0.0099 0.409918,0.458301 0.79727,0.996557 0.387352,0.538257 0.833012,1.157242 0.990356,1.375523 0.157344,0.218282 0.40175,0.53975 0.543124,0.714375 0.302394,0.37352 0.219508,0.33911 2.621652,1.088379 1.100248,0.343185 1.57427,0.51381 1.57427,0.56666 0,0.04159 -0.513624,0.849598 -1.14139,1.79557 -0.627764,0.945973 -1.162326,1.771012 -1.187916,1.83342 -0.03937,0.09601 -0.120304,1.127095 -0.296566,3.77795 l -0.03255,0.48948 h -3.911202 c -3.08306,0 -3.915418,-0.01401 -3.931118,-0.06615 z m 7.609112,-0.529167 c 0.01496,-0.181901 0.05204,-0.687917 0.08239,-1.124479 0.03035,-0.436563 0.08426,-1.210469 0.119804,-1.719792 l 0.06463,-0.926041 0.734286,-1.11125 c 0.403858,-0.611188 0.90893,-1.373014 1.12238,-1.692948 0.213452,-0.319935 0.37785,-0.598275 0.365328,-0.618536 -0.02287,-0.037 -0.468802,-0.181841 -2.428228,-0.788706 -0.582084,-0.18028 -1.120196,-0.358898 -1.195804,-0.396929 -0.142118,-0.07149 -0.776842,-0.889796 -1.863962,-2.40309 -0.34498,-0.480218 -0.653222,-0.873125 -0.684984,-0.873125 -0.03176,0 -0.255254,0.28575 -0.496652,0.635 -0.241396,0.34925 -0.778866,1.086139 -1.194376,1.63753 -0.859524,1.140608 -0.586238,0.953068 -2.051932,1.408122 -0.392906,0.121985 -0.845344,0.26342 -1.005416,0.314297 -0.160072,0.05088 -0.547026,0.171709 -0.859896,0.268513 -0.31287,0.0968 -0.568854,0.192343 -0.568854,0.212308 0,0.01997 0.10365,0.187897 0.230332,0.373182 0.126682,0.185285 0.626744,0.930661 1.11125,1.65639 0.796148,1.192534 0.880918,1.341279 0.880918,1.545738 0,0.124425 0.02279,0.459334 0.05065,0.744241 0.08142,0.832675 0.154874,1.790627 0.192888,2.515617 l 0.03538,0.674687 h 3.66633 3.66633 z"
       id="path5025" />
  </g>
</svg>
