<?xml version="1.0" encoding="UTF-8" standalone="no"?>
<svg
   xmlns:dc="http://purl.org/dc/elements/1.1/"
   xmlns:cc="http://creativecommons.org/ns#"
   xmlns:rdf="http://www.w3.org/1999/02/22-rdf-syntax-ns#"
   xmlns:svg="http://www.w3.org/2000/svg"
   xmlns="http://www.w3.org/2000/svg"
   xmlns:sodipodi="http://sodipodi.sourceforge.net/DTD/sodipodi-0.dtd"
   xmlns:inkscape="http://www.inkscape.org/namespaces/inkscape"
   width="13.229167mm"
   height="13.229167mm"
   viewBox="0 0 13.229169 13.229168"
   version="1.1"
   id="svg8"
   sodipodi:docname="VCS_resized_217.svg"
   inkscape:version="1.0.2-2 (e86c870879, 2021-01-15)">
  <defs
     id="defs2" />
  <sodipodi:namedview
     id="base"
     pagecolor="#ffffff"
     bordercolor="#666666"
     borderopacity="1.0"
     inkscape:pageopacity="0.0"
     inkscape:pageshadow="2"
     inkscape:zoom="2.8284271"
     inkscape:cx="8.3039018"
     inkscape:cy="76.907745"
     inkscape:document-units="mm"
     inkscape:current-layer="layer1"
     inkscape:document-rotation="0"
     showgrid="false"
     inkscape:window-width="958"
     inkscape:window-height="1008"
     inkscape:window-x="1913"
     inkscape:window-y="0"
     inkscape:window-maximized="0" />
  <metadata
     id="metadata5">
    <rdf:RDF>
      <cc:Work
         rdf:about="">
        <dc:format>image/svg+xml</dc:format>
        <dc:type
           rdf:resource="http://purl.org/dc/dcmitype/StillImage" />
        <dc:title></dc:title>
      </cc:Work>
    </rdf:RDF>
  </metadata>
  <g
     inkscape:label="Ebene 1"
     inkscape:groupmode="layer"
     id="layer1"
     transform="translate(-46.366287,-10.331996)">
    <path
       style="fill:#000000;stroke-width:0.264582"
       d="m 49.099919,23.12246 c -0.04767,-0.03638 -0.258076,-0.566208 -0.467558,-1.177396 -0.209484,-0.611187 -0.450532,-1.313656 -0.535664,-1.561041 -0.159086,-0.462283 -0.2858,-0.987762 -0.59336,-2.460625 -0.106978,-0.512296 -0.280938,-1.128792 -0.44049,-1.561042 -0.34745,-0.941293 -0.472228,-1.454202 -0.380622,-1.56458 0.03718,-0.04481 0.236282,-0.177819 0.44244,-0.295585 0.206158,-0.117767 0.493894,-0.286229 0.639414,-0.37436 0.145522,-0.08813 0.407458,-0.237052 0.582084,-0.330935 1.647142,-0.885546 1.814104,-0.993322 3.49792,-2.257949 0.61417,-0.461271 1.130178,-0.838674 1.146682,-0.838674 0.0165,0 0.526036,0.372448 1.132288,0.827662 1.37064,1.029168 1.765152,1.291669 2.927902,1.948173 1.44325,0.814879 2.18372,1.264328 2.242636,1.361232 0.05897,0.09698 -0.04998,0.502999 -0.4428,1.650202 -0.11971,0.349612 -0.272844,0.957675 -0.345518,1.371985 -0.19854,1.131868 -0.489508,2.155628 -1.05589,3.715121 -0.137412,0.378354 -0.307854,0.872037 -0.378762,1.097074 -0.07989,0.253536 -0.167202,0.429645 -0.229566,0.463021 -0.158962,0.08507 -7.629088,0.07322 -7.741136,-0.01228 z m 7.88927,-1.045104 c 0.848268,-2.448779 0.964846,-2.852065 1.223718,-4.233333 0.122732,-0.654862 0.359346,-1.481636 0.564034,-1.970843 0.06995,-0.167182 0.160522,-0.446878 0.20127,-0.621546 l 0.07409,-0.317579 -0.140776,-0.09894 c -0.12858,-0.09037 -0.532166,-0.317345 -2.204524,-1.239817 -0.803658,-0.443296 -1.746454,-1.074521 -2.777976,-1.859923 -0.480138,-0.365576 -0.896856,-0.663523 -0.926042,-0.662105 -0.06404,0.0031 -0.371476,0.221798 -1.305198,0.928425 -1.070258,0.809956 -1.643554,1.187928 -2.399118,1.581731 -1.159576,0.604374 -2.312712,1.266788 -2.343824,1.3464 -0.04323,0.110614 0.129388,0.740234 0.385484,1.406074 0.238678,0.620548 0.333092,0.987698 0.636248,2.474211 0.105394,0.516795 0.271468,1.171639 0.369054,1.455208 0.189292,0.550058 0.859446,2.481769 0.899542,2.592918 0.01902,0.05271 0.79506,0.06369 3.741946,0.05292 l 3.717954,-0.01359 z"
       id="path4371" />
  </g>
</svg>
