<?xml version="1.0" encoding="UTF-8" standalone="no"?>
<svg
   xmlns:dc="http://purl.org/dc/elements/1.1/"
   xmlns:cc="http://creativecommons.org/ns#"
   xmlns:rdf="http://www.w3.org/1999/02/22-rdf-syntax-ns#"
   xmlns:svg="http://www.w3.org/2000/svg"
   xmlns="http://www.w3.org/2000/svg"
   xmlns:sodipodi="http://sodipodi.sourceforge.net/DTD/sodipodi-0.dtd"
   xmlns:inkscape="http://www.inkscape.org/namespaces/inkscape"
   width="13.229167mm"
   height="13.229167mm"
   viewBox="0 0 13.229169 13.229168"
   version="1.1"
   id="svg8"
   sodipodi:docname="VCS_resized_149.svg"
   inkscape:version="1.0.2-2 (e86c870879, 2021-01-15)">
  <defs
     id="defs2" />
  <sodipodi:namedview
     id="base"
     pagecolor="#ffffff"
     bordercolor="#666666"
     borderopacity="1.0"
     inkscape:pageopacity="0.0"
     inkscape:pageshadow="2"
     inkscape:zoom="2.8284271"
     inkscape:cx="7.4596572"
     inkscape:cy="47.054317"
     inkscape:document-units="mm"
     inkscape:current-layer="layer1"
     inkscape:document-rotation="0"
     showgrid="false"
     inkscape:window-width="958"
     inkscape:window-height="1008"
     inkscape:window-x="1913"
     inkscape:window-y="0"
     inkscape:window-maximized="0" />
  <metadata
     id="metadata5">
    <rdf:RDF>
      <cc:Work
         rdf:about="">
        <dc:format>image/svg+xml</dc:format>
        <dc:type
           rdf:resource="http://purl.org/dc/dcmitype/StillImage" />
        <dc:title></dc:title>
      </cc:Work>
    </rdf:RDF>
  </metadata>
  <g
     inkscape:label="Ebene 1"
     inkscape:groupmode="layer"
     id="layer1"
     transform="translate(-36.22628,-14.141824)">
    <path
       style="fill:#000000;stroke-width:0.264582"
       d="m 41.228044,26.872805 c -0.08731,-0.0115 -0.396876,-0.04883 -0.687918,-0.08294 -0.29104,-0.03412 -0.558304,-0.08458 -0.59392,-0.112144 -0.03561,-0.02756 -0.376124,-0.529922 -0.756688,-1.116353 -0.380566,-0.586431 -0.83591,-1.268644 -1.011876,-1.516029 -0.43965,-0.618085 -0.67094,-1.126093 -0.745452,-1.637318 -0.109714,-0.752738 0.01248,-1.098631 0.75779,-2.144992 0.304112,-0.426953 0.418688,-0.760822 0.418688,-1.220024 0,-0.409493 -0.03521,-0.516867 -0.467966,-1.427041 L 37.78846,16.875129 v -0.555625 c 0,-0.503847 0.01356,-0.581332 0.145422,-0.831484 0.2013,-0.381853 0.425594,-0.622576 0.707038,-0.75882 0.329326,-0.159424 0.60677,-0.121942 1.290666,0.174363 0.305594,0.132401 0.6985,0.2815 0.873124,0.33133 1.146166,0.327062 1.056514,0.313859 2.143126,0.315634 1.300072,0.0021 1.723788,-0.0872 2.679322,-0.56485 0.769036,-0.384421 1.047452,-0.434852 1.415926,-0.256477 0.663746,0.321314 1.033602,1.288343 0.802022,2.096979 -0.04938,0.172444 -0.195404,0.510211 -0.324488,0.750595 -0.341402,0.635766 -0.5173,1.192511 -0.479006,1.516122 0.05759,0.486678 0.231922,0.885202 0.608012,1.389921 0.585182,0.785329 0.712698,1.206599 0.594948,1.965516 -0.08186,0.527609 -0.25752,0.885729 -0.965022,1.967421 -0.333132,0.509323 -0.783252,1.207567 -1.000268,1.551652 -0.217014,0.344086 -0.437092,0.648987 -0.48906,0.677559 -0.232884,0.128033 -1.274374,0.213402 -2.815928,0.230818 -0.873126,0.0099 -1.658938,0.0085 -1.74625,-0.003 z m 3.862916,-0.339097 c 0.20373,-0.03497 0.418832,-0.09436 0.478004,-0.131968 0.05917,-0.03761 0.32517,-0.410551 0.591104,-0.82875 0.265932,-0.418198 0.689466,-1.069923 0.941186,-1.448277 0.632488,-0.950679 0.821498,-1.357208 0.858502,-1.846495 0.04349,-0.575004 -0.09586,-0.982813 -0.558322,-1.6339 -0.537982,-0.757417 -0.61763,-0.96119 -0.614888,-1.573147 0.0029,-0.650824 0.0174,-0.692546 0.70352,-2.026864 0.354154,-0.688731 0.112372,-1.664699 -0.49035,-1.979326 -0.29199,-0.152422 -0.584956,-0.105708 -1.326672,0.211541 -1.096394,0.468953 -1.403898,0.53261 -2.592918,0.536763 -1.30126,0.0045 -1.64636,-0.06777 -3.517066,-0.73694 -0.514848,-0.184168 -0.74764,-0.155474 -1.074768,0.132477 -0.352226,0.310041 -0.480604,0.650303 -0.448046,1.187528 0.02368,0.390803 0.05415,0.484674 0.370106,1.140238 0.688784,1.429148 0.679502,1.934905 -0.05554,3.025873 -0.202328,0.300301 -0.403378,0.617439 -0.44678,0.704752 -0.137408,0.276423 -0.21324,0.713502 -0.186938,1.077445 0.03369,0.466085 0.178664,0.743467 1.11698,2.137102 0.416454,0.618541 0.869732,1.307061 1.007286,1.530045 0.137552,0.222983 0.290616,0.423543 0.340138,0.445686 0.04952,0.02214 0.316262,0.07032 0.592752,0.107062 0.635884,0.0845 3.771392,0.06207 4.312708,-0.03084 z"
       id="path2428" />
  </g>
</svg>
