<?xml version="1.0" encoding="UTF-8" standalone="no"?>
<svg
   xmlns:dc="http://purl.org/dc/elements/1.1/"
   xmlns:cc="http://creativecommons.org/ns#"
   xmlns:rdf="http://www.w3.org/1999/02/22-rdf-syntax-ns#"
   xmlns:svg="http://www.w3.org/2000/svg"
   xmlns="http://www.w3.org/2000/svg"
   xmlns:sodipodi="http://sodipodi.sourceforge.net/DTD/sodipodi-0.dtd"
   xmlns:inkscape="http://www.inkscape.org/namespaces/inkscape"
   width="13.229167mm"
   height="13.229167mm"
   viewBox="0 0 13.229169 13.229168"
   version="1.1"
   id="svg8"
   sodipodi:docname="VCS_resized_152.svg"
   inkscape:version="1.0.2-2 (e86c870879, 2021-01-15)">
  <defs
     id="defs2" />
  <sodipodi:namedview
     id="base"
     pagecolor="#ffffff"
     bordercolor="#666666"
     borderopacity="1.0"
     inkscape:pageopacity="0.0"
     inkscape:pageshadow="2"
     inkscape:zoom="2.8284271"
     inkscape:cx="0.35140066"
     inkscape:cy="49.299703"
     inkscape:document-units="mm"
     inkscape:current-layer="layer1"
     inkscape:document-rotation="0"
     showgrid="false"
     inkscape:window-width="958"
     inkscape:window-height="1008"
     inkscape:window-x="1913"
     inkscape:window-y="0"
     inkscape:window-maximized="0" />
  <metadata
     id="metadata5">
    <rdf:RDF>
      <cc:Work
         rdf:about="">
        <dc:format>image/svg+xml</dc:format>
        <dc:type
           rdf:resource="http://purl.org/dc/dcmitype/StillImage" />
        <dc:title></dc:title>
      </cc:Work>
    </rdf:RDF>
  </metadata>
  <g
     inkscape:label="Ebene 1"
     inkscape:groupmode="layer"
     id="layer1"
     transform="translate(-38.107006,-13.547732)">
    <path
       style="fill:#000000;stroke-width:0.264582"
       d="m 42.542855,26.206505 c -0.406068,-0.0382 -0.701288,-0.09142 -0.754958,-0.1361 -0.04848,-0.04035 -0.258824,-0.349916 -0.46744,-0.687917 -0.208616,-0.338001 -0.664596,-1.043172 -1.01329,-1.567047 -0.707418,-1.062819 -0.905944,-1.444364 -0.99223,-1.906957 -0.06325,-0.33908 -0.03803,-0.884169 0.05535,-1.196188 0.03172,-0.106001 0.215924,-0.42747 0.40934,-0.714375 0.445878,-0.661399 0.602368,-1.003595 0.637838,-1.394756 0.03775,-0.41636 -0.04,-0.695498 -0.413996,-1.486345 -0.370834,-0.784152 -0.457008,-1.164287 -0.372582,-1.643574 0.06949,-0.3945 0.216252,-0.692192 0.474462,-0.962393 0.458852,-0.480159 0.866316,-0.529242 1.675582,-0.201839 1.068494,0.432278 2.02975,0.599356 3.264814,0.567467 1.091038,-0.02817 1.679684,-0.139707 2.364348,-0.447995 0.77201,-0.347618 0.971266,-0.398942 1.263566,-0.325473 0.565458,0.142128 1.009836,0.681979 1.13193,1.375122 0.08017,0.455159 -0.009,0.827694 -0.374438,1.563973 -0.375266,0.756118 -0.449776,1.025434 -0.414282,1.497457 0.0323,0.429629 0.194996,0.813413 0.556262,1.312209 0.456874,0.630801 0.560502,0.877834 0.584634,1.393695 0.037,0.790855 -0.101374,1.160089 -0.902408,2.408027 -0.546594,0.851543 -0.696938,1.087433 -1.114998,1.749445 -0.455984,0.722068 -0.38077,0.667181 -1.02623,0.74888 -0.787058,0.09962 -3.720548,0.134715 -4.57127,0.05468 z m 4.06269,-0.252828 c 0.372032,-0.03179 0.739092,-0.09021 0.81569,-0.129824 0.08379,-0.04333 0.293854,-0.320703 0.527304,-0.696257 0.21342,-0.343331 0.583174,-0.921894 0.821678,-1.285696 0.970702,-1.480659 1.175092,-1.976645 1.08301,-2.628093 -0.05934,-0.41983 -0.186956,-0.701547 -0.586592,-1.294953 -0.500876,-0.743734 -0.540458,-0.863288 -0.514446,-1.553829 0.0238,-0.631865 0.09802,-0.861659 0.521254,-1.613959 0.261042,-0.464002 0.340336,-0.834026 0.265376,-1.238368 -0.115232,-0.621571 -0.495954,-1.028516 -1.008296,-1.077746 -0.21556,-0.02071 -0.36921,0.01618 -0.911512,0.218875 -1.111622,0.415482 -1.438868,0.473263 -2.689542,0.47489 -1.240358,0.0016 -1.618864,-0.05827 -2.970774,-0.470023 -0.877634,-0.267302 -1.140444,-0.288155 -1.447768,-0.114874 -0.421894,0.237882 -0.715132,0.910281 -0.636496,1.459495 0.0193,0.134774 0.184786,0.566512 0.367752,0.959418 0.23455,0.503677 0.361352,0.857013 0.429922,1.197992 0.09452,0.470036 0.0945,0.492708 -8e-4,0.807283 -0.05448,0.17994 -0.281534,0.620628 -0.511318,0.992424 -0.495648,0.80197 -0.5953,1.100131 -0.563306,1.685426 0.02969,0.543247 0.13535,0.754778 1.12331,2.248958 0.413742,0.62574 0.841516,1.284225 0.950608,1.463301 0.314992,0.517063 0.368538,0.551149 0.939152,0.59785 0.771394,0.06313 3.246766,0.06172 3.995738,-0.0023 z"
       id="path2476" />
  </g>
</svg>
