<?xml version="1.0" encoding="UTF-8" standalone="no"?>
<svg
   xmlns:dc="http://purl.org/dc/elements/1.1/"
   xmlns:cc="http://creativecommons.org/ns#"
   xmlns:rdf="http://www.w3.org/1999/02/22-rdf-syntax-ns#"
   xmlns:svg="http://www.w3.org/2000/svg"
   xmlns="http://www.w3.org/2000/svg"
   xmlns:sodipodi="http://sodipodi.sourceforge.net/DTD/sodipodi-0.dtd"
   xmlns:inkscape="http://www.inkscape.org/namespaces/inkscape"
   width="13.229167mm"
   height="13.229167mm"
   viewBox="0 0 13.229169 13.229168"
   version="1.1"
   id="svg8"
   sodipodi:docname="VCS_resized_333.svg"
   inkscape:version="1.0.2-2 (e86c870879, 2021-01-15)">
  <defs
     id="defs2" />
  <sodipodi:namedview
     id="base"
     pagecolor="#ffffff"
     bordercolor="#666666"
     borderopacity="1.0"
     inkscape:pageopacity="0.0"
     inkscape:pageshadow="2"
     inkscape:zoom="4"
     inkscape:cx="15.939342"
     inkscape:cy="25.643025"
     inkscape:document-units="mm"
     inkscape:current-layer="layer1"
     inkscape:document-rotation="0"
     showgrid="false"
     inkscape:window-width="958"
     inkscape:window-height="1008"
     inkscape:window-x="1913"
     inkscape:window-y="0"
     inkscape:window-maximized="0" />
  <metadata
     id="metadata5">
    <rdf:RDF>
      <cc:Work
         rdf:about="">
        <dc:format>image/svg+xml</dc:format>
        <dc:type
           rdf:resource="http://purl.org/dc/dcmitype/StillImage" />
        <dc:title></dc:title>
      </cc:Work>
    </rdf:RDF>
  </metadata>
  <g
     inkscape:label="Ebene 1"
     inkscape:groupmode="layer"
     id="layer1"
     transform="translate(-93.656311,15.207938)">
    <path
       style="fill:#000000;stroke-width:0.264582"
       d="m 99.709059,-2.8265948 c -0.32049,-0.2968138 -0.980196,-1.0466002 -1.072024,-1.2184074 -0.03545,-0.066329 -0.0982,-0.3877976 -0.139444,-0.714375 -0.177988,-1.4094052 -0.264298,-1.9644839 -0.3193,-2.0534781 -0.02834,-0.045858 -0.969612,-0.5129828 -1.63764,-0.8127112 -0.08731,-0.039175 -0.701598,-0.3398061 -1.36508,-0.6680677 -1.030154,-0.5096754 -1.204038,-0.6125914 -1.190626,-0.7046908 0.01804,-0.1239192 0.35731,-0.2404004 1.497374,-0.5141018 1.383422,-0.3321262 2.80878,-0.6867982 2.971834,-0.7394822 0.17588,-0.05683 0.186414,-0.07535 0.49434,-0.869162 0.510108,-1.315028 1.298787,-3.155563 1.453077,-3.391039 0.0466,-0.07115 0.11371,-0.112187 0.15655,-0.09575 0.0965,0.03702 0.38042,0.821808 1.01264,2.798871 0.2792,0.873125 0.54389,1.615634 0.58819,1.650022 0.0443,0.03439 0.71522,0.2701478 1.49092,0.5239128 1.92018,0.6281738 2.92768,1.019239 2.90736,1.128504 -0.0203,0.1092852 -0.50439,0.3464392 -1.52345,0.7463543 -0.45112,0.1770332 -1.25667,0.4933838 -1.79013,0.703001 -0.56799,0.2231884 -0.99087,0.4194732 -1.02048,0.4736688 -0.0479,0.087689 -0.31349,1.2655253 -0.49173,2.1807185 l -0.082,0.4211818 -0.49064,0.4941972 c -0.53527,0.5391404 -0.98719,0.9125182 -1.10408,0.912186 -0.041,-1.06e-4 -0.196513,-0.1132258 -0.345661,-0.2513542 z m 0.811231,-0.3847148 c 0.20675,-0.1753294 0.49428,-0.463316 0.63895,-0.6399704 0.22943,-0.280144 0.27455,-0.3763454 0.3531,-0.7527824 0.21162,-1.0142618 0.45715,-2.0525549 0.50984,-2.1560149 0.0424,-0.083196 0.78791,-0.4038712 2.27076,-0.976721 1.00266,-0.3873391 1.74625,-0.7130941 1.74625,-0.7649973 0,-0.022821 -0.0417,-0.057637 -0.0926,-0.077367 -0.45747,-0.1772148 -1.27038,-0.4580822 -2.47268,-0.8543312 -0.78518,-0.2587714 -1.46856,-0.5109406 -1.51864,-0.5603768 -0.0501,-0.049436 -0.23717,-0.5494984 -0.41577,-1.1112504 -0.85273,-2.682162 -1.02595,-3.126352 -1.12567,-2.886678 -0.0151,0.03638 -0.18098,0.423333 -0.36853,0.859895 -0.187549,0.436563 -0.512389,1.222375 -0.721863,1.74625 -0.574764,1.4374234 -0.464596,1.293379 -1.11591,1.4590558 -0.305594,0.077735 -1.067594,0.2651574 -1.693334,0.4164938 -1.705618,0.4125076 -1.957916,0.485973 -1.957916,0.5701098 0,0.043829 0.374086,0.254968 0.912812,0.5152036 0.502048,0.2425166 1.35699,0.6550535 1.899872,0.9167475 0.544042,0.262253 1.010322,0.5201106 1.038888,0.5745158 0.06644,0.1265264 0.235726,1.2425721 0.360124,2.3741241 0.04314,0.3924104 0.07017,0.4460816 0.439088,0.8718264 0.422362,0.4874196 0.751828,0.7950486 0.851479,0.7950486 0.0472,0 0.25499,-0.1434512 0.46175,-0.318781 z"
       id="path6247" />
  </g>
</svg>
