<?xml version="1.0" encoding="UTF-8" standalone="no"?>
<svg
   xmlns:dc="http://purl.org/dc/elements/1.1/"
   xmlns:cc="http://creativecommons.org/ns#"
   xmlns:rdf="http://www.w3.org/1999/02/22-rdf-syntax-ns#"
   xmlns:svg="http://www.w3.org/2000/svg"
   xmlns="http://www.w3.org/2000/svg"
   xmlns:sodipodi="http://sodipodi.sourceforge.net/DTD/sodipodi-0.dtd"
   xmlns:inkscape="http://www.inkscape.org/namespaces/inkscape"
   width="13.229167mm"
   height="13.229167mm"
   viewBox="0 0 13.229169 13.229168"
   version="1.1"
   id="svg8"
   sodipodi:docname="VCS_resized_105.svg"
   inkscape:version="1.0.2-2 (e86c870879, 2021-01-15)">
  <defs
     id="defs2" />
  <sodipodi:namedview
     id="base"
     pagecolor="#ffffff"
     bordercolor="#666666"
     borderopacity="1.0"
     inkscape:pageopacity="0.0"
     inkscape:pageshadow="2"
     inkscape:zoom="2.8284271"
     inkscape:cx="15.092229"
     inkscape:cy="50.668754"
     inkscape:document-units="mm"
     inkscape:current-layer="layer1"
     inkscape:document-rotation="0"
     showgrid="false"
     inkscape:window-width="958"
     inkscape:window-height="1008"
     inkscape:window-x="1913"
     inkscape:window-y="0"
     inkscape:window-maximized="0" />
  <metadata
     id="metadata5">
    <rdf:RDF>
      <cc:Work
         rdf:about="">
        <dc:format>image/svg+xml</dc:format>
        <dc:type
           rdf:resource="http://purl.org/dc/dcmitype/StillImage" />
        <dc:title></dc:title>
      </cc:Work>
    </rdf:RDF>
  </metadata>
  <g
     inkscape:label="Ebene 1"
     inkscape:groupmode="layer"
     id="layer1"
     transform="translate(-34.206833,-13.185505)">
    <path
       style="fill:#000000;stroke-width:0.264582"
       d="m 39.363475,25.785748 c -0.174626,-0.04079 -0.477872,-0.109072 -0.67388,-0.151739 -0.35032,-0.07626 -0.519286,-0.158406 -0.992996,-0.482781 -1.101928,-0.75455 -1.546944,-1.202786 -1.801698,-1.81473 -0.29593,-0.710856 -0.172798,-1.041567 0.74161,-1.991857 0.688964,-0.716 0.90152,-0.999357 1.027054,-1.369166 0.10412,-0.306727 0.107888,-0.55929 0.01362,-0.913246 -0.109052,-0.409492 -0.210678,-0.589493 -0.682372,-1.208642 -0.83416,-1.094922 -1.075964,-1.559745 -1.133846,-2.179593 -0.08875,-0.950351 0.421686,-1.83568 1.102602,-1.912429 0.610692,-0.06883 1.044634,0.227493 2.225312,1.519607 0.675926,0.739724 1.182878,0.997925 1.841982,0.93816 0.50098,-0.04543 0.756758,-0.201947 1.348856,-0.825413 0.91985,-0.968584 1.39051,-1.427056 1.549282,-1.50916 0.287328,-0.148582 0.655658,-0.162796 0.941546,-0.03633 0.42172,0.186547 0.632366,0.443783 0.787282,0.961406 0.2389,0.798243 0.03653,1.610285 -0.614022,2.463828 -0.687202,0.901632 -0.799692,1.064723 -0.941646,1.365236 -0.237948,0.503726 -0.29302,0.865454 -0.187192,1.229492 0.121576,0.418209 0.313336,0.678116 1.089232,1.476318 0.63279,0.650983 0.679994,0.71425 0.783906,1.050678 0.135318,0.438106 0.13597,0.48888 0.01086,0.844836 -0.119876,0.341069 -0.415064,0.746824 -0.834246,1.146724 -0.834088,0.795723 -1.307904,1.083636 -2.135212,1.297454 -0.518448,0.133992 -0.642374,0.144668 -1.852084,0.159557 -0.973004,0.01198 -1.375672,-0.0025 -1.613958,-0.05821 z m 3.294182,-0.360874 c 0.559354,-0.136804 0.927708,-0.312899 1.440796,-0.688785 0.764722,-0.56023 1.261842,-1.125983 1.414262,-1.609518 0.0758,-0.240464 0.07942,-0.319635 0.02408,-0.526541 -0.08293,-0.310083 -0.175654,-0.438075 -0.855336,-1.180727 -0.725838,-0.793083 -0.825148,-0.928183 -0.956704,-1.301494 -0.2744,-0.778657 0.01448,-1.654125 0.932512,-2.826006 0.148198,-0.189177 0.347778,-0.469018 0.443512,-0.621869 0.469414,-0.74948 0.500478,-1.681257 0.07271,-2.181005 -0.509898,-0.595701 -1.062736,-0.482545 -1.867728,0.382292 -1.422372,1.528113 -1.601602,1.649696 -2.434168,1.651257 -0.431748,8e-4 -0.54379,-0.01839 -0.79375,-0.136023 -0.41885,-0.197113 -0.77402,-0.49839 -1.31852,-1.11845 -1.051904,-1.197875 -1.763298,-1.447704 -2.319272,-0.814485 -0.224784,0.256014 -0.303742,0.521138 -0.301584,1.012658 0.0016,0.383268 0.02211,0.465903 0.215878,0.873125 0.11771,0.247386 0.398232,0.696436 0.623382,0.99789 0.516688,0.691798 0.691912,0.977015 0.853422,1.389138 0.195788,0.49959 0.220882,0.911563 0.08111,1.331578 -0.152252,0.457517 -0.321976,0.701751 -0.927674,1.334936 -0.278406,0.291041 -0.594434,0.655909 -0.702282,0.810817 -0.169076,0.24285 -0.196336,0.323038 -0.19788,0.582083 -0.0031,0.52648 0.364678,1.084789 1.056544,1.603735 0.687726,0.51584 0.87784,0.643956 1.164166,0.784515 0.289722,0.142225 1.048026,0.339929 1.508126,0.393195 0.101864,0.01179 0.661458,0.01445 1.243542,0.0059 0.916384,-0.01345 1.131096,-0.03333 1.600848,-0.148222 z"
       id="path1722" />
  </g>
</svg>
