<?xml version="1.0" encoding="UTF-8" standalone="no"?>
<svg
   xmlns:dc="http://purl.org/dc/elements/1.1/"
   xmlns:cc="http://creativecommons.org/ns#"
   xmlns:rdf="http://www.w3.org/1999/02/22-rdf-syntax-ns#"
   xmlns:svg="http://www.w3.org/2000/svg"
   xmlns="http://www.w3.org/2000/svg"
   xmlns:sodipodi="http://sodipodi.sourceforge.net/DTD/sodipodi-0.dtd"
   xmlns:inkscape="http://www.inkscape.org/namespaces/inkscape"
   width="13.229167mm"
   height="13.229167mm"
   viewBox="0 0 13.229169 13.229168"
   version="1.1"
   id="svg8"
   sodipodi:docname="VCS_resized_273.svg"
   inkscape:version="1.0.2-2 (e86c870879, 2021-01-15)">
  <defs
     id="defs2" />
  <sodipodi:namedview
     id="base"
     pagecolor="#ffffff"
     bordercolor="#666666"
     borderopacity="1.0"
     inkscape:pageopacity="0.0"
     inkscape:pageshadow="2"
     inkscape:zoom="4"
     inkscape:cx="26.98132"
     inkscape:cy="34.386313"
     inkscape:document-units="mm"
     inkscape:current-layer="layer1"
     inkscape:document-rotation="0"
     showgrid="false"
     inkscape:window-width="958"
     inkscape:window-height="1008"
     inkscape:window-x="1913"
     inkscape:window-y="0"
     inkscape:window-maximized="0" />
  <metadata
     id="metadata5">
    <rdf:RDF>
      <cc:Work
         rdf:about="">
        <dc:format>image/svg+xml</dc:format>
        <dc:type
           rdf:resource="http://purl.org/dc/dcmitype/StillImage" />
        <dc:title></dc:title>
      </cc:Work>
    </rdf:RDF>
  </metadata>
  <g
     inkscape:label="Ebene 1"
     inkscape:groupmode="layer"
     id="layer1"
     transform="translate(-78.552612,14.018991)">
    <path
       style="fill:#000000;stroke-width:0.264582"
       d="m 81.666233,-1.150275 c -0.01962,-0.01961 -0.03606,-0.2162334 -0.03656,-0.4369404 -4e-4,-0.2207064 -0.0357,-1.044222 -0.07822,-1.8300346 -0.04252,-0.7858124 -0.07783,-1.5628688 -0.07847,-1.7267924 -0.001,-0.2750356 -0.02056,-0.3225108 -0.252506,-0.6150204 -0.345644,-0.435884 -0.87016,-1.0532522 -1.80924,-2.1295216 -0.438298,-0.502329 -0.796906,-0.9455266 -0.796906,-0.9848834 0,-0.039357 0.05358,-0.083875 0.119062,-0.098929 0.06548,-0.015054 0.547688,-0.1325022 1.071562,-0.260994 0.523876,-0.1284916 1.401932,-0.336894 1.951234,-0.463115 l 0.998736,-0.2294938 0.218348,-0.3423494 c 0.120092,-0.188291 0.635068,-1.033635 1.14439,-1.878541 0.809412,-1.342717 0.942364,-1.536193 1.055636,-1.536193 0.113832,0 0.26291,0.222059 1.225622,1.825625 0.751356,1.251515 1.13805,1.846828 1.229654,1.8930504 0.0735,0.037084 0.935162,0.2587192 1.914812,0.4925224 1.913926,0.4567778 2.15075,0.5225316 2.176216,0.604219 0.0091,0.029104 -0.116806,0.207698 -0.279732,0.396875 -0.162924,0.189177 -0.584554,0.6892396 -0.936954,1.11125 -0.3524,0.4220104 -0.859056,1.0201084 -1.1259,1.3291068 -0.559172,0.6475054 -0.528756,0.5490862 -0.578646,1.8723516 -0.01866,0.4947708 -0.06146,1.3758332 -0.09512,1.9579166 l -0.06121,1.0583334 -3.470074,0.013606 c -1.90854,0.00748 -3.48612,-0.00244 -3.50573,-0.022048 z m 6.757248,-0.7720792 c 0.0187,-0.2983176 0.05731,-1.0900832 0.08579,-1.759479 0.02848,-0.669396 0.06488,-1.3675762 0.0809,-1.5515126 l 0.02912,-0.334429 0.805126,-0.939482 c 0.822778,-0.9600808 1.717148,-2.0241354 1.80867,-2.151826 0.02808,-0.039168 0.03512,-0.087145 0.01564,-0.1066128 -0.03256,-0.032563 -0.79966,-0.2235984 -2.955644,-0.736065 -0.45386,-0.1078802 -0.850394,-0.2117482 -0.881184,-0.2308178 -0.0504,-0.031214 -1.483,-2.3611646 -1.997908,-3.2493586 -0.11389,-0.196453 -0.224886,-0.357188 -0.246658,-0.357188 -0.02177,0 -0.139174,0.172641 -0.26089,0.383646 -0.571428,0.990629 -1.81891,3.041733 -1.912914,3.1452072 -0.108568,0.1195056 -0.09111,0.1147208 -2.474202,0.6780816 -1.321556,0.3124142 -1.43637,0.3472234 -1.417664,0.4298072 0.0085,0.03733 0.363172,0.4678496 0.788262,0.9567112 0.425088,0.488861 1.000798,1.1618456 1.279352,1.4955208 0.47545,0.569532 0.508454,0.6246176 0.538976,0.8995832 0.03368,0.3034264 0.114138,1.8074906 0.165696,3.0974846 0.01628,0.4074582 0.03888,0.7705988 0.05021,0.8069792 0.01618,0.051967 0.711332,0.066146 3.242954,0.066146 h 3.222356 z"
       id="path5283" />
  </g>
</svg>
