<?xml version="1.0" encoding="UTF-8" standalone="no"?>
<svg
   xmlns:dc="http://purl.org/dc/elements/1.1/"
   xmlns:cc="http://creativecommons.org/ns#"
   xmlns:rdf="http://www.w3.org/1999/02/22-rdf-syntax-ns#"
   xmlns:svg="http://www.w3.org/2000/svg"
   xmlns="http://www.w3.org/2000/svg"
   xmlns:sodipodi="http://sodipodi.sourceforge.net/DTD/sodipodi-0.dtd"
   xmlns:inkscape="http://www.inkscape.org/namespaces/inkscape"
   width="13.229167mm"
   height="13.229167mm"
   viewBox="0 0 13.229167 13.229167"
   version="1.1"
   id="svg8"
   sodipodi:docname="VCS_resized_18.svg"
   inkscape:version="1.0.2-2 (e86c870879, 2021-01-15)">
  <defs
     id="defs2" />
  <sodipodi:namedview
     id="base"
     pagecolor="#ffffff"
     bordercolor="#666666"
     borderopacity="1.0"
     inkscape:pageopacity="0.0"
     inkscape:pageshadow="2"
     inkscape:zoom="2.8284271"
     inkscape:cx="-8.2425783"
     inkscape:cy="57.387492"
     inkscape:document-units="mm"
     inkscape:current-layer="layer1"
     inkscape:document-rotation="0"
     showgrid="false"
     inkscape:window-width="958"
     inkscape:window-height="1008"
     inkscape:window-x="1913"
     inkscape:window-y="0"
     inkscape:window-maximized="0" />
  <metadata
     id="metadata5">
    <rdf:RDF>
      <cc:Work
         rdf:about="">
        <dc:format>image/svg+xml</dc:format>
        <dc:type
           rdf:resource="http://purl.org/dc/dcmitype/StillImage" />
        <dc:title></dc:title>
      </cc:Work>
    </rdf:RDF>
  </metadata>
  <g
     inkscape:label="Ebene 1"
     inkscape:groupmode="layer"
     id="layer1"
     transform="translate(-40.380836,-11.407838)">
    <path
       style="fill:#000000;stroke-width:0.264582"
       d="m 44.499737,23.171391 c -0.180862,-0.199877 -0.314376,-0.619451 -0.340984,-1.071562 -0.02968,-0.50423 0.03925,-0.843168 0.300088,-1.475716 0.314318,-0.762231 0.40573,-1.588279 0.216754,-1.958703 -0.139658,-0.273754 -0.552908,-0.634842 -1.134032,-0.990892 -1.17382,-0.71919 -1.587482,-1.076156 -1.838902,-1.586861 -0.198898,-0.40402 -0.17015,-0.536898 0.151672,-0.70108 0.579738,-0.29576 1.369912,-0.280673 2.448212,0.04674 1.942006,0.589675 2.153388,0.523658 3.137738,-0.979951 0.542142,-0.82813 0.993112,-1.28555 1.489178,-1.510478 0.18971,-0.08602 0.389384,-0.156397 0.44372,-0.156397 0.274794,0 0.50549,0.609443 0.500776,1.322917 -0.003,0.448578 -0.02609,0.565919 -0.214784,1.089739 -0.26436,0.733882 -0.382462,1.24654 -0.382462,1.660196 0,0.555031 0.194138,0.769266 1.471636,1.623978 1.054076,0.70523 1.530642,1.206763 1.650136,1.736584 0.05427,0.240623 -0.03075,0.353034 -0.381096,0.503855 -0.222222,0.09567 -0.378396,0.120629 -0.7563,0.120892 -0.476466,3.2e-4 -0.532766,-0.01124 -1.74625,-0.358823 -0.30683,-0.08789 -0.678168,-0.147884 -1.043852,-0.168655 -0.557354,-0.03166 -0.571682,-0.02957 -0.79375,0.115795 -0.353394,0.231327 -0.70005,0.630879 -1.178256,1.358045 -0.519844,0.790484 -0.771442,1.049825 -1.254452,1.293065 -0.39726,0.200057 -0.619224,0.226077 -0.74479,0.08731 z m 0.772406,-0.366029 c 0.268204,-0.138694 0.598352,-0.517952 1.070088,-1.229262 0.48398,-0.729774 0.96511,-1.239372 1.360658,-1.441166 0.198336,-0.101184 0.275376,-0.109578 0.725876,-0.07909 0.562926,0.03809 0.940696,0.117911 1.719808,0.363369 0.929858,0.292951 1.868902,0.213149 1.923506,-0.163465 0.02395,-0.165204 -0.169604,-0.520347 -0.431788,-0.792256 -0.12125,-0.125747 -0.589548,-0.476078 -1.040664,-0.778513 -1.136912,-0.762206 -1.520478,-1.146127 -1.55529,-1.556725 -0.03351,-0.39526 0.0758,-1.112404 0.241182,-1.582308 0.324158,-0.92103 0.369348,-1.122245 0.347624,-1.547867 -0.01382,-0.270814 -0.05599,-0.469784 -0.128986,-0.608541 -0.101146,-0.192279 -0.122734,-0.205257 -0.320506,-0.192673 -0.458984,0.0292 -0.94083,0.442139 -1.418486,1.215618 -0.415358,0.672601 -0.814424,1.173385 -1.117236,1.40201 l -0.284716,0.214963 -0.540854,-0.03103 c -0.515182,-0.02955 -0.727292,-0.07632 -2.101898,-0.463439 -0.57355,-0.161524 -1.180476,-0.158136 -1.516534,0.0085 -0.220088,0.10911 -0.258546,0.151718 -0.273018,0.302476 -0.03006,0.313232 0.338004,0.699834 1.207468,1.268272 0.334698,0.218818 0.738364,0.483554 0.897036,0.588302 0.158672,0.104747 0.42607,0.328949 0.594216,0.498225 0.372226,0.374725 0.43974,0.576263 0.39324,1.173892 -0.03836,0.493059 -0.106268,0.757337 -0.38071,1.481666 -0.184156,0.486043 -0.200772,0.574447 -0.203908,1.084792 -0.0028,0.448704 0.01582,0.591266 0.09657,0.740833 0.05499,0.101865 0.126432,0.203573 0.15875,0.226018 0.07611,0.05286 0.38334,-0.0016 0.57857,-0.102568 z"
       id="path280" />
  </g>
</svg>
