<?xml version="1.0" encoding="UTF-8" standalone="no"?>
<svg
   xmlns:dc="http://purl.org/dc/elements/1.1/"
   xmlns:cc="http://creativecommons.org/ns#"
   xmlns:rdf="http://www.w3.org/1999/02/22-rdf-syntax-ns#"
   xmlns:svg="http://www.w3.org/2000/svg"
   xmlns="http://www.w3.org/2000/svg"
   xmlns:sodipodi="http://sodipodi.sourceforge.net/DTD/sodipodi-0.dtd"
   xmlns:inkscape="http://www.inkscape.org/namespaces/inkscape"
   width="13.229167mm"
   height="13.229167mm"
   viewBox="0 0 13.229169 13.229168"
   version="1.1"
   id="svg8"
   sodipodi:docname="VCS_resized_175.svg"
   inkscape:version="1.0.2-2 (e86c870879, 2021-01-15)">
  <defs
     id="defs2" />
  <sodipodi:namedview
     id="base"
     pagecolor="#ffffff"
     bordercolor="#666666"
     borderopacity="1.0"
     inkscape:pageopacity="0.0"
     inkscape:pageshadow="2"
     inkscape:zoom="2.8284271"
     inkscape:cx="2.4923062"
     inkscape:cy="54.663798"
     inkscape:document-units="mm"
     inkscape:current-layer="layer1"
     inkscape:document-rotation="0"
     showgrid="false"
     inkscape:window-width="958"
     inkscape:window-height="1008"
     inkscape:window-x="1913"
     inkscape:window-y="0"
     inkscape:window-maximized="0" />
  <metadata
     id="metadata5">
    <rdf:RDF>
      <cc:Work
         rdf:about="">
        <dc:format>image/svg+xml</dc:format>
        <dc:type
           rdf:resource="http://purl.org/dc/dcmitype/StillImage" />
        <dc:title></dc:title>
      </cc:Work>
    </rdf:RDF>
  </metadata>
  <g
     inkscape:label="Ebene 1"
     inkscape:groupmode="layer"
     id="layer1"
     transform="translate(-37.540558,-12.128482)">
    <path
       style="fill:#000000;stroke-width:0.264582"
       d="m 40.988655,24.619019 c -0.0848,-0.04467 -0.265228,-0.314307 -0.505908,-0.756032 -0.398298,-0.731003 -0.70068,-1.268366 -1.26478,-2.247637 -0.465834,-0.808686 -0.531702,-1.034905 -0.531554,-1.825625 l 1.16e-4,-0.635 0.2463,-0.582084 c 0.44726,-1.057019 0.453564,-1.4926 0.03657,-2.526867 -0.17959,-0.445438 -0.222834,-0.622117 -0.242782,-0.991928 l -0.02427,-0.449955 0.207448,-0.31794 c 0.344492,-0.527975 0.860484,-0.92757 1.478034,-1.144621 0.250058,-0.08789 0.430992,-0.107434 0.962204,-0.103946 0.649452,0.0043 2.098132,-0.110746 2.604458,-0.206768 0.20085,-0.03809 0.43155,-0.02495 0.963964,0.0549 0.384956,0.05773 0.73564,0.121441 0.779296,0.141568 0.04366,0.02013 0.555626,0.03786 1.137708,0.03941 1.196886,0.0032 1.15061,-0.009 1.790098,0.471902 0.43707,0.328691 0.808806,0.766497 0.882174,1.038964 0.07689,0.285539 -0.01904,0.884162 -0.212226,1.324309 -0.250828,0.57149 -0.333786,0.969811 -0.303482,1.457173 0.02302,0.370311 0.06683,0.520467 0.331908,1.137708 0.29549,0.688054 0.30517,0.725468 0.298766,1.154807 -0.01182,0.793266 -0.18308,1.254339 -0.9653,2.598994 -0.262426,0.451114 -0.573522,1.010708 -0.691328,1.243541 -0.316476,0.625499 -0.59095,1.076851 -0.680818,1.119557 -0.04366,0.02075 -1.448594,0.04611 -3.122084,0.05636 -2.437134,0.01493 -3.06894,0.0048 -3.174514,-0.05079 z m 6.049426,-0.248563 c 0.09281,-0.03529 0.201786,-0.173831 0.33763,-0.429244 0.110322,-0.207427 0.472266,-0.857274 0.804322,-1.444105 1.359508,-2.402615 1.406918,-2.657543 0.770426,-4.142622 -0.238852,-0.557296 -0.280006,-0.797599 -0.228264,-1.332843 0.04775,-0.493952 0.130518,-0.803223 0.327188,-1.22257 0.0739,-0.157566 0.163394,-0.448956 0.198882,-0.647533 0.05785,-0.32371 0.05438,-0.383538 -0.03354,-0.578521 -0.12502,-0.277245 -0.770646,-0.875211 -1.155052,-1.069787 -0.282984,-0.143239 -0.319328,-0.14809 -1.094184,-0.146053 -0.621198,0.0016 -0.973674,-0.02753 -1.567016,-0.129653 -0.895812,-0.154181 -1.125306,-0.15952 -2.14246,-0.04984 -0.417844,0.04506 -1.176434,0.101472 -1.685756,0.125365 -0.823668,0.03864 -0.964676,0.05911 -1.275514,0.185199 -0.391926,0.158977 -0.831676,0.521042 -1.135446,0.93486 -0.19531,0.266063 -0.196378,0.270346 -0.168152,0.674063 0.02174,0.310917 0.07398,0.509596 0.222536,0.84632 0.423368,0.959624 0.44635,1.65034 0.08475,2.547209 -0.46084,1.143024 -0.473348,1.685736 -0.05836,2.532408 0.138256,0.282074 0.436272,0.822424 0.662258,1.200778 0.225986,0.378354 0.589248,1.015559 0.807248,1.416011 0.282942,0.519743 0.428728,0.735586 0.509458,0.754277 0.36292,0.08402 5.591724,0.06271 5.819048,-0.02372 z"
       id="path2844" />
  </g>
</svg>
