<?xml version="1.0" encoding="UTF-8" standalone="no"?>
<svg
   xmlns:dc="http://purl.org/dc/elements/1.1/"
   xmlns:cc="http://creativecommons.org/ns#"
   xmlns:rdf="http://www.w3.org/1999/02/22-rdf-syntax-ns#"
   xmlns:svg="http://www.w3.org/2000/svg"
   xmlns="http://www.w3.org/2000/svg"
   xmlns:sodipodi="http://sodipodi.sourceforge.net/DTD/sodipodi-0.dtd"
   xmlns:inkscape="http://www.inkscape.org/namespaces/inkscape"
   width="13.229167mm"
   height="13.229167mm"
   viewBox="0 0 13.229169 13.229168"
   version="1.1"
   id="svg8"
   sodipodi:docname="VCS_resized_109.svg"
   inkscape:version="1.0.2-2 (e86c870879, 2021-01-15)">
  <defs
     id="defs2" />
  <sodipodi:namedview
     id="base"
     pagecolor="#ffffff"
     bordercolor="#666666"
     borderopacity="1.0"
     inkscape:pageopacity="0.0"
     inkscape:pageshadow="2"
     inkscape:zoom="2.8284271"
     inkscape:cx="-4.0887476"
     inkscape:cy="50.026741"
     inkscape:document-units="mm"
     inkscape:current-layer="layer1"
     inkscape:document-rotation="0"
     showgrid="false"
     inkscape:window-width="958"
     inkscape:window-height="1008"
     inkscape:window-x="1913"
     inkscape:window-y="0"
     inkscape:window-maximized="0" />
  <metadata
     id="metadata5">
    <rdf:RDF>
      <cc:Work
         rdf:about="">
        <dc:format>image/svg+xml</dc:format>
        <dc:type
           rdf:resource="http://purl.org/dc/dcmitype/StillImage" />
        <dc:title></dc:title>
      </cc:Work>
    </rdf:RDF>
  </metadata>
  <g
     inkscape:label="Ebene 1"
     inkscape:groupmode="layer"
     id="layer1"
     transform="translate(-39.281799,-13.355371)">
    <path
       style="fill:#000000;stroke-width:0.264582"
       d="m 44.790087,26.056769 c -0.708282,-0.13344 -1.471886,-0.349214 -1.62739,-0.459856 -0.448308,-0.318976 -1.480222,-1.198464 -1.716632,-1.463068 -0.347618,-0.389071 -0.586394,-0.881692 -0.61429,-1.267344 -0.03329,-0.460288 0.131344,-0.749555 0.854822,-1.501904 0.904538,-0.940636 1.161342,-1.45788 1.04041,-2.095551 -0.0844,-0.445038 -0.258664,-0.76716 -0.817792,-1.51166 -0.755514,-1.005991 -0.982644,-1.513385 -0.981416,-2.192416 0.0026,-1.44062 1.113844,-2.160079 2.125276,-1.375983 0.125888,0.09759 0.59798,0.53681 1.049096,0.976038 0.969374,0.943833 1.127512,1.037488 1.811906,1.073081 0.418034,0.02174 0.489588,0.01082 0.743794,-0.113555 0.341584,-0.167122 0.822958,-0.59529 1.346694,-1.197844 0.470822,-0.541678 0.951416,-0.930623 1.248882,-1.010723 0.78868,-0.212369 1.442184,0.353 1.569596,1.357908 0.10047,0.792432 -0.09081,1.316972 -0.848298,2.32631 -0.533984,0.71152 -0.710622,1.013415 -0.846042,1.445988 -0.127754,0.408086 -0.131952,0.613307 -0.01934,0.945076 0.127304,0.375023 0.340552,0.659536 1.023012,1.364887 0.523464,0.541023 0.633196,0.684596 0.738556,0.966326 0.29052,0.776843 -0.07395,1.486661 -1.344812,2.619094 -0.703504,0.626873 -0.918878,0.748689 -1.673888,0.946751 -0.630386,0.165371 -0.696272,0.172081 -1.792154,0.182526 -0.62574,0.006 -1.19724,-3.8e-4 -1.27,-0.01408 z m 2.958468,-0.437945 c 0.583894,-0.142582 0.670596,-0.180333 1.048308,-0.456436 0.226472,-0.165549 0.699534,-0.590683 1.05125,-0.944744 0.692512,-0.697128 0.816924,-0.911401 0.814562,-1.402913 -0.0018,-0.371938 -0.14666,-0.614128 -0.75614,-1.264071 -0.936364,-0.998531 -1.196862,-1.495178 -1.12365,-2.142279 0.07005,-0.619189 0.336688,-1.148241 1.085438,-2.153703 0.573184,-0.769702 0.76414,-1.322679 0.680204,-1.969758 -0.08432,-0.650027 -0.4473,-1.047916 -0.953624,-1.04533 -0.422904,0.0022 -0.645,0.157998 -1.576328,1.106055 -0.710734,0.723501 -0.931636,0.916243 -1.184334,1.033357 -0.594896,0.275709 -1.33281,0.231551 -1.93832,-0.115992 -0.13097,-0.07517 -0.60722,-0.497393 -1.058334,-0.93827 -0.92071,-0.899816 -1.207296,-1.086312 -1.669326,-1.086312 -0.515092,0 -0.886546,0.423805 -0.956288,1.091065 -0.06369,0.60934 0.146608,1.167455 0.756916,2.008815 0.551862,0.760784 0.716914,1.031742 0.867712,1.424495 0.207694,0.540933 0.23492,0.87818 0.104884,1.299186 -0.135096,0.437391 -0.327122,0.726364 -0.86854,1.307027 -0.66834,0.716787 -0.838864,0.946723 -0.91243,1.230325 -0.160796,0.619884 0.262398,1.250607 1.512906,2.254814 0.679702,0.545828 0.830692,0.627276 1.402292,0.756428 0.29104,0.06576 0.552978,0.127612 0.582082,0.137444 0.0291,0.0098 0.59321,0.01976 1.253568,0.02206 1.155912,0.004 1.224366,-0.0016 1.837192,-0.15126 z"
       id="path1786" />
  </g>
</svg>
