<?xml version="1.0" encoding="UTF-8" standalone="no"?>
<svg
   xmlns:dc="http://purl.org/dc/elements/1.1/"
   xmlns:cc="http://creativecommons.org/ns#"
   xmlns:rdf="http://www.w3.org/1999/02/22-rdf-syntax-ns#"
   xmlns:svg="http://www.w3.org/2000/svg"
   xmlns="http://www.w3.org/2000/svg"
   xmlns:sodipodi="http://sodipodi.sourceforge.net/DTD/sodipodi-0.dtd"
   xmlns:inkscape="http://www.inkscape.org/namespaces/inkscape"
   width="13.229167mm"
   height="13.229167mm"
   viewBox="0 0 13.229169 13.229168"
   version="1.1"
   id="svg8"
   sodipodi:docname="VCS_resized_171.svg"
   inkscape:version="1.0.2-2 (e86c870879, 2021-01-15)">
  <defs
     id="defs2" />
  <sodipodi:namedview
     id="base"
     pagecolor="#ffffff"
     bordercolor="#666666"
     borderopacity="1.0"
     inkscape:pageopacity="0.0"
     inkscape:pageshadow="2"
     inkscape:zoom="2.8284271"
     inkscape:cx="-6.0650072"
     inkscape:cy="33.281965"
     inkscape:document-units="mm"
     inkscape:current-layer="layer1"
     inkscape:document-rotation="0"
     showgrid="false"
     inkscape:window-width="958"
     inkscape:window-height="1008"
     inkscape:window-x="1913"
     inkscape:window-y="0"
     inkscape:window-maximized="0" />
  <metadata
     id="metadata5">
    <rdf:RDF>
      <cc:Work
         rdf:about="">
        <dc:format>image/svg+xml</dc:format>
        <dc:type
           rdf:resource="http://purl.org/dc/dcmitype/StillImage" />
        <dc:title></dc:title>
      </cc:Work>
    </rdf:RDF>
  </metadata>
  <g
     inkscape:label="Ebene 1"
     inkscape:groupmode="layer"
     id="layer1"
     transform="translate(-39.80468,-17.785759)">
    <path
       style="fill:#000000;stroke-width:0.264582"
       d="m 43.618442,30.260696 -0.369744,-0.03399 -0.441072,-0.79375 c -0.242588,-0.436562 -0.7003,-1.224955 -1.017136,-1.751983 -0.666832,-1.109216 -0.777484,-1.362434 -0.850954,-1.947351 -0.07143,-0.568693 0.0063,-0.974356 0.310364,-1.618791 0.312246,-0.661876 0.39532,-0.955235 0.3971,-1.402291 0.0014,-0.37352 -0.03032,-0.487805 -0.4124,-1.481667 -0.197586,-0.513962 -0.208636,-1.058915 -0.02888,-1.42414 0.184238,-0.374325 0.721066,-0.90081 1.0962,-1.075079 0.261476,-0.12147 0.377184,-0.143374 0.733762,-0.138902 0.232832,0.0029 0.78052,0.0098 1.217084,0.0152 0.436562,0.0054 1.150936,-0.01845 1.5875,-0.05309 0.673712,-0.05346 0.937794,-0.04986 1.746248,0.02379 0.918022,0.08363 1.239782,0.07963 1.693334,-0.02106 0.38809,-0.08615 0.884624,-0.02805 1.195252,0.139859 0.346526,0.187314 1.003246,0.824767 1.153872,1.120019 0.19749,0.387111 0.128938,1.015263 -0.181484,1.663008 -0.408688,0.852786 -0.37149,1.488255 0.15034,2.568412 l 0.325848,0.674482 -0.0046,0.555625 c -0.004,0.485981 -0.02533,0.611365 -0.17025,1.000324 -0.09113,0.244584 -0.288832,0.649397 -0.439344,0.899583 -0.539464,0.896719 -0.986736,1.678561 -1.180268,2.063132 -0.252648,0.502049 -0.544254,0.940768 -0.655974,0.986911 -0.114686,0.04737 -5.374726,0.0759 -5.854838,0.03175 z m 4.655992,-0.216077 c 0.523874,-0.0234 0.990598,-0.05866 1.037162,-0.07836 0.04656,-0.0197 0.186518,-0.219195 0.311008,-0.443315 0.290202,-0.522454 1.020694,-1.804711 1.3777,-2.418323 0.425098,-0.730649 0.594608,-1.19325 0.622904,-1.699943 0.02794,-0.500356 0.0018,-0.595927 -0.402068,-1.475057 -0.259698,-0.565172 -0.294258,-0.681552 -0.314284,-1.058333 -0.02832,-0.532727 0.07863,-1.055215 0.329902,-1.611727 0.248334,-0.550001 0.298664,-1.001494 0.145034,-1.301023 -0.146144,-0.284934 -0.691148,-0.8114 -1.030062,-0.995025 l -0.27813,-0.150691 -0.687916,0.04062 c -0.846446,0.04999 -0.903868,0.04909 -1.984376,-0.03097 -0.6393,-0.04737 -1.07152,-0.05016 -1.613958,-0.01041 -0.407458,0.02986 -1.25392,0.05297 -1.881026,0.05136 -1.13452,-0.0029 -1.141816,-0.0022 -1.466406,0.143471 -0.389002,0.174573 -0.862298,0.642141 -1.027072,1.014639 -0.151964,0.343543 -0.105338,0.735444 0.16197,1.361345 0.290428,0.68004 0.341242,0.893926 0.341038,1.435491 -1.64e-4,0.431514 -0.01896,0.520985 -0.2002,0.9525 -0.445676,1.06116 -0.477414,1.177133 -0.477904,1.74625 -4e-4,0.52519 0.0014,0.532784 0.244646,1.010612 0.134806,0.264795 0.382462,0.705326 0.550346,0.978958 0.417146,0.679901 1.008686,1.705463 1.189196,2.061721 0.08199,0.161814 0.19027,0.328501 0.240628,0.370416 0.0653,0.05435 0.29799,0.08464 0.811296,0.105605 1.13735,0.04645 2.962752,0.04654 4.000572,2.2e-4 z"
       id="path2780" />
  </g>
</svg>
