<?xml version="1.0" encoding="UTF-8" standalone="no"?>
<svg
   xmlns:dc="http://purl.org/dc/elements/1.1/"
   xmlns:cc="http://creativecommons.org/ns#"
   xmlns:rdf="http://www.w3.org/1999/02/22-rdf-syntax-ns#"
   xmlns:svg="http://www.w3.org/2000/svg"
   xmlns="http://www.w3.org/2000/svg"
   xmlns:sodipodi="http://sodipodi.sourceforge.net/DTD/sodipodi-0.dtd"
   xmlns:inkscape="http://www.inkscape.org/namespaces/inkscape"
   width="13.229167mm"
   height="13.229167mm"
   viewBox="0 0 13.229167 13.229167"
   version="1.1"
   id="svg8"
   sodipodi:docname="VCS_resized_23.svg"
   inkscape:version="1.0.2-2 (e86c870879, 2021-01-15)">
  <defs
     id="defs2" />
  <sodipodi:namedview
     id="base"
     pagecolor="#ffffff"
     bordercolor="#666666"
     borderopacity="1.0"
     inkscape:pageopacity="0.0"
     inkscape:pageshadow="2"
     inkscape:zoom="2.8284271"
     inkscape:cx="25.669541"
     inkscape:cy="46.061221"
     inkscape:document-units="mm"
     inkscape:current-layer="layer1"
     inkscape:document-rotation="0"
     showgrid="false"
     inkscape:window-width="958"
     inkscape:window-height="1008"
     inkscape:window-x="1913"
     inkscape:window-y="0"
     inkscape:window-maximized="0" />
  <metadata
     id="metadata5">
    <rdf:RDF>
      <cc:Work
         rdf:about="">
        <dc:format>image/svg+xml</dc:format>
        <dc:type
           rdf:resource="http://purl.org/dc/dcmitype/StillImage" />
        <dc:title></dc:title>
      </cc:Work>
    </rdf:RDF>
  </metadata>
  <g
     inkscape:label="Ebene 1"
     inkscape:groupmode="layer"
     id="layer1"
     transform="translate(-31.408255,-14.40458)">
    <path
       style="fill:#000000;stroke-width:0.264582"
       d="m 35.227532,26.026963 c -0.311064,-0.333128 -0.463286,-1.080296 -0.333896,-1.638892 0.03614,-0.156032 0.15781,-0.470188 0.27037,-0.698122 0.336752,-0.681924 0.479108,-1.131024 0.50603,-1.596408 0.02305,-0.398558 0.015,-0.439474 -0.13748,-0.699166 -0.1924,-0.32766 -0.561354,-0.644838 -1.38694,-1.192311 -0.744052,-0.493405 -1.20404,-0.963106 -1.36531,-1.39414 -0.122552,-0.327547 -0.110026,-0.538686 0.03993,-0.6731 0.168052,-0.150633 0.730142,-0.301074 1.124896,-0.301074 0.434748,0 0.745814,0.08143 1.557626,0.40774 1.059084,0.425705 1.61843,0.526918 2.009338,0.363587 0.296266,-0.123788 0.648802,-0.493523 1.1136,-1.167934 0.653794,-0.94864 1.03968,-1.279054 1.727208,-1.478924 0.391602,-0.113842 0.527556,-0.05378 0.679904,0.300362 0.286994,0.667132 0.24604,1.197129 -0.162712,2.105748 -0.502434,1.116863 -0.603992,1.703066 -0.37337,2.155124 0.136818,0.268186 0.584426,0.670742 1.19609,1.075702 0.926442,0.613362 1.39046,1.098992 1.590668,1.664756 0.11908,0.336508 0.07815,0.511304 -0.15145,0.64677 -0.29981,0.176894 -0.561266,0.237026 -0.996206,0.229122 -0.429132,-0.0078 -0.484834,-0.0233 -1.805456,-0.502548 -0.284332,-0.103182 -0.71921,-0.216846 -0.966394,-0.252584 -0.44421,-0.06423 -0.452858,-0.0633 -0.74512,0.08004 -0.40951,0.200842 -0.815232,0.602296 -1.242016,1.22895 -0.498782,0.73237 -0.81913,1.053768 -1.24097,1.24504 -0.189828,0.08607 -0.445654,0.170108 -0.568504,0.186748 -0.188774,0.02557 -0.241396,0.01094 -0.339838,-0.09449 z m 0.731184,-0.283442 c 0.359742,-0.122576 0.71974,-0.476762 1.201864,-1.182458 0.446712,-0.653866 0.809898,-1.023332 1.267772,-1.289694 0.208106,-0.121062 0.311814,-0.14516 0.626268,-0.14552 0.456368,-6e-4 1.19379,0.17803 1.839952,0.445508 0.867878,0.35926 1.540898,0.422296 1.936986,0.181422 0.220378,-0.134022 0.242468,-0.221054 0.13923,-0.548564 -0.141104,-0.447628 -0.530218,-0.803516 -1.80332,-1.64933 -0.294102,-0.195392 -0.853466,-0.773448 -0.95416,-0.986042 -0.07842,-0.165556 -0.09017,-0.284302 -0.06548,-0.661458 0.03269,-0.499355 0.159696,-0.909926 0.521456,-1.685685 0.262648,-0.563226 0.338038,-0.902601 0.288366,-1.298092 -0.079,-0.628993 -0.389504,-0.811997 -0.945066,-0.556998 -0.356926,0.163827 -0.681812,0.498153 -1.160764,1.194489 -0.647142,0.940863 -1.176168,1.384951 -1.647496,1.382982 -0.419438,-0.0018 -1.132234,-0.193329 -1.966146,-0.528435 -0.946824,-0.38048 -1.452762,-0.434644 -1.915688,-0.205089 -0.661514,0.328031 -0.299196,0.940325 1.126412,1.903559 0.783332,0.529271 1.355372,1.084643 1.45307,1.410727 0.06842,0.228368 0.04326,0.755638 -0.05491,1.150782 -0.03615,0.145522 -0.189816,0.538428 -0.341472,0.873126 -0.361802,0.798472 -0.421876,1.029906 -0.384152,1.47989 0.05983,0.713664 0.282608,0.903874 0.837276,0.71488 z"
       id="path360" />
  </g>
</svg>
