<?xml version="1.0" encoding="UTF-8" standalone="no"?>
<svg
   xmlns:dc="http://purl.org/dc/elements/1.1/"
   xmlns:cc="http://creativecommons.org/ns#"
   xmlns:rdf="http://www.w3.org/1999/02/22-rdf-syntax-ns#"
   xmlns:svg="http://www.w3.org/2000/svg"
   xmlns="http://www.w3.org/2000/svg"
   xmlns:sodipodi="http://sodipodi.sourceforge.net/DTD/sodipodi-0.dtd"
   xmlns:inkscape="http://www.inkscape.org/namespaces/inkscape"
   width="13.229167mm"
   height="13.229167mm"
   viewBox="0 0 13.229167 13.229167"
   version="1.1"
   id="svg8"
   sodipodi:docname="VCS_resized_6.svg"
   inkscape:version="1.0.2-2 (e86c870879, 2021-01-15)">
  <defs
     id="defs2" />
  <sodipodi:namedview
     id="base"
     pagecolor="#ffffff"
     bordercolor="#666666"
     borderopacity="1.0"
     inkscape:pageopacity="0.0"
     inkscape:pageshadow="2"
     inkscape:zoom="2.8284271"
     inkscape:cx="22.49756"
     inkscape:cy="64.393375"
     inkscape:document-units="mm"
     inkscape:current-layer="layer1"
     inkscape:document-rotation="0"
     showgrid="false"
     inkscape:window-width="958"
     inkscape:window-height="1008"
     inkscape:window-x="1913"
     inkscape:window-y="0"
     inkscape:window-maximized="0" />
  <metadata
     id="metadata5">
    <rdf:RDF>
      <cc:Work
         rdf:about="">
        <dc:format>image/svg+xml</dc:format>
        <dc:type
           rdf:resource="http://purl.org/dc/dcmitype/StillImage" />
        <dc:title></dc:title>
      </cc:Work>
    </rdf:RDF>
  </metadata>
  <g
     inkscape:label="Ebene 1"
     inkscape:groupmode="layer"
     id="layer1"
     transform="translate(-32.247509,-9.5541983)">
    <path
       style="fill:#000000;stroke-width:0.264582"
       d="m 37.139177,21.659948 c -0.219462,-0.242502 -0.402338,-0.934318 -0.405236,-1.532995 -0.001,-0.211197 0.03305,-0.616432 0.07572,-0.900522 0.08638,-0.5751 0.112034,-1.44019 0.05411,-1.824456 -0.0323,-0.214288 -0.07418,-0.281375 -0.283236,-0.453704 -0.305282,-0.251653 -0.732694,-0.508324 -1.383036,-0.830548 -0.876358,-0.434206 -1.742724,-1.051375 -1.976288,-1.40784 -0.123534,-0.188535 -0.06365,-0.302094 0.224448,-0.425611 0.557308,-0.238938 0.853158,-0.271095 2.04288,-0.222051 0.611188,0.0252 1.38395,0.04339 1.717246,0.04043 l 0.605996,-0.0054 0.24481,-0.266242 c 0.2058,-0.223818 0.52429,-0.741852 0.935838,-1.522174 0.343352,-0.65102 1.312902,-1.719791 1.560132,-1.719791 0.115328,0 0.212114,0.199941 0.371426,0.767291 0.120334,0.428534 0.13479,1.040973 0.0406,1.719869 -0.07319,0.527542 -0.08115,1.651239 -0.01328,1.87671 0.06331,0.210355 0.525618,0.562672 1.284118,0.978608 0.334698,0.183537 0.83593,0.484054 1.113848,0.667816 0.50209,0.331985 1.214486,1.009752 1.214486,1.155452 0,0.119948 -0.24507,0.282183 -0.572602,0.379063 -0.334474,0.09893 -0.834642,0.110742 -2.496566,0.05895 -1.271404,-0.03963 -1.498384,-0.0084 -1.704136,0.234094 -0.27793,0.327623 -0.570822,0.779803 -0.895238,1.382104 -0.448332,0.832356 -0.745728,1.263657 -1.0345,1.500284 -0.136384,0.111757 -0.306722,0.257641 -0.378526,0.324187 -0.157218,0.145706 -0.230002,0.151319 -0.343004,0.02645 z m 0.507072,-0.491547 c 0.265396,-0.21876 0.594136,-0.690626 0.992594,-1.424746 0.413078,-0.76105 0.609032,-1.058286 0.947056,-1.436547 0.263428,-0.294787 0.2719,-0.299317 0.624844,-0.334061 0.702912,-0.0692 1.096054,-0.07526 1.648954,-0.02542 1.159536,0.104511 2.00659,0.03926 2.268682,-0.174752 0.197336,-0.161139 -0.558218,-0.805916 -1.62838,-1.389632 -0.680678,-0.371272 -1.346636,-0.810152 -1.627626,-1.072636 -0.154748,-0.144556 -0.161032,-0.169078 -0.20032,-0.781738 -0.03058,-0.476931 -0.0188,-0.80821 0.04792,-1.346877 0.04867,-0.392906 0.08767,-0.821531 0.08667,-0.9525 -0.0024,-0.32117 -0.13719,-0.938204 -0.238704,-1.093135 -0.07141,-0.108985 -0.09801,-0.117424 -0.199644,-0.06334 -0.409192,0.217758 -0.808766,0.71845 -1.281868,1.606265 -0.384462,0.721478 -0.748128,1.267233 -0.99008,1.485822 l -0.217784,0.196756 -1.38022,-0.03926 c -1.978216,-0.05626 -2.183162,-0.05146 -2.538944,0.05953 -0.459888,0.143461 -0.48891,0.234747 -0.167792,0.527781 0.37357,0.340899 0.627416,0.505384 1.466856,0.950476 0.757338,0.40156 1.550268,0.900255 1.707288,1.073759 0.191774,0.211908 0.248568,1.310848 0.111012,2.14805 -0.103126,0.627657 -0.101436,1.383905 0.004,1.791528 0.133484,0.516031 0.233628,0.568216 0.565478,0.294676 z"
       id="path88" />
  </g>
</svg>
