<?xml version="1.0" encoding="UTF-8" standalone="no"?>
<svg
   xmlns:dc="http://purl.org/dc/elements/1.1/"
   xmlns:cc="http://creativecommons.org/ns#"
   xmlns:rdf="http://www.w3.org/1999/02/22-rdf-syntax-ns#"
   xmlns:svg="http://www.w3.org/2000/svg"
   xmlns="http://www.w3.org/2000/svg"
   xmlns:sodipodi="http://sodipodi.sourceforge.net/DTD/sodipodi-0.dtd"
   xmlns:inkscape="http://www.inkscape.org/namespaces/inkscape"
   width="13.229167mm"
   height="13.229167mm"
   viewBox="0 0 13.229169 13.229168"
   version="1.1"
   id="svg8"
   sodipodi:docname="VCS_resized_258.svg"
   inkscape:version="1.0.2-2 (e86c870879, 2021-01-15)">
  <defs
     id="defs2" />
  <sodipodi:namedview
     id="base"
     pagecolor="#ffffff"
     bordercolor="#666666"
     borderopacity="1.0"
     inkscape:pageopacity="0.0"
     inkscape:pageshadow="2"
     inkscape:zoom="2.8284271"
     inkscape:cx="8.4541725"
     inkscape:cy="15.125295"
     inkscape:document-units="mm"
     inkscape:current-layer="layer1"
     inkscape:document-rotation="0"
     showgrid="false"
     inkscape:window-width="958"
     inkscape:window-height="1008"
     inkscape:window-x="1913"
     inkscape:window-y="0"
     inkscape:window-maximized="0" />
  <metadata
     id="metadata5">
    <rdf:RDF>
      <cc:Work
         rdf:about="">
        <dc:format>image/svg+xml</dc:format>
        <dc:type
           rdf:resource="http://purl.org/dc/dcmitype/StillImage" />
        <dc:title></dc:title>
      </cc:Work>
    </rdf:RDF>
  </metadata>
  <g
     inkscape:label="Ebene 1"
     inkscape:groupmode="layer"
     id="layer1"
     transform="translate(-75.805267,-3.0209711)">
    <path
       style="fill:#000000;stroke-width:0.264582"
       d="m 78.486959,15.875202 c -0.01766,-0.04604 -0.03264,-0.242489 -0.03328,-0.436562 -6e-4,-0.194073 -0.03622,-0.82911 -0.07907,-1.411193 -0.04285,-0.582084 -0.09364,-1.362049 -0.11286,-1.733256 L 78.226803,11.61927 77.549651,10.627316 C 77.177219,10.081742 76.631357,9.2812232 76.336627,8.8483856 76.041897,8.4155474 75.820469,8.0420944 75.844567,8.0184892 c 0.0515,-0.05045 0.805382,-0.2898918 3.11298,-0.988722 l 0.846666,-0.2564034 0.700602,-0.9502507 c 0.38533,-0.5226374 0.944924,-1.3013114 1.243542,-1.7303866 0.466548,-0.670371 0.562618,-0.7801908 0.6828,-0.7805208 0.07692,-2.2e-4 0.15148,0.029381 0.165684,0.065762 0.0331,0.084778 1.88106,2.6666112 2.197502,3.070186 l 0.239376,0.3052895 0.98358,0.3117522 c 0.54097,0.1714638 1.423106,0.4450328 1.960302,0.6079316 0.537198,0.1628986 0.994706,0.3141636 1.016688,0.336144 0.03582,0.035824 -0.277584,0.5178108 -1.93384,2.974038 l -0.480746,0.712947 -0.03376,0.557053 c -0.01856,0.30638 -0.07769,1.265476 -0.13138,2.131325 l -0.09762,1.574271 h -3.898932 c -3.506502,0 -3.902166,-0.0084 -3.931052,-0.0837 z m 7.66419,-1.622859 c 0.05316,-0.793089 0.111876,-1.71633 0.130482,-2.051646 l 0.03383,-0.609665 0.533504,-0.792626 C 88.708801,8.0352496 88.615429,8.1841628 88.519853,8.1335804 88.419683,8.0805674 88.071507,7.9698302 86.895047,7.6168136 85.866117,7.308065 84.954633,7.0166322 84.878195,6.9719552 84.791011,6.9209982 84.248011,6.1980511 83.298813,4.8691771 82.842909,4.2309127 82.449687,3.7014643 82.424987,3.6926249 c -0.0247,-0.00884 -0.158318,0.145942 -0.296924,0.3439584 -1.182252,1.6889748 -2.039972,2.8557049 -2.160992,2.9395259 -0.06058,0.041956 -0.298518,0.1167152 -3.165878,0.9946778 -0.31287,0.095798 -0.568854,0.1897624 -0.568854,0.2088092 0,0.019046 0.122304,0.211511 0.271788,0.427699 0.149484,0.2161872 0.654622,0.9526618 1.122532,1.6366098 l 0.850742,1.243541 0.09204,1.296459 c 0.05062,0.713052 0.108768,1.659599 0.129214,2.103438 l 0.03717,0.806979 h 3.659336 3.659336 z"
       id="path5041" />
  </g>
</svg>
