<?xml version="1.0" encoding="UTF-8" standalone="no"?>
<svg
   xmlns:dc="http://purl.org/dc/elements/1.1/"
   xmlns:cc="http://creativecommons.org/ns#"
   xmlns:rdf="http://www.w3.org/1999/02/22-rdf-syntax-ns#"
   xmlns:svg="http://www.w3.org/2000/svg"
   xmlns="http://www.w3.org/2000/svg"
   xmlns:sodipodi="http://sodipodi.sourceforge.net/DTD/sodipodi-0.dtd"
   xmlns:inkscape="http://www.inkscape.org/namespaces/inkscape"
   width="13.229167mm"
   height="13.229167mm"
   viewBox="0 0 13.229167 13.229167"
   version="1.1"
   id="svg8"
   sodipodi:docname="VCS_resized_31.svg"
   inkscape:version="1.0.2-2 (e86c870879, 2021-01-15)">
  <defs
     id="defs2" />
  <sodipodi:namedview
     id="base"
     pagecolor="#ffffff"
     bordercolor="#666666"
     borderopacity="1.0"
     inkscape:pageopacity="0.0"
     inkscape:pageshadow="2"
     inkscape:zoom="2.8284271"
     inkscape:cx="3.0619467"
     inkscape:cy="65.261874"
     inkscape:document-units="mm"
     inkscape:current-layer="layer1"
     inkscape:document-rotation="0"
     showgrid="false"
     inkscape:window-width="958"
     inkscape:window-height="1008"
     inkscape:window-x="1913"
     inkscape:window-y="0"
     inkscape:window-maximized="0" />
  <metadata
     id="metadata5">
    <rdf:RDF>
      <cc:Work
         rdf:about="">
        <dc:format>image/svg+xml</dc:format>
        <dc:type
           rdf:resource="http://purl.org/dc/dcmitype/StillImage" />
        <dc:title></dc:title>
      </cc:Work>
    </rdf:RDF>
  </metadata>
  <g
     inkscape:label="Ebene 1"
     inkscape:groupmode="layer"
     id="layer1"
     transform="translate(-37.389847,-9.3244085)">
    <path
       style="fill:#000000;stroke-width:0.264582"
       d="m 40.833425,20.846319 c -0.176248,-0.108816 -0.387676,-0.528252 -0.43169,-0.856402 -0.03689,-0.275062 0.06263,-0.835854 0.202034,-1.13837 0.06631,-0.143904 0.218998,-0.416426 0.339306,-0.605602 0.356452,-0.560508 0.492022,-0.889982 0.560254,-1.361582 0.09498,-0.656472 -0.22834,-1.141204 -1.296154,-1.943237 -0.970544,-0.728974 -1.333622,-1.184464 -1.39155,-1.745733 -0.06145,-0.595445 0.288766,-0.853052 1.148626,-0.844879 0.423008,0.004 0.561436,0.02859 0.873126,0.154976 0.203728,0.08261 0.45532,0.203 0.55909,0.267535 0.35008,0.217715 1.027302,0.539382 1.316226,0.625184 0.15786,0.04688 0.424294,0.08524 0.592078,0.08524 0.252952,0 0.358838,-0.03152 0.619888,-0.184515 0.31594,-0.185168 0.467084,-0.345571 1.02742,-1.090363 0.647054,-0.860053 1.105268,-1.187256 1.74649,-1.247134 0.422062,-0.03941 0.558866,0.02838 0.739482,0.366432 0.102546,0.191936 0.119742,0.303914 0.119742,0.779747 0,0.534584 -0.0074,0.570653 -0.196536,0.952499 -0.108096,0.218282 -0.29239,0.549604 -0.409546,0.736272 -0.407478,0.649256 -0.57583,1.375566 -0.42487,1.832983 0.107574,0.32595 0.710702,0.9088 1.476288,1.426648 0.919328,0.621842 1.460428,1.692706 1.06695,2.111544 -0.221542,0.235822 -0.617424,0.366782 -1.088952,0.360236 -0.476894,-0.0066 -0.727454,-0.08211 -1.529678,-0.460844 -0.288344,-0.13613 -0.702918,-0.293202 -0.921278,-0.349048 -1.01272,-0.25901 -1.548064,-0.02738 -2.454548,1.062012 -0.718372,0.863326 -1.01474,1.051462 -1.788454,1.135314 -0.231914,0.02513 -0.324098,0.01114 -0.453744,-0.06891 z m 1.025958,-0.325038 c 0.322238,-0.14624 0.512164,-0.318342 1.056272,-0.957142 0.515452,-0.605158 0.83413,-0.869754 1.309836,-1.087538 0.272562,-0.124784 0.344592,-0.135704 0.698066,-0.105824 0.576354,0.04872 0.959026,0.163176 1.704454,0.5098 0.36586,0.170124 0.803196,0.336966 0.97186,0.370756 0.476102,0.09539 1.018136,-0.01706 1.200636,-0.249064 0.142268,-0.180864 0.134494,-0.41533 -0.02429,-0.732706 -0.170174,-0.340136 -0.461286,-0.634886 -1.112588,-1.12649 -1.094824,-0.826374 -1.45594,-1.278014 -1.454426,-1.819016 0.0016,-0.556047 0.253144,-1.273775 0.651906,-1.859753 0.474174,-0.696794 0.609132,-1.395912 0.37023,-1.917887 -0.109726,-0.239736 -0.270948,-0.30598 -0.659036,-0.27079 -0.446126,0.04045 -0.806706,0.296498 -1.254046,0.890485 -0.183996,0.244314 -0.510828,0.638236 -0.726294,0.875383 -0.863768,0.950685 -1.409752,0.952779 -3.244788,0.01245 -0.764754,-0.391883 -0.873408,-0.432701 -1.21732,-0.457308 -0.652214,-0.04667 -1.043024,0.175651 -1.033846,0.588117 0.0099,0.443304 0.37114,0.879248 1.32596,1.6 0.648654,0.489641 0.984164,0.836719 1.217124,1.259087 0.12682,0.229932 0.148476,0.327372 0.143948,0.647704 -0.0063,0.44761 -0.186888,0.97865 -0.50881,1.496446 -0.553256,0.889892 -0.704676,1.440018 -0.546306,1.984794 0.06303,0.216806 0.123046,0.313974 0.22968,0.37184 0.204136,0.110776 0.630578,0.09974 0.90178,-0.02334 z"
       id="path488" />
  </g>
</svg>
