<?xml version="1.0" encoding="UTF-8" standalone="no"?>
<svg
   xmlns:dc="http://purl.org/dc/elements/1.1/"
   xmlns:cc="http://creativecommons.org/ns#"
   xmlns:rdf="http://www.w3.org/1999/02/22-rdf-syntax-ns#"
   xmlns:svg="http://www.w3.org/2000/svg"
   xmlns="http://www.w3.org/2000/svg"
   xmlns:sodipodi="http://sodipodi.sourceforge.net/DTD/sodipodi-0.dtd"
   xmlns:inkscape="http://www.inkscape.org/namespaces/inkscape"
   width="13.229167mm"
   height="13.229167mm"
   viewBox="0 0 13.229169 13.229168"
   version="1.1"
   id="svg8"
   sodipodi:docname="VCS_resized_251.svg"
   inkscape:version="1.0.2-2 (e86c870879, 2021-01-15)">
  <defs
     id="defs2" />
  <sodipodi:namedview
     id="base"
     pagecolor="#ffffff"
     bordercolor="#666666"
     borderopacity="1.0"
     inkscape:pageopacity="0.0"
     inkscape:pageshadow="2"
     inkscape:zoom="2.8284271"
     inkscape:cx="32.849216"
     inkscape:cy="47.878764"
     inkscape:document-units="mm"
     inkscape:current-layer="layer1"
     inkscape:document-rotation="0"
     showgrid="false"
     inkscape:window-width="958"
     inkscape:window-height="1008"
     inkscape:window-x="1913"
     inkscape:window-y="0"
     inkscape:window-maximized="0" />
  <metadata
     id="metadata5">
    <rdf:RDF>
      <cc:Work
         rdf:about="">
        <dc:format>image/svg+xml</dc:format>
        <dc:type
           rdf:resource="http://purl.org/dc/dcmitype/StillImage" />
        <dc:title></dc:title>
      </cc:Work>
    </rdf:RDF>
  </metadata>
  <g
     inkscape:label="Ebene 1"
     inkscape:groupmode="layer"
     id="layer1"
     transform="translate(-73.34845,-0.24109183)">
    <path
       style="fill:#000000;stroke-width:0.264582"
       d="m 75.993838,13.130153 c -0.04035,-0.02556 -0.08297,-0.162114 -0.0947,-0.30346 -0.04772,-0.575041 -0.232488,-2.474889 -0.309884,-3.1863167 l -0.08265,-0.759739 -0.278554,-0.457344 c -1.410254,-2.315426 -1.891838,-3.145016 -1.849998,-3.186856 0.02635,-0.02636 0.817938,-0.322895 1.759072,-0.658976 2.07271,-0.740171 2.018238,-0.717732 2.19722,-0.9051236 0.145436,-0.1522684 1.150708,-1.4027068 1.64328,-2.0440412 0.830278,-1.08103444 0.84397,-1.09633864 0.978958,-1.09430364 0.100282,0.00152 0.19631,0.087182 0.396874,0.3540746 0.53104,0.70665284 1.439382,1.86670424 1.862754,2.37893704 l 0.434002,0.5250958 0.49204,0.193547 c 0.27062,0.106451 1.133354,0.420058 1.917184,0.696904 0.783833,0.276846 1.448491,0.5267 1.477023,0.555231 0.03389,0.03389 0.0061,0.121373 -0.08002,0.252312 -0.273006,0.414878 -0.444664,0.696114 -0.864796,1.416835 -0.237743,0.407836 -0.604691,1.023906 -0.815441,1.369046 -0.417084,0.683048 -0.428916,0.723343 -0.53051,1.8066397 -0.03002,0.320146 -0.08846,0.903552 -0.129856,1.296458 -0.0414,0.392906 -0.09147,0.923211 -0.111266,1.178455 -0.02312,0.298081 -0.06401,0.492092 -0.114312,0.542396 -0.06773,0.06773 -0.601656,0.07821 -3.950684,0.07751 -2.130586,-4.2e-4 -3.905368,-0.02171 -3.945736,-0.04728 z m 7.64921,-0.257353 c 0.03392,-0.02158 0.07678,-0.217669 0.09524,-0.435752 0.05327,-0.62925 0.190836,-1.923393 0.213712,-2.010475 0.01146,-0.04366 0.04794,-0.412746 0.08105,-0.8201987 l 0.0602,-0.740824 0.346338,-0.582093 c 0.190484,-0.320151 0.391542,-0.65353 0.446794,-0.740842 0.28456,-0.449677 1.261443,-2.111493 1.261443,-2.145891 0,-0.02189 -0.06548,-0.06383 -0.14552,-0.0932 -0.5659,-0.207653 -1.437875,-0.515652 -1.838857,-0.649519 C 83.21042,4.3358363 82.447182,4.0163483 82.35269,3.8960303 82.30086,3.8300303 81.889356,3.3138237 81.43824,2.7489045 80.987136,2.1839887 80.479474,1.5357993 80.310112,1.3084877 80.14075,1.0811761 79.974062,0.90430626 79.939696,0.91544386 79.905326,0.92658186 79.63233,1.2554387 79.33303,1.6462377 c -0.792434,1.0346988 -1.416328,1.8136082 -1.710364,2.1353306 -0.304386,0.333047 -0.150704,0.266411 -2.640248,1.144812 -0.509324,0.179707 -0.991526,0.350097 -1.071564,0.378643 -0.08004,0.02855 -0.14552,0.07466 -0.14552,0.102475 0,0.02781 0.205904,0.388625 0.457564,0.801802 0.251662,0.413177 0.70079,1.157091 0.998066,1.653141 l 0.540498,0.901909 0.06451,0.553299 c 0.03548,0.304314 0.09804,0.8390487 0.139014,1.1882987 0.04098,0.34925 0.09884,0.92075 0.128594,1.27 0.02975,0.34925 0.06799,0.748109 0.08497,0.886354 l 0.03088,0.251354 3.685972,-8e-4 c 2.027284,-4.2e-4 3.713724,-0.01847 3.747644,-0.04005 z"
       id="path4915" />
  </g>
</svg>
