<?xml version="1.0" encoding="UTF-8" standalone="no"?>
<svg
   xmlns:dc="http://purl.org/dc/elements/1.1/"
   xmlns:cc="http://creativecommons.org/ns#"
   xmlns:rdf="http://www.w3.org/1999/02/22-rdf-syntax-ns#"
   xmlns:svg="http://www.w3.org/2000/svg"
   xmlns="http://www.w3.org/2000/svg"
   xmlns:sodipodi="http://sodipodi.sourceforge.net/DTD/sodipodi-0.dtd"
   xmlns:inkscape="http://www.inkscape.org/namespaces/inkscape"
   width="13.229167mm"
   height="13.229167mm"
   viewBox="0 0 13.229167 13.229167"
   version="1.1"
   id="svg8"
   sodipodi:docname="VCS_resized_78.svg"
   inkscape:version="1.0.2-2 (e86c870879, 2021-01-15)">
  <defs
     id="defs2" />
  <sodipodi:namedview
     id="base"
     pagecolor="#ffffff"
     bordercolor="#666666"
     borderopacity="1.0"
     inkscape:pageopacity="0.0"
     inkscape:pageshadow="2"
     inkscape:zoom="2.8284271"
     inkscape:cx="7.7947138"
     inkscape:cy="44.744957"
     inkscape:document-units="mm"
     inkscape:current-layer="layer1"
     inkscape:document-rotation="0"
     showgrid="false"
     inkscape:window-width="958"
     inkscape:window-height="1008"
     inkscape:window-x="1913"
     inkscape:window-y="0"
     inkscape:window-maximized="0" />
  <metadata
     id="metadata5">
    <rdf:RDF>
      <cc:Work
         rdf:about="">
        <dc:format>image/svg+xml</dc:format>
        <dc:type
           rdf:resource="http://purl.org/dc/dcmitype/StillImage" />
        <dc:title></dc:title>
      </cc:Work>
    </rdf:RDF>
  </metadata>
  <g
     inkscape:label="Ebene 1"
     inkscape:groupmode="layer"
     id="layer1"
     transform="translate(-36.137634,-14.752843)">
    <path
       style="fill:#000000;stroke-width:0.264582"
       d="M 39.527266,26.67615 C 39.238916,26.61439 38.69749,26.323582 38.457148,26.101369 38.342186,25.995078 38.169544,25.791343 38.073502,25.648625 37.914854,25.412873 37.89888,25.35313 37.89888,24.995472 c 0,-0.594819 0.190426,-0.910642 1.042028,-1.728213 0.239736,-0.230156 0.549838,-0.585244 0.689116,-0.789084 l 0.253232,-0.370618 v -0.483788 c 0,-0.413085 -0.02054,-0.5276 -0.140542,-0.783579 -0.166028,-0.354154 -0.429742,-0.717407 -0.91564,-1.26125 -0.429702,-0.480947 -0.70683,-0.881788 -0.878032,-1.27 -0.106302,-0.241046 -0.128408,-0.377398 -0.12869,-0.79375 -2e-4,-0.442487 0.01648,-0.534404 0.139994,-0.767292 0.378106,-0.712884 0.98648,-0.897769 1.730068,-0.525768 0.301064,0.150616 0.459714,0.280468 0.78763,0.644664 0.924644,1.026943 1.248548,1.337006 1.541416,1.475555 0.548976,0.259706 1.141768,0.215505 1.653752,-0.12331 0.113944,-0.07541 0.443372,-0.41585 0.732058,-0.756544 0.583426,-0.688529 0.960436,-1.048256 1.31861,-1.25816 0.310888,-0.182192 0.893182,-0.20345 1.144376,-0.04178 0.483274,0.311041 0.670446,0.658286 0.70338,1.304919 0.04,0.785385 -0.181708,1.276185 -0.988632,2.188567 -0.707008,0.799409 -0.904728,1.134867 -1.009528,1.712806 -0.04464,0.246162 -0.03906,0.359865 0.02888,0.588629 0.13263,0.446611 0.300186,0.667927 1.08375,1.431464 0.849106,0.827403 1.003748,1.077532 0.99782,1.613958 -0.0044,0.40216 -0.07585,0.595261 -0.33433,0.904077 -0.262916,0.314121 -0.694768,0.519469 -1.328004,0.631472 -0.397926,0.07038 -0.737328,0.07868 -2.06375,0.05042 -1.025712,-0.02185 -1.756034,-0.01352 -2.063748,0.02354 -0.635866,0.07657 -2.12025,0.116548 -2.366824,0.06374 z m 1.917032,-0.32606 c 0.709746,-0.04574 2.369556,-0.0624 3.201458,-0.03214 0.469832,0.01709 1.46005,-0.06996 1.747984,-0.153665 0.889304,-0.258528 1.25569,-1.07876 0.793702,-1.776871 -0.07968,-0.120404 -0.473112,-0.558406 -0.874296,-0.973338 -0.882814,-0.913068 -0.979516,-1.09596 -0.978566,-1.85076 6e-4,-0.437944 0.01598,-0.508172 0.191734,-0.873125 0.21226,-0.440742 0.405988,-0.71393 1.01158,-1.426493 0.225758,-0.265638 0.487644,-0.6308 0.581968,-0.811472 0.16002,-0.306505 0.171508,-0.363915 0.171614,-0.85766 1.06e-4,-0.464994 -0.01512,-0.553664 -0.125466,-0.731167 -0.297678,-0.478825 -0.798708,-0.602185 -1.3501,-0.332414 -0.343222,0.167923 -0.683274,0.493136 -1.206866,1.1542 -0.43298,0.546661 -0.703074,0.788097 -1.099386,0.982736 -0.256244,0.125846 -0.355196,0.143687 -0.79536,0.143401 -0.709514,-4.8e-4 -0.96854,-0.140819 -1.672968,-0.906527 -1.051098,-1.142534 -1.241172,-1.316047 -1.582128,-1.444282 -0.398514,-0.149882 -0.710784,-0.120232 -0.973542,0.09244 -0.292444,0.236694 -0.401922,0.500438 -0.399422,0.962242 0.003,0.547718 0.228248,1.007911 0.84207,1.720132 0.87926,1.020205 1.192018,1.599198 1.233928,2.284304 0.04341,0.709607 -0.152188,1.079631 -1.044252,1.975476 -0.656282,0.659063 -0.882926,0.976705 -0.932428,1.306796 -0.05403,0.360335 0.05048,0.623775 0.387738,0.977358 0.473386,0.496296 1.002616,0.697155 1.706836,0.647797 0.189178,-0.01326 0.713052,-0.04789 1.164168,-0.07696 z"
       id="path1290" />
  </g>
</svg>
