<?xml version="1.0" encoding="UTF-8" standalone="no"?>
<svg
   xmlns:dc="http://purl.org/dc/elements/1.1/"
   xmlns:cc="http://creativecommons.org/ns#"
   xmlns:rdf="http://www.w3.org/1999/02/22-rdf-syntax-ns#"
   xmlns:svg="http://www.w3.org/2000/svg"
   xmlns="http://www.w3.org/2000/svg"
   xmlns:sodipodi="http://sodipodi.sourceforge.net/DTD/sodipodi-0.dtd"
   xmlns:inkscape="http://www.inkscape.org/namespaces/inkscape"
   width="13.229167mm"
   height="13.229167mm"
   viewBox="0 0 13.229169 13.229168"
   version="1.1"
   id="svg8"
   sodipodi:docname="VCS_resized_264.svg"
   inkscape:version="1.0.2-2 (e86c870879, 2021-01-15)">
  <defs
     id="defs2" />
  <sodipodi:namedview
     id="base"
     pagecolor="#ffffff"
     bordercolor="#666666"
     borderopacity="1.0"
     inkscape:pageopacity="0.0"
     inkscape:pageshadow="2"
     inkscape:zoom="4"
     inkscape:cx="5.1612191"
     inkscape:cy="33.632412"
     inkscape:document-units="mm"
     inkscape:current-layer="layer1"
     inkscape:document-rotation="0"
     showgrid="false"
     inkscape:window-width="958"
     inkscape:window-height="1008"
     inkscape:window-x="1913"
     inkscape:window-y="0"
     inkscape:window-maximized="0" />
  <metadata
     id="metadata5">
    <rdf:RDF>
      <cc:Work
         rdf:about="">
        <dc:format>image/svg+xml</dc:format>
        <dc:type
           rdf:resource="http://purl.org/dc/dcmitype/StillImage" />
        <dc:title></dc:title>
      </cc:Work>
    </rdf:RDF>
  </metadata>
  <g
     inkscape:label="Ebene 1"
     inkscape:groupmode="layer"
     id="layer1"
     transform="translate(-77.397781,13.513863)">
    <path
       style="fill:#000000;stroke-width:0.264582"
       d="m 80.142766,-0.90771138 c -8e-4,-0.45998982 -0.09077,-2.83376522 -0.135192,-3.57013012 l -0.03421,-0.5671102 -1.29379,-1.733281 c -1.172098,-1.5702541 -1.28509,-1.7396419 -1.2013,-1.8009109 0.05087,-0.037197 0.127044,-0.06763 0.169276,-0.06763 0.04223,0 0.234134,-0.045529 0.426448,-0.1011752 0.192316,-0.055647 0.790194,-0.2124788 1.328622,-0.348516 0.538428,-0.1360376 1.09802,-0.2810304 1.243542,-0.3222064 0.14552,-0.041175 0.39888,-0.111489 0.563022,-0.1562518 l 0.29844,-0.081387 1.183228,-1.794567 c 1.030642,-1.563146 1.200522,-1.794894 1.317338,-1.797107 0.09712,-0.0018 0.16143,0.04489 0.23316,0.169439 0.349708,0.607196 2.261438,3.4169898 2.340586,3.440107 0.338072,0.098745 1.667001,0.4528312 2.451519,0.6531938 1.424316,0.363765 1.534582,0.398209 1.534582,0.4793568 0,0.040713 -0.17513,0.3054662 -0.389178,0.5883397 -0.214046,0.2828734 -0.789918,1.0612052 -1.279712,1.7296262 -0.744652,1.0162228 -0.896546,1.2546092 -0.92722,1.4552084 -0.02017,0.1319434 -0.06766,1.1269133 -0.105516,2.2110435 l -0.06883,1.97114582 h -3.827063 -3.82706 l -6e-4,-0.3571876 z M 87.571739,-1.754378 c 0.01998,-0.516599 0.0596,-1.470087 0.08805,-2.1188616 l 0.05172,-1.1795913 0.793866,-1.069367 c 1.499534,-2.0199296 1.63933,-2.2127153 1.63933,-2.2607143 0,-0.026464 -0.0893,-0.071229 -0.198438,-0.099479 -0.10914,-0.02825 -0.817562,-0.2090266 -1.574272,-0.4017258 -1.680833,-0.4280318 -1.931899,-0.5017602 -2.052241,-0.6026664 -0.08414,-0.070546 -1.85109,-2.6960646 -2.150136,-3.1948856 -0.06543,-0.109141 -0.141528,-0.198438 -0.16911,-0.198438 -0.02758,0 -0.16256,0.180876 -0.299954,0.401947 -0.676018,1.087724 -2.014078,3.0168194 -2.131462,3.0729498 -0.07105,0.033975 -0.843556,0.24542 -1.71668,0.4698788 -0.873126,0.2244588 -1.676798,0.4317302 -1.785938,0.4606026 -0.10914,0.028872 -0.198438,0.077889 -0.198438,0.1089246 0,0.031037 0.306084,0.4627183 0.680184,0.9592931 0.3741,0.4965742 0.889752,1.1886126 1.14589,1.5378626 0.256138,0.34925 0.484198,0.6472988 0.506798,0.6623304 0.04108,0.027318 0.207128,3.2238049 0.207128,3.9871649 v 0.40404622 h 3.563688 3.563691 z"
       id="path5137" />
  </g>
</svg>
