<?xml version="1.0" encoding="UTF-8" standalone="no"?>
<svg
   xmlns:dc="http://purl.org/dc/elements/1.1/"
   xmlns:cc="http://creativecommons.org/ns#"
   xmlns:rdf="http://www.w3.org/1999/02/22-rdf-syntax-ns#"
   xmlns:svg="http://www.w3.org/2000/svg"
   xmlns="http://www.w3.org/2000/svg"
   xmlns:sodipodi="http://sodipodi.sourceforge.net/DTD/sodipodi-0.dtd"
   xmlns:inkscape="http://www.inkscape.org/namespaces/inkscape"
   width="13.229167mm"
   height="13.229167mm"
   viewBox="0 0 13.229167 13.229167"
   version="1.1"
   id="svg8"
   sodipodi:docname="VCS_resized_83.svg"
   inkscape:version="1.0.2-2 (e86c870879, 2021-01-15)">
  <defs
     id="defs2" />
  <sodipodi:namedview
     id="base"
     pagecolor="#ffffff"
     bordercolor="#666666"
     borderopacity="1.0"
     inkscape:pageopacity="0.0"
     inkscape:pageshadow="2"
     inkscape:zoom="2.8284271"
     inkscape:cx="25.202535"
     inkscape:cy="37.728981"
     inkscape:document-units="mm"
     inkscape:current-layer="layer1"
     inkscape:document-rotation="0"
     showgrid="false"
     inkscape:window-width="958"
     inkscape:window-height="1008"
     inkscape:window-x="1913"
     inkscape:window-y="0"
     inkscape:window-maximized="0" />
  <metadata
     id="metadata5">
    <rdf:RDF>
      <cc:Work
         rdf:about="">
        <dc:format>image/svg+xml</dc:format>
        <dc:type
           rdf:resource="http://purl.org/dc/dcmitype/StillImage" />
        <dc:title></dc:title>
      </cc:Work>
    </rdf:RDF>
  </metadata>
  <g
     inkscape:label="Ebene 1"
     inkscape:groupmode="layer"
     id="layer1"
     transform="translate(-31.531815,-16.609154)">
    <path
       style="fill:#000000;stroke-width:0.264582"
       d="M 35.428992,28.663284 C 34.73101,28.559515 34.32761,28.369851 33.84534,27.91871 c -0.472428,-0.441933 -0.63611,-0.780325 -0.599294,-1.238974 0.0376,-0.468431 0.180458,-0.689097 0.992464,-1.533022 0.75144,-0.780981 0.98278,-1.126315 1.035114,-1.545176 0.07566,-0.605572 -0.170584,-1.155103 -0.910552,-2.032033 -0.868868,-1.029689 -1.11879,-1.485017 -1.167322,-2.126729 -0.09414,-1.244709 0.827252,-2.016944 1.816622,-1.52255 0.407886,0.203823 0.65789,0.42175 1.170778,1.020555 0.90433,1.055824 1.277678,1.309173 1.929378,1.309249 0.71968,1.06e-4 0.986366,-0.180843 1.935104,-1.312834 0.7852,-0.936864 1.369332,-1.279564 1.959916,-1.149851 0.697476,0.153192 1.146498,1.071625 0.960932,1.965496 -0.126778,0.610689 -0.300976,0.910874 -0.990504,1.706889 -0.525394,0.606535 -0.787338,1.014167 -0.912868,1.420586 -0.13266,0.429501 -0.133322,0.608467 -0.0036,0.985368 0.149282,0.4339 0.34185,0.681147 1.03225,1.325356 0.371368,0.346522 0.678258,0.683251 0.771638,0.846666 0.567842,0.993718 0.10834,1.842845 -1.245106,2.30087 -0.684342,0.23159 -1.063786,0.277953 -2.460624,0.300655 -0.683948,0.01112 -1.743604,0.02993 -2.354792,0.0418 -0.611188,0.01187 -1.230312,0.0039 -1.375834,-0.01775 z m 3.466042,-0.315353 c 1.593226,-0.04223 1.758734,-0.05564 2.248958,-0.182168 1.133908,-0.292663 1.665122,-0.742023 1.66658,-1.40978 6e-4,-0.283957 -0.271886,-0.679549 -0.977182,-1.418554 -0.752254,-0.788207 -0.920718,-1.025543 -1.056926,-1.489023 -0.103502,-0.352187 -0.07033,-0.7274 0.106166,-1.201024 0.159016,-0.426703 0.372502,-0.752281 0.990178,-1.51008 0.56459,-0.692674 0.753458,-1.031194 0.84252,-1.5101 0.17797,-0.956973 -0.450558,-1.693127 -1.244328,-1.457402 -0.476912,0.141628 -0.734756,0.368487 -1.492314,1.312981 -0.39273,0.489641 -0.689564,0.749006 -1.073572,0.938052 -0.310172,0.152698 -0.402052,0.173021 -0.77626,0.171707 -0.705574,-0.0025 -1.166944,-0.274066 -1.855444,-1.09222 -0.82625,-0.981845 -1.152324,-1.258142 -1.60442,-1.359498 -0.342668,-0.07682 -0.559878,-0.02026 -0.827778,0.215552 -0.62526,0.550375 -0.482464,1.515574 0.380736,2.573492 0.69175,0.847791 0.86849,1.095598 1.055934,1.480507 0.494418,1.015278 0.31634,1.788372 -0.626014,2.717729 -0.553814,0.546175 -0.892504,0.945643 -1.001258,1.180929 -0.127938,0.276794 -0.127448,0.665711 0.0012,0.91492 0.261088,0.50594 0.99338,1.019234 1.59202,1.115913 0.381532,0.06162 1.535076,0.06416 3.65125,0.0081 z"
       id="path1370" />
  </g>
</svg>
