<?xml version="1.0" encoding="UTF-8" standalone="no"?>
<svg
   xmlns:dc="http://purl.org/dc/elements/1.1/"
   xmlns:cc="http://creativecommons.org/ns#"
   xmlns:rdf="http://www.w3.org/1999/02/22-rdf-syntax-ns#"
   xmlns:svg="http://www.w3.org/2000/svg"
   xmlns="http://www.w3.org/2000/svg"
   xmlns:sodipodi="http://sodipodi.sourceforge.net/DTD/sodipodi-0.dtd"
   xmlns:inkscape="http://www.inkscape.org/namespaces/inkscape"
   width="13.229167mm"
   height="13.229167mm"
   viewBox="0 0 13.229169 13.229168"
   version="1.1"
   id="svg8"
   sodipodi:docname="VCS_resized_317.svg"
   inkscape:version="1.0.2-2 (e86c870879, 2021-01-15)">
  <defs
     id="defs2" />
  <sodipodi:namedview
     id="base"
     pagecolor="#ffffff"
     bordercolor="#666666"
     borderopacity="1.0"
     inkscape:pageopacity="0.0"
     inkscape:pageshadow="2"
     inkscape:zoom="4"
     inkscape:cx="2.5026877"
     inkscape:cy="31.894932"
     inkscape:document-units="mm"
     inkscape:current-layer="layer1"
     inkscape:document-rotation="0"
     showgrid="false"
     inkscape:window-width="958"
     inkscape:window-height="1008"
     inkscape:window-x="1913"
     inkscape:window-y="0"
     inkscape:window-maximized="0" />
  <metadata
     id="metadata5">
    <rdf:RDF>
      <cc:Work
         rdf:about="">
        <dc:format>image/svg+xml</dc:format>
        <dc:type
           rdf:resource="http://purl.org/dc/dcmitype/StillImage" />
        <dc:title></dc:title>
      </cc:Work>
    </rdf:RDF>
  </metadata>
  <g
     inkscape:label="Ebene 1"
     inkscape:groupmode="layer"
     id="layer1"
     transform="translate(-97.211426,16.862087)">
    <path
       style="fill:#000000;stroke-width:0.264582"
       d="m 102.78532,-4.6213646 c -0.5022,-0.2362188 -0.83334,-0.4230654 -0.85859,-0.4844572 -0.0226,-0.054964 -0.13663,-0.7776322 -0.25341,-1.6059284 -0.16574,-1.1755663 -0.23278,-1.5257271 -0.30559,-1.5959327 -0.0513,-0.049466 -0.41473,-0.274214 -0.80764,-0.4994396 -0.3929,-0.2252254 -0.83873,-0.4833684 -0.990724,-0.573651 -0.151994,-0.090282 -0.568712,-0.3371396 -0.926042,-0.5485712 -1.381738,-0.8175753 -1.378972,-0.8153803 -1.1436,-0.9076783 0.06792,-0.02663 1.103156,-0.290205 2.30052,-0.585712 l 2.177026,-0.537284 0.16939,-0.40641 c 0.97272,-2.333838 1.6126,-3.804078 1.67805,-3.855588 0.0437,-0.03438 0.1107,-0.05051 0.14892,-0.03584 0.0382,0.01467 0.40927,0.876236 0.82454,1.914594 0.41527,1.03836 0.80632,2.004788 0.86901,2.14762 l 0.11397,0.259694 1.45083,0.390113 c 0.79795,0.214562 1.66514,0.44739 1.92708,0.517395 0.8537,0.228161 1.11125,0.320542 1.11125,0.398606 0,0.06505 -1.02668,0.6995397 -2.01084,1.2427007 -1.04495,0.5767182 -1.91317,1.096717 -1.96619,1.1776074 -0.0654,0.099852 -0.21403,0.902879 -0.38934,2.1041487 -0.16708,1.1448452 -0.14861,1.1040258 -0.5963,1.3178234 -0.74336,0.3550016 -1.30011,0.5608056 -1.5034,0.5557378 -0.13213,-0.0033 -0.4827,-0.1373236 -1.01892,-0.3895446 z m 1.74353,-0.1166938 c 0.24738,-0.1053122 0.56111,-0.2471658 0.69716,-0.31523 0.27935,-0.1397518 0.25795,-0.0788 0.46228,-1.3166348 0.0577,-0.34925 0.15702,-0.9497531 0.22082,-1.3344509 l 0.116,-0.6994508 0.34989,-0.205059 c 0.19244,-0.1127824 0.52848,-0.304129 0.74677,-0.4252146 1.07564,-0.5966846 2.56205,-1.4765695 2.57868,-1.5264605 0.0103,-0.0309 -0.14302,-0.09747 -0.34071,-0.14793 -0.19769,-0.05046 -0.46659,-0.122614 -0.59756,-0.160345 -0.38824,-0.111847 -1.39634,-0.384648 -2.30187,-0.622904 l -0.84667,-0.222769 -0.11974,-0.238125 c -0.0659,-0.130968 -0.43496,-1.033893 -0.82021,-2.006499 -0.38526,-0.972606 -0.72546,-1.776671 -0.756,-1.78681 -0.0305,-0.01014 -0.32555,0.618942 -0.65558,1.397958 -0.33002,0.779016 -0.71048,1.677213 -0.84546,1.995994 l -0.24543,0.5796 -0.31609,0.08977 c -0.17384,0.04937 -1.06617,0.271476 -1.982954,0.493562 -0.916782,0.222087 -1.72431,0.428133 -1.794506,0.45788 -0.108308,0.0459 -0.11632,0.06443 -0.05292,0.122381 0.04109,0.03756 0.658122,0.409016 1.371174,0.8254527 1.876146,1.0957042 2.148606,1.2606342 2.215276,1.3409654 0.067,0.080708 0.13548,0.406461 0.21512,1.0229968 0.14806,1.1462669 0.32414,2.1592967 0.3852,2.2161503 0.0547,0.050935 1.13185,0.546724 1.47066,0.6769212 0.13123,0.050425 0.37263,-0.00995 0.84667,-0.2117488 z"
       id="path5989" />
  </g>
</svg>
