<?xml version="1.0" encoding="UTF-8" standalone="no"?>
<svg
   xmlns:dc="http://purl.org/dc/elements/1.1/"
   xmlns:cc="http://creativecommons.org/ns#"
   xmlns:rdf="http://www.w3.org/1999/02/22-rdf-syntax-ns#"
   xmlns:svg="http://www.w3.org/2000/svg"
   xmlns="http://www.w3.org/2000/svg"
   xmlns:sodipodi="http://sodipodi.sourceforge.net/DTD/sodipodi-0.dtd"
   xmlns:inkscape="http://www.inkscape.org/namespaces/inkscape"
   width="13.229167mm"
   height="13.229167mm"
   viewBox="0 0 13.229167 13.229167"
   version="1.1"
   id="svg8"
   sodipodi:docname="VCS_resized_21.svg"
   inkscape:version="1.0.2-2 (e86c870879, 2021-01-15)">
  <defs
     id="defs2" />
  <sodipodi:namedview
     id="base"
     pagecolor="#ffffff"
     bordercolor="#666666"
     borderopacity="1.0"
     inkscape:pageopacity="0.0"
     inkscape:pageshadow="2"
     inkscape:zoom="2.8284271"
     inkscape:cx="14.982215"
     inkscape:cy="79.681979"
     inkscape:document-units="mm"
     inkscape:current-layer="layer1"
     inkscape:document-rotation="0"
     showgrid="false"
     inkscape:window-width="958"
     inkscape:window-height="1008"
     inkscape:window-x="1913"
     inkscape:window-y="0"
     inkscape:window-maximized="0" />
  <metadata
     id="metadata5">
    <rdf:RDF>
      <cc:Work
         rdf:about="">
        <dc:format>image/svg+xml</dc:format>
        <dc:type
           rdf:resource="http://purl.org/dc/dcmitype/StillImage" />
        <dc:title></dc:title>
      </cc:Work>
    </rdf:RDF>
  </metadata>
  <g
     inkscape:label="Ebene 1"
     inkscape:groupmode="layer"
     id="layer1"
     transform="translate(-34.235943,-5.509088)">
    <path
       style="fill:#000000;stroke-width:0.264582"
       d="m 38.195802,17.186418 c -0.163022,-0.151414 -0.343396,-0.58763 -0.36974,-0.894181 -0.03924,-0.456648 0.06047,-0.973728 0.286618,-1.486244 0.296008,-0.670847 0.41221,-1.05793 0.451374,-1.503597 0.02854,-0.324801 0.0167,-0.412468 -0.08376,-0.619986 -0.145046,-0.299622 -0.54081,-0.666028 -1.150444,-1.065096 -0.256834,-0.168125 -0.56157,-0.367957 -0.67719,-0.444071 -0.11562,-0.07611 -0.36832,-0.29317 -0.561556,-0.482347 -0.984554,-0.9638783 -0.706194,-1.6077811 0.6924,-1.6016623 0.53869,0.00235 0.617022,0.021485 1.896864,0.4632082 0.577466,0.1993064 0.780086,0.2451686 1.11125,0.2515266 0.354818,0.00681 0.43226,-0.00957 0.624878,-0.1322212 0.30793,-0.1960696 0.494632,-0.405927 0.929334,-1.044601 0.207998,-0.3055938 0.463142,-0.6610044 0.566988,-0.7898018 0.271108,-0.3362472 0.742754,-0.665067 1.146814,-0.7995296 0.343528,-0.1143186 0.351922,-0.1146122 0.482802,-0.016896 0.237512,0.1773276 0.351694,0.5575544 0.355224,1.1828932 0.0031,0.5526834 0.0016,0.5592398 -0.277158,1.2383194 -0.443058,1.0791315 -0.539336,1.6816605 -0.333256,2.0856115 0.124012,0.24308 0.491024,0.586342 1.000616,0.935861 1.199088,0.822428 1.536034,1.129304 1.790884,1.631059 0.0905,0.178184 0.124778,0.321944 0.11355,0.47625 -0.01512,0.207898 -0.03307,0.23013 -0.302212,0.374354 -0.23932,0.128245 -0.364844,0.157186 -0.76729,0.176906 -0.446314,0.02187 -0.521404,0.0098 -1.036788,-0.16665 -1.129586,-0.386732 -1.402818,-0.457661 -1.878542,-0.487656 -0.368098,-0.02321 -0.520382,-0.01108 -0.670588,0.05341 -0.319624,0.137235 -0.828106,0.656653 -1.222322,1.248609 -0.623634,0.936455 -0.915536,1.213075 -1.49919,1.420707 -0.403606,0.14358 -0.46089,0.143194 -0.619562,-0.0042 z m 0.745096,-0.31347 c 0.221426,-0.06733 0.606808,-0.444864 0.935904,-0.916843 0.584852,-0.838773 0.832798,-1.139387 1.124268,-1.36308 0.5171,-0.396854 0.608298,-0.428507 1.121058,-0.389093 0.542824,0.04172 0.87369,0.122241 1.799566,0.437921 0.671266,0.22887 0.732936,0.240458 1.164168,0.218756 0.595004,-0.02994 0.79931,-0.129537 0.79931,-0.389638 0,-0.429878 -0.398702,-0.871796 -1.419658,-1.573537 -0.856014,-0.588371 -1.036842,-0.742157 -1.318992,-1.121746 l -0.235998,-0.3175 0.03618,-0.464164 c 0.04264,-0.547016 0.14836,-0.940373 0.43704,-1.6260443 0.301512,-0.7161494 0.345478,-0.9326504 0.276838,-1.3632202 -0.03126,-0.1961144 -0.09913,-0.428009 -0.15081,-0.5153216 -0.08693,-0.1468548 -0.113464,-0.1574982 -0.354178,-0.1420452 -0.49794,0.031966 -0.92923,0.4077316 -1.567928,1.3660734 -0.431778,0.6478678 -0.711296,0.9677982 -1.029948,1.1788648 -0.218802,0.1449281 -0.290498,0.1635651 -0.62923,0.1635651 -0.421794,0 -1.15996,-0.1779633 -2.068752,-0.4987531 -0.633912,-0.2237608 -1.045098,-0.2780168 -1.457756,-0.1923494 -0.389208,0.0808 -0.571034,0.2221098 -0.570774,0.4435894 4e-4,0.3815701 0.372364,0.7617671 1.453892,1.4862661 0.774622,0.518907 1.28375,0.965769 1.43618,1.260535 0.233836,0.452188 0.130816,1.163573 -0.323918,2.236754 -0.326916,0.771532 -0.391718,1.164066 -0.268668,1.627448 0.156546,0.589521 0.230068,0.630577 0.812208,0.453562 z"
       id="path328" />
  </g>
</svg>
