<?xml version="1.0" encoding="UTF-8" standalone="no"?>
<svg
   xmlns:dc="http://purl.org/dc/elements/1.1/"
   xmlns:cc="http://creativecommons.org/ns#"
   xmlns:rdf="http://www.w3.org/1999/02/22-rdf-syntax-ns#"
   xmlns:svg="http://www.w3.org/2000/svg"
   xmlns="http://www.w3.org/2000/svg"
   xmlns:sodipodi="http://sodipodi.sourceforge.net/DTD/sodipodi-0.dtd"
   xmlns:inkscape="http://www.inkscape.org/namespaces/inkscape"
   width="13.229167mm"
   height="13.229167mm"
   viewBox="0 0 13.229169 13.229168"
   version="1.1"
   id="svg8"
   sodipodi:docname="VCS_resized_240.svg"
   inkscape:version="1.0.2-2 (e86c870879, 2021-01-15)">
  <defs
     id="defs2" />
  <sodipodi:namedview
     id="base"
     pagecolor="#ffffff"
     bordercolor="#666666"
     borderopacity="1.0"
     inkscape:pageopacity="0.0"
     inkscape:pageshadow="2"
     inkscape:zoom="4"
     inkscape:cx="18.861858"
     inkscape:cy="30.779396"
     inkscape:document-units="mm"
     inkscape:current-layer="layer1"
     inkscape:document-rotation="0"
     showgrid="false"
     inkscape:window-width="958"
     inkscape:window-height="1008"
     inkscape:window-x="1913"
     inkscape:window-y="0"
     inkscape:window-maximized="0" />
  <metadata
     id="metadata5">
    <rdf:RDF>
      <cc:Work
         rdf:about="">
        <dc:format>image/svg+xml</dc:format>
        <dc:type
           rdf:resource="http://purl.org/dc/dcmitype/StillImage" />
        <dc:title></dc:title>
      </cc:Work>
    </rdf:RDF>
  </metadata>
  <g
     inkscape:label="Ebene 1"
     inkscape:groupmode="layer"
     id="layer1"
     transform="translate(-74.059555,-16.080288)">
    <path
       style="fill:#000000;stroke-width:0.264582"
       d="m 76.545995,28.92581 c -0.02783,-0.03638 -0.115884,-0.506678 -0.195668,-1.045104 -0.07979,-0.538428 -0.202648,-1.312334 -0.273028,-1.719792 -0.07038,-0.407458 -0.149668,-0.873342 -0.176194,-1.035298 -0.035,-0.213736 -0.298052,-0.798707 -0.959522,-2.133802 -0.501212,-1.011636 -0.890432,-1.857246 -0.86493,-1.879132 0.0255,-0.02189 0.201144,-0.106878 0.390322,-0.188869 0.189178,-0.08199 0.522552,-0.231491 0.740834,-0.332224 0.21828,-0.100733 0.635,-0.285785 0.92604,-0.411227 1.477698,-0.6369 1.597598,-0.708766 2.172316,-1.302042 0.292546,-0.30199 0.921036,-0.983652 1.396646,-1.514803 0.475612,-0.531151 0.892502,-0.965729 0.926426,-0.965729 0.0992,0 0.18905,0.08955 0.929212,0.926042 0.386286,0.436562 0.978746,1.075395 1.316578,1.419629 0.734806,0.748732 0.733562,0.748016 3.101322,1.781779 0.824214,0.359852 1.29646,0.579501 1.29646,0.603008 0,0.01035 -0.323402,0.682585 -0.718668,1.493864 -0.395268,0.81128 -0.812646,1.668653 -0.927506,1.905276 -0.114862,0.236622 -0.231128,0.558092 -0.25837,0.714376 -0.06595,0.37833 -0.232836,1.44878 -0.403168,2.586026 -0.07628,0.509324 -0.172212,0.97962 -0.213172,1.045104 l -0.07447,0.119064 h -4.040424 c -3.170074,0 -4.051328,-0.01424 -4.091032,-0.06615 z m 7.95461,-0.238936 c 0.03236,-0.02138 0.09904,-0.324628 0.148176,-0.673878 0.04914,-0.34925 0.157842,-1.004094 0.241568,-1.455208 0.08373,-0.451114 0.177342,-1.017172 0.208032,-1.257904 0.05098,-0.399892 0.113342,-0.55758 0.721972,-1.825626 0.366394,-0.763361 0.76089,-1.564524 0.876654,-1.780364 0.17161,-0.319955 0.197796,-0.404658 0.141788,-0.458611 -0.03778,-0.0364 -0.294914,-0.16492 -0.571404,-0.285607 -0.276488,-0.120687 -0.681302,-0.298783 -0.899582,-0.395771 -0.218282,-0.09699 -0.742156,-0.325007 -1.164168,-0.506711 l -0.767292,-0.330371 -0.820208,-0.829266 c -0.451114,-0.456096 -1.058332,-1.107491 -1.349374,-1.447544 -0.291042,-0.340053 -0.5666,-0.618416 -0.61235,-0.618585 -0.04575,-1.69e-4 -0.367218,0.326897 -0.714374,0.726813 -0.347156,0.399916 -0.92885,1.033599 -1.292652,1.408185 -0.69453,0.715118 -0.809474,0.793877 -1.74625,1.19652 -1.444336,0.620802 -2.363396,1.032237 -2.41681,1.081932 -0.04664,0.0434 0.148612,0.48406 0.787598,1.777493 0.790174,1.599469 0.854968,1.753113 0.926094,2.196043 0.04206,0.261936 0.133202,0.785812 0.202534,1.164166 0.06933,0.378354 0.175226,1.033198 0.235326,1.455208 0.0601,0.42201 0.119808,0.797058 0.132688,0.833438 0.01844,0.0521 0.835572,0.06597 3.848306,0.06534 2.10369,-4e-4 3.851368,-0.0183 3.883728,-0.03969 z"
       id="path4739" />
  </g>
</svg>
