<?xml version="1.0" encoding="UTF-8" standalone="no"?>
<svg
   xmlns:dc="http://purl.org/dc/elements/1.1/"
   xmlns:cc="http://creativecommons.org/ns#"
   xmlns:rdf="http://www.w3.org/1999/02/22-rdf-syntax-ns#"
   xmlns:svg="http://www.w3.org/2000/svg"
   xmlns="http://www.w3.org/2000/svg"
   xmlns:sodipodi="http://sodipodi.sourceforge.net/DTD/sodipodi-0.dtd"
   xmlns:inkscape="http://www.inkscape.org/namespaces/inkscape"
   width="13.229167mm"
   height="13.229167mm"
   viewBox="0 0 13.229169 13.229168"
   version="1.1"
   id="svg8"
   sodipodi:docname="VCS_resized_232.svg"
   inkscape:version="1.0.2-2 (e86c870879, 2021-01-15)">
  <defs
     id="defs2" />
  <sodipodi:namedview
     id="base"
     pagecolor="#ffffff"
     bordercolor="#666666"
     borderopacity="1.0"
     inkscape:pageopacity="0.0"
     inkscape:pageshadow="2"
     inkscape:zoom="2.8284271"
     inkscape:cx="-19.792189"
     inkscape:cy="47.97947"
     inkscape:document-units="mm"
     inkscape:current-layer="layer1"
     inkscape:document-rotation="0"
     showgrid="false"
     inkscape:window-width="958"
     inkscape:window-height="1008"
     inkscape:window-x="1913"
     inkscape:window-y="0"
     inkscape:window-maximized="0" />
  <metadata
     id="metadata5">
    <rdf:RDF>
      <cc:Work
         rdf:about="">
        <dc:format>image/svg+xml</dc:format>
        <dc:type
           rdf:resource="http://purl.org/dc/dcmitype/StillImage" />
        <dc:title></dc:title>
      </cc:Work>
    </rdf:RDF>
  </metadata>
  <g
     inkscape:label="Ebene 1"
     inkscape:groupmode="layer"
     id="layer1"
     transform="translate(-53.800045,-17.985933)">
    <path
       style="fill:#000000;stroke-width:0.264582"
       d="m 56.344817,30.738851 c -0.02554,-0.06548 -0.12351,-0.488156 -0.217702,-0.939271 -0.09419,-0.451114 -0.249038,-1.129771 -0.344104,-1.508125 -0.09507,-0.378354 -0.201472,-0.878036 -0.236456,-1.110404 -0.03672,-0.243915 -0.164692,-0.680059 -0.302764,-1.031875 -0.131536,-0.335163 -0.28089,-0.72845 -0.3319,-0.873971 -0.05101,-0.145521 -0.259186,-0.633677 -0.462616,-1.084791 -0.528028,-1.170919 -0.577076,-1.312395 -0.48502,-1.398977 0.04096,-0.03853 0.824732,-0.430741 1.741702,-0.87158 1.90601,-0.916326 1.703788,-0.771342 3.53993,-2.537964 0.593806,-0.571324 1.121554,-1.038771 1.17277,-1.038771 0.05122,0 0.589314,0.478713 1.195768,1.063807 1.735756,1.674619 1.502394,1.508638 3.498322,2.488211 0.968374,0.475264 1.77323,0.896822 1.78857,0.936797 0.01534,0.03998 -0.148586,0.487002 -0.36428,0.993392 -0.880544,2.067281 -1.133824,2.804677 -1.443136,4.201543 -0.07733,0.34925 -0.20987,0.932656 -0.294526,1.296458 -0.08465,0.363802 -0.179612,0.804334 -0.211018,0.978959 -0.03141,0.174625 -0.0908,0.371078 -0.131978,0.436562 l -0.07487,0.119063 h -3.995122 -3.995124 z m 7.854662,-0.186018 c 0.05391,-0.03906 0.361288,-1.320471 0.694758,-2.896378 0.09854,-0.465666 0.21735,-0.965729 0.264024,-1.11125 0.172562,-0.537999 0.737408,-1.953602 1.168846,-2.929327 0.1651,-0.373382 0.26929,-0.673763 0.242866,-0.700187 -0.02545,-0.02545 -0.593206,-0.305117 -1.261674,-0.621477 -2.36263,-1.118143 -2.188296,-0.998557 -3.838988,-2.633399 -0.540746,-0.535554 -1.008224,-0.973735 -1.038838,-0.973735 -0.03062,0 -0.397814,0.337621 -0.815992,0.75027 -0.41818,0.412648 -1.034172,0.997937 -1.36887,1.300641 -0.628622,0.568534 -0.932228,0.754454 -2.005862,1.228338 -0.784464,0.346249 -1.934942,0.911222 -1.9706,0.967714 -0.03587,0.05682 0.0947,0.389186 0.566326,1.441579 0.502218,1.120663 0.872358,2.163785 0.980412,2.762981 0.05574,0.309115 0.160164,0.790213 0.232044,1.069106 0.168144,0.652404 0.317238,1.297346 0.423044,1.829996 0.04625,0.232834 0.09462,0.453099 0.107496,0.489479 0.01844,0.05209 0.824968,0.06597 3.795376,0.06534 2.074586,-4.2e-4 3.79612,-0.01831 3.825632,-0.03969 z"
       id="path4611" />
  </g>
</svg>
