<?xml version="1.0" encoding="UTF-8" standalone="no"?>
<svg
   xmlns:dc="http://purl.org/dc/elements/1.1/"
   xmlns:cc="http://creativecommons.org/ns#"
   xmlns:rdf="http://www.w3.org/1999/02/22-rdf-syntax-ns#"
   xmlns:svg="http://www.w3.org/2000/svg"
   xmlns="http://www.w3.org/2000/svg"
   xmlns:sodipodi="http://sodipodi.sourceforge.net/DTD/sodipodi-0.dtd"
   xmlns:inkscape="http://www.inkscape.org/namespaces/inkscape"
   width="13.229167mm"
   height="13.229167mm"
   viewBox="0 0 13.229167 13.229167"
   version="1.1"
   id="svg8"
   sodipodi:docname="VCS_resized_38.svg"
   inkscape:version="1.0.2-2 (e86c870879, 2021-01-15)">
  <defs
     id="defs2" />
  <sodipodi:namedview
     id="base"
     pagecolor="#ffffff"
     bordercolor="#666666"
     borderopacity="1.0"
     inkscape:pageopacity="0.0"
     inkscape:pageshadow="2"
     inkscape:zoom="2.8284271"
     inkscape:cx="-11.508669"
     inkscape:cy="50.004538"
     inkscape:document-units="mm"
     inkscape:current-layer="layer1"
     inkscape:document-rotation="0"
     showgrid="false"
     inkscape:window-width="958"
     inkscape:window-height="1008"
     inkscape:window-x="1913"
     inkscape:window-y="0"
     inkscape:window-maximized="0" />
  <metadata
     id="metadata5">
    <rdf:RDF>
      <cc:Work
         rdf:about="">
        <dc:format>image/svg+xml</dc:format>
        <dc:type
           rdf:resource="http://purl.org/dc/dcmitype/StillImage" />
        <dc:title></dc:title>
      </cc:Work>
    </rdf:RDF>
  </metadata>
  <g
     inkscape:label="Ebene 1"
     inkscape:groupmode="layer"
     id="layer1"
     transform="translate(-41.244987,-13.361245)">
    <path
       style="fill:#000000;stroke-width:0.264582"
       d="m 44.389844,24.803022 c -0.48887,-0.283326 -0.638086,-1.14788 -0.31749,-1.839518 0.08769,-0.189176 0.276194,-0.498738 0.418898,-0.687916 0.563234,-0.746654 0.777726,-1.218636 0.781562,-1.719792 0.0045,-0.586302 -0.272518,-0.99375 -1.212038,-1.782792 -1.034682,-0.868964 -1.323694,-1.306773 -1.287342,-1.950127 0.01766,-0.312337 0.0419,-0.386806 0.169242,-0.519724 0.236728,-0.24709 0.558904,-0.343643 1.037258,-0.310855 0.509816,0.03494 0.791714,0.162653 1.7425,0.78942 1.219532,0.803928 1.827404,0.876554 2.549544,0.30461 0.112856,-0.08938 0.420816,-0.434842 0.684358,-0.767687 0.715478,-0.903626 1.182474,-1.236052 1.798548,-1.280281 0.503098,-0.03612 0.709246,0.06384 0.871104,0.422381 0.244234,0.541018 0.225922,1.126303 -0.05262,1.68193 -0.06566,0.130969 -0.257016,0.428625 -0.425246,0.661459 -0.421696,0.583636 -0.629752,0.998752 -0.707746,1.412092 -0.133878,0.709538 0.109546,1.103004 1.233416,1.993662 1.00041,0.792814 1.271026,1.183522 1.274808,1.840518 0.0025,0.430896 -0.04918,0.518114 -0.44386,0.749412 -0.191746,0.112372 -0.319572,0.141492 -0.70116,0.159736 -0.539882,0.02581 -0.75534,-0.03803 -1.683846,-0.49897 -0.660298,-0.32779 -1.11091,-0.456572 -1.613958,-0.461258 -0.58985,-0.0055 -1.036128,0.242298 -1.74625,0.969592 -0.73891,0.75678 -1.109986,0.953508 -1.794348,0.951292 -0.288466,-0.001 -0.421508,-0.02803 -0.575334,-0.117184 z m 1.30819,-0.278984 c 0.11468,-0.05527 0.486928,-0.368214 0.827222,-0.69544 0.706226,-0.67911 0.992024,-0.877974 1.477328,-1.027958 0.593124,-0.183302 1.173726,-0.06054 2.350082,0.496916 0.73877,0.350088 0.815916,0.375118 1.221906,0.396426 0.354044,0.01858 0.47765,0.0031 0.675418,-0.08433 0.339518,-0.150184 0.427976,-0.305364 0.399384,-0.700636 -0.0326,-0.450666 -0.287418,-0.796684 -1.018152,-1.382534 -0.729318,-0.584718 -1.00545,-0.852534 -1.221332,-1.18455 -0.281836,-0.433452 -0.317662,-0.623732 -0.213876,-1.135934 0.10388,-0.51267 0.332876,-0.99153 0.720996,-1.507698 0.589972,-0.784611 0.76684,-1.42497 0.537056,-1.944436 -0.138184,-0.312384 -0.310924,-0.423967 -0.664244,-0.429075 -0.556822,-0.008 -0.990684,0.317831 -1.780426,1.337305 -1.056708,1.364096 -1.96934,1.399646 -3.729544,0.145283 -0.588374,-0.419289 -0.880874,-0.532992 -1.377826,-0.535603 -0.471224,-0.0025 -0.65778,0.07879 -0.796456,0.346965 -0.220022,0.425477 -0.0058,0.916346 0.672196,1.539993 1.154938,1.062418 1.332148,1.245324 1.527756,1.57686 0.111614,0.189178 0.218568,0.452596 0.237674,0.585378 0.07514,0.52216 -0.176752,1.223008 -0.67506,1.878242 -0.323226,0.425012 -0.604618,0.949234 -0.67205,1.25199 -0.110612,0.49664 0.119908,1.036868 0.490848,1.150308 0.250652,0.07665 0.774592,0.03651 1.0111,-0.07747 z"
       id="path600" />
  </g>
</svg>
