<?xml version="1.0" encoding="UTF-8" standalone="no"?>
<svg
   xmlns:dc="http://purl.org/dc/elements/1.1/"
   xmlns:cc="http://creativecommons.org/ns#"
   xmlns:rdf="http://www.w3.org/1999/02/22-rdf-syntax-ns#"
   xmlns:svg="http://www.w3.org/2000/svg"
   xmlns="http://www.w3.org/2000/svg"
   xmlns:sodipodi="http://sodipodi.sourceforge.net/DTD/sodipodi-0.dtd"
   xmlns:inkscape="http://www.inkscape.org/namespaces/inkscape"
   width="13.229167mm"
   height="13.229167mm"
   viewBox="0 0 13.229167 13.229167"
   version="1.1"
   id="svg8"
   sodipodi:docname="VCS_resized_29.svg"
   inkscape:version="1.0.2-2 (e86c870879, 2021-01-15)">
  <defs
     id="defs2" />
  <sodipodi:namedview
     id="base"
     pagecolor="#ffffff"
     bordercolor="#666666"
     borderopacity="1.0"
     inkscape:pageopacity="0.0"
     inkscape:pageshadow="2"
     inkscape:zoom="2.8284271"
     inkscape:cx="8.0415939"
     inkscape:cy="57.708107"
     inkscape:document-units="mm"
     inkscape:current-layer="layer1"
     inkscape:document-rotation="0"
     showgrid="false"
     inkscape:window-width="958"
     inkscape:window-height="1008"
     inkscape:window-x="1913"
     inkscape:window-y="0"
     inkscape:window-maximized="0" />
  <metadata
     id="metadata5">
    <rdf:RDF>
      <cc:Work
         rdf:about="">
        <dc:format>image/svg+xml</dc:format>
        <dc:type
           rdf:resource="http://purl.org/dc/dcmitype/StillImage" />
        <dc:title></dc:title>
      </cc:Work>
    </rdf:RDF>
  </metadata>
  <g
     inkscape:label="Ebene 1"
     inkscape:groupmode="layer"
     id="layer1"
     transform="translate(-36.072315,-11.323009)">
    <path
       style="fill:#000000;stroke-width:0.264582"
       d="m 39.536087,22.822813 c -0.07141,-0.07141 -0.183226,-0.271213 -0.24849,-0.444017 -0.218458,-0.57843 -0.09063,-1.267891 0.37909,-2.044729 0.522112,-0.863482 0.684452,-1.577165 0.47081,-2.069785 -0.149428,-0.344555 -0.597394,-0.801214 -1.212842,-1.236381 -0.991892,-0.701341 -1.444874,-1.276062 -1.458388,-1.850332 -0.0055,-0.235518 0.01542,-0.298745 0.143432,-0.432518 0.408644,-0.427051 1.532376,-0.403734 2.329124,0.04833 0.391876,0.222343 1.072922,0.531437 1.376214,0.624595 0.894448,0.274738 1.307504,0.07538 2.126374,-1.026282 0.547666,-0.7368 0.89274,-1.079325 1.276836,-1.267397 0.383136,-0.187604 0.903962,-0.243299 1.096354,-0.11724 0.188246,0.123345 0.356072,0.615478 0.363446,1.065772 0.0077,0.468014 -0.102754,0.808498 -0.46378,1.430115 -0.556762,0.958642 -0.717946,1.623001 -0.509952,2.10189 0.136778,0.314919 0.435866,0.602986 1.309528,1.261267 0.381278,0.287284 0.779304,0.617603 0.8845,0.734042 0.421528,0.466582 0.640336,1.203412 0.427354,1.439104 -0.195108,0.21591 -0.597634,0.374222 -1.002272,0.394188 -0.453944,0.0224 -0.855114,-0.09228 -1.75549,-0.501832 -0.581024,-0.264288 -1.164302,-0.428034 -1.524694,-0.428034 -0.248564,0 -0.724666,0.220673 -1.03292,0.478757 -0.141554,0.118516 -0.460684,0.471979 -0.709178,0.785474 -0.695278,0.877146 -1.026502,1.099344 -1.718286,1.152691 -0.393348,0.03033 -0.424292,0.0248 -0.54677,-0.09767 z m 1.117746,-0.304639 c 0.272104,-0.138817 0.55992,-0.425093 1.090068,-1.084232 0.419326,-0.521352 0.759244,-0.817997 1.192748,-1.040908 0.484212,-0.248984 1.284164,-0.118005 2.461634,0.403051 0.363334,0.160783 0.785576,0.316033 0.938314,0.344999 0.370084,0.07018 0.850264,0.01113 1.061066,-0.130487 0.144394,-0.09701 0.171554,-0.150136 0.18529,-0.362458 0.03139,-0.48513 -0.303106,-0.900591 -1.339128,-1.663284 -0.686502,-0.505386 -1.153226,-0.97647 -1.30309,-1.315264 -0.08624,-0.194962 -0.101056,-0.304406 -0.07362,-0.543904 0.07525,-0.656977 0.175636,-0.934501 0.632964,-1.749894 0.400542,-0.714144 0.489592,-1.027242 0.415384,-1.460466 -0.032,-0.186788 -0.111808,-0.414938 -0.177362,-0.507 -0.11712,-0.16448 -0.125254,-0.166952 -0.468554,-0.142389 -0.192148,0.01375 -0.431046,0.06724 -0.53088,0.118864 -0.26756,0.138361 -0.669906,0.567799 -1.088174,1.161446 -0.37371,0.53041 -0.80829,0.947121 -1.19174,1.142743 -0.439232,0.22408 -1.201932,0.06006 -2.31548,-0.497937 -1.046982,-0.524643 -1.536364,-0.622013 -2.040386,-0.405965 -0.382688,0.164041 -0.446294,0.41144 -0.225372,0.876602 0.154662,0.325649 0.458326,0.61759 1.258266,1.20969 0.985136,0.729181 1.366706,1.245354 1.366706,1.848831 0,0.413715 -0.235584,1.107679 -0.556906,1.640486 -0.30164,0.500174 -0.498806,1.037538 -0.500312,1.363576 -0.0018,0.373875 0.129622,0.748003 0.30134,0.858327 0.188426,0.121059 0.60109,0.09175 0.907228,-0.06443 z"
       id="path456" />
  </g>
</svg>
