<?xml version="1.0" encoding="UTF-8" standalone="no"?>
<svg
   xmlns:dc="http://purl.org/dc/elements/1.1/"
   xmlns:cc="http://creativecommons.org/ns#"
   xmlns:rdf="http://www.w3.org/1999/02/22-rdf-syntax-ns#"
   xmlns:svg="http://www.w3.org/2000/svg"
   xmlns="http://www.w3.org/2000/svg"
   xmlns:sodipodi="http://sodipodi.sourceforge.net/DTD/sodipodi-0.dtd"
   xmlns:inkscape="http://www.inkscape.org/namespaces/inkscape"
   width="13.229167mm"
   height="13.229167mm"
   viewBox="0 0 13.229167 13.229167"
   version="1.1"
   id="svg8"
   sodipodi:docname="VCS_resized_87.svg"
   inkscape:version="1.0.2-2 (e86c870879, 2021-01-15)">
  <defs
     id="defs2" />
  <sodipodi:namedview
     id="base"
     pagecolor="#ffffff"
     bordercolor="#666666"
     borderopacity="1.0"
     inkscape:pageopacity="0.0"
     inkscape:pageshadow="2"
     inkscape:zoom="2.8284271"
     inkscape:cx="7.584402"
     inkscape:cy="28.961553"
     inkscape:document-units="mm"
     inkscape:current-layer="layer1"
     inkscape:document-rotation="0"
     showgrid="false"
     inkscape:window-width="958"
     inkscape:window-height="1008"
     inkscape:window-x="1913"
     inkscape:window-y="0"
     inkscape:window-maximized="0" />
  <metadata
     id="metadata5">
    <rdf:RDF>
      <cc:Work
         rdf:about="">
        <dc:format>image/svg+xml</dc:format>
        <dc:type
           rdf:resource="http://purl.org/dc/dcmitype/StillImage" />
        <dc:title></dc:title>
      </cc:Work>
    </rdf:RDF>
  </metadata>
  <g
     inkscape:label="Ebene 1"
     inkscape:groupmode="layer"
     id="layer1"
     transform="translate(-36.193279,-18.928869)">
    <path
       style="fill:#000000;stroke-width:0.264582"
       d="m 40.785266,31.09531 c -1.087142,-0.07365 -1.921284,-0.41924 -2.416068,-1.000986 -0.472436,-0.555472 -0.576656,-0.83589 -0.481328,-1.295086 0.08032,-0.386914 0.287384,-0.678254 1.038274,-1.460874 0.691502,-0.720724 0.87394,-0.984059 0.968534,-1.397999 0.149334,-0.653487 -0.146314,-1.280072 -1.165154,-2.469377 -0.768438,-0.897008 -1.043536,-1.744872 -0.8154,-2.513092 0.09661,-0.325305 0.256938,-0.567753 0.510222,-0.771537 0.566872,-0.456089 1.402916,-0.206171 2.136102,0.638541 0.174624,0.201188 0.460374,0.531489 0.635,0.734003 0.5747,0.666485 1.018372,0.915857 1.627754,0.914903 0.622382,-9.8e-4 0.998876,-0.262857 1.868754,-1.299873 0.495136,-0.59027 0.796176,-0.873117 1.153956,-1.084212 0.400082,-0.236054 1.070624,-0.127725 1.413118,0.228293 0.325464,0.338317 0.498558,1.13696 0.373154,1.721704 -0.08729,0.406993 -0.355432,0.917214 -0.69035,1.313574 -1.157412,1.36974 -1.443992,1.975248 -1.250264,2.641649 0.129404,0.445135 0.41384,0.823988 1.096922,1.461043 0.702484,0.655148 0.93476,1.017254 0.981224,1.529674 0.02449,0.270112 0.0082,0.351038 -0.122826,0.610004 -0.178606,0.353006 -0.43101,0.581862 -0.9649,0.874878 -0.629946,0.345736 -1.00204,0.461722 -1.768944,0.551406 -0.806578,0.09432 -3.192486,0.136728 -4.12778,0.07336 z m 2.764974,-0.2846 c 1.503472,-0.03641 1.99582,-0.132314 2.900118,-0.564918 0.92785,-0.44387 1.237092,-1.06024 0.86095,-1.716016 -0.08457,-0.147448 -0.44749,-0.576954 -0.806482,-0.954456 -0.358992,-0.377501 -0.716438,-0.780736 -0.794326,-0.896077 -0.218154,-0.323057 -0.327296,-0.773311 -0.291356,-1.201983 0.05172,-0.616909 0.347454,-1.145726 1.272368,-2.275179 0.160808,-0.196369 0.38301,-0.540375 0.493782,-0.764457 0.182862,-0.369915 0.201404,-0.446655 0.201404,-0.833591 0,-0.549453 -0.117374,-0.866258 -0.405488,-1.094448 -0.56694,-0.449024 -1.286414,-0.138746 -2.101778,0.906405 -0.462572,0.592935 -0.947972,1.046383 -1.311912,1.22555 -0.296586,0.146008 -0.408364,0.17248 -0.726304,0.172007 -0.767522,-0.0011 -1.223872,-0.269922 -1.960388,-1.154619 -0.876744,-1.053136 -1.249642,-1.327219 -1.806166,-1.327543 -0.273306,-1.58e-4 -0.351754,0.0228 -0.522226,0.152823 -0.288402,0.219975 -0.418236,0.545968 -0.415758,1.043909 0.0018,0.352301 0.02614,0.453351 0.193306,0.8009 0.111368,0.231542 0.424984,0.693243 0.750558,1.104957 0.631294,0.798323 1.000264,1.471851 1.089834,1.989411 0.04967,0.287015 0.04293,0.376054 -0.05205,0.687917 -0.151668,0.497978 -0.335486,0.763129 -1.03069,1.48672 -0.912668,0.949938 -1.060822,1.28569 -0.809534,1.834576 0.160666,0.350942 0.588922,0.790204 0.968714,0.99361 0.417122,0.2234 1.0174,0.356504 1.763424,0.391018 0.363802,0.01682 0.66778,0.03606 0.675506,0.04272 0.0077,0.0067 0.18632,0.0042 0.396876,-0.0054 0.210554,-0.0096 0.870982,-0.02937 1.467618,-0.04382 z"
       id="path1434" />
  </g>
</svg>
