<?xml version="1.0" encoding="UTF-8" standalone="no"?>
<svg
   xmlns:dc="http://purl.org/dc/elements/1.1/"
   xmlns:cc="http://creativecommons.org/ns#"
   xmlns:rdf="http://www.w3.org/1999/02/22-rdf-syntax-ns#"
   xmlns:svg="http://www.w3.org/2000/svg"
   xmlns="http://www.w3.org/2000/svg"
   xmlns:sodipodi="http://sodipodi.sourceforge.net/DTD/sodipodi-0.dtd"
   xmlns:inkscape="http://www.inkscape.org/namespaces/inkscape"
   width="13.229167mm"
   height="13.229167mm"
   viewBox="0 0 13.229169 13.229168"
   version="1.1"
   id="svg8"
   sodipodi:docname="VCS_resized_315.svg"
   inkscape:version="1.0.2-2 (e86c870879, 2021-01-15)">
  <defs
     id="defs2" />
  <sodipodi:namedview
     id="base"
     pagecolor="#ffffff"
     bordercolor="#666666"
     borderopacity="1.0"
     inkscape:pageopacity="0.0"
     inkscape:pageshadow="2"
     inkscape:zoom="4"
     inkscape:cx="20.64103"
     inkscape:cy="31.249803"
     inkscape:document-units="mm"
     inkscape:current-layer="layer1"
     inkscape:document-rotation="0"
     showgrid="false"
     inkscape:window-width="958"
     inkscape:window-height="1008"
     inkscape:window-x="1913"
     inkscape:window-y="0"
     inkscape:window-maximized="0" />
  <metadata
     id="metadata5">
    <rdf:RDF>
      <cc:Work
         rdf:about="">
        <dc:format>image/svg+xml</dc:format>
        <dc:type
           rdf:resource="http://purl.org/dc/dcmitype/StillImage" />
        <dc:title></dc:title>
      </cc:Work>
    </rdf:RDF>
  </metadata>
  <g
     inkscape:label="Ebene 1"
     inkscape:groupmode="layer"
     id="layer1"
     transform="translate(-92.412323,16.691397)">
    <path
       style="fill:#000000;stroke-width:0.264582"
       d="m 98.523881,-4.1932296 c -0.174626,-0.074279 -0.54372,-0.222868 -0.820208,-0.3301974 -0.27649,-0.1073286 -0.529988,-0.2125466 -0.56333,-0.2338164 -0.03334,-0.02127 -0.08951,-0.2471626 -0.124824,-0.5019844 -0.03531,-0.2548214 -0.107352,-0.7371556 -0.160088,-1.0718535 -0.05274,-0.334698 -0.124672,-0.8228542 -0.159858,-1.0847916 -0.03519,-0.2619376 -0.08308,-0.5271172 -0.10642,-0.5892886 -0.02733,-0.072788 -0.538344,-0.4104942 -1.43511,-0.9484036 -2.2602,-1.3557429 -2.58917,-1.5676769 -2.571978,-1.6569529 0.01574,-0.08175 0.22302,-0.137486 3.398282,-0.913711 l 1.160632,-0.283728 0.207448,-0.502708 c 0.71703,-1.737569 1.545742,-3.638593 1.620828,-3.718091 0.177228,-0.187641 0.198874,-0.144201 1.404475,2.818508 0.58018,1.425762 0.57393,1.414291 0.80477,1.476603 0.53252,0.143743 0.87003,0.231648 1.94913,0.507659 2.11477,0.540913 2.36131,0.615108 2.34392,0.705396 -0.0142,0.07359 -1.38718,0.9273179 -3.24179,2.0157307 -0.36802,0.215974 -0.68972,0.4311708 -0.71489,0.4782152 -0.0252,0.047045 -0.11983,0.5728072 -0.21032,1.168362 -0.22823,1.5019219 -0.31944,2.0287503 -0.36248,2.0937911 -0.0203,0.030702 -0.20363,0.1219698 -0.40736,0.202818 -1.459261,0.5790956 -1.498639,0.5863108 -2.010829,0.3684434 z m 0.95646,-0.252433 c 0.3131,-0.1071542 1.175789,-0.4497818 1.231339,-0.4890384 0.0193,-0.013612 0.23611,-1.2861878 0.43396,-2.5466695 l 0.11826,-0.7534148 0.64083,-0.3789056 c 1.28188,-0.7579508 2.81291,-1.6806851 2.91615,-1.7575261 0.0582,-0.04329 0.0905,-0.09395 0.0719,-0.112576 -0.0186,-0.01863 -0.66153,-0.196084 -1.42867,-0.394355 -0.76714,-0.19827 -1.59721,-0.41311 -1.84459,-0.477421 -0.24739,-0.06431 -0.53916,-0.139768 -0.64839,-0.16768 -0.22349,-0.05711 -0.17328,0.0332 -0.70252,-1.263666 -0.2994,-0.733655 -1.049997,-2.568616 -1.120169,-2.738437 -0.05043,-0.122046 -0.12708,-0.06781 -0.224344,0.15875 -0.0531,0.123692 -0.250746,0.582083 -0.439208,1.018646 -0.18846,0.436562 -0.516208,1.210468 -0.728328,1.719791 -0.21212,0.509323 -0.412374,0.955334 -0.44501,0.991137 -0.05597,0.0614 -0.976498,0.300318 -3.101788,0.80505 -0.977282,0.232094 -1.117222,0.282025 -1.030014,0.367512 0.02886,0.02829 0.788692,0.4938373 1.68851,1.0345465 0.89982,0.5407094 1.710274,1.039731 1.801006,1.108937 0.163964,0.1250608 0.166002,0.132733 0.33377,1.2563026 0.09284,0.6217608 0.196836,1.3389223 0.231104,1.5936933 0.03427,0.254771 0.08956,0.48584 0.122872,0.5134874 0.03331,0.027647 0.249958,0.12046 0.481432,0.2062506 0.231476,0.085791 0.575646,0.2166214 0.764822,0.2907348 0.42741,0.1674442 0.431036,0.1675056 0.877086,0.014852 z"
       id="path5957" />
  </g>
</svg>
