<?xml version="1.0" encoding="UTF-8" standalone="no"?>
<svg
   xmlns:dc="http://purl.org/dc/elements/1.1/"
   xmlns:cc="http://creativecommons.org/ns#"
   xmlns:rdf="http://www.w3.org/1999/02/22-rdf-syntax-ns#"
   xmlns:svg="http://www.w3.org/2000/svg"
   xmlns="http://www.w3.org/2000/svg"
   xmlns:sodipodi="http://sodipodi.sourceforge.net/DTD/sodipodi-0.dtd"
   xmlns:inkscape="http://www.inkscape.org/namespaces/inkscape"
   width="13.229167mm"
   height="13.229167mm"
   viewBox="0 0 13.229169 13.229168"
   version="1.1"
   id="svg8"
   sodipodi:docname="VCS_resized_246.svg"
   inkscape:version="1.0.2-2 (e86c870879, 2021-01-15)">
  <defs
     id="defs2" />
  <sodipodi:namedview
     id="base"
     pagecolor="#ffffff"
     bordercolor="#666666"
     borderopacity="1.0"
     inkscape:pageopacity="0.0"
     inkscape:pageshadow="2"
     inkscape:zoom="4"
     inkscape:cx="1.3392401"
     inkscape:cy="39.956722"
     inkscape:document-units="mm"
     inkscape:current-layer="layer1"
     inkscape:document-rotation="0"
     showgrid="false"
     inkscape:window-width="958"
     inkscape:window-height="1008"
     inkscape:window-x="1913"
     inkscape:window-y="0"
     inkscape:window-maximized="0" />
  <metadata
     id="metadata5">
    <rdf:RDF>
      <cc:Work
         rdf:about="">
        <dc:format>image/svg+xml</dc:format>
        <dc:type
           rdf:resource="http://purl.org/dc/dcmitype/StillImage" />
        <dc:title></dc:title>
      </cc:Work>
    </rdf:RDF>
  </metadata>
  <g
     inkscape:label="Ebene 1"
     inkscape:groupmode="layer"
     id="layer1"
     transform="translate(-78.695747,-13.652122)">
    <path
       style="fill:#000000;stroke-width:0.264582"
       d="m 81.251421,26.510401 c -0.02894,-0.03638 -0.06805,-0.24474 -0.08691,-0.463021 -0.01886,-0.218281 -0.131692,-1.135063 -0.250734,-2.037292 -0.204488,-1.549805 -0.22593,-1.657954 -0.38818,-1.957917 -0.331138,-0.612198 -0.756562,-1.381582 -1.11187,-2.010833 -0.752652,-1.332946 -0.736392,-1.299012 -0.656574,-1.370214 0.04032,-0.03596 0.513834,-0.238341 1.05226,-0.449728 2.63134,-1.033067 2.566916,-1.002737 2.93456,-1.381516 0.413118,-0.425629 0.588866,-0.629431 1.60877,-1.865565 0.446988,-0.541754 0.847894,-0.99851 0.890902,-1.015014 0.04301,-0.0165 0.109342,-0.01211 0.147408,0.0098 0.03807,0.02188 0.36143,0.39696 0.718588,0.833522 0.357156,0.436563 0.941376,1.129514 1.298264,1.539891 l 0.64889,0.746141 0.869806,0.378338 c 0.478392,0.208087 0.88827,0.378339 0.910836,0.378339 0.08895,0 1.962118,0.758654 2.030416,0.822342 0.06125,0.05711 0.0432,0.116976 -0.113632,0.376841 -0.102546,0.169918 -0.435958,0.773285 -0.740916,1.340817 -0.304958,0.567531 -0.677998,1.253306 -0.828976,1.523943 -0.16193,0.29027 -0.294356,0.604938 -0.32291,0.767292 -0.0509,0.289405 -0.259476,1.918246 -0.393578,3.073548 -0.04352,0.374912 -0.106164,0.71424 -0.139212,0.754062 -0.08495,0.102356 -7.995888,0.108485 -8.077208,0.0063 z m 7.862222,-0.291042 c 0.02615,-0.05093 0.06291,-0.271198 0.08171,-0.489479 0.0188,-0.218281 0.103308,-0.896938 0.18781,-1.508125 0.0845,-0.611188 0.176812,-1.289844 0.205132,-1.508125 0.0429,-0.330649 0.102324,-0.489592 0.356126,-0.9525 0.16755,-0.305594 0.53609,-0.986633 0.818976,-1.513421 0.282886,-0.526787 0.576984,-1.049983 0.653548,-1.162658 0.112004,-0.164828 0.12617,-0.217902 0.07249,-0.271582 -0.06159,-0.0616 -1.901496,-0.810718 -1.985464,-0.808389 -0.02049,5.6e-4 -0.37061,-0.136354 -0.778036,-0.304271 -0.87327,-0.35991 -0.912802,-0.394458 -2.135694,-1.866346 -0.42316,-0.509323 -0.874664,-1.052252 -1.003338,-1.206509 -0.128676,-0.154258 -0.265764,-0.27332 -0.304642,-0.264584 -0.03888,0.0087 -0.19675,0.172919 -0.350828,0.36485 -0.71652,0.892552 -1.439068,1.753908 -1.815754,2.164576 -0.447926,0.488336 -0.550462,0.549653 -1.601554,0.957739 -1.384082,0.537371 -2.44554,0.959555 -2.44554,0.972689 0,0.0078 0.211124,0.392287 0.469164,0.854314 0.50168,0.898267 0.544976,0.976594 1.078592,1.9513 l 0.34764,0.635 0.11296,0.846667 c 0.06213,0.465666 0.14629,1.060979 0.187028,1.322916 0.04074,0.261938 0.10025,0.762 0.132252,1.11125 0.032,0.34925 0.06832,0.664766 0.0807,0.701146 0.01772,0.05209 0.826462,0.06615 3.805852,0.06615 3.549794,0 3.786274,-0.0057 3.830876,-0.0926 z"
       id="path4835" />
  </g>
</svg>
