<?xml version="1.0" encoding="UTF-8" standalone="no"?>
<svg
   xmlns:dc="http://purl.org/dc/elements/1.1/"
   xmlns:cc="http://creativecommons.org/ns#"
   xmlns:rdf="http://www.w3.org/1999/02/22-rdf-syntax-ns#"
   xmlns:svg="http://www.w3.org/2000/svg"
   xmlns="http://www.w3.org/2000/svg"
   xmlns:sodipodi="http://sodipodi.sourceforge.net/DTD/sodipodi-0.dtd"
   xmlns:inkscape="http://www.inkscape.org/namespaces/inkscape"
   width="13.229167mm"
   height="13.229167mm"
   viewBox="0 0 13.229169 13.229168"
   version="1.1"
   id="svg8"
   sodipodi:docname="VCS_resized_211.svg"
   inkscape:version="1.0.2-2 (e86c870879, 2021-01-15)">
  <defs
     id="defs2" />
  <sodipodi:namedview
     id="base"
     pagecolor="#ffffff"
     bordercolor="#666666"
     borderopacity="1.0"
     inkscape:pageopacity="0.0"
     inkscape:pageshadow="2"
     inkscape:zoom="2.8284271"
     inkscape:cx="4.3186343"
     inkscape:cy="36.331411"
     inkscape:document-units="mm"
     inkscape:current-layer="layer1"
     inkscape:document-rotation="0"
     showgrid="false"
     inkscape:window-width="958"
     inkscape:window-height="1008"
     inkscape:window-x="1913"
     inkscape:window-y="0"
     inkscape:window-maximized="0" />
  <metadata
     id="metadata5">
    <rdf:RDF>
      <cc:Work
         rdf:about="">
        <dc:format>image/svg+xml</dc:format>
        <dc:type
           rdf:resource="http://purl.org/dc/dcmitype/StillImage" />
        <dc:title></dc:title>
      </cc:Work>
    </rdf:RDF>
  </metadata>
  <g
     inkscape:label="Ebene 1"
     inkscape:groupmode="layer"
     id="layer1"
     transform="translate(-47.420723,-21.067818)">
    <path
       style="fill:#000000;stroke-width:0.264582"
       d="m 50.275908,33.821035 c -0.04713,-0.02754 -0.139752,-0.199453 -0.20583,-0.382037 -0.06608,-0.182583 -0.319344,-0.838165 -0.562814,-1.456848 -0.608898,-1.547285 -0.630322,-1.636119 -0.894724,-3.709991 -0.06253,-0.490443 -0.142694,-0.821491 -0.319888,-1.320992 -0.258054,-0.727437 -0.444598,-1.405388 -0.444598,-1.615783 0,-0.08959 0.05701,-0.176562 0.17198,-0.262366 0.353454,-0.263796 1.315566,-0.812534 2.315104,-1.320412 0.722264,-0.366992 1.425488,-0.78482 2.34372,-1.392547 0.721514,-0.477532 1.348742,-0.868239 1.393836,-0.868239 0.0451,0 0.16914,0.05896 0.275654,0.131024 0.106516,0.07206 0.538946,0.362285 0.960956,0.644936 0.42201,0.282652 0.870376,0.583834 0.996366,0.669295 0.125992,0.08546 0.733212,0.41748 1.349376,0.737819 1.099996,0.57188 2.341358,1.294503 2.505164,1.458307 0.127724,0.127724 0.06393,0.511409 -0.23503,1.41363 -0.3518,1.061677 -0.316436,0.884891 -0.491936,2.459156 -0.103128,0.925075 -0.27986,1.5179 -0.981662,3.292895 -0.273044,0.690583 -0.496444,1.279942 -0.496444,1.309688 0,0.02975 -0.04763,0.101708 -0.105834,0.159917 -0.103842,0.103842 -0.175286,0.105803 -3.79677,0.104224 -2.221752,-9.6e-4 -3.725046,-0.02154 -3.776626,-0.05168 z M 57.91708,32.92182 c 0.14316,-0.363802 0.37432,-0.947208 0.513686,-1.296458 0.46516,-1.165696 0.680006,-2.038019 0.768944,-3.122084 0.0502,-0.611873 0.152528,-1.058422 0.454706,-1.984291 0.147218,-0.451068 0.27159,-0.915334 0.276382,-1.031702 0.0084,-0.204553 -0.0022,-0.21861 -0.321368,-0.423417 -0.520508,-0.33405 -1.027912,-0.616125 -2.02471,-1.125569 -1.068904,-0.546297 -1.353726,-0.715744 -2.31863,-1.379398 -0.38757,-0.266568 -0.808744,-0.54566 -0.935944,-0.620204 -0.281178,-0.164782 -0.226972,-0.187195 -1.33702,0.552821 -1.28245,0.854948 -1.632228,1.060273 -2.684446,1.575817 -1.052966,0.51591 -1.941854,1.012542 -2.10997,1.178867 -0.08993,0.08897 -0.09313,0.12436 -0.03448,0.38112 0.03556,0.155672 0.191784,0.66404 0.347158,1.129706 0.279372,0.837301 0.359852,1.228149 0.52846,2.566459 0.120546,0.956825 0.195374,1.231457 0.638576,2.343688 0.218964,0.549501 0.4688,1.190795 0.55519,1.425098 0.08639,0.234303 0.169894,0.446748 0.185562,0.4721 0.01586,0.02567 1.625756,0.04007 3.633048,0.0325 l 3.604558,-0.0136 z"
       id="path4275" />
  </g>
</svg>
