<?xml version="1.0" encoding="UTF-8" standalone="no"?>
<svg
   xmlns:dc="http://purl.org/dc/elements/1.1/"
   xmlns:cc="http://creativecommons.org/ns#"
   xmlns:rdf="http://www.w3.org/1999/02/22-rdf-syntax-ns#"
   xmlns:svg="http://www.w3.org/2000/svg"
   xmlns="http://www.w3.org/2000/svg"
   xmlns:sodipodi="http://sodipodi.sourceforge.net/DTD/sodipodi-0.dtd"
   xmlns:inkscape="http://www.inkscape.org/namespaces/inkscape"
   width="13.229169mm"
   height="13.229167mm"
   viewBox="0 0 13.229171 13.229168"
   version="1.1"
   id="svg8"
   sodipodi:docname="VCS_resized_247.svg"
   inkscape:version="1.0.2-2 (e86c870879, 2021-01-15)">
  <defs
     id="defs2" />
  <sodipodi:namedview
     id="base"
     pagecolor="#ffffff"
     bordercolor="#666666"
     borderopacity="1.0"
     inkscape:pageopacity="0.0"
     inkscape:pageshadow="2"
     inkscape:zoom="4"
     inkscape:cx="24.58925"
     inkscape:cy="39.266341"
     inkscape:document-units="mm"
     inkscape:current-layer="layer1"
     inkscape:document-rotation="0"
     showgrid="false"
     inkscape:window-width="958"
     inkscape:window-height="1008"
     inkscape:window-x="1913"
     inkscape:window-y="0"
     inkscape:window-maximized="0" />
  <metadata
     id="metadata5">
    <rdf:RDF>
      <cc:Work
         rdf:about="">
        <dc:format>image/svg+xml</dc:format>
        <dc:type
           rdf:resource="http://purl.org/dc/dcmitype/StillImage" />
        <dc:title></dc:title>
      </cc:Work>
    </rdf:RDF>
  </metadata>
  <g
     inkscape:label="Ebene 1"
     inkscape:groupmode="layer"
     id="layer1"
     transform="translate(-72.544182,-13.834785)">
    <path
       style="fill:#000000;stroke-width:0.264582"
       d="m 75.086046,26.665459 c -0.03013,-0.05629 -0.05478,-0.203783 -0.05478,-0.327751 0,-0.219851 -0.07616,-0.877543 -0.244314,-2.109894 -0.04567,-0.334698 -0.112556,-0.85888 -0.148636,-1.16485 -0.06299,-0.534224 -0.0783,-0.578339 -0.385472,-1.11125 -0.175932,-0.305218 -0.42643,-0.745442 -0.556664,-0.978275 -0.130234,-0.232833 -0.442712,-0.787268 -0.694394,-1.232076 -0.251682,-0.444808 -0.457604,-0.83005 -0.457604,-0.856093 0,-0.02604 0.136922,-0.09837 0.304272,-0.160735 0.167348,-0.06236 0.613832,-0.233781 0.992186,-0.380935 1.767716,-0.687519 2.440016,-0.959335 2.509232,-1.014501 0.122374,-0.09753 1.095658,-1.23232 1.75868,-2.050513 0.925386,-1.141957 0.95885,-1.177281 1.078598,-1.138582 0.05715,0.01847 0.214906,0.170516 0.350572,0.337882 1.706216,2.104913 2.274128,2.758753 2.49981,2.878044 0.231236,0.122228 1.291812,0.557874 1.857276,0.762901 1.406771,0.510071 1.878543,0.707618 1.878543,0.786611 0,0.03248 -0.0585,0.14514 -0.129994,0.250356 -0.0715,0.105216 -0.277092,0.461978 -0.45688,0.792805 -0.473353,0.871013 -0.542235,0.994773 -1.041603,1.871503 -0.43561,0.764788 -0.453814,0.810161 -0.498896,1.243541 -0.02573,0.247386 -0.09225,0.783167 -0.14781,1.190625 -0.05556,0.407459 -0.141356,1.105756 -0.190656,1.551771 -0.0584,0.528313 -0.115922,0.837221 -0.165054,0.886354 -0.06394,0.06394 -0.678758,0.07542 -4.038526,0.07542 -3.864052,0 -3.964478,-0.0026 -4.017888,-0.102355 z M 82.90136,26.46039 c 0.03993,-0.02537 0.106386,-0.40669 0.172786,-0.991377 0.05935,-0.522586 0.133508,-1.093032 0.164804,-1.267657 0.03129,-0.174625 0.08793,-0.627783 0.125852,-1.007019 0.06886,-0.688546 0.06936,-0.690225 0.355354,-1.190625 0.323834,-0.566598 0.777658,-1.380238 1.076419,-1.929856 0.31833,-0.585618 0.402484,-0.733656 0.480472,-0.845212 0.102126,-0.14608 0.09117,-0.22612 -0.04062,-0.29665 -0.139832,-0.07484 -1.191633,-0.481262 -1.764949,-0.681994 -0.53841,-0.18851 -1.614444,-0.631296 -1.724038,-0.709438 -0.166636,-0.118813 -1.544678,-1.743705 -2.218254,-2.615609 -0.160072,-0.207205 -0.329108,-0.377671 -0.375634,-0.378813 -0.04652,-0.0011 -0.240296,0.194377 -0.430604,0.434487 -0.865796,1.092367 -1.273608,1.585786 -1.72342,2.08519 l -0.484016,0.537378 -0.808268,0.313815 c -0.444546,0.172599 -1.23689,0.476542 -1.760766,0.67543 -0.523874,0.198888 -0.970536,0.376813 -0.992582,0.395389 -0.02205,0.01858 0.129824,0.330062 0.337486,0.692192 0.207664,0.36213 0.646914,1.139306 0.976112,1.727057 l 0.598544,1.068639 0.05661,0.608313 c 0.03114,0.334572 0.06809,0.639497 0.08211,0.677611 0.02146,0.05832 0.342638,2.583409 0.343666,2.701902 4e-4,0.05287 7.469662,0.04975 7.552936,-0.0032 z"
       id="path4851" />
  </g>
</svg>
