<?xml version="1.0" encoding="UTF-8" standalone="no"?>
<svg
   xmlns:dc="http://purl.org/dc/elements/1.1/"
   xmlns:cc="http://creativecommons.org/ns#"
   xmlns:rdf="http://www.w3.org/1999/02/22-rdf-syntax-ns#"
   xmlns:svg="http://www.w3.org/2000/svg"
   xmlns="http://www.w3.org/2000/svg"
   xmlns:sodipodi="http://sodipodi.sourceforge.net/DTD/sodipodi-0.dtd"
   xmlns:inkscape="http://www.inkscape.org/namespaces/inkscape"
   width="13.229167mm"
   height="13.229167mm"
   viewBox="0 0 13.229167 13.229167"
   version="1.1"
   id="svg8"
   sodipodi:docname="VCS_resized_76.svg"
   inkscape:version="1.0.2-2 (e86c870879, 2021-01-15)">
  <defs
     id="defs2" />
  <sodipodi:namedview
     id="base"
     pagecolor="#ffffff"
     bordercolor="#666666"
     borderopacity="1.0"
     inkscape:pageopacity="0.0"
     inkscape:pageshadow="2"
     inkscape:zoom="2.8284271"
     inkscape:cx="1.0832932"
     inkscape:cy="31.567032"
     inkscape:document-units="mm"
     inkscape:current-layer="layer1"
     inkscape:document-rotation="0"
     showgrid="false"
     inkscape:window-width="958"
     inkscape:window-height="1008"
     inkscape:window-x="1913"
     inkscape:window-y="0"
     inkscape:window-maximized="0" />
  <metadata
     id="metadata5">
    <rdf:RDF>
      <cc:Work
         rdf:about="">
        <dc:format>image/svg+xml</dc:format>
        <dc:type
           rdf:resource="http://purl.org/dc/dcmitype/StillImage" />
        <dc:title></dc:title>
      </cc:Work>
    </rdf:RDF>
  </metadata>
  <g
     inkscape:label="Ebene 1"
     inkscape:groupmode="layer"
     id="layer1"
     transform="translate(-37.913364,-18.239502)">
    <path
       style="fill:#000000;stroke-width:0.264582"
       d="m 41.443001,30.1299 c -0.524808,-0.07757 -0.9692,-0.303903 -1.355858,-0.690562 -0.293934,-0.293933 -0.414264,-0.580218 -0.415688,-0.988979 -0.0018,-0.53878 0.16142,-0.815911 0.946732,-1.606725 0.366336,-0.368902 0.749408,-0.808507 0.851274,-0.9769 0.175424,-0.289996 0.185208,-0.331434 0.185208,-0.784477 0,-0.410528 -0.0205,-0.522069 -0.14467,-0.787113 -0.14408,-0.307548 -0.526082,-0.814842 -1.182046,-1.569737 -0.189676,-0.218282 -0.432464,-0.575469 -0.539532,-0.79375 -0.182484,-0.372038 -0.194756,-0.428532 -0.196084,-0.902713 -0.0012,-0.459902 0.013,-0.533765 0.157332,-0.813374 0.23425,-0.453799 0.505454,-0.631443 1.002308,-0.656533 0.355064,-0.01793 0.411948,-0.0054 0.71779,0.157928 0.243926,0.130274 0.460206,0.317292 0.814158,0.704003 1.012362,1.106061 1.253346,1.326015 1.593244,1.454212 0.257062,0.09696 0.393432,0.115517 0.716402,0.09751 0.677748,-0.03778 0.816094,-0.140743 1.949196,-1.450649 0.85781,-0.991657 1.6732,-1.230802 2.324398,-0.681722 0.293638,0.24759 0.44928,0.620557 0.475246,1.138835 0.03815,0.761518 -0.188534,1.258175 -0.966098,2.116666 -0.773066,0.853524 -1.044682,1.358284 -1.054132,1.958955 -0.0091,0.576097 0.181696,0.886947 1.076228,1.753749 1.003478,0.972369 1.186334,1.353708 1.001362,2.088299 -0.09117,0.362083 -0.487176,0.767211 -0.91885,0.940021 -0.476422,0.190725 -0.958824,0.216215 -2.65112,0.140086 -1.066836,-0.04799 -1.568182,-0.04955 -1.957918,-0.0061 -1.727964,0.192652 -2.056218,0.21415 -2.428882,0.15907 z m 1.243542,-0.348466 c 0.742664,-0.09106 2.131244,-0.113926 4.153958,-0.06839 1.248526,0.02811 1.491748,-0.02035 1.898234,-0.378149 0.297826,-0.262157 0.403642,-0.492075 0.403642,-0.877031 0,-0.392597 -0.215906,-0.718393 -0.97255,-1.467551 -0.715994,-0.70891 -0.83282,-0.861429 -0.986002,-1.287251 -0.0978,-0.271862 -0.11439,-0.406349 -0.09466,-0.767292 0.03418,-0.625161 0.24493,-1.027555 1.03975,-1.985227 0.750764,-0.904591 0.920798,-1.215083 0.950016,-1.734779 0.02935,-0.522038 -0.05702,-0.798375 -0.332274,-1.063084 -0.528738,-0.508483 -1.286712,-0.278361 -2.025076,0.614813 -0.718078,0.868635 -1.013934,1.154416 -1.389768,1.342438 -0.59168,0.296005 -1.077862,0.302399 -1.681558,0.02211 -0.255194,-0.118483 -0.69612,-0.537693 -1.557878,-1.481155 -0.743928,-0.81446 -1.36823,-1.00167 -1.870296,-0.560848 -0.246324,0.216273 -0.33486,0.398807 -0.37287,0.768728 -0.05774,0.561944 0.223948,1.149214 0.953692,1.988278 0.524834,0.603459 0.801584,1.00888 0.972144,1.424134 0.215774,0.525335 0.24845,0.803583 0.14242,1.212765 -0.120274,0.464156 -0.300112,0.746504 -0.78768,1.236671 -0.96568,0.970825 -1.15534,1.248483 -1.155054,1.690962 2e-4,0.448112 0.170686,0.72874 0.680512,1.120762 0.236416,0.181788 0.688484,0.328479 1.025878,0.332887 0.160072,0.0021 0.61251,-0.03562 1.005416,-0.08379 z"
       id="path1258" />
  </g>
</svg>
