<?xml version="1.0" encoding="UTF-8" standalone="no"?>
<svg
   xmlns:dc="http://purl.org/dc/elements/1.1/"
   xmlns:cc="http://creativecommons.org/ns#"
   xmlns:rdf="http://www.w3.org/1999/02/22-rdf-syntax-ns#"
   xmlns:svg="http://www.w3.org/2000/svg"
   xmlns="http://www.w3.org/2000/svg"
   xmlns:sodipodi="http://sodipodi.sourceforge.net/DTD/sodipodi-0.dtd"
   xmlns:inkscape="http://www.inkscape.org/namespaces/inkscape"
   width="13.229167mm"
   height="13.229167mm"
   viewBox="0 0 13.229167 13.229167"
   version="1.1"
   id="svg8"
   sodipodi:docname="VCS_resized_60.svg"
   inkscape:version="1.0.2-2 (e86c870879, 2021-01-15)">
  <defs
     id="defs2" />
  <sodipodi:namedview
     id="base"
     pagecolor="#ffffff"
     bordercolor="#666666"
     borderopacity="1.0"
     inkscape:pageopacity="0.0"
     inkscape:pageshadow="2"
     inkscape:zoom="2.8284271"
     inkscape:cx="-15.831845"
     inkscape:cy="60.374217"
     inkscape:document-units="mm"
     inkscape:current-layer="layer1"
     inkscape:document-rotation="0"
     showgrid="false"
     inkscape:window-width="958"
     inkscape:window-height="1008"
     inkscape:window-x="1913"
     inkscape:window-y="0"
     inkscape:window-maximized="0" />
  <metadata
     id="metadata5">
    <rdf:RDF>
      <cc:Work
         rdf:about="">
        <dc:format>image/svg+xml</dc:format>
        <dc:type
           rdf:resource="http://purl.org/dc/dcmitype/StillImage" />
        <dc:title></dc:title>
      </cc:Work>
    </rdf:RDF>
  </metadata>
  <g
     inkscape:label="Ebene 1"
     inkscape:groupmode="layer"
     id="layer1"
     transform="translate(-42.388828,-10.6176)">
    <path
       style="fill:#000000;stroke-width:0.264582"
       d="m 45.779944,22.272423 c -0.29217,-0.03528 -0.36932,-0.05971 -0.706502,-0.223717 -0.471788,-0.229486 -0.7984,-0.835727 -0.728196,-1.351642 0.05955,-0.437638 0.279962,-0.789598 0.902336,-1.440902 0.728004,-0.761845 0.931322,-1.087297 0.968484,-1.55026 0.05754,-0.716824 -0.17101,-1.15782 -1.11161,-2.144897 -0.655928,-0.68834 -0.956334,-1.142354 -1.047992,-1.583873 -0.204038,-0.982842 0.444076,-1.769911 1.339528,-1.626723 0.47622,0.07615 0.828666,0.309475 1.650334,1.092543 0.921918,0.87861 1.215432,1.053272 1.77993,1.059188 0.653664,0.0069 1.01005,-0.205919 1.692586,-1.010506 0.729002,-0.859363 1.252466,-1.241471 1.787206,-1.304591 1.275776,-0.15059 1.792024,1.52932 0.845604,2.75167 -0.09383,0.121193 -0.295598,0.357525 -0.448364,0.525182 -1.173534,1.287931 -1.258852,2.205331 -0.292808,3.148556 0.200882,0.196137 0.566996,0.547113 0.813588,0.779946 0.665788,0.628644 0.8791,1.155342 0.70728,1.746381 -0.09999,0.34396 -0.366928,0.635123 -0.75703,0.825736 -0.209206,0.102223 -0.333704,0.122253 -0.753334,0.121205 -0.460702,-0.0012 -0.571426,-0.0239 -1.325082,-0.272179 -1.068872,-0.352129 -1.673724,-0.459633 -2.184448,-0.388257 -0.398928,0.05575 -0.946424,0.236486 -1.651702,0.54524 -0.60469,0.26472 -1.044538,0.354455 -1.479808,0.3019 z m 1.516882,-0.622136 c 1.020294,-0.429035 1.327922,-0.508548 1.949158,-0.503802 0.583842,0.0045 1.109532,0.119378 2.037292,0.445356 0.528966,0.185858 0.70569,0.224083 1.058334,0.228919 0.356362,0.0049 0.471314,-0.01668 0.72663,-0.136343 0.386768,-0.181268 0.623018,-0.517997 0.622228,-0.886859 -0.001,-0.452814 -0.19122,-0.738945 -1.05413,-1.585395 -0.99448,-0.975511 -1.142442,-1.224028 -1.138108,-1.91157 0.0026,-0.41861 0.01872,-0.483932 0.221504,-0.899583 0.120264,-0.246508 0.339526,-0.591071 0.48725,-0.765696 1.068476,-1.263051 1.140042,-1.393129 1.140042,-2.072126 0,-0.461559 -0.0077,-0.494302 -0.162512,-0.687917 -0.552364,-0.690964 -1.459746,-0.438305 -2.31058,0.643376 -0.389822,0.495589 -0.833302,0.910813 -1.164786,1.090572 -0.310224,0.168231 -0.362314,0.179428 -0.83473,0.179428 -0.747686,0 -0.99538,-0.136874 -1.999558,-1.104953 -0.856852,-0.826048 -1.117792,-0.993218 -1.6054,-1.028488 -0.970886,-0.07023 -1.292094,1.081426 -0.566968,2.032794 0.06872,0.09016 0.35117,0.408145 0.62766,0.706624 0.606234,0.65445 0.865028,1.010409 1.029844,1.416511 0.181382,0.446915 0.210282,0.73081 0.11272,1.107315 -0.123712,0.477417 -0.318354,0.783793 -0.852362,1.341656 -0.819452,0.856055 -0.97812,1.113642 -0.97812,1.587908 0,0.474574 0.24488,0.800155 0.795256,1.057337 0.193686,0.09051 0.313432,0.107002 0.659952,0.09092 0.376654,-0.01748 0.508908,-0.05563 1.199384,-0.345981 z"
       id="path986" />
  </g>
</svg>
