<?xml version="1.0" encoding="UTF-8" standalone="no"?>
<svg
   xmlns:dc="http://purl.org/dc/elements/1.1/"
   xmlns:cc="http://creativecommons.org/ns#"
   xmlns:rdf="http://www.w3.org/1999/02/22-rdf-syntax-ns#"
   xmlns:svg="http://www.w3.org/2000/svg"
   xmlns="http://www.w3.org/2000/svg"
   xmlns:sodipodi="http://sodipodi.sourceforge.net/DTD/sodipodi-0.dtd"
   xmlns:inkscape="http://www.inkscape.org/namespaces/inkscape"
   width="13.22917mm"
   height="13.229167mm"
   viewBox="0 0 13.229172 13.229168"
   version="1.1"
   id="svg8"
   sodipodi:docname="VCS_resized_248.svg"
   inkscape:version="1.0.2-2 (e86c870879, 2021-01-15)">
  <defs
     id="defs2" />
  <sodipodi:namedview
     id="base"
     pagecolor="#ffffff"
     bordercolor="#666666"
     borderopacity="1.0"
     inkscape:pageopacity="0.0"
     inkscape:pageshadow="2"
     inkscape:zoom="4"
     inkscape:cx="12.839255"
     inkscape:cy="39.080649"
     inkscape:document-units="mm"
     inkscape:current-layer="layer1"
     inkscape:document-rotation="0"
     showgrid="false"
     inkscape:window-width="958"
     inkscape:window-height="1008"
     inkscape:window-x="1913"
     inkscape:window-y="0"
     inkscape:window-maximized="0" />
  <metadata
     id="metadata5">
    <rdf:RDF>
      <cc:Work
         rdf:about="">
        <dc:format>image/svg+xml</dc:format>
        <dc:type
           rdf:resource="http://purl.org/dc/dcmitype/StillImage" />
        <dc:title></dc:title>
      </cc:Work>
    </rdf:RDF>
  </metadata>
  <g
     inkscape:label="Ebene 1"
     inkscape:groupmode="layer"
     id="layer1"
     transform="translate(-75.653035,-13.883916)">
    <path
       style="fill:#000000;stroke-width:0.264582"
       d="m 78.266905,26.774752 c -0.03213,-0.02138 -0.09969,-0.407971 -0.150116,-0.859086 -0.05043,-0.451114 -0.162444,-1.390735 -0.24892,-2.088046 l -0.15723,-1.267837 -0.226604,-0.399038 c -0.124634,-0.21947 -0.349468,-0.610813 -0.499636,-0.869651 -0.150166,-0.258838 -0.27303,-0.479577 -0.27303,-0.490531 0,-0.01095 -0.0605,-0.115761 -0.134454,-0.232904 -0.251262,-0.398027 -0.92388,-1.586643 -0.92388,-1.632636 0,-0.05482 0.06246,-0.08027 1.852084,-0.75463 2.028408,-0.764337 1.916356,-0.704477 2.43911,-1.302999 0.24652,-0.282252 0.82182,-0.979997 1.278444,-1.550543 0.456622,-0.570546 0.865488,-1.066623 0.908588,-1.102393 0.137404,-0.114036 0.273954,-0.01224 0.689926,0.514324 1.236072,1.564703 2.106496,2.581675 2.291464,2.677261 0.211624,0.109362 1.613759,0.661357 2.499551,0.984028 0.897204,0.326829 1.27,0.479391 1.27,0.519735 0,0.01596 -0.15234,0.292828 -0.338532,0.615255 -0.186192,0.322426 -0.456898,0.800543 -0.601568,1.06248 -0.3882,0.702863 -0.469114,0.844282 -0.6181,1.080289 -0.07432,0.117737 -0.135134,0.223805 -0.135134,0.235709 0,0.0119 -0.09396,0.182425 -0.208792,0.378938 -0.146958,0.251484 -0.218546,0.445195 -0.241722,0.654098 -0.0523,0.471363 -0.06798,0.604759 -0.205904,1.752008 -0.07173,0.596635 -0.146434,1.282098 -0.16601,1.52325 -0.02215,0.272911 -0.06484,0.467711 -0.113068,0.515937 -0.06665,0.06665 -0.626109,0.07737 -4.002763,0.07667 -2.158904,-4.2e-4 -3.951572,-0.01831 -3.983704,-0.03969 z m 7.740419,-0.265143 c 0.0358,-0.02277 0.08649,-0.307528 0.119954,-0.673877 0.03188,-0.348943 0.09215,-0.872566 0.133942,-1.163607 0.04179,-0.291042 0.11519,-0.896383 0.163102,-1.345203 0.07058,-0.66117 0.109976,-0.851976 0.207574,-1.005417 0.06625,-0.104159 0.341156,-0.582287 0.610894,-1.062505 0.269738,-0.480219 0.655752,-1.158875 0.85781,-1.508125 0.253354,-0.437916 0.353,-0.657821 0.321056,-0.708528 -0.02548,-0.04044 -0.497822,-0.239769 -1.049658,-0.442954 -2.569621,-0.94613 -2.502563,-0.912505 -3.010263,-1.509443 -0.612266,-0.719884 -1.047098,-1.25533 -1.545524,-1.903138 -0.282938,-0.367736 -0.494392,-0.595313 -0.553138,-0.595313 -0.0544,0 -0.203384,0.141561 -0.348084,0.33073 -0.498836,0.652141 -1.365532,1.715818 -1.811766,2.223541 l -0.45437,0.516977 -0.55593,0.217415 c -0.30576,0.119579 -0.776194,0.297704 -1.045408,0.395835 -1.801316,0.656595 -2.000826,0.736908 -1.987432,0.800046 0.0056,0.02637 0.241478,0.450937 0.524184,0.943475 0.282708,0.492537 0.67699,1.179595 0.876182,1.526794 0.199194,0.347199 0.36217,0.64298 0.36217,0.657291 0,0.01431 0.03215,0.06362 0.07143,0.109563 0.04064,0.04753 0.12105,0.459962 0.186522,0.956667 0.0633,0.480219 0.13893,1.051719 0.16807,1.27 0.02914,0.218281 0.0875,0.737536 0.129684,1.1539 0.04219,0.416364 0.0906,0.779505 0.10758,0.806979 0.03683,0.05959 7.427981,0.06833 7.521415,0.0089 z"
       id="path4867" />
  </g>
</svg>
