<?xml version="1.0" encoding="UTF-8" standalone="no"?>
<svg
   xmlns:dc="http://purl.org/dc/elements/1.1/"
   xmlns:cc="http://creativecommons.org/ns#"
   xmlns:rdf="http://www.w3.org/1999/02/22-rdf-syntax-ns#"
   xmlns:svg="http://www.w3.org/2000/svg"
   xmlns="http://www.w3.org/2000/svg"
   xmlns:sodipodi="http://sodipodi.sourceforge.net/DTD/sodipodi-0.dtd"
   xmlns:inkscape="http://www.inkscape.org/namespaces/inkscape"
   width="13.229167mm"
   height="13.229167mm"
   viewBox="0 0 13.229169 13.229168"
   version="1.1"
   id="svg8"
   sodipodi:docname="VCS_resized_154.svg"
   inkscape:version="1.0.2-2 (e86c870879, 2021-01-15)">
  <defs
     id="defs2" />
  <sodipodi:namedview
     id="base"
     pagecolor="#ffffff"
     bordercolor="#666666"
     borderopacity="1.0"
     inkscape:pageopacity="0.0"
     inkscape:pageshadow="2"
     inkscape:zoom="2.8284271"
     inkscape:cx="26.325675"
     inkscape:cy="40.367159"
     inkscape:document-units="mm"
     inkscape:current-layer="layer1"
     inkscape:document-rotation="0"
     showgrid="false"
     inkscape:window-width="958"
     inkscape:window-height="1008"
     inkscape:window-x="1913"
     inkscape:window-y="0"
     inkscape:window-maximized="0" />
  <metadata
     id="metadata5">
    <rdf:RDF>
      <cc:Work
         rdf:about="">
        <dc:format>image/svg+xml</dc:format>
        <dc:type
           rdf:resource="http://purl.org/dc/dcmitype/StillImage" />
        <dc:title></dc:title>
      </cc:Work>
    </rdf:RDF>
  </metadata>
  <g
     inkscape:label="Ebene 1"
     inkscape:groupmode="layer"
     id="layer1"
     transform="translate(-31.234646,-15.911134)">
    <path
       style="fill:#000000;stroke-width:0.264582"
       d="m 35.728477,28.54735 c -0.334698,-0.02702 -0.659102,-0.06056 -0.720898,-0.07451 -0.07607,-0.01718 -0.287986,-0.303332 -0.656128,-0.885953 -0.299072,-0.473314 -0.76874,-1.202156 -1.043706,-1.619648 -0.74444,-1.130312 -0.913018,-1.551522 -0.913018,-2.281249 0,-0.45282 0.118732,-0.76899 0.538814,-1.434785 0.441104,-0.699112 0.568298,-1.017532 0.570708,-1.428722 0.0022,-0.37667 -0.110608,-0.752738 -0.396692,-1.322367 -0.319546,-0.636253 -0.413452,-0.990495 -0.383834,-1.447933 0.02969,-0.458548 0.168814,-0.788264 0.470888,-1.115977 0.508692,-0.551864 0.878206,-0.594307 1.866472,-0.214386 0.200464,0.07707 0.652902,0.20057 1.005416,0.274456 1.088154,0.228071 2.85306,0.231642 3.789478,0.0077 0.130968,-0.03133 0.500062,-0.164855 0.820208,-0.296731 0.683224,-0.281438 1.026368,-0.313678 1.375834,-0.129267 0.465248,0.245511 0.863044,0.851315 0.911756,1.38852 0.0392,0.432274 -0.06231,0.823812 -0.380452,1.467497 -0.330934,0.669568 -0.398318,0.888394 -0.398718,1.294828 -4e-4,0.446548 0.158768,0.881487 0.501926,1.37121 0.166914,0.238205 0.374832,0.585577 0.462042,0.771939 0.138614,0.29621 0.158094,0.395288 0.154838,0.787513 -0.0066,0.795806 -0.140728,1.112153 -1.139458,2.687503 -0.31679,0.499691 -0.729822,1.152982 -0.917848,1.451758 -0.188028,0.298776 -0.381322,0.564344 -0.429542,0.590152 -0.287948,0.154105 -3.790946,0.263221 -5.088086,0.158491 z m 4.10104,-0.260972 c 0.470024,-0.03865 0.66937,-0.07734 0.767292,-0.14891 0.07276,-0.05318 0.27853,-0.332916 0.457264,-0.621633 0.178736,-0.288717 0.565426,-0.897673 0.859314,-1.353236 0.293888,-0.455563 0.628922,-1.003639 0.744518,-1.217948 0.520382,-0.964753 0.478086,-1.614739 -0.169094,-2.598581 -0.494852,-0.752275 -0.569084,-0.954035 -0.569084,-1.546726 0,-0.571764 0.08284,-0.843443 0.510476,-1.67405 0.245566,-0.476974 0.254986,-0.511816 0.255526,-0.945024 4e-4,-0.388229 -0.01922,-0.487411 -0.143986,-0.724643 -0.172242,-0.327512 -0.509298,-0.580413 -0.861156,-0.646147 -0.212372,-0.03967 -0.318602,-0.01954 -0.845076,0.160164 -1.20429,0.41107 -1.390462,0.44056 -2.778702,0.440147 -1.3837,-4.12e-4 -1.790894,-0.05639 -3.052698,-0.419662 -0.831376,-0.239352 -1.086158,-0.24181 -1.421556,-0.01371 -0.164932,0.112166 -0.309642,0.273201 -0.416084,0.463021 -0.1467,0.26161 -0.163202,0.336527 -0.163202,0.740833 0,0.435704 0.0093,0.469681 0.297256,1.084792 0.47351,1.011517 0.593734,1.555396 0.451664,2.043287 -0.04565,0.156776 -0.26038,0.582702 -0.477172,0.946504 -0.480278,0.805958 -0.583962,1.128416 -0.55144,1.714958 0.02933,0.52888 0.188496,0.866336 0.938262,1.989209 0.281786,0.42201 0.71126,1.084103 0.954388,1.471316 0.243126,0.387214 0.491642,0.731352 0.552254,0.764751 0.06061,0.0334 0.300704,0.07604 0.533538,0.09476 0.688242,0.05533 3.440526,0.05302 4.127498,-0.0035 z"
       id="path2508" />
  </g>
</svg>
