<?xml version="1.0" encoding="UTF-8" standalone="no"?>
<svg
   xmlns:dc="http://purl.org/dc/elements/1.1/"
   xmlns:cc="http://creativecommons.org/ns#"
   xmlns:rdf="http://www.w3.org/1999/02/22-rdf-syntax-ns#"
   xmlns:svg="http://www.w3.org/2000/svg"
   xmlns="http://www.w3.org/2000/svg"
   xmlns:sodipodi="http://sodipodi.sourceforge.net/DTD/sodipodi-0.dtd"
   xmlns:inkscape="http://www.inkscape.org/namespaces/inkscape"
   width="13.229167mm"
   height="13.229167mm"
   viewBox="0 0 13.229169 13.229168"
   version="1.1"
   id="svg8"
   sodipodi:docname="VCS_resized_129.svg"
   inkscape:version="1.0.2-2 (e86c870879, 2021-01-15)">
  <defs
     id="defs2" />
  <sodipodi:namedview
     id="base"
     pagecolor="#ffffff"
     bordercolor="#666666"
     borderopacity="1.0"
     inkscape:pageopacity="0.0"
     inkscape:pageshadow="2"
     inkscape:zoom="2.8284271"
     inkscape:cx="1.05563"
     inkscape:cy="58.551915"
     inkscape:document-units="mm"
     inkscape:current-layer="layer1"
     inkscape:document-rotation="0"
     showgrid="false"
     inkscape:window-width="958"
     inkscape:window-height="1008"
     inkscape:window-x="1913"
     inkscape:window-y="0"
     inkscape:window-maximized="0" />
  <metadata
     id="metadata5">
    <rdf:RDF>
      <cc:Work
         rdf:about="">
        <dc:format>image/svg+xml</dc:format>
        <dc:type
           rdf:resource="http://purl.org/dc/dcmitype/StillImage" />
        <dc:title></dc:title>
      </cc:Work>
    </rdf:RDF>
  </metadata>
  <g
     inkscape:label="Ebene 1"
     inkscape:groupmode="layer"
     id="layer1"
     transform="translate(-37.920681,-11.099751)">
    <path
       style="fill:#000000;stroke-width:0.264582"
       d="m 43.32103,23.938093 c -0.07276,-0.01158 -0.45739,-0.09169 -0.854732,-0.178002 -0.397344,-0.08632 -0.733418,-0.156938 -0.746832,-0.156938 -0.01342,0 -0.282006,-0.339328 -0.596868,-0.754062 -0.314862,-0.414734 -0.705618,-0.92075 -0.868346,-1.124478 -0.725228,-0.907958 -0.908942,-1.273284 -0.94389,-1.87699 -0.02131,-0.36809 -0.0094,-0.43102 0.13589,-0.718428 0.08926,-0.176557 0.360832,-0.533571 0.617914,-0.812315 0.252268,-0.273524 0.534572,-0.642617 0.62734,-0.820208 0.156812,-0.300189 0.16868,-0.360103 0.168786,-0.85206 1.06e-4,-0.599775 -0.04318,-0.720815 -0.516536,-1.443688 -0.739726,-1.129651 -0.89497,-1.596081 -0.785302,-2.359446 0.09946,-0.692333 0.453444,-1.173958 0.977808,-1.330406 0.469472,-0.140071 0.653804,-0.0532 2.383692,1.123419 0.852602,0.579914 1.110448,0.675079 1.829826,0.675347 0.486638,1.8e-4 0.516428,-0.0069 0.93184,-0.221144 0.41533,-0.214214 0.922646,-0.578397 1.581702,-1.135445 0.593464,-0.501608 1.073886,-0.608505 1.530952,-0.340647 0.414948,0.243176 0.631182,0.626595 0.722124,1.280453 0.04083,0.293555 0.03529,0.462918 -0.02453,0.749822 -0.09364,0.449116 -0.19899,0.661935 -0.684668,1.383157 -0.662334,0.983553 -0.773022,1.469207 -0.512964,2.250682 0.120134,0.361003 0.167436,0.427202 0.912386,1.276856 0.449452,0.512625 0.59091,0.854343 0.556952,1.345415 -0.03432,0.496262 -0.194646,0.788336 -1.056072,1.923838 -0.415944,0.548282 -0.8071,1.07195 -0.869236,1.163708 -0.06214,0.09176 -0.205012,0.263644 -0.3175,0.381972 -0.190752,0.200656 -0.245504,0.22444 -0.813066,0.353208 -1.06938,0.242618 -1.1541,0.251982 -2.213308,0.244652 -0.572588,-0.004 -1.100598,-0.01668 -1.17336,-0.02827 z m 3.254376,-0.43484 c 0.232834,-0.06365 0.482864,-0.139864 0.555624,-0.169374 0.07478,-0.03033 0.396856,-0.401706 0.740834,-0.854236 0.334698,-0.440322 0.781436,-1.02846 0.99275,-1.306974 0.518706,-0.683658 0.59502,-0.851256 0.593588,-1.303618 -0.0014,-0.46137 -0.09218,-0.666118 -0.533042,-1.203043 -0.68659,-0.836193 -0.835358,-1.052639 -0.943396,-1.372557 -0.264308,-0.78266 -0.05347,-1.527275 0.768086,-2.712589 0.44155,-0.63706 0.570042,-1.082157 0.491806,-1.703639 -0.082,-0.651387 -0.518064,-1.114001 -0.99177,-1.052151 -0.316434,0.04132 -0.648712,0.233415 -1.248976,0.722064 -0.86361,0.703028 -1.388356,0.966129 -2.05839,1.032048 -0.740582,0.07286 -1.326842,-0.131399 -2.325344,-0.810175 -0.890846,-0.605594 -1.563954,-0.966823 -1.797752,-0.964782 -0.277152,0.0024 -0.629078,0.215607 -0.79042,0.478812 -0.182466,0.297664 -0.269038,0.81821 -0.203276,1.222265 0.05645,0.346854 0.206298,0.659379 0.673976,1.405662 0.655198,1.045514 0.82169,1.661589 0.624608,2.311259 -0.109876,0.362199 -0.271314,0.61767 -0.738486,1.168637 -0.222102,0.261937 -0.474376,0.581997 -0.560612,0.711245 -0.454724,0.68152 -0.315868,1.242326 0.590368,2.38438 0.265588,0.334698 0.686166,0.87718 0.934616,1.205514 0.24845,0.328336 0.477644,0.61299 0.509322,0.632568 0.03168,0.01958 0.331804,0.100594 0.666948,0.180038 0.599698,0.142154 0.633254,0.144206 2.11748,0.129404 1.358352,-0.01354 1.550166,-0.02653 1.931458,-0.130758 z"
       id="path2106" />
  </g>
</svg>
