<?xml version="1.0" encoding="UTF-8" standalone="no"?>
<svg
   xmlns:dc="http://purl.org/dc/elements/1.1/"
   xmlns:cc="http://creativecommons.org/ns#"
   xmlns:rdf="http://www.w3.org/1999/02/22-rdf-syntax-ns#"
   xmlns:svg="http://www.w3.org/2000/svg"
   xmlns="http://www.w3.org/2000/svg"
   xmlns:sodipodi="http://sodipodi.sourceforge.net/DTD/sodipodi-0.dtd"
   xmlns:inkscape="http://www.inkscape.org/namespaces/inkscape"
   width="13.229167mm"
   height="13.229167mm"
   viewBox="0 0 13.229169 13.229168"
   version="1.1"
   id="svg8"
   sodipodi:docname="VCS_resized_202.svg"
   inkscape:version="1.0.2-2 (e86c870879, 2021-01-15)">
  <defs
     id="defs2" />
  <sodipodi:namedview
     id="base"
     pagecolor="#ffffff"
     bordercolor="#666666"
     borderopacity="1.0"
     inkscape:pageopacity="0.0"
     inkscape:pageshadow="2"
     inkscape:zoom="2.8284271"
     inkscape:cx="2.939023"
     inkscape:cy="46.758577"
     inkscape:document-units="mm"
     inkscape:current-layer="layer1"
     inkscape:document-rotation="0"
     showgrid="false"
     inkscape:window-width="958"
     inkscape:window-height="1008"
     inkscape:window-x="1913"
     inkscape:window-y="0"
     inkscape:window-maximized="0" />
  <metadata
     id="metadata5">
    <rdf:RDF>
      <cc:Work
         rdf:about="">
        <dc:format>image/svg+xml</dc:format>
        <dc:type
           rdf:resource="http://purl.org/dc/dcmitype/StillImage" />
        <dc:title></dc:title>
      </cc:Work>
    </rdf:RDF>
  </metadata>
  <g
     inkscape:label="Ebene 1"
     inkscape:groupmode="layer"
     id="layer1"
     transform="translate(-47.785744,-18.308962)">
    <path
       style="fill:#000000;stroke-width:0.264582"
       d="m 50.820181,31.044906 c -0.05967,-0.02417 -0.15302,-0.147678 -0.207442,-0.274458 -0.05442,-0.126781 -0.166332,-0.381001 -0.248692,-0.564932 -0.08236,-0.183932 -0.149746,-0.343808 -0.149746,-0.355281 0,-0.01147 -0.130698,-0.296905 -0.29044,-0.634294 -0.78257,-1.652865 -0.822522,-1.813097 -0.850736,-3.412046 -0.0226,-1.281106 -0.05152,-1.478122 -0.318884,-2.173096 -0.09592,-0.249317 -0.224354,-0.698465 -0.285416,-0.998106 -0.146268,-0.717744 -0.180342,-0.663318 0.819434,-1.308892 0.592394,-0.38252 1.064882,-0.605748 2.2225,-1.050026 0.38124,-0.146315 1.229394,-0.57728 2.308728,-1.173114 l 0.615394,-0.339722 0.44294,0.22155 c 0.243616,0.121852 0.745544,0.397269 1.115396,0.612036 0.369854,0.214768 0.929448,0.48591 1.243542,0.602538 1.051834,0.390562 2.6489,1.271769 3.019118,1.665845 0.155606,0.165635 0.169404,0.205913 0.140022,0.408719 -0.05143,0.354985 -0.174836,0.830204 -0.31264,1.203935 -0.255566,0.693096 -0.291042,0.937299 -0.291042,2.003366 0,1.492824 -0.13376,2.064219 -0.831708,3.552884 -0.275896,0.588463 -0.378006,0.814123 -0.6934,1.532418 -0.152958,0.348352 -0.225682,0.455738 -0.327908,0.484204 -0.188556,0.05251 -6.98901,0.04913 -7.11902,-0.0035 z m 7.023568,-0.28399 c 0.03846,-0.03853 0.122386,-0.187362 0.186504,-0.330729 0.06412,-0.143367 0.341208,-0.760729 0.615756,-1.371917 0.778006,-1.731959 0.88508,-2.190439 0.846074,-3.622769 -0.02092,-0.76826 0.02907,-1.102892 0.273026,-1.827648 0.37404,-1.111196 0.422914,-1.469535 0.225546,-1.653677 -0.31152,-0.290642 -1.758164,-1.06568 -2.55323,-1.367889 -0.563678,-0.214257 -0.98137,-0.421806 -1.87209,-0.930229 -0.447566,-0.255472 -0.899488,-0.480577 -1.00427,-0.500234 -0.155592,-0.02919 -0.248924,-0.0043 -0.50916,0.135559 -1.259766,0.677236 -2.219872,1.150985 -2.832654,1.397728 -1.019106,0.410355 -1.18072,0.487238 -1.772242,0.843101 -0.671922,0.404233 -0.767388,0.490846 -0.766922,0.695803 6e-4,0.236951 0.178956,0.942196 0.36768,1.453375 0.252234,0.683203 0.267364,0.787704 0.318784,2.20188 0.05576,1.533589 0.07948,1.649881 0.539666,2.645833 0.17482,0.378355 0.47329,1.033198 0.663268,1.455209 0.18998,0.42201 0.372328,0.784786 0.40522,0.806169 0.03289,0.02138 1.57615,0.03924 3.429462,0.03969 2.726534,6.6e-4 3.383004,-0.01256 3.439582,-0.06925 z"
       id="path4131" />
  </g>
</svg>
