<?xml version="1.0" encoding="UTF-8" standalone="no"?>
<svg
   xmlns:dc="http://purl.org/dc/elements/1.1/"
   xmlns:cc="http://creativecommons.org/ns#"
   xmlns:rdf="http://www.w3.org/1999/02/22-rdf-syntax-ns#"
   xmlns:svg="http://www.w3.org/2000/svg"
   xmlns="http://www.w3.org/2000/svg"
   xmlns:sodipodi="http://sodipodi.sourceforge.net/DTD/sodipodi-0.dtd"
   xmlns:inkscape="http://www.inkscape.org/namespaces/inkscape"
   width="13.229167mm"
   height="13.229167mm"
   viewBox="0 0 13.229169 13.229168"
   version="1.1"
   id="svg8"
   sodipodi:docname="VCS_resized_337.svg"
   inkscape:version="1.0.2-2 (e86c870879, 2021-01-15)">
  <defs
     id="defs2" />
  <sodipodi:namedview
     id="base"
     pagecolor="#ffffff"
     bordercolor="#666666"
     borderopacity="1.0"
     inkscape:pageopacity="0.0"
     inkscape:pageshadow="2"
     inkscape:zoom="4"
     inkscape:cx="17.595654"
     inkscape:cy="38.583662"
     inkscape:document-units="mm"
     inkscape:current-layer="layer1"
     inkscape:document-rotation="0"
     showgrid="false"
     inkscape:window-width="958"
     inkscape:window-height="1008"
     inkscape:window-x="1913"
     inkscape:window-y="0"
     inkscape:window-maximized="0" />
  <metadata
     id="metadata5">
    <rdf:RDF>
      <cc:Work
         rdf:about="">
        <dc:format>image/svg+xml</dc:format>
        <dc:type
           rdf:resource="http://purl.org/dc/dcmitype/StillImage" />
        <dc:title></dc:title>
      </cc:Work>
    </rdf:RDF>
  </metadata>
  <g
     inkscape:label="Ebene 1"
     inkscape:groupmode="layer"
     id="layer1"
     transform="translate(-93.218079,18.631815)">
    <path
       style="fill:#000000;stroke-width:0.264582"
       d="m 99.49067,-6.0420821 c -0.10094,-0.04148 -0.7278,-0.816651 -1.01361,-1.253418 -0.17737,-0.271054 -0.27988,-0.489531 -0.29794,-0.635 -0.16558,-1.33331 -0.296634,-2.2709889 -0.323468,-2.3144089 -0.04651,-0.07525 -0.600076,-0.346486 -1.612458,-0.790064 -1.634798,-0.716292 -2.709026,-1.258297 -2.689762,-1.357126 0.02285,-0.117229 0.517238,-0.285069 1.63143,-0.553859 1.62552,-0.392145 2.816738,-0.690428 2.931448,-0.734043 0.13451,-0.05114 0.21415,-0.219526 0.73927,-1.563103 0.63105,-1.614587 1.16312,-2.778125 1.27041,-2.778125 0.0402,0 0.0958,0.02977 0.12364,0.06615 0.0809,0.105617 0.50224,1.387104 0.9175,2.790358 0.21084,0.712505 0.41467,1.370414 0.45295,1.46202 0.0778,0.186307 0.0441,0.168409 0.84083,0.445804 1.88575,0.65655 2.41368,0.845591 2.69874,0.966358 0.17463,0.07398 0.46038,0.194743 0.635,0.26836 0.17463,0.07362 0.3175,0.163684 0.3175,0.20015 0,0.137204 -0.87163,0.49998 -2.7236,1.133575 -1.79613,0.614488 -1.67029,0.553537 -1.76507,0.8548439 -0.0753,0.239286 -0.23626,0.921648 -0.42997,1.822443 -0.0818,0.380602 -0.11508,0.440184 -0.53761,0.963716 -0.45993,0.569861 -0.93665,1.041623 -1.04499,1.034131 -0.0332,-0.0023 -0.0873,-0.01524 -0.12024,-0.02876 z m 0.60083,-0.728521 c 0.72112,-0.761816 0.75476,-0.831265 1.06654,-2.201876 0.0894,-0.392907 0.20477,-0.844509 0.25643,-1.003561 l 0.0939,-0.2891869 0.58209,-0.223411 c 0.32014,-0.122876 0.90355,-0.332705 1.29646,-0.466286 0.83114,-0.282577 1.30327,-0.456771 1.84394,-0.680339 l 0.38873,-0.160742 -0.18896,-0.09694 c -0.22625,-0.116072 -1.20053,-0.478366 -2.67871,-0.996101 -0.59664,-0.208971 -1.13248,-0.410043 -1.19076,-0.446826 -0.12829,-0.08097 -0.17867,-0.221977 -0.68136,-1.907232 -0.47206,-1.58259 -0.68432,-2.210341 -0.75538,-2.234028 -0.0593,-0.01978 -0.47316,0.921193 -1.17852,2.679778 -0.26176,0.652621 -0.5088,1.219448 -0.54896,1.259615 -0.0693,0.06926 -1.73451,0.510055 -2.957728,0.78291 -0.748866,0.167044 -1.312714,0.340859 -1.312714,0.404663 0,0.05888 0.95222,0.520246 2.38125,1.153766 1.05731,0.468729 1.587502,0.734446 1.587502,0.795611 0,0.02124 0.0333,0.238186 0.074,0.4821069 0.0407,0.243922 0.10199,0.681619 0.13612,0.972661 0.13883,1.183751 0.14563,1.216836 0.29989,1.459294 0.30733,0.483038 0.89272,1.160081 1.00304,1.160081 0.0346,0 0.25199,-0.199781 0.48312,-0.443957 z"
       id="path6311" />
  </g>
</svg>
