<?xml version="1.0" encoding="UTF-8" standalone="no"?>
<svg
   xmlns:dc="http://purl.org/dc/elements/1.1/"
   xmlns:cc="http://creativecommons.org/ns#"
   xmlns:rdf="http://www.w3.org/1999/02/22-rdf-syntax-ns#"
   xmlns:svg="http://www.w3.org/2000/svg"
   xmlns="http://www.w3.org/2000/svg"
   xmlns:sodipodi="http://sodipodi.sourceforge.net/DTD/sodipodi-0.dtd"
   xmlns:inkscape="http://www.inkscape.org/namespaces/inkscape"
   width="13.229167mm"
   height="13.229167mm"
   viewBox="0 0 13.229169 13.229168"
   version="1.1"
   id="svg8"
   sodipodi:docname="VCS_resized_282.svg"
   inkscape:version="1.0.2-2 (e86c870879, 2021-01-15)">
  <defs
     id="defs2" />
  <sodipodi:namedview
     id="base"
     pagecolor="#ffffff"
     bordercolor="#666666"
     borderopacity="1.0"
     inkscape:pageopacity="0.0"
     inkscape:pageshadow="2"
     inkscape:zoom="4"
     inkscape:cx="16.585487"
     inkscape:cy="36.184368"
     inkscape:document-units="mm"
     inkscape:current-layer="layer1"
     inkscape:document-rotation="0"
     showgrid="false"
     inkscape:window-width="958"
     inkscape:window-height="1008"
     inkscape:window-x="1913"
     inkscape:window-y="0"
     inkscape:window-maximized="0" />
  <metadata
     id="metadata5">
    <rdf:RDF>
      <cc:Work
         rdf:about="">
        <dc:format>image/svg+xml</dc:format>
        <dc:type
           rdf:resource="http://purl.org/dc/dcmitype/StillImage" />
        <dc:title></dc:title>
      </cc:Work>
    </rdf:RDF>
  </metadata>
  <g
     inkscape:label="Ebene 1"
     inkscape:groupmode="layer"
     id="layer1"
     transform="translate(-82.715553,12.690555)">
    <path
       style="fill:#000000;stroke-width:0.264582"
       d="m 86.241153,0.08448233 c -0.03101,-0.038233 -0.09543,-0.6767332 -0.143154,-1.41888963 -0.144856,-2.2526917 -0.192954,-2.7721005 -0.267068,-2.8839583 -0.03857,-0.058208 -0.739344,-0.7883446 -1.557282,-1.6225246 -0.817938,-0.8341804 -1.48716,-1.5400183 -1.48716,-1.5685293 0,-0.028511 0.17264,-0.091561 0.383646,-0.14011 0.394374,-0.09074 3.07412,-0.6754364 3.57374,-0.7797572 0.201174,-0.042006 0.306832,-0.097087 0.376422,-0.1962378 0.05321,-0.075813 0.531032,-0.9236536 1.061828,-1.8840905 0.530794,-0.960438 0.989398,-1.776016 1.019118,-1.812396 0.02972,-0.03638 0.1047,-0.06587 0.16662,-0.06553 0.09254,5e-4 0.253298,0.257202 0.903044,1.441979 1.165653,2.1254975 1.305399,2.3667817 1.399401,2.4161947 0.09466,0.04976 1.414052,0.3557238 3.065396,0.7108582 0.591162,0.1271338 1.100716,0.2570278 1.132342,0.288654 0.05459,0.054592 -0.239666,0.3741499 -2.640958,2.8680123 l -0.433778,0.4504992 -0.07887,0.9783621 c -0.04338,0.538099 -0.106438,1.4784244 -0.140136,2.089612 -0.0337,0.61118743 -0.06495,1.11491083 -0.06944,1.11938543 -0.0045,0.00448 -1.402982,0.02385 -3.107751,0.043056 -2.528258,0.028483 -3.109972,0.022107 -3.155964,-0.034594 z m 5.980663,-0.2547228 c 0.02668,-0.028259 0.04442,-0.2644914 0.168896,-2.24895843 0.119104,-1.8988755 0.08715,-1.7521085 0.46831,-2.1509653 0.179076,-0.1873906 0.832934,-0.867957 1.453018,-1.512371 0.96997,-1.008027 1.11408,-1.1786118 1.031874,-1.2214272 -0.05255,-0.027371 -0.405112,-0.1144999 -0.783466,-0.1936189 -1.095504,-0.2290858 -2.789414,-0.609692 -2.971296,-0.6676236 -0.179218,-0.057083 -0.16121,-0.02795 -1.289255,-2.0856601 -0.759096,-1.3847 -0.90225,-1.621636 -0.966776,-1.600128 -0.03285,0.01095 -0.354492,0.554054 -0.714752,1.206894 -0.974068,1.7651451 -1.268692,2.2884349 -1.344742,2.3884251 -0.04763,0.062624 -0.408256,0.1645232 -1.179848,0.3333798 -2.185208,0.4782148 -2.804868,0.6180369 -2.824468,0.6373239 -0.01094,0.010764 0.604678,0.6575272 1.368032,1.4372532 0.763354,0.7797266 1.41928,1.4653096 1.457614,1.523518 0.06942,0.1054078 0.0961,0.39508 0.267876,2.9088415 0.04569,0.66852963 0.09341,1.23224703 0.106054,1.25270523 0.02569,0.041577 5.713591,0.034074 5.752929,-0.00759 z"
       id="path5427" />
  </g>
</svg>
