<?xml version="1.0" encoding="UTF-8" standalone="no"?>
<svg
   xmlns:dc="http://purl.org/dc/elements/1.1/"
   xmlns:cc="http://creativecommons.org/ns#"
   xmlns:rdf="http://www.w3.org/1999/02/22-rdf-syntax-ns#"
   xmlns:svg="http://www.w3.org/2000/svg"
   xmlns="http://www.w3.org/2000/svg"
   xmlns:sodipodi="http://sodipodi.sourceforge.net/DTD/sodipodi-0.dtd"
   xmlns:inkscape="http://www.inkscape.org/namespaces/inkscape"
   width="13.229167mm"
   height="13.229167mm"
   viewBox="0 0 13.229169 13.229168"
   version="1.1"
   id="svg8"
   sodipodi:docname="VCS_resized_263.svg"
   inkscape:version="1.0.2-2 (e86c870879, 2021-01-15)">
  <defs
     id="defs2" />
  <sodipodi:namedview
     id="base"
     pagecolor="#ffffff"
     bordercolor="#666666"
     borderopacity="1.0"
     inkscape:pageopacity="0.0"
     inkscape:pageshadow="2"
     inkscape:zoom="4"
     inkscape:cx="10.799886"
     inkscape:cy="27.005058"
     inkscape:document-units="mm"
     inkscape:current-layer="layer1"
     inkscape:document-rotation="0"
     showgrid="false"
     inkscape:window-width="958"
     inkscape:window-height="1008"
     inkscape:window-x="1913"
     inkscape:window-y="0"
     inkscape:window-maximized="0" />
  <metadata
     id="metadata5">
    <rdf:RDF>
      <cc:Work
         rdf:about="">
        <dc:format>image/svg+xml</dc:format>
        <dc:type
           rdf:resource="http://purl.org/dc/dcmitype/StillImage" />
        <dc:title></dc:title>
      </cc:Work>
    </rdf:RDF>
  </metadata>
  <g
     inkscape:label="Ebene 1"
     inkscape:groupmode="layer"
     id="layer1"
     transform="translate(-75.905884,11.760375)">
    <path
       style="fill:#000000;stroke-width:0.264582"
       d="m 78.648874,0.73654226 c -0.01732,-0.2546614 -0.05754,-1.2488334 -0.08939,-2.20927076 -0.05465,-1.6478716 -0.06427,-1.7551936 -0.17079,-1.905 -0.06209,-0.087313 -0.516996,-0.7064377 -1.010914,-1.3758335 -1.356542,-1.8384902 -1.46796,-1.9982084 -1.42274,-2.039501 0.04654,-0.0425 0.38508,-0.1379346 2.515766,-0.7092055 0.80771,-0.2165598 1.487476,-0.4054336 1.510592,-0.41972 0.05287,-0.032672 0.91852,-1.2920208 1.768662,-2.5730315 0.473678,-0.71375 0.681104,-0.98343 0.765668,-0.995465 0.09862,-0.01404 0.252158,0.188001 1.02547,1.349375 0.500216,0.7512349 1.048822,1.5594421 1.219126,1.7960167 l 0.30964,0.4301358 0.966763,0.2676472 c 0.53172,0.1472062 1.39539,0.3794833 1.919264,0.5161713 1.007932,0.2629874 1.137708,0.308919 1.137708,0.4026704 0,0.032264 -0.221756,0.358848 -0.492792,0.7257426 -0.492354,0.666487 -1.089584,1.484179 -1.705942,2.335675 -0.179754,0.248331 -0.34037,0.4983623 -0.356922,0.5556251 -0.01656,0.057263 -0.0569,0.9494578 -0.08967,1.9826556 -0.03276,1.03319796 -0.07155,1.97974476 -0.0862,2.10343756 l -0.02663,0.22489584 h -3.827597 -3.8276 z m 7.464863,-0.01323 c 0.0054,-0.1018646 0.03858,-1.0408798 0.07373,-2.08670096 l 0.0639,-1.9014922 0.534816,-0.7211023 c 0.294148,-0.3966062 0.67769,-0.9196488 0.852314,-1.1623172 0.174626,-0.2426686 0.478234,-0.6613664 0.674688,-0.9304392 0.196452,-0.2690732 0.357188,-0.5127846 0.357188,-0.5415808 0,-0.028797 -0.05358,-0.067001 -0.119064,-0.084898 -0.06548,-0.017898 -0.404812,-0.106198 -0.754062,-0.196223 -1.130226,-0.2913344 -2.713933,-0.7331677 -2.840271,-0.7923985 -0.140106,-0.065685 -0.20207,-0.1517322 -1.464652,-2.033889 -0.507614,-0.7567091 -0.94189,-1.3833201 -0.96506,-1.3924711 -0.02317,-0.0091 -0.09986,0.07419 -0.170424,0.185209 -0.839306,1.3204795 -2.028518,3.0590257 -2.189206,3.2004705 -0.08329,0.073315 -0.836302,0.2879698 -3.231532,0.9211827 -0.300058,0.079325 -0.542396,0.1712594 -0.542396,0.205766 0,0.034307 0.220266,0.3583992 0.48948,0.7202058 0.269214,0.3618066 0.802254,1.086393 1.184534,1.6101918 l 0.695054,0.9523619 0.06094,1.7991666 c 0.03352,0.98954176 0.07389,1.94816036 0.08972,2.13026416 l 0.02878,0.331098 3.580852,-0.013598 3.580851,-0.013598 z"
       id="path5121" />
  </g>
</svg>
