<?xml version="1.0" encoding="UTF-8" standalone="no"?>
<svg
   xmlns:dc="http://purl.org/dc/elements/1.1/"
   xmlns:cc="http://creativecommons.org/ns#"
   xmlns:rdf="http://www.w3.org/1999/02/22-rdf-syntax-ns#"
   xmlns:svg="http://www.w3.org/2000/svg"
   xmlns="http://www.w3.org/2000/svg"
   xmlns:sodipodi="http://sodipodi.sourceforge.net/DTD/sodipodi-0.dtd"
   xmlns:inkscape="http://www.inkscape.org/namespaces/inkscape"
   width="13.229167mm"
   height="13.229167mm"
   viewBox="0 0 13.229169 13.229168"
   version="1.1"
   id="svg8"
   sodipodi:docname="VCS_resized_216.svg"
   inkscape:version="1.0.2-2 (e86c870879, 2021-01-15)">
  <defs
     id="defs2" />
  <sodipodi:namedview
     id="base"
     pagecolor="#ffffff"
     bordercolor="#666666"
     borderopacity="1.0"
     inkscape:pageopacity="0.0"
     inkscape:pageshadow="2"
     inkscape:zoom="2.8284271"
     inkscape:cx="4.1754076"
     inkscape:cy="72.778542"
     inkscape:document-units="mm"
     inkscape:current-layer="layer1"
     inkscape:document-rotation="0"
     showgrid="false"
     inkscape:window-width="958"
     inkscape:window-height="1008"
     inkscape:window-x="1913"
     inkscape:window-y="0"
     inkscape:window-maximized="0" />
  <metadata
     id="metadata5">
    <rdf:RDF>
      <cc:Work
         rdf:about="">
        <dc:format>image/svg+xml</dc:format>
        <dc:type
           rdf:resource="http://purl.org/dc/dcmitype/StillImage" />
        <dc:title></dc:title>
      </cc:Work>
    </rdf:RDF>
  </metadata>
  <g
     inkscape:label="Ebene 1"
     inkscape:groupmode="layer"
     id="layer1"
     transform="translate(-47.458618,-11.424514)">
    <path
       style="fill:#000000;stroke-width:0.264582"
       d="m 50.176822,24.186146 c -0.04935,-0.03638 -0.134908,-0.220927 -0.19014,-0.410104 -0.05523,-0.189177 -0.236454,-0.724959 -0.402718,-1.190625 -0.497352,-1.392971 -0.59422,-1.690195 -0.657248,-2.016704 -0.03309,-0.171396 -0.105832,-0.514036 -0.161654,-0.761421 -0.05582,-0.247386 -0.15336,-0.723636 -0.21675,-1.058334 -0.06339,-0.334698 -0.220668,-0.893805 -0.349514,-1.24246 -0.282968,-0.765718 -0.439568,-1.315937 -0.439568,-1.544442 0,-0.162183 0.03321,-0.189243 0.754064,-0.614436 0.84307,-0.497283 1.667174,-0.958665 2.100348,-1.175899 0.43165,-0.216469 1.181848,-0.72585 2.331422,-1.583024 0.567532,-0.423176 1.071738,-0.769954 1.120458,-0.770617 0.09355,-0.0013 0.54657,0.313863 1.626032,1.131124 0.682928,0.517045 1.283798,0.900255 2.359968,1.505088 2.331496,1.310357 2.378288,1.342192 2.324356,1.581395 -0.05295,0.234856 -0.209282,0.733829 -0.443892,1.416813 -0.134044,0.390221 -0.270006,0.940407 -0.35271,1.427282 -0.203744,1.199422 -0.426118,2.00481 -0.972014,3.520426 -0.141518,0.392907 -0.33408,0.936614 -0.427916,1.20824 -0.09384,0.271625 -0.204358,0.527609 -0.245602,0.568854 -0.104492,0.104492 -7.61557,0.113056 -7.756922,0.0088 z m 7.829488,-0.886354 c 0.790944,-2.231039 1.08028,-3.193437 1.209084,-4.021667 0.116988,-0.75227 0.267844,-1.344412 0.552724,-2.169583 0.175836,-0.509323 0.319884,-0.985573 0.320106,-1.058334 6e-4,-0.165658 -0.193812,-0.287168 -2.327744,-1.455612 -0.967364,-0.529686 -1.53615,-0.901593 -2.637892,-1.724819 -0.541312,-0.404471 -1.001144,-0.735402 -1.021846,-0.735402 -0.04561,0 -0.439258,0.275359 -1.406014,0.983504 -1.23095,0.901665 -1.634808,1.152845 -2.77132,1.72362 -0.31781,0.159609 -1.395538,0.770639 -1.843144,1.044992 -0.105702,0.06479 -0.0118,0.467802 0.319726,1.372373 0.288984,0.788469 0.32686,0.936252 0.65314,2.548428 0.19285,0.952879 0.300592,1.33413 0.663204,2.346777 0.238122,0.664987 0.469194,1.331737 0.513494,1.481666 0.0443,0.149929 0.09145,0.290618 0.104776,0.312642 0.01332,0.02202 1.69215,0.03393 3.73072,0.02646 l 3.706488,-0.01359 z"
       id="path4355" />
  </g>
</svg>
