<?xml version="1.0" encoding="UTF-8" standalone="no"?>
<svg
   xmlns:dc="http://purl.org/dc/elements/1.1/"
   xmlns:cc="http://creativecommons.org/ns#"
   xmlns:rdf="http://www.w3.org/1999/02/22-rdf-syntax-ns#"
   xmlns:svg="http://www.w3.org/2000/svg"
   xmlns="http://www.w3.org/2000/svg"
   xmlns:sodipodi="http://sodipodi.sourceforge.net/DTD/sodipodi-0.dtd"
   xmlns:inkscape="http://www.inkscape.org/namespaces/inkscape"
   width="13.229167mm"
   height="13.229167mm"
   viewBox="0 0 13.229167 13.229167"
   version="1.1"
   id="svg8"
   sodipodi:docname="VCS_resized_24.svg"
   inkscape:version="1.0.2-2 (e86c870879, 2021-01-15)">
  <defs
     id="defs2" />
  <sodipodi:namedview
     id="base"
     pagecolor="#ffffff"
     bordercolor="#666666"
     borderopacity="1.0"
     inkscape:pageopacity="0.0"
     inkscape:pageshadow="2"
     inkscape:zoom="2.8284271"
     inkscape:cx="16.171883"
     inkscape:cy="44.626589"
     inkscape:document-units="mm"
     inkscape:current-layer="layer1"
     inkscape:document-rotation="0"
     showgrid="false"
     inkscape:window-width="958"
     inkscape:window-height="1008"
     inkscape:window-x="1913"
     inkscape:window-y="0"
     inkscape:window-maximized="0" />
  <metadata
     id="metadata5">
    <rdf:RDF>
      <cc:Work
         rdf:about="">
        <dc:format>image/svg+xml</dc:format>
        <dc:type
           rdf:resource="http://purl.org/dc/dcmitype/StillImage" />
        <dc:title></dc:title>
      </cc:Work>
    </rdf:RDF>
  </metadata>
  <g
     inkscape:label="Ebene 1"
     inkscape:groupmode="layer"
     id="layer1"
     transform="translate(-33.921177,-14.78416)">
    <path
       style="fill:#000000;stroke-width:0.264582"
       d="m 37.670544,26.39199 c -0.213422,-0.242368 -0.328604,-0.573934 -0.352836,-1.015674 -0.02907,-0.53005 0.01208,-0.68419 0.395866,-1.482688 0.27917,-0.58084 0.493284,-1.249736 0.493284,-1.541035 0,-0.270972 -0.170442,-0.640225 -0.423144,-0.916723 -0.139242,-0.152352 -0.574072,-0.497412 -0.966288,-0.766799 -1.078462,-0.740725 -1.569774,-1.311354 -1.57274,-1.826648 -0.0016,-0.272864 0.07177,-0.391004 0.305018,-0.49134 0.360018,-0.154869 0.510834,-0.1843 0.937362,-0.182921 0.467434,0.0015 0.741258,0.07979 1.75359,0.501307 0.648044,0.269833 1.308086,0.421692 1.602068,0.368596 0.240936,-0.04352 0.614178,-0.290702 0.845424,-0.559897 0.09868,-0.114872 0.351234,-0.451195 0.561236,-0.747385 0.639058,-0.901332 1.051316,-1.226651 1.736632,-1.370397 0.217126,-0.04554 0.33181,-0.04792 0.395866,-0.0082 0.161322,0.100045 0.325818,0.471029 0.38897,0.877234 0.07955,0.511708 -0.01062,0.897305 -0.383742,1.640822 -0.291764,0.58141 -0.470668,1.184619 -0.470668,1.586952 0,0.511974 0.267238,0.834746 1.296458,1.565871 0.895188,0.635912 1.06928,0.78696 1.290648,1.119807 0.267434,0.402106 0.32331,0.54802 0.32331,0.844284 v 0.25472 l -0.32399,0.172684 c -0.296358,0.157958 -0.365178,0.172862 -0.806978,0.174758 -0.436742,0.0018 -0.531126,-0.017 -0.985698,-0.197112 -1.168828,-0.463118 -1.489918,-0.560662 -1.95299,-0.593304 -0.401104,-0.02827 -0.484398,-0.01808 -0.706434,0.08654 -0.357328,0.16835 -0.764518,0.578696 -1.182228,1.19139 -0.651204,0.955182 -1.140078,1.32272 -1.846974,1.388564 -0.21178,0.01972 -0.281924,0.0051 -0.351022,-0.07341 z m 0.861164,-0.30516 c 0.29815,-0.124574 0.63473,-0.464412 1.086144,-1.096658 0.498852,-0.698686 0.799964,-1.010676 1.220932,-1.265038 0.287456,-0.17369 0.325316,-0.182412 0.753596,-0.173594 0.55427,0.01142 1.103112,0.150682 1.815506,0.460698 0.297236,0.129348 0.688534,0.261982 0.869548,0.29474 0.53452,0.09673 1.102542,-0.02026 1.226944,-0.252708 0.06192,-0.115696 -0.01574,-0.5065 -0.13786,-0.69371 -0.168734,-0.258682 -0.64872,-0.675517 -1.292102,-1.122105 -0.720522,-0.500131 -1.269708,-1.039227 -1.370836,-1.345652 -0.06838,-0.207199 -0.04137,-0.693459 0.063,-1.134088 0.03102,-0.130969 0.175084,-0.488157 0.320136,-0.79375 0.345874,-0.728688 0.464722,-1.076666 0.464722,-1.360685 0,-0.338093 -0.09947,-0.680746 -0.242384,-0.834951 -0.108866,-0.117468 -0.153322,-0.130226 -0.351234,-0.100798 -0.552064,0.08209 -1.003704,0.437899 -1.499256,1.181141 -0.144054,0.216057 -0.312732,0.467125 -0.374838,0.557929 -0.160082,0.234057 -0.66385,0.683442 -0.882414,0.787157 -0.446486,0.211872 -1.229504,0.06897 -2.455482,-0.448115 -0.703606,-0.296765 -1.124558,-0.384729 -1.513376,-0.31624 -0.634648,0.111791 -0.82166,0.351758 -0.612782,0.786296 0.167112,0.347649 0.547572,0.702906 1.317182,1.229932 0.747736,0.512047 1.130624,0.863638 1.350732,1.240323 0.279484,0.478298 0.185954,1.181777 -0.292402,2.19926 -0.143672,0.305594 -0.297694,0.659822 -0.342274,0.787174 -0.138844,0.396632 -0.08933,1.06808 0.100068,1.357146 0.07189,0.10972 0.12779,0.131098 0.3428,0.131098 0.141296,0 0.337462,-0.03366 0.435926,-0.0748 z"
       id="path376" />
  </g>
</svg>
