<?xml version="1.0" encoding="UTF-8" standalone="no"?>
<svg
   xmlns:dc="http://purl.org/dc/elements/1.1/"
   xmlns:cc="http://creativecommons.org/ns#"
   xmlns:rdf="http://www.w3.org/1999/02/22-rdf-syntax-ns#"
   xmlns:svg="http://www.w3.org/2000/svg"
   xmlns="http://www.w3.org/2000/svg"
   xmlns:sodipodi="http://sodipodi.sourceforge.net/DTD/sodipodi-0.dtd"
   xmlns:inkscape="http://www.inkscape.org/namespaces/inkscape"
   width="13.229167mm"
   height="13.229167mm"
   viewBox="0 0 13.229169 13.229168"
   version="1.1"
   id="svg8"
   sodipodi:docname="VCS_resized_114.svg"
   inkscape:version="1.0.2-2 (e86c870879, 2021-01-15)">
  <defs
     id="defs2" />
  <sodipodi:namedview
     id="base"
     pagecolor="#ffffff"
     bordercolor="#666666"
     borderopacity="1.0"
     inkscape:pageopacity="0.0"
     inkscape:pageshadow="2"
     inkscape:zoom="2.8284271"
     inkscape:cx="7.8270472"
     inkscape:cy="46.959947"
     inkscape:document-units="mm"
     inkscape:current-layer="layer1"
     inkscape:document-rotation="0"
     showgrid="false"
     inkscape:window-width="958"
     inkscape:window-height="1008"
     inkscape:window-x="1913"
     inkscape:window-y="0"
     inkscape:window-maximized="0" />
  <metadata
     id="metadata5">
    <rdf:RDF>
      <cc:Work
         rdf:about="">
        <dc:format>image/svg+xml</dc:format>
        <dc:type
           rdf:resource="http://purl.org/dc/dcmitype/StillImage" />
        <dc:title></dc:title>
      </cc:Work>
    </rdf:RDF>
  </metadata>
  <g
     inkscape:label="Ebene 1"
     inkscape:groupmode="layer"
     id="layer1"
     transform="translate(-36.129078,-14.166794)">
    <path
       style="fill:#000000;stroke-width:0.264582"
       d="m 41.486087,26.909359 c -0.130968,-0.02904 -0.506554,-0.12017 -0.834634,-0.202505 l -0.596508,-0.1497 -0.82211,-0.783328 c -1.221706,-1.164073 -1.558871,-1.657985 -1.575035,-2.30726 -0.01174,-0.471812 0.139808,-0.742944 0.789799,-1.412943 0.627878,-0.647205 0.942852,-1.108515 1.033528,-1.513703 0.05457,-0.243827 0.05103,-0.352861 -0.02242,-0.691318 -0.09582,-0.441547 -0.21108,-0.647471 -0.824296,-1.472688 -0.555034,-0.746917 -0.804711,-1.296591 -0.838965,-1.847003 -0.04998,-0.803177 0.201121,-1.443749 0.682289,-1.740521 0.670978,-0.413843 1.106352,-0.223709 2.457776,1.073347 0.456334,0.437976 0.808696,0.727722 1.031874,0.848505 0.325256,0.176028 0.36129,0.183428 0.894534,0.183711 0.522012,2.6e-4 0.57163,-0.0092 0.820208,-0.157129 0.14552,-0.08658 0.62541,-0.517383 1.066418,-0.957335 0.933364,-0.931125 1.180806,-1.113145 1.58125,-1.163177 0.232788,-0.02908 0.327932,-0.01463 0.521912,0.07927 0.481998,0.233331 0.747118,0.644029 0.839158,1.299939 0.11287,0.804368 -0.08391,1.363498 -0.828456,2.353934 -0.766384,1.01949 -0.980162,1.601419 -0.811352,2.208597 0.134796,0.484835 0.327774,0.771972 0.975764,1.451878 0.722438,0.758019 0.827154,0.954364 0.7994,1.4989 -0.01252,0.245768 -0.05919,0.453022 -0.138674,0.615894 -0.208336,0.426907 -1.388474,1.735781 -1.993722,2.211206 -0.294468,0.231306 -0.376968,0.264673 -1.099064,0.44451 -0.774464,0.192878 -0.78905,0.194381 -1.825626,0.188077 -0.574708,-0.0035 -1.152082,-0.03012 -1.28305,-0.05916 z m 3.160046,-0.418679 0.676412,-0.166692 0.981168,-0.984245 c 1.035864,-1.039111 1.192662,-1.256606 1.24881,-1.732216 0.05361,-0.454082 -0.03412,-0.633206 -0.629026,-1.284337 -1.063704,-1.164244 -1.278008,-1.596011 -1.168712,-2.354663 0.0676,-0.469219 0.257212,-0.900657 0.633732,-1.441951 0.808824,-1.162786 0.908174,-1.333609 0.993304,-1.707898 0.105612,-0.464344 0.105346,-0.652986 -0.0014,-1.012847 -0.10661,-0.359285 -0.239376,-0.548248 -0.501432,-0.713676 -0.325174,-0.205273 -0.72073,-0.147549 -1.135894,0.165763 -0.112718,0.08507 -0.52729,0.476834 -0.92127,0.870597 -0.793908,0.793474 -1.075,0.971969 -1.678642,1.065947 -0.272154,0.04237 -0.419706,0.0359 -0.718024,-0.03146 -0.56038,-0.12655 -0.939202,-0.368963 -1.672436,-1.070217 -0.657068,-0.628408 -1.029136,-0.917118 -1.36017,-1.055432 -0.658488,-0.275134 -1.277656,0.24465 -1.334466,1.120266 -0.04271,0.658293 0.133102,1.083821 0.895234,2.166779 0.501926,0.713217 0.725556,1.178517 0.801156,1.666927 0.105806,0.683563 -0.087,1.140414 -0.820072,1.943143 -0.945294,1.035119 -1.090287,1.32101 -0.945394,1.864078 0.107152,0.401609 0.345324,0.700813 1.2946,1.626339 l 0.911334,0.888533 0.605902,0.144353 c 0.333246,0.07939 0.653528,0.154022 0.711736,0.165841 0.05821,0.01182 0.634884,0.02425 1.281504,0.02763 1.150456,0.006 1.190176,0.0026 1.852082,-0.160554 z"
       id="path1866" />
  </g>
</svg>
