<?xml version="1.0" encoding="UTF-8" standalone="no"?>
<svg
   xmlns:dc="http://purl.org/dc/elements/1.1/"
   xmlns:cc="http://creativecommons.org/ns#"
   xmlns:rdf="http://www.w3.org/1999/02/22-rdf-syntax-ns#"
   xmlns:svg="http://www.w3.org/2000/svg"
   xmlns="http://www.w3.org/2000/svg"
   xmlns:sodipodi="http://sodipodi.sourceforge.net/DTD/sodipodi-0.dtd"
   xmlns:inkscape="http://www.inkscape.org/namespaces/inkscape"
   width="13.229167mm"
   height="13.229167mm"
   viewBox="0 0 13.229169 13.229168"
   version="1.1"
   id="svg8"
   sodipodi:docname="VCS_resized_125.svg"
   inkscape:version="1.0.2-2 (e86c870879, 2021-01-15)">
  <defs
     id="defs2" />
  <sodipodi:namedview
     id="base"
     pagecolor="#ffffff"
     bordercolor="#666666"
     borderopacity="1.0"
     inkscape:pageopacity="0.0"
     inkscape:pageshadow="2"
     inkscape:zoom="2.8284271"
     inkscape:cx="3.7829078"
     inkscape:cy="61.770911"
     inkscape:document-units="mm"
     inkscape:current-layer="layer1"
     inkscape:document-rotation="0"
     showgrid="false"
     inkscape:window-width="958"
     inkscape:window-height="1008"
     inkscape:window-x="1913"
     inkscape:window-y="0"
     inkscape:window-maximized="0" />
  <metadata
     id="metadata5">
    <rdf:RDF>
      <cc:Work
         rdf:about="">
        <dc:format>image/svg+xml</dc:format>
        <dc:type
           rdf:resource="http://purl.org/dc/dcmitype/StillImage" />
        <dc:title></dc:title>
      </cc:Work>
    </rdf:RDF>
  </metadata>
  <g
     inkscape:label="Ebene 1"
     inkscape:groupmode="layer"
     id="layer1"
     transform="translate(-37.199089,-10.248059)">
    <path
       style="fill:#000000;stroke-width:0.264582"
       d="m 42.386103,23.044855 c -0.189178,-0.04107 -0.586276,-0.136161 -0.88244,-0.211312 l -0.538482,-0.136639 -0.70506,-0.870335 c -1.186586,-1.464737 -1.26328,-1.567428 -1.43587,-1.922582 -0.131808,-0.271228 -0.171206,-0.428489 -0.186324,-0.743719 -0.02613,-0.544865 0.08358,-0.759447 0.76466,-1.495574 0.70972,-0.76708 0.893592,-1.111857 0.892608,-1.673713 -10e-4,-0.559507 -0.07478,-0.754754 -0.565202,-1.495379 -0.79665,-1.203079 -0.976206,-1.703824 -0.88791,-2.476199 0.04591,-0.401586 0.105878,-0.570452 0.323134,-0.909895 0.277188,-0.433083 0.831778,-0.621097 1.318574,-0.447017 0.201756,0.07215 0.938258,0.588433 1.731508,1.213777 0.755114,0.595281 0.973594,0.688245 1.681146,0.715328 0.524082,0.02006 0.60988,0.01023 0.812428,-0.0931 0.376422,-0.192037 0.960142,-0.629818 1.407856,-1.055871 0.572828,-0.545116 0.961482,-0.7957 1.295478,-0.835257 0.692562,-0.08202 1.25902,0.499676 1.372862,1.409802 0.08562,0.684483 -0.09203,1.293626 -0.571464,1.959476 -0.884806,1.228852 -1.061232,1.784877 -0.80114,2.524886 0.135862,0.386551 0.277784,0.58656 0.85791,1.209047 0.608136,0.652541 0.75198,0.948935 0.717802,1.479037 -0.03264,0.506222 -0.159744,0.734107 -1.002502,1.797335 -0.38763,0.489035 -0.779188,0.987163 -0.870132,1.106951 -0.48036,0.632719 -0.431234,0.603908 -1.417852,0.83155 -0.886544,0.204552 -0.904348,0.206398 -1.931212,0.200268 -0.672044,-0.004 -1.157342,-0.03244 -1.380376,-0.08086 z m 3.34108,-0.390866 c 0.388626,-0.08823 0.73409,-0.189431 0.767698,-0.224896 0.2771,-0.292416 2.054744,-2.587678 2.117656,-2.734278 0.0443,-0.103237 0.08273,-0.333228 0.0854,-0.511092 0.0066,-0.437007 -0.161916,-0.762532 -0.708996,-1.369945 -0.804346,-0.893049 -0.970484,-1.245857 -0.93856,-1.993097 0.01654,-0.386898 0.04556,-0.496665 0.23633,-0.893727 0.119616,-0.248961 0.33318,-0.618055 0.474586,-0.820208 0.679154,-0.970916 0.79052,-1.256442 0.754876,-1.935376 -0.02586,-0.492609 -0.186134,-0.840928 -0.488238,-1.061084 -0.193384,-0.140928 -0.251216,-0.156432 -0.514528,-0.13794 -0.368436,0.02587 -0.681916,0.215871 -1.317058,0.798249 -0.519884,0.476695 -1.065888,0.860757 -1.388886,0.976951 -0.302638,0.108869 -1.060124,0.144968 -1.430132,0.06815 -0.457626,-0.095 -0.848502,-0.317995 -1.573312,-0.897565 -0.79945,-0.63925 -1.378796,-0.957851 -1.737136,-0.955303 -0.315338,0.0022 -0.619424,0.202901 -0.802864,0.52979 -0.117744,0.209819 -0.132292,0.296845 -0.132292,0.791369 0,0.528897 0.0092,0.574831 0.190692,0.95491 0.10488,0.219608 0.345932,0.636327 0.53567,0.926042 0.560808,0.856317 0.736362,1.29798 0.742452,1.867885 0.006,0.558424 -0.210436,0.94204 -1.124072,1.992621 -0.47964,0.551533 -0.55648,0.708732 -0.556118,1.137708 4e-4,0.490865 0.150556,0.756362 1.062344,1.878542 0.425658,0.523875 0.84776,1.054094 0.938006,1.178264 0.168748,0.232183 0.180072,0.237526 0.85686,0.404262 0.667042,0.164336 0.827504,0.179005 2.01839,0.184515 1.183274,0.0055 1.248506,2.6e-4 1.931232,-0.154747 z"
       id="path2042" />
  </g>
</svg>
