<?xml version="1.0" encoding="UTF-8" standalone="no"?>
<svg
   xmlns:dc="http://purl.org/dc/elements/1.1/"
   xmlns:cc="http://creativecommons.org/ns#"
   xmlns:rdf="http://www.w3.org/1999/02/22-rdf-syntax-ns#"
   xmlns:svg="http://www.w3.org/2000/svg"
   xmlns="http://www.w3.org/2000/svg"
   xmlns:sodipodi="http://sodipodi.sourceforge.net/DTD/sodipodi-0.dtd"
   xmlns:inkscape="http://www.inkscape.org/namespaces/inkscape"
   width="13.229167mm"
   height="13.229167mm"
   viewBox="0 0 13.229167 13.229167"
   version="1.1"
   id="svg8"
   sodipodi:docname="VCS_resized_33.svg"
   inkscape:version="1.0.2-2 (e86c870879, 2021-01-15)">
  <defs
     id="defs2" />
  <sodipodi:namedview
     id="base"
     pagecolor="#ffffff"
     bordercolor="#666666"
     borderopacity="1.0"
     inkscape:pageopacity="0.0"
     inkscape:pageshadow="2"
     inkscape:zoom="2.8284271"
     inkscape:cx="-0.40530628"
     inkscape:cy="72.681417"
     inkscape:document-units="mm"
     inkscape:current-layer="layer1"
     inkscape:document-rotation="0"
     showgrid="false"
     inkscape:window-width="958"
     inkscape:window-height="1008"
     inkscape:window-x="1913"
     inkscape:window-y="0"
     inkscape:window-maximized="0" />
  <metadata
     id="metadata5">
    <rdf:RDF>
      <cc:Work
         rdf:about="">
        <dc:format>image/svg+xml</dc:format>
        <dc:type
           rdf:resource="http://purl.org/dc/dcmitype/StillImage" />
        <dc:title></dc:title>
      </cc:Work>
    </rdf:RDF>
  </metadata>
  <g
     inkscape:label="Ebene 1"
     inkscape:groupmode="layer"
     id="layer1"
     transform="translate(-38.307224,-7.361321)">
    <path
       style="fill:#000000;stroke-width:0.264582"
       d="m 41.668562,18.876888 c -0.08001,-0.04553 -0.21076,-0.207055 -0.290552,-0.358936 -0.125124,-0.238163 -0.144352,-0.334378 -0.139792,-0.699481 0.0067,-0.537143 0.12835,-0.883309 0.523308,-1.489227 0.673138,-1.032688 0.804228,-1.650431 0.483186,-2.27696 -0.154446,-0.301407 -0.433578,-0.577088 -1.224428,-1.209284 -0.70503,-0.563594 -0.937878,-0.810136 -1.116036,-1.181681 -0.390644,-0.814676 -0.0131,-1.385506 0.91418,-1.382179 0.57883,0.0021 1.118152,0.177241 1.633786,0.530634 0.716888,0.491321 1.565796,0.77397 2.049202,0.682294 0.453084,-0.08593 0.78124,-0.365188 1.402936,-1.193904 0.728206,-0.9706921 1.322592,-1.3455211 2.026424,-1.2778921 0.144986,0.01393 0.307054,0.06693 0.364976,0.119348 0.174168,0.157618 0.318074,0.626204 0.318074,1.0357001 0,0.492758 -0.125402,0.830068 -0.576714,1.551264 -0.42763,0.683351 -0.57849,1.044946 -0.62235,1.491705 -0.05844,0.595294 0.241712,1.017165 1.278438,1.796869 0.711684,0.535244 1.032816,0.861209 1.223856,1.242272 0.1652,0.32952 0.226774,0.816222 0.126876,1.002883 -0.03477,0.06496 -0.221814,0.192329 -0.415662,0.283042 -0.313838,0.146863 -0.398862,0.163643 -0.776052,0.15316 -0.498264,-0.01385 -0.774754,-0.09669 -1.455476,-0.436081 -0.589854,-0.294089 -0.887658,-0.392919 -1.42875,-0.474149 -0.357778,-0.05371 -0.427674,-0.04881 -0.709532,0.04978 -0.416658,0.145732 -0.807652,0.456652 -1.316874,1.047191 -0.420618,0.487784 -0.826066,0.835931 -1.118542,0.960461 -0.25748,0.109629 -0.98348,0.130492 -1.154482,0.03317 z m 1.1782,-0.344476 c 0.124312,-0.06342 0.395242,-0.297302 0.602064,-0.519739 0.781718,-0.840731 1.06696,-1.094807 1.46322,-1.303344 0.347902,-0.183087 0.435108,-0.206973 0.738446,-0.202263 0.508606,0.0079 1.160372,0.194991 1.905,0.546843 0.363802,0.171904 0.792428,0.337907 0.9525,0.368896 0.385124,0.07456 0.900016,-0.01679 1.115196,-0.197857 0.132744,-0.111696 0.154804,-0.167596 0.154804,-0.392247 0,-0.508049 -0.297484,-0.890234 -1.269684,-1.631196 -0.94463,-0.719949 -1.37431,-1.267632 -1.375632,-1.753423 -0.0014,-0.489549 0.2816,-1.246609 0.688868,-1.843258 0.383676,-0.562085 0.52761,-0.936312 0.527656,-1.371897 7.2e-5,-0.6561511 -0.186896,-0.9075811 -0.67489,-0.9075811 -0.5376,0 -0.88466,0.254814 -1.593316,1.1698231 -0.542734,0.700775 -0.85462,0.995295 -1.254102,1.18428 -0.337708,0.159763 -0.51577,0.165044 -1.040426,0.03086 -0.41844,-0.107019 -0.858242,-0.310283 -1.52264,-0.703719 -0.574912,-0.340445 -0.966164,-0.474906 -1.36664,-0.469671 -0.561926,0.0073 -0.85586,0.213795 -0.85586,0.601127 0,0.43803 0.396756,0.945183 1.243542,1.589558 0.626582,0.476806 1.0459,0.924297 1.244916,1.328554 0.160524,0.326072 0.170448,0.377201 0.142372,0.733492 -0.03613,0.458549 -0.22977,0.954277 -0.594,1.520696 -0.42207,0.656368 -0.56899,1.027705 -0.575758,1.455209 -0.01078,0.680973 0.244458,0.953373 0.84728,0.904252 0.149082,-0.01215 0.37277,-0.07398 0.497084,-0.137395 z"
       id="path520" />
  </g>
</svg>
