<?xml version="1.0" encoding="UTF-8" standalone="no"?>
<svg
   xmlns:dc="http://purl.org/dc/elements/1.1/"
   xmlns:cc="http://creativecommons.org/ns#"
   xmlns:rdf="http://www.w3.org/1999/02/22-rdf-syntax-ns#"
   xmlns:svg="http://www.w3.org/2000/svg"
   xmlns="http://www.w3.org/2000/svg"
   xmlns:sodipodi="http://sodipodi.sourceforge.net/DTD/sodipodi-0.dtd"
   xmlns:inkscape="http://www.inkscape.org/namespaces/inkscape"
   width="13.229167mm"
   height="13.229167mm"
   viewBox="0 0 13.229169 13.229168"
   version="1.1"
   id="svg8"
   sodipodi:docname="VCS_resized_276.svg"
   inkscape:version="1.0.2-2 (e86c870879, 2021-01-15)">
  <defs
     id="defs2" />
  <sodipodi:namedview
     id="base"
     pagecolor="#ffffff"
     bordercolor="#666666"
     borderopacity="1.0"
     inkscape:pageopacity="0.0"
     inkscape:pageshadow="2"
     inkscape:zoom="4"
     inkscape:cx="0.86047276"
     inkscape:cy="39.576096"
     inkscape:document-units="mm"
     inkscape:current-layer="layer1"
     inkscape:document-rotation="0"
     showgrid="false"
     inkscape:window-width="958"
     inkscape:window-height="1008"
     inkscape:window-x="1913"
     inkscape:window-y="0"
     inkscape:window-maximized="0" />
  <metadata
     id="metadata5">
    <rdf:RDF>
      <cc:Work
         rdf:about="">
        <dc:format>image/svg+xml</dc:format>
        <dc:type
           rdf:resource="http://purl.org/dc/dcmitype/StillImage" />
        <dc:title></dc:title>
      </cc:Work>
    </rdf:RDF>
  </metadata>
  <g
     inkscape:label="Ebene 1"
     inkscape:groupmode="layer"
     id="layer1"
     transform="translate(-85.463753,15.392121)">
    <path
       style="fill:#000000;stroke-width:0.264582"
       d="m 88.654548,-2.7372405 c -0.01582,-0.1236928 -0.0653,-1.0107084 -0.109964,-1.971146 -0.04466,-0.9604374 -0.09497,-1.8444908 -0.111798,-1.964563 -0.02641,-0.1884516 -0.135804,-0.336832 -0.79979,-1.0847916 -0.42306,-0.4765632 -1.069692,-1.1948864 -1.436958,-1.5962736 -0.367268,-0.4013872 -0.667758,-0.7691973 -0.667758,-0.8173563 0,-0.08916 0.15163,-0.128381 3.236438,-0.837198 0.470352,-0.108076 0.8794,-0.211466 0.908994,-0.229756 0.04529,-0.02799 1.506306,-2.473525 2.064228,-3.455231 0.179096,-0.315133 0.342814,-0.422606 0.455982,-0.299332 0.03615,0.03937 0.431092,0.702616 0.877662,1.473876 1.155146,1.99503 1.311126,2.243081 1.441904,2.293021 0.06405,0.02446 0.914178,0.230155 1.889166,0.457103 0.97499,0.226946 1.873912,0.440116 1.997604,0.47371 0.213616,0.05802 0.29172,0.168205 0.171774,0.242336 -0.02922,0.01806 -0.54664,0.5969161 -1.149826,1.2863521 -0.603186,0.689436 -1.242398,1.4094466 -1.420474,1.6000228 l -0.323774,0.3465024 -0.06442,1.1087058 c -0.03543,0.6097884 -0.08659,1.4301746 -0.113686,1.8230808 -0.0271,0.3929062 -0.04936,0.8632032 -0.04948,1.0451042 l -2e-4,0.3307292 h -3.38344 -3.383424 z m 6.57605,-1.0847918 c 0.03444,-0.5748072 0.09049,-1.5094478 0.124566,-2.0769792 l 0.06195,-1.031875 0.506,-0.5562774 c 0.687852,-0.7561972 2.195698,-2.4827654 2.2148,-2.5360681 0.0229,-0.06391 -0.04578,-0.08345 -1.409124,-0.40072 -2.176698,-0.506555 -2.414972,-0.565669 -2.474884,-0.614002 -0.06853,-0.05529 -1.08882,-1.758784 -1.920216,-3.206032 -0.120384,-0.209559 -0.238492,-0.393138 -0.262464,-0.407953 -0.02397,-0.01481 -0.09936,0.0733 -0.167524,0.195808 -0.552744,0.993385 -1.961226,3.361935 -2.036216,3.424172 -0.03342,0.02773 -0.914404,0.24785 -1.957746,0.489148 -1.043344,0.241297 -1.90481,0.462188 -1.91437,0.490868 -0.0096,0.02868 0.381496,0.4944755 0.869014,1.0350995 0.48752,0.5406238 1.093446,1.220814 1.346508,1.5115334 l 0.460108,0.528581 0.0547,0.790213 c 0.11964,1.7285256 0.162936,2.5024758 0.162868,2.9112892 -4.2e-5,0.235259 0.0158,0.4436184 0.0352,0.4630208 0.0194,0.019402 1.432288,0.035278 3.139744,0.035278 h 3.104468 z"
       id="path5331" />
  </g>
</svg>
