<?xml version="1.0" encoding="UTF-8" standalone="no"?>
<svg
   xmlns:dc="http://purl.org/dc/elements/1.1/"
   xmlns:cc="http://creativecommons.org/ns#"
   xmlns:rdf="http://www.w3.org/1999/02/22-rdf-syntax-ns#"
   xmlns:svg="http://www.w3.org/2000/svg"
   xmlns="http://www.w3.org/2000/svg"
   xmlns:sodipodi="http://sodipodi.sourceforge.net/DTD/sodipodi-0.dtd"
   xmlns:inkscape="http://www.inkscape.org/namespaces/inkscape"
   width="13.229167mm"
   height="13.229167mm"
   viewBox="0 0 13.229169 13.229168"
   version="1.1"
   id="svg8"
   sodipodi:docname="VCS_resized_144.svg"
   inkscape:version="1.0.2-2 (e86c870879, 2021-01-15)">
  <defs
     id="defs2" />
  <sodipodi:namedview
     id="base"
     pagecolor="#ffffff"
     bordercolor="#666666"
     borderopacity="1.0"
     inkscape:pageopacity="0.0"
     inkscape:pageshadow="2"
     inkscape:zoom="2.8284271"
     inkscape:cx="2.54338"
     inkscape:cy="55.398214"
     inkscape:document-units="mm"
     inkscape:current-layer="layer1"
     inkscape:document-rotation="0"
     showgrid="false"
     inkscape:window-width="958"
     inkscape:window-height="1008"
     inkscape:window-x="1913"
     inkscape:window-y="0"
     inkscape:window-maximized="0" />
  <metadata
     id="metadata5">
    <rdf:RDF>
      <cc:Work
         rdf:about="">
        <dc:format>image/svg+xml</dc:format>
        <dc:type
           rdf:resource="http://purl.org/dc/dcmitype/StillImage" />
        <dc:title></dc:title>
      </cc:Work>
    </rdf:RDF>
  </metadata>
  <g
     inkscape:label="Ebene 1"
     inkscape:groupmode="layer"
     id="layer1"
     transform="translate(-37.527046,-11.934168)">
    <path
       style="fill:#000000;stroke-width:0.264582"
       d="m 42.065758,24.647995 c -0.34925,-0.04241 -0.670434,-0.0953 -0.713742,-0.117525 -0.04331,-0.02223 -0.436214,-0.568275 -0.873124,-1.213435 -0.436912,-0.645161 -0.930336,-1.369027 -1.096498,-1.608591 -0.404116,-0.582634 -0.559602,-0.942504 -0.62854,-1.454754 -0.10003,-0.74329 -0.0021,-0.999737 0.756752,-1.980867 0.36699,-0.474512 0.520394,-0.806583 0.556486,-1.204629 0.03781,-0.416931 -0.07962,-0.783611 -0.531252,-1.658885 l -0.377002,-0.730646 -0.02093,-0.521017 c -0.01562,-0.389159 0.0012,-0.585921 0.06619,-0.777479 0.198108,-0.583236 0.622162,-0.972615 1.100328,-1.010352 0.256014,-0.0202 0.333482,0.0045 0.915984,0.292476 0.349976,0.173002 0.9691,0.429669 1.375834,0.570371 l 0.739516,0.255823 0.9525,0.0028 c 0.93061,0.0027 0.965268,-0.0012 1.508124,-0.169966 0.305594,-0.09503 0.674688,-0.247532 0.820208,-0.338889 0.985856,-0.618915 1.26958,-0.711306 1.690592,-0.55052 0.69476,0.265331 1.059632,1.312845 0.77865,2.23543 -0.06053,0.198741 -0.182844,0.47586 -0.271814,0.615821 -0.61217,0.963026 -0.731842,1.621953 -0.424706,2.338471 0.05813,0.135622 0.272394,0.46198 0.476132,0.725237 0.203738,0.263258 0.444398,0.628893 0.534798,0.812522 0.14425,0.293015 0.164018,0.386521 0.161542,0.764108 -0.0031,0.466504 -0.10409,0.889665 -0.302668,1.26772 -0.281648,0.536199 -2.11723,3.205531 -2.24565,3.265657 -0.549012,0.257046 -3.474214,0.37003 -4.947708,0.191101 z m 3.950666,-0.258345 c 0.359196,-0.04658 0.70531,-0.112059 0.769142,-0.145521 0.121494,-0.06369 1.90434,-2.664963 2.219636,-3.238578 0.230798,-0.419883 0.311504,-0.876126 0.227754,-1.287534 -0.0803,-0.394451 -0.240346,-0.705196 -0.635792,-1.234429 -0.180264,-0.241248 -0.396008,-0.581508 -0.479432,-0.756133 -0.13434,-0.281198 -0.151586,-0.374978 -0.150834,-0.820208 8e-4,-0.444875 0.02084,-0.552001 0.174642,-0.931174 0.09559,-0.235656 0.284546,-0.606158 0.419908,-0.823337 0.276334,-0.44336 0.354076,-0.70793 0.355208,-1.208823 0.0014,-0.595946 -0.31695,-1.089181 -0.784036,-1.214955 -0.259122,-0.06977 -0.368836,-0.03458 -1.19853,0.384456 -0.988018,0.499001 -1.457266,0.628234 -2.392172,0.658812 -1.050304,0.03435 -1.635358,-0.100096 -3.104584,-0.713444 -0.381972,-0.159458 -0.769164,-0.314447 -0.860428,-0.34442 -0.395678,-0.129947 -0.85984,0.152983 -1.076242,0.656026 -0.09808,0.227994 -0.113912,0.346212 -0.09737,0.727161 0.01928,0.444111 0.02935,0.47437 0.424484,1.275114 0.41737,0.845812 0.528398,1.210229 0.53076,1.742063 0.0018,0.393636 -0.158372,0.734985 -0.672172,1.432937 -0.478906,0.650554 -0.521528,0.727717 -0.610148,1.104584 -0.148876,0.633125 0.02549,1.13908 0.74662,2.166406 0.19788,0.281904 0.634988,0.919923 0.97135,1.417821 0.336364,0.497897 0.655828,0.945323 0.709924,0.994279 0.15979,0.144608 1.064472,0.229352 2.52794,0.236801 0.948364,0.0048 1.519142,-0.01758 1.984376,-0.0779 z"
       id="path2348" />
  </g>
</svg>
