<?xml version="1.0" encoding="UTF-8" standalone="no"?>
<svg
   xmlns:dc="http://purl.org/dc/elements/1.1/"
   xmlns:cc="http://creativecommons.org/ns#"
   xmlns:rdf="http://www.w3.org/1999/02/22-rdf-syntax-ns#"
   xmlns:svg="http://www.w3.org/2000/svg"
   xmlns="http://www.w3.org/2000/svg"
   xmlns:sodipodi="http://sodipodi.sourceforge.net/DTD/sodipodi-0.dtd"
   xmlns:inkscape="http://www.inkscape.org/namespaces/inkscape"
   width="13.229167mm"
   height="13.229167mm"
   viewBox="0 0 13.229169 13.229168"
   version="1.1"
   id="svg8"
   sodipodi:docname="VCS_resized_178.svg"
   inkscape:version="1.0.2-2 (e86c870879, 2021-01-15)">
  <defs
     id="defs2" />
  <sodipodi:namedview
     id="base"
     pagecolor="#ffffff"
     bordercolor="#666666"
     borderopacity="1.0"
     inkscape:pageopacity="0.0"
     inkscape:pageshadow="2"
     inkscape:zoom="2.8284271"
     inkscape:cx="-16.458738"
     inkscape:cy="50.571476"
     inkscape:document-units="mm"
     inkscape:current-layer="layer1"
     inkscape:document-rotation="0"
     showgrid="false"
     inkscape:window-width="958"
     inkscape:window-height="1008"
     inkscape:window-x="1913"
     inkscape:window-y="0"
     inkscape:window-maximized="0" />
  <metadata
     id="metadata5">
    <rdf:RDF>
      <cc:Work
         rdf:about="">
        <dc:format>image/svg+xml</dc:format>
        <dc:type
           rdf:resource="http://purl.org/dc/dcmitype/StillImage" />
        <dc:title></dc:title>
      </cc:Work>
    </rdf:RDF>
  </metadata>
  <g
     inkscape:label="Ebene 1"
     inkscape:groupmode="layer"
     id="layer1"
     transform="translate(-42.554687,-13.211243)">
    <path
       style="fill:#000000;stroke-width:0.264582"
       d="M 45.943816,25.691435 C 45.881806,25.647995 45.671578,25.30867 45.476654,24.937373 45.28173,24.566075 44.871148,23.824262 44.564252,23.2889 43.828664,22.005711 43.73961,21.751962 43.735878,20.928536 c -0.0028,-0.610737 0.0045,-0.653196 0.189454,-1.11125 0.261878,-0.648457 0.316462,-0.876198 0.322326,-1.344873 0.004,-0.318412 -0.02562,-0.483411 -0.14324,-0.798252 -0.361142,-0.966709 -0.403032,-1.118528 -0.414526,-1.50235 -0.01162,-0.388088 -0.0109,-0.390309 0.229348,-0.700257 0.62597,-0.807589 1.55276,-1.289664 2.480238,-1.290112 0.249564,-1.22e-4 0.882378,-0.06068 1.406254,-0.134578 1.614434,-0.22773 1.79944,-0.22517 2.804582,0.03881 0.311846,0.0819 0.667212,0.120242 1.349376,0.145595 0.826964,0.03073 0.951518,0.0476 1.164166,0.157623 0.595492,0.308109 1.31041,0.946182 1.459244,1.302393 0.138316,0.331036 0.06719,0.864518 -0.191942,1.43962 -0.399898,0.887515 -0.3967,1.560795 0.01214,2.554093 0.22335,0.542652 0.228616,0.569215 0.22559,1.137708 -0.0038,0.707934 -0.136572,1.147604 -0.5914,1.957917 -0.16336,0.291041 -0.391038,0.695854 -0.505948,0.899583 -0.114912,0.203729 -0.326622,0.596635 -0.470466,0.873125 -0.143844,0.27649 -0.346362,0.64824 -0.450042,0.826112 l -0.188506,0.323403 -0.429852,0.03347 c -0.23642,0.01841 -1.668758,0.03361 -3.182976,0.03378 -2.355754,2.6e-4 -2.769394,-0.01108 -2.865876,-0.07866 z m 6.247532,-0.256082 c 0.06177,-0.04058 0.333184,-0.48781 0.603156,-0.993842 0.26997,-0.506032 0.645026,-1.193309 0.833458,-1.527282 0.456618,-0.809305 0.651936,-1.294102 0.725942,-1.801869 0.06836,-0.468989 0.05412,-0.53613 -0.358494,-1.691048 -0.1927,-0.539367 -0.197324,-0.569402 -0.167048,-1.084792 0.03049,-0.519 0.09559,-0.769084 0.404098,-1.552441 0.06099,-0.154848 0.125608,-0.422441 0.143608,-0.594652 0.02928,-0.28016 0.01794,-0.335446 -0.10773,-0.525353 -0.177228,-0.267812 -0.871312,-0.823903 -1.239726,-0.993254 -0.243344,-0.11186 -0.379882,-0.132235 -1.031876,-0.153988 -0.564918,-0.01885 -0.915596,-0.06237 -1.41288,-0.175358 -1.03382,-0.234893 -1.238576,-0.239343 -2.582428,-0.05613 -0.649074,0.08849 -1.32868,0.160897 -1.510236,0.160897 -0.718898,0 -1.394564,0.284432 -1.998994,0.841506 -0.52914,0.487685 -0.604294,0.645003 -0.525174,1.099343 0.03297,0.18934 0.153176,0.575482 0.267118,0.858092 0.37188,0.922375 0.388538,1.620668 0.05848,2.451532 -0.214488,0.539942 -0.287404,0.962474 -0.261088,1.512925 0.02007,0.419864 0.04637,0.519516 0.247874,0.939466 0.123978,0.258379 0.386708,0.744295 0.583844,1.079812 0.197136,0.335518 0.520862,0.907688 0.719392,1.27149 0.198532,0.363802 0.400196,0.732896 0.448146,0.820209 l 0.08718,0.15875 0.63221,0.03323 c 0.347716,0.01828 1.688958,0.02498 2.980538,0.01488 1.89587,-0.01482 2.369962,-0.03257 2.460624,-0.09214 z"
       id="path2908" />
  </g>
</svg>
