<?xml version="1.0" encoding="UTF-8" standalone="no"?>
<svg
   xmlns:dc="http://purl.org/dc/elements/1.1/"
   xmlns:cc="http://creativecommons.org/ns#"
   xmlns:rdf="http://www.w3.org/1999/02/22-rdf-syntax-ns#"
   xmlns:svg="http://www.w3.org/2000/svg"
   xmlns="http://www.w3.org/2000/svg"
   xmlns:sodipodi="http://sodipodi.sourceforge.net/DTD/sodipodi-0.dtd"
   xmlns:inkscape="http://www.inkscape.org/namespaces/inkscape"
   width="13.229167mm"
   height="13.229167mm"
   viewBox="0 0 13.229169 13.229168"
   version="1.1"
   id="svg8"
   sodipodi:docname="VCS_resized_224.svg"
   inkscape:version="1.0.2-2 (e86c870879, 2021-01-15)">
  <defs
     id="defs2" />
  <sodipodi:namedview
     id="base"
     pagecolor="#ffffff"
     bordercolor="#666666"
     borderopacity="1.0"
     inkscape:pageopacity="0.0"
     inkscape:pageshadow="2"
     inkscape:zoom="2.8284271"
     inkscape:cx="9.2703376"
     inkscape:cy="29.487487"
     inkscape:document-units="mm"
     inkscape:current-layer="layer1"
     inkscape:document-rotation="0"
     showgrid="false"
     inkscape:window-width="958"
     inkscape:window-height="1008"
     inkscape:window-x="1913"
     inkscape:window-y="0"
     inkscape:window-maximized="0" />
  <metadata
     id="metadata5">
    <rdf:RDF>
      <cc:Work
         rdf:about="">
        <dc:format>image/svg+xml</dc:format>
        <dc:type
           rdf:resource="http://purl.org/dc/dcmitype/StillImage" />
        <dc:title></dc:title>
      </cc:Work>
    </rdf:RDF>
  </metadata>
  <g
     inkscape:label="Ebene 1"
     inkscape:groupmode="layer"
     id="layer1"
     transform="translate(-46.110584,-22.878605)">
    <path
       style="fill:#000000;stroke-width:0.264582"
       d="m 48.737832,35.618292 c -0.0419,-0.06549 -0.115922,-0.28575 -0.164504,-0.489479 -0.0929,-0.389573 -0.223438,-0.847789 -0.42965,-1.508125 -0.274198,-0.878042 -0.442722,-1.517051 -0.443034,-1.679894 -1.8e-4,-0.09447 -0.04688,-0.308785 -0.10378,-0.47625 -0.0569,-0.167465 -0.210568,-0.673575 -0.341488,-1.12469 -0.13092,-0.451114 -0.3451,-1.075535 -0.475956,-1.387602 -0.238364,-0.568453 -0.454936,-1.224439 -0.454936,-1.37797 0,-0.101284 0.111942,-0.165997 1.852082,-1.070674 1.529788,-0.795317 1.92219,-1.058885 3.148542,-2.114809 1.174244,-1.011057 1.334752,-1.139778 1.42124,-1.139778 0.04479,0 0.419156,0.291703 0.831918,0.648229 1.903062,1.643783 2.031196,1.731169 4.14976,2.830078 1.466988,0.760934 1.419854,0.72797 1.387348,0.97033 -0.01444,0.107648 -0.144884,0.490195 -0.289878,0.850106 -0.266006,0.660291 -0.502768,1.380384 -0.693622,2.10959 -0.05713,0.218282 -0.176612,0.658813 -0.265516,0.978959 -0.0889,0.320145 -0.243752,0.879739 -0.344106,1.243541 -0.100356,0.363802 -0.303472,1.073748 -0.451366,1.577656 -0.147898,0.503909 -0.268902,0.950394 -0.268902,0.992188 0,0.04179 -0.04763,0.123615 -0.105834,0.181823 -0.103912,0.103913 -0.176388,0.105833 -3.993988,0.105833 h -3.888156 z m 8.01888,-1.045104 c 0.451812,-1.525798 0.636176,-2.182479 0.757682,-2.69875 0.28953,-1.230196 0.713864,-2.595597 1.080666,-3.477314 0.08733,-0.209929 0.182254,-0.466691 0.21094,-0.570582 0.05022,-0.181865 0.04491,-0.193403 -0.142492,-0.310092 -0.107058,-0.06666 -0.812912,-0.436203 -1.568566,-0.821205 -1.544248,-0.786788 -1.88781,-1.020486 -3.287828,-2.236446 -0.481262,-0.417993 -0.931572,-0.781946 -1.000686,-0.808785 -0.10791,-0.0419 -0.16804,-0.012 -0.425602,0.211667 -2.142058,1.860154 -2.30149,1.971994 -4.145388,2.90795 -1.411184,0.716313 -1.568618,0.80925 -1.583296,0.934663 -0.0092,0.07866 0.11471,0.469401 0.284764,0.897931 0.165586,0.417269 0.347034,0.88964 0.403218,1.049713 0.18823,0.536272 0.613812,2.087294 0.646126,2.354791 0.01758,0.145521 0.117384,0.538427 0.221788,0.873125 0.215106,0.689593 0.656446,2.224394 0.656446,2.282853 0,0.02123 0.02328,0.09983 0.05174,0.17468 l 0.05174,0.13609 3.7651,-0.01358 3.7651,-0.01358 z"
       id="path4483" />
  </g>
</svg>
