<?xml version="1.0" encoding="UTF-8" standalone="no"?>
<svg
   xmlns:dc="http://purl.org/dc/elements/1.1/"
   xmlns:cc="http://creativecommons.org/ns#"
   xmlns:rdf="http://www.w3.org/1999/02/22-rdf-syntax-ns#"
   xmlns:svg="http://www.w3.org/2000/svg"
   xmlns="http://www.w3.org/2000/svg"
   xmlns:sodipodi="http://sodipodi.sourceforge.net/DTD/sodipodi-0.dtd"
   xmlns:inkscape="http://www.inkscape.org/namespaces/inkscape"
   width="13.229167mm"
   height="13.229167mm"
   viewBox="0 0 13.229169 13.229168"
   version="1.1"
   id="svg8"
   sodipodi:docname="VCS_resized_283.svg"
   inkscape:version="1.0.2-2 (e86c870879, 2021-01-15)">
  <defs
     id="defs2" />
  <sodipodi:namedview
     id="base"
     pagecolor="#ffffff"
     bordercolor="#666666"
     borderopacity="1.0"
     inkscape:pageopacity="0.0"
     inkscape:pageshadow="2"
     inkscape:zoom="4"
     inkscape:cx="16.55838"
     inkscape:cy="42.854682"
     inkscape:document-units="mm"
     inkscape:current-layer="layer1"
     inkscape:document-rotation="0"
     showgrid="false"
     inkscape:window-width="958"
     inkscape:window-height="1008"
     inkscape:window-x="1913"
     inkscape:window-y="0"
     inkscape:window-maximized="0" />
  <metadata
     id="metadata5">
    <rdf:RDF>
      <cc:Work
         rdf:about="">
        <dc:format>image/svg+xml</dc:format>
        <dc:type
           rdf:resource="http://purl.org/dc/dcmitype/StillImage" />
        <dc:title></dc:title>
      </cc:Work>
    </rdf:RDF>
  </metadata>
  <g
     inkscape:label="Ebene 1"
     inkscape:groupmode="layer"
     id="layer1"
     transform="translate(-82.722725,14.455409)">
    <path
       style="fill:#000000;stroke-width:0.264582"
       d="m 86.245128,-1.692646 c -0.03763,-0.060891 -0.109302,-0.939084 -0.223006,-2.7325754 l -0.09393,-1.4816666 -1.5867,-1.6014404 c -0.983586,-0.992723 -1.567862,-1.6201892 -1.53714,-1.6507666 0.02726,-0.02713 0.597248,-0.168174 1.266644,-0.3134308 0.669396,-0.1452572 1.61576,-0.352508 2.10303,-0.460557 l 0.885948,-0.1964522 0.126808,-0.21701 c 0.06974,-0.119355 0.39979,-0.717072 0.733438,-1.32826 1.41354,-2.589373 1.270794,-2.35537 1.435692,-2.353546 0.116234,0.0013 0.0704,-0.07748 1.769514,3.0408 l 0.460978,0.846005 1.851462,0.4060408 c 2.362622,0.5181426 2.433546,0.535876 2.433546,0.6084724 0,0.033378 -0.705896,0.7853696 -1.568656,1.6710914 L 92.7341,-5.845538 92.70134,-5.3470466 c -0.04152,0.6318186 -0.184394,2.6888568 -0.226656,3.2633878 l -0.03211,0.4365624 h -3.084642 c -1.696554,0 -3.09731,-0.020497 -3.112794,-0.04555 z m 5.966788,-0.5762212 c 0.01754,-0.196453 0.08434,-1.1072812 0.148456,-2.0240624 l 0.116568,-1.666875 1.43265,-1.470804 c 1.24167,-1.274736 1.55251,-1.624821 1.442676,-1.624821 -0.0133,0 -0.88854,-0.1895386 -1.94496,-0.421196 -1.373482,-0.3011848 -1.946348,-0.448191 -2.010548,-0.5159376 -0.04938,-0.052108 -0.185944,-0.2733348 -0.303476,-0.4916168 -1.00386,-1.864396 -1.70201,-3.095625 -1.755328,-3.095625 -0.06267,0 -0.310394,0.430148 -1.45806,2.531747 -0.315392,0.577544 -0.622762,1.0808758 -0.683046,1.1185148 -0.06028,0.037639 -0.681106,0.1916532 -1.379606,0.3422528 -1.957706,0.422091 -2.48335,0.5403338 -2.530776,0.569294 -0.02403,0.014674 0.611462,0.6867816 1.412208,1.4935718 0.878278,0.8849074 1.466188,1.5177696 1.481824,1.5951306 0.0234,0.1157658 0.139148,1.691359 0.246554,3.356156 0.02253,0.34925 0.04337,0.6409532 0.04631,0.6482292 0.0029,0.00728 1.288138,0.01323 2.856002,0.01323 h 2.850664 z"
       id="path5443" />
  </g>
</svg>
