<?xml version="1.0" encoding="UTF-8" standalone="no"?>
<svg
   xmlns:dc="http://purl.org/dc/elements/1.1/"
   xmlns:cc="http://creativecommons.org/ns#"
   xmlns:rdf="http://www.w3.org/1999/02/22-rdf-syntax-ns#"
   xmlns:svg="http://www.w3.org/2000/svg"
   xmlns="http://www.w3.org/2000/svg"
   xmlns:sodipodi="http://sodipodi.sourceforge.net/DTD/sodipodi-0.dtd"
   xmlns:inkscape="http://www.inkscape.org/namespaces/inkscape"
   width="13.229167mm"
   height="13.229167mm"
   viewBox="0 0 13.229167 13.229167"
   version="1.1"
   id="svg8"
   sodipodi:docname="VCS_resized_20.svg"
   inkscape:version="1.0.2-2 (e86c870879, 2021-01-15)">
  <defs
     id="defs2" />
  <sodipodi:namedview
     id="base"
     pagecolor="#ffffff"
     bordercolor="#666666"
     borderopacity="1.0"
     inkscape:pageopacity="0.0"
     inkscape:pageshadow="2"
     inkscape:zoom="2.8284271"
     inkscape:cx="16.07172"
     inkscape:cy="43.439076"
     inkscape:document-units="mm"
     inkscape:current-layer="layer1"
     inkscape:document-rotation="0"
     showgrid="false"
     inkscape:window-width="958"
     inkscape:window-height="1008"
     inkscape:window-x="1913"
     inkscape:window-y="0"
     inkscape:window-maximized="0" />
  <metadata
     id="metadata5">
    <rdf:RDF>
      <cc:Work
         rdf:about="">
        <dc:format>image/svg+xml</dc:format>
        <dc:type
           rdf:resource="http://purl.org/dc/dcmitype/StillImage" />
        <dc:title></dc:title>
      </cc:Work>
    </rdf:RDF>
  </metadata>
  <g
     inkscape:label="Ebene 1"
     inkscape:groupmode="layer"
     id="layer1"
     transform="translate(-33.947678,-15.098356)">
    <path
       style="fill:#000000;stroke-width:0.264582"
       d="m 38.034506,26.872944 c -0.06383,-0.02888 -0.182896,-0.186388 -0.264582,-0.350026 -0.13842,-0.277287 -0.148396,-0.34071 -0.146674,-0.932523 0.0018,-0.624131 0.0055,-0.643604 0.218266,-1.137708 0.358254,-0.832167 0.410336,-1.033536 0.41272,-1.595783 0.0021,-0.484361 -0.0061,-0.522833 -0.157258,-0.738214 -0.173508,-0.247292 -0.740088,-0.688753 -1.51591,-1.181149 -0.64781,-0.411149 -1.21989,-0.988815 -1.341326,-1.354424 -0.120502,-0.362794 -0.04898,-0.542345 0.272738,-0.684654 0.627626,-0.277629 1.29673,-0.240677 2.399964,0.132541 0.787376,0.266366 1.32329,0.3946 1.649108,0.3946 0.479118,0 0.855236,-0.318017 1.464032,-1.237874 0.547706,-0.827554 0.931416,-1.228611 1.392774,-1.455736 0.46213,-0.227507 0.688248,-0.260241 0.820094,-0.118721 0.203476,0.218406 0.30917,0.631742 0.306436,1.198372 -0.0024,0.502764 -0.01472,0.559531 -0.246242,1.137709 -0.30932,0.772435 -0.41865,1.196561 -0.41865,1.624067 0,0.599443 0.21762,0.847454 1.488282,1.696119 0.94532,0.631372 1.469598,1.218568 1.558658,1.745707 0.02852,0.168782 0.014,0.221092 -0.08755,0.315643 -0.237808,0.221401 -0.557712,0.307329 -1.127148,0.302755 -0.485156,-0.0039 -0.590784,-0.02504 -1.27,-0.254162 -0.43108,-0.14542 -0.974548,-0.285439 -1.299804,-0.334883 l -0.558968,-0.08497 -0.29808,0.136465 c -0.389718,0.178419 -0.79362,0.599224 -1.283598,1.337321 -0.60278,0.908014 -0.963816,1.222404 -1.63955,1.427719 -0.145746,0.04428 -0.247814,0.04796 -0.32773,0.01181 z m 0.735106,-0.441312 c 0.266546,-0.137837 0.625068,-0.541625 1.065038,-1.19951 0.427246,-0.638861 0.94251,-1.176228 1.305332,-1.361325 0.413084,-0.21074 1.297206,-0.110165 2.384814,0.271287 0.598892,0.210047 0.70362,0.23089 1.160982,0.231051 0.833832,3.2e-4 1.05238,-0.171357 0.841706,-0.661083 -0.15136,-0.351846 -0.625826,-0.792103 -1.38842,-1.288316 -0.650722,-0.423419 -1.107784,-0.813934 -1.366124,-1.167218 -0.121898,-0.166699 -0.150912,-0.261401 -0.150912,-0.492572 0,-0.531628 0.114392,-1.041913 0.388992,-1.735217 0.263984,-0.666503 0.272466,-0.704389 0.272466,-1.217084 0,-0.437805 -0.01872,-0.561143 -0.108408,-0.714375 -0.134308,-0.22946 -0.340256,-0.263933 -0.679714,-0.113775 -0.367778,0.162687 -0.695866,0.505266 -1.198542,1.251484 -0.659086,0.978408 -1.156924,1.440922 -1.558754,1.448157 -0.451518,0.0081 -1.180248,-0.160646 -2.19604,-0.508604 -0.46867,-0.160541 -0.63016,-0.190981 -1.031876,-0.194504 -0.395268,-0.0035 -0.518186,0.01648 -0.722876,0.117298 -0.288638,0.142167 -0.328696,0.217359 -0.257214,0.48282 0.08197,0.304428 0.567554,0.747155 1.48939,1.357949 0.999828,0.662471 1.448588,1.105791 1.505842,1.487584 0.08184,0.545739 -0.0387,1.122686 -0.450336,2.155554 -0.277406,0.696057 -0.289334,1.467802 -0.02883,1.865381 0.07981,0.121799 0.112696,0.132367 0.322464,0.103615 0.128476,-0.01761 0.308934,-0.07098 0.40102,-0.118597 z"
       id="path312" />
  </g>
</svg>
