<?xml version="1.0" encoding="UTF-8" standalone="no"?>
<svg
   xmlns:dc="http://purl.org/dc/elements/1.1/"
   xmlns:cc="http://creativecommons.org/ns#"
   xmlns:rdf="http://www.w3.org/1999/02/22-rdf-syntax-ns#"
   xmlns:svg="http://www.w3.org/2000/svg"
   xmlns="http://www.w3.org/2000/svg"
   xmlns:sodipodi="http://sodipodi.sourceforge.net/DTD/sodipodi-0.dtd"
   xmlns:inkscape="http://www.inkscape.org/namespaces/inkscape"
   width="13.229167mm"
   height="13.229167mm"
   viewBox="0 0 13.229169 13.229168"
   version="1.1"
   id="svg8"
   sodipodi:docname="VCS_resized_183.svg"
   inkscape:version="1.0.2-2 (e86c870879, 2021-01-15)">
  <defs
     id="defs2" />
  <sodipodi:namedview
     id="base"
     pagecolor="#ffffff"
     bordercolor="#666666"
     borderopacity="1.0"
     inkscape:pageopacity="0.0"
     inkscape:pageshadow="2"
     inkscape:zoom="2.8284271"
     inkscape:cx="8.8018632"
     inkscape:cy="27.476961"
     inkscape:document-units="mm"
     inkscape:current-layer="layer1"
     inkscape:document-rotation="0"
     showgrid="false"
     inkscape:window-width="958"
     inkscape:window-height="1008"
     inkscape:window-x="1913"
     inkscape:window-y="0"
     inkscape:window-maximized="0" />
  <metadata
     id="metadata5">
    <rdf:RDF>
      <cc:Work
         rdf:about="">
        <dc:format>image/svg+xml</dc:format>
        <dc:type
           rdf:resource="http://purl.org/dc/dcmitype/StillImage" />
        <dc:title></dc:title>
      </cc:Work>
    </rdf:RDF>
  </metadata>
  <g
     inkscape:label="Ebene 1"
     inkscape:groupmode="layer"
     id="layer1"
     transform="translate(-46.234535,-23.410555)">
    <path
       style="fill:#000000;stroke-width:0.264582"
       d="m 49.544017,35.978908 c -0.05063,-0.0295 -0.26968,-0.403821 -0.486772,-0.831828 -0.21709,-0.428008 -0.56624,-1.075852 -0.775886,-1.439654 -0.721286,-1.251658 -0.864786,-1.666798 -0.859696,-2.487083 0.0025,-0.4075 0.03423,-0.602927 0.167406,-1.031875 0.322686,-1.039368 0.314858,-1.573964 -0.0351,-2.397705 -0.196108,-0.461595 -0.288728,-0.858842 -0.294482,-1.263029 -0.0053,-0.375482 0.02359,-0.416829 0.697514,-0.996811 0.64055,-0.551257 1.315564,-0.839823 2.287624,-0.977953 0.247384,-0.03515 0.957232,-0.170362 1.57744,-0.300463 l 1.127648,-0.236547 0.572766,0.136954 c 0.315022,0.07532 0.771986,0.205099 1.015476,0.288388 0.347472,0.118856 0.582464,0.15923 1.092348,0.187674 0.827302,0.04615 1.042614,0.11283 1.644276,0.509199 0.664258,0.437608 1.098978,0.866962 1.14928,1.13509 0.05597,0.298365 -0.04361,0.831035 -0.257104,1.375203 -0.350962,0.894567 -0.359358,1.457493 -0.0367,2.460625 0.08893,0.276489 0.175186,0.660075 0.191676,0.852412 0.05593,0.652443 -0.183894,1.433906 -0.745266,2.428421 -0.15607,0.27649 -0.512696,0.94324 -0.7925,1.481667 -0.279804,0.538427 -0.558572,1.02063 -0.619484,1.071562 -0.10285,0.086 -0.339628,0.09249 -3.319574,0.09099 -2.069002,-0.001 -3.241528,-0.02066 -3.300888,-0.05524 z m 6.39551,-0.245608 c 0.06318,-0.03623 0.300102,-0.429232 0.54231,-0.899583 0.236562,-0.459387 0.587892,-1.120999 0.780736,-1.470249 0.763176,-1.38215 0.904232,-2.053511 0.630028,-2.998611 -0.300742,-1.036561 -0.3038,-1.054098 -0.270628,-1.552222 0.03631,-0.54531 0.07885,-0.722581 0.325324,-1.355949 0.09768,-0.251 0.193588,-0.612464 0.213134,-0.803251 0.03379,-0.329843 0.02795,-0.356095 -0.118972,-0.534336 -0.294914,-0.357782 -1.148224,-0.950217 -1.556364,-1.080551 -0.09983,-0.03188 -0.47551,-0.08422 -0.834836,-0.116305 -0.493746,-0.04409 -0.815778,-0.109023 -1.318454,-0.265848 -1.218084,-0.380018 -1.345394,-0.385033 -2.627242,-0.103482 -0.404856,0.08892 -0.988262,0.198543 -1.29646,0.243598 -0.67981,0.09938 -1.331392,0.317124 -1.799106,0.60122 -0.432222,0.262538 -1.001772,0.766445 -1.070446,0.947073 -0.07799,0.205138 0.04165,0.802085 0.279256,1.393294 0.21702,0.539993 0.3141,1.082195 0.277662,1.550787 -0.01132,0.14552 -0.09687,0.538427 -0.19013,0.873125 -0.144554,0.518809 -0.169866,0.698273 -0.171664,1.217083 -0.002,0.59154 0.0034,0.620792 0.195802,1.047023 0.108852,0.241165 0.396464,0.788853 0.639138,1.217084 0.242676,0.42823 0.59138,1.064351 0.774898,1.413601 0.183518,0.34925 0.342724,0.645364 0.353788,0.658032 0.06926,0.07929 0.782688,0.09906 3.298986,0.09141 2.111982,-0.0064 2.85954,-0.02495 2.94324,-0.07294 z"
       id="path2988" />
  </g>
</svg>
