<?xml version="1.0" encoding="UTF-8" standalone="no"?>
<svg
   xmlns:dc="http://purl.org/dc/elements/1.1/"
   xmlns:cc="http://creativecommons.org/ns#"
   xmlns:rdf="http://www.w3.org/1999/02/22-rdf-syntax-ns#"
   xmlns:svg="http://www.w3.org/2000/svg"
   xmlns="http://www.w3.org/2000/svg"
   xmlns:sodipodi="http://sodipodi.sourceforge.net/DTD/sodipodi-0.dtd"
   xmlns:inkscape="http://www.inkscape.org/namespaces/inkscape"
   width="13.229167mm"
   height="13.229167mm"
   viewBox="0 0 13.229167 13.229167"
   version="1.1"
   id="svg8"
   sodipodi:docname="VCS_resized_59.svg"
   inkscape:version="1.0.2-2 (e86c870879, 2021-01-15)">
  <defs
     id="defs2" />
  <sodipodi:namedview
     id="base"
     pagecolor="#ffffff"
     bordercolor="#666666"
     borderopacity="1.0"
     inkscape:pageopacity="0.0"
     inkscape:pageshadow="2"
     inkscape:zoom="2.8284271"
     inkscape:cx="-3.280297"
     inkscape:cy="82.100465"
     inkscape:document-units="mm"
     inkscape:current-layer="layer1"
     inkscape:document-rotation="0"
     showgrid="false"
     inkscape:window-width="958"
     inkscape:window-height="1008"
     inkscape:window-x="1913"
     inkscape:window-y="0"
     inkscape:window-maximized="0" />
  <metadata
     id="metadata5">
    <rdf:RDF>
      <cc:Work
         rdf:about="">
        <dc:format>image/svg+xml</dc:format>
        <dc:type
           rdf:resource="http://purl.org/dc/dcmitype/StillImage" />
        <dc:title></dc:title>
      </cc:Work>
    </rdf:RDF>
  </metadata>
  <g
     inkscape:label="Ebene 1"
     inkscape:groupmode="layer"
     id="layer1"
     transform="translate(-39.067898,-4.8691974)">
    <path
       style="fill:#000000;stroke-width:0.264582"
       d="m 42.097388,16.447596 c -0.6692,-0.246378 -0.925902,-0.52224 -1.057662,-1.136614 -0.04602,-0.214608 -0.04032,-0.32194 0.02995,-0.563662 0.123146,-0.423608 0.286314,-0.656724 0.922434,-1.317875 0.657468,-0.68334 0.852888,-1.008327 0.890872,-1.481538 C 42.940452,11.231906 42.728866,10.831646 41.74095,9.7875529 41.236436,9.2543509 41.056184,9.0224939 40.899486,8.7051869 40.716702,8.3350554 40.700384,8.265598 40.703822,7.872385 c 0.0045,-0.5192766 0.138294,-0.808041 0.488008,-1.0535727 0.439502,-0.3085706 1.158934,-0.2320408 1.723806,0.1833709 0.114886,0.084489 0.487174,0.4249708 0.827304,0.7566266 0.677196,0.6603206 0.954812,0.8508418 1.415346,0.9713171 0.386046,0.100989 0.686284,0.06214 1.105224,-0.1430009 0.26229,-0.128435 0.416366,-0.2637042 0.801706,-0.7038414 0.890764,-1.0174393 1.164838,-1.2362061 1.734696,-1.3846349 0.686936,-0.1789244 1.216218,0.1318454 1.425648,0.8370769 0.232316,0.782289 0.0075,1.3972643 -0.873652,2.3895523 -0.513132,0.5778701 -0.768216,0.9811011 -0.87859,1.3888591 -0.188762,0.697341 0.0554,1.292813 0.793214,1.934508 1.243548,1.081548 1.543944,1.607014 1.33317,2.332052 -0.15023,0.516772 -0.670498,0.8936 -1.322498,0.957882 -0.367974,0.03628 -0.778146,-0.05398 -1.671508,-0.367824 -0.73421,-0.257932 -1.504304,-0.407472 -1.894424,-0.367868 -0.398768,0.04048 -1.00734,0.238258 -1.63366,0.53091 -0.280082,0.13087 -0.64169,0.272444 -0.803572,0.314608 -0.36028,0.09384 -0.920606,0.09345 -1.17665,-8e-4 z m 1.285048,-0.326012 c 0.21274,-0.07639 0.524376,-0.208038 0.692526,-0.292536 0.168148,-0.0845 0.525336,-0.22812 0.79375,-0.319154 0.796242,-0.27005 1.565926,-0.228172 2.63462,0.143348 1.12573,0.39135 1.190702,0.40846 1.560008,0.410826 0.751162,0.0048 1.29402,-0.428452 1.29402,-1.032784 0,-0.441118 -0.188432,-0.720482 -1.080448,-1.601839 -0.979044,-0.967347 -1.112158,-1.188606 -1.114256,-1.852083 -0.0022,-0.69334 0.230958,-1.159711 1.058166,-2.1166671 0.739994,-0.8560645 0.94608,-1.4157763 0.7555,-2.0518755 C 49.83309,6.9307542 49.362054,6.6667555 48.858808,6.7824953 48.362818,6.8965667 48.10312,7.1120778 47.187282,8.1696178 46.374974,9.1076109 45.568334,9.3195829 44.62442,8.8430969 44.4061,8.7328899 44.10164,8.4830952 43.641786,8.0368964 42.869102,7.2871544 42.606764,7.0948946 42.191854,6.9742768 c -0.274356,-0.079758 -0.326104,-0.080298 -0.581422,-0.00608 -0.549946,0.1598736 -0.776018,0.653214 -0.59099,1.2896814 0.11724,0.403298 0.353738,0.7451637 0.966364,1.3969157 0.820284,0.8726731 1.10987,1.3439971 1.20117,1.9549901 0.07994,0.534963 -0.23929,1.253552 -0.796612,1.793198 -0.439818,0.425867 -0.897924,1.015584 -1.003326,1.291574 -0.2139,0.56009 0.01502,1.08904 0.603048,1.393444 0.435336,0.22536 0.831682,0.234918 1.39235,0.03358 z"
       id="path970" />
  </g>
</svg>
