<?xml version="1.0" encoding="UTF-8" standalone="no"?>
<svg
   xmlns:dc="http://purl.org/dc/elements/1.1/"
   xmlns:cc="http://creativecommons.org/ns#"
   xmlns:rdf="http://www.w3.org/1999/02/22-rdf-syntax-ns#"
   xmlns:svg="http://www.w3.org/2000/svg"
   xmlns="http://www.w3.org/2000/svg"
   xmlns:sodipodi="http://sodipodi.sourceforge.net/DTD/sodipodi-0.dtd"
   xmlns:inkscape="http://www.inkscape.org/namespaces/inkscape"
   width="13.229167mm"
   height="13.229167mm"
   viewBox="0 0 13.229169 13.229168"
   version="1.1"
   id="svg8"
   sodipodi:docname="VCS_resized_285.svg"
   inkscape:version="1.0.2-2 (e86c870879, 2021-01-15)">
  <defs
     id="defs2" />
  <sodipodi:namedview
     id="base"
     pagecolor="#ffffff"
     bordercolor="#666666"
     borderopacity="1.0"
     inkscape:pageopacity="0.0"
     inkscape:pageshadow="2"
     inkscape:zoom="4"
     inkscape:cx="15.674773"
     inkscape:cy="45.656038"
     inkscape:document-units="mm"
     inkscape:current-layer="layer1"
     inkscape:document-rotation="0"
     showgrid="false"
     inkscape:window-width="958"
     inkscape:window-height="1008"
     inkscape:window-x="1913"
     inkscape:window-y="0"
     inkscape:window-maximized="0" />
  <metadata
     id="metadata5">
    <rdf:RDF>
      <cc:Work
         rdf:about="">
        <dc:format>image/svg+xml</dc:format>
        <dc:type
           rdf:resource="http://purl.org/dc/dcmitype/StillImage" />
        <dc:title></dc:title>
      </cc:Work>
    </rdf:RDF>
  </metadata>
  <g
     inkscape:label="Ebene 1"
     inkscape:groupmode="layer"
     id="layer1"
     transform="translate(-82.956512,15.196601)">
    <path
       style="fill:#000000;stroke-width:0.264582"
       d="m 86.578126,-2.4623871 c -0.02938,-0.03638 -0.104534,-0.8281458 -0.167008,-1.7594792 -0.06248,-0.9313331 -0.127746,-1.8600207 -0.145046,-2.0637499 l -0.03146,-0.3704166 -0.720826,-0.7077048 c -1.91619,-1.8813083 -2.493534,-2.4600569 -2.493534,-2.4995951 0,-0.057396 0.143014,-0.092121 1.931458,-0.4689653 0.84402,-0.177843 1.725084,-0.365547 1.957916,-0.417119 l 0.423334,-0.09377 0.175332,-0.314133 c 0.09643,-0.172773 0.572684,-1.052321 1.058334,-1.95455 0.771346,-1.432987 0.899728,-1.642162 1.015292,-1.654221 0.12236,-0.01277 0.188968,0.09251 0.887172,1.402291 0.415184,0.778854 0.891434,1.664935 1.058334,1.969071 l 0.303452,0.552975 0.79375,0.173795 c 0.436562,0.09559 1.364728,0.295301 2.062588,0.44381 1.303326,0.2773527 1.484262,0.3316303 1.425022,0.4274815 -0.01886,0.030534 -0.724312,0.737762 -1.56765,1.5716161 -0.843336,0.833854 -1.553246,1.553219 -1.577578,1.5985892 -0.04567,0.085153 -0.161956,1.459439 -0.268396,3.1718837 -0.0374,0.6016974 -0.08377,0.9939406 -0.120334,1.0178356 -0.03272,0.021383 -1.384116,0.039242 -3.00311,0.039688 -2.291926,6.2e-4 -2.955452,-0.013834 -2.997046,-0.065336 z m 5.774202,-0.2388636 c 0.01374,-0.022235 0.08845,-0.9330628 0.166024,-2.0240626 l 0.14104,-1.9836361 1.488366,-1.4928644 c 0.8186,-0.8210757 1.472118,-1.5091137 1.452258,-1.5289727 -0.03683,-0.036834 -0.245514,-0.084362 -2.287468,-0.5209785 -0.640292,-0.136908 -1.28323,-0.282003 -1.42875,-0.322433 l -0.264584,-0.07351 -0.987318,-1.838999 c -0.543026,-1.011449 -1.00993,-1.846536 -1.037564,-1.855748 -0.02764,-0.0092 -0.26027,0.371058 -0.516966,0.845044 -0.256696,0.473986 -0.506206,0.93323 -0.554466,1.020542 -0.04826,0.08731 -0.285104,0.527844 -0.526322,0.978958 -0.24122,0.451115 -0.453494,0.83636 -0.471722,0.856102 -0.04103,0.04444 -1.13623,0.290145 -2.705434,0.606961 -0.654844,0.1322111 -1.214438,0.2632069 -1.243542,0.2911019 -0.03455,0.033113 0.46664,0.559453 1.443838,1.5162975 1.213598,1.188321 1.496402,1.4916758 1.494896,1.6035232 -10e-4,0.075869 0.02152,0.444963 0.0501,0.8202082 0.02858,0.375246 0.09031,1.2179253 0.137178,1.8726213 0.04687,0.6546966 0.09633,1.2083374 0.109912,1.2303126 0.03247,0.052538 5.508046,0.052073 5.54052,-4.8e-4 z"
       id="path5475" />
  </g>
</svg>
