<?xml version="1.0" encoding="UTF-8" standalone="no"?>
<svg
   xmlns:dc="http://purl.org/dc/elements/1.1/"
   xmlns:cc="http://creativecommons.org/ns#"
   xmlns:rdf="http://www.w3.org/1999/02/22-rdf-syntax-ns#"
   xmlns:svg="http://www.w3.org/2000/svg"
   xmlns="http://www.w3.org/2000/svg"
   xmlns:sodipodi="http://sodipodi.sourceforge.net/DTD/sodipodi-0.dtd"
   xmlns:inkscape="http://www.inkscape.org/namespaces/inkscape"
   width="13.229167mm"
   height="13.229167mm"
   viewBox="0 0 13.229169 13.229168"
   version="1.1"
   id="svg8"
   sodipodi:docname="VCS_resized_140.svg"
   inkscape:version="1.0.2-2 (e86c870879, 2021-01-15)">
  <defs
     id="defs2" />
  <sodipodi:namedview
     id="base"
     pagecolor="#ffffff"
     bordercolor="#666666"
     borderopacity="1.0"
     inkscape:pageopacity="0.0"
     inkscape:pageshadow="2"
     inkscape:zoom="2.8284271"
     inkscape:cx="10.113179"
     inkscape:cy="35.631948"
     inkscape:document-units="mm"
     inkscape:current-layer="layer1"
     inkscape:document-rotation="0"
     showgrid="false"
     inkscape:window-width="958"
     inkscape:window-height="1008"
     inkscape:window-x="1913"
     inkscape:window-y="0"
     inkscape:window-maximized="0" />
  <metadata
     id="metadata5">
    <rdf:RDF>
      <cc:Work
         rdf:about="">
        <dc:format>image/svg+xml</dc:format>
        <dc:type
           rdf:resource="http://purl.org/dc/dcmitype/StillImage" />
        <dc:title></dc:title>
      </cc:Work>
    </rdf:RDF>
  </metadata>
  <g
     inkscape:label="Ebene 1"
     inkscape:groupmode="layer"
     id="layer1"
     transform="translate(-35.524204,-17.163992)">
    <path
       style="fill:#000000;stroke-width:0.264582"
       d="m 40.07963,29.869572 -0.76604,-0.113647 -0.2441,-0.342082 c -0.271768,-0.380855 -1.159044,-1.645432 -1.694782,-2.415462 -0.438764,-0.630646 -0.592272,-1.047237 -0.598782,-1.624976 -0.0043,-0.382397 0.0138,-0.466948 0.165524,-0.773204 0.0937,-0.189121 0.326598,-0.522451 0.517554,-0.740732 0.190958,-0.218281 0.423858,-0.551156 0.517556,-0.739721 0.15426,-0.310441 0.170362,-0.388342 0.170362,-0.824216 v -0.48137 l -0.313014,-0.604534 c -0.77398,-1.494811 -0.692404,-1.268136 -0.692404,-1.923957 0,-0.529677 0.0137,-0.613464 0.143474,-0.877708 0.265266,-0.540116 0.65371,-0.820809 1.126526,-0.81404 0.2134,0.0031 0.361834,0.0562 0.767292,0.274729 0.596424,0.321449 1.822958,0.862099 2.196042,0.968003 0.174938,0.04966 0.506626,0.07332 0.978958,0.06984 0.658638,-0.0049 0.753342,-0.01857 1.213792,-0.175759 0.596702,-0.203706 0.738414,-0.273992 1.094526,-0.542859 0.390672,-0.294959 1.054534,-0.625695 1.253176,-0.62433 0.408958,0.0028 0.85982,0.352464 1.089322,0.844794 0.11857,0.25436 0.136138,0.362963 0.137072,0.847377 0.001,0.531298 -0.0074,0.573471 -0.19277,0.963235 -0.106614,0.224185 -0.254982,0.487766 -0.329706,0.585736 -0.17684,0.231849 -0.42427,0.78624 -0.505728,1.133139 -0.121724,0.518369 0.08466,1.141013 0.577376,1.7419 0.719072,0.876934 0.871204,1.251423 0.792712,1.951344 -0.06264,0.558604 -0.220942,0.874005 -1.00977,2.011938 -0.363156,0.523875 -0.811728,1.174863 -0.996826,1.44664 -0.1851,0.271777 -0.386082,0.525625 -0.44663,0.564106 -0.117124,0.07444 -0.856256,0.217541 -1.512378,0.29281 -0.767446,0.08804 -2.602964,0.04694 -3.438334,-0.077 z m 3.895058,-0.241113 c 0.353062,-0.05761 0.703204,-0.128034 0.77809,-0.156506 0.08943,-0.034 0.298954,-0.293158 0.610524,-0.755146 0.2609,-0.386859 0.700586,-1.024203 0.97708,-1.41632 0.705994,-1.001228 0.846024,-1.298482 0.848218,-1.800579 0.0024,-0.542492 -0.127532,-0.84247 -0.687466,-1.587522 -0.621904,-0.827512 -0.678938,-0.961462 -0.675922,-1.5875 0.0029,-0.605863 0.121292,-0.941334 0.63485,-1.799167 0.358184,-0.5983 0.441908,-0.853835 0.442112,-1.349375 2e-4,-0.663261 -0.454962,-1.243542 -0.975574,-1.243542 -0.250348,0 -0.410348,0.07191 -1.16298,0.522682 -0.400526,0.239886 -0.818226,0.44083 -1.137708,0.547318 -0.470042,0.156672 -0.555864,0.16834 -1.245658,0.169358 -0.990632,0.0015 -1.14839,-0.04659 -3.185862,-0.970486 -0.714134,-0.323824 -0.93472,-0.344015 -1.290862,-0.118157 -0.187846,0.119129 -0.268932,0.220418 -0.386912,0.483309 -0.135158,0.301173 -0.147188,0.37592 -0.127332,0.791207 0.02158,0.451444 0.02774,0.469323 0.3936,1.143878 0.458786,0.84588 0.571086,1.115719 0.654988,1.573833 0.116658,0.636954 -0.02972,1.058965 -0.627892,1.810183 -0.208572,0.261938 -0.45621,0.630682 -0.550308,0.819433 -0.150698,0.302285 -0.171086,0.394488 -0.171086,0.773717 0,0.393892 0.01672,0.462519 0.196346,0.80634 0.10799,0.206692 0.415986,0.680051 0.684434,1.051907 0.268448,0.371857 0.710812,1.00132 0.983032,1.398807 0.27222,0.397486 0.535724,0.739248 0.585566,0.759469 0.04984,0.02022 0.364466,0.07927 0.699164,0.131229 0.911482,0.141487 2.875142,0.142344 3.737558,0.0016 z"
       id="path2282" />
  </g>
</svg>
