<?xml version="1.0" encoding="UTF-8" standalone="no"?>
<svg
   xmlns:dc="http://purl.org/dc/elements/1.1/"
   xmlns:cc="http://creativecommons.org/ns#"
   xmlns:rdf="http://www.w3.org/1999/02/22-rdf-syntax-ns#"
   xmlns:svg="http://www.w3.org/2000/svg"
   xmlns="http://www.w3.org/2000/svg"
   xmlns:sodipodi="http://sodipodi.sourceforge.net/DTD/sodipodi-0.dtd"
   xmlns:inkscape="http://www.inkscape.org/namespaces/inkscape"
   width="13.229167mm"
   height="13.229167mm"
   viewBox="0 0 13.229169 13.229168"
   version="1.1"
   id="svg8"
   sodipodi:docname="VCS_resized_280.svg"
   inkscape:version="1.0.2-2 (e86c870879, 2021-01-15)">
  <defs
     id="defs2" />
  <sodipodi:namedview
     id="base"
     pagecolor="#ffffff"
     bordercolor="#666666"
     borderopacity="1.0"
     inkscape:pageopacity="0.0"
     inkscape:pageshadow="2"
     inkscape:zoom="4"
     inkscape:cx="10.071027"
     inkscape:cy="42.5545"
     inkscape:document-units="mm"
     inkscape:current-layer="layer1"
     inkscape:document-rotation="0"
     showgrid="false"
     inkscape:window-width="958"
     inkscape:window-height="1008"
     inkscape:window-x="1913"
     inkscape:window-y="0"
     inkscape:window-maximized="0" />
  <metadata
     id="metadata5">
    <rdf:RDF>
      <cc:Work
         rdf:about="">
        <dc:format>image/svg+xml</dc:format>
        <dc:type
           rdf:resource="http://purl.org/dc/dcmitype/StillImage" />
        <dc:title></dc:title>
      </cc:Work>
    </rdf:RDF>
  </metadata>
  <g
     inkscape:label="Ebene 1"
     inkscape:groupmode="layer"
     id="layer1"
     transform="translate(-84.439171,14.375986)">
    <path
       style="fill:#000000;stroke-width:0.264582"
       d="m 87.816953,-1.6891754 c -0.01646,-0.080261 -0.05396,-0.634085 -0.08334,-1.2307204 -0.02938,-0.5966354 -0.08184,-1.4995407 -0.116576,-2.0064565 l -0.06315,-0.921665 -0.820736,-0.8775016 c -0.451404,-0.482626 -1.119648,-1.182821 -1.484986,-1.5559888 -0.703386,-0.7184623 -0.781482,-0.8154289 -0.70942,-0.8808397 0.02484,-0.022552 0.545232,-0.1506396 1.15642,-0.2846404 1.193906,-0.2617608 2.583332,-0.5768542 2.883958,-0.6540232 0.176766,-0.04537 0.23024,-0.127025 1.172962,-1.791026 1.208832,-2.133711 1.17939,-2.087443 1.32833,-2.087443 0.100964,0 0.253756,0.239381 1.004824,1.574271 0.487164,0.865849 0.975872,1.728167 1.086018,1.916261 l 0.200262,0.341989 2.062032,0.4691662 c 1.134118,0.2580412 2.09561,0.5017162 2.13665,0.5415 0.06375,0.061798 -0.0056,0.1558368 -0.47625,0.6456008 -0.835392,0.8693589 -2.450188,2.6108919 -2.499338,2.6955009 -0.02391,0.041155 -0.08977,0.8061368 -0.146362,1.6999573 -0.05659,0.8938214 -0.120374,1.827536 -0.14174,2.0749214 l -0.03885,0.4497916 -3.210392,0.013638 -3.210394,0.013638 z m 6.235004,-0.5031162 c 0.0173,-0.2110052 0.08018,-1.1322416 0.139738,-2.0471924 l 0.108282,-1.6635465 0.3278,-0.3492696 c 0.18029,-0.192098 0.647178,-0.6936586 1.03753,-1.1145784 0.390352,-0.4209198 0.888184,-0.9501024 1.106292,-1.1759613 0.218108,-0.225859 0.381844,-0.4253696 0.363856,-0.4433576 -0.0422,-0.042201 -0.510484,-0.1556004 -2.391546,-0.5791354 -0.84402,-0.1900374 -1.54958,-0.3620414 -1.567908,-0.3822302 -0.03927,-0.043249 -1.196186,-2.081231 -1.710572,-3.013271 -0.196764,-0.356526 -0.374508,-0.648229 -0.394988,-0.648229 -0.02048,0 -0.500106,0.823509 -1.06584,1.83002 -0.622134,1.106854 -1.07043,1.8484106 -1.134442,1.8765586 -0.05821,0.025596 -0.93927,0.2293964 -1.957916,0.452891 -1.018646,0.223494 -1.87513,0.4272168 -1.903296,0.4527174 -0.03141,0.028432 0.204544,0.3069538 0.610038,0.7201103 0.598498,0.6098068 0.9464,0.9746668 1.854416,1.9448112 0.163116,0.1742774 0.31149,0.3643948 0.32972,0.422484 0.01822,0.058089 0.05611,0.4985228 0.08417,0.9787414 0.02806,0.4802188 0.0785,1.3493749 0.112094,1.9314583 0.03359,0.5820834 0.06987,1.088099 0.08062,1.1244792 0.01534,0.051895 0.657346,0.066146 2.980026,0.066146 h 2.96048 z"
       id="path5395" />
  </g>
</svg>
