<?xml version="1.0" encoding="UTF-8" standalone="no"?>
<svg
   xmlns:dc="http://purl.org/dc/elements/1.1/"
   xmlns:cc="http://creativecommons.org/ns#"
   xmlns:rdf="http://www.w3.org/1999/02/22-rdf-syntax-ns#"
   xmlns:svg="http://www.w3.org/2000/svg"
   xmlns="http://www.w3.org/2000/svg"
   xmlns:sodipodi="http://sodipodi.sourceforge.net/DTD/sodipodi-0.dtd"
   xmlns:inkscape="http://www.inkscape.org/namespaces/inkscape"
   width="13.229167mm"
   height="13.229167mm"
   viewBox="0 0 13.229169 13.229168"
   version="1.1"
   id="svg8"
   sodipodi:docname="VCS_resized_316.svg"
   inkscape:version="1.0.2-2 (e86c870879, 2021-01-15)">
  <defs
     id="defs2" />
  <sodipodi:namedview
     id="base"
     pagecolor="#ffffff"
     bordercolor="#666666"
     borderopacity="1.0"
     inkscape:pageopacity="0.0"
     inkscape:pageshadow="2"
     inkscape:zoom="4"
     inkscape:cx="-0.92550714"
     inkscape:cy="33.638333"
     inkscape:document-units="mm"
     inkscape:current-layer="layer1"
     inkscape:document-rotation="0"
     showgrid="false"
     inkscape:window-width="958"
     inkscape:window-height="1008"
     inkscape:window-x="1913"
     inkscape:window-y="0"
     inkscape:window-maximized="0" />
  <metadata
     id="metadata5">
    <rdf:RDF>
      <cc:Work
         rdf:about="">
        <dc:format>image/svg+xml</dc:format>
        <dc:type
           rdf:resource="http://purl.org/dc/dcmitype/StillImage" />
        <dc:title></dc:title>
      </cc:Work>
    </rdf:RDF>
  </metadata>
  <g
     inkscape:label="Ebene 1"
     inkscape:groupmode="layer"
     id="layer1"
     transform="translate(-98.118469,17.323362)">
    <path
       style="fill:#000000;stroke-width:0.264582"
       d="m 103.93483,-4.9388069 c -0.33469,-0.148807 -0.70379,-0.3081538 -0.8202,-0.3541052 -0.11642,-0.045951 -0.23871,-0.1098564 -0.27177,-0.1420128 -0.0331,-0.032156 -0.1,-0.3323094 -0.14867,-0.6670072 -0.0487,-0.334698 -0.14707,-1.0107063 -0.21855,-1.5022403 -0.0715,-0.4915344 -0.1434,-0.9471978 -0.15981,-1.0125848 -0.0215,-0.085603 -0.2768,-0.2649416 -0.91198,-0.6405928 -2.202853,-1.302791 -3.105823,-1.863419 -3.120503,-1.937441 -0.0189,-0.09529 0.0806,-0.123476 2.661693,-0.753896 1.23951,-0.302744 1.87341,-0.480862 1.91654,-0.538525 0.0354,-0.04739 0.13906,-0.267196 0.23023,-0.488462 0.14743,-0.357782 0.84967,-2.022842 1.35726,-3.218143 0.22373,-0.526872 0.30674,-0.614096 0.4344,-0.456454 0.0494,0.06102 0.46775,1.042859 0.92965,2.181873 l 0.83983,2.070935 0.18875,0.05329 c 0.10382,0.02931 0.60548,0.159767 1.1148,0.289904 0.50932,0.130136 1.05701,0.272789 1.21708,0.317006 0.52361,0.144638 1.82348,0.507312 1.91823,0.535202 0.0509,0.01499 0.0926,0.05809 0.0926,0.09577 0,0.05605 -1.76304,1.1202928 -3.63379,2.193499 -0.29339,0.1683136 -0.38626,0.2506826 -0.40962,0.36332 -0.0166,0.080113 -0.10107,0.5980974 -0.18767,1.1510766 -0.0866,0.5529793 -0.19705,1.2286437 -0.24545,1.5014761 l -0.088,0.49606 -0.42972,0.1973198 c -1.34181,0.6161384 -1.43923,0.6275726 -2.25535,0.2647278 z m 1.56869,-0.2645394 c 0.80777,-0.3228436 0.85075,-0.3452182 0.88739,-0.4619672 0.016,-0.050963 0.13717,-0.747504 0.26929,-1.5478687 0.13211,-0.8003646 0.26134,-1.5051432 0.28718,-1.5661746 0.0284,-0.067157 0.46148,-0.3508666 1.0969,-0.718619 2.10642,-1.2191042 2.55954,-1.4942922 2.54286,-1.5443202 -0.009,-0.02806 -0.17049,-0.0944 -0.35809,-0.147416 -0.34674,-0.09799 -2.77808,-0.735004 -3.35734,-0.879621 -0.17462,-0.0436 -0.34624,-0.105844 -0.38137,-0.138329 -0.0596,-0.05515 -0.31137,-0.66024 -1.25736,-3.022396 -0.22939,-0.572789 -0.4098,-0.9525 -0.45255,-0.9525 -0.04,0 -0.15533,0.208382 -0.26361,0.47625 -0.10588,0.261938 -0.32574,0.785813 -0.48858,1.164167 -0.16284,0.378354 -0.45015,1.057011 -0.63847,1.508125 l -0.34241,0.820209 -0.54845,0.140763 c -0.30165,0.07742 -1.20789,0.300023 -2.01388,0.494675 -0.805983,0.194651 -1.506633,0.384038 -1.556983,0.42086 -0.11025,0.08061 -0.34172,-0.07296 1.874783,1.2437918 0.94043,0.5586772 1.71988,1.043613 1.73212,1.0776352 0.0208,0.057709 0.17867,1.079473 0.39223,2.5379455 0.0503,0.3432016 0.11431,0.6469458 0.14235,0.6749864 0.0444,0.044361 0.51042,0.2472304 1.34156,0.5839592 0.13096,0.053061 0.28083,0.097589 0.33303,0.09895 0.0522,0.00136 0.39393,-0.1170362 0.7594,-0.2631054 z"
       id="path5973" />
  </g>
</svg>
