<?xml version="1.0" encoding="UTF-8" standalone="no"?>
<svg
   xmlns:dc="http://purl.org/dc/elements/1.1/"
   xmlns:cc="http://creativecommons.org/ns#"
   xmlns:rdf="http://www.w3.org/1999/02/22-rdf-syntax-ns#"
   xmlns:svg="http://www.w3.org/2000/svg"
   xmlns="http://www.w3.org/2000/svg"
   xmlns:sodipodi="http://sodipodi.sourceforge.net/DTD/sodipodi-0.dtd"
   xmlns:inkscape="http://www.inkscape.org/namespaces/inkscape"
   width="13.229167mm"
   height="13.229167mm"
   viewBox="0 0 13.229167 13.229167"
   version="1.1"
   id="svg8"
   sodipodi:docname="VCS_resized_97.svg"
   inkscape:version="1.0.2-2 (e86c870879, 2021-01-15)">
  <defs
     id="defs2" />
  <sodipodi:namedview
     id="base"
     pagecolor="#ffffff"
     bordercolor="#666666"
     borderopacity="1.0"
     inkscape:pageopacity="0.0"
     inkscape:pageshadow="2"
     inkscape:zoom="2.8284271"
     inkscape:cx="-4.1563074"
     inkscape:cy="36.018341"
     inkscape:document-units="mm"
     inkscape:current-layer="layer1"
     inkscape:document-rotation="0"
     showgrid="false"
     inkscape:window-width="958"
     inkscape:window-height="1008"
     inkscape:window-x="1913"
     inkscape:window-y="0"
     inkscape:window-maximized="0" />
  <metadata
     id="metadata5">
    <rdf:RDF>
      <cc:Work
         rdf:about="">
        <dc:format>image/svg+xml</dc:format>
        <dc:type
           rdf:resource="http://purl.org/dc/dcmitype/StillImage" />
        <dc:title></dc:title>
      </cc:Work>
    </rdf:RDF>
  </metadata>
  <g
     inkscape:label="Ebene 1"
     inkscape:groupmode="layer"
     id="layer1"
     transform="translate(-39.299675,-17.06176)">
    <path
       style="fill:#000000;stroke-width:0.264582"
       d="m 44.226145,29.507349 c -0.758854,-0.150979 -0.9121,-0.200922 -1.52521,-0.497077 -0.873082,-0.42173 -1.32209,-0.825169 -1.646836,-1.479698 -0.339204,-0.683673 -0.156254,-1.134342 0.875358,-2.1563 0.810742,-0.803155 1.115524,-1.345836 1.060054,-1.887481 -0.05905,-0.576657 -0.244296,-0.928389 -0.957386,-1.817863 -1.104564,-1.377778 -1.331628,-2.248741 -0.84519,-3.241954 0.16197,-0.330713 0.226666,-0.406985 0.462814,-0.54563 0.251146,-0.14745 0.304714,-0.158927 0.629096,-0.13478 0.571674,0.04255 0.964756,0.339433 1.830318,1.382364 0.289854,0.34925 0.628002,0.715724 0.751442,0.814387 0.635318,0.507795 1.543974,0.500932 2.156034,-0.01629 0.09412,-0.07953 0.443578,-0.470234 0.776584,-0.868227 0.841948,-1.00626 1.149968,-1.254325 1.627116,-1.310404 0.251424,-0.02955 0.341954,-0.0145 0.586692,0.09755 0.473984,0.216997 0.745064,0.675501 0.807946,1.366563 0.06869,0.754854 -0.185822,1.395364 -0.91298,2.297669 -0.61214,0.759583 -0.770662,0.996189 -0.929776,1.387773 -0.19068,0.469267 -0.21629,0.693122 -0.11798,1.031294 0.131076,0.450885 0.353166,0.747772 1.13779,1.520979 0.691948,0.681882 0.733012,0.734215 0.847098,1.079572 0.212732,0.643974 0.06408,1.087788 -0.578532,1.727257 -0.725784,0.722233 -1.176286,0.955456 -2.356742,1.220069 -0.45129,0.101162 -0.716076,0.121024 -1.799168,0.134959 -1.150554,0.0148 -1.327234,0.005 -1.878542,-0.104734 z m 3.417926,-0.299707 c 0.769454,-0.158108 1.04568,-0.24576 1.440234,-0.457016 0.897884,-0.480752 1.547472,-1.231198 1.543596,-1.783262 -0.0025,-0.351717 -0.221398,-0.667471 -1.087038,-1.567809 -0.78547,-0.816955 -1.015344,-1.291626 -0.958496,-1.979212 0.04237,-0.512404 0.410434,-1.246914 0.98086,-1.957384 0.753142,-0.938042 0.980136,-1.433387 0.976836,-2.131637 -0.0023,-0.482619 -0.155092,-0.814329 -0.492028,-1.068045 -0.218286,-0.164372 -0.25936,-0.176215 -0.518432,-0.149476 -0.491626,0.05074 -0.92227,0.375823 -1.485222,1.12116 -0.439266,0.581578 -0.924892,1.050666 -1.29013,1.246196 -0.305146,0.163359 -0.370668,0.177908 -0.808314,0.179485 -0.403318,0.0015 -0.52082,-0.01915 -0.767292,-0.134557 -0.370776,-0.173607 -0.802808,-0.569703 -1.32583,-1.215544 -0.703174,-0.8683 -1.185826,-1.211904 -1.703824,-1.212969 -0.228674,-4.8e-4 -0.275108,0.02232 -0.511006,0.250837 -0.497352,0.481784 -0.538714,1.26698 -0.109096,2.071035 0.08728,0.163342 0.400024,0.618455 0.694996,1.011361 0.629218,0.838125 0.926886,1.414312 1.005986,1.947255 0.0493,0.332196 0.0427,0.412807 -0.0598,0.730092 -0.142702,0.441708 -0.330722,0.72218 -0.847982,1.264945 -1.12501,1.180481 -1.254822,1.436816 -1.009018,1.992494 0.259308,0.586209 0.715078,0.988901 1.616618,1.428349 0.818112,0.398781 1.466044,0.510573 2.994592,0.516676 1.008476,0.004 1.277428,-0.01208 1.719792,-0.102974 z"
       id="path1594" />
  </g>
</svg>
