<?xml version="1.0" encoding="UTF-8" standalone="no"?>
<svg
   xmlns:dc="http://purl.org/dc/elements/1.1/"
   xmlns:cc="http://creativecommons.org/ns#"
   xmlns:rdf="http://www.w3.org/1999/02/22-rdf-syntax-ns#"
   xmlns:svg="http://www.w3.org/2000/svg"
   xmlns="http://www.w3.org/2000/svg"
   xmlns:sodipodi="http://sodipodi.sourceforge.net/DTD/sodipodi-0.dtd"
   xmlns:inkscape="http://www.inkscape.org/namespaces/inkscape"
   width="13.229167mm"
   height="13.229167mm"
   viewBox="0 0 13.229167 13.229167"
   version="1.1"
   id="svg8"
   sodipodi:docname="VCS_resized_36.svg"
   inkscape:version="1.0.2-2 (e86c870879, 2021-01-15)">
  <defs
     id="defs2" />
  <sodipodi:namedview
     id="base"
     pagecolor="#ffffff"
     bordercolor="#666666"
     borderopacity="1.0"
     inkscape:pageopacity="0.0"
     inkscape:pageshadow="2"
     inkscape:zoom="2.8284271"
     inkscape:cx="3.6161332"
     inkscape:cy="59.931479"
     inkscape:document-units="mm"
     inkscape:current-layer="layer1"
     inkscape:document-rotation="0"
     showgrid="false"
     inkscape:window-width="958"
     inkscape:window-height="1008"
     inkscape:window-x="1913"
     inkscape:window-y="0"
     inkscape:window-maximized="0" />
  <metadata
     id="metadata5">
    <rdf:RDF>
      <cc:Work
         rdf:about="">
        <dc:format>image/svg+xml</dc:format>
        <dc:type
           rdf:resource="http://purl.org/dc/dcmitype/StillImage" />
        <dc:title></dc:title>
      </cc:Work>
    </rdf:RDF>
  </metadata>
  <g
     inkscape:label="Ebene 1"
     inkscape:groupmode="layer"
     id="layer1"
     transform="translate(-37.243217,-10.734742)">
    <path
       style="fill:#000000;stroke-width:0.264582"
       d="m 40.740019,22.287426 c -0.306608,-0.0435 -0.435782,-0.146136 -0.596476,-0.473924 -0.118582,-0.241888 -0.141878,-0.358072 -0.137928,-0.687918 0.0061,-0.507638 0.144668,-0.842626 0.670518,-1.62073 0.467404,-0.691623 0.6424,-1.150616 0.609638,-1.599007 -0.04213,-0.576684 -0.355048,-0.995438 -1.320052,-1.766547 -0.90732,-0.725015 -1.22537,-1.186178 -1.232468,-1.787049 -0.0051,-0.433249 0.121694,-0.635802 0.486082,-0.7764 0.552,-0.212985 1.253812,-0.09216 1.947208,0.335222 0.975792,0.601447 1.172616,0.712467 1.444408,0.814727 0.416846,0.156838 0.91187,0.156562 1.224696,-6.8e-4 0.319116,-0.160404 0.502282,-0.340128 1.089746,-1.069265 0.565974,-0.702467 0.904662,-0.996249 1.335222,-1.158193 0.379454,-0.142721 0.893714,-0.127706 1.071394,0.03128 0.30539,0.273264 0.44697,1.04335 0.29067,1.581006 -0.09375,0.322482 -0.189442,0.496361 -0.621506,1.129293 -0.532428,0.77996 -0.719658,1.418845 -0.571196,1.9491 0.0889,0.317522 0.488918,0.752718 1.18921,1.29379 1.003624,0.775437 1.369208,1.291771 1.36324,1.925381 -0.0028,0.30203 -0.0142,0.330002 -0.198704,0.489492 -0.26279,0.227166 -0.602686,0.334414 -1.059844,0.334414 -0.436292,0 -0.69801,-0.08092 -1.506982,-0.465926 -0.66292,-0.315498 -0.970666,-0.419082 -1.423798,-0.479236 -0.659808,-0.08759 -1.272124,0.221108 -1.965232,0.990768 -0.376388,0.41796 -0.8565,0.81969 -1.090228,0.91224 -0.207036,0.08198 -0.741216,0.13454 -0.997618,0.09816 z m 0.877542,-0.34231 c 0.180692,-0.06157 0.40601,-0.247892 0.97586,-0.806978 0.956804,-0.938734 1.242144,-1.098444 1.956598,-1.095148 0.592014,0.0027 1.04044,0.133184 1.845246,0.53681 0.667194,0.33461 1.068324,0.435754 1.517932,0.38274 0.575722,-0.06788 0.816062,-0.304156 0.768548,-0.755546 -0.04657,-0.442374 -0.422088,-0.913138 -1.165426,-1.461005 -0.172992,-0.127502 -0.49807,-0.407172 -0.722394,-0.62149 -0.654348,-0.625161 -0.794634,-1.042826 -0.60122,-1.789984 0.11385,-0.439811 0.252182,-0.714149 0.651752,-1.29254 0.447762,-0.648153 0.586666,-0.985988 0.588182,-1.430557 0.002,-0.597709 -0.242114,-0.90384 -0.723828,-0.907572 -0.540108,-0.0042 -0.970618,0.304061 -1.600804,1.146176 -0.594966,0.795049 -1.25833,1.295979 -1.716218,1.295979 -0.513296,0 -1.316084,-0.319947 -2.069686,-0.824864 -0.827494,-0.554424 -1.426554,-0.715144 -1.894332,-0.508223 -0.319562,0.141357 -0.477076,0.381493 -0.435056,0.663256 0.0687,0.460662 0.354572,0.828099 1.138762,1.463658 0.659782,0.534732 1.10214,1.015266 1.29003,1.401364 0.140084,0.287859 0.150078,0.347234 0.124396,0.739012 -0.0336,0.512572 -0.193926,0.899718 -0.64758,1.563714 -0.451822,0.661314 -0.619044,1.04693 -0.626356,1.444378 -0.01134,0.616396 0.27657,0.936616 0.842272,0.93679 0.147612,4.4e-5 0.374108,-0.03594 0.503322,-0.07997 z"
       id="path568" />
  </g>
</svg>
