<?xml version="1.0" encoding="UTF-8" standalone="no"?>
<svg
   xmlns:dc="http://purl.org/dc/elements/1.1/"
   xmlns:cc="http://creativecommons.org/ns#"
   xmlns:rdf="http://www.w3.org/1999/02/22-rdf-syntax-ns#"
   xmlns:svg="http://www.w3.org/2000/svg"
   xmlns="http://www.w3.org/2000/svg"
   xmlns:sodipodi="http://sodipodi.sourceforge.net/DTD/sodipodi-0.dtd"
   xmlns:inkscape="http://www.inkscape.org/namespaces/inkscape"
   width="13.229167mm"
   height="13.229167mm"
   viewBox="0 0 13.229169 13.229168"
   version="1.1"
   id="svg8"
   sodipodi:docname="VCS_resized_241.svg"
   inkscape:version="1.0.2-2 (e86c870879, 2021-01-15)">
  <defs
     id="defs2" />
  <sodipodi:namedview
     id="base"
     pagecolor="#ffffff"
     bordercolor="#666666"
     borderopacity="1.0"
     inkscape:pageopacity="0.0"
     inkscape:pageshadow="2"
     inkscape:zoom="4"
     inkscape:cx="1.6909193"
     inkscape:cy="27.497483"
     inkscape:document-units="mm"
     inkscape:current-layer="layer1"
     inkscape:document-rotation="0"
     showgrid="false"
     inkscape:window-width="958"
     inkscape:window-height="1008"
     inkscape:window-x="1913"
     inkscape:window-y="0"
     inkscape:window-maximized="0" />
  <metadata
     id="metadata5">
    <rdf:RDF>
      <cc:Work
         rdf:about="">
        <dc:format>image/svg+xml</dc:format>
        <dc:type
           rdf:resource="http://purl.org/dc/dcmitype/StillImage" />
        <dc:title></dc:title>
      </cc:Work>
    </rdf:RDF>
  </metadata>
  <g
     inkscape:label="Ebene 1"
     inkscape:groupmode="layer"
     id="layer1"
     transform="translate(-78.602699,-16.948627)">
    <path
       style="fill:#000000;stroke-width:0.264582"
       d="m 81.111282,29.790491 c -0.02817,-0.03638 -0.103458,-0.43524 -0.167312,-0.886354 -0.06385,-0.451114 -0.173858,-1.153584 -0.244456,-1.561042 -0.0706,-0.407458 -0.155324,-0.931332 -0.188282,-1.164166 -0.05539,-0.39131 -0.129818,-0.562934 -0.983926,-2.268813 -0.508204,-1.015013 -0.913192,-1.872263 -0.899976,-1.905 0.01322,-0.03274 0.139638,-0.10385 0.280932,-0.15803 0.141296,-0.05418 0.542652,-0.224975 0.891902,-0.379543 0.34925,-0.154569 0.92075,-0.405145 1.27,-0.556836 1.350888,-0.586736 1.249618,-0.503354 3.027734,-2.492915 0.59397,-0.664603 1.071538,-1.155321 1.124362,-1.155321 0.0505,0 0.21969,0.148828 0.375972,0.330729 0.573158,0.667117 1.569636,1.772254 2.023572,2.244229 l 0.466222,0.48475 0.883153,0.396205 c 0.485734,0.217913 1.311778,0.581377 1.835652,0.807699 0.523876,0.226321 0.973664,0.429698 0.99953,0.451949 0.02587,0.02225 -0.371674,0.885764 -0.88342,1.918918 -0.511748,1.033155 -0.953244,1.969253 -0.981102,2.080221 -0.02786,0.110966 -0.06592,0.368446 -0.08458,0.572174 -0.01866,0.20373 -0.0784,0.596636 -0.13275,0.873126 -0.05435,0.27649 -0.153868,0.905156 -0.221148,1.397036 -0.07233,0.528802 -0.151512,0.92351 -0.19373,0.965728 -0.101436,0.101436 -8.119903,0.106576 -8.198351,0.0053 z m 7.959041,-0.239904 c 0.03446,-0.02191 0.09966,-0.325158 0.144888,-0.673876 0.04522,-0.348718 0.14084,-0.9555 0.212476,-1.348408 0.07164,-0.392906 0.164412,-0.964406 0.206168,-1.27 0.07569,-0.553978 0.07821,-0.560248 0.84916,-2.116666 0.42528,-0.858572 0.825658,-1.65039 0.889724,-1.759595 0.08127,-0.138524 0.09971,-0.215332 0.06099,-0.254051 -0.05568,-0.05568 -1.290394,-0.606286 -2.024534,-0.902815 -0.9048,-0.365461 -1.513643,-0.687236 -1.770077,-0.93549 -0.315268,-0.305214 -1.523474,-1.637882 -1.990052,-2.195057 -0.188292,-0.224854 -0.381852,-0.408825 -0.430134,-0.408825 -0.04828,0 -0.203138,0.136922 -0.344124,0.304271 -0.410994,0.487846 -1.45452,1.641225 -1.933984,2.137579 -0.466918,0.483364 -0.601882,0.563791 -1.738366,1.035925 -0.247386,0.102772 -0.599216,0.255284 -0.781846,0.338916 -0.18263,0.08363 -0.344672,0.152059 -0.360092,0.152059 -0.01542,0 -0.127932,0.0454 -0.250028,0.100888 -0.122096,0.05549 -0.358914,0.161335 -0.526264,0.235214 -0.167348,0.07388 -0.30427,0.144878 -0.30427,0.157777 0,0.0129 0.390672,0.805975 0.868162,1.762391 l 0.868162,1.738939 0.08865,0.60854 c 0.04876,0.334698 0.121012,0.764112 0.16057,0.954254 0.03956,0.190142 0.133728,0.773548 0.20927,1.296458 0.07554,0.522912 0.147644,0.980512 0.16023,1.016894 0.01802,0.0521 0.834758,0.06597 3.847774,0.06533 2.10369,-4e-4 3.853087,-0.01874 3.887549,-0.04066 z"
       id="path4755" />
  </g>
</svg>
