<?xml version="1.0" encoding="UTF-8" standalone="no"?>
<svg
   xmlns:dc="http://purl.org/dc/elements/1.1/"
   xmlns:cc="http://creativecommons.org/ns#"
   xmlns:rdf="http://www.w3.org/1999/02/22-rdf-syntax-ns#"
   xmlns:svg="http://www.w3.org/2000/svg"
   xmlns="http://www.w3.org/2000/svg"
   xmlns:sodipodi="http://sodipodi.sourceforge.net/DTD/sodipodi-0.dtd"
   xmlns:inkscape="http://www.inkscape.org/namespaces/inkscape"
   width="13.229167mm"
   height="13.229167mm"
   viewBox="0 0 13.229169 13.229168"
   version="1.1"
   id="svg8"
   sodipodi:docname="VCS_resized_200.svg"
   inkscape:version="1.0.2-2 (e86c870879, 2021-01-15)">
  <defs
     id="defs2" />
  <sodipodi:namedview
     id="base"
     pagecolor="#ffffff"
     bordercolor="#666666"
     borderopacity="1.0"
     inkscape:pageopacity="0.0"
     inkscape:pageshadow="2"
     inkscape:zoom="2.8284271"
     inkscape:cx="-1.0134053"
     inkscape:cy="34.168448"
     inkscape:document-units="mm"
     inkscape:current-layer="layer1"
     inkscape:document-rotation="0"
     showgrid="false"
     inkscape:window-width="958"
     inkscape:window-height="1008"
     inkscape:window-x="1913"
     inkscape:window-y="0"
     inkscape:window-maximized="0" />
  <metadata
     id="metadata5">
    <rdf:RDF>
      <cc:Work
         rdf:about="">
        <dc:format>image/svg+xml</dc:format>
        <dc:type
           rdf:resource="http://purl.org/dc/dcmitype/StillImage" />
        <dc:title></dc:title>
      </cc:Work>
    </rdf:RDF>
  </metadata>
  <g
     inkscape:label="Ebene 1"
     inkscape:groupmode="layer"
     id="layer1"
     transform="translate(-48.83149,-21.6401)">
    <path
       style="fill:#000000;stroke-width:0.264582"
       d="m 51.917089,34.336266 c -0.06486,-0.02399 -0.158354,-0.14882 -0.22037,-0.294228 -0.202768,-0.475423 -0.862852,-1.892811 -0.955496,-2.051721 -0.190984,-0.327594 -0.470376,-1.147574 -0.553208,-1.6236 -0.06784,-0.389865 -0.07828,-0.670279 -0.0499,-1.339733 0.04285,-1.0105 -0.0028,-1.355562 -0.290682,-2.196042 -0.178492,-0.521164 -0.368564,-1.304727 -0.368594,-1.519512 -2e-5,-0.137415 0.343966,-0.444361 0.835538,-0.745569 0.721036,-0.441809 1.178752,-0.662657 1.95616,-0.943843 0.595826,-0.215509 2.92102,-1.320611 3.052938,-1.450979 0.02765,-0.02732 0.103192,-0.04968 0.167872,-0.04968 0.128344,0 0.936348,0.388639 1.683988,0.809977 0.44531,0.250958 1.074034,0.521675 1.43162,0.61643 0.472424,0.125185 1.240382,0.522624 2.116666,1.095432 0.522366,0.341461 0.575004,0.384532 0.656202,0.536948 0.09453,0.177449 -0.01628,0.803498 -0.267152,1.509389 -0.252402,0.710174 -0.307694,1.17767 -0.270814,2.289736 0.04211,1.269721 -0.07795,1.749071 -0.846896,3.381463 -0.260484,0.552979 -0.519614,1.121947 -0.575844,1.264372 -0.05623,0.142426 -0.161802,0.360599 -0.234608,0.48483 -0.119794,0.204414 -0.156034,0.228636 -0.38142,0.254929 -0.385248,0.04494 -6.75876,0.01847 -6.886002,-0.0286 z m 6.92306,-0.253101 c 0.05167,-0.02765 0.160562,-0.200293 0.241986,-0.383646 0.08142,-0.183352 0.24161,-0.532763 0.35597,-0.776468 1.105272,-2.355358 1.123612,-2.420776 1.11257,-3.968722 -0.009,-1.2604 0.02212,-1.485507 0.334284,-2.418518 0.114528,-0.342313 0.203752,-0.726321 0.220092,-0.947259 l 0.02748,-0.371568 -0.416122,-0.272259 c -0.726678,-0.47545 -1.456512,-0.854272 -2.056538,-1.067451 -0.628362,-0.223247 -1.185622,-0.481763 -2.297114,-1.065645 -0.39029,-0.205024 -0.757158,-0.37277 -0.815264,-0.37277 -0.05811,0 -0.572218,0.234022 -1.142468,0.52005 -0.570252,0.286028 -1.32257,0.633776 -1.67182,0.772775 -1.416388,0.563711 -1.599946,0.646999 -2.138284,0.970234 -0.704188,0.422816 -0.798592,0.510079 -0.798592,0.738188 0,0.289516 0.152952,0.944892 0.31598,1.353934 0.26953,0.676262 0.329256,1.106707 0.321934,2.320246 -0.0092,1.519887 0.02332,1.647218 0.867696,3.400942 0.223082,0.463327 0.4656,0.987202 0.53893,1.164167 0.07333,0.176966 0.171734,0.351521 0.218676,0.387902 0.106028,0.08217 6.628188,0.09744 6.780602,0.01587 z"
       id="path4099" />
  </g>
</svg>
