<?xml version="1.0" encoding="UTF-8" standalone="no"?>
<svg
   xmlns:dc="http://purl.org/dc/elements/1.1/"
   xmlns:cc="http://creativecommons.org/ns#"
   xmlns:rdf="http://www.w3.org/1999/02/22-rdf-syntax-ns#"
   xmlns:svg="http://www.w3.org/2000/svg"
   xmlns="http://www.w3.org/2000/svg"
   xmlns:sodipodi="http://sodipodi.sourceforge.net/DTD/sodipodi-0.dtd"
   xmlns:inkscape="http://www.inkscape.org/namespaces/inkscape"
   width="13.229167mm"
   height="13.229167mm"
   viewBox="0 0 13.229169 13.229168"
   version="1.1"
   id="svg8"
   sodipodi:docname="VCS_resized_331.svg"
   inkscape:version="1.0.2-2 (e86c870879, 2021-01-15)">
  <defs
     id="defs2" />
  <sodipodi:namedview
     id="base"
     pagecolor="#ffffff"
     bordercolor="#666666"
     borderopacity="1.0"
     inkscape:pageopacity="0.0"
     inkscape:pageshadow="2"
     inkscape:zoom="4"
     inkscape:cx="12.102547"
     inkscape:cy="19.390206"
     inkscape:document-units="mm"
     inkscape:current-layer="layer1"
     inkscape:document-rotation="0"
     showgrid="false"
     inkscape:window-width="958"
     inkscape:window-height="1008"
     inkscape:window-x="1913"
     inkscape:window-y="0"
     inkscape:window-maximized="0" />
  <metadata
     id="metadata5">
    <rdf:RDF>
      <cc:Work
         rdf:about="">
        <dc:format>image/svg+xml</dc:format>
        <dc:type
           rdf:resource="http://purl.org/dc/dcmitype/StillImage" />
        <dc:title></dc:title>
      </cc:Work>
    </rdf:RDF>
  </metadata>
  <g
     inkscape:label="Ebene 1"
     inkscape:groupmode="layer"
     id="layer1"
     transform="translate(-94.671463,13.553546)">
    <path
       style="fill:#000000;stroke-width:0.264582"
       d="m 100.66823,-1.2110428 c -0.39461,-0.3347701 -1.14472,-1.1598446 -1.14472,-1.2591205 0,-0.2065463 -0.299414,-2.4209434 -0.35052,-2.5923642 -0.01828,-0.061343 -0.758496,-0.457326 -2.116856,-1.1324368 -1.829714,-0.9093766 -2.086766,-1.0518886 -2.072866,-1.1492156 0.02311,-0.1618138 0.42922,-0.2837402 3.005658,-0.9023848 1.678232,-0.4029704 1.570536,-0.3588278 1.727708,-0.7081478 0.07418,-0.1648569 0.178162,-0.4188019 0.231082,-0.5643228 0.377644,-1.0384777 1.414614,-3.3967107 1.509634,-3.4331757 0.15582,-0.05979 0.30915,0.322704 1.11103,2.771717 0.25253,0.7712608 0.49154,1.4651565 0.53111,1.5419915 0.0611,0.1185396 0.18643,0.176514 0.82768,0.3827626 2.55259,0.8210016 3.48591,1.1502412 3.63299,1.2815782 0.06,0.053574 0.0348,0.088854 -0.14447,0.2019982 -0.11944,0.075397 -0.22742,0.1370866 -0.23995,0.1370866 -0.0125,0 -0.19756,0.081653 -0.41116,0.1814516 -0.2136,0.099798 -0.76936,0.3362512 -1.23503,0.525451 -0.79798,0.3242208 -1.60653,0.6593046 -2.04793,0.8487251 -0.23668,0.1015684 -0.23022,0.081781 -0.52867,1.6193724 l -0.22083,1.1377082 -0.37399,0.3899196 c -0.41063,0.428117 -1.14209,1.01237216 -1.26744,1.01237216 -0.0437,0 -0.23383,-0.13093436 -0.42246,-0.29096596 z m 0.70326,-0.1883947 c 0.4026,-0.2916411 1.0554,-0.9528549 1.11158,-1.1258967 0.0299,-0.092098 0.14911,-0.6254728 0.26493,-1.1852778 0.28939,-1.3988309 0.29863,-1.4285511 0.47165,-1.5180257 0.12786,-0.066117 0.8061,-0.351073 2.54803,-1.0705344 0.67838,-0.28019 1.27,-0.5598514 1.27,-0.600339 0,-0.076973 -0.14597,-0.1287922 -2.75167,-0.976819 -0.80015,-0.2604086 -1.27538,-0.4420848 -1.33282,-0.5095266 -0.0491,-0.057648 -0.36754,-0.9434152 -0.70763,-1.9683713 -0.34009,-1.024957 -0.64677,-1.918887 -0.68153,-1.986513 -0.0809,-0.157445 -0.12088,-0.109757 -0.34702,0.413997 -0.0943,0.218282 -0.21395,0.492125 -0.266,0.608542 -0.052,0.116417 -0.2858,0.687917 -0.51946,1.27 -0.621904,1.5493175 -0.627194,1.5598871 -0.819938,1.6385883 -0.09211,0.037611 -0.881852,0.2403688 -1.754978,0.4505728 -1.73343,0.4173226 -2.307734,0.5813076 -2.320204,0.6625056 -0.0045,0.029104 0.830614,0.4696354 1.855744,0.9789584 1.02513,0.5093228 1.89902,0.9617604 1.94198,1.0054166 0.09548,0.097033 0.249024,1.0529031 0.378252,2.3547916 0.02022,0.2037293 0.0557,0.4180419 0.07884,0.47625 0.05317,0.1337613 0.809884,0.9318319 1.052234,1.1097446 0.10024,0.073589 0.20978,0.1337971 0.24342,0.1337971 0.0336,0 0.1617,-0.072837 0.28459,-0.1618605 z"
       id="path6215" />
  </g>
</svg>
