<?xml version="1.0" encoding="UTF-8" standalone="no"?>
<svg
   xmlns:dc="http://purl.org/dc/elements/1.1/"
   xmlns:cc="http://creativecommons.org/ns#"
   xmlns:rdf="http://www.w3.org/1999/02/22-rdf-syntax-ns#"
   xmlns:svg="http://www.w3.org/2000/svg"
   xmlns="http://www.w3.org/2000/svg"
   xmlns:sodipodi="http://sodipodi.sourceforge.net/DTD/sodipodi-0.dtd"
   xmlns:inkscape="http://www.inkscape.org/namespaces/inkscape"
   width="13.229167mm"
   height="13.229167mm"
   viewBox="0 0 13.229169 13.229168"
   version="1.1"
   id="svg8"
   sodipodi:docname="VCS_resized_155.svg"
   inkscape:version="1.0.2-2 (e86c870879, 2021-01-15)">
  <defs
     id="defs2" />
  <sodipodi:namedview
     id="base"
     pagecolor="#ffffff"
     bordercolor="#666666"
     borderopacity="1.0"
     inkscape:pageopacity="0.0"
     inkscape:pageshadow="2"
     inkscape:zoom="2.8284271"
     inkscape:cx="-2.0024992"
     inkscape:cy="38.161608"
     inkscape:document-units="mm"
     inkscape:current-layer="layer1"
     inkscape:document-rotation="0"
     showgrid="false"
     inkscape:window-width="958"
     inkscape:window-height="1008"
     inkscape:window-x="1913"
     inkscape:window-y="0"
     inkscape:window-maximized="0" />
  <metadata
     id="metadata5">
    <rdf:RDF>
      <cc:Work
         rdf:about="">
        <dc:format>image/svg+xml</dc:format>
        <dc:type
           rdf:resource="http://purl.org/dc/dcmitype/StillImage" />
        <dc:title></dc:title>
      </cc:Work>
    </rdf:RDF>
  </metadata>
  <g
     inkscape:label="Ebene 1"
     inkscape:groupmode="layer"
     id="layer1"
     transform="translate(-38.729809,-16.494686)">
    <path
       style="fill:#000000;stroke-width:0.264582"
       d="m 43.164069,29.120177 c -0.334698,-0.02717 -0.657,-0.07012 -0.716228,-0.09544 -0.05923,-0.02533 -0.342544,-0.423936 -0.629596,-0.885801 -0.28705,-0.461865 -0.732346,-1.15525 -0.989548,-1.540855 -0.752846,-1.128688 -0.94546,-1.595262 -0.94546,-2.290206 0,-0.506869 0.1122,-0.814659 0.57519,-1.577881 0.658828,-1.086057 0.67891,-1.444903 0.144794,-2.587404 -0.354634,-0.758578 -0.420204,-1.00959 -0.393628,-1.506866 0.03349,-0.626542 0.379462,-1.178942 0.901242,-1.438956 0.35088,-0.174851 0.625658,-0.174984 1.114958,-5.4e-4 0.523552,0.186657 0.799182,0.263967 1.20286,0.337387 0.189178,0.03441 0.451114,0.08811 0.582084,0.11934 0.357032,0.08514 2.516198,0.05496 3.08492,-0.04312 0.256052,-0.04416 0.708488,-0.178184 1.005418,-0.29784 0.85486,-0.34449 1.223974,-0.330086 1.726814,0.06739 0.354372,0.280116 0.602132,0.780155 0.629882,1.271257 0.02487,0.440161 -0.07824,0.814032 -0.39251,1.423168 -0.225418,0.436923 -0.392442,0.950525 -0.392442,1.206774 0,0.383762 0.17815,0.881338 0.474972,1.326599 0.60081,0.901277 0.714456,1.238745 0.635606,1.887417 -0.08413,0.692126 -0.221126,0.995721 -1.002894,2.2225 -0.259654,0.407458 -0.642822,1.02326 -0.851482,1.368447 -0.564682,0.934149 -0.548788,0.921199 -1.214118,0.989251 -0.74798,0.07651 -3.79327,0.106875 -4.550834,0.04538 z m 4.11685,-0.262398 c 0.362796,-0.02811 0.714064,-0.08375 0.79375,-0.125738 0.0904,-0.04763 0.28755,-0.3151 0.536336,-0.72763 0.216366,-0.358774 0.540042,-0.878535 0.71928,-1.155024 0.823424,-1.270197 0.989948,-1.579604 1.116944,-2.075313 0.155382,-0.606516 0.01926,-1.14977 -0.472622,-1.886269 -0.45873,-0.686852 -0.540156,-0.91208 -0.538254,-1.488835 0.002,-0.589062 0.07497,-0.844384 0.461348,-1.612976 0.207918,-0.413597 0.27128,-0.599929 0.292066,-0.858876 0.04694,-0.584757 -0.18213,-1.086436 -0.623212,-1.364878 -0.361606,-0.228272 -0.580044,-0.225458 -1.326206,0.01709 -0.962462,0.312855 -1.446422,0.381764 -2.70523,0.385181 -1.243582,0.0034 -1.775698,-0.06407 -2.988838,-0.378849 -0.44165,-0.114596 -0.870274,-0.207833 -0.9525,-0.207194 -0.378116,0.0029 -0.827578,0.36578 -1.035578,0.835997 -0.08125,0.183687 -0.09925,0.320789 -0.08373,0.637689 0.0177,0.361384 0.05235,0.473018 0.330566,1.065152 0.334142,0.711162 0.44923,1.118885 0.45217,1.601891 0.0022,0.353996 -0.154112,0.740998 -0.578908,1.433697 -0.36906,0.601814 -0.477566,0.937407 -0.477566,1.477034 0,0.403008 0.0174,0.476637 0.203504,0.861218 0.111928,0.231294 0.500312,0.872972 0.863074,1.425951 0.362762,0.552979 0.775414,1.195917 0.917002,1.42875 0.330424,0.543361 0.43093,0.653188 0.631028,0.689563 0.594046,0.10799 3.19249,0.121007 4.465574,0.02237 z"
       id="path2524" />
  </g>
</svg>
