<?xml version="1.0" encoding="UTF-8" standalone="no"?>
<svg
   xmlns:dc="http://purl.org/dc/elements/1.1/"
   xmlns:cc="http://creativecommons.org/ns#"
   xmlns:rdf="http://www.w3.org/1999/02/22-rdf-syntax-ns#"
   xmlns:svg="http://www.w3.org/2000/svg"
   xmlns="http://www.w3.org/2000/svg"
   xmlns:sodipodi="http://sodipodi.sourceforge.net/DTD/sodipodi-0.dtd"
   xmlns:inkscape="http://www.inkscape.org/namespaces/inkscape"
   width="13.229167mm"
   height="13.229167mm"
   viewBox="0 0 13.229169 13.229168"
   version="1.1"
   id="svg8"
   sodipodi:docname="VCS_resized_190.svg"
   inkscape:version="1.0.2-2 (e86c870879, 2021-01-15)">
  <defs
     id="defs2" />
  <sodipodi:namedview
     id="base"
     pagecolor="#ffffff"
     bordercolor="#666666"
     borderopacity="1.0"
     inkscape:pageopacity="0.0"
     inkscape:pageshadow="2"
     inkscape:zoom="2.8284271"
     inkscape:cx="-28.036484"
     inkscape:cy="30.767383"
     inkscape:document-units="mm"
     inkscape:current-layer="layer1"
     inkscape:document-rotation="0"
     showgrid="false"
     inkscape:window-width="958"
     inkscape:window-height="1008"
     inkscape:window-x="1913"
     inkscape:window-y="0"
     inkscape:window-maximized="0" />
  <metadata
     id="metadata5">
    <rdf:RDF>
      <cc:Work
         rdf:about="">
        <dc:format>image/svg+xml</dc:format>
        <dc:type
           rdf:resource="http://purl.org/dc/dcmitype/StillImage" />
        <dc:title></dc:title>
      </cc:Work>
    </rdf:RDF>
  </metadata>
  <g
     inkscape:label="Ebene 1"
     inkscape:groupmode="layer"
     id="layer1"
     transform="translate(-55.981346,-22.539965)">
    <path
       style="fill:#000000;stroke-width:0.264582"
       d="m 59.564731,35.220505 -0.410974,-0.01547 -0.527684,-1.042862 c -0.290226,-0.573575 -0.680168,-1.334528 -0.866536,-1.691009 -0.436458,-0.834849 -0.5355,-1.219002 -0.5355,-2.077062 0,-0.430905 0.02504,-0.726014 0.07184,-0.846667 0.04024,-0.103744 0.08253,-0.476153 0.09615,-0.846667 0.02599,-0.707334 -0.0066,-0.881155 -0.319474,-1.701791 -0.07389,-0.193828 -0.161702,-0.557987 -0.195138,-0.809242 -0.05837,-0.438614 -0.05603,-0.463785 0.05879,-0.63134 0.17401,-0.253952 1.01376,-0.864583 1.511134,-1.098836 0.23625,-0.111268 0.783938,-0.299323 1.217084,-0.4179 0.433144,-0.118576 1.287598,-0.383563 1.898784,-0.58886 l 1.11125,-0.373268 0.449792,0.145517 c 0.247386,0.08003 0.723636,0.25934 1.058334,0.398456 0.361026,0.150059 0.80225,0.28808 1.084792,0.339337 0.770104,0.139707 1.090598,0.235165 1.450096,0.431908 0.920844,0.503951 1.568634,1.028769 1.62219,1.314242 0.05206,0.277524 -0.06368,0.869369 -0.275886,1.410707 -0.176648,0.450631 -0.196722,0.55482 -0.218238,1.13273 -0.01896,0.509041 -0.0014,0.746219 0.08813,1.184765 0.06151,0.301571 0.111824,0.705731 0.11182,0.898131 -1.8e-5,0.671836 -0.228476,1.477021 -0.612498,2.158707 -0.07897,0.140175 -0.4162,0.790644 -0.749408,1.445487 -0.333208,0.654844 -0.62148,1.206817 -0.640604,1.226607 -0.03478,0.03599 -5.702782,0.08357 -6.478246,0.05438 z m 6.14371,-0.255305 c 0.144952,-0.02899 0.195126,-0.09574 0.447448,-0.595313 1.594782,-3.157472 1.583714,-3.130298 1.587138,-3.896411 0.0014,-0.334109 -0.03459,-0.694965 -0.0979,-0.978958 -0.06985,-0.313343 -0.09835,-0.634399 -0.09397,-1.058333 0.0065,-0.623601 0.05809,-0.85911 0.38712,-1.765716 0.06198,-0.170779 0.117412,-0.46054 0.123182,-0.643913 0.01266,-0.402573 -0.04324,-0.476632 -0.677428,-0.897473 -0.804742,-0.534016 -1.07216,-0.652956 -1.837498,-0.817267 -0.46286,-0.09937 -1.006082,-0.267479 -1.549522,-0.47952 -1.31396,-0.512683 -1.197218,-0.508311 -2.47014,-0.09249 -0.591208,0.193126 -1.408298,0.448892 -1.815756,0.568369 -0.865854,0.25389 -1.527316,0.564028 -2.113514,0.990955 -0.29824,0.217208 -0.431882,0.350478 -0.460498,0.459219 -0.05901,0.22423 0.0724,0.886888 0.292312,1.474038 0.304206,0.812201 0.356804,1.53095 0.169422,2.315053 -0.04974,0.208127 -0.08251,0.58906 -0.08298,0.964617 -10e-4,0.746533 0.0746,1.01527 0.534098,1.900113 0.171744,0.330721 0.531758,1.035162 0.800032,1.565425 0.268276,0.530262 0.524152,0.973985 0.568618,0.986049 0.131606,0.03571 6.111676,0.03719 6.289832,0.0016 z"
       id="path3923" />
  </g>
</svg>
