<?xml version="1.0" encoding="UTF-8" standalone="no"?>
<svg
   xmlns:dc="http://purl.org/dc/elements/1.1/"
   xmlns:cc="http://creativecommons.org/ns#"
   xmlns:rdf="http://www.w3.org/1999/02/22-rdf-syntax-ns#"
   xmlns:svg="http://www.w3.org/2000/svg"
   xmlns="http://www.w3.org/2000/svg"
   xmlns:sodipodi="http://sodipodi.sourceforge.net/DTD/sodipodi-0.dtd"
   xmlns:inkscape="http://www.inkscape.org/namespaces/inkscape"
   width="13.229167mm"
   height="13.229167mm"
   viewBox="0 0 13.229169 13.229168"
   version="1.1"
   id="svg8"
   sodipodi:docname="VCS_resized_221.svg"
   inkscape:version="1.0.2-2 (e86c870879, 2021-01-15)">
  <defs
     id="defs2" />
  <sodipodi:namedview
     id="base"
     pagecolor="#ffffff"
     bordercolor="#666666"
     borderopacity="1.0"
     inkscape:pageopacity="0.0"
     inkscape:pageshadow="2"
     inkscape:zoom="2.8284271"
     inkscape:cx="59.885347"
     inkscape:cy="57.215959"
     inkscape:document-units="mm"
     inkscape:current-layer="layer1"
     inkscape:document-rotation="0"
     showgrid="false"
     inkscape:window-width="958"
     inkscape:window-height="1008"
     inkscape:window-x="1913"
     inkscape:window-y="0"
     inkscape:window-maximized="0" />
  <metadata
     id="metadata5">
    <rdf:RDF>
      <cc:Work
         rdf:about="">
        <dc:format>image/svg+xml</dc:format>
        <dc:type
           rdf:resource="http://purl.org/dc/dcmitype/StillImage" />
        <dc:title></dc:title>
      </cc:Work>
    </rdf:RDF>
  </metadata>
  <g
     inkscape:label="Ebene 1"
     inkscape:groupmode="layer"
     id="layer1"
     transform="translate(-32.718697,-15.542114)">
    <path
       style="fill:#000000;stroke-width:0.264582"
       d="m 35.398882,28.333249 c -0.05086,-0.03719 -0.115774,-0.174111 -0.144254,-0.304271 -0.06327,-0.289143 -0.347054,-1.21687 -0.65639,-2.145797 -0.126754,-0.380633 -0.259308,-0.844976 -0.294566,-1.031875 -0.03526,-0.186898 -0.11209,-0.518408 -0.170736,-0.736689 -0.05864,-0.218282 -0.124028,-0.480219 -0.145296,-0.582084 -0.118642,-0.568264 -0.341894,-1.318105 -0.544286,-1.82811 -0.126506,-0.318779 -0.295862,-0.790897 -0.376346,-1.049151 -0.142252,-0.456448 -0.143606,-0.472222 -0.04851,-0.56518 0.107526,-0.105102 1.027784,-0.627097 1.976374,-1.121051 0.334698,-0.174286 0.763322,-0.40135 0.9525,-0.504587 0.37655,-0.20549 1.225532,-0.827509 2.010832,-1.473264 0.935406,-0.769187 1.332874,-1.078657 1.385378,-1.078657 0.06625,0 0.535212,0.360942 1.313372,1.010861 1.004148,0.838663 1.618652,1.26516 2.592918,1.799619 0.509322,0.279403 1.264804,0.693311 1.67885,0.919796 0.420996,0.230287 0.766016,0.45341 0.782776,0.506216 0.01648,0.05193 -0.05739,0.340359 -0.164154,0.640946 -0.441118,1.24189 -0.565494,1.635474 -0.707808,2.239854 -0.40044,1.700583 -1.41263,5.08192 -1.580078,5.278437 -0.07381,0.08662 -0.32732,0.0926 -3.923508,0.0926 -3.036776,0 -3.86403,-0.01421 -3.937072,-0.06762 z m 7.67604,-0.263111 c 0.112928,-0.150379 1.033008,-3.230631 1.331684,-4.45823 0.317604,-1.305383 0.457532,-1.764193 0.823066,-2.69875 0.102452,-0.261937 0.187066,-0.527886 0.188032,-0.590996 0.0023,-0.147684 0.0077,-0.144353 -1.718036,-1.048052 -1.572582,-0.823488 -1.829626,-0.994835 -3.296446,-2.197435 -0.532462,-0.436549 -0.999304,-0.793725 -1.037426,-0.793725 -0.07564,0 -0.37047,0.222918 -1.36525,1.032253 -1.107988,0.901441 -1.570686,1.21355 -2.52942,1.706201 -1.817464,0.933912 -2.2225,1.163452 -2.2225,1.259524 0,0.103284 0.236484,0.79754 0.479306,1.407125 0.214398,0.538223 0.699396,2.304853 0.79214,2.885413 0.03012,0.188551 0.242914,0.930398 0.472872,1.648548 0.229958,0.71815 0.444704,1.412884 0.477214,1.543853 0.03251,0.130968 0.06909,0.26789 0.08129,0.30427 0.01746,0.05208 0.814456,0.06615 3.747992,0.06615 2.918874,0 3.736564,-0.01433 3.775478,-0.06614 z"
       id="path4435" />
  </g>
</svg>
