<?xml version="1.0" encoding="UTF-8" standalone="no"?>
<svg
   xmlns:dc="http://purl.org/dc/elements/1.1/"
   xmlns:cc="http://creativecommons.org/ns#"
   xmlns:rdf="http://www.w3.org/1999/02/22-rdf-syntax-ns#"
   xmlns:svg="http://www.w3.org/2000/svg"
   xmlns="http://www.w3.org/2000/svg"
   xmlns:sodipodi="http://sodipodi.sourceforge.net/DTD/sodipodi-0.dtd"
   xmlns:inkscape="http://www.inkscape.org/namespaces/inkscape"
   width="13.229167mm"
   height="13.229167mm"
   viewBox="0 0 13.229167 13.229167"
   version="1.1"
   id="svg8"
   sodipodi:docname="VCS_resized_79.svg"
   inkscape:version="1.0.2-2 (e86c870879, 2021-01-15)">
  <defs
     id="defs2" />
  <sodipodi:namedview
     id="base"
     pagecolor="#ffffff"
     bordercolor="#666666"
     borderopacity="1.0"
     inkscape:pageopacity="0.0"
     inkscape:pageshadow="2"
     inkscape:zoom="2.8284271"
     inkscape:cx="-9.2781421"
     inkscape:cy="46.272039"
     inkscape:document-units="mm"
     inkscape:current-layer="layer1"
     inkscape:document-rotation="0"
     showgrid="false"
     inkscape:window-width="958"
     inkscape:window-height="1008"
     inkscape:window-x="1913"
     inkscape:window-y="0"
     inkscape:window-maximized="0" />
  <metadata
     id="metadata5">
    <rdf:RDF>
      <cc:Work
         rdf:about="">
        <dc:format>image/svg+xml</dc:format>
        <dc:type
           rdf:resource="http://purl.org/dc/dcmitype/StillImage" />
        <dc:title></dc:title>
      </cc:Work>
    </rdf:RDF>
  </metadata>
  <g
     inkscape:label="Ebene 1"
     inkscape:groupmode="layer"
     id="layer1"
     transform="translate(-40.654827,-14.348803)">
    <path
       style="fill:#000000;stroke-width:0.264582"
       d="m 44.222613,26.280438 c -0.661272,-0.118338 -1.358532,-0.588 -1.675232,-1.128408 -0.15492,-0.264351 -0.19103,-0.782786 -0.0749,-1.075307 0.12131,-0.305565 0.46569,-0.735563 1.059506,-1.322917 0.342026,-0.338305 0.623164,-0.669459 0.718784,-0.846667 0.139188,-0.257943 0.157048,-0.342505 0.157048,-0.743577 0,-0.415548 -0.01608,-0.485061 -0.196666,-0.850463 -0.134174,-0.271483 -0.391216,-0.623714 -0.80894,-1.108505 -0.766514,-0.889585 -1.023036,-1.361433 -1.06875,-1.965854 -0.04905,-0.648579 0.1744,-1.177135 0.625812,-1.480307 0.189368,-0.127182 0.273534,-0.148377 0.589204,-0.148377 0.313706,0 0.416318,0.02548 0.692496,0.171979 0.367662,0.195023 0.51122,0.328764 1.150832,1.072129 0.584232,0.679001 0.840628,0.907451 1.193716,1.063603 0.524606,0.232006 1.296806,0.139702 1.705048,-0.203809 0.161504,-0.135898 0.392018,-0.391566 0.954682,-1.058862 0.657648,-0.779944 1.364096,-1.177314 1.857338,-1.044732 0.952606,0.256057 1.313548,1.461353 0.76847,2.56615 -0.179212,0.363238 -0.269786,0.483675 -0.996794,1.325464 -0.614828,0.711896 -0.895076,1.438167 -0.756718,1.961057 0.130704,0.493967 0.29316,0.718367 1.068546,1.475979 0.883672,0.863417 1.025884,1.09448 1.025918,1.666875 1.8e-5,0.282693 -0.02716,0.391086 -0.1526,0.608542 -0.195354,0.338668 -0.328194,0.459075 -0.71951,0.652168 -0.594656,0.29343 -1.024242,0.34403 -2.831042,0.333464 -1.047376,-0.0061 -1.9762,0.01891 -2.645834,0.07131 -1.176112,0.09203 -1.17678,0.09204 -1.640416,0.0091 z m 1.5875,-0.301587 c 0.509322,-0.02957 1.616604,-0.05286 2.460624,-0.05176 2.076246,0.0027 2.701008,-0.09551 3.244626,-0.510151 0.260334,-0.198567 0.452942,-0.641788 0.404726,-0.931346 -0.06438,-0.386641 -0.225728,-0.615238 -0.986154,-1.397182 -0.927532,-0.953778 -1.077062,-1.222606 -1.069128,-1.922107 0.0082,-0.727362 0.248206,-1.216353 1.061556,-2.163269 0.45032,-0.524271 0.723636,-0.934729 0.840494,-1.262233 0.09862,-0.276383 0.09505,-0.923786 -0.0064,-1.166718 -0.157832,-0.377837 -0.504676,-0.64653 -0.83458,-0.64653 -0.502582,0 -1.013414,0.353145 -1.626668,1.124533 -0.558342,0.702317 -0.828448,0.95217 -1.257916,1.163596 -0.313738,0.154454 -0.39755,0.172335 -0.801292,0.170952 -0.39634,-0.0014 -0.492648,-0.02179 -0.79587,-0.168849 -0.363756,-0.176419 -0.81234,-0.60307 -1.454202,-1.3831 -0.51051,-0.620403 -0.97964,-0.907132 -1.484206,-0.907132 -0.175208,0 -0.278816,0.03945 -0.451706,0.171979 -0.330834,0.253607 -0.445694,0.510471 -0.443668,0.992188 0.0014,0.351104 0.02457,0.442646 0.200272,0.79375 0.120228,0.240254 0.413012,0.653143 0.74191,1.046255 0.628072,0.750693 0.86018,1.112107 1.025322,1.596518 0.210488,0.617426 0.138362,1.193803 -0.214736,1.715995 -0.10095,0.149292 -0.44578,0.537771 -0.766292,0.863287 -0.32051,0.325516 -0.6441,0.696538 -0.719086,0.824493 -0.17166,0.292915 -0.223758,0.648352 -0.134644,0.91861 0.09608,0.291396 0.628604,0.828595 0.967236,0.975734 0.52005,0.225968 0.659644,0.236105 2.099808,0.152486 z"
       id="path1306" />
  </g>
</svg>
