<?xml version="1.0" encoding="UTF-8" standalone="no"?>
<svg
   xmlns:dc="http://purl.org/dc/elements/1.1/"
   xmlns:cc="http://creativecommons.org/ns#"
   xmlns:rdf="http://www.w3.org/1999/02/22-rdf-syntax-ns#"
   xmlns:svg="http://www.w3.org/2000/svg"
   xmlns="http://www.w3.org/2000/svg"
   xmlns:sodipodi="http://sodipodi.sourceforge.net/DTD/sodipodi-0.dtd"
   xmlns:inkscape="http://www.inkscape.org/namespaces/inkscape"
   width="13.229167mm"
   height="13.229167mm"
   viewBox="0 0 13.229169 13.229168"
   version="1.1"
   id="svg8"
   sodipodi:docname="VCS_resized_328.svg"
   inkscape:version="1.0.2-2 (e86c870879, 2021-01-15)">
  <defs
     id="defs2" />
  <sodipodi:namedview
     id="base"
     pagecolor="#ffffff"
     bordercolor="#666666"
     borderopacity="1.0"
     inkscape:pageopacity="0.0"
     inkscape:pageshadow="2"
     inkscape:zoom="4"
     inkscape:cx="11.27756"
     inkscape:cy="26.159426"
     inkscape:document-units="mm"
     inkscape:current-layer="layer1"
     inkscape:document-rotation="0"
     showgrid="false"
     inkscape:window-width="958"
     inkscape:window-height="1008"
     inkscape:window-x="1913"
     inkscape:window-y="0"
     inkscape:window-maximized="0" />
  <metadata
     id="metadata5">
    <rdf:RDF>
      <cc:Work
         rdf:about="">
        <dc:format>image/svg+xml</dc:format>
        <dc:type
           rdf:resource="http://purl.org/dc/dcmitype/StillImage" />
        <dc:title></dc:title>
      </cc:Work>
    </rdf:RDF>
  </metadata>
  <g
     inkscape:label="Ebene 1"
     inkscape:groupmode="layer"
     id="layer1"
     transform="translate(-94.88974,15.344568)">
    <path
       style="fill:#000000;stroke-width:0.264582"
       d="m 101.2126,-2.7509157 c -0.11626,-0.048156 -0.73063,-0.5685764 -1.19749,-1.0143666 -0.288072,-0.275074 -0.299054,-0.2958158 -0.332738,-0.6284214 -0.09099,-0.8984615 -0.315694,-2.3664963 -0.37748,-2.4661745 -0.03983,-0.064263 -0.635908,-0.397865 -1.408998,-0.7885694 -1.638038,-0.8278295 -2.58458,-1.3323295 -2.687444,-1.4323855 -0.175178,-0.170399 0.10148,-0.260442 2.90746,-0.9462829 1.078024,-0.263492 1.633834,-0.422869 1.67605,-0.480601 0.03474,-0.04751 0.21127,-0.459367 0.39229,-0.915244 0.35062,-0.883013 0.98894,-2.393138 1.26329,-2.988697 0.12243,-0.265764 0.18995,-0.356142 0.25664,-0.343483 0.11654,0.02212 0.33046,0.558178 0.97786,2.450396 0.27881,0.814916 0.55496,1.593479 0.61365,1.73014 l 0.10672,0.248474 0.78364,0.244712 c 2.26609,0.7076479 2.66812,0.8371849 3.03259,0.9771249 0.21828,0.08381 0.45181,0.16798 0.51895,0.187047 0.16258,0.04617 0.13072,0.17925 -0.0692,0.288879 -0.23102,0.126711 -1.17458,0.562237 -2.35479,1.0869159 -1.78162,0.7920482 -1.67491,0.7347654 -1.73779,0.9329188 -0.0523,0.164893 -0.32493,1.4957642 -0.40489,1.9767046 -0.11365,0.6836041 -0.11568,0.6875311 -0.54851,1.0584065 -0.43551,0.3731732 -1.15618,0.8752506 -1.24834,0.8696976 -0.0306,-0.00184 -0.1033,-0.023081 -0.16151,-0.047191 z m 0.52664,-0.472465 c 0.5563,-0.3775592 0.97331,-0.755287 1.05259,-0.9534228 0.042,-0.1049528 0.11563,-0.4050502 0.16363,-0.6668829 0.22126,-1.2068514 0.41294,-2.01508 0.49688,-2.095111 0.0487,-0.046458 0.66009,-0.3401812 1.35859,-0.6527188 1.67217,-0.7481969 2.46063,-1.1271129 2.46063,-1.1825279 0,-0.06026 -0.44666,-0.237871 -1.03188,-0.410321 -1.04371,-0.307556 -3.01817,-0.9344099 -3.04905,-0.9680149 -0.0328,-0.03568 -0.24021,-0.615664 -0.94957,-2.655074 -0.50588,-1.454372 -0.51143,-1.467092 -0.59918,-1.372506 -0.076,0.08191 -0.44358,0.929984 -1.00776,2.325006 -0.5719,1.414123 -0.639716,1.555598 -0.778764,1.624611 -0.07044,0.03496 -0.722568,0.210218 -1.449166,0.3894549 -2.295346,0.566214 -2.635208,0.658293 -2.655606,0.719488 -0.02294,0.06881 0.325774,0.26103 2.250958,1.2407997 0.765978,0.3898244 1.435666,0.7485628 1.488196,0.7971964 0.100378,0.092933 0.116744,0.1838146 0.322372,1.790117 0.156896,1.2256115 0.139588,1.1818833 0.63876,1.6139583 0.59671,0.5165022 0.79313,0.6614584 0.89631,0.6614584 0.0491,0 0.22552,-0.09248 0.39206,-0.2055104 z"
       id="path6167" />
  </g>
</svg>
