<?xml version="1.0" encoding="UTF-8" standalone="no"?>
<svg
   xmlns:dc="http://purl.org/dc/elements/1.1/"
   xmlns:cc="http://creativecommons.org/ns#"
   xmlns:rdf="http://www.w3.org/1999/02/22-rdf-syntax-ns#"
   xmlns:svg="http://www.w3.org/2000/svg"
   xmlns="http://www.w3.org/2000/svg"
   xmlns:sodipodi="http://sodipodi.sourceforge.net/DTD/sodipodi-0.dtd"
   xmlns:inkscape="http://www.inkscape.org/namespaces/inkscape"
   width="13.229167mm"
   height="13.229167mm"
   viewBox="0 0 13.229169 13.229168"
   version="1.1"
   id="svg8"
   sodipodi:docname="VCS_resized_132.svg"
   inkscape:version="1.0.2-2 (e86c870879, 2021-01-15)">
  <defs
     id="defs2" />
  <sodipodi:namedview
     id="base"
     pagecolor="#ffffff"
     bordercolor="#666666"
     borderopacity="1.0"
     inkscape:pageopacity="0.0"
     inkscape:pageshadow="2"
     inkscape:zoom="2.8284271"
     inkscape:cx="-4.8813265"
     inkscape:cy="55.249397"
     inkscape:document-units="mm"
     inkscape:current-layer="layer1"
     inkscape:document-rotation="0"
     showgrid="false"
     inkscape:window-width="958"
     inkscape:window-height="1008"
     inkscape:window-x="1913"
     inkscape:window-y="0"
     inkscape:window-maximized="0" />
  <metadata
     id="metadata5">
    <rdf:RDF>
      <cc:Work
         rdf:about="">
        <dc:format>image/svg+xml</dc:format>
        <dc:type
           rdf:resource="http://purl.org/dc/dcmitype/StillImage" />
        <dc:title></dc:title>
      </cc:Work>
    </rdf:RDF>
  </metadata>
  <g
     inkscape:label="Ebene 1"
     inkscape:groupmode="layer"
     id="layer1"
     transform="translate(-39.491501,-11.973542)">
    <path
       style="fill:#000000;stroke-width:0.264582"
       d="m 44.771001,24.789632 c -0.711382,-0.121023 -1.405942,-0.275659 -1.494536,-0.332742 -0.03618,-0.02331 -0.381464,-0.463006 -0.767292,-0.977094 -0.385828,-0.514088 -0.826634,-1.100076 -0.97957,-1.302196 -0.450358,-0.595194 -0.700996,-1.239588 -0.70085,-1.80191 7.2e-5,-0.283229 0.282906,-0.775344 0.731926,-1.273511 0.71007,-0.787791 0.942968,-1.375915 0.804066,-2.030456 -0.06711,-0.316228 -0.185976,-0.548944 -0.787326,-1.541419 -0.149892,-0.247385 -0.314188,-0.568854 -0.3651,-0.714375 -0.123096,-0.351843 -0.119846,-1.115439 0.0063,-1.49069 0.171352,-0.509547 0.701056,-0.965794 1.124748,-0.968773 0.264696,-0.0019 0.565318,0.129061 1.22639,0.534095 0.340514,0.208632 0.702462,0.426367 0.804326,0.483857 0.101864,0.05749 0.24474,0.14631 0.3175,0.197379 0.699618,0.491039 1.715366,0.65803 2.38125,0.391482 0.426246,-0.170623 1.078292,-0.555028 1.375834,-0.811103 0.160072,-0.137765 0.460526,-0.362908 0.667672,-0.500318 0.640776,-0.425055 1.109258,-0.38873 1.570464,0.121769 0.237368,0.262738 0.33898,0.497492 0.415256,0.959366 0.110248,0.667576 -0.06478,1.235499 -0.641678,2.082039 -0.605022,0.887813 -0.754218,1.489235 -0.532128,2.145051 0.138302,0.408392 0.29451,0.643082 0.79421,1.193229 0.589756,0.649296 0.724898,0.993296 0.636124,1.619239 -0.08493,0.598801 -0.14707,0.698365 -1.917746,3.072467 -0.23071,0.309332 -0.470938,0.588293 -0.533844,0.619912 -0.10477,0.05266 -0.550706,0.156295 -1.225622,0.284822 -0.350342,0.06672 -2.573592,0.09718 -2.910418,0.03988 z m 3.332904,-0.388291 c 0.466792,-0.103419 0.66392,-0.171826 0.746948,-0.259205 0.239728,-0.252293 1.969952,-2.632838 2.08235,-2.865024 0.162254,-0.335171 0.198172,-0.793934 0.08788,-1.122504 -0.08245,-0.245627 -0.231758,-0.462855 -0.905242,-1.317012 -0.430554,-0.54606 -0.520888,-0.762506 -0.545446,-1.306948 -0.03039,-0.673702 0.133642,-1.118955 0.746174,-2.025408 0.54059,-0.799991 0.665294,-1.323387 0.46916,-1.969118 -0.159088,-0.523762 -0.479736,-0.810401 -0.906552,-0.810401 -0.278836,0 -0.590216,0.160293 -1.213218,0.624548 -1.046708,0.779997 -1.504838,0.969173 -2.362104,0.975388 -0.797316,0.0058 -1.160942,-0.129813 -2.346334,-0.874932 -1.327402,-0.834382 -1.805924,-0.91535 -2.272066,-0.384444 -0.21739,0.247593 -0.301444,0.547223 -0.29785,1.061732 0.0035,0.502988 0.04913,0.618201 0.625132,1.578836 0.862144,1.437858 0.891118,2.190505 0.120922,3.141283 -0.940056,1.160468 -1.011014,1.294409 -0.975868,1.842059 0.02879,0.448666 0.185108,0.772228 0.702768,1.454697 0.187644,0.247385 0.609694,0.812595 0.937888,1.256023 0.663594,0.896587 0.649558,0.886774 1.469842,1.027776 0.189178,0.03252 0.439208,0.0779 0.555626,0.100837 0.116416,0.02294 0.759354,0.0351 1.42875,0.02701 1.08993,-0.01316 1.283336,-0.02938 1.851236,-0.155197 z"
       id="path2154" />
  </g>
</svg>
