<?xml version="1.0" encoding="UTF-8" standalone="no"?>
<svg
   xmlns:dc="http://purl.org/dc/elements/1.1/"
   xmlns:cc="http://creativecommons.org/ns#"
   xmlns:rdf="http://www.w3.org/1999/02/22-rdf-syntax-ns#"
   xmlns:svg="http://www.w3.org/2000/svg"
   xmlns="http://www.w3.org/2000/svg"
   xmlns:sodipodi="http://sodipodi.sourceforge.net/DTD/sodipodi-0.dtd"
   xmlns:inkscape="http://www.inkscape.org/namespaces/inkscape"
   width="13.229167mm"
   height="13.229167mm"
   viewBox="0 0 13.229169 13.229168"
   version="1.1"
   id="svg8"
   sodipodi:docname="VCS_resized_177.svg"
   inkscape:version="1.0.2-2 (e86c870879, 2021-01-15)">
  <defs
     id="defs2" />
  <sodipodi:namedview
     id="base"
     pagecolor="#ffffff"
     bordercolor="#666666"
     borderopacity="1.0"
     inkscape:pageopacity="0.0"
     inkscape:pageshadow="2"
     inkscape:zoom="2.8284271"
     inkscape:cx="2.7523006"
     inkscape:cy="43.219859"
     inkscape:document-units="mm"
     inkscape:current-layer="layer1"
     inkscape:document-rotation="0"
     showgrid="false"
     inkscape:window-width="958"
     inkscape:window-height="1008"
     inkscape:window-x="1913"
     inkscape:window-y="0"
     inkscape:window-maximized="0" />
  <metadata
     id="metadata5">
    <rdf:RDF>
      <cc:Work
         rdf:about="">
        <dc:format>image/svg+xml</dc:format>
        <dc:type
           rdf:resource="http://purl.org/dc/dcmitype/StillImage" />
        <dc:title></dc:title>
      </cc:Work>
    </rdf:RDF>
  </metadata>
  <g
     inkscape:label="Ebene 1"
     inkscape:groupmode="layer"
     id="layer1"
     transform="translate(-37.471767,-15.156358)">
    <path
       style="fill:#000000;stroke-width:0.264582"
       d="m 40.849179,27.622051 c -0.06124,-0.05329 -0.236188,-0.335024 -0.38878,-0.626065 -0.152592,-0.291042 -0.569726,-1.041136 -0.926964,-1.666875 -0.728122,-1.275383 -0.865956,-1.620413 -0.908276,-2.273632 -0.0341,-0.526362 0.02485,-0.854229 0.255986,-1.423807 0.41152,-1.014071 0.406942,-1.414392 -0.02941,-2.570713 -0.255978,-0.678338 -0.305616,-1.178218 -0.14773,-1.487703 0.05925,-0.116147 0.29737,-0.392353 0.529146,-0.61379 0.67115,-0.641213 1.345138,-0.897317 2.319208,-0.881257 0.25884,0.0043 0.958774,-0.05661 1.55541,-0.135281 1.206144,-0.159041 1.262082,-0.157166 2.407708,0.08072 0.666856,0.138472 0.801852,0.150358 1.35189,0.119027 0.760894,-0.04334 1.041746,0.02797 1.56932,0.398471 0.425022,0.298481 0.88607,0.746377 1.004966,0.976296 0.152298,0.294509 0.08944,0.918887 -0.147784,1.46794 -0.213102,0.493222 -0.312484,0.912584 -0.311524,1.314531 10e-4,0.434668 0.09031,0.78649 0.369776,1.45732 0.218286,0.523973 0.22022,0.53436 0.197012,1.058333 -0.03286,0.741896 -0.190286,1.164248 -0.9073,2.434167 -0.328652,0.582083 -0.721746,1.298199 -0.873542,1.591368 -0.151796,0.293169 -0.331556,0.602732 -0.399466,0.687917 l -0.12347,0.154881 -3.14242,0.01752 c -2.984122,0.01664 -3.148028,0.01264 -3.253758,-0.07937 z m 6.181878,-0.221964 c 0.0982,-0.03734 0.243412,-0.261907 0.574504,-0.888492 0.243696,-0.461189 0.52973,-0.981401 0.63563,-1.156026 0.638336,-1.052584 0.981124,-1.84707 1.040008,-2.410445 0.03755,-0.359283 -0.06552,-0.820658 -0.301308,-1.348732 -0.258252,-0.578382 -0.325354,-0.95643 -0.26401,-1.487437 0.06035,-0.522443 0.148042,-0.848526 0.317516,-1.180722 0.128846,-0.252557 0.248346,-0.841778 0.222972,-1.099411 -0.03026,-0.307297 -0.698606,-0.943659 -1.317614,-1.25457 -0.247892,-0.124508 -0.324052,-0.135141 -0.967954,-0.135141 -0.557636,0 -0.855546,-0.03101 -1.473982,-0.153417 -1.234956,-0.244438 -1.208268,-0.244117 -2.785924,-0.03351 -0.349248,0.04662 -0.958498,0.10522 -1.353886,0.130219 -0.658926,0.04166 -0.751614,0.06067 -1.11125,0.227955 -0.485262,0.225714 -0.850924,0.512773 -1.153956,0.9059 l -0.232426,0.30153 0.02909,0.382226 c 0.02112,0.277478 0.081,0.500169 0.218524,0.812599 0.420112,0.954438 0.456452,1.735248 0.119398,2.565541 -0.243318,0.59939 -0.317264,1.000853 -0.288526,1.566463 0.0283,0.557088 0.148534,0.843301 0.876828,2.087332 0.261306,0.446348 0.63598,1.109197 0.832608,1.472999 0.19663,0.363802 0.368212,0.673365 0.381294,0.687917 0.09102,0.101248 5.737292,0.108046 6.002468,0.0072 z"
       id="path2876" />
  </g>
</svg>
