<?xml version="1.0" encoding="UTF-8" standalone="no"?>
<svg
   xmlns:dc="http://purl.org/dc/elements/1.1/"
   xmlns:cc="http://creativecommons.org/ns#"
   xmlns:rdf="http://www.w3.org/1999/02/22-rdf-syntax-ns#"
   xmlns:svg="http://www.w3.org/2000/svg"
   xmlns="http://www.w3.org/2000/svg"
   xmlns:sodipodi="http://sodipodi.sourceforge.net/DTD/sodipodi-0.dtd"
   xmlns:inkscape="http://www.inkscape.org/namespaces/inkscape"
   width="13.229167mm"
   height="13.229167mm"
   viewBox="0 0 13.229169 13.229168"
   version="1.1"
   id="svg8"
   sodipodi:docname="VCS_resized_321.svg"
   inkscape:version="1.0.2-2 (e86c870879, 2021-01-15)">
  <defs
     id="defs2" />
  <sodipodi:namedview
     id="base"
     pagecolor="#ffffff"
     bordercolor="#666666"
     borderopacity="1.0"
     inkscape:pageopacity="0.0"
     inkscape:pageshadow="2"
     inkscape:zoom="4"
     inkscape:cx="18.306709"
     inkscape:cy="40.60749"
     inkscape:document-units="mm"
     inkscape:current-layer="layer1"
     inkscape:document-rotation="0"
     showgrid="false"
     inkscape:window-width="958"
     inkscape:window-height="1008"
     inkscape:window-x="1913"
     inkscape:window-y="0"
     inkscape:window-maximized="0" />
  <metadata
     id="metadata5">
    <rdf:RDF>
      <cc:Work
         rdf:about="">
        <dc:format>image/svg+xml</dc:format>
        <dc:type
           rdf:resource="http://purl.org/dc/dcmitype/StillImage" />
        <dc:title></dc:title>
      </cc:Work>
    </rdf:RDF>
  </metadata>
  <g
     inkscape:label="Ebene 1"
     inkscape:groupmode="layer"
     id="layer1"
     transform="translate(-93.029945,19.167284)">
    <path
       style="fill:#000000;stroke-width:0.264582"
       d="m 99.00947,-6.7816227 c -1.014993,-0.5900208 -1.175735,-0.6965192 -1.217637,-0.8067252 -0.02459,-0.064685 -0.06017,-0.2686584 -0.07906,-0.4532734 -0.01888,-0.1846152 -0.07797,-0.6095081 -0.13129,-0.9442061 -0.05332,-0.3346978 -0.125866,-0.822262 -0.16121,-1.0834756 -0.055,-0.406475 -0.08521,-0.494192 -0.209616,-0.608542 -0.07995,-0.07348 -0.603698,-0.383639 -1.163896,-0.689232 -1.77827,-0.970066 -2.775614,-1.558898 -2.792958,-1.648963 -0.02517,-0.130705 0.03459,-0.147545 3.37569,-0.951233 1.245292,-0.299549 1.185642,-0.272093 1.339148,-0.616395 0.07414,-0.166302 0.205652,-0.480962 0.292238,-0.699243 0.216966,-0.546963 1.090051,-2.604485 1.264031,-2.978826 0.24945,-0.536736 0.33797,-0.427244 0.91098,1.126742 0.47945,1.30024 1.07334,2.83393 1.11842,2.888247 0.0289,0.03483 0.16494,0.09131 0.30231,0.125519 0.13736,0.0342 0.7141,0.193421 1.28163,0.353815 2.32035,0.655771 2.92024,0.855018 2.89944,0.963014 -0.009,0.04603 -0.8487,0.519653 -1.94699,1.098004 -1.06228,0.559384 -1.98449,1.061023 -2.04936,1.114753 -0.10029,0.08307 -0.14579,0.256068 -0.30405,1.156024 -0.26559,1.5103417 -0.34719,1.9446373 -0.37332,1.9869219 -0.037,0.059865 -0.74091,0.4672346 -1.19377,0.69086 -0.22964,0.1133972 -0.49574,0.2061766 -0.59133,0.2061766 -0.10912,0 -0.32105,-0.085592 -0.5694,-0.2299622 z m 1.10654,-0.255616 c 0.58666,-0.2844524 0.94764,-0.5065358 1.00865,-0.6205284 0.0267,-0.049814 0.17051,-0.7559596 0.31967,-1.5692115 0.14916,-0.8132524 0.2877,-1.4935614 0.30787,-1.5117984 0.0202,-0.01824 0.45339,-0.25328 0.96271,-0.522318 0.50933,-0.269038 1.33674,-0.706554 1.8387,-0.972259 0.50196,-0.265704 0.91273,-0.510132 0.91281,-0.543172 1.1e-4,-0.03304 -0.17248,-0.108123 -0.38349,-0.166849 -0.211,-0.05873 -1.00277,-0.284178 -1.75947,-0.501003 -0.75671,-0.216825 -1.48775,-0.424301 -1.62454,-0.461057 -0.36378,-0.09775 -0.33176,-0.04371 -0.86325,-1.456851 -0.16419,-0.436563 -0.3765,-0.996156 -0.47179,-1.243542 -0.0953,-0.247385 -0.26199,-0.681963 -0.37043,-0.965729 -0.10844,-0.283766 -0.21511,-0.515938 -0.23705,-0.515938 -0.0372,0 -0.74508,1.63472 -1.381767,3.190786 -0.152406,0.372484 -0.315708,0.721991 -0.36289,0.776681 -0.08658,0.100357 -0.426838,0.191431 -2.996204,0.801965 -0.611188,0.145231 -1.135062,0.288698 -1.164168,0.318817 -0.06845,0.07083 0.01854,0.130058 0.945984,0.644102 2.36154,1.308907 2.72142,1.519886 2.758824,1.61736 0.04272,0.111312 0.447484,2.8652139 0.449092,3.0554593 1.06e-4,0.00992 0.639659,0.3898308 0.656279,0.3898308 0.008,0 0.20167,0.1071562 0.43149,0.238125 0.22982,0.1309688 0.45146,0.238125 0.49252,0.238125 0.0411,0 0.27977,-0.099447 0.53045,-0.2209948 z"
       id="path6053" />
  </g>
</svg>
