<?xml version="1.0" encoding="UTF-8" standalone="no"?>
<svg
   xmlns:dc="http://purl.org/dc/elements/1.1/"
   xmlns:cc="http://creativecommons.org/ns#"
   xmlns:rdf="http://www.w3.org/1999/02/22-rdf-syntax-ns#"
   xmlns:svg="http://www.w3.org/2000/svg"
   xmlns="http://www.w3.org/2000/svg"
   xmlns:sodipodi="http://sodipodi.sourceforge.net/DTD/sodipodi-0.dtd"
   xmlns:inkscape="http://www.inkscape.org/namespaces/inkscape"
   width="13.229167mm"
   height="13.229167mm"
   viewBox="0 0 13.229169 13.229168"
   version="1.1"
   id="svg8"
   sodipodi:docname="VCS_resized_133.svg"
   inkscape:version="1.0.2-2 (e86c870879, 2021-01-15)">
  <defs
     id="defs2" />
  <sodipodi:namedview
     id="base"
     pagecolor="#ffffff"
     bordercolor="#666666"
     borderopacity="1.0"
     inkscape:pageopacity="0.0"
     inkscape:pageshadow="2"
     inkscape:zoom="2.8284271"
     inkscape:cx="-2.564465"
     inkscape:cy="42.955281"
     inkscape:document-units="mm"
     inkscape:current-layer="layer1"
     inkscape:document-rotation="0"
     showgrid="false"
     inkscape:window-width="958"
     inkscape:window-height="1008"
     inkscape:window-x="1913"
     inkscape:window-y="0"
     inkscape:window-maximized="0" />
  <metadata
     id="metadata5">
    <rdf:RDF>
      <cc:Work
         rdf:about="">
        <dc:format>image/svg+xml</dc:format>
        <dc:type
           rdf:resource="http://purl.org/dc/dcmitype/StillImage" />
        <dc:title></dc:title>
      </cc:Work>
    </rdf:RDF>
  </metadata>
  <g
     inkscape:label="Ebene 1"
     inkscape:groupmode="layer"
     id="layer1"
     transform="translate(-38.878498,-15.22636)">
    <path
       style="fill:#000000;stroke-width:0.264582"
       d="m 44.158611,28.032641 c -0.116416,-0.02145 -0.366446,-0.06622 -0.555624,-0.09949 -0.651624,-0.114602 -0.960152,-0.206059 -1.029848,-0.305277 -0.0381,-0.05424 -0.489224,-0.658206 -1.0025,-1.342154 -1.160134,-1.545897 -1.349708,-1.915213 -1.353026,-2.635881 -0.0018,-0.386936 0.179428,-0.746214 0.634916,-1.258841 0.742016,-0.835098 0.933146,-1.245012 0.88393,-1.895761 -0.03285,-0.434301 -0.128248,-0.652442 -0.689992,-1.5777 -0.460314,-0.758188 -0.539848,-0.999654 -0.536122,-1.62765 0.0026,-0.43599 0.02304,-0.547012 0.15413,-0.836519 0.17823,-0.393622 0.52062,-0.722681 0.84247,-0.80967 0.30573,-0.08263 0.65744,0.0092 1.115436,0.291361 0.59737,0.367977 1.619278,0.959499 1.913956,1.107874 0.508722,0.256151 1.34483,0.318453 1.875332,0.13974 0.44233,-0.149011 1.083362,-0.497938 1.398192,-0.761066 1.098786,-0.91834 1.568578,-1.028146 2.163602,-0.505708 0.418346,0.367313 0.636932,1.117389 0.516344,1.771841 -0.0814,0.441762 -0.210486,0.723687 -0.59317,1.29548 -0.513664,0.767496 -0.639698,1.083318 -0.636524,1.595033 0.0025,0.39483 0.149094,0.856105 0.369814,1.163259 0.07582,0.105509 0.30178,0.379353 0.502134,0.608542 0.509508,0.582831 0.64246,0.881226 0.636296,1.428083 -0.0041,0.363688 -0.03,0.483066 -0.169502,0.781167 -0.139586,0.298289 -1.81585,2.671261 -2.145118,3.036698 -0.107828,0.119671 -0.320414,0.195891 -0.773272,0.277245 -1.100066,0.197622 -1.23206,0.209585 -2.251854,0.204092 -0.582082,-0.0031 -1.153582,-0.02325 -1.27,-0.0447 z m 3.34661,-0.382661 c 0.355748,-0.0778 0.639066,-0.170036 0.70469,-0.229426 0.06036,-0.05463 0.376046,-0.463284 0.701518,-0.908128 1.580652,-2.160382 1.602134,-2.199255 1.558088,-2.819624 -0.03062,-0.431248 -0.139442,-0.646123 -0.633972,-1.251812 -0.51505,-0.63082 -0.702158,-0.932917 -0.809814,-1.307475 -0.193944,-0.674786 0.02727,-1.419275 0.732834,-2.466341 0.468626,-0.695446 0.601042,-1.25353 0.434376,-1.830736 -0.157908,-0.546876 -0.494746,-0.868898 -0.909268,-0.869271 -0.277904,-2.4e-4 -0.669788,0.202646 -1.278512,0.661944 -0.906608,0.68406 -1.699264,0.96958 -2.519098,0.907398 -0.415376,-0.0315 -0.818442,-0.126734 -1.089326,-0.257364 -0.07276,-0.03509 -0.477572,-0.265608 -0.899584,-0.512266 -1.333482,-0.779399 -1.736128,-0.917319 -2.111438,-0.723238 -0.425096,0.219825 -0.676046,0.790422 -0.623466,1.417601 0.03558,0.424402 0.141096,0.669472 0.666686,1.548435 0.441616,0.738531 0.60683,1.213487 0.607434,1.74625 6e-4,0.498997 -0.14222,0.794152 -0.75519,1.561042 -0.618314,0.773575 -0.77495,1.081082 -0.77003,1.511711 0.0055,0.483319 0.205046,0.840777 1.23853,2.218914 0.501988,0.669396 0.92482,1.24773 0.939628,1.285187 0.04712,0.119204 0.289262,0.206557 0.887222,0.320069 0.320146,0.06077 0.629708,0.121615 0.687916,0.135203 0.05821,0.01359 0.677334,0.01735 1.375834,0.0084 1.113858,-0.01433 1.343146,-0.03233 1.864942,-0.146441 z"
       id="path2170" />
  </g>
</svg>
