<?xml version="1.0" encoding="UTF-8" standalone="no"?>
<svg
   xmlns:dc="http://purl.org/dc/elements/1.1/"
   xmlns:cc="http://creativecommons.org/ns#"
   xmlns:rdf="http://www.w3.org/1999/02/22-rdf-syntax-ns#"
   xmlns:svg="http://www.w3.org/2000/svg"
   xmlns="http://www.w3.org/2000/svg"
   xmlns:sodipodi="http://sodipodi.sourceforge.net/DTD/sodipodi-0.dtd"
   xmlns:inkscape="http://www.inkscape.org/namespaces/inkscape"
   width="13.229167mm"
   height="13.229167mm"
   viewBox="0 0 13.229167 13.229167"
   version="1.1"
   id="svg8"
   sodipodi:docname="VCS_resized_42.svg"
   inkscape:version="1.0.2-2 (e86c870879, 2021-01-15)">
  <defs
     id="defs2" />
  <sodipodi:namedview
     id="base"
     pagecolor="#ffffff"
     bordercolor="#666666"
     borderopacity="1.0"
     inkscape:pageopacity="0.0"
     inkscape:pageshadow="2"
     inkscape:zoom="2.8284271"
     inkscape:cx="-2.93459"
     inkscape:cy="46.693696"
     inkscape:document-units="mm"
     inkscape:current-layer="layer1"
     inkscape:document-rotation="0"
     showgrid="false"
     inkscape:window-width="958"
     inkscape:window-height="1008"
     inkscape:window-x="1913"
     inkscape:window-y="0"
     inkscape:window-maximized="0" />
  <metadata
     id="metadata5">
    <rdf:RDF>
      <cc:Work
         rdf:about="">
        <dc:format>image/svg+xml</dc:format>
        <dc:type
           rdf:resource="http://purl.org/dc/dcmitype/StillImage" />
        <dc:title></dc:title>
      </cc:Work>
    </rdf:RDF>
  </metadata>
  <g
     inkscape:label="Ebene 1"
     inkscape:groupmode="layer"
     id="layer1"
     transform="translate(-38.976429,-14.237239)">
    <path
       style="fill:#000000;stroke-width:0.264582"
       d="m 42.325588,25.769125 c -0.358018,-0.06417 -0.563144,-0.220498 -0.737966,-0.562414 -0.306572,-0.599591 -0.180338,-1.243278 0.387428,-1.975567 0.832424,-1.073634 0.989742,-1.384344 0.982832,-1.941133 -0.0067,-0.536163 -0.296358,-0.999144 -1.02658,-1.640593 -0.73231,-0.643281 -1.062806,-1.003378 -1.228072,-1.338058 -0.37418,-0.757751 -0.152916,-1.433586 0.534804,-1.633511 0.653176,-0.189884 1.22122,0.02133 2.302916,0.85629 0.607434,0.468876 1.024908,0.669929 1.47714,0.711381 0.666642,0.0611 1.000824,-0.122978 1.663014,-0.916069 0.89507,-1.072004 1.38319,-1.414457 2.020458,-1.417505 0.620918,-0.003 0.917284,0.303475 1.009042,1.043357 0.0784,0.63219 -0.06003,0.975057 -0.782168,1.93729 -1.07663,1.43458 -0.990636,2.135297 0.400288,3.261708 0.722012,0.584707 0.997544,0.880389 1.183528,1.270085 0.140748,0.294908 0.158994,0.383742 0.141698,0.689851 -0.02371,0.419554 -0.115212,0.564241 -0.494108,0.781291 -0.242764,0.139068 -0.30822,0.151567 -0.79375,0.151567 h -0.529166 l -0.899584,-0.431022 c -1.158944,-0.555291 -1.635978,-0.66861 -2.205526,-0.523922 -0.446458,0.113418 -0.870604,0.380863 -1.445724,0.911599 -0.598384,0.552206 -0.962286,0.753732 -1.41299,0.782503 -0.183292,0.0117 -0.429674,0.004 -0.547514,-0.01713 z m 1.044074,-0.382959 c 0.125682,-0.06411 0.447616,-0.31444 0.715406,-0.556289 0.612368,-0.553044 0.961982,-0.785687 1.42261,-0.946643 0.6734,-0.235305 1.29557,-0.108721 2.55497,0.519823 l 0.760302,0.379454 0.483238,-0.002 c 0.692944,-0.0028 1.006798,-0.199124 1.07136,-0.670159 0.06592,-0.480965 -0.268922,-0.974221 -1.140494,-1.680046 -0.945364,-0.765583 -1.303698,-1.286053 -1.295152,-1.881175 0.0086,-0.596962 0.20239,-1.035637 0.820284,-1.856585 0.556754,-0.739716 0.708058,-1.057079 0.70424,-1.477165 -0.0037,-0.4102 -0.09572,-0.678818 -0.287806,-0.840452 -0.49203,-0.414015 -1.255316,-0.127041 -1.953926,0.734619 -0.991844,1.223334 -1.547288,1.556821 -2.346388,1.408769 -0.459696,-0.08517 -0.91359,-0.326418 -1.635706,-0.869391 -0.769246,-0.578412 -1.06771,-0.72078 -1.538234,-0.733744 -0.935994,-0.02579 -1.191754,0.7556 -0.534402,1.632696 0.06939,0.09258 0.370276,0.388749 0.668644,0.65815 0.944702,0.852987 1.321378,1.370868 1.39668,1.920248 0.06882,0.502093 -0.213724,1.235639 -0.693708,1.80102 -0.30554,0.359901 -0.686098,0.961552 -0.768296,1.214654 -0.08434,0.259703 -0.04258,0.765006 0.08043,0.973248 0.241776,0.409296 0.984468,0.542025 1.515948,0.270921 z"
       id="path682" />
  </g>
</svg>
