<?xml version="1.0" encoding="UTF-8" standalone="no"?>
<svg
   xmlns:dc="http://purl.org/dc/elements/1.1/"
   xmlns:cc="http://creativecommons.org/ns#"
   xmlns:rdf="http://www.w3.org/1999/02/22-rdf-syntax-ns#"
   xmlns:svg="http://www.w3.org/2000/svg"
   xmlns="http://www.w3.org/2000/svg"
   xmlns:sodipodi="http://sodipodi.sourceforge.net/DTD/sodipodi-0.dtd"
   xmlns:inkscape="http://www.inkscape.org/namespaces/inkscape"
   width="13.229167mm"
   height="13.229167mm"
   viewBox="0 0 13.229169 13.229168"
   version="1.1"
   id="svg8"
   sodipodi:docname="VCS_resized_313.svg"
   inkscape:version="1.0.2-2 (e86c870879, 2021-01-15)">
  <defs
     id="defs2" />
  <sodipodi:namedview
     id="base"
     pagecolor="#ffffff"
     bordercolor="#666666"
     borderopacity="1.0"
     inkscape:pageopacity="0.0"
     inkscape:pageshadow="2"
     inkscape:zoom="4"
     inkscape:cx="18.269915"
     inkscape:cy="26.623856"
     inkscape:document-units="mm"
     inkscape:current-layer="layer1"
     inkscape:document-rotation="0"
     showgrid="false"
     inkscape:window-width="958"
     inkscape:window-height="1008"
     inkscape:window-x="1913"
     inkscape:window-y="0"
     inkscape:window-maximized="0" />
  <metadata
     id="metadata5">
    <rdf:RDF>
      <cc:Work
         rdf:about="">
        <dc:format>image/svg+xml</dc:format>
        <dc:type
           rdf:resource="http://purl.org/dc/dcmitype/StillImage" />
        <dc:title></dc:title>
      </cc:Work>
    </rdf:RDF>
  </metadata>
  <g
     inkscape:label="Ebene 1"
     inkscape:groupmode="layer"
     id="layer1"
     transform="translate(-93.03968,15.467448)">
    <path
       style="fill:#000000;stroke-width:0.264582"
       d="m 98.622313,-3.135758 c -0.465666,-0.1649926 -0.872948,-0.3170984 -0.90507,-0.3380122 -0.03212,-0.020914 -0.08738,-0.2590392 -0.122806,-0.5291666 -0.03542,-0.270128 -0.107752,-0.764985 -0.16073,-1.099683 -0.05298,-0.3346978 -0.12585,-0.8228542 -0.161932,-1.0847916 -0.03608,-0.2619374 -0.08392,-0.5251132 -0.106302,-0.5848344 -0.02402,-0.064098 -0.427682,-0.3438366 -0.985262,-0.6827934 -0.51951,-0.3158146 -1.116598,-0.68367 -1.32686,-0.8174566 -0.210264,-0.1337872 -0.668654,-0.418919 -1.018646,-0.6336268 -0.3937,-0.2415206 -0.63635,-0.4233026 -0.63635,-0.476723 0,-0.093207 0.128456,-0.1298322 2.248958,-0.6412274 1.995264,-0.481192 2.221764,-0.540931 2.280478,-0.601474 0.03189,-0.03288 0.132244,-0.238375 0.223014,-0.456656 0.793776,-1.908846 1.563014,-3.68986 1.617848,-3.745799 0.111048,-0.113285 0.226031,-0.02003 0.365567,0.296476 0.20415,0.463089 0.96259,2.263924 1.1407,2.70849 0.0875,0.218281 0.24238,0.586581 0.34429,0.818445 l 0.18528,0.42157 1.92204,0.483487 c 2.22941,0.5608074 2.53087,0.6404046 2.56871,0.6782416 0.0798,0.079763 -0.13377,0.2380638 -1.28957,0.956008 -0.69416,0.4311872 -1.40498,0.8728862 -1.57961,0.9815538 -0.17462,0.108667 -0.46778,0.2883408 -0.65146,0.3992758 -0.18367,0.1109346 -0.35334,0.2390892 -0.37703,0.284788 -0.0237,0.045699 -0.11924,0.5950574 -0.21232,1.220797 -0.28135,1.8913904 -0.32479,2.1155698 -0.41938,2.1641336 -0.27146,0.1393772 -1.726328,0.5868754 -1.896207,0.583249 -0.110374,-0.00235 -0.581682,-0.1392782 -1.04735,-0.3042708 z m 1.968047,-0.2239868 0.80398,-0.2679584 0.0549,-0.2744374 c 0.0589,-0.294521 0.19544,-1.1413856 0.37848,-2.3474638 l 0.11384,-0.7501096 0.80101,-0.4913746 c 0.96786,-0.5937292 2.80323,-1.7402938 2.83389,-1.7703388 0.0121,-0.011884 0.0111,-0.03255 -0.002,-0.045921 -0.0134,-0.013372 -0.94008,-0.2531968 -2.05934,-0.5329444 -1.11927,-0.2797472 -2.06307,-0.5366982 -2.09733,-0.5710002 -0.0577,-0.05774 -0.52741,-1.151244 -1.20882,-2.814035 -0.466738,-1.138935 -0.500223,-1.204717 -0.579679,-1.138774 -0.03865,0.03208 -0.08554,0.119143 -0.104198,0.193478 -0.01866,0.07433 -0.20118,0.519843 -0.405608,0.990017 -0.204428,0.470174 -0.441272,1.02155 -0.526316,1.225279 -0.08505,0.203729 -0.2697,0.64426 -0.41034,0.978958 l -0.255712,0.608542 -1.107472,0.271058 c -0.60911,0.1490822 -1.476566,0.358927 -1.92768,0.466322 -0.999114,0.2378546 -1.172798,0.2906346 -1.13858,0.3460004 0.02557,0.041371 1.104784,0.7154164 2.63709,1.6470454 1.086886,0.6608176 1.014424,0.5675122 1.146626,1.4764492 0.283742,1.9508172 0.365144,2.4491028 0.406258,2.4867706 0.05596,0.05127 1.657214,0.5783944 1.763972,0.58069 0.04363,9.4e-4 0.441109,-0.1188752 0.883299,-0.2662524 z"
       id="path5925" />
  </g>
</svg>
