<?xml version="1.0" encoding="UTF-8" standalone="no"?>
<svg
   xmlns:dc="http://purl.org/dc/elements/1.1/"
   xmlns:cc="http://creativecommons.org/ns#"
   xmlns:rdf="http://www.w3.org/1999/02/22-rdf-syntax-ns#"
   xmlns:svg="http://www.w3.org/2000/svg"
   xmlns="http://www.w3.org/2000/svg"
   xmlns:sodipodi="http://sodipodi.sourceforge.net/DTD/sodipodi-0.dtd"
   xmlns:inkscape="http://www.inkscape.org/namespaces/inkscape"
   width="13.229167mm"
   height="13.229167mm"
   viewBox="0 0 13.229167 13.229167"
   version="1.1"
   id="svg8"
   sodipodi:docname="VCS_resized_25.svg"
   inkscape:version="1.0.2-2 (e86c870879, 2021-01-15)">
  <defs
     id="defs2" />
  <sodipodi:namedview
     id="base"
     pagecolor="#ffffff"
     bordercolor="#666666"
     borderopacity="1.0"
     inkscape:pageopacity="0.0"
     inkscape:pageshadow="2"
     inkscape:zoom="2.8284271"
     inkscape:cx="6.1414092"
     inkscape:cy="42.149412"
     inkscape:document-units="mm"
     inkscape:current-layer="layer1"
     inkscape:document-rotation="0"
     showgrid="false"
     inkscape:window-width="958"
     inkscape:window-height="1008"
     inkscape:window-x="1913"
     inkscape:window-y="0"
     inkscape:window-maximized="0" />
  <metadata
     id="metadata5">
    <rdf:RDF>
      <cc:Work
         rdf:about="">
        <dc:format>image/svg+xml</dc:format>
        <dc:type
           rdf:resource="http://purl.org/dc/dcmitype/StillImage" />
        <dc:title></dc:title>
      </cc:Work>
    </rdf:RDF>
  </metadata>
  <g
     inkscape:label="Ebene 1"
     inkscape:groupmode="layer"
     id="layer1"
     transform="translate(-36.575073,-15.43958)">
    <path
       style="fill:#000000;stroke-width:0.264582"
       d="m 40.30147,27.047743 c -0.05997,-0.042 -0.174278,-0.221757 -0.254022,-0.399453 -0.120296,-0.268051 -0.144522,-0.395122 -0.142228,-0.746013 0.0032,-0.494405 0.07512,-0.733573 0.429598,-1.429254 0.348932,-0.684794 0.422088,-0.904345 0.456692,-1.370578 0.02403,-0.323749 0.01026,-0.44075 -0.07476,-0.635 -0.159296,-0.363964 -0.574486,-0.758307 -1.308752,-1.243038 -0.99092,-0.654162 -1.508126,-1.282266 -1.508126,-1.831495 0,-0.372006 0.545598,-0.653897 1.247564,-0.644573 0.413288,0.0055 1.032104,0.167193 1.378706,0.360269 0.477932,0.266235 1.248802,0.512988 1.689872,0.540922 0.397468,0.02517 0.442878,0.01704 0.661458,-0.118495 0.356998,-0.221359 0.497794,-0.370745 0.97862,-1.038324 0.709664,-0.985298 1.075954,-1.294546 1.721292,-1.453233 0.427066,-0.105014 0.585026,-0.05427 0.73282,0.235431 0.05871,0.115076 0.135174,0.381402 0.169926,0.591836 0.08511,0.515373 0.0069,0.879915 -0.33448,1.557992 -0.539582,1.071927 -0.677188,1.688714 -0.47869,2.145625 0.11149,0.256631 0.44377,0.584599 1.008504,0.995421 0.957538,0.696568 1.216082,0.909006 1.397476,1.148264 0.265548,0.350251 0.370346,0.58193 0.399428,0.883021 0.02893,0.299487 -0.01884,0.370007 -0.371818,0.548871 -0.53462,0.270913 -1.31556,0.199434 -2.104428,-0.192616 -0.4913,-0.244166 -1.235114,-0.473445 -1.649582,-0.508481 -0.359742,-0.03041 -0.418462,-0.02064 -0.697668,0.116075 -0.321222,0.157286 -0.82843,0.649286 -1.116984,1.083491 -0.564322,0.849167 -0.961512,1.210544 -1.510072,1.373912 -0.422112,0.125711 -0.574016,0.131915 -0.720344,0.02942 z m 0.81374,-0.311789 c 0.286648,-0.103956 0.67784,-0.486123 1.053438,-1.029136 0.409518,-0.592054 0.932688,-1.13372 1.31393,-1.360385 0.22948,-0.136436 0.31373,-0.15664 0.635,-0.15228 0.597332,0.0081 1.180392,0.161801 1.93146,0.509137 0.608002,0.281174 0.783344,0.3263 1.2712,0.327156 0.542944,9.6e-4 0.807524,-0.114384 0.836558,-0.364675 0.06287,-0.541999 -0.240404,-0.902089 -1.520458,-1.805269 -0.614876,-0.433844 -1.088356,-0.898135 -1.220456,-1.196772 -0.100168,-0.226444 -0.104882,-0.28842 -0.05526,-0.726433 0.06102,-0.538676 0.133864,-0.747207 0.568618,-1.627848 0.299948,-0.607578 0.305,-0.625362 0.304452,-1.071481 -4e-4,-0.355735 -0.02433,-0.499332 -0.110708,-0.665314 -0.102826,-0.197593 -0.127214,-0.212767 -0.366776,-0.22821 -0.151554,-0.0098 -0.35207,0.01991 -0.48973,0.07248 -0.279268,0.106653 -0.769362,0.571433 -1.029328,0.976164 -0.439174,0.683728 -0.99739,1.265336 -1.395992,1.454484 -0.39818,0.188949 -1.155872,0.04633 -2.24782,-0.423117 -0.855376,-0.367736 -1.240016,-0.469378 -1.600284,-0.422873 -0.380364,0.0491 -0.715288,0.216197 -0.755648,0.377003 -0.116326,0.463482 0.281094,0.947428 1.384736,1.686218 0.582158,0.389703 1.181562,0.974599 1.341468,1.308998 0.0994,0.207873 0.11605,0.315538 0.09818,0.635 -0.0283,0.50579 -0.141202,0.880246 -0.45481,1.508378 -0.474116,0.949619 -0.549528,1.430248 -0.318778,2.031673 0.09281,0.241909 0.451888,0.323145 0.827014,0.187102 z"
       id="path392" />
  </g>
</svg>
