<?xml version="1.0" encoding="UTF-8" standalone="no"?>
<svg
   xmlns:dc="http://purl.org/dc/elements/1.1/"
   xmlns:cc="http://creativecommons.org/ns#"
   xmlns:rdf="http://www.w3.org/1999/02/22-rdf-syntax-ns#"
   xmlns:svg="http://www.w3.org/2000/svg"
   xmlns="http://www.w3.org/2000/svg"
   xmlns:sodipodi="http://sodipodi.sourceforge.net/DTD/sodipodi-0.dtd"
   xmlns:inkscape="http://www.inkscape.org/namespaces/inkscape"
   width="13.229167mm"
   height="13.229167mm"
   viewBox="0 0 13.229167 13.229167"
   version="1.1"
   id="svg8"
   sodipodi:docname="VCS_resized_70.svg"
   inkscape:version="1.0.2-2 (e86c870879, 2021-01-15)">
  <defs
     id="defs2" />
  <sodipodi:namedview
     id="base"
     pagecolor="#ffffff"
     bordercolor="#666666"
     borderopacity="1.0"
     inkscape:pageopacity="0.0"
     inkscape:pageshadow="2"
     inkscape:zoom="2.8284271"
     inkscape:cx="4.1302266"
     inkscape:cy="31.072798"
     inkscape:document-units="mm"
     inkscape:current-layer="layer1"
     inkscape:document-rotation="0"
     showgrid="false"
     inkscape:window-width="958"
     inkscape:window-height="1008"
     inkscape:window-x="1913"
     inkscape:window-y="0"
     inkscape:window-maximized="0" />
  <metadata
     id="metadata5">
    <rdf:RDF>
      <cc:Work
         rdf:about="">
        <dc:format>image/svg+xml</dc:format>
        <dc:type
           rdf:resource="http://purl.org/dc/dcmitype/StillImage" />
        <dc:title></dc:title>
      </cc:Work>
    </rdf:RDF>
  </metadata>
  <g
     inkscape:label="Ebene 1"
     inkscape:groupmode="layer"
     id="layer1"
     transform="translate(-37.107197,-18.370268)">
    <path
       style="fill:#000000;stroke-width:0.264582"
       d="m 40.331208,30.145605 c -0.600966,-0.151294 -1.236424,-0.683862 -1.348882,-1.130474 -0.182082,-0.723116 0.01576,-1.181684 0.869624,-2.015616 0.699922,-0.683585 0.943902,-1.035592 1.030274,-1.486449 0.05172,-0.269955 0.04768,-0.377357 -0.02483,-0.661459 -0.117804,-0.46155 -0.332512,-0.797638 -0.95575,-1.496071 -0.666276,-0.746663 -0.792768,-0.91522 -0.96901,-1.291269 -0.12466,-0.26599 -0.14224,-0.368904 -0.14224,-0.832668 0,-0.441876 0.01888,-0.564083 0.114426,-0.740833 0.139668,-0.258364 0.416066,-0.529683 0.616622,-0.605296 0.291456,-0.109883 0.72478,-0.0682 1.094576,0.105288 0.293494,0.137691 0.475946,0.296118 1.243542,1.079785 0.818758,0.835901 0.92811,0.9288 1.217084,1.033965 0.444156,0.161638 0.907944,0.133267 1.327294,-0.0812 0.249808,-0.127757 0.431406,-0.296808 0.946134,-0.880759 0.679862,-0.771296 0.916976,-0.98643 1.30442,-1.18351 0.376368,-0.191445 0.718956,-0.218047 1.030922,-0.08005 0.512818,0.226844 0.764646,0.627208 0.803688,1.277728 0.04385,0.730691 -0.19381,1.236189 -1.017366,2.163905 -0.26028,0.293201 -0.540406,0.633679 -0.6225,0.756617 -0.22206,0.332546 -0.37805,0.901318 -0.342268,1.247994 0.05382,0.521497 0.245012,0.806375 1.123648,1.674278 0.71484,0.70611 0.816578,0.828808 0.921408,1.11125 0.388852,1.047686 -0.38298,1.981904 -1.638922,1.98373 -0.189178,2e-4 -0.546364,-0.03538 -0.79375,-0.07923 -2.042482,-0.362078 -2.735484,-0.352776 -4.335548,0.05819 -0.377394,0.09693 -1.193216,0.137458 -1.452596,0.07216 z m 0.815366,-0.264924 c 0.246622,-0.03064 0.626996,-0.10026 0.845278,-0.154712 1.376534,-0.343384 2.110384,-0.342194 4.153958,0.0067 0.87537,0.149468 1.28973,0.09356 1.788106,-0.241274 0.38874,-0.26117 0.529406,-0.908658 0.296562,-1.36507 -0.06126,-0.12007 -0.455328,-0.571376 -0.875714,-1.002902 -1.03098,-1.058294 -1.218614,-1.447769 -1.08025,-2.242306 0.08794,-0.504995 0.32878,-0.958396 0.82025,-1.544192 0.727748,-0.867423 0.813096,-0.981099 0.963296,-1.283037 0.258606,-0.519857 0.227956,-1.237554 -0.06786,-1.589113 -0.318292,-0.37827 -0.764132,-0.434504 -1.310876,-0.165343 -0.35261,0.173589 -0.462274,0.280183 -1.312826,1.276087 -0.61375,0.718632 -1.146046,0.987185 -1.865214,0.941032 -0.618438,-0.03969 -0.887658,-0.218426 -1.85141,-1.229165 -0.86864,-0.910989 -1.110366,-1.085165 -1.566906,-1.129032 -0.80763,-0.0776 -1.26386,0.686093 -0.951772,1.593194 0.127316,0.370052 0.329762,0.668185 0.868616,1.279179 0.592278,0.67157 0.82505,1.000696 0.996748,1.409349 0.199634,0.475145 0.238478,0.882229 0.123032,1.289401 -0.128214,0.452204 -0.355534,0.770408 -1.042502,1.459288 -0.692098,0.694028 -0.84966,0.955428 -0.844342,1.40078 0.0044,0.36832 0.118334,0.607772 0.412306,0.866538 0.270644,0.23823 0.512712,0.362572 0.826356,0.42447 0.123192,0.02431 0.22461,0.04681 0.225374,0.05 8e-4,0.0032 0.20317,-0.01928 0.449792,-0.04991 z"
       id="path1162" />
  </g>
</svg>
