<?xml version="1.0" encoding="UTF-8" standalone="no"?>
<svg
   xmlns:dc="http://purl.org/dc/elements/1.1/"
   xmlns:cc="http://creativecommons.org/ns#"
   xmlns:rdf="http://www.w3.org/1999/02/22-rdf-syntax-ns#"
   xmlns:svg="http://www.w3.org/2000/svg"
   xmlns="http://www.w3.org/2000/svg"
   xmlns:sodipodi="http://sodipodi.sourceforge.net/DTD/sodipodi-0.dtd"
   xmlns:inkscape="http://www.inkscape.org/namespaces/inkscape"
   width="13.229167mm"
   height="13.229167mm"
   viewBox="0 0 13.229169 13.229168"
   version="1.1"
   id="svg8"
   sodipodi:docname="VCS_resized_223.svg"
   inkscape:version="1.0.2-2 (e86c870879, 2021-01-15)">
  <defs
     id="defs2" />
  <sodipodi:namedview
     id="base"
     pagecolor="#ffffff"
     bordercolor="#666666"
     borderopacity="1.0"
     inkscape:pageopacity="0.0"
     inkscape:pageshadow="2"
     inkscape:zoom="2.8284271"
     inkscape:cx="30.711946"
     inkscape:cy="42.855138"
     inkscape:document-units="mm"
     inkscape:current-layer="layer1"
     inkscape:document-rotation="0"
     showgrid="false"
     inkscape:window-width="958"
     inkscape:window-height="1008"
     inkscape:window-x="1913"
     inkscape:window-y="0"
     inkscape:window-maximized="0" />
  <metadata
     id="metadata5">
    <rdf:RDF>
      <cc:Work
         rdf:about="">
        <dc:format>image/svg+xml</dc:format>
        <dc:type
           rdf:resource="http://purl.org/dc/dcmitype/StillImage" />
        <dc:title></dc:title>
      </cc:Work>
    </rdf:RDF>
  </metadata>
  <g
     inkscape:label="Ebene 1"
     inkscape:groupmode="layer"
     id="layer1"
     transform="translate(-40.437492,-19.341747)">
    <path
       style="fill:#000000;stroke-width:0.264582"
       d="m 43.061113,32.081439 c -0.04105,-0.06548 -0.104648,-0.250031 -0.141326,-0.410104 -0.03668,-0.160073 -0.183528,-0.672042 -0.326338,-1.137709 -0.34741,-1.132813 -0.552008,-1.859938 -0.595586,-2.116666 -0.046,-0.27099 -0.466382,-1.810093 -0.631876,-2.31343 -0.06968,-0.211926 -0.220348,-0.611539 -0.33482,-0.888029 -0.236366,-0.570913 -0.405202,-1.140867 -0.367254,-1.239761 0.02776,-0.07234 0.918422,-0.56751 2.324942,-1.292568 0.98924,-0.509952 1.554672,-0.912998 3.073016,-2.190483 0.510226,-0.429287 0.96274,-0.780521 1.00559,-0.780521 0.07229,0 0.438642,0.294241 1.648558,1.324049 1.084264,0.92286 1.225772,1.011136 3.91023,2.439279 0.404376,0.21513 0.761562,0.433304 0.79375,0.48483 0.06018,0.09634 0.05855,0.101668 -0.51712,1.688624 -0.168114,0.463437 -0.283848,0.872256 -0.783602,2.76801 -0.161892,0.614115 -0.344826,1.245666 -0.651428,2.248958 -0.102284,0.334698 -0.23558,0.787136 -0.296214,1.005417 -0.06063,0.218281 -0.148394,0.42664 -0.195022,0.463021 -0.06606,0.05154 -0.94088,0.06614 -3.96282,0.06614 h -3.878042 z m 8.042662,-1.124479 c 0.435196,-1.454255 0.690164,-2.351271 0.759572,-2.672292 0.03461,-0.160073 0.09429,-0.398198 0.132634,-0.529167 0.03834,-0.130968 0.145902,-0.523875 0.23903,-0.873125 0.221914,-0.832226 0.35988,-1.248363 0.655566,-1.977356 0.25383,-0.625794 0.289322,-0.804219 0.177838,-0.893989 -0.06958,-0.05603 -0.560896,-0.317106 -1.850052,-0.983083 -1.383686,-0.71481 -1.713896,-0.939554 -3.005804,-2.04578 -0.896136,-0.767337 -1.062988,-0.899583 -1.134976,-0.899583 -0.07944,0 -0.262304,0.141839 -1.199764,0.930609 -1.286204,1.082198 -1.622772,1.318261 -2.568852,1.801746 -1.641586,0.838915 -2.212448,1.141918 -2.290144,1.215564 -0.101444,0.09615 -0.03482,0.351323 0.32322,1.237914 0.35103,0.869237 0.72391,2.099377 0.890224,2.936875 0.08353,0.420622 0.292134,1.211019 0.398032,1.508125 0.10126,0.284097 0.55593,1.84361 0.55593,1.906834 0,0.02431 0.02328,0.105434 0.05174,0.180283 l 0.05174,0.136089 3.764512,-0.01358 3.764512,-0.01358 z"
       id="path4467" />
  </g>
</svg>
