<?xml version="1.0" encoding="UTF-8" standalone="no"?>
<svg
   xmlns:dc="http://purl.org/dc/elements/1.1/"
   xmlns:cc="http://creativecommons.org/ns#"
   xmlns:rdf="http://www.w3.org/1999/02/22-rdf-syntax-ns#"
   xmlns:svg="http://www.w3.org/2000/svg"
   xmlns="http://www.w3.org/2000/svg"
   xmlns:sodipodi="http://sodipodi.sourceforge.net/DTD/sodipodi-0.dtd"
   xmlns:inkscape="http://www.inkscape.org/namespaces/inkscape"
   width="13.229167mm"
   height="13.229167mm"
   viewBox="0 0 13.229169 13.229168"
   version="1.1"
   id="svg8"
   sodipodi:docname="VCS_resized_297.svg"
   inkscape:version="1.0.2-2 (e86c870879, 2021-01-15)">
  <defs
     id="defs2" />
  <sodipodi:namedview
     id="base"
     pagecolor="#ffffff"
     bordercolor="#666666"
     borderopacity="1.0"
     inkscape:pageopacity="0.0"
     inkscape:pageshadow="2"
     inkscape:zoom="4"
     inkscape:cx="7.1062585"
     inkscape:cy="29.178346"
     inkscape:document-units="mm"
     inkscape:current-layer="layer1"
     inkscape:document-rotation="0"
     showgrid="false"
     inkscape:window-width="958"
     inkscape:window-height="1008"
     inkscape:window-x="1913"
     inkscape:window-y="0"
     inkscape:window-maximized="0" />
  <metadata
     id="metadata5">
    <rdf:RDF>
      <cc:Work
         rdf:about="">
        <dc:format>image/svg+xml</dc:format>
        <dc:type
           rdf:resource="http://purl.org/dc/dcmitype/StillImage" />
        <dc:title></dc:title>
      </cc:Work>
    </rdf:RDF>
  </metadata>
  <g
     inkscape:label="Ebene 1"
     inkscape:groupmode="layer"
     id="layer1"
     transform="translate(-93.347565,16.143324)">
    <path
       style="fill:#000000;stroke-width:0.264582"
       d="m 98.362007,-3.522507 c -0.71315,-0.064301 -0.944266,-0.1028738 -0.966702,-0.1613408 -0.03055,-0.079606 -0.04376,-0.2000516 -0.267628,-2.4394748 -0.07392,-0.7394669 -0.151348,-1.3747177 -0.172054,-1.4116685 -0.02071,-0.036951 -0.299588,-0.2785998 -0.619734,-0.5369988 -0.320146,-0.2583984 -0.963432,-0.7780538 -1.429526,-1.1547898 -0.466092,-0.3767354 -0.982686,-0.7921303 -1.147984,-0.9230993 -0.165298,-0.130969 -0.30187,-0.275651 -0.303494,-0.321517 -0.0022,-0.06305 0.122884,-0.110975 0.512984,-0.196482 0.283766,-0.0622 1.11125,-0.242878 1.838854,-0.401506 1.885728,-0.411117 1.987868,-0.436693 2.063358,-0.516668 0.05783,-0.06127 0.708986,-1.389729 1.690112,-3.4481 0.24946,-0.523373 0.34613,-0.626346 0.498047,-0.530519 0.0457,0.02886 0.51312,0.942037 1.03861,2.029288 l 0.95542,1.976818 0.36972,0.09476 c 0.20335,0.05212 0.96504,0.22625 1.69265,0.386962 0.7276,0.160712 1.45388,0.326387 1.61395,0.368166 0.16008,0.04178 0.39225,0.102174 0.51594,0.134212 0.12369,0.03204 0.2249,0.08899 0.2249,0.126551 0,0.03756 -0.28982,0.304538 -0.64405,0.5932731 -0.35423,0.288735 -0.79007,0.644035 -0.96853,0.7895558 -0.17847,0.1455208 -0.67243,0.546581 -1.09769,0.8912442 -0.43503,0.3525732 -0.7858,0.6768264 -0.802,0.7413562 -0.0158,0.063082 -0.10205,0.8288348 -0.1916,1.7016719 -0.0895,0.8728376 -0.18001,1.7060402 -0.20103,1.851561 l -0.0382,0.2645834 -0.63458,0.062354 c -1.12119,0.1101678 -2.508523,0.1218842 -3.529713,0.029809 z m 2.893683,-0.252802 c 0.63978,-0.052835 1.0186,-0.1059208 1.04429,-0.1463442 0.0222,-0.034889 0.0407,-0.1489446 0.0411,-0.2534576 4e-4,-0.1045126 0.0239,-0.3783564 0.0521,-0.6085418 0.0282,-0.2301848 0.0886,-0.7757054 0.1343,-1.2122678 0.0457,-0.4365625 0.1085,-0.9909747 0.13964,-1.2320275 l 0.0566,-0.4382776 0.56315,-0.4597446 c 2.76582,-2.2579869 2.71379,-2.2124339 2.60683,-2.2821029 -0.0401,-0.02614 -0.27826,-0.08768 -0.52916,-0.136747 -0.39482,-0.07721 -0.99961,-0.210904 -2.98657,-0.660209 -0.22754,-0.05145 -0.44688,-0.126796 -0.48743,-0.16743 -0.0405,-0.04063 -0.47534,-0.905947 -0.96623,-1.922921 -0.49088,-1.016974 -0.9163,-1.856973 -0.945377,-1.866665 -0.0291,-0.0097 -0.46427,0.834283 -0.9671,1.875501 -0.50283,1.041218 -0.947352,1.919461 -0.987826,1.951651 -0.07251,0.05767 -0.688766,0.200815 -2.6142,0.607229 -1.181864,0.249463 -1.42875,0.313524 -1.42875,0.370723 0,0.02407 0.660798,0.5770593 1.468438,1.2288603 1.684716,1.3596388 1.812396,1.472662 1.812396,1.6043392 0,0.1655466 0.207868,2.2336453 0.29811,2.9659235 l 0.08593,0.6972692 0.376834,0.030284 c 0.20726,0.016656 0.722118,0.063045 1.144128,0.103086 0.42201,0.040041 0.838727,0.064247 0.926037,0.053791 0.0873,-0.010456 0.61054,-0.05632 1.16272,-0.1019212 z"
       id="path5667" />
  </g>
</svg>
