<?xml version="1.0" encoding="UTF-8" standalone="no"?>
<svg
   xmlns:dc="http://purl.org/dc/elements/1.1/"
   xmlns:cc="http://creativecommons.org/ns#"
   xmlns:rdf="http://www.w3.org/1999/02/22-rdf-syntax-ns#"
   xmlns:svg="http://www.w3.org/2000/svg"
   xmlns="http://www.w3.org/2000/svg"
   xmlns:sodipodi="http://sodipodi.sourceforge.net/DTD/sodipodi-0.dtd"
   xmlns:inkscape="http://www.inkscape.org/namespaces/inkscape"
   width="13.229167mm"
   height="13.229167mm"
   viewBox="0 0 13.229167 13.229167"
   version="1.1"
   id="svg8"
   sodipodi:docname="VCS_resized_7.svg"
   inkscape:version="1.0.2-2 (e86c870879, 2021-01-15)">
  <defs
     id="defs2" />
  <sodipodi:namedview
     id="base"
     pagecolor="#ffffff"
     bordercolor="#666666"
     borderopacity="1.0"
     inkscape:pageopacity="0.0"
     inkscape:pageshadow="2"
     inkscape:zoom="2.8284271"
     inkscape:cx="6.7100621"
     inkscape:cy="68.180173"
     inkscape:document-units="mm"
     inkscape:current-layer="layer1"
     inkscape:document-rotation="0"
     showgrid="false"
     inkscape:window-width="958"
     inkscape:window-height="1008"
     inkscape:window-x="1913"
     inkscape:window-y="0"
     inkscape:window-maximized="0" />
  <metadata
     id="metadata5">
    <rdf:RDF>
      <cc:Work
         rdf:about="">
        <dc:format>image/svg+xml</dc:format>
        <dc:type
           rdf:resource="http://purl.org/dc/dcmitype/StillImage" />
        <dc:title></dc:title>
      </cc:Work>
    </rdf:RDF>
  </metadata>
  <g
     inkscape:label="Ebene 1"
     inkscape:groupmode="layer"
     id="layer1"
     transform="translate(-36.424618,-8.5522747)">
    <path
       style="fill:#000000;stroke-width:0.264582"
       d="m 41.250614,20.634092 c -0.09053,-0.109076 -0.226408,-0.456308 -0.303854,-0.776462 -0.101022,-0.417612 -0.08962,-0.977638 0.03716,-1.825625 0.134496,-0.899574 0.114168,-1.710106 -0.04841,-1.930069 -0.168332,-0.22775 -0.566544,-0.49672 -1.375302,-0.928942 -0.980608,-0.524061 -1.489728,-0.862692 -1.875858,-1.247687 -0.451592,-0.450266 -0.407424,-0.596801 0.241366,-0.800784 0.32902,-0.103445 0.4912,-0.119206 1.200614,-0.116679 0.451114,0.0016 1.275816,0.02302 1.83267,0.04759 l 1.012464,0.04467 0.260262,-0.243446 c 0.167748,-0.156907 0.379924,-0.45598 0.59689,-0.841341 0.769746,-1.367183 1.061168,-1.751987 1.663134,-2.196072 0.284712,-0.2100372 0.319734,-0.2229724 0.402042,-0.1484858 0.04959,0.044877 0.158324,0.3014536 0.241634,0.5701698 0.178194,0.574763 0.191212,1.037801 0.05582,1.98529 -0.09001,0.629863 -0.108098,1.206362 -0.05094,1.62336 0.03125,0.227995 0.06489,0.27605 0.368712,0.526654 0.18388,0.151672 0.650608,0.451929 1.037176,0.667237 0.92041,0.512647 1.49693,0.925394 1.86298,1.333764 0.370472,0.413303 0.375758,0.536614 0.03049,0.711471 -0.473662,0.239882 -1.032732,0.267648 -2.530882,0.125695 -0.333978,-0.03165 -0.786708,-0.03388 -1.164168,-0.0057 l -0.61766,0.04604 -0.204858,0.229903 c -0.28291,0.317495 -0.55523,0.726985 -0.856702,1.288237 -0.269348,0.501444 -0.640874,1.090998 -0.801136,1.271279 -0.199504,0.224423 -0.766346,0.660179 -0.85878,0.660179 -0.05313,0 -0.122826,-0.03159 -0.15487,-0.0702 z m 0.533548,-0.482609 c 0.256284,-0.195688 0.649564,-0.754603 1.100402,-1.563853 0.337226,-0.605316 0.722094,-1.141065 1.000212,-1.392328 0.184386,-0.166583 0.246252,-0.189003 0.617526,-0.223794 0.447784,-0.04196 1.430462,-0.0076 2.270492,0.07945 0.371568,0.0385 0.622372,0.03793 0.842122,-0.0019 0.41014,-0.07434 0.71892,-0.200608 0.71892,-0.293973 0,-0.100659 -0.365598,-0.491285 -0.704558,-0.752791 -0.151598,-0.116957 -0.584918,-0.38681 -0.962934,-0.599675 -0.71655,-0.403496 -1.184332,-0.713412 -1.520454,-1.007332 -0.195866,-0.171276 -0.198792,-0.179682 -0.253552,-0.728899 -0.05513,-0.55293 -0.03798,-0.830861 0.111018,-1.799167 0.09482,-0.616197 -0.02065,-1.559308 -0.21624,-1.766188 -0.08367,-0.0885 -0.291216,0.0174 -0.58078,0.296349 -0.299078,0.288113 -0.523654,0.626117 -1.115018,1.678181 -0.187104,0.332869 -0.466106,0.741836 -0.620002,0.908814 -0.273518,0.296771 -0.287748,0.304449 -0.632784,0.341399 -0.194136,0.02079 -0.806408,0.0072 -1.360606,-0.03027 -1.597552,-0.107926 -1.761054,-0.10763 -2.192128,0.004 -0.388774,0.100647 -0.535296,0.175067 -0.535296,0.271883 0,0.08278 0.53285,0.569773 0.846668,0.773799 0.160072,0.104071 0.410104,0.246476 0.555624,0.316457 0.522242,0.251145 1.592342,0.910058 1.839436,1.132633 0.23957,0.215796 0.254238,0.245115 0.298848,0.597351 0.05944,0.469289 0.02982,1.120299 -0.07913,1.739338 -0.110614,0.628491 -0.109182,1.293874 0.0037,1.726704 0.142002,0.544403 0.200656,0.574721 0.568498,0.293853 z"
       id="path104" />
  </g>
</svg>
