<?xml version="1.0" encoding="UTF-8" standalone="no"?>
<svg
   xmlns:dc="http://purl.org/dc/elements/1.1/"
   xmlns:cc="http://creativecommons.org/ns#"
   xmlns:rdf="http://www.w3.org/1999/02/22-rdf-syntax-ns#"
   xmlns:svg="http://www.w3.org/2000/svg"
   xmlns="http://www.w3.org/2000/svg"
   xmlns:sodipodi="http://sodipodi.sourceforge.net/DTD/sodipodi-0.dtd"
   xmlns:inkscape="http://www.inkscape.org/namespaces/inkscape"
   width="13.229167mm"
   height="13.229167mm"
   viewBox="0 0 13.229169 13.229168"
   version="1.1"
   id="svg8"
   sodipodi:docname="VCS_resized_348.svg"
   inkscape:version="1.0.2-2 (e86c870879, 2021-01-15)">
  <defs
     id="defs2" />
  <sodipodi:namedview
     id="base"
     pagecolor="#ffffff"
     bordercolor="#666666"
     borderopacity="1.0"
     inkscape:pageopacity="0.0"
     inkscape:pageshadow="2"
     inkscape:zoom="4"
     inkscape:cx="15.58519"
     inkscape:cy="28.737076"
     inkscape:document-units="mm"
     inkscape:current-layer="layer1"
     inkscape:document-rotation="0"
     showgrid="false"
     inkscape:window-width="958"
     inkscape:window-height="1008"
     inkscape:window-x="1913"
     inkscape:window-y="0"
     inkscape:window-maximized="0" />
  <metadata
     id="metadata5">
    <rdf:RDF>
      <cc:Work
         rdf:about="">
        <dc:format>image/svg+xml</dc:format>
        <dc:type
           rdf:resource="http://purl.org/dc/dcmitype/StillImage" />
        <dc:title></dc:title>
      </cc:Work>
    </rdf:RDF>
  </metadata>
  <g
     inkscape:label="Ebene 1"
     inkscape:groupmode="layer"
     id="layer1"
     transform="translate(-93.750015,16.026571)">
    <path
       style="fill:#000000;stroke-width:0.264582"
       d="m 99.484816,-3.6573002 c -0.313506,-0.334276 -0.844958,-1.7399 -0.844958,-2.2348067 0,-0.3022054 -0.149458,-1.7065974 -0.202834,-1.9059222 -0.0595,-0.2221888 -0.325266,-0.3861742 -1.566742,-0.9667072 -1.844528,-0.86253 -2.625958,-1.3236157 -2.555296,-1.5077597 0.06287,-0.163832 0.983216,-0.401209 2.30371,-0.594174 1.779488,-0.260039 2.21821,-0.344212 2.355038,-0.451841 0.06606,-0.05196 0.259482,-0.400303 0.429818,-0.774084 0.864768,-1.897607 1.574288,-3.193143 1.748798,-3.193143 0.11061,0 0.16286,0.103685 0.35997,0.714375 0.18804,0.582572 0.22589,0.76504 0.38417,1.852083 0.10833,0.743986 0.21908,1.300734 0.33042,1.660931 l 0.0881,0.285097 0.50398,0.234443 c 0.27718,0.128943 0.76591,0.34176 1.08606,0.472925 1.32683,0.5436129 2.51354,1.1839669 2.51354,1.3563271 0,0.203698 -0.98685,0.5319834 -2.26514,0.7535248 -1.22918,0.2130298 -2.09707,0.4363716 -2.2206,0.5714414 -0.10795,0.118049 -0.51127,1.137348 -0.67017,1.6937401 -0.11403,0.3992366 -0.8146,1.4448112 -1.23986,1.8504476 -0.174236,0.1661912 -0.341444,0.3021654 -0.371576,0.3021654 -0.03013,0 -0.105032,-0.053578 -0.166448,-0.1190626 z m 0.538814,-0.555625 c 0.46252,-0.4759764 0.91173,-1.2106194 1.0701,-1.7500635 0.12784,-0.435419 0.50917,-1.3691674 0.63603,-1.5574132 0.10195,-0.151276 0.17518,-0.1846934 0.69484,-0.3170614 0.31948,-0.081379 1.03332,-0.2326566 1.5863,-0.336171 0.92659,-0.173454 1.69256,-0.3779648 1.881,-0.5022242 0.0632,-0.041679 0.0495,-0.073268 -0.0771,-0.1773036 -0.19859,-0.1632034 -1.17598,-0.645813 -1.86844,-0.9225878 -0.29744,-0.1188875 -0.83417,-0.3554421 -1.19273,-0.5256781 l -0.65192,-0.309518 -0.0892,-0.313334 c -0.14666,-0.515441 -0.29696,-1.279319 -0.38441,-1.95375 -0.12425,-0.958155 -0.38013,-1.878541 -0.52226,-1.878541 -0.14722,0 -0.57134,0.779822 -1.271426,2.337773 -0.409826,0.912012 -0.656062,1.357067 -0.769156,1.390191 -0.20802,0.06093 -1.350618,0.251805 -2.383346,0.398151 -1.223666,0.173403 -1.852084,0.326213 -1.852084,0.450365 0,0.121524 0.729232,0.5220065 2.54,1.3949247 0.596636,0.2876206 1.127068,0.5704024 1.178742,0.628404 0.114258,0.128253 0.222046,0.7662438 0.301996,1.7874832 0.06582,0.8407091 0.137858,1.1637845 0.395982,1.7758223 0.211806,0.5022124 0.322406,0.6848026 0.414802,0.6848026 0.03662,0 0.199632,-0.136922 0.36225,-0.304271 z"
       id="path6489" />
  </g>
</svg>
