<?xml version="1.0" encoding="UTF-8" standalone="no"?>
<svg
   xmlns:dc="http://purl.org/dc/elements/1.1/"
   xmlns:cc="http://creativecommons.org/ns#"
   xmlns:rdf="http://www.w3.org/1999/02/22-rdf-syntax-ns#"
   xmlns:svg="http://www.w3.org/2000/svg"
   xmlns="http://www.w3.org/2000/svg"
   xmlns:sodipodi="http://sodipodi.sourceforge.net/DTD/sodipodi-0.dtd"
   xmlns:inkscape="http://www.inkscape.org/namespaces/inkscape"
   width="13.229167mm"
   height="13.229167mm"
   viewBox="0 0 13.229169 13.229168"
   version="1.1"
   id="svg8"
   sodipodi:docname="VCS_resized_312.svg"
   inkscape:version="1.0.2-2 (e86c870879, 2021-01-15)">
  <defs
     id="defs2" />
  <sodipodi:namedview
     id="base"
     pagecolor="#ffffff"
     bordercolor="#666666"
     borderopacity="1.0"
     inkscape:pageopacity="0.0"
     inkscape:pageshadow="2"
     inkscape:zoom="4"
     inkscape:cx="25.769917"
     inkscape:cy="33.377879"
     inkscape:document-units="mm"
     inkscape:current-layer="layer1"
     inkscape:document-rotation="0"
     showgrid="false"
     inkscape:window-width="958"
     inkscape:window-height="1008"
     inkscape:window-x="1913"
     inkscape:window-y="0"
     inkscape:window-maximized="0" />
  <metadata
     id="metadata5">
    <rdf:RDF>
      <cc:Work
         rdf:about="">
        <dc:format>image/svg+xml</dc:format>
        <dc:type
           rdf:resource="http://purl.org/dc/dcmitype/StillImage" />
        <dc:title></dc:title>
      </cc:Work>
    </rdf:RDF>
  </metadata>
  <g
     inkscape:label="Ebene 1"
     inkscape:groupmode="layer"
     id="layer1"
     transform="translate(-91.055305,17.25445)">
    <path
       style="fill:#000000;stroke-width:0.264582"
       d="m 97.354022,-4.6669307 c -0.07276,-0.029133 -0.477116,-0.160119 -0.898568,-0.2910808 -0.42145,-0.1309618 -0.773404,-0.2452428 -0.78212,-0.2539572 -0.02309,-0.023087 -0.101754,-0.515042 -0.250234,-1.564868 -0.07203,-0.509323 -0.159252,-1.1239532 -0.193818,-1.3658448 -0.07433,-0.5201791 -0.002,-0.4475855 -1.153046,-1.1576399 -0.45279,-0.2793232 -0.942318,-0.5841766 -1.08784,-0.6774512 -0.14552,-0.093275 -0.594042,-0.3789914 -0.996716,-0.6349274 -0.402672,-0.255935 -0.74547,-0.500094 -0.761772,-0.542577 -0.04025,-0.104887 0.02706,-0.138114 0.502844,-0.248214 0.66346,-0.15353 2.977226,-0.710051 3.292936,-0.792037 0.160074,-0.04157 0.39021,-0.101801 0.511416,-0.133849 l 0.220372,-0.05827 0.330026,-0.779699 c 0.181516,-0.428835 0.383192,-0.910668 0.448172,-1.070741 0.283888,-0.699346 0.990918,-2.307683 1.04098,-2.368005 0.09262,-0.111594 0.19378,-0.07429 0.28694,0.105817 0.0489,0.09459 0.21396,0.469636 0.36675,0.833438 1.04187,2.480887 1.3574,3.208145 1.41407,3.25924 0.0354,0.03194 0.945456,0.276619 2.022306,0.54373 2.3616,0.585788 2.42992,0.605553 2.45029,0.708809 0.017,0.08595 0.0241,0.0812 -2.31799,1.5462438 -0.71306,0.4460382 -1.35825,0.8596412 -1.43377,0.919117 -0.15595,0.1228254 -0.15336,0.1104456 -0.450216,2.1509851 -0.10162,0.6985 -0.2134,1.2968478 -0.24841,1.3296614 -0.1082,0.1014312 -1.76192,0.6019938 -1.97707,0.5984426 -0.111784,-0.00184 -0.262772,-0.02719 -0.335532,-0.056323 z m 1.296462,-0.4647834 c 0.37835,-0.1207988 0.71933,-0.239187 0.75773,-0.2630858 0.0433,-0.026923 0.12821,-0.4137894 0.22332,-1.017015 0.32815,-2.0813891 0.374596,-2.3503789 0.412306,-2.3880921 0.0214,-0.02144 0.53823,-0.3515312 1.14843,-0.7335366 0.6102,-0.3820054 1.34255,-0.8406194 1.62745,-1.0191434 0.28489,-0.178523 0.58211,-0.375717 0.66048,-0.438207 l 0.14249,-0.113619 -0.23715,-0.06453 c -0.13043,-0.03549 -0.35621,-0.09678 -0.50173,-0.136204 -0.14552,-0.03942 -0.96705,-0.2428 -1.82563,-0.451952 -0.85857,-0.209153 -1.587606,-0.406453 -1.620086,-0.438447 -0.0325,-0.03199 -0.25212,-0.522513 -0.48809,-1.090044 -0.23597,-0.567531 -0.5861,-1.400969 -0.77805,-1.852083 -0.19197,-0.451115 -0.37207,-0.877665 -0.40024,-0.947888 -0.0734,-0.182947 -0.12801,-0.106303 -0.418794,0.587557 -0.137942,0.32915 -0.368508,0.872299 -0.51237,1.206997 -0.14386,0.334698 -0.400198,0.935915 -0.56964,1.336039 -0.169442,0.400123 -0.334386,0.748706 -0.366544,0.774629 -0.05538,0.04464 -0.529342,0.167148 -2.042844,0.528017 -0.363802,0.08674 -0.976974,0.233156 -1.362604,0.325364 -0.41055,0.09817 -0.701146,0.193625 -0.701146,0.230323 0,0.03447 0.529828,0.392661 1.177396,0.795981 2.444568,1.522529 2.36549,1.4678878 2.419388,1.6717306 0.02694,0.1018646 0.08572,0.4471457 0.130632,0.7672917 0.235788,1.6807338 0.349834,2.3736182 0.400794,2.4350212 0.03108,0.037448 0.240086,0.1181682 0.46446,0.179379 0.224376,0.061211 0.586548,0.1708536 0.80483,0.24365 0.482612,0.1609514 0.575322,0.1527874 1.455212,-0.1281356 z"
       id="path5907" />
  </g>
</svg>
