<?xml version="1.0" encoding="UTF-8" standalone="no"?>
<svg
   xmlns:dc="http://purl.org/dc/elements/1.1/"
   xmlns:cc="http://creativecommons.org/ns#"
   xmlns:rdf="http://www.w3.org/1999/02/22-rdf-syntax-ns#"
   xmlns:svg="http://www.w3.org/2000/svg"
   xmlns="http://www.w3.org/2000/svg"
   xmlns:sodipodi="http://sodipodi.sourceforge.net/DTD/sodipodi-0.dtd"
   xmlns:inkscape="http://www.inkscape.org/namespaces/inkscape"
   width="13.229167mm"
   height="13.229167mm"
   viewBox="0 0 13.229169 13.229168"
   version="1.1"
   id="svg8"
   sodipodi:docname="VCS_resized_277.svg"
   inkscape:version="1.0.2-2 (e86c870879, 2021-01-15)">
  <defs
     id="defs2" />
  <sodipodi:namedview
     id="base"
     pagecolor="#ffffff"
     bordercolor="#666666"
     borderopacity="1.0"
     inkscape:pageopacity="0.0"
     inkscape:pageshadow="2"
     inkscape:zoom="4"
     inkscape:cx="21.997708"
     inkscape:cy="40.148683"
     inkscape:document-units="mm"
     inkscape:current-layer="layer1"
     inkscape:document-rotation="0"
     showgrid="false"
     inkscape:window-width="958"
     inkscape:window-height="1008"
     inkscape:window-x="1913"
     inkscape:window-y="0"
     inkscape:window-maximized="0" />
  <metadata
     id="metadata5">
    <rdf:RDF>
      <cc:Work
         rdf:about="">
        <dc:format>image/svg+xml</dc:format>
        <dc:type
           rdf:resource="http://purl.org/dc/dcmitype/StillImage" />
        <dc:title></dc:title>
      </cc:Work>
    </rdf:RDF>
  </metadata>
  <g
     inkscape:label="Ebene 1"
     inkscape:groupmode="layer"
     id="layer1"
     transform="translate(-79.871193,15.543618)">
    <path
       style="fill:#000000;stroke-width:0.264582"
       d="m 83.135723,-2.8026541 c -0.01378,-0.065484 -0.06244,-0.8691562 -0.108126,-1.7859374 -0.04568,-0.9167812 -0.09806,-1.8437728 -0.116388,-2.0599818 l -0.03333,-0.3931068 -0.640072,-0.7152756 c -0.35204,-0.3934016 -1.01512,-1.120791 -1.473512,-1.6164206 -0.45839,-0.4956302 -0.833436,-0.9298937 -0.833436,-0.9650317 0,-0.03514 0.04167,-0.07597 0.0926,-0.09074 0.09356,-0.02713 3.743822,-0.873326 3.973994,-0.921243 0.147314,-0.03067 0.225772,-0.15011 1.172012,-1.784244 1.27189,-2.196523 1.168168,-2.037292 1.32706,-2.037292 0.127882,0 0.18512,0.07496 0.555534,0.727605 0.872324,1.536964 1.676644,2.900812 1.760608,2.985383 0.05663,0.05704 0.795188,0.25272 2.090877,0.553967 1.101824,0.256174 2.041094,0.493396 2.08727,0.527161 0.09607,0.07025 0.22697,-0.09004 -1.44475,1.7691191 -0.582084,0.6473492 -1.151925,1.28377 -1.266313,1.4142688 l -0.207978,0.237271 -0.06573,1.0652168 c -0.03615,0.5858694 -0.09283,1.5282094 -0.125948,2.0940892 -0.03312,0.5658792 -0.07209,1.0480822 -0.08661,1.0715624 -0.01452,0.02348 -1.512806,0.042691 -3.329544,0.042691 h -3.303162 z m 6.416972,-0.238125 c 0.02621,-0.050932 0.06192,-0.4378854 0.07936,-0.8598958 0.04822,-1.1667822 0.137936,-2.7523424 0.169258,-2.9913368 0.01824,-0.1391746 0.08715,-0.278557 0.198434,-0.401392 0.09377,-0.1034992 0.656593,-0.733835 1.250719,-1.4007464 0.594126,-0.6669114 1.140078,-1.2778026 1.213226,-1.3575359 0.07315,-0.07973 0.118036,-0.159927 0.09975,-0.17821 -0.01828,-0.01828 -0.89761,-0.233736 -1.95406,-0.478785 -1.056449,-0.245048 -1.947071,-0.474416 -1.979159,-0.509706 -0.05099,-0.05608 -1.11702,-1.874778 -1.845762,-3.148962 -0.138082,-0.241432 -0.27729,-0.430223 -0.309352,-0.419535 -0.03206,0.01069 -0.309152,0.458759 -0.615752,0.995714 -1.051818,1.842059 -1.536244,2.633724 -1.628876,2.661963 -0.05101,0.01555 -0.842844,0.196962 -1.759624,0.403133 -1.975338,0.444227 -2.06375,0.466631 -2.06375,0.522956 0,0.02391 0.327422,0.3980745 0.727604,0.8314711 0.400182,0.4333964 1.015812,1.1122076 1.368066,1.50847 l 0.64046,0.7204768 0.03272,0.4965334 c 0.018,0.2730934 0.07169,1.187096 0.11931,2.0311168 0.04762,0.8440208 0.09518,1.564349 0.105678,1.6007292 0.01498,0.051928 0.673048,0.066146 3.061596,0.066146 2.844196,0 3.045612,-0.00604 3.090152,-0.092604 z"
       id="path5347" />
  </g>
</svg>
