<?xml version="1.0" encoding="UTF-8" standalone="no"?>
<svg
   xmlns:dc="http://purl.org/dc/elements/1.1/"
   xmlns:cc="http://creativecommons.org/ns#"
   xmlns:rdf="http://www.w3.org/1999/02/22-rdf-syntax-ns#"
   xmlns:svg="http://www.w3.org/2000/svg"
   xmlns="http://www.w3.org/2000/svg"
   xmlns:sodipodi="http://sodipodi.sourceforge.net/DTD/sodipodi-0.dtd"
   xmlns:inkscape="http://www.inkscape.org/namespaces/inkscape"
   width="13.229167mm"
   height="13.229167mm"
   viewBox="0 0 13.229169 13.229168"
   version="1.1"
   id="svg8"
   sodipodi:docname="VCS_resized_255.svg"
   inkscape:version="1.0.2-2 (e86c870879, 2021-01-15)">
  <defs
     id="defs2" />
  <sodipodi:namedview
     id="base"
     pagecolor="#ffffff"
     bordercolor="#666666"
     borderopacity="1.0"
     inkscape:pageopacity="0.0"
     inkscape:pageshadow="2"
     inkscape:zoom="2.8284271"
     inkscape:cx="8.8752821"
     inkscape:cy="25.838015"
     inkscape:document-units="mm"
     inkscape:current-layer="layer1"
     inkscape:document-rotation="0"
     showgrid="false"
     inkscape:window-width="958"
     inkscape:window-height="1008"
     inkscape:window-x="1913"
     inkscape:window-y="0"
     inkscape:window-maximized="0" />
  <metadata
     id="metadata5">
    <rdf:RDF>
      <cc:Work
         rdf:about="">
        <dc:format>image/svg+xml</dc:format>
        <dc:type
           rdf:resource="http://purl.org/dc/dcmitype/StillImage" />
        <dc:title></dc:title>
      </cc:Work>
    </rdf:RDF>
  </metadata>
  <g
     inkscape:label="Ebene 1"
     inkscape:groupmode="layer"
     id="layer1"
     transform="translate(-75.693848,-0.18656351)">
    <path
       style="fill:#000000;stroke-width:0.264582"
       d="m 78.33063,12.959324 c -0.0182,-0.09095 -0.03307,-0.297914 -0.03307,-0.45992 0,-0.162005 -0.02409,-0.557888 -0.05353,-0.879739 -0.02944,-0.321852 -0.08897,-0.96922 -0.13229,-1.438596 -0.04332,-0.4693761 -0.07876,-0.9601501 -0.07876,-1.0906081 0,-0.255573 -0.01206,-0.276037 -1.505124,-2.5538973 -0.788158,-1.202436 -0.84422,-1.2977564 -0.790232,-1.3436272 0.02552,-0.021682 0.903648,-0.3193024 1.951398,-0.661379 1.792138,-0.5851102 1.915506,-0.6334892 2.08233,-0.816601 0.160388,-0.1760474 1.384906,-1.7917895 2.142678,-2.8272471 0.165068,-0.2255574 0.33112,-0.4101042 0.369006,-0.4101042 0.111998,0 0.217962,0.1083984 0.543142,0.555625 1.443432,1.9851747 2.0492,2.7571675 2.237622,2.8516289 0.162674,0.081554 1.125546,0.4101106 2.65293,0.905247 0.596636,0.1934132 1.115034,0.3810658 1.151994,0.4170056 0.05406,0.052562 0.02776,0.1217078 -0.13439,0.3534406 -0.110878,0.158452 -0.36506,0.5500322 -0.56485,0.870178 -0.19979,0.3201458 -0.53867,0.8513435 -0.753066,1.1804391 -0.214396,0.3290956 -0.488942,0.7553186 -0.610102,0.9471636 l -0.220292,0.348808 -0.09403,1.1165861 c -0.05172,0.614123 -0.120464,1.509493 -0.152774,1.989712 -0.03231,0.480218 -0.06942,0.926703 -0.08246,0.992187 l -0.02371,0.119063 h -3.93467 -3.934668 z m 7.630924,-0.125677 c 0.0271,-0.0291 0.07662,-0.433917 0.110048,-0.899583 0.03343,-0.465667 0.103592,-1.360719 0.155912,-1.9890051 l 0.09513,-1.142338 0.838252,-1.3182874 c 0.461038,-0.7250575 0.955652,-1.4933377 1.099142,-1.7072887 0.14349,-0.213951 0.24068,-0.4089886 0.215978,-0.4334172 -0.04707,-0.046546 -0.174274,-0.089722 -2.332148,-0.7915904 L 84.809132,4.118003 84.422546,3.63395 C 84.026098,3.1375498 82.60654,1.2335461 82.473678,1.0200009 c -0.04074,-0.065484 -0.111604,-0.1190624 -0.15747,-0.1190624 -0.04586,0 -0.211436,0.1845468 -0.367936,0.410104 -0.342922,0.4942416 -1.074486,1.4741862 -1.67571,2.2446469 L 79.832026,4.1202318 78.416562,4.577689 c -1.673822,0.540955 -2.193374,0.718718 -2.253804,0.7711318 -0.04566,0.039602 0.0188,0.1443346 1.3402,2.1778497 l 0.766444,1.1794764 0.03676,0.449792 c 0.02022,0.247385 0.07505,0.8784161 0.121848,1.4022911 0.0468,0.523875 0.106468,1.247787 0.132598,1.608692 0.03191,0.440724 0.07037,0.670689 0.117126,0.70034 0.102076,0.06473 7.22285,0.03187 7.283818,-0.03362 z"
       id="path4993" />
  </g>
</svg>
