<?xml version="1.0" encoding="UTF-8" standalone="no"?>
<svg
   xmlns:dc="http://purl.org/dc/elements/1.1/"
   xmlns:cc="http://creativecommons.org/ns#"
   xmlns:rdf="http://www.w3.org/1999/02/22-rdf-syntax-ns#"
   xmlns:svg="http://www.w3.org/2000/svg"
   xmlns="http://www.w3.org/2000/svg"
   xmlns:sodipodi="http://sodipodi.sourceforge.net/DTD/sodipodi-0.dtd"
   xmlns:inkscape="http://www.inkscape.org/namespaces/inkscape"
   width="13.229167mm"
   height="13.229167mm"
   viewBox="0 0 13.229169 13.229168"
   version="1.1"
   id="svg8"
   sodipodi:docname="VCS_resized_103.svg"
   inkscape:version="1.0.2-2 (e86c870879, 2021-01-15)">
  <defs
     id="defs2" />
  <sodipodi:namedview
     id="base"
     pagecolor="#ffffff"
     bordercolor="#666666"
     borderopacity="1.0"
     inkscape:pageopacity="0.0"
     inkscape:pageshadow="2"
     inkscape:zoom="2.8284271"
     inkscape:cx="13.266279"
     inkscape:cy="68.879716"
     inkscape:document-units="mm"
     inkscape:current-layer="layer1"
     inkscape:document-rotation="0"
     showgrid="false"
     inkscape:window-width="958"
     inkscape:window-height="1008"
     inkscape:window-x="1913"
     inkscape:window-y="0"
     inkscape:window-maximized="0" />
  <metadata
     id="metadata5">
    <rdf:RDF>
      <cc:Work
         rdf:about="">
        <dc:format>image/svg+xml</dc:format>
        <dc:type
           rdf:resource="http://purl.org/dc/dcmitype/StillImage" />
        <dc:title></dc:title>
      </cc:Work>
    </rdf:RDF>
  </metadata>
  <g
     inkscape:label="Ebene 1"
     inkscape:groupmode="layer"
     id="layer1"
     transform="translate(-34.689949,-8.3671885)">
    <path
       style="fill:#000000;stroke-width:0.264582"
       d="m 40.011186,20.978048 c -1.264634,-0.273594 -1.31684,-0.29425 -2.169396,-0.85836 -1.32619,-0.877498 -1.834954,-1.817229 -1.427024,-2.635838 0.08181,-0.164171 0.346492,-0.483284 0.677948,-0.817369 1.188174,-1.197595 1.386882,-1.720505 1.009854,-2.657466 -0.07187,-0.178614 -0.285048,-0.527159 -0.47372,-0.774545 -0.938394,-1.230415 -1.129882,-1.560826 -1.250006,-2.156884 -0.05217,-0.258891 -0.05335,-0.423259 -0.0054,-0.752365 0.09708,-0.6660328 0.338478,-1.0492768 0.7916,-1.2567234 0.680336,-0.3114676 1.219536,-0.0122 2.422792,1.3447064 0.743648,0.838607 1.104566,1.046225 1.804722,1.038168 0.668104,-0.0077 0.891468,-0.159664 1.912968,-1.301571 0.733502,-0.8199584 1.079464,-1.0961186 1.445708,-1.1540138 0.781102,-0.1234758 1.395718,0.4944342 1.462616,1.4704578 0.05278,0.770104 -0.184372,1.396977 -0.837062,2.2126 -0.51261,0.640575 -0.798234,1.095691 -0.944048,1.504257 -0.285974,0.801297 -0.13006,1.18273 0.937322,2.293106 0.615858,0.640662 0.761554,0.823162 0.853626,1.069249 0.12356,0.330242 0.141656,0.680954 0.05078,0.984259 -0.155316,0.518402 -1.303338,1.645092 -2.044414,2.006426 -0.188718,0.09202 -0.643672,0.23672 -1.011006,0.321564 -0.640194,0.147866 -0.718332,0.154032 -1.884964,0.148748 -0.669396,-0.003 -1.264708,-0.01582 -1.322916,-0.02841 z m 3.095624,-0.380676 c 0.638564,-0.15133 1.134376,-0.386446 1.6767,-0.7951 0.972662,-0.732923 1.383278,-1.414443 1.206368,-2.00227 -0.07628,-0.253448 -0.270106,-0.50875 -0.87418,-1.15143 -0.750848,-0.798833 -1.056388,-1.332153 -1.056388,-1.843927 0,-0.546326 0.345894,-1.349221 0.870218,-2.019966 0.417022,-0.533481 0.73094,-1.01541 0.878948,-1.349375 0.107264,-0.242031 0.128966,-0.375696 0.128878,-0.79375 C 45.93725,10.203409 45.920294,10.10887 45.80526,9.9054506 45.73266,9.7770836 45.585068,9.6011654 45.477266,9.5145214 45.316656,9.3854326 45.229744,9.356242 44.995952,9.3528626 c -0.429854,-0.00621 -0.78253,0.2284418 -1.380124,0.9182744 -0.757104,0.873962 -1.032954,1.12891 -1.43633,1.32749 -0.335562,0.165198 -0.407812,0.180635 -0.845396,0.180635 -0.668664,0 -1.026322,-0.17679 -1.62951,-0.805466 -1.391202,-1.4499876 -1.56438,-1.5873556 -2.06622,-1.6389534 -0.614894,-0.063222 -1.134758,0.7339124 -1.016148,1.5581134 0.05652,0.392776 0.414984,1.072766 0.907436,1.721379 0.5531,0.728497 0.903308,1.40958 0.979832,1.905575 0.04891,0.316978 0.04187,0.404108 -0.0596,0.738184 -0.141564,0.466072 -0.314692,0.723406 -0.90315,1.342427 -0.901646,0.948474 -1.075088,1.256625 -0.94863,1.685401 0.176824,0.599554 0.537974,1.000685 1.45469,1.615735 0.624418,0.418939 0.8732,0.537385 1.376302,0.655269 0.69224,0.1622 0.951534,0.18377 2.06375,0.17167 0.940018,-0.01022 1.188712,-0.03045 1.613958,-0.131224 z"
       id="path1690" />
  </g>
</svg>
