<?xml version="1.0" encoding="UTF-8" standalone="no"?>
<svg
   xmlns:dc="http://purl.org/dc/elements/1.1/"
   xmlns:cc="http://creativecommons.org/ns#"
   xmlns:rdf="http://www.w3.org/1999/02/22-rdf-syntax-ns#"
   xmlns:svg="http://www.w3.org/2000/svg"
   xmlns="http://www.w3.org/2000/svg"
   xmlns:sodipodi="http://sodipodi.sourceforge.net/DTD/sodipodi-0.dtd"
   xmlns:inkscape="http://www.inkscape.org/namespaces/inkscape"
   width="13.229167mm"
   height="13.229167mm"
   viewBox="0 0 13.229169 13.229168"
   version="1.1"
   id="svg8"
   sodipodi:docname="VCS_resized_245.svg"
   inkscape:version="1.0.2-2 (e86c870879, 2021-01-15)">
  <defs
     id="defs2" />
  <sodipodi:namedview
     id="base"
     pagecolor="#ffffff"
     bordercolor="#666666"
     borderopacity="1.0"
     inkscape:pageopacity="0.0"
     inkscape:pageshadow="2"
     inkscape:zoom="4"
     inkscape:cx="9.8853921"
     inkscape:cy="43.39515"
     inkscape:document-units="mm"
     inkscape:current-layer="layer1"
     inkscape:document-rotation="0"
     showgrid="false"
     inkscape:window-width="958"
     inkscape:window-height="1008"
     inkscape:window-x="1913"
     inkscape:window-y="0"
     inkscape:window-maximized="0" />
  <metadata
     id="metadata5">
    <rdf:RDF>
      <cc:Work
         rdf:about="">
        <dc:format>image/svg+xml</dc:format>
        <dc:type
           rdf:resource="http://purl.org/dc/dcmitype/StillImage" />
        <dc:title></dc:title>
      </cc:Work>
    </rdf:RDF>
  </metadata>
  <g
     inkscape:label="Ebene 1"
     inkscape:groupmode="layer"
     id="layer1"
     transform="translate(-76.434578,-12.742371)">
    <path
       style="fill:#000000;stroke-width:0.264582"
       d="m 78.990178,25.614339 c -0.04666,-0.05898 -0.16417,-0.878331 -0.252342,-1.759479 -0.01748,-0.174625 -0.0662,-0.504964 -0.108278,-0.734087 -0.04208,-0.229124 -0.110814,-0.693718 -0.152748,-1.032431 -0.07076,-0.571557 -0.095,-0.650052 -0.337076,-1.091538 -1.607352,-2.931394 -1.7216,-3.150657 -1.669052,-3.203205 0.04288,-0.04288 0.740376,-0.337067 1.765114,-0.744483 0.21828,-0.08678 0.751026,-0.305495 1.183876,-0.486023 l 0.787002,-0.328233 0.43399,-0.47625 c 0.238694,-0.261937 0.762424,-0.869156 1.163844,-1.349375 0.843624,-1.009227 1.172176,-1.376162 1.23119,-1.375023 0.08072,0.0016 0.157864,0.08449 0.836028,0.898773 0.79053,0.949198 1.640042,1.92133 1.858956,2.127279 0.174178,0.163863 0.842612,0.484687 1.686154,0.809295 1.292566,0.497397 2.120604,0.839163 2.191134,0.904372 0.06329,0.05851 0.03427,0.138798 -0.193326,0.534889 -0.147286,0.256322 -0.409312,0.739884 -0.582282,1.074582 -0.172972,0.334698 -0.36388,0.695195 -0.424242,0.801104 -0.06036,0.105909 -0.263096,0.486909 -0.45052,0.846666 -0.328064,0.629713 -0.342202,0.672851 -0.379156,1.156813 -0.02111,0.27649 -0.08282,0.75274 -0.137128,1.058334 -0.05431,0.305593 -0.136744,0.912812 -0.18319,1.349375 -0.09161,0.861097 -0.116068,0.985305 -0.205608,1.044294 -0.03246,0.02138 -1.84799,0.03924 -4.034514,0.03969 -3.118,6.4e-4 -3.986786,-0.01346 -4.027826,-0.06534 z m 7.85225,-0.238935 c 0.03419,-0.02194 0.09921,-0.396276 0.14922,-0.859085 0.04875,-0.451115 0.123134,-0.998803 0.165304,-1.217084 0.04217,-0.218281 0.112062,-0.727951 0.155312,-1.1326 0.04325,-0.404649 0.0991,-0.761837 0.12411,-0.79375 0.05413,-0.06907 0.731884,-1.329189 1.206758,-2.243675 0.185946,-0.358087 0.407784,-0.762899 0.492974,-0.899584 0.120462,-0.193278 0.140674,-0.262279 0.09094,-0.310439 -0.06704,-0.06491 -2.012206,-0.864118 -2.103152,-0.864118 -0.02885,0 -0.355736,-0.133353 -0.726418,-0.296338 -0.429598,-0.18889 -0.748352,-0.366368 -0.879118,-0.489479 -0.200192,-0.188472 -1.340944,-1.502504 -2.062642,-2.375954 -0.198394,-0.24011 -0.388426,-0.43503 -0.422296,-0.433156 -0.03387,0.0019 -0.40686,0.422124 -0.82887,0.933889 -1.149364,1.393814 -1.727856,2.015064 -2.007386,2.155754 -0.132866,0.06687 -0.527324,0.233571 -0.876574,0.37044 -1.59851,0.626448 -2.386326,0.94968 -2.446126,1.003613 -0.05027,0.04534 -0.0105,0.153682 0.176612,0.481227 0.212376,0.371753 0.538422,0.973193 1.304898,2.407087 0.11668,0.218281 0.233496,0.424178 0.25959,0.45755 0.0261,0.03337 0.08365,0.354839 0.12789,0.714375 0.04424,0.359535 0.10213,0.751008 0.128638,0.86994 0.02651,0.118932 0.108766,0.714245 0.182798,1.322917 0.07403,0.608672 0.145494,1.136442 0.158804,1.172822 0.01906,0.05208 0.826186,0.06597 3.796174,0.06534 2.074586,-4.2e-4 3.799238,-0.01831 3.832564,-0.03969 z"
       id="path4819" />
  </g>
</svg>
