<?xml version="1.0" encoding="UTF-8" standalone="no"?>
<svg
   xmlns:dc="http://purl.org/dc/elements/1.1/"
   xmlns:cc="http://creativecommons.org/ns#"
   xmlns:rdf="http://www.w3.org/1999/02/22-rdf-syntax-ns#"
   xmlns:svg="http://www.w3.org/2000/svg"
   xmlns="http://www.w3.org/2000/svg"
   xmlns:sodipodi="http://sodipodi.sourceforge.net/DTD/sodipodi-0.dtd"
   xmlns:inkscape="http://www.inkscape.org/namespaces/inkscape"
   width="13.229167mm"
   height="13.229167mm"
   viewBox="0 0 13.229169 13.229168"
   version="1.1"
   id="svg8"
   sodipodi:docname="VCS_resized_349.svg"
   inkscape:version="1.0.2-2 (e86c870879, 2021-01-15)">
  <defs
     id="defs2" />
  <sodipodi:namedview
     id="base"
     pagecolor="#ffffff"
     bordercolor="#666666"
     borderopacity="1.0"
     inkscape:pageopacity="0.0"
     inkscape:pageshadow="2"
     inkscape:zoom="4"
     inkscape:cx="8.3351931"
     inkscape:cy="20.762077"
     inkscape:document-units="mm"
     inkscape:current-layer="layer1"
     inkscape:document-rotation="0"
     showgrid="false"
     inkscape:window-width="958"
     inkscape:window-height="1008"
     inkscape:window-x="1913"
     inkscape:window-y="0"
     inkscape:window-maximized="0" />
  <metadata
     id="metadata5">
    <rdf:RDF>
      <cc:Work
         rdf:about="">
        <dc:format>image/svg+xml</dc:format>
        <dc:type
           rdf:resource="http://purl.org/dc/dcmitype/StillImage" />
        <dc:title></dc:title>
      </cc:Work>
    </rdf:RDF>
  </metadata>
  <g
     inkscape:label="Ebene 1"
     inkscape:groupmode="layer"
     id="layer1"
     transform="translate(-95.668243,13.916519)">
    <path
       style="fill:#000000;stroke-width:0.264582"
       d="m 101.27648,-1.6767754 c -0.33066,-0.4556484 -0.72021,-1.5963678 -0.72021,-2.1090144 0,-0.331644 -0.15114,-1.7038844 -0.21296,-1.9334406 -0.0648,-0.24064 -0.22878,-0.3396508 -1.727044,-1.0427478 -1.124038,-0.5274828 -1.959242,-0.9817306 -2.239266,-1.217886 -0.157164,-0.132542 -0.173986,-0.1673744 -0.115094,-0.2383346 0.173574,-0.2091424 1.086518,-0.4218632 2.65395,-0.6183842 1.249564,-0.1566676 1.969694,-0.3008158 2.054634,-0.4112768 0.0875,-0.1138248 0.61994,-1.2162092 0.75972,-1.5730342 0.28528,-0.728239 1.25277,-2.354791 1.40066,-2.354791 0.17888,0 0.51795,1.156934 0.65732,2.242858 0.15875,1.2369478 0.3617,2.195836 0.48586,2.2955462 0.0895,0.071894 1.27373,0.6154638 1.77538,0.814921 0.87438,0.3476624 2.28559,1.125321 2.28559,1.2594922 0,0.091192 -0.30339,0.2623424 -0.69256,0.3906928 -0.4599,0.1516746 -0.93667,0.2560198 -1.84744,0.4043226 -1.09961,0.179054 -1.86049,0.3713644 -1.97414,0.4989622 -0.11839,0.1329108 -0.28305,0.5223484 -0.56756,1.3423186 -0.26476,0.7630156 -0.73516,1.5374256 -1.2685,2.0882722 -0.21839,0.2255626 -0.42652,0.4101136 -0.46251,0.4101136 -0.036,0 -0.14661,-0.1118652 -0.24583,-0.2485898 z m 0.63633,-0.4535942 c 0.42929,-0.4589298 0.87664,-1.2234244 1.10638,-1.8907326 0.10521,-0.3055938 0.29434,-0.7743724 0.42028,-1.0417302 0.21442,-0.4552002 0.24191,-0.4895528 0.43237,-0.5403268 0.53712,-0.1431872 1.23673,-0.2894144 2.06869,-0.4323826 0.91419,-0.1570984 1.64774,-0.3528044 1.83464,-0.4894634 0.0937,-0.068546 0.0858,-0.082158 -0.13326,-0.2289348 -0.3419,-0.229061 -0.77472,-0.4441916 -1.62635,-0.8083688 -1.41401,-0.6046592 -1.96255,-0.8857584 -2.01919,-1.0347384 -0.12788,-0.3363558 -0.33308,-1.3763038 -0.42313,-2.1444718 -0.1105,-0.942589 -0.36285,-1.905 -0.49951,-1.905 -0.10662,0 -0.46123,0.578245 -0.82753,1.349375 -0.84392,1.7766332 -1.11153,2.3001226 -1.20006,2.3475042 -0.10185,0.054508 -1.720912,0.316977 -2.8144,0.4562468 -0.74828,0.095303 -1.279052,0.2168214 -1.417318,0.3244894 -0.08892,0.069246 -0.08507,0.08173 0.06414,0.2077778 0.08731,0.073758 0.923292,0.5135916 1.857734,0.9774072 0.934444,0.4638158 1.726274,0.8761832 1.759634,0.9163722 0.0844,0.1016636 0.21197,0.9791818 0.27062,1.8610358 0.0528,0.7934748 0.12144,1.1126556 0.3681,1.7108038 0.19458,0.4718606 0.32566,0.6969046 0.40592,0.6969046 0.034,0 0.20155,-0.1492954 0.37224,-0.3317674 z"
       id="path6505" />
  </g>
</svg>
