<?xml version="1.0" encoding="UTF-8" standalone="no"?>
<svg
   xmlns:dc="http://purl.org/dc/elements/1.1/"
   xmlns:cc="http://creativecommons.org/ns#"
   xmlns:rdf="http://www.w3.org/1999/02/22-rdf-syntax-ns#"
   xmlns:svg="http://www.w3.org/2000/svg"
   xmlns="http://www.w3.org/2000/svg"
   xmlns:sodipodi="http://sodipodi.sourceforge.net/DTD/sodipodi-0.dtd"
   xmlns:inkscape="http://www.inkscape.org/namespaces/inkscape"
   width="13.229167mm"
   height="13.229167mm"
   viewBox="0 0 13.229169 13.229168"
   version="1.1"
   id="svg8"
   sodipodi:docname="VCS_resized_298.svg"
   inkscape:version="1.0.2-2 (e86c870879, 2021-01-15)">
  <defs
     id="defs2" />
  <sodipodi:namedview
     id="base"
     pagecolor="#ffffff"
     bordercolor="#666666"
     borderopacity="1.0"
     inkscape:pageopacity="0.0"
     inkscape:pageshadow="2"
     inkscape:zoom="4"
     inkscape:cx="10.146099"
     inkscape:cy="30.972577"
     inkscape:document-units="mm"
     inkscape:current-layer="layer1"
     inkscape:document-rotation="0"
     showgrid="false"
     inkscape:window-width="958"
     inkscape:window-height="1008"
     inkscape:window-x="1913"
     inkscape:window-y="0"
     inkscape:window-maximized="0" />
  <metadata
     id="metadata5">
    <rdf:RDF>
      <cc:Work
         rdf:about="">
        <dc:format>image/svg+xml</dc:format>
        <dc:type
           rdf:resource="http://purl.org/dc/dcmitype/StillImage" />
        <dc:title></dc:title>
      </cc:Work>
    </rdf:RDF>
  </metadata>
  <g
     inkscape:label="Ebene 1"
     inkscape:groupmode="layer"
     id="layer1"
     transform="translate(-92.543274,16.618048)">
    <path
       style="fill:#000000;stroke-width:0.264582"
       d="m 97.935398,-4.0142296 c -0.392906,-0.038943 -0.844764,-0.089157 -1.004126,-0.1115858 -0.286756,-0.040357 -0.290162,-0.042969 -0.329326,-0.2524454 -0.02177,-0.1164166 -0.112542,-0.9498542 -0.201726,-1.8520834 -0.08918,-0.9022292 -0.175294,-1.683758 -0.191356,-1.7367308 -0.01606,-0.052973 -0.687864,-0.6200806 -1.492896,-1.2602394 -2.053086,-1.6326066 -2.074918,-1.6510066 -2.059474,-1.7357286 0.0076,-0.04182 0.08526,-0.09276 0.172528,-0.11321 0.08727,-0.02045 1.055434,-0.233528 2.151484,-0.47351 1.096046,-0.239982 2.017666,-0.451692 2.048042,-0.470465 0.03038,-0.01877 0.491618,-0.938293 1.024984,-2.043375 1.173312,-2.431001 1.067086,-2.339242 1.560276,-1.347783 0.18097,0.363802 0.608582,1.254056 0.950252,1.978342 0.34166,0.724287 0.64884,1.344513 0.6826,1.37828 0.0338,0.03377 0.42769,0.139552 0.87538,0.235077 0.44769,0.09553 1.19498,0.264205 1.66065,0.374845 0.46566,0.110639 1.07884,0.253361 1.3626,0.31716 0.31215,0.07018 0.51594,0.141859 0.51594,0.181471 0,0.08423 -0.25012,0.296186 -1.98698,1.6838022 -0.78725,0.628948 -1.45709,1.1755532 -1.48853,1.2146782 -0.0713,0.088765 -0.19367,0.9992858 -0.33304,2.4788448 -0.11251,1.1945138 -0.14586,1.4280934 -0.20409,1.4297744 -0.0195,5.6e-4 -0.49983,0.04803 -1.06736,0.1054826 -1.162604,0.1176914 -1.620302,0.1210474 -2.645832,0.019399 z m 2.372092,-0.259724 c 0.51436,-0.044495 0.98545,-0.091739 1.04687,-0.1049856 0.0957,-0.020649 0.11658,-0.075163 0.14614,-0.3821198 0.019,-0.1969192 0.11033,-1.0431662 0.20306,-1.8805488 l 0.16859,-1.5225134 1.53052,-1.2291532 c 0.84178,-0.6760346 1.58122,-1.2695386 1.64318,-1.3189006 0.0734,-0.05844 0.0942,-0.106814 0.0598,-0.138673 -0.0509,-0.04706 -1.10955,-0.298066 -2.7252,-0.646148 -0.42201,-0.09092 -0.89529,-0.201781 -1.05172,-0.24636 l -0.28443,-0.08105 -0.39886,-0.82776 c -0.21937,-0.455268 -0.6274,-1.314012 -0.906732,-1.908321 -0.27933,-0.594308 -0.533262,-1.089023 -0.56429,-1.099366 -0.03103,-0.01034 -0.195942,0.273503 -0.366474,0.630769 -0.59599,1.248606 -1.455794,3.031458 -1.498232,3.106664 -0.02354,0.04171 -0.07692,0.0968 -0.118634,0.122416 -0.04171,0.02562 -0.9569,0.241522 -2.033754,0.479786 -1.163858,0.257516 -1.957918,0.457447 -1.957918,0.492974 0,0.03287 0.405014,0.378152 0.900028,0.767292 1.249174,0.9819972 2.210832,1.7616052 2.282092,1.8500754 0.03302,0.040994 0.07464,0.1459718 0.09249,0.2332842 0.031,0.1516354 0.177284,1.542125 0.297132,2.8242758 0.03094,0.3309768 0.07842,0.6431984 0.105514,0.6938264 0.04016,0.075046 0.159612,0.099427 0.64663,0.1319832 0.328554,0.021963 0.716432,0.057794 0.861952,0.079624 0.435378,0.065313 0.93585,0.058265 1.922296,-0.027069 z"
       id="path5683" />
  </g>
</svg>
