<?xml version="1.0" encoding="UTF-8" standalone="no"?>
<svg
   xmlns:dc="http://purl.org/dc/elements/1.1/"
   xmlns:cc="http://creativecommons.org/ns#"
   xmlns:rdf="http://www.w3.org/1999/02/22-rdf-syntax-ns#"
   xmlns:svg="http://www.w3.org/2000/svg"
   xmlns="http://www.w3.org/2000/svg"
   xmlns:sodipodi="http://sodipodi.sourceforge.net/DTD/sodipodi-0.dtd"
   xmlns:inkscape="http://www.inkscape.org/namespaces/inkscape"
   width="13.229167mm"
   height="13.229167mm"
   viewBox="0 0 13.229169 13.229168"
   version="1.1"
   id="svg8"
   sodipodi:docname="VCS_resized_306.svg"
   inkscape:version="1.0.2-2 (e86c870879, 2021-01-15)">
  <defs
     id="defs2" />
  <sodipodi:namedview
     id="base"
     pagecolor="#ffffff"
     bordercolor="#666666"
     borderopacity="1.0"
     inkscape:pageopacity="0.0"
     inkscape:pageshadow="2"
     inkscape:zoom="4"
     inkscape:cx="16.48204"
     inkscape:cy="39.903298"
     inkscape:document-units="mm"
     inkscape:current-layer="layer1"
     inkscape:document-rotation="0"
     showgrid="false"
     inkscape:window-width="958"
     inkscape:window-height="1008"
     inkscape:window-x="1913"
     inkscape:window-y="0"
     inkscape:window-maximized="0" />
  <metadata
     id="metadata5">
    <rdf:RDF>
      <cc:Work
         rdf:about="">
        <dc:format>image/svg+xml</dc:format>
        <dc:type
           rdf:resource="http://purl.org/dc/dcmitype/StillImage" />
        <dc:title></dc:title>
      </cc:Work>
    </rdf:RDF>
  </metadata>
  <g
     inkscape:label="Ebene 1"
     inkscape:groupmode="layer"
     id="layer1"
     transform="translate(-90.86689,18.980967)">
    <path
       style="fill:#000000;stroke-width:0.264582"
       d="m 96.724712,-6.4067455 c -0.291042,-0.06825 -0.735786,-0.166412 -0.988322,-0.218142 -0.38192,-0.07823 -0.463744,-0.112827 -0.48642,-0.205656 -0.015,-0.06138 -0.111978,-0.802165 -0.215518,-1.646186 -0.103538,-0.844021 -0.201212,-1.6118005 -0.21705,-1.7061745 -0.02497,-0.148795 -0.113026,-0.229639 -0.662818,-0.608542 -1.974734,-1.360939 -3.174216,-2.227684 -3.156938,-2.2812 0.02318,-0.07179 0.33432,-0.155025 1.996442,-0.534065 0.683948,-0.155971 1.526982,-0.350568 1.87341,-0.432438 l 0.62987,-0.148854 0.14722,-0.319364 c 0.08097,-0.17565 0.337636,-0.747988 0.570366,-1.271863 1.173512,-2.641554 1.20221,-2.69769 1.350078,-2.640947 0.04177,0.01603 0.128506,0.152455 0.192748,0.30317 0.06424,0.150715 0.361868,0.821714 0.661399,1.49111 0.299528,0.669396 0.664216,1.488773 0.810416,1.820838 l 0.265818,0.603754 0.704857,0.170165 c 0.38767,0.09359 1.18111,0.282838 1.76319,0.420547 1.30999,0.309919 1.92758,0.478613 1.99349,0.54452 0.0323,0.03226 -0.0279,0.112859 -0.16562,0.221943 -0.25847,0.204707 -1.82199,1.305429 -3.11563,2.193401 -0.2135,0.14655 -0.40736,0.302745 -0.43079,0.347101 -0.042,0.07946 -0.16252,0.9353715 -0.372579,2.6455335 -0.05888,0.479353 -0.126966,0.891462 -0.1513,0.915798 -0.07301,0.07301 -1.698125,0.411168 -2.096735,0.436292 -0.269746,0.017 -0.514232,-0.01038 -0.899584,-0.100741 z m 1.625556,-0.290508 c 0.386529,-0.08359 0.793151,-0.168215 0.903607,-0.188055 0.234832,-0.04218 0.272846,-0.113977 0.324266,-0.612463 0.03356,-0.325301 0.122432,-0.979168 0.325284,-2.393165 l 0.08901,-0.6204585 0.641555,-0.433628 c 0.96288,-0.650817 2.72922,-1.903324 2.76439,-1.960226 0.017,-0.02749 0.0207,-0.06015 0.008,-0.07257 -0.0285,-0.02852 -0.90219,-0.244379 -2.6603,-0.657293 -0.756713,-0.177722 -1.401831,-0.351853 -1.433603,-0.386959 -0.03177,-0.03511 -0.436584,-0.926432 -0.899584,-1.980725 -0.462999,-1.054294 -0.869201,-1.917497 -0.902671,-1.91823 -0.03347,-7.4e-4 -0.144888,0.195122 -0.247594,0.435231 -0.102708,0.240109 -0.386912,0.877094 -0.631566,1.415521 -0.244654,0.538427 -0.548762,1.212165 -0.675796,1.497195 -0.127034,0.28503 -0.259304,0.54175 -0.29393,0.570489 -0.05594,0.04642 -0.881796,0.246776 -3.324652,0.806562 -0.40506,0.09282 -0.744802,0.19375 -0.754982,0.224288 -0.01018,0.03054 0.285516,0.267313 0.6571,0.526167 0.371584,0.258854 0.882148,0.614801 1.134586,0.790992 0.25244,0.176192 0.657252,0.456431 0.899584,0.622753 0.242332,0.166323 0.517688,0.368729 0.611904,0.449792 l 0.171302,0.147387 0.212334,1.7171345 c 0.116782,0.944424 0.231348,1.736152 0.254592,1.759395 0.02324,0.02324 0.291138,0.08909 0.595324,0.146328 0.304184,0.05724 0.707844,0.138726 0.897022,0.181086 0.480382,0.107566 0.544076,0.104389 1.334514,-0.06655 z"
       id="path5811" />
  </g>
</svg>
