<?xml version="1.0" encoding="UTF-8" standalone="no"?>
<svg
   xmlns:dc="http://purl.org/dc/elements/1.1/"
   xmlns:cc="http://creativecommons.org/ns#"
   xmlns:rdf="http://www.w3.org/1999/02/22-rdf-syntax-ns#"
   xmlns:svg="http://www.w3.org/2000/svg"
   xmlns="http://www.w3.org/2000/svg"
   xmlns:sodipodi="http://sodipodi.sourceforge.net/DTD/sodipodi-0.dtd"
   xmlns:inkscape="http://www.inkscape.org/namespaces/inkscape"
   width="13.229167mm"
   height="13.229167mm"
   viewBox="0 0 13.229169 13.229168"
   version="1.1"
   id="svg8"
   sodipodi:docname="VCS_resized_242.svg"
   inkscape:version="1.0.2-2 (e86c870879, 2021-01-15)">
  <defs
     id="defs2" />
  <sodipodi:namedview
     id="base"
     pagecolor="#ffffff"
     bordercolor="#666666"
     borderopacity="1.0"
     inkscape:pageopacity="0.0"
     inkscape:pageshadow="2"
     inkscape:zoom="4"
     inkscape:cx="2.2728476"
     inkscape:cy="39.522483"
     inkscape:document-units="mm"
     inkscape:current-layer="layer1"
     inkscape:document-rotation="0"
     showgrid="false"
     inkscape:window-width="958"
     inkscape:window-height="1008"
     inkscape:window-x="1913"
     inkscape:window-y="0"
     inkscape:window-maximized="0" />
  <metadata
     id="metadata5">
    <rdf:RDF>
      <cc:Work
         rdf:about="">
        <dc:format>image/svg+xml</dc:format>
        <dc:type
           rdf:resource="http://purl.org/dc/dcmitype/StillImage" />
        <dc:title></dc:title>
      </cc:Work>
    </rdf:RDF>
  </metadata>
  <g
     inkscape:label="Ebene 1"
     inkscape:groupmode="layer"
     id="layer1"
     transform="translate(-78.44873,-13.767013)">
    <path
       style="fill:#000000;stroke-width:0.264582"
       d="m 80.957073,26.612535 c -0.02814,-0.03638 -0.126992,-0.601928 -0.219678,-1.256772 -0.09268,-0.654844 -0.224086,-1.559718 -0.292004,-2.010834 l -0.123486,-0.820208 -0.937626,-1.815918 c -0.515696,-0.998755 -0.926278,-1.844099 -0.912406,-1.878542 0.01388,-0.03444 0.140828,-0.10765 0.282122,-0.162683 0.141296,-0.05503 0.61409,-0.254411 1.050652,-0.443063 1.999088,-0.863868 2.32827,-1.022192 2.53211,-1.217853 0.112846,-0.108318 0.751804,-0.810113 1.419906,-1.559545 0.741376,-0.831624 1.252034,-1.362604 1.310452,-1.362604 0.05264,0 0.21172,0.136567 0.3535,0.303483 0.519364,0.611442 1.58253,1.798985 2.014638,2.250328 0.480448,0.501832 0.688362,0.62846 1.841475,1.121531 1.91154,0.817372 2.333222,1.001974 2.376638,1.040436 0.04347,0.03851 -0.737452,1.637564 -1.543514,3.160567 -0.315536,0.596183 -0.434648,0.960989 -0.43562,1.334177 -4e-4,0.132632 -0.04851,0.501724 -0.10703,0.820208 -0.05852,0.318484 -0.155812,0.971968 -0.216204,1.452186 -0.06084,0.483806 -0.143716,0.926216 -0.18586,0.992188 l -0.07606,0.119062 h -4.040421 c -3.16978,0 -4.05145,-0.01426 -4.091584,-0.06614 z m 7.963652,-0.264584 c 0.02961,-0.03638 0.0824,-0.292364 0.11733,-0.568854 0.03492,-0.27649 0.131399,-0.919428 0.214387,-1.42875 0.08299,-0.509324 0.175904,-1.128448 0.20648,-1.375834 0.05315,-0.430072 0.08957,-0.517072 0.830616,-1.984375 0.426262,-0.844021 0.835308,-1.639019 0.908992,-1.766663 0.127074,-0.220138 0.129098,-0.23564 0.03935,-0.301267 -0.05204,-0.03805 -0.526494,-0.251458 -1.054342,-0.474235 -2.496609,-1.053687 -2.372705,-0.987652 -2.917311,-1.554805 -0.535864,-0.55805 -1.243178,-1.347539 -1.771428,-1.97723 -0.188292,-0.224451 -0.38294,-0.408092 -0.432554,-0.408092 -0.04961,0 -0.217026,0.151376 -0.372026,0.336392 -0.582562,0.695369 -1.738744,1.977133 -2.06252,2.286547 -0.366026,0.349789 -0.626526,0.479537 -2.558466,1.274304 -0.174626,0.07184 -0.388938,0.162916 -0.47625,0.202397 -0.08731,0.03948 -0.295672,0.132027 -0.463022,0.205659 -0.167348,0.07363 -0.30427,0.147515 -0.30427,0.164184 0,0.01667 0.151488,0.321588 0.33664,0.6776 0.185154,0.35601 0.582762,1.123542 0.883576,1.705625 l 0.546932,1.058335 0.116178,0.76729 c 0.0639,0.422012 0.192134,1.291168 0.284972,1.93146 0.09284,0.64029 0.177982,1.193932 0.189212,1.230312 0.01608,0.05212 0.832914,0.06615 3.852058,0.06615 3.001324,0 3.843304,-0.01434 3.885468,-0.06615 z"
       id="path4771" />
  </g>
</svg>
