<?xml version="1.0" encoding="UTF-8" standalone="no"?>
<svg
   xmlns:dc="http://purl.org/dc/elements/1.1/"
   xmlns:cc="http://creativecommons.org/ns#"
   xmlns:rdf="http://www.w3.org/1999/02/22-rdf-syntax-ns#"
   xmlns:svg="http://www.w3.org/2000/svg"
   xmlns="http://www.w3.org/2000/svg"
   xmlns:sodipodi="http://sodipodi.sourceforge.net/DTD/sodipodi-0.dtd"
   xmlns:inkscape="http://www.inkscape.org/namespaces/inkscape"
   width="13.229167mm"
   height="13.229167mm"
   viewBox="0 0 13.229167 13.229167"
   version="1.1"
   id="svg8"
   sodipodi:docname="VCS_resized_86.svg"
   inkscape:version="1.0.2-2 (e86c870879, 2021-01-15)">
  <defs
     id="defs2" />
  <sodipodi:namedview
     id="base"
     pagecolor="#ffffff"
     bordercolor="#666666"
     borderopacity="1.0"
     inkscape:pageopacity="0.0"
     inkscape:pageshadow="2"
     inkscape:zoom="2.8284271"
     inkscape:cx="18.29329"
     inkscape:cy="30.294431"
     inkscape:document-units="mm"
     inkscape:current-layer="layer1"
     inkscape:document-rotation="0"
     showgrid="false"
     inkscape:window-width="958"
     inkscape:window-height="1008"
     inkscape:window-x="1913"
     inkscape:window-y="0"
     inkscape:window-maximized="0" />
  <metadata
     id="metadata5">
    <rdf:RDF>
      <cc:Work
         rdf:about="">
        <dc:format>image/svg+xml</dc:format>
        <dc:type
           rdf:resource="http://purl.org/dc/dcmitype/StillImage" />
        <dc:title></dc:title>
      </cc:Work>
    </rdf:RDF>
  </metadata>
  <g
     inkscape:label="Ebene 1"
     inkscape:groupmode="layer"
     id="layer1"
     transform="translate(-33.359886,-18.576212)">
    <path
       style="fill:#000000;stroke-width:0.264582"
       d="m 37.710737,30.713868 c -0.91323,-0.06755 -1.544974,-0.334414 -2.08666,-0.881458 -0.458086,-0.462614 -0.575494,-0.719834 -0.550898,-1.206909 0.01732,-0.342929 0.0422,-0.419832 0.225664,-0.697379 0.113412,-0.171571 0.449858,-0.55121 0.74766,-0.843643 0.89096,-0.874894 1.163266,-1.415588 1.031816,-2.048783 -0.114316,-0.550656 -0.302894,-0.847028 -1.314924,-2.066565 -0.72648,-0.875439 -0.933594,-1.821085 -0.568076,-2.59373 0.228638,-0.483301 0.594916,-0.724115 1.098196,-0.722022 0.54244,0.0023 0.988874,0.318688 1.812592,1.284766 0.82827,0.971414 1.186366,1.201502 1.868612,1.200638 0.70146,-8.8e-4 0.975362,-0.190089 1.929862,-1.333081 0.901706,-1.079774 1.525568,-1.367552 2.211326,-1.020051 0.447094,0.22656 0.65818,0.606568 0.720738,1.297516 0.06525,0.720698 -0.175488,1.292548 -0.917822,2.180181 -0.989538,1.183223 -1.229904,1.726608 -1.05687,2.389227 0.11587,0.443714 0.32765,0.730866 1.078446,1.462256 0.832332,0.810823 0.98917,1.066576 0.989976,1.614338 0.001,0.651936 -0.318662,1.032057 -1.241098,1.476027 -0.615528,0.296254 -1.132158,0.43083 -1.824582,0.475284 -0.819282,0.0526 -3.592876,0.07489 -4.153958,0.03339 z m 4.0128,-0.32348 c 1.42676,-0.120168 2.65148,-0.69435 2.86573,-1.343534 0.16333,-0.4949 -0.03012,-0.882816 -0.871814,-1.748179 -0.96463,-0.991758 -1.163758,-1.364354 -1.12461,-2.104301 0.01906,-0.360403 0.05192,-0.471083 0.267026,-0.899583 0.146412,-0.29166 0.40515,-0.680587 0.641886,-0.964866 0.977546,-1.173858 1.198908,-1.716755 1.029212,-2.524166 -0.07659,-0.364434 -0.445302,-0.748689 -0.767892,-0.800273 -0.452456,-0.07235 -1.017538,0.243906 -1.501506,0.840343 -0.641308,0.790342 -0.961332,1.130143 -1.228322,1.304231 -0.43237,0.281923 -0.60364,0.333439 -1.10001,0.330872 -0.38447,-0.002 -0.493154,-0.02396 -0.748374,-0.151321 -0.381978,-0.190612 -0.767466,-0.528882 -1.144538,-1.004349 -0.678184,-0.855148 -1.06768,-1.180875 -1.560434,-1.304951 -0.31556,-0.07946 -0.5768,-1.64e-4 -0.845308,0.256572 -0.249254,0.238328 -0.326454,0.466078 -0.321002,0.946999 0.0038,0.334418 0.03081,0.434776 0.220798,0.820209 0.129742,0.263206 0.417332,0.688388 0.717774,1.061179 0.745074,0.924494 1.034748,1.472012 1.11388,2.105371 0.02863,0.229119 0.01186,0.364564 -0.07853,0.63407 -0.163736,0.488227 -0.265444,0.631838 -0.96688,1.365228 -0.700186,0.732081 -0.859312,0.953724 -0.938542,1.307267 -0.07477,0.333625 0.0067,0.57759 0.323824,0.969493 0.506276,0.625699 1.165064,0.889443 2.37525,0.950925 0.9271,0.0471 2.812642,0.02265 3.642384,-0.04724 z"
       id="path1418" />
  </g>
</svg>
