<?xml version="1.0" encoding="UTF-8" standalone="no"?>
<svg
   xmlns:dc="http://purl.org/dc/elements/1.1/"
   xmlns:cc="http://creativecommons.org/ns#"
   xmlns:rdf="http://www.w3.org/1999/02/22-rdf-syntax-ns#"
   xmlns:svg="http://www.w3.org/2000/svg"
   xmlns="http://www.w3.org/2000/svg"
   xmlns:sodipodi="http://sodipodi.sourceforge.net/DTD/sodipodi-0.dtd"
   xmlns:inkscape="http://www.inkscape.org/namespaces/inkscape"
   width="13.229167mm"
   height="13.229167mm"
   viewBox="0 0 13.229169 13.229168"
   version="1.1"
   id="svg8"
   sodipodi:docname="VCS_resized_123.svg"
   inkscape:version="1.0.2-2 (e86c870879, 2021-01-15)">
  <defs
     id="defs2" />
  <sodipodi:namedview
     id="base"
     pagecolor="#ffffff"
     bordercolor="#666666"
     borderopacity="1.0"
     inkscape:pageopacity="0.0"
     inkscape:pageshadow="2"
     inkscape:zoom="2.8284271"
     inkscape:cx="6.0480665"
     inkscape:cy="44.837308"
     inkscape:document-units="mm"
     inkscape:current-layer="layer1"
     inkscape:document-rotation="0"
     showgrid="false"
     inkscape:window-width="958"
     inkscape:window-height="1008"
     inkscape:window-x="1913"
     inkscape:window-y="0"
     inkscape:window-maximized="0" />
  <metadata
     id="metadata5">
    <rdf:RDF>
      <cc:Work
         rdf:about="">
        <dc:format>image/svg+xml</dc:format>
        <dc:type
           rdf:resource="http://purl.org/dc/dcmitype/StillImage" />
        <dc:title></dc:title>
      </cc:Work>
    </rdf:RDF>
  </metadata>
  <g
     inkscape:label="Ebene 1"
     inkscape:groupmode="layer"
     id="layer1"
     transform="translate(-36.599766,-14.728408)">
    <path
       style="fill:#000000;stroke-width:0.264582"
       d="m 41.302468,27.392296 c -0.465666,-0.120967 -0.876604,-0.23931 -0.913194,-0.262986 -0.0597,-0.03863 -1.133146,-1.323697 -1.683138,-2.01496 -0.42884,-0.538989 -0.658044,-1.086719 -0.658044,-1.572529 0,-0.316641 0.274726,-0.757456 0.835282,-1.340271 0.62297,-0.647704 0.86898,-1.081765 0.901366,-1.590378 0.03282,-0.515493 -0.08999,-0.839306 -0.607828,-1.602607 -0.7688,-1.133222 -0.925446,-1.508887 -0.923008,-2.213522 0.0043,-1.231428 0.759994,-1.977776 1.67273,-1.651957 0.248178,0.08859 0.797486,0.490528 1.526946,1.117283 0.897598,0.771221 1.366936,0.97721 2.106048,0.924326 0.552332,-0.03952 1.01116,-0.328785 1.949714,-1.229188 0.749844,-0.719362 1.00764,-0.878352 1.433752,-0.884233 0.72464,-0.01 1.272572,0.743911 1.274492,1.753605 0.001,0.555273 -0.152604,1.005845 -0.521426,1.528954 -0.84743,1.201928 -0.972384,1.448669 -1.008932,1.992273 -0.01948,0.289647 4e-4,0.444954 0.09082,0.712249 0.146126,0.431618 0.224252,0.54108 0.861824,1.207509 0.607486,0.634981 0.738006,0.8797 0.740702,1.388769 0.0022,0.406763 -0.118782,0.719681 -0.448514,1.16052 -0.340158,0.454777 -1.762528,2.188231 -1.873694,2.283487 -0.05458,0.04677 -0.206392,0.112695 -0.33736,0.146505 -1.554314,0.401249 -1.392502,0.377378 -2.521922,0.372046 l -1.049954,-0.005 -0.846666,-0.219939 z m 3.64166,-0.222844 c 0.296316,-0.07436 0.627116,-0.158368 0.735112,-0.186688 0.168894,-0.04429 0.313308,-0.193737 1.032662,-1.068657 1.224228,-1.488981 1.230236,-1.496999 1.32077,-1.762703 0.115166,-0.33799 0.07112,-0.853685 -0.09304,-1.089377 -0.06739,-0.09676 -0.32626,-0.40246 -0.575264,-0.67934 -0.636548,-0.707811 -0.835694,-1.016789 -0.920838,-1.428688 -0.165388,-0.800092 0.05825,-1.43207 0.946996,-2.676078 0.14729,-0.206168 0.322614,-0.502267 0.389608,-0.657998 0.15298,-0.355615 0.206198,-1.006454 0.1103,-1.34897 -0.127402,-0.45503 -0.475494,-0.805099 -0.841382,-0.846157 -0.341978,-0.03837 -0.888314,0.279939 -1.407418,0.820005 -0.364232,0.378942 -1.027248,0.878736 -1.390736,1.048363 -0.269162,0.125609 -0.36399,0.140929 -0.858222,0.138649 -0.449242,-0.0021 -0.614426,-0.02567 -0.862736,-0.12327 -0.384886,-0.151276 -0.93961,-0.530692 -1.506916,-1.030686 -0.600794,-0.52951 -1.163704,-0.847735 -1.490834,-0.8428 -0.393032,0.0059 -0.667304,0.192115 -0.881422,0.598341 -0.07672,0.145558 -0.09787,0.304709 -0.09879,0.743392 -0.0012,0.537809 0.0059,0.572577 0.193908,0.9525 0.107294,0.216874 0.353682,0.632441 0.547528,0.923483 0.193846,0.291042 0.406376,0.636323 0.47229,0.767292 0.33005,0.655808 0.399232,1.28731 0.197348,1.801407 -0.113892,0.290029 -0.233554,0.449697 -1.023454,1.365623 -0.588496,0.682391 -0.684184,0.925487 -0.555104,1.410261 0.11166,0.419357 0.191446,0.53718 1.193852,1.763051 l 0.947846,1.159148 0.732098,0.187545 c 0.728972,0.186743 0.737256,0.187565 1.939592,0.192546 1.128308,0.0047 1.242824,-0.0039 1.74625,-0.130194 z"
       id="path2010" />
  </g>
</svg>
