<?xml version="1.0" encoding="UTF-8" standalone="no"?>
<svg
   xmlns:dc="http://purl.org/dc/elements/1.1/"
   xmlns:cc="http://creativecommons.org/ns#"
   xmlns:rdf="http://www.w3.org/1999/02/22-rdf-syntax-ns#"
   xmlns:svg="http://www.w3.org/2000/svg"
   xmlns="http://www.w3.org/2000/svg"
   xmlns:sodipodi="http://sodipodi.sourceforge.net/DTD/sodipodi-0.dtd"
   xmlns:inkscape="http://www.inkscape.org/namespaces/inkscape"
   width="13.229167mm"
   height="13.229167mm"
   viewBox="0 0 13.229167 13.229167"
   version="1.1"
   id="svg8"
   sodipodi:docname="VCS_resized_45.svg"
   inkscape:version="1.0.2-2 (e86c870879, 2021-01-15)">
  <defs
     id="defs2" />
  <sodipodi:namedview
     id="base"
     pagecolor="#ffffff"
     bordercolor="#666666"
     borderopacity="1.0"
     inkscape:pageopacity="0.0"
     inkscape:pageshadow="2"
     inkscape:zoom="2.8284271"
     inkscape:cx="-4.3933768"
     inkscape:cy="56.427578"
     inkscape:document-units="mm"
     inkscape:current-layer="layer1"
     inkscape:document-rotation="0"
     showgrid="false"
     inkscape:window-width="958"
     inkscape:window-height="1008"
     inkscape:window-x="1913"
     inkscape:window-y="0"
     inkscape:window-maximized="0" />
  <metadata
     id="metadata5">
    <rdf:RDF>
      <cc:Work
         rdf:about="">
        <dc:format>image/svg+xml</dc:format>
        <dc:type
           rdf:resource="http://purl.org/dc/dcmitype/StillImage" />
        <dc:title></dc:title>
      </cc:Work>
    </rdf:RDF>
  </metadata>
  <g
     inkscape:label="Ebene 1"
     inkscape:groupmode="layer"
     id="layer1"
     transform="translate(-39.3624,-11.661816)">
    <path
       style="fill:#000000;stroke-width:0.264582"
       d="m 42.695469,23.192388 c -0.516838,-0.08173 -0.84005,-0.364788 -1.001068,-0.876704 -0.178074,-0.566146 0.06144,-1.223292 0.707806,-1.941948 0.672522,-0.747742 0.87603,-1.150566 0.876888,-1.73571 8e-4,-0.593666 -0.151758,-0.833878 -1.158512,-1.82332 -0.95819,-0.941713 -1.12931,-1.197411 -1.180714,-1.764309 -0.06789,-0.74868 0.33126,-1.171175 1.10885,-1.173709 0.54579,-0.0018 1.106994,0.262542 1.727488,0.813629 0.360936,0.320562 0.907396,0.703602 1.150462,0.806413 0.353128,0.149366 0.849578,0.175403 1.18676,0.06224 0.37611,-0.126225 0.569018,-0.288367 1.171168,-0.984383 0.562388,-0.650058 0.60703,-0.692882 0.979882,-0.939984 0.713324,-0.472743 1.489278,-0.391673 1.814762,0.189602 0.116712,0.208437 0.13244,0.299368 0.13244,0.765693 0,0.665857 -0.08859,0.862659 -0.774132,1.719791 -0.60774,0.759852 -0.799408,1.1555 -0.807504,1.666876 -0.01024,0.646956 0.27327,1.051628 1.343512,1.917676 0.568672,0.460174 0.817782,0.785156 0.962258,1.25533 0.09939,0.32345 0.10582,0.403654 0.05267,0.657042 -0.07381,0.351892 -0.19845,0.491704 -0.62598,0.702176 -0.302326,0.148836 -0.365124,0.16051 -0.770498,0.143242 -0.431282,-0.01838 -0.461224,-0.02868 -1.313126,-0.452142 -0.937894,-0.466204 -1.374286,-0.606208 -1.882624,-0.603988 -0.589008,0.0026 -1.037718,0.215664 -1.794506,0.852204 -0.843,0.709052 -1.213726,0.853798 -1.906282,0.74428 z m 0.987794,-0.37889 c 0.105598,-0.05306 0.427068,-0.29939 0.714376,-0.547402 1.273552,-1.099372 2.198768,-1.208894 3.697376,-0.437674 1.12551,0.579214 1.016842,0.540328 1.506342,0.539044 0.74879,-0.002 1.11429,-0.27812 1.111872,-0.840078 -0.0018,-0.425526 -0.15593,-0.689352 -0.698582,-1.19603 -1.033128,-0.964636 -1.396376,-1.350162 -1.520696,-1.613958 -0.180504,-0.383014 -0.197052,-0.734256 -0.05655,-1.200236 0.14078,-0.466894 0.31615,-0.764348 0.821088,-1.39268 0.486,-0.60477 0.6564,-0.902257 0.709608,-1.238848 0.105242,-0.665758 -0.162016,-1.176923 -0.65391,-1.250687 -0.582602,-0.08737 -1.067818,0.186001 -1.698068,0.956678 -0.597388,0.730496 -0.841954,0.956294 -1.293816,1.194527 -0.195926,0.103298 -0.313144,0.124836 -0.661458,0.121534 -0.69864,-0.0066 -1.054976,-0.179776 -2.023714,-0.983378 -0.894006,-0.741608 -1.490696,-0.93784 -2.022512,-0.665138 -0.443038,0.227178 -0.538988,0.67218 -0.268302,1.244358 0.12828,0.271157 0.30984,0.4832 0.99681,1.164166 0.71917,0.712884 0.86783,0.888814 1.033736,1.223376 0.153938,0.310424 0.193712,0.451846 0.193478,0.687918 -6e-4,0.555822 -0.203426,1.05673 -0.637058,1.572936 -0.942038,1.121422 -1.100116,1.47011 -0.953304,2.102776 0.137794,0.593802 1.042734,0.890686 1.70328,0.558796 z"
       id="path730" />
  </g>
</svg>
