<?xml version="1.0" encoding="UTF-8" standalone="no"?>
<svg
   xmlns:dc="http://purl.org/dc/elements/1.1/"
   xmlns:cc="http://creativecommons.org/ns#"
   xmlns:rdf="http://www.w3.org/1999/02/22-rdf-syntax-ns#"
   xmlns:svg="http://www.w3.org/2000/svg"
   xmlns="http://www.w3.org/2000/svg"
   xmlns:sodipodi="http://sodipodi.sourceforge.net/DTD/sodipodi-0.dtd"
   xmlns:inkscape="http://www.inkscape.org/namespaces/inkscape"
   width="13.229167mm"
   height="13.229167mm"
   viewBox="0 0 13.229167 13.229167"
   version="1.1"
   id="svg8"
   sodipodi:docname="VCS_resized_16.svg"
   inkscape:version="1.0.2-2 (e86c870879, 2021-01-15)">
  <defs
     id="defs2" />
  <sodipodi:namedview
     id="base"
     pagecolor="#ffffff"
     bordercolor="#666666"
     borderopacity="1.0"
     inkscape:pageopacity="0.0"
     inkscape:pageshadow="2"
     inkscape:zoom="2.8284271"
     inkscape:cx="-2.8460744"
     inkscape:cy="58.627729"
     inkscape:document-units="mm"
     inkscape:current-layer="layer1"
     inkscape:document-rotation="0"
     showgrid="false"
     inkscape:window-width="958"
     inkscape:window-height="1008"
     inkscape:window-x="1913"
     inkscape:window-y="0"
     inkscape:window-maximized="0" />
  <metadata
     id="metadata5">
    <rdf:RDF>
      <cc:Work
         rdf:about="">
        <dc:format>image/svg+xml</dc:format>
        <dc:type
           rdf:resource="http://purl.org/dc/dcmitype/StillImage" />
        <dc:title></dc:title>
      </cc:Work>
    </rdf:RDF>
  </metadata>
  <g
     inkscape:label="Ebene 1"
     inkscape:groupmode="layer"
     id="layer1"
     transform="translate(-38.953011,-11.079692)">
    <path
       style="fill:#000000;stroke-width:0.264582"
       d="m 43.300336,22.971838 c -0.159372,-0.0595 -0.371174,-0.524138 -0.446708,-0.979968 -0.0732,-0.44175 4e-4,-0.923814 0.251432,-1.647928 0.09815,-0.283051 0.207404,-0.717046 0.242796,-0.964432 0.142112,-0.993351 -0.02606,-1.236775 -1.460458,-2.113988 -1.075996,-0.65803 -1.603592,-1.128559 -1.726894,-1.540104 -0.093,-0.310412 -0.03249,-0.443527 0.257754,-0.56699 0.687146,-0.292299 1.233254,-0.282473 2.488826,0.04478 0.824808,0.21498 1.5548,0.309767 1.838082,0.238668 0.260058,-0.06527 0.698864,-0.549195 1.125482,-1.241202 0.499414,-0.810092 1.047928,-1.397616 1.531804,-1.640746 0.181072,-0.09098 0.376174,-0.165422 0.433562,-0.165422 0.140078,0 0.250442,0.168886 0.380382,0.582084 0.15534,0.493959 0.145306,1.067429 -0.0287,1.640416 -0.334856,1.102662 -0.431142,1.635333 -0.369682,2.045171 0.0616,0.410809 0.323688,0.643207 1.841248,1.632702 0.771214,0.502853 1.354564,1.189859 1.355766,1.596673 4e-4,0.152189 -0.02828,0.182221 -0.303774,0.3175 -0.284514,0.13971 -0.345504,0.149157 -0.939272,0.14545 -0.556768,-0.0035 -0.725328,-0.02803 -1.368176,-0.199282 -0.505494,-0.134666 -0.904302,-0.20579 -1.284234,-0.229036 l -0.55106,-0.03372 -0.278864,0.192062 c -0.359856,0.247842 -0.678432,0.620936 -1.09241,1.279352 -0.570462,0.907298 -0.800614,1.163692 -1.274176,1.419448 -0.392252,0.211844 -0.485004,0.23992 -0.622726,0.188506 z m 0.495522,-0.411528 c 0.35857,-0.162862 0.580446,-0.403856 1.114266,-1.210274 0.547216,-0.826655 0.797164,-1.128065 1.202132,-1.449652 l 0.256106,-0.203373 h 0.579562 c 0.606928,0 1.088802,0.07813 1.8451,0.299155 0.803614,0.234854 1.783512,0.159008 1.880168,-0.145532 0.05365,-0.16903 -0.193446,-0.575835 -0.536016,-0.882474 -0.177498,-0.15888 -0.611344,-0.470651 -0.964102,-0.692824 -0.705738,-0.444484 -1.096844,-0.753679 -1.398696,-1.105762 -0.198304,-0.231304 -0.198436,-0.231786 -0.197518,-0.717324 10e-4,-0.549272 0.07665,-0.952928 0.312496,-1.668349 0.275556,-0.835867 0.271186,-1.527523 -0.01186,-1.876417 -0.109114,-0.134501 -0.129214,-0.139804 -0.323184,-0.08527 -0.47527,0.133629 -0.874492,0.538063 -1.407126,1.425498 -0.370204,0.616809 -0.774208,1.108109 -1.089724,1.325189 -0.24444,0.16818 -0.252824,0.169811 -0.70717,0.13756 -0.518674,-0.03682 -1.002964,-0.128907 -1.77498,-0.33752 -0.88352,-0.238744 -1.837298,-0.187546 -2.085872,0.111967 -0.121296,0.146152 -0.01384,0.376218 0.329386,0.70526 0.322352,0.309026 0.575952,0.487813 1.568184,1.105573 0.548732,0.341638 1.024818,0.748229 1.142434,0.975672 0.208678,0.40354 0.14245,1.16723 -0.18823,2.170529 -0.119164,0.361548 -0.230332,0.80359 -0.24704,0.98232 -0.03915,0.418734 0.104794,1.044852 0.266198,1.157902 0.141134,0.09885 0.173264,0.09724 0.435482,-0.02186 z"
       id="path248" />
  </g>
</svg>
