<?xml version="1.0" encoding="UTF-8" standalone="no"?>
<svg
   xmlns:dc="http://purl.org/dc/elements/1.1/"
   xmlns:cc="http://creativecommons.org/ns#"
   xmlns:rdf="http://www.w3.org/1999/02/22-rdf-syntax-ns#"
   xmlns:svg="http://www.w3.org/2000/svg"
   xmlns="http://www.w3.org/2000/svg"
   xmlns:sodipodi="http://sodipodi.sourceforge.net/DTD/sodipodi-0.dtd"
   xmlns:inkscape="http://www.inkscape.org/namespaces/inkscape"
   width="13.229167mm"
   height="13.229167mm"
   viewBox="0 0 13.229167 13.229167"
   version="1.1"
   id="svg8"
   sodipodi:docname="VCS_resized_93.svg"
   inkscape:version="1.0.2-2 (e86c870879, 2021-01-15)">
  <defs
     id="defs2" />
  <sodipodi:namedview
     id="base"
     pagecolor="#ffffff"
     bordercolor="#666666"
     borderopacity="1.0"
     inkscape:pageopacity="0.0"
     inkscape:pageshadow="2"
     inkscape:zoom="2.8284271"
     inkscape:cx="-9.0298235"
     inkscape:cy="47.155596"
     inkscape:document-units="mm"
     inkscape:current-layer="layer1"
     inkscape:document-rotation="0"
     showgrid="false"
     inkscape:window-width="958"
     inkscape:window-height="1008"
     inkscape:window-x="1913"
     inkscape:window-y="0"
     inkscape:window-maximized="0" />
  <metadata
     id="metadata5">
    <rdf:RDF>
      <cc:Work
         rdf:about="">
        <dc:format>image/svg+xml</dc:format>
        <dc:type
           rdf:resource="http://purl.org/dc/dcmitype/StillImage" />
        <dc:title></dc:title>
      </cc:Work>
    </rdf:RDF>
  </metadata>
  <g
     inkscape:label="Ebene 1"
     inkscape:groupmode="layer"
     id="layer1"
     transform="translate(-40.589127,-14.115028)">
    <path
       style="fill:#000000;stroke-width:0.264582"
       d="m 45.55691,26.478831 c -0.836476,-0.139876 -1.013708,-0.182428 -1.412886,-0.339214 -0.614668,-0.241428 -0.983898,-0.479314 -1.35071,-0.87023 -0.392592,-0.418392 -0.568934,-0.776524 -0.569638,-1.156874 -10e-4,-0.488418 0.170036,-0.762336 0.997876,-1.59903 1.024482,-1.035438 1.231324,-1.56082 0.939714,-2.386888 -0.141676,-0.40134 -0.306694,-0.655576 -0.908848,-1.400232 -0.881104,-1.089624 -1.120124,-1.710437 -0.97951,-2.544095 0.155936,-0.924496 0.785774,-1.399687 1.573912,-1.187463 0.32206,0.08672 0.827438,0.49176 1.25556,1.006275 1.011024,1.215045 1.3904,1.485321 2.084896,1.485321 0.695466,0 0.997486,-0.201986 1.884194,-1.260117 0.840078,-1.002488 1.115038,-1.213597 1.645118,-1.263097 0.277668,-0.02593 0.37401,-0.01153 0.575468,0.08599 0.430972,0.20863 0.698988,0.644945 0.77559,1.262615 0.09329,0.752228 -0.186542,1.487332 -0.880226,2.312316 -0.544108,0.647096 -0.783426,1.00563 -0.958326,1.435704 -0.211962,0.521212 -0.203854,0.886844 0.03021,1.362288 0.145752,0.296066 0.30696,0.487654 0.889514,1.057144 0.557388,0.544892 0.746708,0.767068 0.874054,1.025744 0.256324,0.52067 0.206282,1.016654 -0.149658,1.483316 -0.291024,0.381552 -1.283376,1.06832 -1.765468,1.22181 -0.101864,0.03243 -0.459052,0.110178 -0.79375,0.17277 -0.507834,0.09497 -0.844982,0.116352 -2.037292,0.129208 -0.785812,0.0085 -1.559718,-0.0065 -1.71979,-0.03326 z m 3.042708,-0.287132 c 1.182012,-0.174778 1.648378,-0.332528 2.350428,-0.79504 0.824162,-0.54296 1.120402,-1.213098 0.785262,-1.77637 -0.07647,-0.128524 -0.451028,-0.56593 -0.83235,-0.97201 -0.8414,-0.896036 -1.023416,-1.212272 -1.051574,-1.827024 -0.03104,-0.677692 0.27015,-1.356956 0.99473,-2.243376 0.742384,-0.908198 0.955184,-1.34877 0.954666,-1.976511 -4e-4,-0.533433 -0.07681,-0.743727 -0.37523,-1.033197 -0.239456,-0.232276 -0.279348,-0.251354 -0.525582,-0.251354 -0.534138,0 -0.931144,0.271664 -1.578588,1.080202 -0.595778,0.744016 -0.985088,1.110588 -1.369852,1.28985 -0.260084,0.121174 -0.37376,0.14167 -0.78066,0.14076 -0.431034,-0.001 -0.50734,-0.01714 -0.803696,-0.170252 -0.370876,-0.191624 -0.75005,-0.544406 -1.20753,-1.123477 -0.707382,-0.895395 -1.164338,-1.217083 -1.72886,-1.217083 -0.288248,0 -0.31988,0.01317 -0.540062,0.224896 -0.274794,0.264238 -0.370502,0.538318 -0.364946,1.045104 0.0067,0.607117 0.216828,1.017056 1.098756,2.143124 0.51384,0.656084 0.812956,1.258384 0.889782,1.791672 0.05076,0.352344 0.04472,0.426752 -0.06068,0.747834 -0.152718,0.465208 -0.335462,0.724004 -1.011014,1.431758 -0.793482,0.831306 -0.8755,0.962448 -0.8755,1.399878 0,0.313022 0.02177,0.388624 0.191776,0.665982 0.306594,0.500198 0.941894,0.930852 1.78548,1.210336 0.804424,0.266508 2.939204,0.37932 4.055244,0.214298 z"
       id="path1530" />
  </g>
</svg>
