<?xml version="1.0" encoding="UTF-8" standalone="no"?>
<svg
   xmlns:dc="http://purl.org/dc/elements/1.1/"
   xmlns:cc="http://creativecommons.org/ns#"
   xmlns:rdf="http://www.w3.org/1999/02/22-rdf-syntax-ns#"
   xmlns:svg="http://www.w3.org/2000/svg"
   xmlns="http://www.w3.org/2000/svg"
   xmlns:sodipodi="http://sodipodi.sourceforge.net/DTD/sodipodi-0.dtd"
   xmlns:inkscape="http://www.inkscape.org/namespaces/inkscape"
   width="13.229167mm"
   height="13.229167mm"
   viewBox="0 0 13.229169 13.229168"
   version="1.1"
   id="svg8"
   sodipodi:docname="VCS_resized_104.svg"
   inkscape:version="1.0.2-2 (e86c870879, 2021-01-15)">
  <defs
     id="defs2" />
  <sodipodi:namedview
     id="base"
     pagecolor="#ffffff"
     bordercolor="#666666"
     borderopacity="1.0"
     inkscape:pageopacity="0.0"
     inkscape:pageshadow="2"
     inkscape:zoom="2.8284271"
     inkscape:cx="7.8606886"
     inkscape:cy="59.069098"
     inkscape:document-units="mm"
     inkscape:current-layer="layer1"
     inkscape:document-rotation="0"
     showgrid="false"
     inkscape:window-width="958"
     inkscape:window-height="1008"
     inkscape:window-x="1913"
     inkscape:window-y="0"
     inkscape:window-maximized="0" />
  <metadata
     id="metadata5">
    <rdf:RDF>
      <cc:Work
         rdf:about="">
        <dc:format>image/svg+xml</dc:format>
        <dc:type
           rdf:resource="http://purl.org/dc/dcmitype/StillImage" />
        <dc:title></dc:title>
      </cc:Work>
    </rdf:RDF>
  </metadata>
  <g
     inkscape:label="Ebene 1"
     inkscape:groupmode="layer"
     id="layer1"
     transform="translate(-36.120178,-10.962914)">
    <path
       style="fill:#000000;stroke-width:0.264582"
       d="m 41.660549,23.609037 c -0.08731,-0.01269 -0.432594,-0.08254 -0.767292,-0.155212 -0.515016,-0.111827 -0.677668,-0.173894 -1.058332,-0.403846 -1.041542,-0.629175 -1.620828,-1.15037 -1.925692,-1.732583 -0.250459,-0.478318 -0.282221,-0.743019 -0.136039,-1.133727 0.09661,-0.258213 0.223977,-0.421839 0.761757,-0.97861 0.915966,-0.948315 1.141224,-1.327547 1.141224,-1.921317 0,-0.564677 -0.21474,-0.972141 -1.166432,-2.213281 -0.337994,-0.440793 -0.60789,-0.974838 -0.688293,-1.361938 -0.06639,-0.31963 -0.04166,-0.852406 0.05512,-1.187445 0.09622,-0.333113 0.375126,-0.692379 0.6619,-0.852618 0.624294,-0.348834 1.297696,-0.03805 2.22409,1.026436 0.924854,1.062718 1.322052,1.317232 2.055694,1.317232 0.59352,0 0.90329,-0.177632 1.552866,-0.890455 0.742446,-0.814737 1.308066,-1.366993 1.503676,-1.468147 0.274064,-0.141723 0.765226,-0.126887 1.050966,0.03175 0.452226,0.25106 0.740834,0.860192 0.740834,1.563594 0,0.701011 -0.242146,1.247198 -0.944354,2.130095 -0.459916,0.578261 -0.6589,0.903084 -0.82731,1.350509 -0.304572,0.809171 -0.11135,1.278727 0.968282,2.353072 0.377062,0.375215 0.669372,0.715195 0.73954,0.860143 0.23917,0.494056 0.241226,0.920514 0.0067,1.380303 -0.139782,0.273995 -0.816356,0.982711 -1.314936,1.377407 -0.496954,0.393408 -0.88466,0.575839 -1.617674,0.761181 -0.535976,0.135521 -0.672202,0.148104 -1.719792,0.158858 -0.625738,0.0064 -1.209146,0.0013 -1.296458,-0.0114 z m 2.872668,-0.422324 c 0.869134,-0.194552 1.467716,-0.543533 2.25804,-1.31646 0.629332,-0.615481 0.825522,-1.181067 0.584784,-1.685847 -0.05356,-0.112299 -0.325608,-0.451986 -0.604558,-0.75486 -1.100936,-1.195352 -1.248736,-1.468517 -1.21186,-2.239794 0.02018,-0.422132 0.04343,-0.504851 0.269738,-0.959886 0.136208,-0.273871 0.378238,-0.664634 0.53784,-0.868363 0.830298,-1.059849 1.067474,-1.586394 1.023464,-2.272152 -0.03003,-0.467931 -0.180464,-0.769396 -0.508708,-1.01944 -0.252862,-0.19262 -0.435306,-0.215973 -0.76593,-0.09804 -0.349224,0.124566 -0.619794,0.354221 -1.219204,1.034842 -0.972028,1.103725 -1.357804,1.342549 -2.161174,1.337925 -0.359218,-0.0021 -0.45247,-0.02502 -0.800736,-0.197102 -0.399874,-0.197582 -0.460708,-0.253042 -1.573388,-1.434376 -0.845632,-0.897808 -1.493088,-1.052411 -1.998186,-0.477137 -0.210722,0.239999 -0.2964,0.53858 -0.297076,1.035273 -4e-4,0.358812 0.0208,0.44085 0.22193,0.855382 0.122358,0.252179 0.425834,0.728429 0.674388,1.058334 0.248556,0.329904 0.564374,0.823751 0.701818,1.097436 0.246074,0.489992 0.2499,0.505397 0.2499,1.00622 0,0.466961 -0.0141,0.537281 -0.17222,0.858747 -0.11331,0.230369 -0.338128,0.528759 -0.657238,0.872322 -1.200198,1.292168 -1.269397,1.466682 -0.885902,2.234127 0.184444,0.369104 0.615172,0.769361 1.384894,1.286921 0.612144,0.411604 0.847494,0.515266 1.494634,0.658321 0.451196,0.09974 0.699038,0.117667 1.682042,0.121666 1.061012,0.0043 1.202268,-0.0064 1.772708,-0.134057 z"
       id="path1706" />
  </g>
</svg>
