<?xml version="1.0" encoding="UTF-8" standalone="no"?>
<svg
   xmlns:dc="http://purl.org/dc/elements/1.1/"
   xmlns:cc="http://creativecommons.org/ns#"
   xmlns:rdf="http://www.w3.org/1999/02/22-rdf-syntax-ns#"
   xmlns:svg="http://www.w3.org/2000/svg"
   xmlns="http://www.w3.org/2000/svg"
   xmlns:sodipodi="http://sodipodi.sourceforge.net/DTD/sodipodi-0.dtd"
   xmlns:inkscape="http://www.inkscape.org/namespaces/inkscape"
   width="13.229167mm"
   height="13.229167mm"
   viewBox="0 0 13.229167 13.229167"
   version="1.1"
   id="svg8"
   sodipodi:docname="VCS_resized_82.svg"
   inkscape:version="1.0.2-2 (e86c870879, 2021-01-15)">
  <defs
     id="defs2" />
  <sodipodi:namedview
     id="base"
     pagecolor="#ffffff"
     bordercolor="#666666"
     borderopacity="1.0"
     inkscape:pageopacity="0.0"
     inkscape:pageshadow="2"
     inkscape:zoom="2.8284271"
     inkscape:cx="18.890817"
     inkscape:cy="27.876492"
     inkscape:document-units="mm"
     inkscape:current-layer="layer1"
     inkscape:document-rotation="0"
     showgrid="false"
     inkscape:window-width="958"
     inkscape:window-height="1008"
     inkscape:window-x="1913"
     inkscape:window-y="0"
     inkscape:window-maximized="0" />
  <metadata
     id="metadata5">
    <rdf:RDF>
      <cc:Work
         rdf:about="">
        <dc:format>image/svg+xml</dc:format>
        <dc:type
           rdf:resource="http://purl.org/dc/dcmitype/StillImage" />
        <dc:title></dc:title>
      </cc:Work>
    </rdf:RDF>
  </metadata>
  <g
     inkscape:label="Ebene 1"
     inkscape:groupmode="layer"
     id="layer1"
     transform="translate(-33.20179,-19.215958)">
    <path
       style="fill:#000000;stroke-width:0.264582"
       d="m 36.874383,31.237108 c -0.5468,-0.10367 -1.096776,-0.411582 -1.489234,-0.833772 -0.357808,-0.384913 -0.43518,-0.560939 -0.437486,-0.995318 -0.0028,-0.522414 0.141114,-0.76793 0.93509,-1.595518 0.984764,-1.026453 1.141668,-1.310462 1.077254,-1.949899 -0.0497,-0.493328 -0.311318,-0.954807 -1.023718,-1.805754 -0.809916,-0.967428 -1.072738,-1.490635 -1.072738,-2.135521 0,-0.575465 0.276236,-1.127429 0.683762,-1.366268 0.206942,-0.121282 0.295234,-0.140392 0.605342,-0.131019 0.330418,0.01 0.398096,0.03281 0.752694,0.25382 0.309182,0.192704 0.50929,0.382889 0.969154,0.921094 0.89082,1.042578 1.232314,1.273915 1.897608,1.285492 0.689162,0.01199 0.978204,-0.160683 1.705278,-1.018736 1.053966,-1.243839 1.59942,-1.595045 2.218384,-1.428375 0.699422,0.188335 1.13555,1.074436 0.955558,1.94145 -0.126214,0.60797 -0.303998,0.914137 -0.991972,1.708296 -0.760608,0.878004 -1.06608,1.512541 -0.999358,2.075897 0.06199,0.523413 0.2417,0.794891 1.05888,1.599594 0.869438,0.856161 1.034972,1.116478 1.049696,1.650732 0.02018,0.73234 -0.453708,1.22501 -1.491276,1.550369 -0.657548,0.206192 -0.872908,0.231072 -2.143126,0.247586 -0.6985,0.0091 -1.889124,0.02877 -2.645834,0.04375 -0.756708,0.01498 -1.482988,0.0069 -1.613958,-0.0179 z m 2.992828,-0.293914 c 2.195116,-0.03264 2.692298,-0.07273 3.360486,-0.270985 0.868782,-0.257768 1.342378,-0.791864 1.239918,-1.398318 -0.05261,-0.311382 -0.272694,-0.609756 -1.031414,-1.398301 -0.863252,-0.897188 -1.03246,-1.199542 -1.022892,-1.827781 0.01098,-0.720267 0.240854,-1.187954 1.081876,-2.201049 0.580044,-0.698718 0.812768,-1.107555 0.900806,-1.582492 0.140184,-0.75623 -0.249886,-1.438109 -0.855986,-1.496348 -0.540664,-0.05195 -0.92867,0.215169 -1.763112,1.213796 -0.870904,1.042261 -1.362198,1.32081 -2.19279,1.243249 -0.633088,-0.05912 -1.10388,-0.421605 -2.08749,-1.607263 -0.581706,-0.701196 -1.246126,-1.010511 -1.735338,-0.807873 -0.239022,0.09901 -0.509494,0.445229 -0.581146,0.743903 -0.151862,0.633034 0.09652,1.222501 0.97946,2.324494 0.918572,1.146462 1.184116,1.790753 1.035818,2.513204 -0.100996,0.492017 -0.291392,0.778954 -1.035146,1.560031 -0.740006,0.777141 -0.926976,1.067335 -0.925132,1.435894 0.0028,0.553674 0.52888,1.152839 1.268838,1.445029 0.200688,0.07925 1.073496,0.195612 1.167204,0.155616 0.01622,-0.0069 1.00444,-0.02709 2.19604,-0.04481 z"
       id="path1354" />
  </g>
</svg>
