<?xml version="1.0" encoding="UTF-8" standalone="no"?>
<svg
   xmlns:dc="http://purl.org/dc/elements/1.1/"
   xmlns:cc="http://creativecommons.org/ns#"
   xmlns:rdf="http://www.w3.org/1999/02/22-rdf-syntax-ns#"
   xmlns:svg="http://www.w3.org/2000/svg"
   xmlns="http://www.w3.org/2000/svg"
   xmlns:sodipodi="http://sodipodi.sourceforge.net/DTD/sodipodi-0.dtd"
   xmlns:inkscape="http://www.inkscape.org/namespaces/inkscape"
   width="13.229167mm"
   height="13.229167mm"
   viewBox="0 0 13.229169 13.229168"
   version="1.1"
   id="svg8"
   sodipodi:docname="VCS_resized_345.svg"
   inkscape:version="1.0.2-2 (e86c870879, 2021-01-15)">
  <defs
     id="defs2" />
  <sodipodi:namedview
     id="base"
     pagecolor="#ffffff"
     bordercolor="#666666"
     borderopacity="1.0"
     inkscape:pageopacity="0.0"
     inkscape:pageshadow="2"
     inkscape:zoom="4"
     inkscape:cx="10.128185"
     inkscape:cy="8.3370716"
     inkscape:document-units="mm"
     inkscape:current-layer="layer1"
     inkscape:document-rotation="0"
     showgrid="false"
     inkscape:window-width="958"
     inkscape:window-height="1008"
     inkscape:window-x="1913"
     inkscape:window-y="0"
     inkscape:window-maximized="0" />
  <metadata
     id="metadata5">
    <rdf:RDF>
      <cc:Work
         rdf:about="">
        <dc:format>image/svg+xml</dc:format>
        <dc:type
           rdf:resource="http://purl.org/dc/dcmitype/StillImage" />
        <dc:title></dc:title>
      </cc:Work>
    </rdf:RDF>
  </metadata>
  <g
     inkscape:label="Ebene 1"
     inkscape:groupmode="layer"
     id="layer1"
     transform="translate(-95.193848,10.62907)">
    <path
       style="fill:#000000;stroke-width:0.264582"
       d="m 101.09672,1.8434347 c -0.0858,-0.059111 -0.36197,-0.481119 -0.52106,-0.796125 -0.33613,-0.6655302 -0.45638,-1.1065452 -0.53598,-1.9655996 -0.09172,-0.9898386 -0.169853,-1.4837834 -0.249965,-1.5803144 -0.06851,-0.082549 -0.738936,-0.4255539 -1.50274,-0.7688343 -0.452304,-0.2032816 -1.206732,-0.571055 -1.869892,-0.9115468 -0.384984,-0.1976648 -0.740834,-0.4520194 -0.740834,-0.5295338 0,-0.1563308 0.883366,-0.4279668 1.957918,-0.602062 0.8453,-0.1369532 1.355986,-0.2287096 2.13674,-0.3839152 0.680853,-0.135346 0.613603,-0.061391 1.096243,-1.2055247 0.7123,-1.688522 1.44201,-3.0403682 1.62311,-3.006924 0.14533,0.026839 0.51417,1.2204138 0.70371,2.277203 0.18187,1.0140554 0.43814,2.0793197 0.52556,2.1846535 0.0514,0.061911 1.57578,0.708976 2.24085,0.9511798 0.39849,0.1451192 1.955,0.9461712 1.97893,1.0184452 0.0118,0.03551 -0.0578,0.113182 -0.15449,0.1726046 -0.24752,0.1520684 -1.3754,0.5122488 -1.98852,0.6350218 -0.66533,0.1332283 -1.92276,0.4556603 -2.15433,0.5524147 -0.25532,0.1066804 -0.37523,0.3768508 -0.76633,1.7266692 -0.17182,0.5929884 -0.58898,1.2566978 -1.18685,1.8882588 -0.34526,0.3647286 -0.46282,0.4330134 -0.59207,0.3439292 z m 0.51183,-0.6341898 c 0.53359,-0.5597446 0.87469,-1.1278526 1.05902,-1.763839 0.21623,-0.7460336 0.51507,-1.5379828 0.62256,-1.6498296 0.10443,-0.1086628 0.8583,-0.332005 2.01637,-0.5973705 1.27227,-0.2915354 2.11725,-0.5543206 2.11725,-0.6584548 0,-0.1100734 -0.80312,-0.4907328 -2.35479,-1.1161152 -1.24238,-0.500725 -1.57708,-0.6794568 -1.62672,-0.868662 -0.2518,-0.9598824 -0.3258,-1.2842831 -0.46475,-2.0372917 -0.19418,-1.052336 -0.45811,-1.9158348 -0.57865,-1.893164 -0.089,0.016744 -0.85221,1.5039248 -1.1891,2.3171754 -0.25825,0.6234323 -0.64474,1.4092109 -0.71426,1.4521729 -0.0718,0.044362 -1.422973,0.3045746 -2.618981,0.504363 -1.069124,0.1785928 -1.671748,0.3371512 -1.669968,0.4393916 0.0012,0.071876 0.783764,0.5241696 1.34826,0.7792946 1.482062,0.6698218 2.346622,1.1052762 2.455929,1.2369822 0.0821,0.098891 0.19772,0.8365819 0.2705,1.7254511 0.0698,0.8522002 0.16449,1.190831 0.52644,1.8820756 0.21356,0.4078562 0.35184,0.6050078 0.42436,0.6050078 0.0198,0 0.18926,-0.1607344 0.37653,-0.3571874 z"
       id="path6441" />
  </g>
</svg>
