<?xml version="1.0" encoding="UTF-8" standalone="no"?>
<svg
   xmlns:dc="http://purl.org/dc/elements/1.1/"
   xmlns:cc="http://creativecommons.org/ns#"
   xmlns:rdf="http://www.w3.org/1999/02/22-rdf-syntax-ns#"
   xmlns:svg="http://www.w3.org/2000/svg"
   xmlns="http://www.w3.org/2000/svg"
   xmlns:sodipodi="http://sodipodi.sourceforge.net/DTD/sodipodi-0.dtd"
   xmlns:inkscape="http://www.inkscape.org/namespaces/inkscape"
   width="13.229167mm"
   height="13.229167mm"
   viewBox="0 0 13.229169 13.229168"
   version="1.1"
   id="svg8"
   sodipodi:docname="VCS_resized_260.svg"
   inkscape:version="1.0.2-2 (e86c870879, 2021-01-15)">
  <defs
     id="defs2" />
  <sodipodi:namedview
     id="base"
     pagecolor="#ffffff"
     bordercolor="#666666"
     borderopacity="1.0"
     inkscape:pageopacity="0.0"
     inkscape:pageshadow="2"
     inkscape:zoom="4"
     inkscape:cx="24.110212"
     inkscape:cy="-7.499098"
     inkscape:document-units="mm"
     inkscape:current-layer="layer1"
     inkscape:document-rotation="0"
     showgrid="false"
     inkscape:window-width="958"
     inkscape:window-height="1008"
     inkscape:window-x="1913"
     inkscape:window-y="0"
     inkscape:window-maximized="0" />
  <metadata
     id="metadata5">
    <rdf:RDF>
      <cc:Work
         rdf:about="">
        <dc:format>image/svg+xml</dc:format>
        <dc:type
           rdf:resource="http://purl.org/dc/dcmitype/StillImage" />
        <dc:title></dc:title>
      </cc:Work>
    </rdf:RDF>
  </metadata>
  <g
     inkscape:label="Ebene 1"
     inkscape:groupmode="layer"
     id="layer1"
     transform="translate(-72.384193,2.631151)">
    <path
       style="fill:#000000;stroke-width:0.264582"
       d="m 75.104149,10.133881 c -4e-4,-0.09459 -0.03483,-0.7791978 -0.07665,-1.5213542 -0.04182,-0.7421562 -0.09214,-1.6470312 -0.111832,-2.0108332 -0.04152,-0.7673166 0.0771,-0.5335372 -1.154572,-2.2754168 -1.213668,-1.7164191 -1.375438,-1.9551971 -1.345146,-1.9854877 0.01566,-0.015666 0.847324,-0.2668958 1.848128,-0.5582888 1.000806,-0.2913931 1.902852,-0.5595145 2.004544,-0.5958249 0.149772,-0.053478 0.293234,-0.21641378 0.755174,-0.85768798 0.61669,-0.856104 0.917134,-1.286472 1.48544,-2.12781462 0.310818,-0.4601468 0.387398,-0.5420532 0.505016,-0.5401356 0.12086,0.00198 0.25994,0.1778854 1.084474,1.37169662 0.52021,0.7531898 1.06979,1.5320322 1.221288,1.7307608 0.325912,0.42751058 0.09726,0.33976558 3.296403,1.26499048 0.472876,0.1367604 0.896056,0.2751852 0.9404,0.3076104 0.06872,0.050247 0.02546,0.1355994 -0.292862,0.5778636 -0.20542,0.2853991 -0.546194,0.7735035 -0.757278,1.0846753 -0.211086,0.3111722 -0.594329,0.8634238 -0.851651,1.2272258 -0.257322,0.363802 -0.486376,0.7090834 -0.509008,0.7672916 -0.03977,0.102289 -0.109566,1.1619426 -0.210866,3.2014584 -0.02674,0.538427 -0.0493,1.0087238 -0.05013,1.0451038 -0.0012,0.0523 -0.815462,0.06615 -3.89088,0.06615 h -3.889376 l -6e-4,-0.171979 z m 7.518902,-0.105833 c 0.0023,-0.0073 0.02342,-0.4061358 0.04702,-0.8863544 0.0236,-0.4802188 0.07343,-1.4089064 0.110736,-2.06375 l 0.06784,-1.190625 0.43219,-0.6085418 C 83.518541,4.944079 83.899795,4.3963914 84.128067,4.0616936 84.35634,3.7269956 84.683896,3.2558616 84.855972,3.0147288 85.028046,2.7735967 85.15718,2.5459365 85.142936,2.5088181 85.128696,2.4716997 85.013358,2.4117011 84.886634,2.3754893 83.871993,2.0855435 82.242575,1.6128749 81.846211,1.4935086 L 81.417443,1.3643844 81.021953,0.82126782 c -0.50831,-0.6980512 -1.324106,-1.85723022 -1.676358,-2.38197002 -0.151414,-0.2255574 -0.304338,-0.4092838 -0.339832,-0.4082812 -0.03549,10e-4 -0.306142,0.3641432 -0.60144,0.8069792 -0.2953,0.44283582 -0.817264,1.19233362 -1.15992,1.66555102 l -0.62301,0.86039518 -0.506958,0.15279 c -0.278824,0.084034 -0.93558,0.2765463 -1.459456,0.4278039 -1.55815,0.4498822 -1.825624,0.5317638 -1.825624,0.5588724 0,0.014198 0.257466,0.3884788 0.572146,0.8317367 0.314682,0.4432582 0.794696,1.1273922 1.066702,1.5202986 0.272004,0.3929062 0.534846,0.762 0.58409,0.8202082 0.07488,0.088502 0.104,0.3658018 0.177848,1.6933334 0.04857,0.873125 0.103014,1.8315782 0.120984,2.1298958 l 0.03267,0.542396 h 3.61757 c 1.989662,0 3.619424,-0.0059 3.621688,-0.01323 z"
       id="path5073" />
  </g>
</svg>
