<?xml version="1.0" encoding="UTF-8" standalone="no"?>
<svg
   xmlns:dc="http://purl.org/dc/elements/1.1/"
   xmlns:cc="http://creativecommons.org/ns#"
   xmlns:rdf="http://www.w3.org/1999/02/22-rdf-syntax-ns#"
   xmlns:svg="http://www.w3.org/2000/svg"
   xmlns="http://www.w3.org/2000/svg"
   xmlns:sodipodi="http://sodipodi.sourceforge.net/DTD/sodipodi-0.dtd"
   xmlns:inkscape="http://www.inkscape.org/namespaces/inkscape"
   width="13.229167mm"
   height="13.229167mm"
   viewBox="0 0 13.229169 13.229168"
   version="1.1"
   id="svg8"
   sodipodi:docname="VCS_resized_187.svg"
   inkscape:version="1.0.2-2 (e86c870879, 2021-01-15)">
  <defs
     id="defs2" />
  <sodipodi:namedview
     id="base"
     pagecolor="#ffffff"
     bordercolor="#666666"
     borderopacity="1.0"
     inkscape:pageopacity="0.0"
     inkscape:pageshadow="2"
     inkscape:zoom="2.8284271"
     inkscape:cx="-15.125772"
     inkscape:cy="50.74818"
     inkscape:document-units="mm"
     inkscape:current-layer="layer1"
     inkscape:document-rotation="0"
     showgrid="false"
     inkscape:window-width="958"
     inkscape:window-height="1008"
     inkscape:window-x="1913"
     inkscape:window-y="0"
     inkscape:window-maximized="0" />
  <metadata
     id="metadata5">
    <rdf:RDF>
      <cc:Work
         rdf:about="">
        <dc:format>image/svg+xml</dc:format>
        <dc:type
           rdf:resource="http://purl.org/dc/dcmitype/StillImage" />
        <dc:title></dc:title>
      </cc:Work>
    </rdf:RDF>
  </metadata>
  <g
     inkscape:label="Ebene 1"
     inkscape:groupmode="layer"
     id="layer1"
     transform="translate(-52.565388,-17.253378)">
    <path
       style="fill:#000000;stroke-width:0.264582"
       d="m 56.280624,29.893202 c -0.266924,-0.01455 -0.495188,-0.03836 -0.507256,-0.05292 -0.01206,-0.01455 -0.255064,-0.478896 -0.539994,-1.031875 -0.28493,-0.552979 -0.613336,-1.169543 -0.729794,-1.370142 -0.5194,-0.894682 -0.673552,-1.361242 -0.709962,-2.148817 -0.02473,-0.534825 -0.01174,-0.674047 0.107136,-1.149303 0.265088,-1.059745 0.247692,-1.443414 -0.107058,-2.361023 -0.201178,-0.520376 -0.274822,-0.846302 -0.288956,-1.278822 -0.01126,-0.34452 0.0041,-0.365623 0.641824,-0.880914 0.688152,-0.556052 1.219478,-0.796675 2.38125,-1.078399 0.538428,-0.130567 1.35996,-0.344828 1.825626,-0.476137 0.465666,-0.131308 0.879746,-0.238272 0.920176,-0.237697 0.121616,0.0017 1.111906,0.314885 1.604,0.507226 0.338056,0.132134 0.63604,0.20161 1.121186,0.26141 0.782788,0.09649 0.983986,0.161269 1.512356,0.486941 0.685736,0.422668 1.16385,0.820355 1.301546,1.082605 0.109148,0.207875 0.0095,0.89754 -0.212082,1.467528 -0.334886,0.861529 -0.365852,1.431982 -0.12811,2.360127 0.168452,0.657636 0.194774,0.907703 0.143646,1.364683 -0.06826,0.61011 -0.254644,1.105827 -0.809988,2.154275 -0.26978,0.509323 -0.651934,1.241952 -0.849232,1.628064 -0.259282,0.507414 -0.389648,0.709062 -0.470278,0.727417 -0.155718,0.03545 -5.612874,0.05811 -6.206036,0.02577 z M 62.3947,29.549244 c 0.05601,-0.05821 0.318422,-0.534458 0.583148,-1.058333 0.264724,-0.523875 0.589104,-1.14813 0.720844,-1.387233 0.131738,-0.239104 0.326404,-0.655823 0.43259,-0.926042 0.178504,-0.454253 0.1931,-0.533216 0.193506,-1.046934 4e-4,-0.406346 -0.03129,-0.676469 -0.117652,-1.005416 -0.246264,-0.937971 -0.206748,-1.689079 0.134812,-2.562435 0.135374,-0.346147 0.19577,-0.595563 0.216262,-0.893094 l 0.02843,-0.412821 -0.179728,-0.186904 c -0.213732,-0.222268 -0.89952,-0.685163 -1.344418,-0.907458 -0.232226,-0.116032 -0.507942,-0.189561 -1.021974,-0.272542 -0.42175,-0.06808 -0.909446,-0.188308 -1.21656,-0.299898 -1.484938,-0.539555 -1.449828,-0.537045 -2.685076,-0.191986 -0.522288,0.145898 -1.137662,0.305967 -1.367496,0.35571 -0.563178,0.121887 -1.270932,0.353156 -1.622126,0.530054 -0.361454,0.182065 -1.032856,0.65257 -1.235594,0.865878 -0.150486,0.158333 -0.152868,0.169946 -0.120608,0.588267 0.02476,0.321074 0.08457,0.554881 0.24154,0.944215 0.363408,0.901359 0.407382,1.460536 0.186958,2.377303 -0.102556,0.426543 -0.138124,0.720311 -0.142504,1.176961 -0.0055,0.571975 0.0045,0.633979 0.166718,1.031875 0.09491,0.232833 0.318502,0.685271 0.496882,1.005416 0.178382,0.320146 0.519692,0.963084 0.758468,1.42875 0.283376,0.552645 0.477304,0.869824 0.558434,0.91335 0.09674,0.0519 0.801588,0.06363 3.178804,0.05292 2.975942,-0.01341 3.057126,-0.01649 3.156336,-0.1196 z"
       id="path3875" />
  </g>
</svg>
