<?xml version="1.0" encoding="UTF-8" standalone="no"?>
<svg
   xmlns:dc="http://purl.org/dc/elements/1.1/"
   xmlns:cc="http://creativecommons.org/ns#"
   xmlns:rdf="http://www.w3.org/1999/02/22-rdf-syntax-ns#"
   xmlns:svg="http://www.w3.org/2000/svg"
   xmlns="http://www.w3.org/2000/svg"
   xmlns:sodipodi="http://sodipodi.sourceforge.net/DTD/sodipodi-0.dtd"
   xmlns:inkscape="http://www.inkscape.org/namespaces/inkscape"
   width="13.229167mm"
   height="13.229167mm"
   viewBox="0 0 13.229167 13.229167"
   version="1.1"
   id="svg8"
   sodipodi:docname="VCS_resized_57.svg"
   inkscape:version="1.0.2-2 (e86c870879, 2021-01-15)">
  <defs
     id="defs2" />
  <sodipodi:namedview
     id="base"
     pagecolor="#ffffff"
     bordercolor="#666666"
     borderopacity="1.0"
     inkscape:pageopacity="0.0"
     inkscape:pageshadow="2"
     inkscape:zoom="2.8284271"
     inkscape:cx="-0.26185331"
     inkscape:cy="61.268051"
     inkscape:document-units="mm"
     inkscape:current-layer="layer1"
     inkscape:document-rotation="0"
     showgrid="false"
     inkscape:window-width="958"
     inkscape:window-height="1008"
     inkscape:window-x="1913"
     inkscape:window-y="0"
     inkscape:window-maximized="0" />
  <metadata
     id="metadata5">
    <rdf:RDF>
      <cc:Work
         rdf:about="">
        <dc:format>image/svg+xml</dc:format>
        <dc:type
           rdf:resource="http://purl.org/dc/dcmitype/StillImage" />
        <dc:title></dc:title>
      </cc:Work>
    </rdf:RDF>
  </metadata>
  <g
     inkscape:label="Ebene 1"
     inkscape:groupmode="layer"
     id="layer1"
     transform="translate(-38.269268,-10.381107)">
    <path
       style="fill:#000000;stroke-width:0.264582"
       d="m 41.257618,21.916491 c -0.546062,-0.20311 -0.749132,-0.393737 -0.926436,-0.869673 -0.11783,-0.316289 -0.07914,-0.792213 0.09295,-1.143354 0.06551,-0.133663 0.370132,-0.506033 0.676942,-0.827488 0.30681,-0.321454 0.65209,-0.738615 0.767292,-0.927024 0.20526,-0.335698 0.209456,-0.352635 0.209456,-0.84527 0,-0.707246 -0.112346,-0.918477 -0.954968,-1.795505 -1.00034,-1.041188 -1.291182,-1.573501 -1.221896,-2.236386 0.07782,-0.744509 0.556348,-1.149781 1.286158,-1.089259 0.484346,0.04016 0.8776,0.28445 1.68381,1.045957 0.88261,0.833671 1.26658,1.058943 1.804938,1.058943 0.560746,0 0.877136,-0.153949 1.34425,-0.654087 1.345754,-1.440892 1.631976,-1.647788 2.279566,-1.647788 0.702548,0 1.115442,0.447903 1.152142,1.249829 0.0335,0.731931 -0.16596,1.151051 -0.989154,2.078531 -0.229856,0.258973 -0.510018,0.639973 -0.622584,0.846666 -0.192192,0.352904 -0.204648,0.403219 -0.204394,0.825599 4e-4,0.707 0.140834,0.917817 1.332058,2.00001 0.588374,0.534521 0.84897,0.940804 0.901314,1.405192 0.08138,0.721986 -0.518244,1.337571 -1.361666,1.397918 -0.441808,0.03161 -0.756736,-0.03956 -1.504384,-0.339972 -0.817482,-0.328474 -1.342456,-0.454509 -1.884016,-0.452314 -0.548714,0.0022 -0.890302,0.107666 -1.745704,0.538869 -0.335242,0.168993 -0.738422,0.345537 -0.895958,0.39232 -0.363398,0.107917 -0.912262,0.102646 -1.21972,-0.01171 z m 1.934506,-0.604963 c 1.058364,-0.503626 1.342532,-0.588849 1.954868,-0.586268 0.556026,0.0023 0.98327,0.109804 2.010834,0.505762 0.408768,0.157514 0.81087,0.276316 0.990914,0.29277 0.808032,0.07385 1.416794,-0.372432 1.416794,-1.038638 0,-0.43773 -0.14068,-0.642234 -1.06011,-1.541056 -1.026948,-1.00393 -1.131556,-1.182066 -1.134232,-1.931458 -0.0016,-0.443834 0.0116,-0.503263 0.193768,-0.873125 0.175176,-0.355674 0.354268,-0.599042 1.142054,-1.551933 0.351536,-0.425212 0.492952,-0.767011 0.494304,-1.194716 0.0022,-0.709786 -0.352094,-1.116267 -0.973068,-1.116267 -0.479118,0 -0.97407,0.371946 -1.837716,1.381005 -0.79161,0.924896 -1.63498,1.164033 -2.538186,0.719699 -0.255988,-0.125933 -0.521712,-0.34018 -1.038308,-0.837167 -0.982896,-0.945585 -1.423152,-1.174553 -1.980452,-1.029992 -0.31692,0.08221 -0.457446,0.197181 -0.587698,0.48083 -0.121222,0.263984 -0.124736,0.514624 -0.01192,0.850469 0.12301,0.366204 0.328638,0.648307 0.960908,1.318276 1.063012,1.126395 1.354954,1.773884 1.153812,2.559017 -0.113498,0.443022 -0.361032,0.812318 -0.982494,1.465776 -0.629166,0.661557 -0.82413,1.010879 -0.813846,1.458189 0.01536,0.668183 0.61792,1.129417 1.422696,1.089015 0.337102,-0.01692 0.455604,-0.05784 1.217082,-0.420188 z"
       id="path938" />
  </g>
</svg>
