<?xml version="1.0" encoding="UTF-8" standalone="no"?>
<svg
   xmlns:dc="http://purl.org/dc/elements/1.1/"
   xmlns:cc="http://creativecommons.org/ns#"
   xmlns:rdf="http://www.w3.org/1999/02/22-rdf-syntax-ns#"
   xmlns:svg="http://www.w3.org/2000/svg"
   xmlns="http://www.w3.org/2000/svg"
   xmlns:sodipodi="http://sodipodi.sourceforge.net/DTD/sodipodi-0.dtd"
   xmlns:inkscape="http://www.inkscape.org/namespaces/inkscape"
   width="13.229167mm"
   height="13.229167mm"
   viewBox="0 0 13.229169 13.229168"
   version="1.1"
   id="svg8"
   sodipodi:docname="VCS_resized_145.svg"
   inkscape:version="1.0.2-2 (e86c870879, 2021-01-15)">
  <defs
     id="defs2" />
  <sodipodi:namedview
     id="base"
     pagecolor="#ffffff"
     bordercolor="#666666"
     borderopacity="1.0"
     inkscape:pageopacity="0.0"
     inkscape:pageshadow="2"
     inkscape:zoom="2.8284271"
     inkscape:cx="15.410489"
     inkscape:cy="57.870138"
     inkscape:document-units="mm"
     inkscape:current-layer="layer1"
     inkscape:document-rotation="0"
     showgrid="false"
     inkscape:window-width="958"
     inkscape:window-height="1008"
     inkscape:window-x="1913"
     inkscape:window-y="0"
     inkscape:window-maximized="0" />
  <metadata
     id="metadata5">
    <rdf:RDF>
      <cc:Work
         rdf:about="">
        <dc:format>image/svg+xml</dc:format>
        <dc:type
           rdf:resource="http://purl.org/dc/dcmitype/StillImage" />
        <dc:title></dc:title>
      </cc:Work>
    </rdf:RDF>
  </metadata>
  <g
     inkscape:label="Ebene 1"
     inkscape:groupmode="layer"
     id="layer1"
     transform="translate(-34.122623,-11.280138)">
    <path
       style="fill:#000000;stroke-width:0.264582"
       d="m 38.622505,23.989325 c -0.363802,-0.04746 -0.690864,-0.105339 -0.726804,-0.128614 -0.03594,-0.02327 -0.31904,-0.428086 -0.62911,-0.899583 -0.31007,-0.471497 -0.788806,-1.174651 -1.063856,-1.562565 -0.635156,-0.895782 -0.796512,-1.237337 -0.8738,-1.849642 -0.07545,-0.597714 0.02111,-1.019923 0.324124,-1.417326 0.109484,-0.143587 0.319884,-0.419825 0.467558,-0.613863 0.487804,-0.640959 0.606716,-1.238661 0.380202,-1.911061 -0.06097,-0.180983 -0.25661,-0.609618 -0.43476,-0.952523 -0.322768,-0.621266 -0.323982,-0.625302 -0.34489,-1.145829 -0.03117,-0.7761 0.17212,-1.264983 0.67198,-1.615997 0.196466,-0.137963 0.27315,-0.159576 0.554004,-0.156146 0.28507,0.0035 0.3957,0.0394 0.881602,0.286221 0.620394,0.315141 1.578286,0.656408 2.095034,0.746396 0.19918,0.03469 0.685634,0.04987 1.173144,0.03662 1.046582,-0.02845 1.593898,-0.169069 2.31453,-0.59467 0.709276,-0.418895 0.901362,-0.505125 1.12237,-0.503844 0.88461,0.0051 1.473534,1.204239 1.134416,2.309783 -0.06096,0.198741 -0.227522,0.558573 -0.370132,0.799627 -0.334352,0.565161 -0.45959,0.949802 -0.45171,1.387345 0.0086,0.477031 0.170534,0.862094 0.595098,1.414983 0.671632,0.874638 0.79826,1.228082 0.698066,1.948458 -0.08497,0.610915 -0.230762,0.905873 -1.086608,2.198375 -0.431586,0.651782 -0.915096,1.381836 -1.074466,1.622341 -0.180278,0.272057 -0.332152,0.445548 -0.401942,0.459157 -0.967562,0.188673 -1.67716,0.242413 -3.101968,0.234918 -0.759144,-0.004 -1.430336,-0.03754 -1.852082,-0.09256 z m 4.233332,-0.26624 c 0.189178,-0.03345 0.408978,-0.08673 0.488446,-0.118404 0.105928,-0.04223 0.404708,-0.447881 1.11956,-1.520041 0.53629,-0.804345 1.058972,-1.629133 1.161514,-1.832862 0.240146,-0.477121 0.290058,-0.876556 0.168608,-1.349375 -0.104312,-0.406098 -0.19008,-0.562429 -0.643348,-1.172625 -0.18722,-0.252038 -0.399136,-0.602799 -0.470922,-0.77947 -0.279354,-0.68749 -0.105854,-1.546531 0.509014,-2.520279 0.519514,-0.822738 0.383068,-1.93468 -0.279722,-2.279529 -0.298868,-0.1555 -0.577692,-0.09864 -1.299852,0.265067 -0.851764,0.428981 -1.38706,0.596023 -2.136472,0.666695 -1.110764,0.104748 -2.032622,-0.07711 -3.511618,-0.692758 -1.048814,-0.436579 -1.174364,-0.446848 -1.548436,-0.126655 -0.324494,0.277754 -0.450214,0.62675 -0.426526,1.184023 0.01878,0.441576 0.03045,0.477388 0.398552,1.222197 0.741302,1.499933 0.725,2.011984 -0.09967,3.130573 -0.576952,0.782585 -0.651656,0.960959 -0.651986,1.556798 -2e-4,0.456763 0.01018,0.500878 0.211398,0.893182 0.116416,0.226977 0.372108,0.641786 0.568202,0.921796 0.196094,0.28001 0.631,0.916481 0.966456,1.414378 0.335456,0.497898 0.656756,0.947655 0.714,0.999459 0.185578,0.167946 1.026556,0.232305 2.804884,0.214656 0.901278,-0.0089 1.76584,-0.04287 1.957916,-0.07683 z"
       id="path2364" />
  </g>
</svg>
