<?xml version="1.0" encoding="UTF-8" standalone="no"?>
<svg
   xmlns:dc="http://purl.org/dc/elements/1.1/"
   xmlns:cc="http://creativecommons.org/ns#"
   xmlns:rdf="http://www.w3.org/1999/02/22-rdf-syntax-ns#"
   xmlns:svg="http://www.w3.org/2000/svg"
   xmlns="http://www.w3.org/2000/svg"
   xmlns:sodipodi="http://sodipodi.sourceforge.net/DTD/sodipodi-0.dtd"
   xmlns:inkscape="http://www.inkscape.org/namespaces/inkscape"
   width="13.229167mm"
   height="13.229167mm"
   viewBox="0 0 13.229169 13.229168"
   version="1.1"
   id="svg8"
   sodipodi:docname="VCS_resized_327.svg"
   inkscape:version="1.0.2-2 (e86c870879, 2021-01-15)">
  <defs
     id="defs2" />
  <sodipodi:namedview
     id="base"
     pagecolor="#ffffff"
     bordercolor="#666666"
     borderopacity="1.0"
     inkscape:pageopacity="0.0"
     inkscape:pageshadow="2"
     inkscape:zoom="4"
     inkscape:cx="13.176667"
     inkscape:cy="13.146134"
     inkscape:document-units="mm"
     inkscape:current-layer="layer1"
     inkscape:document-rotation="0"
     showgrid="false"
     inkscape:window-width="958"
     inkscape:window-height="1008"
     inkscape:window-x="1913"
     inkscape:window-y="0"
     inkscape:window-maximized="0" />
  <metadata
     id="metadata5">
    <rdf:RDF>
      <cc:Work
         rdf:about="">
        <dc:format>image/svg+xml</dc:format>
        <dc:type
           rdf:resource="http://purl.org/dc/dcmitype/StillImage" />
        <dc:title></dc:title>
      </cc:Work>
    </rdf:RDF>
  </metadata>
  <g
     inkscape:label="Ebene 1"
     inkscape:groupmode="layer"
     id="layer1"
     transform="translate(-94.387268,11.901468)">
    <path
       style="fill:#000000;stroke-width:0.264582"
       d="m 100.53782,0.56190137 c -0.37672,-0.2535152 -1.274063,-1.0368778 -1.307147,-1.1411166 -0.01538,-0.0484834 -0.06287,-0.3611034 -0.105514,-0.69471077 -0.223744,-1.750335 -0.295344,-2.1385884 -0.409496,-2.2205172 -0.06083,-0.043656 -0.56549,-0.3134148 -1.121474,-0.5994632 -2.637432,-1.3569384 -2.942334,-1.5277614 -2.942334,-1.648458 0,-0.09418 0.525028,-0.2592386 1.772708,-0.5573056 0.494772,-0.1181994 1.322164,-0.3211898 1.83865,-0.4510908 0.516488,-0.1299002 0.949952,-0.2361824 0.963254,-0.2361824 0.03272,0 0.188528,-0.355373 0.5568,-1.27 0.388963,-0.9660122 1.080583,-2.5869788 1.222363,-2.8649078 0.21911,-0.429487 0.30515,-0.272824 1.06479,1.9388662 0.72812,2.1198818 0.78106,2.250532 0.93644,2.3106042 0.076,0.029374 0.72153,0.230861 1.43458,0.44775 1.26927,0.3860722 2.63372,0.8359824 2.81782,0.9291358 0.0509,0.025773 0.0926,0.078507 0.0926,0.1171892 0,0.070388 -0.88377,0.5266024 -1.87854,0.9697276 -0.47544,0.2117868 -1.53924,0.699606 -2.12703,0.9753806 -0.24903,0.1168394 -0.24531,0.1056994 -0.49295,1.4733376 -0.21357,1.17948277 -0.26642,1.40356157 -0.36191,1.53458337 -0.18917,0.259535 -1.45808,1.1641666 -1.63296,1.1641666 -0.0317,0 -0.176,-0.079645 -0.32065,-0.1769888 z m 0.86835,-0.4501108 c 0.25785,-0.17028 0.57122,-0.4024518 0.69638,-0.5159374 l 0.22757,-0.206338 0.28273,-1.42046437 c 0.1555,-0.7812558 0.30398,-1.4417188 0.32996,-1.4676956 0.026,-0.025977 0.73694,-0.3656076 1.57991,-0.7547344 1.9158,-0.8843572 2.32522,-1.090556 2.26688,-1.141703 -0.0511,-0.044777 -0.59626,-0.2324074 -1.28982,-0.4439038 -0.24739,-0.075437 -0.92605,-0.2824358 -1.50813,-0.459996 -0.58208,-0.1775604 -1.11125,-0.3446484 -1.17593,-0.3713068 -0.13376,-0.055127 -0.20348,-0.2027084 -0.49961,-1.0574876 -0.86639,-2.5008596 -1.07887,-3.0691666 -1.14753,-3.0691666 -0.0539,0 -1.00351,2.215518 -1.394931,3.2543748 -0.0329,0.087313 -0.125752,0.2921282 -0.206342,0.4551464 -0.170592,0.3450806 -0.009,0.2828432 -1.978578,0.7619492 -1.88845,0.459367 -2.318204,0.5773034 -2.339646,0.6420644 -0.02375,0.071743 0.287992,0.2469652 1.995688,1.1217158 1.682248,0.861714 1.757598,0.9069228 1.804618,1.0827432 0.03294,0.1231524 0.182024,1.1485728 0.360904,2.48230437 0.04981,0.3713914 0.09365,0.4325452 0.574356,0.801186 0.07924,0.060771 0.155991,0.1255976 0.170541,0.1440602 0.0839,0.1064362 0.62235,0.4723696 0.69535,0.4725612 0.0478,1.058e-4 0.29778,-0.1390924 0.55563,-0.309372 z"
       id="path6151" />
  </g>
</svg>
