<?xml version="1.0" encoding="UTF-8" standalone="no"?>
<svg
   xmlns:dc="http://purl.org/dc/elements/1.1/"
   xmlns:cc="http://creativecommons.org/ns#"
   xmlns:rdf="http://www.w3.org/1999/02/22-rdf-syntax-ns#"
   xmlns:svg="http://www.w3.org/2000/svg"
   xmlns="http://www.w3.org/2000/svg"
   xmlns:sodipodi="http://sodipodi.sourceforge.net/DTD/sodipodi-0.dtd"
   xmlns:inkscape="http://www.inkscape.org/namespaces/inkscape"
   width="13.229167mm"
   height="13.229167mm"
   viewBox="0 0 13.229169 13.229168"
   version="1.1"
   id="svg8"
   sodipodi:docname="VCS_resized_356.svg"
   inkscape:version="1.0.2-2 (e86c870879, 2021-01-15)">
  <defs
     id="defs2" />
  <sodipodi:namedview
     id="base"
     pagecolor="#ffffff"
     bordercolor="#666666"
     borderopacity="1.0"
     inkscape:pageopacity="0.0"
     inkscape:pageshadow="2"
     inkscape:zoom="4"
     inkscape:cx="4.8876363"
     inkscape:cy="6.5995148"
     inkscape:document-units="mm"
     inkscape:current-layer="layer1"
     inkscape:document-rotation="0"
     showgrid="false"
     inkscape:window-width="958"
     inkscape:window-height="1008"
     inkscape:window-x="1913"
     inkscape:window-y="0"
     inkscape:window-maximized="0" />
  <metadata
     id="metadata5">
    <rdf:RDF>
      <cc:Work
         rdf:about="">
        <dc:format>image/svg+xml</dc:format>
        <dc:type
           rdf:resource="http://purl.org/dc/dcmitype/StillImage" />
        <dc:title></dc:title>
      </cc:Work>
    </rdf:RDF>
  </metadata>
  <g
     inkscape:label="Ebene 1"
     inkscape:groupmode="layer"
     id="layer1"
     transform="translate(-96.580406,10.169341)">
    <path
       style="fill:#000000;stroke-width:0.264582"
       d="m 101.99529,2.1205548 c -0.12507,-0.1426518 -0.24761,-0.4078098 -0.35538,-0.7690332 -0.15515,-0.52005023 -0.16295,-0.58463243 -0.21239,-1.75773783 -0.0549,-1.30300977 -0.12686,-1.80119117 -0.28512,-1.97406987 -0.0614,-0.067092 -0.71946,-0.4262272 -1.462306,-0.798078 -1.798582,-0.9003226 -2.382508,-1.272167 -2.382508,-1.51718 0,-0.091764 0.05978,-0.1406558 0.277812,-0.2272254 0.499498,-0.1983216 0.945708,-0.2702512 2.341562,-0.377463 1.84134,-0.1414282 1.9726,-0.1646772 2.16066,-0.3827002 0.0824,-0.095535 0.36442,-0.6142313 0.6267,-1.1526583 0.50703,-1.0408424 0.66632,-1.3199904 1.04178,-1.825625 0.30846,-0.415407 0.54091,-0.6614582 0.62488,-0.6614582 0.0981,0 0.19924,0.2238072 0.35887,0.79375 0.11526,0.4115282 0.14986,0.6850684 0.19076,1.508125 0.0541,1.0896127 0.17479,1.9975495 0.28915,2.1761749 0.0419,0.065356 0.6393,0.394578 1.42702,0.786346 1.45847,0.7253664 1.78363,0.9214866 2.36862,1.4286526 0.1439,0.1247612 0.11064,0.2276782 -0.10994,0.3402134 -0.39167,0.1998155 -1.01979,0.3214317 -2.07288,0.4013507 -1.02362,0.077683 -1.91205,0.199417 -2.17308,0.2977562 -0.15468,0.058278 -0.3772,0.4038876 -0.66014,1.02533917 -0.39754,0.8731294 -0.6583,1.3860246 -0.87372,1.71851283 -0.24019,0.3707044 -0.87516,1.0596122 -0.97666,1.0596122 -0.0344,0 -0.099,-0.041672 -0.14369,-0.092604 z M 102.58901,1.4373 c 0.30268,-0.365824 0.60856,-0.87455583 0.86979,-1.44664123 0.58092,-1.27217117 0.8373,-1.71755857 1.03501,-1.79803097 0.2209,-0.089915 1.45686,-0.2585736 2.34677,-0.320239 0.84001,-0.058207 1.52975,-0.1920689 1.73675,-0.3370611 0.11039,-0.077319 0.11032,-0.07769 -0.0416,-0.2194384 -0.30693,-0.286439 -1.19621,-0.7858148 -2.14614,-1.2051566 -0.56646,-0.2500592 -1.41797,-0.779971 -1.44751,-0.9008136 -0.11259,-0.460566 -0.22017,-1.3451931 -0.23032,-1.8939843 -0.007,-0.3598284 -0.0349,-0.8209216 -0.0628,-1.0246508 -0.0517,-0.3774978 -0.23644,-1.017965 -0.31967,-1.1082552 -0.065,-0.070553 -0.32803,0.1944008 -0.60107,0.605547 -0.12564,0.189177 -0.45882,0.8101568 -0.74042,1.3799554 -0.2816,0.569798 -0.60042,1.1529853 -0.70848,1.2959721 l -0.19649,0.2599748 -0.71252,0.089292 c -0.39189,0.04911 -1.11734,0.1157334 -1.61211,0.1480512 -0.49477,0.032318 -1.053972,0.082998 -1.242668,0.1126216 -0.378872,0.05948 -0.794624,0.2219662 -0.794624,0.3105594 0,0.109138 0.827218,0.5957168 1.983928,1.1669702 1.290264,0.6372098 1.662674,0.8617506 1.754504,1.0578518 0.0827,0.1766585 0.17055,1.0599043 0.20517,2.06333487 0.0282,0.8190336 0.13441,1.45163343 0.31688,1.88835203 0.14766,0.353397 0.22563,0.337458 0.60761,-0.1242108 z"
       id="path6617" />
  </g>
</svg>
