<?xml version="1.0" encoding="UTF-8" standalone="no"?>
<svg
   xmlns:dc="http://purl.org/dc/elements/1.1/"
   xmlns:cc="http://creativecommons.org/ns#"
   xmlns:rdf="http://www.w3.org/1999/02/22-rdf-syntax-ns#"
   xmlns:svg="http://www.w3.org/2000/svg"
   xmlns="http://www.w3.org/2000/svg"
   xmlns:sodipodi="http://sodipodi.sourceforge.net/DTD/sodipodi-0.dtd"
   xmlns:inkscape="http://www.inkscape.org/namespaces/inkscape"
   width="13.229167mm"
   height="13.229167mm"
   viewBox="0 0 13.229169 13.229168"
   version="1.1"
   id="svg8"
   sodipodi:docname="VCS_resized_230.svg"
   inkscape:version="1.0.2-2 (e86c870879, 2021-01-15)">
  <defs
     id="defs2" />
  <sodipodi:namedview
     id="base"
     pagecolor="#ffffff"
     bordercolor="#666666"
     borderopacity="1.0"
     inkscape:pageopacity="0.0"
     inkscape:pageshadow="2"
     inkscape:zoom="2.8284271"
     inkscape:cx="4.2742696"
     inkscape:cy="48.440315"
     inkscape:document-units="mm"
     inkscape:current-layer="layer1"
     inkscape:document-rotation="0"
     showgrid="false"
     inkscape:window-width="958"
     inkscape:window-height="1008"
     inkscape:window-x="1913"
     inkscape:window-y="0"
     inkscape:window-maximized="0" />
  <metadata
     id="metadata5">
    <rdf:RDF>
      <cc:Work
         rdf:about="">
        <dc:format>image/svg+xml</dc:format>
        <dc:type
           rdf:resource="http://purl.org/dc/dcmitype/StillImage" />
        <dc:title></dc:title>
      </cc:Work>
    </rdf:RDF>
  </metadata>
  <g
     inkscape:label="Ebene 1"
     inkscape:groupmode="layer"
     id="layer1"
     transform="translate(-47.432461,-17.864002)">
    <path
       style="fill:#000000;stroke-width:0.264582"
       d="m 50.030608,30.67391 c -0.0342,-0.04121 -0.144454,-0.440072 -0.245002,-0.886354 -0.100548,-0.446283 -0.242534,-1.037642 -0.315528,-1.314131 -0.13093,-0.495956 -0.281502,-1.15054 -0.383424,-1.666875 -0.0759,-0.384511 -0.602916,-1.844855 -0.964386,-2.672292 -0.435418,-0.99671 -0.578864,-1.376471 -0.549164,-1.453869 0.01406,-0.03665 0.19688,-0.150858 0.406256,-0.253799 0.209378,-0.102941 0.973316,-0.478401 1.697642,-0.834356 1.24105,-0.609889 1.349316,-0.674972 1.878432,-1.129186 0.308812,-0.265097 0.811758,-0.72029 1.117656,-1.011538 1.173548,-1.117347 1.31438,-1.2439 1.383582,-1.243295 0.03921,3.44e-4 0.523728,0.431513 1.076708,0.958155 1.746866,1.663668 1.707728,1.635922 3.657652,2.592975 0.934854,0.458841 1.714254,0.872091 1.732,0.918334 0.01808,0.0471 -0.109836,0.414952 -0.290866,0.836474 -0.584614,1.36126 -1.170232,3.046011 -1.34266,3.862669 -0.07435,0.352163 -0.193352,0.844169 -0.264438,1.093345 -0.106598,0.373656 -0.23582,0.91538 -0.4764,1.997162 -0.06583,0.296004 0.146454,0.281512 -4.123838,0.281512 -3.326962,0 -3.941602,-0.01153 -3.994222,-0.07493 z m 7.813872,-0.255798 c 0.02847,-0.03638 0.104468,-0.304271 0.16888,-0.595312 0.06441,-0.291042 0.208884,-0.874448 0.32105,-1.296459 0.112168,-0.42201 0.254376,-1.029229 0.31602,-1.349375 0.06164,-0.320145 0.180412,-0.772583 0.26393,-1.005416 0.428332,-1.194116 0.726044,-1.969806 0.989464,-2.578059 0.160316,-0.370182 0.283352,-0.715463 0.273414,-0.767292 -0.01962,-0.102282 -0.221218,-0.209089 -2.106984,-1.116249 -1.363028,-0.655695 -1.404326,-0.686125 -3.003302,-2.212946 -0.881844,-0.84205 -0.975868,-0.917143 -1.07915,-0.861867 -0.06223,0.0333 -0.449238,0.385308 -0.86002,0.782232 -0.410782,0.396924 -1.01406,0.952451 -1.340616,1.234505 -0.515944,0.445631 -0.685758,0.556401 -1.296054,0.845418 -1.679326,0.795275 -2.580858,1.26214 -2.580858,1.336518 0,0.08779 0.250198,0.715511 0.581602,1.459198 0.343012,0.769733 0.792726,2.086008 0.903966,2.645833 0.139196,0.70052 0.191066,0.924192 0.31292,1.349375 0.05839,0.20373 0.190656,0.739511 0.293934,1.190625 0.103276,0.451115 0.20021,0.861881 0.21541,0.912813 0.02598,0.08707 0.25313,0.0926 3.80113,0.0926 2.95591,0 3.784712,-0.01433 3.825264,-0.06615 z"
       id="path4579" />
  </g>
</svg>
