<?xml version="1.0" encoding="UTF-8" standalone="no"?>
<svg
   xmlns:dc="http://purl.org/dc/elements/1.1/"
   xmlns:cc="http://creativecommons.org/ns#"
   xmlns:rdf="http://www.w3.org/1999/02/22-rdf-syntax-ns#"
   xmlns:svg="http://www.w3.org/2000/svg"
   xmlns="http://www.w3.org/2000/svg"
   xmlns:sodipodi="http://sodipodi.sourceforge.net/DTD/sodipodi-0.dtd"
   xmlns:inkscape="http://www.inkscape.org/namespaces/inkscape"
   width="13.229167mm"
   height="13.229167mm"
   viewBox="0 0 13.229169 13.229168"
   version="1.1"
   id="svg8"
   sodipodi:docname="VCS_resized_305.svg"
   inkscape:version="1.0.2-2 (e86c870879, 2021-01-15)">
  <defs
     id="defs2" />
  <sodipodi:namedview
     id="base"
     pagecolor="#ffffff"
     bordercolor="#666666"
     borderopacity="1.0"
     inkscape:pageopacity="0.0"
     inkscape:pageshadow="2"
     inkscape:zoom="4"
     inkscape:cx="13.228788"
     inkscape:cy="7.816615"
     inkscape:document-units="mm"
     inkscape:current-layer="layer1"
     inkscape:document-rotation="0"
     showgrid="false"
     inkscape:window-width="958"
     inkscape:window-height="1008"
     inkscape:window-x="1913"
     inkscape:window-y="0"
     inkscape:window-maximized="0" />
  <metadata
     id="metadata5">
    <rdf:RDF>
      <cc:Work
         rdf:about="">
        <dc:format>image/svg+xml</dc:format>
        <dc:type
           rdf:resource="http://purl.org/dc/dcmitype/StillImage" />
        <dc:title></dc:title>
      </cc:Work>
    </rdf:RDF>
  </metadata>
  <g
     inkscape:label="Ebene 1"
     inkscape:groupmode="layer"
     id="layer1"
     transform="translate(-91.727646,10.491365)">
    <path
       style="fill:#000000;stroke-width:0.264582"
       d="M 97.607579,2.1028585 C 97.395167,2.0514557 96.970301,1.9663625 96.663429,1.9137633 96.025851,1.8044789 96.045375,1.8242713 95.987311,1.2283607 95.878393,0.11053428 95.620775,-1.7494216 95.562117,-1.8414806 c -0.03733,-0.05858 -0.62466,-0.4975564 -1.305184,-0.975504 -2.185024,-1.5345886 -2.36906,-1.668352 -2.400564,-1.744799 -0.04052,-0.098345 0.02541,-0.134673 0.387,-0.213223 0.164998,-0.035843 0.692902,-0.1565598 1.17312,-0.268259 0.480218,-0.111699 1.313656,-0.3030664 1.852084,-0.425261 0.66197,-0.1502326 1.006288,-0.2528855 1.063362,-0.3170253 0.04642,-0.052169 0.277526,-0.53135 0.513562,-1.0648452 0.738864,-1.6700096 1.317012,-2.9096722 1.404828,-3.012235 0.174026,-0.2032479 0.12875,-0.2871519 1.458936,2.7037012 0.722489,1.6244649 0.572929,1.4313128 1.221389,1.5774273 0.3056,0.068857 1.0795,0.2515218 1.7198,0.405921 0.64029,0.1543992 1.36084,0.32249 1.60123,0.3735356 0.45825,0.097308 0.63452,0.1818794 0.5761,0.2764012 -0.0301,0.048754 -1.1179,0.8341842 -3.08441,2.227118 -0.29516,0.2090706 -0.55993,0.409493 -0.58838,0.4453832 -0.0676,0.085322 -0.24197,1.26875228 -0.41108,2.79046368 -0.0437,0.39290622 -0.0912,0.75192422 -0.10573,0.79781722 -0.0197,0.062413 -0.28291,0.1328452 -1.044329,0.2794608 -1.116504,0.2149882 -1.408906,0.2279814 -1.986272,0.088261 z m 1.830852,-0.3386868 c 0.4744,-0.096812 0.881539,-0.1974428 0.904739,-0.2236242 0.0392,-0.044279 0.29947,-1.80306462 0.4452,-3.0088244 l 0.0637,-0.5270547 0.92564,-0.6520774 c 1.59941,-1.1267096 2.48669,-1.7759404 2.48669,-1.8195278 0,-0.023145 -0.1012,-0.068289 -0.22489,-0.100319 -0.1237,-0.032031 -0.39159,-0.1022038 -0.59532,-0.1559396 -0.35839,-0.094532 -1.94783,-0.472712 -2.48708,-0.5917596 -0.14552,-0.032126 -0.38696,-0.090968 -0.53653,-0.1307598 l -0.27196,-0.072349 -0.225189,-0.5161629 c -0.12386,-0.2838894 -0.5075,-1.144725 -0.852529,-1.9129684 -0.345032,-0.768243 -0.627329,-1.4171336 -0.627329,-1.4419792 0,-0.024846 -0.03199,-0.045174 -0.07109,-0.045174 -0.07062,0 -0.371644,0.6250508 -1.22327,2.5400002 -0.239452,0.538427 -0.484358,1.0745988 -0.544234,1.1914921 l -0.108866,0.2125346 -0.732834,0.1699756 c -0.40306,0.093486 -1.32307,0.3059738 -2.04447,0.472194 -0.906878,0.2089574 -1.30695,0.3226668 -1.296458,0.3684816 0.0083,0.036445 0.515238,0.4160752 1.126426,0.8436228 1.652708,1.1561282 2.11239,1.4883612 2.212742,1.5992512 0.09017,0.099641 0.318636,1.58461248 0.457564,2.97411468 0.03791,0.37914842 0.08061,0.57424802 0.134442,0.61425782 0.04339,0.032248 0.263508,0.089295 0.489154,0.1267714 0.225644,0.037476 0.600764,0.1102868 0.833598,0.1618016 0.594532,0.1315418 0.785598,0.1233038 1.762154,-0.075978 z"
       id="path5795" />
  </g>
</svg>
