<?xml version="1.0" encoding="UTF-8" standalone="no"?>
<svg
   xmlns:dc="http://purl.org/dc/elements/1.1/"
   xmlns:cc="http://creativecommons.org/ns#"
   xmlns:rdf="http://www.w3.org/1999/02/22-rdf-syntax-ns#"
   xmlns:svg="http://www.w3.org/2000/svg"
   xmlns="http://www.w3.org/2000/svg"
   xmlns:sodipodi="http://sodipodi.sourceforge.net/DTD/sodipodi-0.dtd"
   xmlns:inkscape="http://www.inkscape.org/namespaces/inkscape"
   width="13.229167mm"
   height="13.229167mm"
   viewBox="0 0 13.229167 13.229167"
   version="1.1"
   id="svg8"
   sodipodi:docname="VCS_resized_50.svg"
   inkscape:version="1.0.2-2 (e86c870879, 2021-01-15)">
  <defs
     id="defs2" />
  <sodipodi:namedview
     id="base"
     pagecolor="#ffffff"
     bordercolor="#666666"
     borderopacity="1.0"
     inkscape:pageopacity="0.0"
     inkscape:pageshadow="2"
     inkscape:zoom="2.8284271"
     inkscape:cx="1.3820853"
     inkscape:cy="61.567451"
     inkscape:document-units="mm"
     inkscape:current-layer="layer1"
     inkscape:document-rotation="0"
     showgrid="false"
     inkscape:window-width="958"
     inkscape:window-height="1008"
     inkscape:window-x="1913"
     inkscape:window-y="0"
     inkscape:window-maximized="0" />
  <metadata
     id="metadata5">
    <rdf:RDF>
      <cc:Work
         rdf:about="">
        <dc:format>image/svg+xml</dc:format>
        <dc:type
           rdf:resource="http://purl.org/dc/dcmitype/StillImage" />
        <dc:title></dc:title>
      </cc:Work>
    </rdf:RDF>
  </metadata>
  <g
     inkscape:label="Ebene 1"
     inkscape:groupmode="layer"
     id="layer1"
     transform="translate(-37.834309,-10.301891)">
    <path
       style="fill:#000000;stroke-width:0.264582"
       d="m 41.179975,21.862624 c -0.614264,-0.09116 -1.04015,-0.438457 -1.212482,-0.988752 -0.08203,-0.261959 -0.08779,-0.353394 -0.0379,-0.601809 0.09164,-0.456306 0.261302,-0.741469 0.748288,-1.257692 0.842958,-0.893565 1.02615,-1.218726 1.029218,-1.826818 0.0031,-0.621224 -0.124382,-0.837156 -1.076028,-1.822147 -0.437976,-0.453321 -0.855544,-0.925303 -0.927932,-1.048849 -0.402516,-0.686982 -0.323664,-1.540132 0.173298,-1.875035 0.277596,-0.187072 0.700952,-0.259968 1.029028,-0.177184 0.557918,0.14078 0.738362,0.261967 1.767572,1.187113 0.632188,0.568267 1.008462,0.746386 1.576108,0.74609 0.579506,-3.2e-4 0.84504,-0.150259 1.45038,-0.819087 0.993838,-1.098073 1.384366,-1.373047 2.01102,-1.415973 0.307722,-0.02108 0.382456,-0.006 0.637294,0.128282 0.395164,0.208279 0.550878,0.50578 0.575772,1.100039 0.02851,0.680538 -0.120976,0.989291 -0.930354,1.921609 -0.83205,0.958433 -1.02301,1.608689 -0.68645,2.337472 0.07074,0.153185 0.292312,0.413131 0.610828,0.716628 1.061012,1.010981 1.262338,1.225136 1.378256,1.466083 0.23769,0.494065 0.1996,1.135805 -0.08568,1.443464 -0.07473,0.08059 -0.287286,0.217383 -0.472356,0.303988 -0.30443,0.142459 -0.378144,0.155688 -0.773658,0.138839 -0.426976,-0.01819 -0.45757,-0.02882 -1.312254,-0.45599 -0.987492,-0.493549 -1.411576,-0.613923 -2.062836,-0.585528 -0.344856,0.01504 -0.463164,0.04841 -0.846668,0.238849 -0.245186,0.121754 -0.624388,0.356772 -0.84267,0.522262 -0.661208,0.501297 -1.208698,0.699991 -1.719792,0.624146 z m 0.846666,-0.388075 c 0.116418,-0.05083 0.449792,-0.264168 0.740834,-0.47409 0.651392,-0.469837 0.934064,-0.617334 1.420596,-0.741256 0.695678,-0.177195 1.46568,-0.02206 2.372306,0.477953 0.70553,0.389107 0.944528,0.484362 1.283556,0.511576 0.669352,0.05373 1.196558,-0.240818 1.306448,-0.729904 0.11712,-0.521264 -0.05185,-0.801546 -1.115046,-1.849608 -0.817718,-0.806079 -0.896524,-0.900596 -1.026276,-1.230869 -0.311488,-0.792878 -0.0833,-1.48717 0.839916,-2.555596 0.275246,-0.318538 0.574642,-0.726598 0.665322,-0.9068 0.150746,-0.299564 0.163248,-0.363381 0.145902,-0.744715 -0.01538,-0.338164 -0.044,-0.45384 -0.151266,-0.611389 -0.167208,-0.245601 -0.423076,-0.368667 -0.766498,-0.368667 -0.529032,0 -0.968316,0.300813 -1.669372,1.143153 -0.682078,0.819536 -1.174608,1.119834 -1.823922,1.112052 -0.675656,-0.0081 -1.126406,-0.248514 -2.003544,-1.068631 -0.72029,-0.673465 -1.035332,-0.860239 -1.508074,-0.894064 -0.613104,-0.04387 -0.956874,0.213628 -1.001358,0.75005 -0.04836,0.583159 0.140712,0.911758 1.052458,1.829115 0.977558,0.983576 1.250822,1.48396 1.197108,2.192058 -0.04522,0.596158 -0.26455,0.985303 -0.989126,1.754969 -0.310032,0.329326 -0.53157,0.621028 -0.641982,0.845303 -0.152808,0.310397 -0.165418,0.372762 -0.134736,0.666315 0.05709,0.546215 0.298958,0.810264 0.88502,0.966188 0.3226,0.08583 0.609818,0.06304 0.921734,-0.07314 z"
       id="path810" />
  </g>
</svg>
