<?xml version="1.0" encoding="UTF-8" standalone="no"?>
<svg
   xmlns:dc="http://purl.org/dc/elements/1.1/"
   xmlns:cc="http://creativecommons.org/ns#"
   xmlns:rdf="http://www.w3.org/1999/02/22-rdf-syntax-ns#"
   xmlns:svg="http://www.w3.org/2000/svg"
   xmlns="http://www.w3.org/2000/svg"
   xmlns:sodipodi="http://sodipodi.sourceforge.net/DTD/sodipodi-0.dtd"
   xmlns:inkscape="http://www.inkscape.org/namespaces/inkscape"
   width="13.229167mm"
   height="13.229167mm"
   viewBox="0 0 13.229169 13.229168"
   version="1.1"
   id="svg8"
   sodipodi:docname="VCS_resized_215.svg"
   inkscape:version="1.0.2-2 (e86c870879, 2021-01-15)">
  <defs
     id="defs2" />
  <sodipodi:namedview
     id="base"
     pagecolor="#ffffff"
     bordercolor="#666666"
     borderopacity="1.0"
     inkscape:pageopacity="0.0"
     inkscape:pageshadow="2"
     inkscape:zoom="2.8284271"
     inkscape:cx="7.8509836"
     inkscape:cy="77.793941"
     inkscape:document-units="mm"
     inkscape:current-layer="layer1"
     inkscape:document-rotation="0"
     showgrid="false"
     inkscape:window-width="958"
     inkscape:window-height="1008"
     inkscape:window-x="1913"
     inkscape:window-y="0"
     inkscape:window-maximized="0" />
  <metadata
     id="metadata5">
    <rdf:RDF>
      <cc:Work
         rdf:about="">
        <dc:format>image/svg+xml</dc:format>
        <dc:type
           rdf:resource="http://purl.org/dc/dcmitype/StillImage" />
        <dc:title></dc:title>
      </cc:Work>
    </rdf:RDF>
  </metadata>
  <g
     inkscape:label="Ebene 1"
     inkscape:groupmode="layer"
     id="layer1"
     transform="translate(-46.486122,-10.097523)">
    <path
       style="fill:#000000;stroke-width:0.264582"
       d="m 49.22397,22.844181 c -0.03909,-0.0471 -0.258516,-0.612645 -0.48762,-1.256771 -0.229104,-0.644127 -0.47668,-1.337552 -0.55017,-1.540944 -0.151292,-0.418714 -0.324374,-1.197728 -0.540964,-2.434779 -0.106244,-0.606819 -0.215476,-1.026552 -0.385594,-1.481667 -0.130544,-0.34925 -0.291214,-0.855498 -0.35704,-1.124997 -0.141208,-0.578105 -0.150276,-0.557947 0.390706,-0.868539 0.206158,-0.11836 0.517706,-0.304846 0.692332,-0.414412 0.174624,-0.109566 0.69535,-0.395805 1.157168,-0.636087 0.963586,-0.501349 1.5135,-0.854786 2.906618,-1.868118 0.54704,-0.39791 1.028042,-0.723472 1.068894,-0.723472 0.07914,0 0.09954,0.01416 1.481902,1.028345 0.923672,0.677661 1.4665,1.018672 2.619376,1.645519 0.859602,0.467386 1.77908,1.006873 2.003248,1.175371 0.165176,0.124154 0.175226,0.148782 0.143414,0.351409 -0.01882,0.119844 -0.165332,0.609346 -0.325594,1.087783 -0.19248,0.574622 -0.327426,1.095502 -0.397566,1.534583 -0.147544,0.923623 -0.24088,1.358783 -0.449018,2.093449 -0.257512,0.908945 -1.167798,3.374415 -1.274826,3.452812 -0.07024,0.05145 -0.927132,0.06615 -3.85725,0.06615 -3.406166,0 -3.773756,-0.0082 -3.838016,-0.08563 z m 7.558388,-0.245098 c 0.02859,-0.03638 0.1007,-0.209021 0.160238,-0.383646 0.05954,-0.174625 0.207626,-0.591344 0.32909,-0.926042 0.64571,-1.7793 0.835434,-2.479763 1.082114,-3.995208 0.04738,-0.291042 0.202362,-0.874448 0.344416,-1.296458 0.142052,-0.422011 0.29628,-0.910167 0.342728,-1.084792 l 0.08445,-0.3175 -0.136302,-0.105833 C 58.799138,14.342109 57.948028,13.854474 56.812766,13.242697 55.75357,12.67191 55.295054,12.37634 54.065042,11.47145 53.565686,11.104085 53.19142,10.864812 53.116148,10.864812 c -0.06836,0 -0.274388,0.113324 -0.45783,0.251831 -0.477382,0.360445 -1.53605,1.113559 -2.000406,1.423048 -0.218282,0.145481 -0.92075,0.539238 -1.561042,0.875015 -1.57864,0.827859 -1.984584,1.07843 -1.983594,1.224381 0.0014,0.217282 0.151836,0.755093 0.39023,1.395797 0.23649,0.635589 0.281518,0.82495 0.643442,2.705888 0.147326,0.765669 0.252736,1.145155 0.499756,1.799167 0.172176,0.455857 0.4122,1.120534 0.533384,1.47706 l 0.220338,0.64823 h 3.664972 c 2.868972,0 3.676262,-0.01437 3.71696,-0.06615 z"
       id="path4339" />
  </g>
</svg>
