<?xml version="1.0" encoding="UTF-8" standalone="no"?>
<svg
   xmlns:dc="http://purl.org/dc/elements/1.1/"
   xmlns:cc="http://creativecommons.org/ns#"
   xmlns:rdf="http://www.w3.org/1999/02/22-rdf-syntax-ns#"
   xmlns:svg="http://www.w3.org/2000/svg"
   xmlns="http://www.w3.org/2000/svg"
   xmlns:sodipodi="http://sodipodi.sourceforge.net/DTD/sodipodi-0.dtd"
   xmlns:inkscape="http://www.inkscape.org/namespaces/inkscape"
   width="13.229167mm"
   height="13.229167mm"
   viewBox="0 0 13.229167 13.229167"
   version="1.1"
   id="svg8"
   sodipodi:docname="VCS_resized_12.svg"
   inkscape:version="1.0.2-2 (e86c870879, 2021-01-15)">
  <defs
     id="defs2" />
  <sodipodi:namedview
     id="base"
     pagecolor="#ffffff"
     bordercolor="#666666"
     borderopacity="1.0"
     inkscape:pageopacity="0.0"
     inkscape:pageshadow="2"
     inkscape:zoom="2.8284271"
     inkscape:cx="-15.193812"
     inkscape:cy="62.417698"
     inkscape:document-units="mm"
     inkscape:current-layer="layer1"
     inkscape:document-rotation="0"
     showgrid="false"
     inkscape:window-width="958"
     inkscape:window-height="1008"
     inkscape:window-x="1913"
     inkscape:window-y="0"
     inkscape:window-maximized="0" />
  <metadata
     id="metadata5">
    <rdf:RDF>
      <cc:Work
         rdf:about="">
        <dc:format>image/svg+xml</dc:format>
        <dc:type
           rdf:resource="http://purl.org/dc/dcmitype/StillImage" />
        <dc:title></dc:title>
      </cc:Work>
    </rdf:RDF>
  </metadata>
  <g
     inkscape:label="Ebene 1"
     inkscape:groupmode="layer"
     id="layer1"
     transform="translate(-42.220016,-10.076929)">
    <path
       style="fill:#000000;stroke-width:0.264582"
       d="m 46.741417,21.993097 c -0.396178,-0.396176 -0.494088,-1.49885 -0.221716,-2.497001 0.187448,-0.686935 0.255524,-1.28862 0.191718,-1.694465 -0.04623,-0.294065 -0.07187,-0.336886 -0.363624,-0.60741 -0.172638,-0.160072 -0.584472,-0.444703 -0.915186,-0.632511 -1.195766,-0.67906 -1.852812,-1.190711 -2.066196,-1.608979 -0.147554,-0.28923 -0.09796,-0.420939 0.207422,-0.550842 0.613184,-0.260837 1.38525,-0.281462 2.485888,-0.06641 0.75567,0.147652 1.457496,0.220382 1.722088,0.178461 0.29618,-0.04693 0.710326,-0.467264 1.064352,-1.080265 0.40711,-0.704914 0.71517,-1.158806 0.975084,-1.436675 0.255352,-0.272993 0.898784,-0.729448 1.02825,-0.729448 0.123984,0 0.234772,0.160853 0.364464,0.529166 0.180044,0.511303 0.170458,1.262596 -0.02599,2.037292 -0.147084,0.580025 -0.23923,1.523875 -0.174106,1.783356 0.01778,0.07085 0.13417,0.231451 0.25864,0.356893 0.214506,0.216181 0.413256,0.353787 1.683952,1.165896 0.739928,0.472891 1.426314,1.19855 1.426314,1.507922 0,0.319991 -0.982358,0.560695 -1.824132,0.446961 -0.23201,-0.03135 -0.43589,-0.06568 -0.453066,-0.07629 -0.111698,-0.06903 -1.157244,-0.184108 -1.67276,-0.184108 h -0.617344 l -0.387644,0.399129 c -0.266714,0.274618 -0.514912,0.612879 -0.795614,1.084318 -0.553876,0.930238 -0.780802,1.204902 -1.260636,1.525834 -0.223302,0.149354 -0.428904,0.271552 -0.456894,0.271552 -0.02799,0 -0.105956,-0.05507 -0.173262,-0.122374 z m 0.615218,-0.455808 c 0.304762,-0.193274 0.572578,-0.529718 1.026186,-1.289148 0.511528,-0.856395 1.06774,-1.502739 1.3898,-1.615011 0.286614,-0.09991 1.453646,-0.03665 2.228898,0.120821 0.575142,0.116827 0.802586,0.139632 1.16698,0.117009 0.505912,-0.03141 0.843852,-0.156293 0.843852,-0.31184 0,-0.313127 -0.62007,-0.884238 -1.571752,-1.447651 -0.622058,-0.36827 -1.233928,-0.82139 -1.516514,-1.123055 l -0.15139,-0.161613 0.02417,-0.784727 c 0.01942,-0.630542 0.05259,-0.892981 0.168798,-1.335683 0.174452,-0.664575 0.190518,-1.217131 0.0477,-1.640584 -0.135548,-0.401905 -0.21533,-0.436761 -0.572222,-0.250007 -0.369174,0.193181 -0.718164,0.621418 -1.274748,1.564221 -0.274854,0.465575 -0.53263,0.825531 -0.748434,1.045104 l -0.329182,0.33493 h -0.448432 c -0.38361,0 -1.746438,-0.163379 -1.988826,-0.238426 -0.04366,-0.01352 -0.294816,-0.0468 -0.558132,-0.07396 -0.720182,-0.07429 -1.406344,0.09427 -1.44342,0.354598 -0.02237,0.157045 0.636484,0.815262 1.049052,1.048044 1.286092,0.725649 1.904198,1.149699 2.138492,1.467105 0.100236,0.135794 0.11014,0.219096 0.106958,0.899584 -0.0031,0.670193 -0.02142,0.816422 -0.171978,1.375278 -0.1891,0.701912 -0.220666,1.274616 -0.09354,1.697034 0.13653,0.45366 0.274022,0.50397 0.67768,0.247978 z"
       id="path184" />
  </g>
</svg>
