<?xml version="1.0" encoding="UTF-8" standalone="no"?>
<svg
   xmlns:dc="http://purl.org/dc/elements/1.1/"
   xmlns:cc="http://creativecommons.org/ns#"
   xmlns:rdf="http://www.w3.org/1999/02/22-rdf-syntax-ns#"
   xmlns:svg="http://www.w3.org/2000/svg"
   xmlns="http://www.w3.org/2000/svg"
   xmlns:sodipodi="http://sodipodi.sourceforge.net/DTD/sodipodi-0.dtd"
   xmlns:inkscape="http://www.inkscape.org/namespaces/inkscape"
   width="13.229167mm"
   height="13.229167mm"
   viewBox="0 0 13.229169 13.229168"
   version="1.1"
   id="svg8"
   sodipodi:docname="VCS_resized_124.svg"
   inkscape:version="1.0.2-2 (e86c870879, 2021-01-15)">
  <defs
     id="defs2" />
  <sodipodi:namedview
     id="base"
     pagecolor="#ffffff"
     bordercolor="#666666"
     borderopacity="1.0"
     inkscape:pageopacity="0.0"
     inkscape:pageshadow="2"
     inkscape:zoom="2.8284271"
     inkscape:cx="0.057000618"
     inkscape:cy="37.962538"
     inkscape:document-units="mm"
     inkscape:current-layer="layer1"
     inkscape:document-rotation="0"
     showgrid="false"
     inkscape:window-width="958"
     inkscape:window-height="1008"
     inkscape:window-x="1913"
     inkscape:window-y="0"
     inkscape:window-maximized="0" />
  <metadata
     id="metadata5">
    <rdf:RDF>
      <cc:Work
         rdf:about="">
        <dc:format>image/svg+xml</dc:format>
        <dc:type
           rdf:resource="http://purl.org/dc/dcmitype/StillImage" />
        <dc:title></dc:title>
      </cc:Work>
    </rdf:RDF>
  </metadata>
  <g
     inkscape:label="Ebene 1"
     inkscape:groupmode="layer"
     id="layer1"
     transform="translate(-38.184902,-16.547358)">
    <path
       style="fill:#000000;stroke-width:0.264582"
       d="m 42.838487,29.215231 c -0.800636,-0.187478 -0.88411,-0.218096 -1.005418,-0.368785 -0.07276,-0.09038 -0.38941,-0.47794 -0.703666,-0.861237 -1.31116,-1.599216 -1.466188,-1.855742 -1.507142,-2.493887 -0.03313,-0.516319 0.08439,-0.743708 0.758934,-1.468458 0.664828,-0.714306 0.884132,-1.105706 0.913808,-1.630909 0.03097,-0.548075 -0.08858,-0.874271 -0.600646,-1.638858 -0.44594,-0.665855 -0.770792,-1.267255 -0.843212,-1.561042 -0.02152,-0.08731 -0.03752,-0.365037 -0.03555,-0.617166 0.0058,-0.745378 0.269816,-1.287334 0.755988,-1.551941 0.236076,-0.128488 0.309214,-0.142992 0.602402,-0.119458 0.400992,0.03219 0.699724,0.211992 1.616008,0.97266 1.131214,0.939095 1.365164,1.051322 2.191622,1.051322 h 0.529166 l 0.442368,-0.264584 c 0.253614,-0.151687 0.671328,-0.479781 0.978958,-0.768923 0.901554,-0.847366 1.141018,-0.996622 1.606738,-1.001462 0.960204,-0.01 1.551096,1.402949 1.086784,2.5987 -0.08605,0.221595 -0.299836,0.602127 -0.47509,0.845626 -0.726624,1.009578 -0.860052,1.301888 -0.86106,1.886375 -6e-4,0.363508 0.1496,0.884648 0.33068,1.147141 0.06104,0.08848 0.3339,0.392742 0.606358,0.676134 0.569522,0.592375 0.754408,0.922405 0.755206,1.34807 10e-4,0.557942 -0.218876,0.935115 -1.366476,2.343548 -0.296428,0.363802 -0.639948,0.786116 -0.763378,0.938476 -0.123432,0.152359 -0.26014,0.291458 -0.303796,0.309108 -0.04366,0.01765 -0.453812,0.125163 -0.911458,0.238919 l -0.832084,0.20683 -1.046458,-0.0059 c -1.018742,-0.0057 -1.069582,-0.01129 -1.919582,-0.210325 z m 3.845632,-0.265694 c 0.373308,-0.09042 0.705096,-0.179713 0.737306,-0.198437 0.03221,-0.01872 0.174508,-0.17692 0.316214,-0.351545 1.184162,-1.459235 1.794692,-2.246168 1.85542,-2.391512 0.08355,-0.199952 0.09364,-0.702318 0.01948,-0.969271 -0.03196,-0.115049 -0.261,-0.424258 -0.601568,-0.812139 -0.904172,-1.029782 -1.098808,-1.465423 -0.996568,-2.230544 0.06815,-0.510018 0.225362,-0.840424 0.829612,-1.743575 0.572452,-0.855623 0.686008,-1.168139 0.652944,-1.796946 -0.03758,-0.714597 -0.421094,-1.194971 -0.954032,-1.194971 -0.386776,0 -0.664968,0.162756 -1.31235,0.767787 -0.553506,0.517298 -0.974068,0.8253 -1.375832,1.0076 -0.315522,0.143167 -0.392086,0.155894 -0.926042,0.153933 -0.534908,-0.002 -0.61442,-0.01593 -0.98108,-0.172293 -0.287016,-0.122401 -0.58404,-0.320346 -1.058332,-0.705306 -1.356078,-1.100658 -1.823484,-1.273732 -2.351738,-0.870813 -0.328964,0.250913 -0.42137,0.502482 -0.422918,1.151363 l -0.0014,0.56498 0.243744,0.471257 c 0.134058,0.259192 0.398838,0.70742 0.5884,0.996062 0.61401,0.934942 0.788294,1.617952 0.575054,2.253619 -0.120016,0.357767 -0.333758,0.662297 -1.070342,1.524983 -0.497408,0.582561 -0.614934,0.840729 -0.55457,1.218221 0.06711,0.419695 0.225012,0.675843 1.04349,1.692773 1.294194,1.607986 1.082678,1.428132 1.906106,1.620792 0.67876,0.158812 0.757852,0.165845 1.93396,0.171979 1.201636,0.0063 1.239888,0.0031 1.905,-0.157997 z"
       id="path2026" />
  </g>
</svg>
