<?xml version="1.0" encoding="UTF-8" standalone="no"?>
<svg
   xmlns:dc="http://purl.org/dc/elements/1.1/"
   xmlns:cc="http://creativecommons.org/ns#"
   xmlns:rdf="http://www.w3.org/1999/02/22-rdf-syntax-ns#"
   xmlns:svg="http://www.w3.org/2000/svg"
   xmlns="http://www.w3.org/2000/svg"
   xmlns:sodipodi="http://sodipodi.sourceforge.net/DTD/sodipodi-0.dtd"
   xmlns:inkscape="http://www.inkscape.org/namespaces/inkscape"
   width="13.229167mm"
   height="13.229167mm"
   viewBox="0 0 13.229169 13.229168"
   version="1.1"
   id="svg8"
   sodipodi:docname="VCS_resized_102.svg"
   inkscape:version="1.0.2-2 (e86c870879, 2021-01-15)">
  <defs
     id="defs2" />
  <sodipodi:namedview
     id="base"
     pagecolor="#ffffff"
     bordercolor="#666666"
     borderopacity="1.0"
     inkscape:pageopacity="0.0"
     inkscape:pageshadow="2"
     inkscape:zoom="2.8284271"
     inkscape:cx="2.9336218"
     inkscape:cy="38.805049"
     inkscape:document-units="mm"
     inkscape:current-layer="layer1"
     inkscape:document-rotation="0"
     showgrid="false"
     inkscape:window-width="958"
     inkscape:window-height="1008"
     inkscape:window-x="1913"
     inkscape:window-y="0"
     inkscape:window-maximized="0" />
  <metadata
     id="metadata5">
    <rdf:RDF>
      <cc:Work
         rdf:about="">
        <dc:format>image/svg+xml</dc:format>
        <dc:type
           rdf:resource="http://purl.org/dc/dcmitype/StillImage" />
        <dc:title></dc:title>
      </cc:Work>
    </rdf:RDF>
  </metadata>
  <g
     inkscape:label="Ebene 1"
     inkscape:groupmode="layer"
     id="layer1"
     transform="translate(-37.423798,-16.324444)">
    <path
       style="fill:#000000;stroke-width:0.264582"
       d="m 42.847476,28.936135 c -0.05821,-0.0142 -0.374716,-0.08449 -0.703352,-0.156212 -0.328636,-0.07172 -0.650106,-0.159212 -0.714376,-0.194432 -1.652762,-0.905738 -2.41951,-1.706997 -2.41817,-2.527018 8e-4,-0.465567 0.16486,-0.739628 0.905944,-1.512993 0.75163,-0.784369 0.976232,-1.10589 1.06364,-1.522605 0.119602,-0.570209 -0.06819,-1.108948 -0.655936,-1.881785 -0.901182,-1.18497 -1.102672,-1.534003 -1.2168,-2.107835 -0.08869,-0.445914 4e-4,-1.077007 0.205354,-1.453892 0.26267,-0.483139 0.763956,-0.739225 1.221498,-0.624014 0.51395,0.129413 0.853896,0.39768 1.682056,1.327384 0.855938,0.960887 1.254112,1.193677 1.970712,1.152163 0.624948,-0.0362 0.93924,-0.262307 1.869312,-1.344797 0.75748,-0.881615 1.115098,-1.133293 1.610342,-1.133293 0.72669,0 1.214898,0.564546 1.277452,1.477204 0.0546,0.796644 -0.184648,1.383419 -0.960234,2.355022 -0.551418,0.69078 -0.835692,1.207459 -0.935474,1.700268 -0.05867,0.289771 -0.05409,0.352026 0.04825,0.655065 0.14089,0.417196 0.379954,0.729195 1.08504,1.416071 0.67051,0.653193 0.882452,1.015798 0.882452,1.509766 0,0.22735 -0.03783,0.392299 -0.13906,0.606271 -0.250974,0.530516 -1.221092,1.433168 -1.922022,1.788356 -0.158184,0.08016 -0.562824,0.217204 -0.8992,0.304544 -0.583492,0.151508 -0.669948,0.15958 -1.881594,0.175692 -0.6985,0.0093 -1.317624,0.0053 -1.375834,-0.0089 z m 3.00112,-0.417278 c 0.32451,-0.07325 0.755046,-0.21445 0.962578,-0.315684 0.645592,-0.314914 1.365352,-0.918268 1.704154,-1.428542 0.168734,-0.254133 0.205062,-0.358451 0.223016,-0.640414 0.02777,-0.436053 -0.06765,-0.602562 -0.787644,-1.374544 -1.004616,-1.077151 -1.189676,-1.423263 -1.144644,-2.140784 0.03954,-0.630011 0.35187,-1.266602 1.061668,-2.163887 0.74656,-0.943758 0.96497,-1.638709 0.746364,-2.374832 -0.16499,-0.555582 -0.491466,-0.782642 -1.090686,-0.758555 -0.237618,0.0096 -0.761196,0.409118 -1.168788,0.891954 -0.762148,0.902844 -1.046262,1.171499 -1.44986,1.370968 -0.344914,0.170466 -0.42295,0.18827 -0.827792,0.188865 -0.396864,5.8e-4 -0.487838,-0.01885 -0.81143,-0.173282 -0.377422,-0.180127 -0.51986,-0.309794 -1.60868,-1.464454 -0.583586,-0.618873 -0.922426,-0.826795 -1.35174,-0.829463 -0.44813,-0.0028 -0.752884,0.288074 -0.89886,0.857878 -0.182656,0.712976 0.06534,1.388636 0.910394,2.480352 0.61518,0.794743 0.875276,1.33574 0.947008,1.969767 0.0278,0.24575 0.01116,0.383054 -0.07946,0.655352 -0.154984,0.465728 -0.328164,0.712067 -1.007752,1.433468 -0.921552,0.978254 -1.023698,1.239908 -0.725406,1.858161 0.225982,0.468381 0.6537,0.877284 1.413392,1.351216 0.665934,0.415444 0.741998,0.448194 1.408684,0.606514 0.465076,0.110444 0.654792,0.124298 1.754912,0.128154 1.133816,0.004 1.280892,-0.0064 1.820572,-0.128208 z"
       id="path1674" />
  </g>
</svg>
