<?xml version="1.0" encoding="UTF-8" standalone="no"?>
<svg
   xmlns:dc="http://purl.org/dc/elements/1.1/"
   xmlns:cc="http://creativecommons.org/ns#"
   xmlns:rdf="http://www.w3.org/1999/02/22-rdf-syntax-ns#"
   xmlns:svg="http://www.w3.org/2000/svg"
   xmlns="http://www.w3.org/2000/svg"
   xmlns:sodipodi="http://sodipodi.sourceforge.net/DTD/sodipodi-0.dtd"
   xmlns:inkscape="http://www.inkscape.org/namespaces/inkscape"
   width="13.229167mm"
   height="13.229167mm"
   viewBox="0 0 13.229169 13.229168"
   version="1.1"
   id="svg8"
   sodipodi:docname="VCS_resized_203.svg"
   inkscape:version="1.0.2-2 (e86c870879, 2021-01-15)">
  <defs
     id="defs2" />
  <sodipodi:namedview
     id="base"
     pagecolor="#ffffff"
     bordercolor="#666666"
     borderopacity="1.0"
     inkscape:pageopacity="0.0"
     inkscape:pageshadow="2"
     inkscape:zoom="2.8284271"
     inkscape:cx="2.7716628"
     inkscape:cy="39.557487"
     inkscape:document-units="mm"
     inkscape:current-layer="layer1"
     inkscape:document-rotation="0"
     showgrid="false"
     inkscape:window-width="958"
     inkscape:window-height="1008"
     inkscape:window-x="1913"
     inkscape:window-y="0"
     inkscape:window-maximized="0" />
  <metadata
     id="metadata5">
    <rdf:RDF>
      <cc:Work
         rdf:about="">
        <dc:format>image/svg+xml</dc:format>
        <dc:type
           rdf:resource="http://purl.org/dc/dcmitype/StillImage" />
        <dc:title></dc:title>
      </cc:Work>
    </rdf:RDF>
  </metadata>
  <g
     inkscape:label="Ebene 1"
     inkscape:groupmode="layer"
     id="layer1"
     transform="translate(-47.830025,-20.214251)">
    <path
       style="fill:#000000;stroke-width:0.264582"
       d="m 50.807321,32.905357 c -0.05943,-0.05153 -0.203206,-0.319902 -0.319508,-0.596392 -0.116302,-0.27649 -0.389488,-0.895615 -0.607082,-1.375833 -0.66527,-1.468218 -0.728096,-1.732887 -0.75995,-3.201459 -0.02599,-1.19801 -0.06384,-1.453046 -0.311482,-2.098395 -0.222146,-0.578916 -0.42364,-1.459601 -0.376718,-1.646554 0.0264,-0.105179 0.186266,-0.24 0.632574,-0.533468 0.719092,-0.472838 1.23106,-0.734959 2.194288,-1.123446 0.687878,-0.277434 1.60703,-0.748134 2.694534,-1.379877 0.267596,-0.155449 0.510784,-0.282634 0.540418,-0.282634 0.07026,0 1.092238,0.558338 1.713614,0.936198 0.463062,0.281589 0.94706,0.509003 1.460176,0.686088 0.775908,0.267777 2.650952,1.376462 2.770072,1.637899 0.07563,0.165986 -0.02355,0.7371 -0.233308,1.343564 -0.311678,0.901123 -0.316052,0.928002 -0.361618,2.2225 -0.06123,1.739372 -0.06471,1.751543 -1.262388,4.413907 -0.23452,0.521326 -0.45229,0.973764 -0.483932,1.005417 -0.04002,0.04003 -1.14208,0.06191 -3.619586,0.07186 -3.344004,0.01343 -3.568668,0.0086 -3.670104,-0.07937 z m 7.119866,-0.239204 c 0.09145,-0.111675 1.26,-2.796001 1.376396,-3.161771 0.19024,-0.597816 0.229706,-0.900482 0.248866,-1.908487 0.0198,-1.041125 0.0702,-1.442252 0.24363,-1.938634 0.28326,-0.810731 0.458928,-1.547559 0.394002,-1.652611 -0.116436,-0.188397 -1.755536,-1.110208 -2.459538,-1.383215 -0.676222,-0.262234 -1.321334,-0.582937 -2.080124,-1.034086 -0.327514,-0.194728 -0.712668,-0.40858 -0.855896,-0.475225 -0.314816,-0.146487 -0.284782,-0.156286 -1.365802,0.445592 -0.992588,0.552641 -1.51377,0.811003 -2.142496,1.062082 -1.007848,0.40248 -1.567322,0.690331 -2.363158,1.21585 l -0.205204,0.135505 0.02817,0.372419 c 0.01858,0.24579 0.113846,0.62422 0.280156,1.112968 0.138594,0.407303 0.272002,0.8358 0.296462,0.952217 0.02446,0.116416 0.06699,0.753304 0.0945,1.415305 0.05934,1.42753 0.108028,1.661974 0.541298,2.606361 0.173582,0.378355 0.459936,1.021292 0.63634,1.42875 0.176402,0.407459 0.34419,0.770599 0.372858,0.80698 0.04074,0.0517 0.800528,0.06614 3.47875,0.06614 2.677134,0 3.438472,-0.01447 3.48079,-0.06614 z"
       id="path4147" />
  </g>
</svg>
