<?xml version="1.0" encoding="UTF-8" standalone="no"?>
<svg
   xmlns:dc="http://purl.org/dc/elements/1.1/"
   xmlns:cc="http://creativecommons.org/ns#"
   xmlns:rdf="http://www.w3.org/1999/02/22-rdf-syntax-ns#"
   xmlns:svg="http://www.w3.org/2000/svg"
   xmlns="http://www.w3.org/2000/svg"
   xmlns:sodipodi="http://sodipodi.sourceforge.net/DTD/sodipodi-0.dtd"
   xmlns:inkscape="http://www.inkscape.org/namespaces/inkscape"
   width="13.229167mm"
   height="13.229167mm"
   viewBox="0 0 13.229169 13.229168"
   version="1.1"
   id="svg8"
   sodipodi:docname="VCS_resized_278.svg"
   inkscape:version="1.0.2-2 (e86c870879, 2021-01-15)">
  <defs
     id="defs2" />
  <sodipodi:namedview
     id="base"
     pagecolor="#ffffff"
     bordercolor="#666666"
     borderopacity="1.0"
     inkscape:pageopacity="0.0"
     inkscape:pageshadow="2"
     inkscape:zoom="4"
     inkscape:cx="20.503856"
     inkscape:cy="22.102667"
     inkscape:document-units="mm"
     inkscape:current-layer="layer1"
     inkscape:document-rotation="0"
     showgrid="false"
     inkscape:window-width="958"
     inkscape:window-height="1008"
     inkscape:window-x="1913"
     inkscape:window-y="0"
     inkscape:window-maximized="0" />
  <metadata
     id="metadata5">
    <rdf:RDF>
      <cc:Work
         rdf:about="">
        <dc:format>image/svg+xml</dc:format>
        <dc:type
           rdf:resource="http://purl.org/dc/dcmitype/StillImage" />
        <dc:title></dc:title>
      </cc:Work>
    </rdf:RDF>
  </metadata>
  <g
     inkscape:label="Ebene 1"
     inkscape:groupmode="layer"
     id="layer1"
     transform="translate(-80.266441,10.768943)">
    <path
       style="fill:#000000;stroke-width:0.264582"
       d="M 83.58795,2.0330687 C 83.57447,1.9926727 83.53813,1.4952787 83.5072,0.92774752 83.361712,-1.7412073 83.329064,-2.1717611 83.264158,-2.2774303 c -0.08771,-0.142801 -0.935596,-1.080805 -2.047114,-2.2646974 -0.488234,-0.5200254 -0.887698,-0.975832 -0.887698,-1.0129044 0,-0.071501 0.03539,-0.080769 1.931458,-0.5058146 0.640292,-0.1435358 1.41943,-0.3235144 1.73142,-0.3999536 l 0.567254,-0.1389794 0.256122,-0.4298822 c 0.140866,-0.2364354 0.63397,-1.0906792 1.095786,-1.8983198 0.76306,-1.3344683 0.852294,-1.4684373 0.978102,-1.4684373 0.125574,0 0.209088,0.124149 0.89881,1.3361457 0.418204,0.7348802 0.908914,1.5866744 1.090464,1.8928756 l 0.330092,0.55673 1.156184,0.27757 c 0.6359,0.1526636 1.572022,0.372743 2.08027,0.4890654 0.508248,0.1163226 0.946366,0.2337748 0.973596,0.2610046 0.05403,0.054033 -0.01944,0.1452114 -0.790476,0.9809834 -1.052148,1.140485 -2.192026,2.4140224 -2.19254,2.44963 -4e-4,0.020599 -0.03493,0.6089534 -0.07696,1.30745342 -0.04203,0.6985 -0.09228,1.6271876 -0.111658,2.06374998 -0.01938,0.4365626 -0.03832,0.7975712 -0.0421,0.802241 -0.0038,0.00467 -1.488682,0.025814 -3.299788,0.046988 -2.786604,0.032578 -3.29669,0.027204 -3.317428,-0.034949 z m 6.173788,-0.2397024 0.198436,-0.032799 v -0.426837 c 0,-0.23476 0.02268,-0.69003478 0.05039,-1.01172218 0.02771,-0.32168679794 0.07748,-1.0469154 0.11059,-1.61161942 l 0.0602,-1.0267342 0.873964,-0.9576408 c 1.808752,-1.9819308 1.947144,-2.139867 1.90873,-2.1782808 -0.01406,-0.01405 -0.45159,-0.1191614 -0.972314,-0.2335814 -1.542826,-0.3390102 -2.87483,-0.673126 -2.957698,-0.7419002 -0.07866,-0.065286 -0.48684,-0.7579086 -1.512412,-2.5663784 -0.313592,-0.5529792 -0.599028,-1.0054168 -0.634302,-1.0054168 -0.03528,0 -0.21139,0.2619376 -0.391368,0.5820834 -0.738358,1.3134002 -1.580798,2.7615722 -1.693296,2.9108184 -0.127626,0.169312 -0.285344,0.2133212 -2.568316,0.7166594 -1.161014,0.2559738 -1.42875,0.3264794 -1.42875,0.3762432 0,0.025917 0.342112,0.4096496 0.76025,0.8527416 0.418136,0.4430914 1.034472,1.1113282 1.369634,1.4849708 0.712748,0.7945818 0.63758,0.5400394 0.752612,2.54856662 0.09241,1.61361538 0.133888,2.19764498 0.16253,2.28864578 0.01632,0.051848 0.635974,0.06602 2.86675,0.065563 1.565262,-3.2e-4 2.935228,-0.015342 3.04437,-0.033382 z"
       id="path5363" />
  </g>
</svg>
