<?xml version="1.0" encoding="UTF-8" standalone="no"?>
<svg
   xmlns:dc="http://purl.org/dc/elements/1.1/"
   xmlns:cc="http://creativecommons.org/ns#"
   xmlns:rdf="http://www.w3.org/1999/02/22-rdf-syntax-ns#"
   xmlns:svg="http://www.w3.org/2000/svg"
   xmlns="http://www.w3.org/2000/svg"
   xmlns:sodipodi="http://sodipodi.sourceforge.net/DTD/sodipodi-0.dtd"
   xmlns:inkscape="http://www.inkscape.org/namespaces/inkscape"
   width="13.229167mm"
   height="13.229167mm"
   viewBox="0 0 13.229169 13.229168"
   version="1.1"
   id="svg8"
   sodipodi:docname="VCS_resized_244.svg"
   inkscape:version="1.0.2-2 (e86c870879, 2021-01-15)">
  <defs
     id="defs2" />
  <sodipodi:namedview
     id="base"
     pagecolor="#ffffff"
     bordercolor="#666666"
     borderopacity="1.0"
     inkscape:pageopacity="0.0"
     inkscape:pageshadow="2"
     inkscape:zoom="4"
     inkscape:cx="-1.8143549"
     inkscape:cy="46.718645"
     inkscape:document-units="mm"
     inkscape:current-layer="layer1"
     inkscape:document-rotation="0"
     showgrid="false"
     inkscape:window-width="958"
     inkscape:window-height="1008"
     inkscape:window-x="1913"
     inkscape:window-y="0"
     inkscape:window-maximized="0" />
  <metadata
     id="metadata5">
    <rdf:RDF>
      <cc:Work
         rdf:about="">
        <dc:format>image/svg+xml</dc:format>
        <dc:type
           rdf:resource="http://purl.org/dc/dcmitype/StillImage" />
        <dc:title></dc:title>
      </cc:Work>
    </rdf:RDF>
  </metadata>
  <g
     inkscape:label="Ebene 1"
     inkscape:groupmode="layer"
     id="layer1"
     transform="translate(-79.530136,-11.863029)">
    <path
       style="fill:#000000;stroke-width:0.264582"
       d="m 82.046118,24.702831 c -0.01176,-0.03638 -0.14449,-0.971021 -0.294958,-2.076979 L 81.477582,20.615019 81.04025,19.79481 c -0.240532,-0.451114 -0.539544,-1.010708 -0.664472,-1.243541 -0.652536,-1.216153 -0.852682,-1.627121 -0.81127,-1.665807 0.04758,-0.04445 0.66818,-0.30685 2.379882,-1.006265 0.556204,-0.227269 1.080078,-0.449498 1.164166,-0.493842 0.258052,-0.136084 0.86725,-0.796506 2.243096,-2.4317 0.567602,-0.674596 0.761068,-0.837993 0.894536,-0.755506 0.02964,0.01832 0.369278,0.407511 0.75476,0.864877 0.385484,0.457367 0.97103,1.133906 1.301214,1.503421 0.678922,0.759793 0.699736,0.772768 2.208864,1.376926 1.202262,0.481309 2.164162,0.889607 2.216076,0.94066 0.02653,0.02609 -0.12384,0.359763 -0.3502,0.777103 -0.41846,0.771514 -1.090228,2.049855 -1.427128,2.715758 -0.16894,0.33392 -0.209406,0.480815 -0.255102,0.926041 -0.02987,0.291042 -0.09981,0.826823 -0.15542,1.190625 -0.05561,0.363802 -0.142716,0.991607 -0.193568,1.395122 -0.05579,0.442662 -0.12154,0.762743 -0.165776,0.806979 -0.103234,0.103235 -8.100462,0.110285 -8.13379,0.0072 z M 89.9392,24.46261 c 0.03475,-0.02209 0.08928,-0.253897 0.121182,-0.515127 0.03191,-0.261231 0.125676,-0.939308 0.20838,-1.506839 0.0827,-0.567532 0.175408,-1.223542 0.206008,-1.457801 0.04137,-0.316734 0.105548,-0.520223 0.250328,-0.79375 0.10708,-0.202304 0.478718,-0.913169 0.825858,-1.579702 0.347142,-0.666533 0.679348,-1.279542 0.738236,-1.362243 0.11681,-0.164046 0.0982,-0.239001 -0.07674,-0.309091 -0.06266,-0.0251 -0.435392,-0.179972 -0.828298,-0.344151 -0.392906,-0.164179 -0.9525,-0.389189 -1.243542,-0.500021 -1.140228,-0.434213 -1.39078,-0.58027 -1.830114,-1.066844 -0.44547,-0.493371 -1.205518,-1.376899 -1.76144,-2.04761 -0.200002,-0.241297 -0.390502,-0.429965 -0.423334,-0.41926 -0.05781,0.01885 -0.238122,0.224441 -1.07752,1.228598 -0.21896,0.261937 -0.651024,0.753652 -0.960142,1.092699 -0.611102,0.67027 -0.721324,0.743262 -1.699742,1.125615 -0.948378,0.370615 -2.331848,0.947589 -2.409896,1.005045 -0.06595,0.04855 -0.01964,0.164344 0.29813,0.745391 0.206914,0.378354 0.489012,0.902229 0.626884,1.164166 0.137874,0.261938 0.383152,0.726282 0.545064,1.031875 l 0.294384,0.555625 0.168438,1.190625 c 0.09264,0.654844 0.21492,1.533635 0.271732,1.952869 0.05681,0.419235 0.11574,0.782375 0.130946,0.80698 0.03431,0.05551 7.537962,0.05841 7.6252,0.003 z"
       id="path4803" />
  </g>
</svg>
