<?xml version="1.0" encoding="UTF-8" standalone="no"?>
<svg
   xmlns:dc="http://purl.org/dc/elements/1.1/"
   xmlns:cc="http://creativecommons.org/ns#"
   xmlns:rdf="http://www.w3.org/1999/02/22-rdf-syntax-ns#"
   xmlns:svg="http://www.w3.org/2000/svg"
   xmlns="http://www.w3.org/2000/svg"
   xmlns:sodipodi="http://sodipodi.sourceforge.net/DTD/sodipodi-0.dtd"
   xmlns:inkscape="http://www.inkscape.org/namespaces/inkscape"
   width="13.229167mm"
   height="13.229167mm"
   viewBox="0 0 13.229169 13.229168"
   version="1.1"
   id="svg8"
   sodipodi:docname="VCS_resized_319.svg"
   inkscape:version="1.0.2-2 (e86c870879, 2021-01-15)">
  <defs
     id="defs2" />
  <sodipodi:namedview
     id="base"
     pagecolor="#ffffff"
     bordercolor="#666666"
     borderopacity="1.0"
     inkscape:pageopacity="0.0"
     inkscape:pageshadow="2"
     inkscape:zoom="4"
     inkscape:cx="5.1684447"
     inkscape:cy="37.156521"
     inkscape:document-units="mm"
     inkscape:current-layer="layer1"
     inkscape:document-rotation="0"
     showgrid="false"
     inkscape:window-width="958"
     inkscape:window-height="1008"
     inkscape:window-x="1913"
     inkscape:window-y="0"
     inkscape:window-maximized="0" />
  <metadata
     id="metadata5">
    <rdf:RDF>
      <cc:Work
         rdf:about="">
        <dc:format>image/svg+xml</dc:format>
        <dc:type
           rdf:resource="http://purl.org/dc/dcmitype/StillImage" />
        <dc:title></dc:title>
      </cc:Work>
    </rdf:RDF>
  </metadata>
  <g
     inkscape:label="Ebene 1"
     inkscape:groupmode="layer"
     id="layer1"
     transform="translate(-96.506111,18.254215)">
    <path
       style="fill:#000000;stroke-width:0.264582"
       d="m 102.08707,-6.0707942 -0.82021,-0.4344642 -0.0578,-0.3704168 c -0.0318,-0.2037292 -0.11219,-0.7395104 -0.17869,-1.190625 -0.0665,-0.4511147 -0.14782,-0.9988021 -0.18071,-1.2170833 l -0.0598,-0.396875 -0.31714,-0.2013232 c -0.17442,-0.1107276 -0.864819,-0.5114393 -1.534215,-0.8904713 -2.115374,-1.197787 -2.350598,-1.352683 -2.19769,-1.447186 0.02565,-0.01586 0.637786,-0.172374 1.360292,-0.347818 1.27289,-0.309094 2.585013,-0.634566 2.995533,-0.743042 0.22541,-0.05956 0.24413,-0.09313 0.73491,-1.317868 0.35766,-0.892537 1.21172,-2.867932 1.27547,-2.950104 0.0282,-0.03638 0.0929,-0.06615 0.14362,-0.06615 0.11412,0 0.14269,0.06754 1.50506,3.558646 0.16752,0.429286 0.31311,0.780521 0.32351,0.780521 0.10045,0 3.71185,1.01246 4.20577,1.179093 0.13027,0.04395 0.2441,0.115727 0.25296,0.159505 0.018,0.08895 -1.03945,0.700388 -3.53499,2.0440515 -0.38303,0.2062358 -0.45867,0.2696056 -0.51011,0.4273502 -0.0332,0.1018646 -0.16017,0.780521 -0.28211,1.5081251 -0.12194,0.7276042 -0.24958,1.382448 -0.28363,1.4552084 -0.0899,0.1921176 -1.51429,0.898461 -1.80817,0.896674 -0.16167,-9.8e-4 -0.40541,-0.1039108 -1.03188,-0.4357514 z m 1.37004,0.061324 c 1.0333,-0.4776522 1.21876,-0.5875444 1.27193,-0.7536762 0.0291,-0.090995 0.15057,-0.736945 0.26989,-1.435445 0.11932,-0.6985001 0.23046,-1.3474357 0.24698,-1.4420793 0.0273,-0.1566444 0.0876,-0.2037244 0.67133,-0.5248793 2.51756,-1.385016 3.06052,-1.693033 3.0678,-1.740351 0.004,-0.02737 -0.0876,-0.07777 -0.20401,-0.111989 -0.46896,-0.137843 -1.58839,-0.453184 -2.51354,-0.70806 -1.35542,-0.373414 -1.38731,-0.383933 -1.43465,-0.473266 -0.0231,-0.04366 -0.16117,-0.388938 -0.30674,-0.767292 -0.61393,-1.595734 -1.22838,-3.123229 -1.27516,-3.170007 -0.0317,-0.03173 -0.0874,0.03613 -0.15101,0.184043 -0.0554,0.128863 -0.25508,0.591484 -0.4437,1.028047 -0.18862,0.436562 -0.42609,0.996156 -0.52771,1.243542 -0.64189,1.562634 -0.62534,1.531041 -0.83053,1.585607 -0.30852,0.08204 -3.614053,0.888224 -3.800837,0.926978 -0.09425,0.01956 -0.18473,0.05717 -0.201056,0.08359 -0.03745,0.06059 4e-4,0.08389 1.871492,1.149846 0.853591,0.486304 1.622271,0.9437213 1.708191,1.0164817 0.17073,0.1445852 0.14313,0.010026 0.49121,2.3951629 0.0669,0.4587664 0.13134,0.8430186 0.14309,0.8538934 0.0812,0.075161 1.52316,0.767624 1.60307,0.7698386 0.055,0.00152 0.2098,-0.047967 0.34396,-0.1099818 z"
       id="path6021" />
  </g>
</svg>
