<?xml version="1.0" encoding="UTF-8" standalone="no"?>
<svg
   xmlns:dc="http://purl.org/dc/elements/1.1/"
   xmlns:cc="http://creativecommons.org/ns#"
   xmlns:rdf="http://www.w3.org/1999/02/22-rdf-syntax-ns#"
   xmlns:svg="http://www.w3.org/2000/svg"
   xmlns="http://www.w3.org/2000/svg"
   xmlns:sodipodi="http://sodipodi.sourceforge.net/DTD/sodipodi-0.dtd"
   xmlns:inkscape="http://www.inkscape.org/namespaces/inkscape"
   width="13.229167mm"
   height="13.229167mm"
   viewBox="0 0 13.229169 13.229168"
   version="1.1"
   id="svg8"
   sodipodi:docname="VCS_resized_131.svg"
   inkscape:version="1.0.2-2 (e86c870879, 2021-01-15)">
  <defs
     id="defs2" />
  <sodipodi:namedview
     id="base"
     pagecolor="#ffffff"
     bordercolor="#666666"
     borderopacity="1.0"
     inkscape:pageopacity="0.0"
     inkscape:pageshadow="2"
     inkscape:zoom="2.8284271"
     inkscape:cx="-11.621151"
     inkscape:cy="52.683545"
     inkscape:document-units="mm"
     inkscape:current-layer="layer1"
     inkscape:document-rotation="0"
     showgrid="false"
     inkscape:window-width="958"
     inkscape:window-height="1008"
     inkscape:window-x="1913"
     inkscape:window-y="0"
     inkscape:window-maximized="0" />
  <metadata
     id="metadata5">
    <rdf:RDF>
      <cc:Work
         rdf:about="">
        <dc:format>image/svg+xml</dc:format>
        <dc:type
           rdf:resource="http://purl.org/dc/dcmitype/StillImage" />
        <dc:title></dc:title>
      </cc:Work>
    </rdf:RDF>
  </metadata>
  <g
     inkscape:label="Ebene 1"
     inkscape:groupmode="layer"
     id="layer1"
     transform="translate(-41.274746,-12.652424)">
    <path
       style="fill:#000000;stroke-width:0.264582"
       d="m 46.75947,25.484145 c -0.0291,-0.0091 -0.23151,-0.04591 -0.449792,-0.08175 -0.218282,-0.03583 -0.527844,-0.09544 -0.687916,-0.132452 -0.160074,-0.03702 -0.356044,-0.08203 -0.435492,-0.100022 -0.106546,-0.02414 -0.272002,-0.20262 -0.63057,-0.680214 -0.267368,-0.35612 -0.645538,-0.849896 -0.840378,-1.097282 -0.839058,-1.065334 -1.04819,-1.484941 -1.065022,-2.136883 -0.0088,-0.339854 0.01044,-0.432638 0.144504,-0.697597 0.08504,-0.168083 0.34905,-0.518878 0.586686,-0.779545 0.249888,-0.274108 0.506484,-0.62082 0.608564,-0.822291 0.163496,-0.322687 0.176474,-0.385546 0.176168,-0.853205 -4e-4,-0.57608 -0.0288,-0.64788 -0.648282,-1.637958 -0.520414,-0.831742 -0.614262,-1.091321 -0.613874,-1.697937 1.76e-4,-0.276489 0.03105,-0.597958 0.0686,-0.714375 0.249844,-0.774509 0.910124,-1.189285 1.543176,-0.969395 0.09893,0.03436 0.537064,0.288165 0.973626,0.564003 1.732366,1.09458 1.83485,1.137372 2.660258,1.110779 0.536452,-0.01728 0.589476,-0.02942 0.964534,-0.220778 0.502516,-0.256388 0.837152,-0.479824 1.265124,-0.844723 0.770988,-0.657359 1.232242,-0.802407 1.737488,-0.54638 0.758844,0.384536 1.027218,1.674928 0.546212,2.626286 -0.08093,0.160073 -0.253866,0.445823 -0.384294,0.635 -0.592238,0.858994 -0.765574,1.330305 -0.681422,1.852833 0.105192,0.65319 0.165558,0.755487 1.089642,1.846504 0.36805,0.434538 0.469856,0.729599 0.437542,1.268129 -0.02481,0.413492 -0.161446,0.769952 -0.438668,1.144409 -0.06464,0.08731 -0.40059,0.53975 -0.746556,1.005416 -0.345964,0.465668 -0.66988,0.911382 -0.719812,0.990478 -0.04993,0.07909 -0.204714,0.26063 -0.34396,0.40341 -0.276486,0.283506 -0.162606,0.246936 -1.602546,0.514626 -0.348312,0.06475 -2.34073,0.105108 -2.513542,0.05091 z m 3.095302,-0.420394 c 0.405952,-0.08537 0.695484,-0.17433 0.750126,-0.230488 0.192552,-0.197884 1.954334,-2.594227 2.08987,-2.8426 0.122176,-0.223891 0.144372,-0.328536 0.145916,-0.687917 0.0022,-0.511682 -0.07474,-0.663507 -0.749018,-1.478067 -0.542354,-0.655187 -0.756836,-1.066981 -0.793474,-1.523427 -0.04788,-0.596487 0.170826,-1.201002 0.75217,-2.07903 0.41181,-0.621974 0.494358,-0.805221 0.554744,-1.231447 0.0844,-0.595773 -0.05229,-1.079738 -0.388308,-1.374761 -0.475392,-0.4174 -0.865276,-0.309194 -1.971782,0.547233 -0.468724,0.362789 -0.802146,0.559425 -1.233084,0.72721 -0.251678,0.09799 -0.394664,0.113917 -0.982462,0.109429 -0.636132,-0.0049 -0.7158,-0.01699 -1.058334,-0.161128 -0.203728,-0.08573 -0.537104,-0.264111 -0.740834,-0.396399 -1.596226,-1.036482 -2.012908,-1.203327 -2.445952,-0.979392 -0.511832,0.264679 -0.759658,1.004448 -0.576284,1.720227 0.07447,0.290684 0.2938,0.737106 0.561612,1.143092 0.44535,0.675127 0.662646,1.209246 0.71594,1.759806 0.05712,0.590101 -0.157744,1.032683 -0.957652,1.972588 -0.501728,0.589538 -0.578496,0.75456 -0.578496,1.243542 0,0.534279 0.0861,0.716149 0.764088,1.613958 0.274726,0.363803 0.705372,0.935303 0.956988,1.269999 0.251616,0.334698 0.495514,0.639878 0.541994,0.678176 0.07995,0.06587 0.765838,0.224904 1.41169,0.327318 0.161694,0.02564 0.805958,0.03863 1.431698,0.02886 0.980938,-0.0153 1.22881,-0.03691 1.798844,-0.156784 z"
       id="path2138" />
  </g>
</svg>
