<?xml version="1.0" encoding="UTF-8" standalone="no"?>
<svg
   xmlns:dc="http://purl.org/dc/elements/1.1/"
   xmlns:cc="http://creativecommons.org/ns#"
   xmlns:rdf="http://www.w3.org/1999/02/22-rdf-syntax-ns#"
   xmlns:svg="http://www.w3.org/2000/svg"
   xmlns="http://www.w3.org/2000/svg"
   xmlns:sodipodi="http://sodipodi.sourceforge.net/DTD/sodipodi-0.dtd"
   xmlns:inkscape="http://www.inkscape.org/namespaces/inkscape"
   width="13.229167mm"
   height="13.229167mm"
   viewBox="0 0 13.229169 13.229168"
   version="1.1"
   id="svg8"
   sodipodi:docname="VCS_resized_267.svg"
   inkscape:version="1.0.2-2 (e86c870879, 2021-01-15)">
  <defs
     id="defs2" />
  <sodipodi:namedview
     id="base"
     pagecolor="#ffffff"
     bordercolor="#666666"
     borderopacity="1.0"
     inkscape:pageopacity="0.0"
     inkscape:pageshadow="2"
     inkscape:zoom="4"
     inkscape:cx="30.014908"
     inkscape:cy="21.726281"
     inkscape:document-units="mm"
     inkscape:current-layer="layer1"
     inkscape:document-rotation="0"
     showgrid="false"
     inkscape:window-width="958"
     inkscape:window-height="1008"
     inkscape:window-x="1913"
     inkscape:window-y="0"
     inkscape:window-maximized="0" />
  <metadata
     id="metadata5">
    <rdf:RDF>
      <cc:Work
         rdf:about="">
        <dc:format>image/svg+xml</dc:format>
        <dc:type
           rdf:resource="http://purl.org/dc/dcmitype/StillImage" />
        <dc:title></dc:title>
      </cc:Work>
    </rdf:RDF>
  </metadata>
  <g
     inkscape:label="Ebene 1"
     inkscape:groupmode="layer"
     id="layer1"
     transform="translate(-75.375107,15.175276)">
    <path
       style="fill:#000000;stroke-width:0.264582"
       d="m 78.267743,-2.2474158 c -0.018,-0.029134 -0.179762,-3.8555888 -0.181094,-4.2838917 -4e-4,-0.1381178 -0.554582,-0.8868478 -1.944802,-2.627666 -0.35387,-0.4431124 -0.668784,-0.8530915 -0.69981,-0.9110655 -0.06865,-0.12827 -0.174488,-0.09546 2.29034,-0.710091 0.984102,-0.245398 1.79488,-0.454599 1.801732,-0.46489 0.244582,-0.367423 1.585884,-2.45366 1.993788,-3.101107 0.439248,-0.697194 0.503638,-0.70931 0.841226,-0.158297 0.399944,0.65279 1.856782,2.913996 1.99168,3.091353 0.149574,0.196653 0.140772,0.193788 2.086258,0.679192 1.770036,0.441628 2.116884,0.543813 2.115774,0.623326 -4e-4,0.03515 -0.144302,0.2424989 -0.319578,0.4607801 -0.175276,0.2182812 -0.556002,0.7064374 -0.846058,1.0847916 -0.290056,0.3783542 -0.750886,0.9791478 -1.024066,1.335097 l -0.496692,0.64718 -0.03722,0.9138619 c -0.02047,0.5026236 -0.05282,1.4655266 -0.07188,2.1397838 -0.01906,0.6742578 -0.04806,1.2393174 -0.06444,1.2556882 -0.04248,0.042456 -7.409066,0.068171 -7.435158,0.025955 z m 7.124464,-0.2604686 c 0.09094,-0.048671 0.102352,-0.1150514 0.10234,-0.5953126 -1e-5,-0.2972936 0.02624,-1.2310966 0.05833,-2.0751174 0.04877,-1.2827251 0.07266,-1.5531843 0.145534,-1.6479193 0.04795,-0.062335 0.410008,-0.5266792 0.804566,-1.031875 1.43715,-1.8401518 1.64574,-2.1219996 1.60229,-2.1650333 -0.02434,-0.02411 -0.734812,-0.212815 -1.578834,-0.419355 -0.84402,-0.20654 -1.69372,-0.422766 -1.88822,-0.480502 l -0.353638,-0.104975 -0.33911,-0.514753 c -0.377824,-0.573519 -1.591684,-2.468573 -1.778746,-2.776942 -0.06621,-0.10914 -0.141908,-0.198437 -0.168224,-0.198437 -0.02632,0 -0.104974,0.0893 -0.174792,0.198437 -0.06982,0.109141 -0.473908,0.746125 -0.897978,1.415521 -0.42407,0.669396 -0.875102,1.371865 -1.002292,1.561042 l -0.231258,0.343958 -1.89755,0.47625 c -1.043652,0.261938 -1.904992,0.500062 -1.914088,0.5291667 -0.0091,0.029104 0.259896,0.398198 0.597762,0.8202084 0.337866,0.4220104 0.877984,1.112573 1.200264,1.5345834 0.32228,0.4220104 0.604706,0.7801884 0.627614,0.7959512 0.02291,0.015762 0.07461,0.9828531 0.114902,2.1490889 0.04029,1.1662356 0.08999,2.1475108 0.110448,2.1806112 0.05001,0.080922 6.70977,0.086167 6.860678,0.0054 z"
       id="path5185" />
  </g>
</svg>
