<?xml version="1.0" encoding="UTF-8" standalone="no"?>
<svg
   xmlns:dc="http://purl.org/dc/elements/1.1/"
   xmlns:cc="http://creativecommons.org/ns#"
   xmlns:rdf="http://www.w3.org/1999/02/22-rdf-syntax-ns#"
   xmlns:svg="http://www.w3.org/2000/svg"
   xmlns="http://www.w3.org/2000/svg"
   xmlns:sodipodi="http://sodipodi.sourceforge.net/DTD/sodipodi-0.dtd"
   xmlns:inkscape="http://www.inkscape.org/namespaces/inkscape"
   width="13.229167mm"
   height="13.229167mm"
   viewBox="0 0 13.229169 13.229168"
   version="1.1"
   id="svg8"
   sodipodi:docname="VCS_resized_252.svg"
   inkscape:version="1.0.2-2 (e86c870879, 2021-01-15)">
  <defs
     id="defs2" />
  <sodipodi:namedview
     id="base"
     pagecolor="#ffffff"
     bordercolor="#666666"
     borderopacity="1.0"
     inkscape:pageopacity="0.0"
     inkscape:pageshadow="2"
     inkscape:zoom="2.8284271"
     inkscape:cx="-2.5848341"
     inkscape:cy="36.131896"
     inkscape:document-units="mm"
     inkscape:current-layer="layer1"
     inkscape:document-rotation="0"
     showgrid="false"
     inkscape:window-width="958"
     inkscape:window-height="1008"
     inkscape:window-x="1913"
     inkscape:window-y="0"
     inkscape:window-maximized="0" />
  <metadata
     id="metadata5">
    <rdf:RDF>
      <cc:Work
         rdf:about="">
        <dc:format>image/svg+xml</dc:format>
        <dc:type
           rdf:resource="http://purl.org/dc/dcmitype/StillImage" />
        <dc:title></dc:title>
      </cc:Work>
    </rdf:RDF>
  </metadata>
  <g
     inkscape:label="Ebene 1"
     inkscape:groupmode="layer"
     id="layer1"
     transform="translate(-82.723709,-3.3491173)">
    <path
       style="fill:#000000;stroke-width:0.264582"
       d="m 85.354865,16.217613 c -0.03142,-0.03785 -0.08159,-0.365276 -0.111508,-0.727605 -0.07693,-0.931834 -0.154038,-1.71883 -0.243388,-2.484079 -0.04246,-0.363624 -0.07719,-0.739567 -0.07719,-0.835431 0,-0.158961 -0.2739,-0.649921 -0.98066,-1.75781 -0.822392,-1.2891486 -1.24929,-2.0245496 -1.202442,-2.0713966 0.02954,-0.02954 0.788806,-0.311303 1.68726,-0.62614 0.898452,-0.314838 1.751976,-0.617057 1.89672,-0.671599 0.316098,-0.119113 0.496082,-0.323325 1.892656,-2.147427 0.816626,-1.0666154 0.982534,-1.256405 1.096526,-1.254356 0.112222,0.00202 0.290994,0.2084774 1.086817,1.255138 0.523874,0.688999 1.109574,1.432053 1.301556,1.651232 0.399078,0.455616 0.254588,0.388633 2.56136,1.187403 0.698498,0.241871 1.361758,0.478646 1.473908,0.526167 l 0.20391,0.0864 -0.10377,0.172393 c -0.0571,0.09482 -0.4443,0.731987 -0.8605,1.415935 -1.221878,2.0079556 -1.321994,2.1838116 -1.323976,2.3256156 -0.001,0.07426 -0.02323,0.361228 -0.0493,0.637717 -0.02608,0.27649 -0.09626,1.026584 -0.155968,1.666875 -0.0597,0.640292 -0.118268,1.268316 -0.130144,1.395608 -0.01188,0.127292 -0.05395,0.251943 -0.0935,0.277002 -0.03955,0.02506 -1.813258,0.04593 -3.941575,0.04637 -3.1123,6.6e-4 -3.880846,-0.01266 -3.926786,-0.06801 z m 7.614723,-0.250537 c 0.07493,-0.0401 0.102356,-0.111327 0.102356,-0.265791 0,-0.116057 0.04886,-0.680765 0.108586,-1.254909 0.05972,-0.574143 0.139338,-1.377271 0.176926,-1.78473 l 0.06834,-0.740833 0.236748,-0.370417 c 0.130214,-0.203729 0.53071,-0.858573 0.889996,-1.455208 0.35928,-0.5966346 0.72081,-1.1843316 0.80341,-1.3059926 0.0826,-0.12166 0.15016,-0.243514 0.15016,-0.270787 0,-0.05717 -0.49109,-0.245372 -1.799166,-0.689499 -1.836342,-0.623486 -1.81784,-0.614997 -2.135442,-0.979828 -0.292984,-0.336552 -1.141852,-1.420758 -1.819063,-2.323372 -0.212904,-0.2837658 -0.40621,-0.5159376 -0.429572,-0.5159376 -0.06735,0 -0.214296,0.1789516 -0.93426,1.1377086 -0.37154,0.494771 -0.887026,1.153635 -1.145524,1.464144 -0.462838,0.55596 -0.476502,0.567045 -0.896966,0.727604 -0.234832,0.08967 -0.438416,0.163043 -0.45241,0.163043 -0.02364,0 -2.472032,0.848623 -2.677494,0.928033 -0.05093,0.01968 -0.0926,0.05834 -0.0926,0.08591 0,0.02756 0.151898,0.292908 0.33755,0.589651 0.185654,0.296743 0.647668,1.0431356 1.026698,1.6586516 l 0.689146,1.11912 0.08591,0.918172 c 0.04725,0.504994 0.108284,1.108672 0.135638,1.341505 0.02736,0.232833 0.07426,0.729038 0.104238,1.102676 0.02997,0.373638 0.06792,0.70106 0.08433,0.727604 0.04326,0.07 7.251405,0.06363 7.382477,-0.0065 z"
       id="path4931" />
  </g>
</svg>
