<?xml version="1.0" encoding="UTF-8" standalone="no"?>
<svg
   xmlns:dc="http://purl.org/dc/elements/1.1/"
   xmlns:cc="http://creativecommons.org/ns#"
   xmlns:rdf="http://www.w3.org/1999/02/22-rdf-syntax-ns#"
   xmlns:svg="http://www.w3.org/2000/svg"
   xmlns="http://www.w3.org/2000/svg"
   xmlns:sodipodi="http://sodipodi.sourceforge.net/DTD/sodipodi-0.dtd"
   xmlns:inkscape="http://www.inkscape.org/namespaces/inkscape"
   width="13.229167mm"
   height="13.229167mm"
   viewBox="0 0 13.229169 13.229168"
   version="1.1"
   id="svg8"
   sodipodi:docname="VCS_resized_166.svg"
   inkscape:version="1.0.2-2 (e86c870879, 2021-01-15)">
  <defs
     id="defs2" />
  <sodipodi:namedview
     id="base"
     pagecolor="#ffffff"
     bordercolor="#666666"
     borderopacity="1.0"
     inkscape:pageopacity="0.0"
     inkscape:pageshadow="2"
     inkscape:zoom="2.8284271"
     inkscape:cx="12.715546"
     inkscape:cy="26.025993"
     inkscape:document-units="mm"
     inkscape:current-layer="layer1"
     inkscape:document-rotation="0"
     showgrid="false"
     inkscape:window-width="958"
     inkscape:window-height="1008"
     inkscape:window-x="1913"
     inkscape:window-y="0"
     inkscape:window-maximized="0" />
  <metadata
     id="metadata5">
    <rdf:RDF>
      <cc:Work
         rdf:about="">
        <dc:format>image/svg+xml</dc:format>
        <dc:type
           rdf:resource="http://purl.org/dc/dcmitype/StillImage" />
        <dc:title></dc:title>
      </cc:Work>
    </rdf:RDF>
  </metadata>
  <g
     inkscape:label="Ebene 1"
     inkscape:groupmode="layer"
     id="layer1"
     transform="translate(-34.835659,-19.705568)">
    <path
       style="fill:#000000;stroke-width:0.264582"
       d="m 38.783024,32.235538 c -0.188062,-0.01049 -0.373874,-0.04559 -0.412918,-0.07799 -0.03904,-0.0324 -0.168248,-0.22759 -0.28712,-0.433747 -0.443712,-0.769517 -1.1028,-1.875603 -1.465506,-2.459422 -0.447198,-0.719815 -0.576796,-1.045576 -0.6482,-1.629329 -0.07338,-0.59992 -0.0028,-0.898549 0.410266,-1.736497 0.540496,-1.096382 0.551522,-1.415597 0.08773,-2.54 -0.203064,-0.492301 -0.244206,-0.65281 -0.266732,-1.040623 -0.02479,-0.426807 -0.01576,-0.481739 0.130554,-0.79375 0.406572,-0.867043 1.221522,-1.254526 2.167338,-1.030501 0.359998,0.08527 1.103722,0.109646 3.192978,0.104661 0.451114,-0.0011 1.082146,-0.0025 1.402292,-0.0031 0.394266,-7.88e-4 0.767792,-0.03963 1.157634,-0.120388 0.865074,-0.179198 1.110834,-0.12924 1.691638,0.343879 0.330878,0.269532 0.632812,0.698265 0.720136,1.022561 0.08852,0.328733 -0.01604,0.90366 -0.261194,1.436178 -0.281574,0.611628 -0.377618,1.040311 -0.316802,1.413986 0.07241,0.444885 0.08097,0.467191 0.489378,1.275307 l 0.382126,0.756106 -0.01198,0.510976 c -0.01234,0.526833 -0.120668,0.973585 -0.342528,1.412653 -0.05986,0.118475 -0.374824,0.655941 -0.69991,1.194368 -0.325086,0.538427 -0.717756,1.209446 -0.8726,1.491153 -0.154844,0.281707 -0.345674,0.589025 -0.42407,0.68293 l -0.142536,0.170736 -0.737568,0.04157 c -0.718584,0.0405 -4.25879,0.04645 -4.942412,0.0083 z m 4.351878,-0.222148 c 0.73429,-0.03156 1.079272,-0.06666 1.156048,-0.117641 0.06019,-0.03996 0.342046,-0.476993 0.626354,-0.971179 0.284306,-0.494187 0.690968,-1.184271 0.90369,-1.533521 0.212724,-0.34925 0.483376,-0.849312 0.601452,-1.11125 0.204818,-0.454368 0.214728,-0.500732 0.215678,-1.009109 l 0.001,-0.532859 -0.358118,-0.698445 c -0.457314,-0.891908 -0.529632,-1.15985 -0.465466,-1.724562 0.04686,-0.412403 0.145514,-0.727779 0.456378,-1.458983 0.202548,-0.476419 0.207466,-0.890635 0.01448,-1.218904 -0.187022,-0.318116 -0.623656,-0.720419 -0.92802,-0.855054 -0.264384,-0.11695 -0.537752,-0.114515 -1.312164,0.01169 -0.466642,0.07605 -4.943376,0.07559 -5.3975,-5.5e-4 -0.174626,-0.02928 -0.485466,-0.05337 -0.690756,-0.05354 -0.627656,-5.14e-4 -1.06295,0.287435 -1.379832,0.91277 -0.125842,0.248339 -0.136262,0.314214 -0.1106,0.699193 0.02272,0.34082 0.06656,0.506809 0.221268,0.837853 0.226928,0.485564 0.399404,1.11934 0.397584,1.460947 -0.0021,0.386253 -0.09034,0.678302 -0.394438,1.304777 -0.645082,1.328952 -0.610876,1.855252 0.207838,3.197904 0.846498,1.388215 1.19221,1.967015 1.39538,2.336184 0.122506,0.222599 0.26408,0.424402 0.314606,0.44845 0.212926,0.101343 2.888328,0.146177 4.525148,0.07583 z"
       id="path2700" />
  </g>
</svg>
