<?xml version="1.0" encoding="UTF-8" standalone="no"?>
<svg
   xmlns:dc="http://purl.org/dc/elements/1.1/"
   xmlns:cc="http://creativecommons.org/ns#"
   xmlns:rdf="http://www.w3.org/1999/02/22-rdf-syntax-ns#"
   xmlns:svg="http://www.w3.org/2000/svg"
   xmlns="http://www.w3.org/2000/svg"
   xmlns:sodipodi="http://sodipodi.sourceforge.net/DTD/sodipodi-0.dtd"
   xmlns:inkscape="http://www.inkscape.org/namespaces/inkscape"
   width="13.229167mm"
   height="13.229167mm"
   viewBox="0 0 13.229169 13.229168"
   version="1.1"
   id="svg8"
   sodipodi:docname="VCS_resized_231.svg"
   inkscape:version="1.0.2-2 (e86c870879, 2021-01-15)">
  <defs
     id="defs2" />
  <sodipodi:namedview
     id="base"
     pagecolor="#ffffff"
     bordercolor="#666666"
     borderopacity="1.0"
     inkscape:pageopacity="0.0"
     inkscape:pageshadow="2"
     inkscape:zoom="2.8284271"
     inkscape:cx="1.8138087"
     inkscape:cy="44.578331"
     inkscape:document-units="mm"
     inkscape:current-layer="layer1"
     inkscape:document-rotation="0"
     showgrid="false"
     inkscape:window-width="958"
     inkscape:window-height="1008"
     inkscape:window-x="1913"
     inkscape:window-y="0"
     inkscape:window-maximized="0" />
  <metadata
     id="metadata5">
    <rdf:RDF>
      <cc:Work
         rdf:about="">
        <dc:format>image/svg+xml</dc:format>
        <dc:type
           rdf:resource="http://purl.org/dc/dcmitype/StillImage" />
        <dc:title></dc:title>
      </cc:Work>
    </rdf:RDF>
  </metadata>
  <g
     inkscape:label="Ebene 1"
     inkscape:groupmode="layer"
     id="layer1"
     transform="translate(-48.083458,-18.885818)">
    <path
       style="fill:#000000;stroke-width:0.264582"
       d="m 50.634196,31.682059 c -0.04573,-0.04574 -0.08315,-0.128143 -0.08315,-0.183128 0,-0.05499 -0.07458,-0.428331 -0.165732,-0.829658 -0.09115,-0.401327 -0.183428,-0.813028 -0.20506,-0.914893 -0.02163,-0.101865 -0.100202,-0.411427 -0.174602,-0.687917 -0.0744,-0.276489 -0.175738,-0.728927 -0.225198,-1.005416 -0.04946,-0.27649 -0.159808,-0.679896 -0.245218,-0.896459 -0.08541,-0.216562 -0.222822,-0.588649 -0.30536,-0.826858 -0.08254,-0.238209 -0.295742,-0.758193 -0.473786,-1.15552 -0.476172,-1.062633 -0.598744,-1.408026 -0.529348,-1.491643 0.05439,-0.06554 0.48756,-0.283066 2.507126,-1.259036 1.04042,-0.50279 1.110944,-0.557981 2.8769,-2.251412 0.533232,-0.511334 1.009942,-0.936587 1.059356,-0.945007 0.05654,-0.0096 0.463054,0.346441 1.096742,0.960667 1.74921,1.695488 1.63659,1.615244 3.657412,2.605981 0.96966,0.47539 1.763018,0.886776 1.763018,0.914191 0,0.02742 -0.09753,0.284043 -0.216734,0.570284 -0.119204,0.28624 -0.347508,0.853812 -0.507344,1.26127 -0.159836,0.407458 -0.31055,0.788458 -0.334922,0.846667 -0.280416,0.669762 -0.528748,1.456204 -0.634952,2.010833 -0.03344,0.174625 -0.15105,0.686594 -0.261358,1.137708 -0.271906,1.111984 -0.364026,1.518753 -0.40628,1.793989 -0.07138,0.464968 0.283378,0.428511 -4.169838,0.428511 -3.50991,0 -3.947562,-0.0091 -4.021668,-0.08315 z m 7.841756,-0.247575 c 0.02931,-0.03638 0.06997,-0.149489 0.09035,-0.251354 0.02039,-0.101865 0.17574,-0.756708 0.345226,-1.455208 0.169486,-0.6985 0.346766,-1.478062 0.393956,-1.73236 0.07337,-0.395344 0.208322,-0.806629 0.586242,-1.786599 0.03928,-0.101864 0.130982,-0.339989 0.203776,-0.529166 0.07279,-0.189177 0.264882,-0.651125 0.426862,-1.026551 0.161978,-0.375426 0.294508,-0.728315 0.294508,-0.784199 0,-0.07775 -0.14602,-0.170683 -0.621772,-0.395739 -2.421346,-1.145428 -2.72274,-1.30812 -3.214688,-1.735284 -0.261936,-0.227444 -0.870742,-0.802809 -1.352898,-1.278589 -0.482158,-0.47578 -0.90476,-0.865055 -0.939118,-0.865055 -0.03436,0 -0.44949,0.37813 -0.922518,0.840288 -1.63883,1.601176 -2.030294,1.891479 -3.241298,2.403688 -0.174626,0.07386 -0.692548,0.313866 -1.150938,0.533348 -0.641324,0.307072 -0.833438,0.422116 -0.833438,0.499091 0,0.09904 0.306686,0.855498 0.636866,1.570877 0.09403,0.203729 0.241274,0.572823 0.327206,0.820208 0.08593,0.247385 0.223892,0.628385 0.306574,0.846667 0.08268,0.218281 0.21137,0.706437 0.28597,1.084791 0.0746,0.378355 0.217996,1.004432 0.318658,1.391284 0.100662,0.386852 0.232544,0.946446 0.293072,1.243541 0.06053,0.297097 0.120538,0.569941 0.133358,0.606321 0.01836,0.05208 0.826762,0.06615 3.802032,0.06615 2.95928,0 3.790278,-0.01434 3.832008,-0.06615 z"
       id="path4595" />
  </g>
</svg>
