<?xml version="1.0" encoding="UTF-8" standalone="no"?>
<svg
   xmlns:dc="http://purl.org/dc/elements/1.1/"
   xmlns:cc="http://creativecommons.org/ns#"
   xmlns:rdf="http://www.w3.org/1999/02/22-rdf-syntax-ns#"
   xmlns:svg="http://www.w3.org/2000/svg"
   xmlns="http://www.w3.org/2000/svg"
   xmlns:sodipodi="http://sodipodi.sourceforge.net/DTD/sodipodi-0.dtd"
   xmlns:inkscape="http://www.inkscape.org/namespaces/inkscape"
   width="13.229167mm"
   height="13.229167mm"
   viewBox="0 0 13.229169 13.229168"
   version="1.1"
   id="svg8"
   sodipodi:docname="VCS_resized_176.svg"
   inkscape:version="1.0.2-2 (e86c870879, 2021-01-15)">
  <defs
     id="defs2" />
  <sodipodi:namedview
     id="base"
     pagecolor="#ffffff"
     bordercolor="#666666"
     borderopacity="1.0"
     inkscape:pageopacity="0.0"
     inkscape:pageshadow="2"
     inkscape:zoom="2.8284271"
     inkscape:cx="-10.897057"
     inkscape:cy="56.185928"
     inkscape:document-units="mm"
     inkscape:current-layer="layer1"
     inkscape:document-rotation="0"
     showgrid="false"
     inkscape:window-width="958"
     inkscape:window-height="1008"
     inkscape:window-x="1913"
     inkscape:window-y="0"
     inkscape:window-maximized="0" />
  <metadata
     id="metadata5">
    <rdf:RDF>
      <cc:Work
         rdf:about="">
        <dc:format>image/svg+xml</dc:format>
        <dc:type
           rdf:resource="http://purl.org/dc/dcmitype/StillImage" />
        <dc:title></dc:title>
      </cc:Work>
    </rdf:RDF>
  </metadata>
  <g
     inkscape:label="Ebene 1"
     inkscape:groupmode="layer"
     id="layer1"
     transform="translate(-41.08316,-11.725752)">
    <path
       style="fill:#000000;stroke-width:0.264582"
       d="m 44.511261,24.23572 c -0.06388,-0.02588 -0.22488,-0.268238 -0.393246,-0.591959 -0.156794,-0.301473 -0.546538,-1.00057 -0.866098,-1.553549 -0.983548,-1.701978 -1.009776,-1.772006 -1.01078,-2.69875 l -6e-4,-0.635 0.245604,-0.582084 c 0.331312,-0.785218 0.39703,-1.243167 0.256982,-1.79075 -0.05581,-0.2182 -0.14793,-0.487951 -0.204722,-0.599447 -0.147452,-0.289489 -0.257946,-0.690089 -0.300854,-1.090748 -0.03395,-0.317041 -0.02445,-0.370021 0.11097,-0.618834 0.19051,-0.350031 0.784102,-0.909542 1.173372,-1.106001 0.51269,-0.258749 0.81759,-0.324011 1.513748,-0.324011 0.638936,0 1.099146,-0.04042 2.182142,-0.191656 0.58341,-0.08147 0.593194,-0.08103 1.42875,0.064 1.088318,0.188912 1.350238,0.214433 1.767358,0.172206 0.473706,-0.04796 0.874118,-0.0079 1.15289,0.115459 0.544782,0.240983 1.311688,0.916549 1.469654,1.294615 0.139784,0.334552 0.07,0.914334 -0.175226,1.455788 -0.162354,0.358475 -0.33137,0.969126 -0.32855,1.187046 0.0046,0.355627 0.156272,0.933061 0.396204,1.508414 0.235182,0.563965 0.25185,0.634174 0.244342,1.02923 -0.0082,0.432033 -0.13831,0.999986 -0.326542,1.425514 -0.05634,0.127356 -0.347212,0.65777 -0.64639,1.178697 -0.29918,0.520928 -0.64781,1.149547 -0.774736,1.396933 -0.126928,0.247385 -0.2995,0.559321 -0.383498,0.693191 l -0.152722,0.243401 -0.515526,0.03414 c -0.74707,0.04947 -5.7345,0.03599 -5.862436,-0.01585 z m 5.252068,-0.206113 c 0.827146,-0.03124 0.9177,-0.04409 0.98838,-0.140229 0.04279,-0.05821 0.274008,-0.474927 0.513808,-0.926041 0.239802,-0.451115 0.530346,-0.97449 0.645654,-1.163055 0.328398,-0.537032 0.745496,-1.372564 0.859076,-1.720904 0.07001,-0.214718 0.10336,-0.463107 0.103014,-0.767291 -4e-4,-0.413186 -0.02068,-0.499318 -0.248316,-1.058334 -0.341642,-0.838976 -0.377406,-1.002652 -0.337176,-1.543085 0.03222,-0.43274 0.120854,-0.757716 0.40031,-1.467636 0.06181,-0.157031 0.126244,-0.433886 0.143178,-0.615231 0.02877,-0.30808 0.01978,-0.345725 -0.137008,-0.573604 -0.192416,-0.279667 -0.686656,-0.69643 -1.08292,-0.91316 -0.260672,-0.14257 -0.310496,-0.149915 -1.250448,-0.184322 -0.663522,-0.02429 -1.166516,-0.07303 -1.561042,-0.15127 -0.656896,-0.130271 -1.314112,-0.124766 -2.513542,0.02106 -0.363802,0.04423 -0.865444,0.08092 -1.11476,0.08154 -0.969334,0.0024 -1.53755,0.21456 -2.140472,0.799181 -0.21417,0.207671 -0.429458,0.461996 -0.478416,0.565168 -0.127836,0.269391 -0.06893,0.642052 0.214922,1.359743 0.404338,1.02232 0.41741,1.6497 0.05296,2.542242 -0.370184,0.906599 -0.40718,1.65816 -0.114064,2.31718 0.07494,0.168491 0.395942,0.751897 0.713336,1.296459 0.317394,0.544561 0.712184,1.243997 0.877308,1.554302 0.165124,0.310305 0.33052,0.589334 0.367548,0.620063 0.108838,0.09033 3.354242,0.133119 5.098666,0.06723 z"
       id="path2860" />
  </g>
</svg>
