<?xml version="1.0" encoding="UTF-8" standalone="no"?>
<svg
   xmlns:dc="http://purl.org/dc/elements/1.1/"
   xmlns:cc="http://creativecommons.org/ns#"
   xmlns:rdf="http://www.w3.org/1999/02/22-rdf-syntax-ns#"
   xmlns:svg="http://www.w3.org/2000/svg"
   xmlns="http://www.w3.org/2000/svg"
   xmlns:sodipodi="http://sodipodi.sourceforge.net/DTD/sodipodi-0.dtd"
   xmlns:inkscape="http://www.inkscape.org/namespaces/inkscape"
   width="13.229167mm"
   height="13.229167mm"
   viewBox="0 0 13.229169 13.229168"
   version="1.1"
   id="svg8"
   sodipodi:docname="VCS_resized_117.svg"
   inkscape:version="1.0.2-2 (e86c870879, 2021-01-15)">
  <defs
     id="defs2" />
  <sodipodi:namedview
     id="base"
     pagecolor="#ffffff"
     bordercolor="#666666"
     borderopacity="1.0"
     inkscape:pageopacity="0.0"
     inkscape:pageshadow="2"
     inkscape:zoom="2.8284271"
     inkscape:cx="-1.8548348"
     inkscape:cy="56.216193"
     inkscape:document-units="mm"
     inkscape:current-layer="layer1"
     inkscape:document-rotation="0"
     showgrid="false"
     inkscape:window-width="958"
     inkscape:window-height="1008"
     inkscape:window-x="1913"
     inkscape:window-y="0"
     inkscape:window-maximized="0" />
  <metadata
     id="metadata5">
    <rdf:RDF>
      <cc:Work
         rdf:about="">
        <dc:format>image/svg+xml</dc:format>
        <dc:type
           rdf:resource="http://purl.org/dc/dcmitype/StillImage" />
        <dc:title></dc:title>
      </cc:Work>
    </rdf:RDF>
  </metadata>
  <g
     inkscape:label="Ebene 1"
     inkscape:groupmode="layer"
     id="layer1"
     transform="translate(-38.690742,-11.717745)">
    <path
       style="fill:#000000;stroke-width:0.264582"
       d="m 43.40162,24.347547 c -0.42201,-0.108234 -0.804792,-0.219928 -0.850628,-0.24821 -0.04583,-0.02828 -0.504282,-0.500651 -1.01877,-1.04971 -1.068106,-1.139875 -1.294958,-1.495411 -1.344002,-2.106402 -0.03899,-0.485715 0.09397,-0.732502 0.779098,-1.446142 0.655372,-0.68264 0.86442,-0.991617 0.986282,-1.457738 0.08379,-0.320517 0.08377,-0.366041 -4e-4,-0.743282 -0.07426,-0.332727 -0.148588,-0.48747 -0.432108,-0.899583 -1.139724,-1.656655 -1.160446,-1.702357 -1.16143,-2.56148 -6e-4,-0.565009 0.01334,-0.663573 0.12687,-0.894234 0.331604,-0.673701 0.862316,-0.951616 1.479316,-0.774662 0.248626,0.0713 0.889384,0.564997 1.528676,1.177818 0.903582,0.866166 1.381646,1.095746 2.15282,1.033844 0.513594,-0.04123 0.902002,-0.311534 1.8818,-1.309611 0.714164,-0.727488 0.969902,-0.902048 1.375404,-0.938817 0.53781,-0.04877 0.923932,0.21665 1.211154,0.832537 0.121106,0.259687 0.135668,0.3566 0.13516,0.899583 -6e-4,0.588084 -0.0069,0.621884 -0.189754,1.005417 -0.104052,0.218281 -0.315516,0.563562 -0.46992,0.767291 -0.752058,0.992304 -0.969702,1.449306 -0.971518,2.039952 -0.0018,0.563163 0.237414,0.997672 0.969426,1.761385 0.729268,0.76085 0.881798,1.043069 0.830432,1.536525 -0.01856,0.178322 -0.09349,0.446493 -0.166516,0.595936 -0.150794,0.308604 -0.854782,1.150016 -1.668864,1.994632 l -0.552296,0.573014 -0.819366,0.207507 -0.819366,0.207508 -1.112092,-0.0031 c -1.10588,-0.0031 -1.116378,-0.0042 -1.879384,-0.199933 z m 3.7973,-0.271199 0.701674,-0.175952 0.68779,-0.736563 c 1.44944,-1.552229 1.558522,-1.718206 1.524532,-2.319728 -0.02384,-0.421885 -0.07839,-0.512236 -0.746052,-1.235633 -0.907962,-0.98376 -1.115044,-1.438636 -1.003462,-2.204201 0.08359,-0.573493 0.23936,-0.869624 1.152676,-2.1913 0.653462,-0.945637 0.669484,-1.959626 0.03972,-2.513964 -0.20911,-0.184065 -0.276316,-0.213382 -0.48916,-0.213382 -0.423936,0 -0.746318,0.205865 -1.490154,0.951578 -1.037184,1.039802 -1.422698,1.246125 -2.250898,1.204657 -0.784346,-0.03927 -1.15931,-0.250544 -2.19601,-1.237332 -0.909738,-0.865939 -1.541926,-1.10639 -2.027028,-0.770975 -0.121838,0.08424 -0.26515,0.253794 -0.34396,0.406934 -0.118726,0.23071 -0.135098,0.327582 -0.135098,0.799434 0,0.527634 0.0039,0.544578 0.226088,0.980371 0.12435,0.243902 0.381072,0.65777 0.570496,0.919708 0.699564,0.967368 0.973196,1.757389 0.820698,2.369494 -0.10328,0.414553 -0.29423,0.730663 -0.73388,1.214898 -0.722974,0.796294 -0.949622,1.096393 -1.01043,1.337883 -0.07432,0.295149 -0.0034,0.647099 0.202736,1.005492 0.22524,0.391689 1.92269,2.174387 2.134578,2.241778 0.238026,0.0757 1.195868,0.311074 1.388048,0.341085 0.08731,0.01363 0.635,0.01959 1.217084,0.01323 1.002854,-0.01095 1.095116,-0.02078 1.760008,-0.187511 z"
       id="path1914" />
  </g>
</svg>
