<?xml version="1.0" encoding="UTF-8" standalone="no"?>
<svg
   xmlns:dc="http://purl.org/dc/elements/1.1/"
   xmlns:cc="http://creativecommons.org/ns#"
   xmlns:rdf="http://www.w3.org/1999/02/22-rdf-syntax-ns#"
   xmlns:svg="http://www.w3.org/2000/svg"
   xmlns="http://www.w3.org/2000/svg"
   xmlns:sodipodi="http://sodipodi.sourceforge.net/DTD/sodipodi-0.dtd"
   xmlns:inkscape="http://www.inkscape.org/namespaces/inkscape"
   width="13.229167mm"
   height="13.229167mm"
   viewBox="0 0 13.229167 13.229167"
   version="1.1"
   id="svg8"
   sodipodi:docname="VCS_resized_44.svg"
   inkscape:version="1.0.2-2 (e86c870879, 2021-01-15)">
  <defs
     id="defs2" />
  <sodipodi:namedview
     id="base"
     pagecolor="#ffffff"
     bordercolor="#666666"
     borderopacity="1.0"
     inkscape:pageopacity="0.0"
     inkscape:pageshadow="2"
     inkscape:zoom="2.8284271"
     inkscape:cx="-5.0363952"
     inkscape:cy="59.038694"
     inkscape:document-units="mm"
     inkscape:current-layer="layer1"
     inkscape:document-rotation="0"
     showgrid="false"
     inkscape:window-width="958"
     inkscape:window-height="1008"
     inkscape:window-x="1913"
     inkscape:window-y="0"
     inkscape:window-maximized="0" />
  <metadata
     id="metadata5">
    <rdf:RDF>
      <cc:Work
         rdf:about="">
        <dc:format>image/svg+xml</dc:format>
        <dc:type
           rdf:resource="http://purl.org/dc/dcmitype/StillImage" />
        <dc:title></dc:title>
      </cc:Work>
    </rdf:RDF>
  </metadata>
  <g
     inkscape:label="Ebene 1"
     inkscape:groupmode="layer"
     id="layer1"
     transform="translate(-39.532532,-10.970958)">
    <path
       style="fill:#000000;stroke-width:0.264582"
       d="m 42.756761,22.476282 c -0.374642,-0.08658 -0.572288,-0.245165 -0.745728,-0.59836 -0.310854,-0.633027 -0.133676,-1.32795 0.532084,-2.086924 0.718192,-0.818747 0.89308,-1.160649 0.901028,-1.761486 0.0081,-0.610861 -0.148002,-0.906195 -0.80978,-1.53225 -0.949122,-0.897886 -1.208358,-1.181165 -1.354762,-1.480405 -0.163584,-0.334354 -0.214548,-0.651645 -0.161494,-1.005435 0.08993,-0.599718 0.743644,-0.902759 1.547254,-0.717259 0.282946,0.06531 0.809986,0.370516 1.177566,0.681916 1.046092,0.886207 1.724942,1.155405 2.364288,0.937557 0.3995,-0.136123 0.605796,-0.310044 1.232744,-1.039284 0.715822,-0.832614 1.090956,-1.11145 1.632904,-1.213735 0.320326,-0.06046 0.707788,0.01927 0.906592,0.186556 0.08259,0.0695 0.20319,0.249619 0.268,0.400275 0.09833,0.228581 0.114826,0.349215 0.09965,0.728825 -0.02296,0.574061 -0.146006,0.837734 -0.730886,1.566155 -1.198818,1.493032 -1.13437,2.293107 0.276096,3.427551 0.744242,0.598595 1.064222,0.968165 1.20529,1.392074 0.218798,0.657487 0.07597,1.089366 -0.451192,1.364292 -0.25719,0.134131 -0.394584,0.169171 -0.723312,0.184471 -0.483938,0.02252 -0.665398,-0.03662 -1.63148,-0.53178 -0.971222,-0.497792 -1.625308,-0.619919 -2.257472,-0.421501 -0.385978,0.121147 -0.771006,0.370557 -1.3117,0.84968 -0.567542,0.502912 -0.965564,0.7116 -1.378536,0.722784 -0.174624,0.0047 -0.438842,-0.01944 -0.58715,-0.05372 z m 1.112454,-0.349467 c 0.12407,-0.06196 0.425724,-0.291681 0.670346,-0.510485 0.85846,-0.767857 1.309968,-0.985055 2.058726,-0.990348 0.590918,-0.0042 0.972012,0.103552 1.71979,0.486155 0.261938,0.134021 0.595314,0.304687 0.740834,0.379257 0.222608,0.114071 0.336214,0.13565 0.71609,0.136016 0.771434,7.4e-4 1.109536,-0.247468 1.109536,-0.814549 0,-0.517126 -0.27202,-0.891314 -1.223758,-1.683398 -0.573634,-0.477407 -0.812024,-0.750872 -1.004996,-1.152868 -0.18429,-0.383903 -0.200452,-0.762532 -0.0528,-1.236932 0.129716,-0.416776 0.277596,-0.663088 0.792756,-1.320426 0.574068,-0.732501 0.710426,-1.020338 0.707464,-1.493375 -0.0039,-0.629798 -0.238938,-0.931765 -0.767576,-0.986325 -0.253552,-0.02617 -0.341792,-0.0099 -0.57897,0.106718 -0.397748,0.195574 -0.620956,0.396468 -1.106054,0.995482 -0.696116,0.859584 -1.145134,1.159256 -1.795204,1.19811 -0.345446,0.02065 -0.448314,0.0042 -0.76729,-0.122482 -0.432196,-0.171684 -0.674656,-0.329131 -1.320862,-0.857731 -0.651506,-0.532936 -1.057472,-0.728579 -1.507012,-0.726256 -0.581484,0.003 -0.900134,0.273901 -0.900458,0.765509 -4e-4,0.480632 0.378356,1.040194 1.163928,1.719936 0.474008,0.410153 0.874648,0.890801 1.066632,1.279645 0.148538,0.300849 0.160022,0.362839 0.142134,0.767292 -0.02277,0.514818 -0.198464,0.931297 -0.598596,1.41896 -0.460968,0.561806 -0.675884,0.860227 -0.832794,1.156378 -0.14153,0.26712 -0.155752,0.336199 -0.134028,0.650987 0.02626,0.380525 0.1699,0.685605 0.37431,0.795002 0.39598,0.211923 0.949886,0.228495 1.327854,0.03973 z"
       id="path714" />
  </g>
</svg>
