<?xml version="1.0" encoding="UTF-8" standalone="no"?>
<svg
   xmlns:dc="http://purl.org/dc/elements/1.1/"
   xmlns:cc="http://creativecommons.org/ns#"
   xmlns:rdf="http://www.w3.org/1999/02/22-rdf-syntax-ns#"
   xmlns:svg="http://www.w3.org/2000/svg"
   xmlns="http://www.w3.org/2000/svg"
   xmlns:sodipodi="http://sodipodi.sourceforge.net/DTD/sodipodi-0.dtd"
   xmlns:inkscape="http://www.inkscape.org/namespaces/inkscape"
   width="13.229167mm"
   height="13.229167mm"
   viewBox="0 0 13.229167 13.229167"
   version="1.1"
   id="svg8"
   sodipodi:docname="VCS_resized_67.svg"
   inkscape:version="1.0.2-2 (e86c870879, 2021-01-15)">
  <defs
     id="defs2" />
  <sodipodi:namedview
     id="base"
     pagecolor="#ffffff"
     bordercolor="#666666"
     borderopacity="1.0"
     inkscape:pageopacity="0.0"
     inkscape:pageshadow="2"
     inkscape:zoom="2.8284271"
     inkscape:cx="20.843158"
     inkscape:cy="56.262212"
     inkscape:document-units="mm"
     inkscape:current-layer="layer1"
     inkscape:document-rotation="0"
     showgrid="false"
     inkscape:window-width="958"
     inkscape:window-height="1008"
     inkscape:window-x="1913"
     inkscape:window-y="0"
     inkscape:window-maximized="0" />
  <metadata
     id="metadata5">
    <rdf:RDF>
      <cc:Work
         rdf:about="">
        <dc:format>image/svg+xml</dc:format>
        <dc:type
           rdf:resource="http://purl.org/dc/dcmitype/StillImage" />
        <dc:title></dc:title>
      </cc:Work>
    </rdf:RDF>
  </metadata>
  <g
     inkscape:label="Ebene 1"
     inkscape:groupmode="layer"
     id="layer1"
     transform="translate(-32.685234,-11.705568)">
    <path
       style="fill:#000000;stroke-width:0.264582"
       d="m 35.737242,23.379838 c -0.74458,-0.260792 -1.16962,-0.777058 -1.189596,-1.444914 -0.01456,-0.487066 0.225748,-0.90211 0.91788,-1.585247 0.668504,-0.659819 0.917578,-1.024725 1.012226,-1.48297 0.135368,-0.655383 -0.14985,-1.270493 -1.020548,-2.200943 -0.553474,-0.591457 -0.73466,-0.824952 -0.91006,-1.1728 -0.252482,-0.500715 -0.262396,-1.231131 -0.02287,-1.6847 0.293808,-0.556353 0.98885,-0.719231 1.68139,-0.394022 0.289278,0.135841 0.474352,0.294324 1.164168,0.996901 0.98911,1.007411 1.213698,1.145612 1.852082,1.139689 0.580286,-0.0054 0.894532,-0.169994 1.389078,-0.727635 0.757256,-0.853871 1.270578,-1.333924 1.595072,-1.491693 0.681058,-0.33113 1.35016,-0.13156 1.65755,0.49439 0.13126,0.267289 0.147258,0.357364 0.147258,0.829037 0,0.760637 -0.126062,1.012519 -1.006394,2.010833 -0.749372,0.849803 -0.952684,1.274895 -0.912814,1.908555 0.03149,0.500412 0.20283,0.805115 0.747848,1.329904 0.235786,0.227035 0.578802,0.561304 0.762258,0.742819 0.558958,0.553043 0.755802,1.128908 0.59,1.726034 -0.07725,0.278208 -0.421842,0.636738 -0.78195,0.813584 -0.272758,0.133948 -0.348782,0.146376 -0.880614,0.143954 -0.419194,-0.002 -0.700548,-0.03419 -1.005416,-0.115356 -0.75638,-0.201372 -1.809016,-0.34877 -2.247812,-0.314754 -0.218912,0.01698 -0.872462,0.15105 -1.452336,0.297954 -1.153472,0.292218 -1.64737,0.335154 -2.086404,0.18138 z m 1.182802,-0.252454 c 0.174624,-0.03926 0.650874,-0.158516 1.058332,-0.26501 1.269752,-0.331866 1.779114,-0.31497 3.862918,0.128132 0.654452,0.139164 1.061072,0.119596 1.429782,-0.06881 0.490394,-0.250584 0.680376,-0.52625 0.683292,-0.991464 0.0026,-0.421374 -0.177856,-0.690754 -1.030352,-1.537742 -0.880026,-0.87434 -1.071126,-1.195814 -1.1012,-1.852476 -0.0305,-0.66586 0.238072,-1.209938 1.0819,-2.19175 0.284448,-0.330961 0.579606,-0.739248 0.684156,-0.94638 0.159172,-0.315346 0.183724,-0.414894 0.182718,-0.740834 -0.0033,-1.077684 -0.832276,-1.483377 -1.765246,-0.86392 -0.176932,0.117476 -0.481964,0.424156 -0.79052,0.794792 -0.554032,0.665497 -0.81697,0.901856 -1.253072,1.126402 -0.253576,0.130564 -0.349706,0.149798 -0.746746,0.14941 -0.772666,-7.6e-4 -1.034106,-0.174038 -2.351702,-1.558704 -0.503586,-0.529221 -0.87021,-0.738891 -1.292004,-0.738891 -0.392266,0 -0.607616,0.109816 -0.798312,0.407093 -0.15117,0.235658 -0.161928,0.28364 -0.146266,0.65239 0.02435,0.573237 0.213682,0.923568 0.94313,1.745101 0.967856,1.090035 1.18766,1.500977 1.189374,2.223613 0.0016,0.663205 -0.160008,0.961215 -1.005208,1.85397 -0.792584,0.837179 -0.95545,1.122352 -0.899002,1.574136 0.04372,0.349946 0.211692,0.62321 0.518302,0.843204 0.44492,0.319232 0.919928,0.398436 1.545726,0.257738 z"
       id="path1098" />
  </g>
</svg>
