<?xml version="1.0" encoding="UTF-8" standalone="no"?>
<svg
   xmlns:dc="http://purl.org/dc/elements/1.1/"
   xmlns:cc="http://creativecommons.org/ns#"
   xmlns:rdf="http://www.w3.org/1999/02/22-rdf-syntax-ns#"
   xmlns:svg="http://www.w3.org/2000/svg"
   xmlns="http://www.w3.org/2000/svg"
   xmlns:sodipodi="http://sodipodi.sourceforge.net/DTD/sodipodi-0.dtd"
   xmlns:inkscape="http://www.inkscape.org/namespaces/inkscape"
   width="13.229167mm"
   height="13.229167mm"
   viewBox="0 0 13.229169 13.229168"
   version="1.1"
   id="svg8"
   sodipodi:docname="VCS_resized_222.svg"
   inkscape:version="1.0.2-2 (e86c870879, 2021-01-15)">
  <defs
     id="defs2" />
  <sodipodi:namedview
     id="base"
     pagecolor="#ffffff"
     bordercolor="#666666"
     borderopacity="1.0"
     inkscape:pageopacity="0.0"
     inkscape:pageshadow="2"
     inkscape:zoom="2.8284271"
     inkscape:cx="8.6046291"
     inkscape:cy="56.045997"
     inkscape:document-units="mm"
     inkscape:current-layer="layer1"
     inkscape:document-rotation="0"
     showgrid="false"
     inkscape:window-width="958"
     inkscape:window-height="1008"
     inkscape:window-x="1913"
     inkscape:window-y="0"
     inkscape:window-maximized="0" />
  <metadata
     id="metadata5">
    <rdf:RDF>
      <cc:Work
         rdf:about="">
        <dc:format>image/svg+xml</dc:format>
        <dc:type
           rdf:resource="http://purl.org/dc/dcmitype/StillImage" />
        <dc:title></dc:title>
      </cc:Work>
    </rdf:RDF>
  </metadata>
  <g
     inkscape:label="Ebene 1"
     inkscape:groupmode="layer"
     id="layer1"
     transform="translate(-46.28672,-15.851666)">
    <path
       style="fill:#000000;stroke-width:0.264582"
       d="m 48.923145,28.603968 c -0.05821,-0.05821 -0.105834,-0.150464 -0.105834,-0.205011 0,-0.110091 -0.416154,-1.525553 -0.702058,-2.387906 -0.101316,-0.305594 -0.21331,-0.722312 -0.248878,-0.926042 -0.03557,-0.203729 -0.12131,-0.572823 -0.19054,-0.820208 -0.06923,-0.247385 -0.20026,-0.723635 -0.291176,-1.058333 -0.09091,-0.334698 -0.292148,-0.931658 -0.447186,-1.326578 -0.367508,-0.93613 -0.48065,-1.363158 -0.385834,-1.456231 0.08984,-0.08819 1.027888,-0.609115 2.265672,-1.258199 1.039304,-0.545002 1.490302,-0.854789 2.675696,-1.837912 1.205442,-0.999749 1.341246,-1.106112 1.41137,-1.10541 0.07306,7.32e-4 0.4169,0.270294 1.54856,1.214033 1.213588,1.012063 1.61662,1.267698 3.757084,2.383038 0.407458,0.212316 0.820342,0.445009 0.917522,0.517096 0.160754,0.119247 0.173454,0.148395 0.140814,0.323219 -0.01972,0.105684 -0.144508,0.465996 -0.277282,0.800694 -0.296498,0.747406 -0.382416,1.020977 -0.648158,2.06375 -0.40012,1.57008 -0.629166,2.4107 -0.785802,2.883958 -0.188354,0.56909 -0.506364,1.605418 -0.587904,1.915848 -0.109802,0.418033 0.22857,0.386027 -4.081096,0.386027 -3.788582,0 -3.861072,-0.0019 -3.96497,-0.105833 z m 7.709482,-0.224896 c 0.110364,-0.170522 0.854192,-2.668448 1.23302,-4.140729 0.401412,-1.560059 0.569048,-2.103943 0.945968,-3.069167 0.09092,-0.232833 0.1654,-0.472651 0.165504,-0.532928 2e-4,-0.124713 -0.2764,-0.288634 -1.825432,-1.081727 -0.523876,-0.26822 -1.035844,-0.536909 -1.137708,-0.597086 -0.407062,-0.240476 -1.132306,-0.791218 -2.052398,-1.558571 -0.532184,-0.443839 -0.99927,-0.806979 -1.037968,-0.806979 -0.08457,0 -0.161956,0.05891 -1.131744,0.861595 -1.402156,1.160549 -1.698276,1.356813 -3.280076,2.17399 -1.733642,0.895619 -1.705314,0.879026 -1.705314,0.998909 0,0.112165 0.234828,0.794721 0.490096,1.424523 0.2468,0.608905 0.731742,2.335762 0.83719,2.981191 0.03328,0.203729 0.151036,0.64426 0.26167,0.978958 0.231764,0.701141 0.537006,1.70555 0.63522,2.090208 0.03716,0.145521 0.0772,0.282443 0.08898,0.304271 0.01178,0.02183 1.697394,0.03969 3.745802,0.03969 2.921392,0 3.733608,-0.01426 3.76719,-0.06615 z"
       id="path4451" />
  </g>
</svg>
