<?xml version="1.0" encoding="UTF-8" standalone="no"?>
<svg
   xmlns:dc="http://purl.org/dc/elements/1.1/"
   xmlns:cc="http://creativecommons.org/ns#"
   xmlns:rdf="http://www.w3.org/1999/02/22-rdf-syntax-ns#"
   xmlns:svg="http://www.w3.org/2000/svg"
   xmlns="http://www.w3.org/2000/svg"
   xmlns:sodipodi="http://sodipodi.sourceforge.net/DTD/sodipodi-0.dtd"
   xmlns:inkscape="http://www.inkscape.org/namespaces/inkscape"
   width="13.229167mm"
   height="13.229167mm"
   viewBox="0 0 13.229169 13.229168"
   version="1.1"
   id="svg8"
   sodipodi:docname="VCS_resized_358.svg"
   inkscape:version="1.0.2-2 (e86c870879, 2021-01-15)">
  <defs
     id="defs2" />
  <sodipodi:namedview
     id="base"
     pagecolor="#ffffff"
     bordercolor="#666666"
     borderopacity="1.0"
     inkscape:pageopacity="0.0"
     inkscape:pageshadow="2"
     inkscape:zoom="4"
     inkscape:cx="12.805549"
     inkscape:cy="-3.1603596"
     inkscape:document-units="mm"
     inkscape:current-layer="layer1"
     inkscape:document-rotation="0"
     showgrid="false"
     inkscape:window-width="958"
     inkscape:window-height="1008"
     inkscape:window-x="1913"
     inkscape:window-y="0"
     inkscape:window-maximized="0" />
  <metadata
     id="metadata5">
    <rdf:RDF>
      <cc:Work
         rdf:about="">
        <dc:format>image/svg+xml</dc:format>
        <dc:type
           rdf:resource="http://purl.org/dc/dcmitype/StillImage" />
        <dc:title></dc:title>
      </cc:Work>
    </rdf:RDF>
  </metadata>
  <g
     inkscape:label="Ebene 1"
     inkscape:groupmode="layer"
     id="layer1"
     transform="translate(-94.485458,7.5870409)">
    <path
       style="fill:#000000;stroke-width:0.264582"
       d="m 99.837027,4.6866728 c -0.0505,-0.05046 -0.14578,-0.2111946 -0.21182,-0.3571876 -0.21365,-0.4722886 -0.28984,-1.0222436 -0.31509,-2.2741096 -0.01294,-0.6414828 -0.05337,-1.31996822 -0.08986,-1.50774562 -0.08381,-0.4313619 -0.111462,-0.4519825 -1.627376,-1.2136867 -1.289456,-0.64791418 -1.270946,-0.63782298 -1.77271,-0.96642278 -0.665068,-0.435547 -0.735634,-0.606622 -0.323088,-0.7832762 0.474974,-0.2033874 0.945736,-0.2819264 2.069338,-0.3452374 1.501132,-0.084584 1.937656,-0.1225354 2.196046,-0.1909286 0.242223,-0.064112 0.408313,-0.312474 0.995833,-1.4890299 0.45675,-0.9146808 0.83457,-1.4977522 1.32812,-2.0495802 0.3173,-0.3547758 0.35679,-0.3350352 0.55118,0.2755568 0.19795,0.6217358 0.24678,0.9302872 0.24821,1.5682204 0.002,0.6961002 0.0762,1.6880955 0.15856,2.1066605 0.0616,0.3128604 0.065,0.3172592 0.41415,0.5315384 0.19364,0.1188366 0.71346,0.3947054 1.15515,0.6130418 0.92291,0.45621778 1.20895,0.61504558 1.57817,0.87633278 0.4766,0.3372664 0.7673,0.6028706 0.7673,0.7010575 0,0.256974 -0.95538,0.5096912 -2.09021,0.552902 -0.90466,0.034447 -2.0259,0.1507658 -2.30689,0.2393204 -0.26546,0.08366 -0.42772,0.34458102 -1.14824,1.84640322 -0.14662,0.3055938 -0.36679,0.7098304 -0.48927,0.8983042 -0.21462,0.330235 -0.87219,1.0596126 -0.955303,1.0596126 -0.0222,0 -0.0817,-0.04129 -0.1322,-0.09175 z m 0.459353,-0.5686976 c 0.33755,-0.360145 0.45317,-0.5500052 1.01313,-1.6636608 0.67967,-1.3517436 0.85978,-1.63010482 1.09879,-1.69820742 0.29795,-0.084896 1.38261,-0.2040234 2.38125,-0.2615318 0.85396,-0.049176 1.21939,-0.108441 1.60073,-0.2596032 0.18614,-0.073784 0.183,-0.1101901 -0.0265,-0.3068353 -0.28799,-0.2703782 -0.63996,-0.482864 -1.53642,-0.9275594 -0.47193,-0.23410438 -1.09992,-0.56783378 -1.39554,-0.74162058 l -0.53749,-0.3159756 -0.09,-0.4584272 c -0.0539,-0.2747458 -0.10769,-0.9248826 -0.13421,-1.6225937 -0.0433,-1.137825 -0.0681,-1.3522932 -0.2097,-1.8130242 -0.10753,-0.349747 -0.1652,-0.3643516 -0.41859,-0.1059942 -0.28569,0.2912878 -0.62701,0.8602492 -1.16411,1.9405218 -0.36221,0.7285269 -0.54766,1.0407241 -0.79657,1.3409917 -0.0524,0.063164 -1.126097,0.1878178 -1.932735,0.2243778 -1.727356,0.078292 -2.624566,0.2533338 -2.470826,0.4820486 0.09442,0.140462 0.981332,0.6571272 1.94166,1.13109698 1.005858,0.496442 1.664638,0.8748136 1.742508,1.0008076 0.083,0.1343159 0.14259,0.7468083 0.18847,1.93750732 0.0479,1.2442846 0.1152,1.755746 0.284,2.1597388 0.0448,0.107279 0.11712,0.1950528 0.16066,0.1950528 0.0435,0 0.179173,-0.1066994 0.301403,-0.23711 z"
       id="path6649" />
  </g>
</svg>
