<?xml version="1.0" encoding="UTF-8" standalone="no"?>
<svg
   xmlns:dc="http://purl.org/dc/elements/1.1/"
   xmlns:cc="http://creativecommons.org/ns#"
   xmlns:rdf="http://www.w3.org/1999/02/22-rdf-syntax-ns#"
   xmlns:svg="http://www.w3.org/2000/svg"
   xmlns="http://www.w3.org/2000/svg"
   xmlns:sodipodi="http://sodipodi.sourceforge.net/DTD/sodipodi-0.dtd"
   xmlns:inkscape="http://www.inkscape.org/namespaces/inkscape"
   width="13.229167mm"
   height="13.229167mm"
   viewBox="0 0 13.229167 13.229167"
   version="1.1"
   id="svg8"
   sodipodi:docname="VCS_resized_95.svg"
   inkscape:version="1.0.2-2 (e86c870879, 2021-01-15)">
  <defs
     id="defs2" />
  <sodipodi:namedview
     id="base"
     pagecolor="#ffffff"
     bordercolor="#666666"
     borderopacity="1.0"
     inkscape:pageopacity="0.0"
     inkscape:pageshadow="2"
     inkscape:zoom="2.8284271"
     inkscape:cx="-13.857896"
     inkscape:cy="40.151897"
     inkscape:document-units="mm"
     inkscape:current-layer="layer1"
     inkscape:document-rotation="0"
     showgrid="false"
     inkscape:window-width="958"
     inkscape:window-height="1008"
     inkscape:window-x="1913"
     inkscape:window-y="0"
     inkscape:window-maximized="0" />
  <metadata
     id="metadata5">
    <rdf:RDF>
      <cc:Work
         rdf:about="">
        <dc:format>image/svg+xml</dc:format>
        <dc:type
           rdf:resource="http://purl.org/dc/dcmitype/StillImage" />
        <dc:title></dc:title>
      </cc:Work>
    </rdf:RDF>
  </metadata>
  <g
     inkscape:label="Ebene 1"
     inkscape:groupmode="layer"
     id="layer1"
     transform="translate(-41.866554,-15.96809)">
    <path
       style="fill:#000000;stroke-width:0.264582"
       d="m 46.761053,28.360479 c -1.587846,-0.280178 -2.638106,-0.905702 -3.1232,-1.860142 -0.19523,-0.384122 -0.210624,-0.578276 -0.07755,-0.978152 0.107284,-0.322384 0.173966,-0.410922 0.789416,-1.048132 1.05318,-1.090414 1.280042,-1.48925 1.198168,-2.106442 -0.07325,-0.55216 -0.297106,-0.949776 -1.082828,-1.923308 -0.967182,-1.198369 -1.175656,-2.070327 -0.723468,-3.025967 0.157292,-0.332413 0.215284,-0.400909 0.46196,-0.54563 0.259018,-0.15196 0.310942,-0.163349 0.634866,-0.139253 0.548762,0.04082 0.973748,0.341853 1.66103,1.176556 0.919604,1.116858 1.281668,1.367041 1.979798,1.368021 0.688506,9.6e-4 0.982992,-0.199358 1.91036,-1.299523 0.529836,-0.628562 0.919536,-1.007521 1.169082,-1.136858 0.07753,-0.04018 0.271318,-0.08838 0.430642,-0.107106 0.89863,-0.105616 1.558688,0.879989 1.362016,2.033774 -0.08519,0.499791 -0.407944,1.113274 -0.881728,1.675986 -0.783236,0.93024 -1.10481,1.539432 -1.10481,2.092952 0,0.483052 0.278654,0.975834 0.88177,1.559362 0.866782,0.838626 0.927252,0.906962 1.082108,1.222846 0.319192,0.65111 0.166966,1.20055 -0.5094,1.8386 -0.654098,0.617044 -1.224892,0.927814 -1.957186,1.065598 -0.247386,0.04655 -0.545042,0.109712 -0.661458,0.140368 -0.116418,0.03066 -0.818886,0.06341 -1.561042,0.07278 -1.109912,0.01402 -1.443282,4e-4 -1.878542,-0.07633 z m 3.65125,-0.353756 c 1.282624,-0.245992 2.285804,-0.887394 2.657394,-1.699052 0.243008,-0.5308 0.07049,-0.909688 -0.802446,-1.762328 -0.531696,-0.519332 -0.8876,-1.006126 -1.035828,-1.416764 -0.27626,-0.765326 0.01512,-1.653452 0.896232,-2.73176 0.730706,-0.894236 0.971352,-1.412802 0.964834,-2.079119 -0.0092,-0.941374 -0.6399,-1.460824 -1.370834,-1.129048 -0.371632,0.168687 -0.567724,0.350668 -1.211362,1.124192 -0.643494,0.773352 -0.869386,0.975676 -1.327898,1.189357 -0.285508,0.133055 -0.811444,0.174099 -1.15846,0.09041 -0.502048,-0.121083 -0.971612,-0.517016 -1.740038,-1.467187 -0.597038,-0.738248 -1.057178,-1.041326 -1.580962,-1.041326 -0.506262,0 -0.899632,0.542746 -0.89734,1.238094 0.0021,0.636765 0.25432,1.148121 1.072808,2.175031 0.753796,0.945742 1.068124,1.838276 0.877874,2.492712 -0.143358,0.493134 -0.2444,0.644036 -0.899842,1.343874 -1.047422,1.118366 -1.205258,1.447852 -0.955218,1.994012 0.193424,0.422496 0.339142,0.597236 0.753804,0.903944 0.693428,0.512898 1.643436,0.821082 2.820408,0.914944 0.870416,0.06941 2.167398,0.0076 2.936874,-0.139982 z"
       id="path1562" />
  </g>
</svg>
