<?xml version="1.0" encoding="UTF-8" standalone="no"?>
<svg
   xmlns:dc="http://purl.org/dc/elements/1.1/"
   xmlns:cc="http://creativecommons.org/ns#"
   xmlns:rdf="http://www.w3.org/1999/02/22-rdf-syntax-ns#"
   xmlns:svg="http://www.w3.org/2000/svg"
   xmlns="http://www.w3.org/2000/svg"
   xmlns:sodipodi="http://sodipodi.sourceforge.net/DTD/sodipodi-0.dtd"
   xmlns:inkscape="http://www.inkscape.org/namespaces/inkscape"
   width="13.229167mm"
   height="13.229167mm"
   viewBox="0 0 13.229169 13.229168"
   version="1.1"
   id="svg8"
   sodipodi:docname="VCS_resized_334.svg"
   inkscape:version="1.0.2-2 (e86c870879, 2021-01-15)">
  <defs
     id="defs2" />
  <sodipodi:namedview
     id="base"
     pagecolor="#ffffff"
     bordercolor="#666666"
     borderopacity="1.0"
     inkscape:pageopacity="0.0"
     inkscape:pageshadow="2"
     inkscape:zoom="4"
     inkscape:cx="24.577855"
     inkscape:cy="19.927875"
     inkscape:document-units="mm"
     inkscape:current-layer="layer1"
     inkscape:document-rotation="0"
     showgrid="false"
     inkscape:window-width="958"
     inkscape:window-height="1008"
     inkscape:window-x="1913"
     inkscape:window-y="0"
     inkscape:window-maximized="0" />
  <metadata
     id="metadata5">
    <rdf:RDF>
      <cc:Work
         rdf:about="">
        <dc:format>image/svg+xml</dc:format>
        <dc:type
           rdf:resource="http://purl.org/dc/dcmitype/StillImage" />
        <dc:title></dc:title>
      </cc:Work>
    </rdf:RDF>
  </metadata>
  <g
     inkscape:label="Ebene 1"
     inkscape:groupmode="layer"
     id="layer1"
     transform="translate(-91.370705,13.695805)">
    <path
       style="fill:#000000;stroke-width:0.264582"
       d="m 97.307903,-1.4640368 c -0.385836,-0.4024402 -0.766262,-0.854791 -0.917264,-1.0906834 -0.06151,-0.096097 -0.13262,-0.4943328 -0.228072,-1.2773374 -0.199914,-1.6399426 -0.103438,-1.4534796 -0.96555,-1.8661508 -0.400306,-0.191617 -0.91833,-0.4358126 -1.151164,-0.5426572 -0.232834,-0.1068446 -0.857912,-0.4067164 -1.389062,-0.6663822 -1.187984,-0.5807736 -1.200916,-0.6048206 -0.449792,-0.8364554 0.283766,-0.087509 0.777876,-0.2202608 1.09802,-0.2950046 1.697758,-0.3963706 2.990228,-0.7310982 3.033056,-0.7855082 0.02658,-0.033761 0.208976,-0.4661958 0.405336,-0.9609666 0.403952,-1.0178424 0.994824,-2.4174914 1.245408,-2.9501044 0.297856,-0.633086 0.358504,-0.542763 1.003736,1.494896 0.17971,0.567531 0.434122,1.3700094 0.565362,1.7832842 0.131238,0.413275 0.266306,0.7731204 0.30015,0.7996566 0.03385,0.026536 0.823533,0.3057388 1.754873,0.6204506 1.90821,0.644815 2.63816,0.9326774 2.66239,1.0499418 0.0106,0.051067 -0.0663,0.1174502 -0.21167,0.1829382 -0.72437,0.3262344 -1.42231,0.6155066 -1.8787,0.7786592 -1.24793,0.446116 -2.201589,0.8452756 -2.266363,0.9485964 -0.03693,0.058904 -0.17837,0.641087 -0.314312,1.29374 -0.146818,0.7048526 -0.283376,1.2322788 -0.336344,1.2990448 -0.500774,0.6312346 -1.325932,1.4036882 -1.499458,1.4036882 -0.05102,0 -0.25828,-0.1726406 -0.46058,-0.3836458 z m 1.15008,-0.5047514 c 0.311514,-0.3139938 0.594386,-0.6414156 0.628606,-0.7276042 0.03422,-0.086189 0.159194,-0.6020324 0.277724,-1.146319 0.118528,-0.5442866 0.250232,-1.1065446 0.292674,-1.2494624 l 0.07717,-0.2598506 0.648353,-0.2529358 c 0.35659,-0.1391148 1.04125,-0.4016486 1.52147,-0.583409 0.95715,-0.3622754 1.74731,-0.6943692 1.81802,-0.764089 0.0685,-0.067496 -0.25504,-0.1925384 -2.18844,-0.8459274 -0.97499,-0.3294962 -1.813041,-0.637476 -1.862341,-0.6843988 -0.08609,-0.081938 -0.202734,-0.423008 -0.861648,-2.5194816 -0.353236,-1.123891 -0.513762,-1.561042 -0.573234,-1.561042 -0.05877,0 -0.380538,0.696414 -0.79459,1.719792 -0.758382,1.8744236 -0.88202,2.1654014 -0.94696,2.2286278 -0.05954,0.057967 -1.001088,0.304846 -3.26914,0.8571844 -0.772064,0.1880208 -0.9525,0.250474 -0.9525,0.329684 0,0.056146 0.83825,0.4730174 2.751666,1.3684376 0.509324,0.2383474 0.97804,0.4739054 1.041592,0.5234624 0.1231,0.09599 0.20659,0.5014642 0.334534,1.6246872 0.152982,1.343055 0.101622,1.1855946 0.564118,1.7294648 0.506498,0.5956168 0.702434,0.7805022 0.829294,0.7825258 0.05466,8.8e-4 0.345294,-0.2484734 0.663634,-0.5693462 z"
       id="path6263" />
  </g>
</svg>
