<?xml version="1.0" encoding="UTF-8" standalone="no"?>
<svg
   xmlns:dc="http://purl.org/dc/elements/1.1/"
   xmlns:cc="http://creativecommons.org/ns#"
   xmlns:rdf="http://www.w3.org/1999/02/22-rdf-syntax-ns#"
   xmlns:svg="http://www.w3.org/2000/svg"
   xmlns="http://www.w3.org/2000/svg"
   xmlns:sodipodi="http://sodipodi.sourceforge.net/DTD/sodipodi-0.dtd"
   xmlns:inkscape="http://www.inkscape.org/namespaces/inkscape"
   width="13.229167mm"
   height="13.229167mm"
   viewBox="0 0 13.229169 13.229168"
   version="1.1"
   id="svg8"
   sodipodi:docname="VCS_resized_184.svg"
   inkscape:version="1.0.2-2 (e86c870879, 2021-01-15)">
  <defs
     id="defs2" />
  <sodipodi:namedview
     id="base"
     pagecolor="#ffffff"
     bordercolor="#666666"
     borderopacity="1.0"
     inkscape:pageopacity="0.0"
     inkscape:pageshadow="2"
     inkscape:zoom="2.8284271"
     inkscape:cx="5.0616953"
     inkscape:cy="32.962469"
     inkscape:document-units="mm"
     inkscape:current-layer="layer1"
     inkscape:document-rotation="0"
     showgrid="false"
     inkscape:window-width="958"
     inkscape:window-height="1008"
     inkscape:window-x="1913"
     inkscape:window-y="0"
     inkscape:window-maximized="0" />
  <metadata
     id="metadata5">
    <rdf:RDF>
      <cc:Work
         rdf:about="">
        <dc:format>image/svg+xml</dc:format>
        <dc:type
           rdf:resource="http://purl.org/dc/dcmitype/StillImage" />
        <dc:title></dc:title>
      </cc:Work>
    </rdf:RDF>
  </metadata>
  <g
     inkscape:label="Ebene 1"
     inkscape:groupmode="layer"
     id="layer1"
     transform="translate(-47.224121,-21.959181)">
    <path
       style="fill:#000000;stroke-width:0.264582"
       d="m 50.488432,34.47621 c -0.04706,-0.052 -0.240408,-0.394492 -0.429666,-0.761095 -0.189258,-0.366603 -0.46696,-0.889605 -0.617118,-1.162227 -0.839664,-1.524469 -0.920376,-1.714031 -1.001194,-2.351472 -0.06144,-0.484568 -4e-5,-1.016363 0.183206,-1.586852 0.07713,-0.240129 0.148028,-0.613062 0.165402,-0.87006 0.03318,-0.490869 -0.02323,-0.76159 -0.34385,-1.650154 -0.106878,-0.2962 -0.177486,-0.610901 -0.198654,-0.885413 l -0.03284,-0.425883 0.364958,-0.350556 c 0.820362,-0.787988 1.479898,-1.114347 2.666834,-1.319632 0.276488,-0.04782 0.883708,-0.171692 1.349374,-0.275272 1.447696,-0.322015 1.31309,-0.311777 1.96286,-0.149293 0.317426,0.07938 0.763844,0.216214 0.992036,0.304081 0.34078,0.131222 0.534558,0.167611 1.08479,0.203712 0.368444,0.02417 0.742726,0.06627 0.83174,0.09354 0.427838,0.131084 1.15906,0.612707 1.632144,1.075022 l 0.365236,0.356923 -0.03021,0.466374 c -0.03005,0.463819 -0.0537,0.552358 -0.336522,1.260095 -0.13349,0.334038 -0.147964,0.432779 -0.147376,1.005416 6e-4,0.559457 0.02025,0.698816 0.165404,1.171418 0.21485,0.699533 0.252896,1.031271 0.173134,1.509621 -0.0914,0.548125 -0.254924,0.95124 -0.779462,1.921465 -0.252126,0.466352 -0.604482,1.133663 -0.783016,1.482913 -0.438756,0.858304 -0.508302,0.968518 -0.632144,1.0018 -0.05859,0.01575 -1.549446,0.02896 -3.313012,0.02935 -3.012186,6.8e-4 -3.211672,-0.005 -3.292048,-0.09382 z m 6.495262,-0.220197 c 0.05075,-0.04214 0.220374,-0.32789 0.376952,-0.635 0.283448,-0.555958 0.54853,-1.056273 1.067158,-2.014165 0.14987,-0.276804 0.345382,-0.720848 0.434472,-0.986763 0.206004,-0.614881 0.21285,-1.023455 0.02873,-1.714208 -0.289012,-1.084254 -0.30271,-1.197981 -0.214972,-1.784779 0.04798,-0.320881 0.15445,-0.724239 0.26761,-1.013829 0.12632,-0.323272 0.198988,-0.61179 0.22167,-0.880108 l 0.03374,-0.399177 -0.232918,-0.239157 c -0.256498,-0.263368 -0.988848,-0.767183 -1.34273,-0.923721 -0.126094,-0.05578 -0.46892,-0.124601 -0.775212,-0.155626 -0.653724,-0.06622 -0.977798,-0.130612 -1.369352,-0.272101 -0.160072,-0.05784 -0.562286,-0.175134 -0.893806,-0.260647 -0.665086,-0.171552 -0.62943,-0.172889 -1.619736,0.06072 -0.34925,0.08239 -0.968374,0.210145 -1.375832,0.283906 -1.20041,0.217307 -1.810954,0.466613 -2.525734,1.031341 -0.558512,0.441265 -0.59301,0.501989 -0.549736,0.967611 0.01968,0.211658 0.09439,0.517594 0.170744,0.699124 0.27365,0.650591 0.350232,0.952652 0.376982,1.486944 0.02406,0.480506 0.01052,0.58756 -0.14729,1.164167 -0.147092,0.537466 -0.174452,0.72847 -0.178126,1.243541 -0.0042,0.59339 6e-4,0.619695 0.194978,1.056453 0.109624,0.24635 0.376306,0.758319 0.592628,1.137708 0.21632,0.379389 0.567158,1.023173 0.77964,1.430631 0.366924,0.703619 0.395634,0.742567 0.571538,0.775342 0.101866,0.01898 1.497214,0.03089 3.100774,0.02646 2.45874,-0.0068 2.930022,-0.02005 3.00783,-0.08467 z"
       id="path3004" />
  </g>
</svg>
