<?xml version="1.0" encoding="UTF-8" standalone="no"?>
<svg
   xmlns:dc="http://purl.org/dc/elements/1.1/"
   xmlns:cc="http://creativecommons.org/ns#"
   xmlns:rdf="http://www.w3.org/1999/02/22-rdf-syntax-ns#"
   xmlns:svg="http://www.w3.org/2000/svg"
   xmlns="http://www.w3.org/2000/svg"
   xmlns:sodipodi="http://sodipodi.sourceforge.net/DTD/sodipodi-0.dtd"
   xmlns:inkscape="http://www.inkscape.org/namespaces/inkscape"
   width="13.229167mm"
   height="13.229167mm"
   viewBox="0 0 13.229167 13.229167"
   version="1.1"
   id="svg8"
   sodipodi:docname="VCS_resized_9.svg"
   inkscape:version="1.0.2-2 (e86c870879, 2021-01-15)">
  <defs
     id="defs2" />
  <sodipodi:namedview
     id="base"
     pagecolor="#ffffff"
     bordercolor="#666666"
     borderopacity="1.0"
     inkscape:pageopacity="0.0"
     inkscape:pageshadow="2"
     inkscape:zoom="2.8284271"
     inkscape:cx="-3.4944338"
     inkscape:cy="55.728162"
     inkscape:document-units="mm"
     inkscape:current-layer="layer1"
     inkscape:document-rotation="0"
     showgrid="false"
     inkscape:window-width="958"
     inkscape:window-height="1008"
     inkscape:window-x="1913"
     inkscape:window-y="0"
     inkscape:window-maximized="0" />
  <metadata
     id="metadata5">
    <rdf:RDF>
      <cc:Work
         rdf:about="">
        <dc:format>image/svg+xml</dc:format>
        <dc:type
           rdf:resource="http://purl.org/dc/dcmitype/StillImage" />
        <dc:title></dc:title>
      </cc:Work>
    </rdf:RDF>
  </metadata>
  <g
     inkscape:label="Ebene 1"
     inkscape:groupmode="layer"
     id="layer1"
     transform="translate(-39.124557,-11.846869)">
    <path
       style="fill:#000000;stroke-width:0.264582"
       d="m 43.83311,23.884883 c -0.09853,-0.122986 -0.26608,-0.4888 -0.326282,-0.712376 -0.101238,-0.375967 -0.08039,-1.202968 0.0444,-1.761478 0.135056,-0.604448 0.19155,-1.299151 0.139516,-1.715625 -0.03364,-0.269225 -0.0656,-0.331799 -0.269036,-0.526726 -0.232768,-0.223031 -0.70126,-0.519252 -1.480024,-0.935798 -1.362536,-0.728794 -2.112418,-1.503938 -1.706562,-1.764052 0.317768,-0.203661 0.79606,-0.303075 1.468436,-0.305221 0.363802,-0.0012 0.804334,0.02316 0.978958,0.05404 0.5497,0.09721 1.55964,0.170133 1.840422,0.132886 0.36912,-0.04897 0.611956,-0.284042 1.03952,-1.0063 0.18697,-0.315833 0.447008,-0.752836 0.577864,-0.971118 0.26115,-0.435626 0.922446,-1.118357 1.2682,-1.309309 0.190522,-0.105222 0.223856,-0.109728 0.293862,-0.03972 0.12404,0.12404 0.284056,0.604049 0.354272,1.062725 0.05793,0.37841 0.05202,0.492309 -0.06013,1.15994 -0.08767,0.521857 -0.12493,0.956809 -0.12627,1.473923 l -0.002,0.733598 0.211668,0.186236 c 0.261732,0.230289 0.737108,0.542761 1.42875,0.939142 0.818242,0.468936 1.295,0.851481 1.649148,1.32326 0.226332,0.301506 0.244088,0.379061 0.11444,0.499847 -0.335328,0.312405 -1.182568,0.384871 -2.53088,0.216472 -0.672684,-0.08402 -1.06358,-0.106868 -1.42875,-0.08352 l -0.502708,0.03214 -0.317708,0.328994 c -0.17474,0.180947 -0.457812,0.567119 -0.629048,0.85816 -0.834674,1.418648 -0.92317,1.536628 -1.454088,1.938544 -0.347878,0.26335 -0.482548,0.308084 -0.576066,0.191352 z m 0.556476,-0.500525 c 0.322932,-0.23893 0.558808,-0.5564 1.049826,-1.412973 0.396478,-0.691649 0.641986,-1.03011 1.00516,-1.385729 0.185816,-0.181949 0.267072,-0.222311 0.50511,-0.250894 0.384238,-0.04614 1.160698,-0.03915 1.580128,0.01422 0.189178,0.02407 0.586136,0.07463 0.88213,0.112346 0.612536,0.07805 1.139026,0.01752 1.440108,-0.165577 l 0.169924,-0.103337 -0.09514,-0.164123 c -0.12444,-0.214661 -0.587322,-0.62809 -1.032706,-0.922378 -0.195514,-0.129186 -0.366188,-0.234883 -0.379274,-0.234883 -0.01308,0 -0.210308,-0.109826 -0.438268,-0.244058 -0.505062,-0.297396 -1.041662,-0.69033 -1.278798,-0.93642 l -0.176402,-0.183064 -0.0065,-0.73375 c -0.005,-0.565644 0.0202,-0.867108 0.110174,-1.315833 0.136798,-0.682249 0.148558,-1.197653 0.03615,-1.584321 -0.111084,-0.382115 -0.1881,-0.47666 -0.354308,-0.434945 -0.377714,0.0948 -0.845306,0.672148 -1.575798,1.945672 -0.218394,0.380745 -0.457908,0.714168 -0.6561,0.913349 l -0.312144,0.313698 -0.825566,-0.03196 c -0.45406,-0.01758 -1.12322,-0.07145 -1.487022,-0.119706 -0.769166,-0.102027 -1.387636,-0.07904 -1.772272,0.06586 -0.355308,0.133856 -0.363198,0.231108 -0.04521,0.557216 0.32783,0.336199 0.563848,0.498839 1.376406,0.948478 0.788404,0.436274 1.356734,0.81545 1.59325,1.062976 0.13346,0.139673 0.18494,0.253286 0.224288,0.494985 0.06702,0.411689 0.02258,1.080497 -0.117548,1.76891 -0.177254,0.870825 -0.137646,1.738807 0.09599,2.103438 0.10406,0.162408 0.176144,0.150922 0.484456,-0.07719 z"
       id="path136" />
  </g>
</svg>
