<?xml version="1.0" encoding="UTF-8" standalone="no"?>
<svg
   xmlns:dc="http://purl.org/dc/elements/1.1/"
   xmlns:cc="http://creativecommons.org/ns#"
   xmlns:rdf="http://www.w3.org/1999/02/22-rdf-syntax-ns#"
   xmlns:svg="http://www.w3.org/2000/svg"
   xmlns="http://www.w3.org/2000/svg"
   xmlns:sodipodi="http://sodipodi.sourceforge.net/DTD/sodipodi-0.dtd"
   xmlns:inkscape="http://www.inkscape.org/namespaces/inkscape"
   width="13.229167mm"
   height="13.229167mm"
   viewBox="0 0 13.229169 13.229168"
   version="1.1"
   id="svg8"
   sodipodi:docname="VCS_resized_101.svg"
   inkscape:version="1.0.2-2 (e86c870879, 2021-01-15)">
  <defs
     id="defs2" />
  <sodipodi:namedview
     id="base"
     pagecolor="#ffffff"
     bordercolor="#666666"
     borderopacity="1.0"
     inkscape:pageopacity="0.0"
     inkscape:pageshadow="2"
     inkscape:zoom="2.8284271"
     inkscape:cx="14.349615"
     inkscape:cy="42.539804"
     inkscape:document-units="mm"
     inkscape:current-layer="layer1"
     inkscape:document-rotation="0"
     showgrid="false"
     inkscape:window-width="958"
     inkscape:window-height="1008"
     inkscape:window-x="1913"
     inkscape:window-y="0"
     inkscape:window-maximized="0" />
  <metadata
     id="metadata5">
    <rdf:RDF>
      <cc:Work
         rdf:about="">
        <dc:format>image/svg+xml</dc:format>
        <dc:type
           rdf:resource="http://purl.org/dc/dcmitype/StillImage" />
        <dc:title></dc:title>
      </cc:Work>
    </rdf:RDF>
  </metadata>
  <g
     inkscape:label="Ebene 1"
     inkscape:groupmode="layer"
     id="layer1"
     transform="translate(-34.403316,-15.33629)">
    <path
       style="fill:#000000;stroke-width:0.264582"
       d="m 40.041769,27.914086 c -0.763048,-0.07515 -1.427026,-0.251166 -1.91161,-0.506746 -0.629462,-0.33199 -1.218716,-0.74008 -1.515334,-1.049446 -0.350364,-0.365424 -0.621334,-0.920218 -0.620664,-1.270778 8e-4,-0.448884 0.17707,-0.736948 0.93469,-1.527984 0.736626,-0.769115 0.99471,-1.142187 1.070394,-1.547316 0.109256,-0.584818 -0.08532,-1.087722 -0.757524,-1.957903 -0.595538,-0.770936 -0.96705,-1.363616 -1.078022,-1.719792 -0.120082,-0.385405 -0.116368,-1.098814 0.0076,-1.464617 0.219062,-0.646285 0.632962,-0.951005 1.226978,-0.903323 0.558688,0.04485 0.845148,0.266299 2.047868,1.583146 0.66527,0.728397 0.956656,0.890883 1.59624,0.89011 0.728608,-8.8e-4 1.008754,-0.181887 1.888646,-1.22029 0.850164,-1.003321 1.20866,-1.2596 1.76738,-1.263457 0.81143,-0.0056 1.367142,0.925936 1.208654,2.026056 -0.07825,0.543132 -0.34244,1.056049 -0.908074,1.762978 -0.99745,1.246609 -1.20616,1.925791 -0.82881,2.697107 0.114054,0.233129 0.331698,0.489487 0.87064,1.025506 0.801592,0.797245 0.958462,1.043301 0.99504,1.560743 0.0181,0.256162 -0.0031,0.375116 -0.109526,0.615736 -0.225548,0.509708 -1.202294,1.441674 -1.865212,1.779696 -0.212678,0.108446 -0.66521,0.24416 -1.373546,0.411922 -0.42461,0.100566 -1.959934,0.146206 -2.645832,0.07865 z m 2.702246,-0.39857 c 0.745176,-0.161112 1.033316,-0.277844 1.596814,-0.646906 0.872528,-0.57146 1.389482,-1.231344 1.389482,-1.773654 0,-0.359942 -0.12825,-0.576712 -0.725442,-1.226149 -1.111454,-1.208692 -1.24083,-1.432719 -1.24083,-2.148612 0,-0.622343 0.2849,-1.241594 0.978206,-2.1262 0.407074,-0.519396 0.589796,-0.795654 0.728328,-1.101161 0.347228,-0.765757 0.220656,-1.64849 -0.289682,-2.020282 -0.197324,-0.143755 -0.248776,-0.156813 -0.54552,-0.138454 -0.456106,0.02822 -0.775626,0.260053 -1.441558,1.045952 -0.989326,1.167554 -1.348544,1.402199 -2.146628,1.402199 -0.79748,0 -1.093406,-0.186905 -2.108428,-1.331664 -0.792894,-0.894239 -1.285668,-1.209821 -1.780946,-1.140552 -0.466988,0.06531 -0.815192,0.603115 -0.81372,1.256796 0.0014,0.640184 0.238742,1.13934 1.044002,2.196042 0.569242,0.746986 0.838584,1.322378 0.870098,1.858784 0.0419,0.713114 -0.121752,1.052393 -0.918738,1.904728 -0.282442,0.302058 -0.593134,0.646283 -0.690424,0.764943 -0.703722,0.858302 -0.298434,1.73332 1.222644,2.639678 0.607138,0.361772 0.818336,0.44434 1.505096,0.588428 0.466606,0.0979 0.741074,0.118202 1.658086,0.122668 0.985198,0.0048 1.16207,-0.0083 1.70916,-0.126584 z"
       id="path1658" />
  </g>
</svg>
