<?xml version="1.0" encoding="UTF-8" standalone="no"?>
<svg
   xmlns:dc="http://purl.org/dc/elements/1.1/"
   xmlns:cc="http://creativecommons.org/ns#"
   xmlns:rdf="http://www.w3.org/1999/02/22-rdf-syntax-ns#"
   xmlns:svg="http://www.w3.org/2000/svg"
   xmlns="http://www.w3.org/2000/svg"
   xmlns:sodipodi="http://sodipodi.sourceforge.net/DTD/sodipodi-0.dtd"
   xmlns:inkscape="http://www.inkscape.org/namespaces/inkscape"
   width="13.229167mm"
   height="13.229167mm"
   viewBox="0 0 13.229169 13.229168"
   version="1.1"
   id="svg8"
   sodipodi:docname="VCS_resized_115.svg"
   inkscape:version="1.0.2-2 (e86c870879, 2021-01-15)">
  <defs
     id="defs2" />
  <sodipodi:namedview
     id="base"
     pagecolor="#ffffff"
     bordercolor="#666666"
     borderopacity="1.0"
     inkscape:pageopacity="0.0"
     inkscape:pageshadow="2"
     inkscape:zoom="2.8284271"
     inkscape:cx="0.11745666"
     inkscape:cy="54.910957"
     inkscape:document-units="mm"
     inkscape:current-layer="layer1"
     inkscape:document-rotation="0"
     showgrid="false"
     inkscape:window-width="958"
     inkscape:window-height="1008"
     inkscape:window-x="1913"
     inkscape:window-y="0"
     inkscape:window-maximized="0" />
  <metadata
     id="metadata5">
    <rdf:RDF>
      <cc:Work
         rdf:about="">
        <dc:format>image/svg+xml</dc:format>
        <dc:type
           rdf:resource="http://purl.org/dc/dcmitype/StillImage" />
        <dc:title></dc:title>
      </cc:Work>
    </rdf:RDF>
  </metadata>
  <g
     inkscape:label="Ebene 1"
     inkscape:groupmode="layer"
     id="layer1"
     transform="translate(-38.168907,-12.063089)">
    <path
       style="fill:#000000;stroke-width:0.264582"
       d="m 42.856798,24.667587 -0.754236,-0.193463 -0.912638,-0.899949 c -0.501952,-0.494972 -1.005514,-1.040179 -1.119028,-1.211571 -0.225088,-0.339858 -0.402152,-0.834916 -0.402152,-1.124389 0,-0.339167 0.244102,-0.736162 0.802594,-1.305297 0.853928,-0.8702 1.081088,-1.297528 1.038604,-1.953799 -0.03293,-0.508656 -0.152044,-0.761082 -0.755966,-1.601979 -0.753114,-1.04863 -0.922598,-1.443039 -0.92519,-2.153016 -0.0018,-0.506295 0.0814,-0.82054 0.305534,-1.153398 0.27332,-0.405896 0.615874,-0.595097 1.020738,-0.563777 0.484108,0.03745 0.717762,0.194519 1.755984,1.180423 0.770798,0.731955 1.083962,0.944399 1.555102,1.054945 0.843704,0.197962 1.231086,0.02502 2.266428,-1.011821 1.03977,-1.041276 1.330588,-1.241841 1.799712,-1.241185 0.283478,4e-4 0.68624,0.230267 0.869078,0.496012 0.274944,0.399618 0.338196,0.632588 0.339218,1.249426 0.0012,0.668723 -0.09871,0.972674 -0.513026,1.562183 -0.149564,0.212808 -0.41194,0.585359 -0.583058,0.827891 -0.435702,0.61754 -0.579014,1.015632 -0.550234,1.528442 0.03291,0.586359 0.202176,0.887215 0.922052,1.638853 0.699488,0.730351 0.877402,1.034137 0.88184,1.50573 0.0053,0.561229 -0.229516,0.943499 -1.27375,2.07379 -0.767254,0.830484 -1.072718,1.0756 -1.487042,1.193256 -1.065358,0.302533 -1.08221,0.3047 -2.335702,0.300318 l -1.190626,-0.0042 -0.754236,-0.193464 z m 3.87632,-0.264834 0.635,-0.170529 0.652706,-0.646342 c 1.290514,-1.277935 1.598118,-1.717993 1.59509,-2.281939 -0.0018,-0.333349 -0.152816,-0.595506 -0.6582,-1.142528 -0.51504,-0.557472 -0.870774,-1.002618 -0.993766,-1.243541 -0.245978,-0.481837 -0.221498,-1.182819 0.06256,-1.79119 0.144306,-0.309067 0.285698,-0.531052 0.951902,-1.494486 0.347226,-0.502141 0.47843,-0.829979 0.517188,-1.292275 0.04295,-0.51232 -0.08599,-0.913841 -0.386046,-1.202145 -0.26748,-0.257002 -0.405094,-0.304795 -0.735126,-0.255304 -0.33907,0.05085 -0.694022,0.317285 -1.482554,1.112849 -0.83315,0.840581 -1.167422,1.037081 -1.829404,1.075403 -0.796798,0.04612 -1.306326,-0.193971 -2.156182,-1.016023 -1.161074,-1.123089 -1.71475,-1.384999 -2.256594,-1.067458 -0.146418,0.08581 -0.2707,0.221699 -0.375066,0.410105 -0.143826,0.259641 -0.156038,0.323338 -0.15546,0.81094 6e-4,0.50143 0.0108,0.54997 0.194808,0.926042 0.106798,0.218281 0.363956,0.635 0.57146,0.926042 0.649898,0.911534 0.852882,1.342866 0.922778,1.960857 0.06738,0.595739 -0.190134,1.099249 -1.026912,2.007893 -0.716374,0.777898 -0.768594,0.867519 -0.768594,1.31903 0,0.586306 0.106198,0.749442 1.229922,1.889334 l 0.971882,0.985864 0.671806,0.16172 c 0.369494,0.08895 0.719432,0.173345 0.77764,0.187553 0.05821,0.01421 0.629708,0.02017 1.27,0.01325 1.124938,-0.01216 1.185564,-0.01833 1.799166,-0.183117 z"
       id="path1882" />
  </g>
</svg>
