<?xml version="1.0" encoding="UTF-8" standalone="no"?>
<svg
   xmlns:dc="http://purl.org/dc/elements/1.1/"
   xmlns:cc="http://creativecommons.org/ns#"
   xmlns:rdf="http://www.w3.org/1999/02/22-rdf-syntax-ns#"
   xmlns:svg="http://www.w3.org/2000/svg"
   xmlns="http://www.w3.org/2000/svg"
   xmlns:sodipodi="http://sodipodi.sourceforge.net/DTD/sodipodi-0.dtd"
   xmlns:inkscape="http://www.inkscape.org/namespaces/inkscape"
   width="13.229167mm"
   height="13.229167mm"
   viewBox="0 0 13.229167 13.229167"
   version="1.1"
   id="svg8"
   sodipodi:docname="VCS_resized_65.svg"
   inkscape:version="1.0.2-2 (e86c870879, 2021-01-15)">
  <defs
     id="defs2" />
  <sodipodi:namedview
     id="base"
     pagecolor="#ffffff"
     bordercolor="#666666"
     borderopacity="1.0"
     inkscape:pageopacity="0.0"
     inkscape:pageshadow="2"
     inkscape:zoom="2.8284271"
     inkscape:cx="3.8192498"
     inkscape:cy="71.201516"
     inkscape:document-units="mm"
     inkscape:current-layer="layer1"
     inkscape:document-rotation="0"
     showgrid="false"
     inkscape:window-width="958"
     inkscape:window-height="1008"
     inkscape:window-x="1913"
     inkscape:window-y="0"
     inkscape:window-maximized="0" />
  <metadata
     id="metadata5">
    <rdf:RDF>
      <cc:Work
         rdf:about="">
        <dc:format>image/svg+xml</dc:format>
        <dc:type
           rdf:resource="http://purl.org/dc/dcmitype/StillImage" />
        <dc:title></dc:title>
      </cc:Work>
    </rdf:RDF>
  </metadata>
  <g
     inkscape:label="Ebene 1"
     inkscape:groupmode="layer"
     id="layer1"
     transform="translate(-37.189476,-7.7528772)">
    <path
       style="fill:#000000;stroke-width:0.264582"
       d="m 40.304274,19.431163 c -0.786734,-0.258644 -1.284478,-0.898956 -1.220048,-1.569499 0.04198,-0.436906 0.27679,-0.817495 0.880108,-1.426518 0.63025,-0.636211 0.9214,-1.048088 1.014136,-1.434651 0.160932,-0.670846 -0.09519,-1.260748 -0.950928,-2.190141 -0.938422,-1.019197 -1.168584,-1.431728 -1.181712,-2.118045 -0.0094,-0.492928 0.188468,-0.9230001 0.535054,-1.1627881 0.206138,-0.14262 0.27066,-0.15875 0.635,-0.15875 0.636158,0 0.868172,0.141521 1.843268,1.1243371 0.979578,0.987334 1.169678,1.098868 1.869568,1.096895 0.61639,-0.0017 0.852896,-0.129457 1.43629,-0.775645 0.800624,-0.8868031 1.172322,-1.2353221 1.474128,-1.3822031 0.557954,-0.271543 1.02116,-0.24124 1.410822,0.0923 0.319062,0.273105 0.461428,0.6386491 0.464904,1.1936941 0.0025,0.400702 -0.01592,0.489335 -0.16879,0.812121 -0.1874,0.395677 -0.341826,0.607477 -0.853868,1.171106 -0.874658,0.962776 -1.112224,1.710734 -0.77637,2.444337 0.113056,0.246944 0.302044,0.465256 0.97611,1.127565 0.7373,0.724438 0.849358,0.857458 0.949886,1.127585 0.228312,0.6135 0.134052,1.099049 -0.292368,1.506027 -0.534392,0.510026 -1.142078,0.575554 -2.398244,0.258614 -0.392906,-0.09913 -0.984338,-0.223156 -1.314294,-0.275608 -0.707512,-0.11247 -1.120482,-0.07256 -1.992998,0.19262 -0.29104,0.08845 -0.683946,0.207552 -0.873124,0.264664 -0.457136,0.138006 -1.1742,0.178094 -1.46653,0.08199 z m 1.598822,-0.424428 c 1.78735,-0.565612 2.229512,-0.577105 4.111578,-0.106874 0.85485,0.213582 1.278884,0.231762 1.703156,0.07302 0.506514,-0.18951 0.833144,-0.694505 0.746822,-1.154639 -0.06762,-0.360455 -0.257474,-0.617923 -1.009114,-1.36851 -0.971744,-0.970379 -1.108004,-1.21322 -1.106334,-1.971702 10e-4,-0.471813 0.01336,-0.528496 0.195788,-0.900386 0.17864,-0.364182 0.366938,-0.617101 1.133066,-1.521918 0.335148,-0.395819 0.557042,-0.838651 0.589502,-1.176466 0.06159,-0.641005 -0.292244,-1.2203121 -0.789414,-1.2924391 -0.578192,-0.08388 -1.098096,0.224892 -1.745958,1.0369341 -0.446036,0.559067 -0.831518,0.917566 -1.21319,1.128264 -0.262876,0.145118 -0.330806,0.15875 -0.79108,0.15875 -0.464332,0 -0.531606,-0.01382 -0.864568,-0.177596 C 42.565156,11.5865 42.362602,11.414807 41.699986,10.747069 40.761846,9.8016759 40.59185,9.6933379 40.041854,9.6903379 c -0.304496,-0.0017 -0.409164,0.01985 -0.529166,0.108739 -0.25273,0.187207 -0.385862,0.4807391 -0.386846,0.8529361 -0.0016,0.624811 0.192232,0.953845 1.271822,2.158339 0.290196,0.323771 0.497872,0.619083 0.648648,0.92237 0.21163,0.425697 0.221784,0.468222 0.221784,0.928921 0,0.446786 -0.01382,0.510099 -0.185208,0.848766 -0.127802,0.252529 -0.323266,0.505872 -0.630604,0.817329 -0.864518,0.876102 -1.06273,1.183874 -1.06273,1.650151 0,0.344437 0.09692,0.559185 0.359166,0.795824 0.567722,0.512282 1.092522,0.569044 2.154376,0.23302 z"
       id="path1066" />
  </g>
</svg>
