<?xml version="1.0" encoding="UTF-8" standalone="no"?>
<svg
   xmlns:dc="http://purl.org/dc/elements/1.1/"
   xmlns:cc="http://creativecommons.org/ns#"
   xmlns:rdf="http://www.w3.org/1999/02/22-rdf-syntax-ns#"
   xmlns:svg="http://www.w3.org/2000/svg"
   xmlns="http://www.w3.org/2000/svg"
   xmlns:sodipodi="http://sodipodi.sourceforge.net/DTD/sodipodi-0.dtd"
   xmlns:inkscape="http://www.inkscape.org/namespaces/inkscape"
   width="13.229167mm"
   height="13.229167mm"
   viewBox="0 0 13.229167 13.229167"
   version="1.1"
   id="svg8"
   sodipodi:docname="VCS_resized_51.svg"
   inkscape:version="1.0.2-2 (e86c870879, 2021-01-15)">
  <defs
     id="defs2" />
  <sodipodi:namedview
     id="base"
     pagecolor="#ffffff"
     bordercolor="#666666"
     borderopacity="1.0"
     inkscape:pageopacity="0.0"
     inkscape:pageshadow="2"
     inkscape:zoom="2.8284271"
     inkscape:cx="-12.862337"
     inkscape:cy="56.444627"
     inkscape:document-units="mm"
     inkscape:current-layer="layer1"
     inkscape:document-rotation="0"
     showgrid="false"
     inkscape:window-width="958"
     inkscape:window-height="1008"
     inkscape:window-x="1913"
     inkscape:window-y="0"
     inkscape:window-maximized="0" />
  <metadata
     id="metadata5">
    <rdf:RDF>
      <cc:Work
         rdf:about="">
        <dc:format>image/svg+xml</dc:format>
        <dc:type
           rdf:resource="http://purl.org/dc/dcmitype/StillImage" />
        <dc:title></dc:title>
      </cc:Work>
    </rdf:RDF>
  </metadata>
  <g
     inkscape:label="Ebene 1"
     inkscape:groupmode="layer"
     id="layer1"
     transform="translate(-41.603146,-11.657305)">
    <path
       style="fill:#000000;stroke-width:0.264582"
       d="m 44.885785,23.213723 c -0.580022,-0.11954 -0.94785,-0.41089 -1.130464,-0.895422 -0.243274,-0.64548 -0.0047,-1.25656 0.827646,-2.12006 0.813298,-0.84372 1.045164,-1.406514 0.852508,-2.069231 -0.121598,-0.41828 -0.356484,-0.744649 -0.986136,-1.370214 -0.307588,-0.305594 -0.645122,-0.662782 -0.750074,-0.79375 -0.875256,-1.092225 -0.518938,-2.381251 0.658236,-2.381251 0.599972,0 1.074914,0.252412 1.83693,0.976247 0.819988,0.778904 1.232142,1.006344 1.825624,1.007443 0.560786,0.001 0.860648,-0.167493 1.441352,-0.810078 1.060422,-1.173422 1.457082,-1.449383 2.089532,-1.453713 0.526478,-0.0036 0.837408,0.192171 1.042862,0.656634 0.161286,0.364613 0.191278,0.766047 0.08489,1.136173 -0.11484,0.399524 -0.293726,0.677801 -0.852086,1.325521 -0.54729,0.634877 -0.801706,1.067978 -0.876376,1.491886 -0.108872,0.618076 0.16194,1.15593 0.914278,1.815827 0.78114,0.685164 0.98885,0.903552 1.153908,1.213234 0.27002,0.506608 0.273106,1.134622 0.0072,1.459834 -0.20324,0.248546 -0.626996,0.45164 -1.038674,0.497808 -0.499386,0.056 -0.716268,-0.0055 -1.620568,-0.45953 -1.291536,-0.648458 -2.119632,-0.714786 -3.03675,-0.24323 -0.115018,0.05914 -0.399622,0.245124 -0.632456,0.413302 -0.69701,0.503456 -1.307254,0.70646 -1.811354,0.60257 z m 0.78647,-0.322404 c 0.169866,-0.04227 0.382186,-0.17144 1.232222,-0.749658 0.326644,-0.222192 0.652478,-0.364136 1.065282,-0.464078 0.736808,-0.178384 1.418908,-0.02407 2.616756,0.592 0.37232,0.191488 0.717156,0.330006 0.888352,0.356844 0.302892,0.04748 0.739618,-0.01028 0.967074,-0.127902 0.239898,-0.124056 0.45622,-0.416608 0.493148,-0.666926 0.06673,-0.452362 -0.140536,-0.847848 -0.742758,-1.41723 -1.113988,-1.053244 -1.18367,-1.129408 -1.354268,-1.48028 -0.142092,-0.292243 -0.16996,-0.410501 -0.169696,-0.720085 6e-4,-0.662864 0.233062,-1.120551 1.061898,-2.090459 0.494496,-0.57866 0.705918,-0.959735 0.74519,-1.343161 0.07648,-0.746673 -0.39162,-1.259833 -1.078576,-1.182403 -0.439034,0.04949 -0.860282,0.340882 -1.355068,0.937359 -0.88025,1.061163 -1.3816,1.366858 -2.151362,1.311782 -0.621308,-0.04445 -0.997108,-0.262207 -1.920126,-1.112591 -0.595834,-0.548944 -0.936274,-0.763963 -1.32229,-0.835146 -0.362066,-0.06677 -0.649202,-0.0055 -0.878498,0.187439 -0.216692,0.182334 -0.29085,0.395138 -0.262624,0.75362 0.03789,0.481165 0.20463,0.750531 0.937492,1.514493 0.770978,0.803696 0.93873,1.00975 1.147314,1.409275 0.134336,0.257306 0.152004,0.346245 0.152434,0.767292 6e-4,0.659469 -0.154898,0.981139 -0.818974,1.693333 -0.812004,0.870842 -1.047454,1.326748 -0.948764,1.837112 0.0241,0.124652 0.04486,0.242116 0.04613,0.261034 0.0047,0.06959 0.398206,0.42783 0.528894,0.481444 0.448902,0.184156 0.663174,0.200768 1.120818,0.08689 z"
       id="path826" />
  </g>
</svg>
