<?xml version="1.0" encoding="UTF-8" standalone="no"?>
<svg
   xmlns:dc="http://purl.org/dc/elements/1.1/"
   xmlns:cc="http://creativecommons.org/ns#"
   xmlns:rdf="http://www.w3.org/1999/02/22-rdf-syntax-ns#"
   xmlns:svg="http://www.w3.org/2000/svg"
   xmlns="http://www.w3.org/2000/svg"
   xmlns:sodipodi="http://sodipodi.sourceforge.net/DTD/sodipodi-0.dtd"
   xmlns:inkscape="http://www.inkscape.org/namespaces/inkscape"
   width="13.229167mm"
   height="13.229167mm"
   viewBox="0 0 13.229169 13.229168"
   version="1.1"
   id="svg8"
   sodipodi:docname="VCS_resized_206.svg"
   inkscape:version="1.0.2-2 (e86c870879, 2021-01-15)">
  <defs
     id="defs2" />
  <sodipodi:namedview
     id="base"
     pagecolor="#ffffff"
     bordercolor="#666666"
     borderopacity="1.0"
     inkscape:pageopacity="0.0"
     inkscape:pageshadow="2"
     inkscape:zoom="2.8284271"
     inkscape:cx="11.721756"
     inkscape:cy="64.288924"
     inkscape:document-units="mm"
     inkscape:current-layer="layer1"
     inkscape:document-rotation="0"
     showgrid="false"
     inkscape:window-width="958"
     inkscape:window-height="1008"
     inkscape:window-x="1913"
     inkscape:window-y="0"
     inkscape:window-maximized="0" />
  <metadata
     id="metadata5">
    <rdf:RDF>
      <cc:Work
         rdf:about="">
        <dc:format>image/svg+xml</dc:format>
        <dc:type
           rdf:resource="http://purl.org/dc/dcmitype/StillImage" />
        <dc:title></dc:title>
      </cc:Work>
    </rdf:RDF>
  </metadata>
  <g
     inkscape:label="Ebene 1"
     inkscape:groupmode="layer"
     id="layer1"
     transform="translate(-45.461979,-13.670725)">
    <path
       style="fill:#000000;stroke-width:0.264582"
       d="m 48.378784,26.357494 c -0.05927,-0.05093 -0.171998,-0.259292 -0.250516,-0.463021 -0.07852,-0.203729 -0.351204,-0.858573 -0.60597,-1.455208 -0.668914,-1.56653 -0.705584,-1.71924 -0.79419,-3.307292 -0.058,-1.039526 -0.09621,-1.236129 -0.416516,-2.143125 -0.25115,-0.711173 -0.374576,-1.33559 -0.290798,-1.471163 0.07287,-0.11792 1.138934,-0.794693 1.724564,-1.09481 0.253644,-0.129984 0.760556,-0.368819 1.126474,-0.530746 0.681968,-0.301786 1.077462,-0.518742 2.397086,-1.314972 0.416246,-0.251153 0.799542,-0.456642 0.851768,-0.456642 0.101418,0 0.684824,0.329788 1.460588,0.82564 0.591552,0.378109 1.2978,0.751051 1.852082,0.978011 0.660932,0.270629 2.291812,1.204565 2.606146,1.492428 0.08102,0.0742 0.11902,0.169493 0.11893,0.298249 -1.6e-4,0.217444 -0.20427,1.011964 -0.364076,1.417162 -0.188442,0.477807 -0.26352,0.922846 -0.297732,1.764853 -0.03829,0.942282 -0.175044,1.769667 -0.395396,2.392149 -0.264068,0.745974 -1.26588,3.025355 -1.360264,3.094945 -0.06969,0.05138 -0.889306,0.06615 -3.672068,0.06615 -3.33544,0 -3.589784,-0.0064 -3.690112,-0.0926 z m 7.228672,-0.238125 c 0.03012,-0.03638 0.209288,-0.435239 0.398146,-0.886354 0.18886,-0.451115 0.418386,-0.994423 0.510062,-1.207352 0.49525,-1.150304 0.620934,-1.712292 0.688568,-3.078898 0.05157,-1.042116 0.05736,-1.073331 0.372658,-2.010833 0.112566,-0.334698 0.233818,-0.761234 0.269452,-0.947857 0.0645,-0.337793 0.06415,-0.339866 -0.07799,-0.462129 -0.292638,-0.251716 -2.269148,-1.341681 -2.432964,-1.341681 -0.10545,0 -1.282688,-0.63241 -1.95939,-1.052579 -0.830954,-0.515946 -1.15416,-0.693713 -1.261052,-0.693597 -0.03754,4.1e-5 -0.508786,0.263033 -1.047212,0.584428 -1.017772,0.607522 -1.66036,0.940277 -2.83944,1.470363 -0.686328,0.308556 -1.608114,0.824708 -1.860432,1.041741 l -0.129216,0.111148 0.08833,0.435941 c 0.04858,0.239767 0.193322,0.731897 0.321642,1.093622 0.234708,0.661627 0.313328,1.077285 0.370096,1.956641 0.11236,1.740574 0.125142,1.793877 0.792084,3.303513 0.224094,0.507244 0.468912,1.078744 0.544038,1.27 0.07513,0.191255 0.159584,0.377503 0.187682,0.413883 0.03995,0.05173 0.809522,0.06615 3.53063,0.06615 2.719146,0 3.49151,-0.01446 3.534308,-0.06615 z"
       id="path4195" />
  </g>
</svg>
