<?xml version="1.0" encoding="UTF-8" standalone="no"?>
<svg
   xmlns:dc="http://purl.org/dc/elements/1.1/"
   xmlns:cc="http://creativecommons.org/ns#"
   xmlns:rdf="http://www.w3.org/1999/02/22-rdf-syntax-ns#"
   xmlns:svg="http://www.w3.org/2000/svg"
   xmlns="http://www.w3.org/2000/svg"
   xmlns:sodipodi="http://sodipodi.sourceforge.net/DTD/sodipodi-0.dtd"
   xmlns:inkscape="http://www.inkscape.org/namespaces/inkscape"
   width="13.229167mm"
   height="13.229167mm"
   viewBox="0 0 13.229169 13.229168"
   version="1.1"
   id="svg8"
   sodipodi:docname="VCS_resized_227.svg"
   inkscape:version="1.0.2-2 (e86c870879, 2021-01-15)">
  <defs
     id="defs2" />
  <sodipodi:namedview
     id="base"
     pagecolor="#ffffff"
     bordercolor="#666666"
     borderopacity="1.0"
     inkscape:pageopacity="0.0"
     inkscape:pageshadow="2"
     inkscape:zoom="2.8284271"
     inkscape:cx="-20.620115"
     inkscape:cy="21.852205"
     inkscape:document-units="mm"
     inkscape:current-layer="layer1"
     inkscape:document-rotation="0"
     showgrid="false"
     inkscape:window-width="958"
     inkscape:window-height="1008"
     inkscape:window-x="1913"
     inkscape:window-y="0"
     inkscape:window-maximized="0" />
  <metadata
     id="metadata5">
    <rdf:RDF>
      <cc:Work
         rdf:about="">
        <dc:format>image/svg+xml</dc:format>
        <dc:type
           rdf:resource="http://purl.org/dc/dcmitype/StillImage" />
        <dc:title></dc:title>
      </cc:Work>
    </rdf:RDF>
  </metadata>
  <g
     inkscape:label="Ebene 1"
     inkscape:groupmode="layer"
     id="layer1"
     transform="translate(-54.0191,-24.898773)">
    <path
       style="fill:#000000;stroke-width:0.264582"
       d="m 56.6519,37.735614 c -0.04025,-0.02549 -0.174904,-0.447797 -0.299238,-0.93846 -0.124334,-0.490663 -0.263174,-1.023084 -0.308536,-1.183157 -0.297852,-1.051062 -0.403752,-1.474845 -0.403794,-1.615848 -6.4e-5,-0.222309 -0.679284,-2.267457 -0.966466,-2.910056 -0.129694,-0.290201 -0.302458,-0.725415 -0.383922,-0.967144 -0.126792,-0.376231 -0.137384,-0.44952 -0.07357,-0.509056 0.08747,-0.08162 1.072732,-0.599023 2.377738,-1.248665 1.071084,-0.533195 1.27041,-0.680735 2.870792,-2.124941 0.607012,-0.547776 1.126048,-0.995956 1.153414,-0.995956 0.02736,0 0.372568,0.291703 0.76712,0.648229 0.981018,0.886472 1.743948,1.548638 2.06006,1.787977 0.14552,0.110179 0.961256,0.555073 1.812744,0.988653 0.851488,0.433581 1.611794,0.83584 1.689572,0.893908 l 0.141412,0.10558 -0.09379,0.288139 c -0.05159,0.158476 -0.196458,0.526264 -0.321932,0.817305 -0.300262,0.696462 -0.97846,2.81705 -1.210038,3.783542 -0.101116,0.42201 -0.290234,1.148292 -0.420262,1.613958 -0.130028,0.465667 -0.267336,0.977636 -0.305128,1.137709 -0.124118,0.52573 0.303562,0.47636 -4.118588,0.47544 -2.141922,-4.2e-4 -3.927332,-0.02167 -3.96758,-0.04716 z m 7.74012,-0.259867 c 0.0254,-0.04111 0.134576,-0.431903 0.35009,-1.253208 0.05346,-0.203729 0.18024,-0.668073 0.281736,-1.031875 0.101496,-0.363802 0.23478,-0.895095 0.296186,-1.180651 0.131536,-0.611685 0.90926,-2.942656 1.190236,-3.567339 0.335476,-0.745856 0.469522,-0.599665 -1.444672,-1.575552 -1.95481,-0.996591 -1.85636,-0.926282 -3.825406,-2.731964 -0.281584,-0.258222 -0.555428,-0.468526 -0.608542,-0.467343 -0.107682,0.0024 -0.11942,0.01209 -1.186694,0.979699 -1.458114,1.321955 -1.542156,1.379348 -3.249044,2.218773 -0.84402,0.415079 -1.578922,0.789108 -1.633114,0.831178 -0.09553,0.07416 -0.0945,0.08767 0.03386,0.443282 0.07281,0.201735 0.251206,0.652542 0.396428,1.001792 0.304686,0.732749 0.346016,0.847754 0.670902,1.866866 0.132486,0.415589 0.240884,0.821804 0.240884,0.9027 0,0.144288 0.09783,0.536348 0.517104,2.072309 0.115196,0.42201 0.25297,0.939932 0.306164,1.150938 l 0.09672,0.383645 h 3.77022 c 2.07362,0 3.782246,-0.01946 3.796948,-0.04325 z"
       id="path4531" />
  </g>
</svg>
