<?xml version="1.0" encoding="UTF-8" standalone="no"?>
<svg
   xmlns:dc="http://purl.org/dc/elements/1.1/"
   xmlns:cc="http://creativecommons.org/ns#"
   xmlns:rdf="http://www.w3.org/1999/02/22-rdf-syntax-ns#"
   xmlns:svg="http://www.w3.org/2000/svg"
   xmlns="http://www.w3.org/2000/svg"
   xmlns:sodipodi="http://sodipodi.sourceforge.net/DTD/sodipodi-0.dtd"
   xmlns:inkscape="http://www.inkscape.org/namespaces/inkscape"
   width="13.229167mm"
   height="13.229167mm"
   viewBox="0 0 13.229167 13.229167"
   version="1.1"
   id="svg8"
   sodipodi:docname="VCS_resized_61.svg"
   inkscape:version="1.0.2-2 (e86c870879, 2021-01-15)">
  <defs
     id="defs2" />
  <sodipodi:namedview
     id="base"
     pagecolor="#ffffff"
     bordercolor="#666666"
     borderopacity="1.0"
     inkscape:pageopacity="0.0"
     inkscape:pageshadow="2"
     inkscape:zoom="2.8284271"
     inkscape:cx="-7.3743914"
     inkscape:cy="76.654656"
     inkscape:document-units="mm"
     inkscape:current-layer="layer1"
     inkscape:document-rotation="0"
     showgrid="false"
     inkscape:window-width="958"
     inkscape:window-height="1008"
     inkscape:window-x="1913"
     inkscape:window-y="0"
     inkscape:window-maximized="0" />
  <metadata
     id="metadata5">
    <rdf:RDF>
      <cc:Work
         rdf:about="">
        <dc:format>image/svg+xml</dc:format>
        <dc:type
           rdf:resource="http://purl.org/dc/dcmitype/StillImage" />
        <dc:title></dc:title>
      </cc:Work>
    </rdf:RDF>
  </metadata>
  <g
     inkscape:label="Ebene 1"
     inkscape:groupmode="layer"
     id="layer1"
     transform="translate(-40.151127,-6.3100672)">
    <path
       style="fill:#000000;stroke-width:0.264582"
       d="M 43.426836,17.94727 C 43.08908,17.88043 42.589662,17.60436 42.408148,17.384153 42.18069,17.108208 42.064476,16.731902 42.100104,16.3867 c 0.04895,-0.474244 0.268372,-0.830977 0.915074,-1.487688 0.382624,-0.388547 0.649354,-0.71149 0.767292,-0.929001 0.165536,-0.305295 0.180782,-0.371442 0.180782,-0.784319 0,-0.654821 -0.160284,-0.95408 -0.972216,-1.815182 -0.945624,-1.002887 -1.198892,-1.4476855 -1.195474,-2.0995375 0.0043,-0.814512 0.41982,-1.2718703 1.165886,-1.2831838 0.285416,-0.00433 0.393948,0.023667 0.721784,0.1861807 0.31526,0.1562811 0.521566,0.3249541 1.127644,0.9219511 0.86785,0.854848 1.157746,1.0339425 1.72555,1.0660265 0.674656,0.03812 1.040666,-0.1772925 1.790456,-1.0537725 0.510098,-0.596288 0.894172,-0.9403223 1.271996,-1.1393902 0.134816,-0.071033 0.301378,-0.097926 0.612188,-0.098843 0.379792,-0.00112 0.451662,0.015056 0.650296,0.1463781 0.379906,0.2511662 0.549314,0.6375781 0.551194,1.2572571 0.002,0.63857 -0.222334,1.0499785 -1.152448,2.1140615 -0.1908,0.218282 -0.434828,0.572896 -0.542288,0.788032 -0.171106,0.342562 -0.195184,0.437885 -0.193814,0.767291 0.0027,0.652098 0.237472,1.028633 1.123042,1.801234 0.788326,0.687763 1.088848,1.163434 1.088848,1.723443 0,0.427621 -0.149256,0.719081 -0.500748,0.977835 -0.565096,0.415999 -1.203816,0.449255 -2.244812,0.116881 -1.79655,-0.573611 -2.256298,-0.576255 -3.65592,-0.02103 -1.023182,0.405896 -1.449434,0.496604 -1.90758,0.405941 z m 1.235404,-0.453881 c 0.284952,-0.105233 0.708596,-0.261646 0.941428,-0.347584 1.153854,-0.425887 1.58108,-0.407778 3.430706,0.145422 0.846508,0.253179 1.171616,0.285852 1.590354,0.159831 0.502238,-0.151152 0.822532,-0.544292 0.82507,-1.012717 0.0022,-0.400849 -0.220794,-0.727545 -1.045392,-1.531744 -0.651974,-0.635845 -0.78725,-0.796728 -0.954556,-1.135241 -0.17594,-0.355982 -0.194292,-0.433315 -0.18837,-0.79375 0.01134,-0.689765 0.251302,-1.153583 1.110076,-2.145593 0.682666,-0.788576 0.89075,-1.3008025 0.765566,-1.8845225 -0.113404,-0.528779 -0.431294,-0.7877683 -0.966932,-0.7877683 -0.42669,0 -0.766212,0.1990703 -1.25103,0.7335153 -1.271102,1.4012075 -1.518692,1.5691695 -2.310074,1.5671345 -0.447176,-0.0011 -0.498956,-0.01329 -0.84818,-0.198836 -0.282652,-0.150176 -0.549398,-0.3728655 -1.11125,-0.9277165 -0.850774,-0.84017 -1.165976,-1.037308 -1.663068,-1.040136 -0.36437,-0.0021 -0.563038,0.0955 -0.75691,0.371761 -0.12298,0.175241 -0.151488,0.273078 -0.155166,0.532551 -0.0081,0.572192 0.228906,1.0325605 0.882134,1.7133925 1.076544,1.122039 1.446054,1.851595 1.298294,2.563343 -0.107088,0.515843 -0.337486,0.884947 -0.970538,1.554828 -0.706978,0.74811 -0.894518,1.057896 -0.889602,1.469491 0.006,0.501012 0.228734,0.806099 0.774702,1.061074 0.410342,0.191635 0.845838,0.172165 1.492738,-0.06674 z"
       id="path1002" />
  </g>
</svg>
