<?xml version="1.0" encoding="UTF-8" standalone="no"?>
<svg
   xmlns:dc="http://purl.org/dc/elements/1.1/"
   xmlns:cc="http://creativecommons.org/ns#"
   xmlns:rdf="http://www.w3.org/1999/02/22-rdf-syntax-ns#"
   xmlns:svg="http://www.w3.org/2000/svg"
   xmlns="http://www.w3.org/2000/svg"
   xmlns:sodipodi="http://sodipodi.sourceforge.net/DTD/sodipodi-0.dtd"
   xmlns:inkscape="http://www.inkscape.org/namespaces/inkscape"
   width="13.229167mm"
   height="13.229167mm"
   viewBox="0 0 13.229167 13.229167"
   version="1.1"
   id="svg8"
   sodipodi:docname="VCS_resized_10.svg"
   inkscape:version="1.0.2-2 (e86c870879, 2021-01-15)">
  <defs
     id="defs2" />
  <sodipodi:namedview
     id="base"
     pagecolor="#ffffff"
     bordercolor="#666666"
     borderopacity="1.0"
     inkscape:pageopacity="0.0"
     inkscape:pageshadow="2"
     inkscape:zoom="2.8284271"
     inkscape:cx="-4.6441074"
     inkscape:cy="60.084203"
     inkscape:document-units="mm"
     inkscape:current-layer="layer1"
     inkscape:document-rotation="0"
     showgrid="false"
     inkscape:window-width="958"
     inkscape:window-height="1008"
     inkscape:window-x="1913"
     inkscape:window-y="0"
     inkscape:window-maximized="0" />
  <metadata
     id="metadata5">
    <rdf:RDF>
      <cc:Work
         rdf:about="">
        <dc:format>image/svg+xml</dc:format>
        <dc:type
           rdf:resource="http://purl.org/dc/dcmitype/StillImage" />
        <dc:title></dc:title>
      </cc:Work>
    </rdf:RDF>
  </metadata>
  <g
     inkscape:label="Ebene 1"
     inkscape:groupmode="layer"
     id="layer1"
     transform="translate(-39.428741,-10.694333)">
    <path
       style="fill:#000000;stroke-width:0.264582"
       d="m 44.126515,22.729359 c -0.123792,-0.07237 -0.348056,-0.609874 -0.41961,-1.005697 -0.07433,-0.411201 -0.04021,-0.814389 0.138832,-1.640416 0.160954,-0.742568 0.189614,-1.631264 0.06061,-1.879396 -0.144442,-0.27783 -0.492414,-0.532824 -1.446582,-1.060059 -0.825204,-0.455975 -1.254242,-0.747278 -1.618552,-1.098951 -0.516544,-0.498625 -0.520128,-0.742911 -0.01368,-0.932397 0.681482,-0.254975 1.122656,-0.259744 2.774968,-0.03 0.305594,0.04249 0.76877,0.07777 1.02928,0.0784 l 0.473652,0.0011 0.295278,-0.304271 c 0.178326,-0.18376 0.438804,-0.555773 0.657662,-0.939271 0.439718,-0.770505 0.74034,-1.198721 1.045012,-1.488549 0.321596,-0.305929 0.7764,-0.611009 0.881878,-0.591558 0.128956,0.02378 0.31149,0.429778 0.411444,0.915148 0.100482,0.487935 0.07997,0.856091 -0.09178,1.647089 -0.08011,0.368973 -0.115318,0.723937 -0.119376,1.203702 l -0.0058,0.680415 0.3175,0.283115 c 0.174626,0.155713 0.627062,0.466293 1.005416,0.690177 1.14169,0.675575 1.554358,0.998231 1.944688,1.520512 0.236636,0.31663 0.246304,0.417531 0.05292,0.552209 -0.378864,0.263845 -1.089038,0.358144 -1.845746,0.245081 -1.142762,-0.170745 -1.338438,-0.188152 -1.92671,-0.1714 -0.557636,0.01588 -0.62436,0.02872 -0.768108,0.147788 -0.279964,0.231898 -0.661998,0.732902 -0.96069,1.259861 -0.314284,0.554469 -0.65331,1.074464 -0.830768,1.274224 -0.176448,0.198626 -0.858548,0.702014 -0.940542,0.694117 -0.0092,-8.8e-4 -0.05475,-0.02385 -0.101238,-0.05103 z m 0.423404,-0.447442 c 0.263842,-0.136439 0.656546,-0.629848 1.102644,-1.385411 0.463176,-0.784491 0.888728,-1.343429 1.20856,-1.587377 0.193594,-0.147661 0.201344,-0.148842 0.96858,-0.147635 0.565094,8.8e-4 0.965568,0.03436 1.486746,0.124262 0.530898,0.09158 0.812988,0.114619 1.103054,0.0901 0.39018,-0.03298 0.855918,-0.192176 0.855918,-0.292562 0,-0.289899 -0.592172,-0.809516 -1.66463,-1.460673 -0.884888,-0.537271 -1.505992,-1.012533 -1.611112,-1.232803 -0.110394,-0.231321 -0.06989,-1.330186 0.07401,-2.008149 0.16732,-0.788271 0.175022,-1.377637 0.0233,-1.783141 -0.06009,-0.160612 -0.131996,-0.306073 -0.159786,-0.323247 -0.108232,-0.06689 -0.426654,0.101353 -0.694198,0.366794 -0.28185,0.279634 -0.460354,0.542959 -1.062536,1.567421 -0.17963,0.305593 -0.458112,0.690504 -0.618848,0.855357 -0.267398,0.274245 -0.317284,0.302783 -0.586676,0.335597 -0.161934,0.01973 -0.435778,0.02191 -0.60854,0.0049 -0.172764,-0.01705 -0.468896,-0.04451 -0.658074,-0.06101 -0.189178,-0.0165 -0.593894,-0.06721 -0.89937,-0.112686 -1.02708,-0.152894 -2.004264,0.0013 -2.010236,0.317192 -4e-4,0.02357 0.124204,0.175502 0.277002,0.337626 0.296928,0.315053 0.708112,0.601935 1.389062,0.969143 1.046658,0.564419 1.67552,1.061626 1.738028,1.374161 0.06246,0.312305 0.03639,1.147802 -0.04902,1.571039 -0.04604,0.228118 -0.117444,0.581447 -0.158688,0.785176 -0.09266,0.45772 -0.09294,0.862207 -8e-4,1.247154 0.127388,0.532558 0.231344,0.616522 0.555664,0.44881 z"
       id="path152" />
  </g>
</svg>
