<?xml version="1.0" encoding="UTF-8" standalone="no"?>
<svg
   xmlns:dc="http://purl.org/dc/elements/1.1/"
   xmlns:cc="http://creativecommons.org/ns#"
   xmlns:rdf="http://www.w3.org/1999/02/22-rdf-syntax-ns#"
   xmlns:svg="http://www.w3.org/2000/svg"
   xmlns="http://www.w3.org/2000/svg"
   xmlns:sodipodi="http://sodipodi.sourceforge.net/DTD/sodipodi-0.dtd"
   xmlns:inkscape="http://www.inkscape.org/namespaces/inkscape"
   width="13.229167mm"
   height="13.229167mm"
   viewBox="0 0 13.229169 13.229168"
   version="1.1"
   id="svg8"
   sodipodi:docname="VCS_resized_322.svg"
   inkscape:version="1.0.2-2 (e86c870879, 2021-01-15)">
  <defs
     id="defs2" />
  <sodipodi:namedview
     id="base"
     pagecolor="#ffffff"
     bordercolor="#666666"
     borderopacity="1.0"
     inkscape:pageopacity="0.0"
     inkscape:pageshadow="2"
     inkscape:zoom="4"
     inkscape:cx="19.414741"
     inkscape:cy="30.644238"
     inkscape:document-units="mm"
     inkscape:current-layer="layer1"
     inkscape:document-rotation="0"
     showgrid="false"
     inkscape:window-width="958"
     inkscape:window-height="1008"
     inkscape:window-x="1913"
     inkscape:window-y="0"
     inkscape:window-maximized="0" />
  <metadata
     id="metadata5">
    <rdf:RDF>
      <cc:Work
         rdf:about="">
        <dc:format>image/svg+xml</dc:format>
        <dc:type
           rdf:resource="http://purl.org/dc/dcmitype/StillImage" />
        <dc:title></dc:title>
      </cc:Work>
    </rdf:RDF>
  </metadata>
  <g
     inkscape:label="Ebene 1"
     inkscape:groupmode="layer"
     id="layer1"
     transform="translate(-92.736778,16.531174)">
    <path
       style="fill:#000000;stroke-width:0.264582"
       d="m 99.035315,-3.9538089 c -0.141102,-0.063145 -1.483618,-0.9239764 -1.511598,-0.9692482 -0.0148,-0.02394 -0.06199,-0.311902 -0.104876,-0.639915 -0.04288,-0.3280134 -0.111406,-0.7987944 -0.15227,-1.0461798 -0.04086,-0.2473854 -0.102574,-0.6595286 -0.137134,-0.9158732 -0.07321,-0.5430108 0.01476,-0.4602486 -1.163356,-1.0945914 -0.392318,-0.2112418 -0.820464,-0.443711 -0.951432,-0.5165994 -0.13097,-0.072888 -0.452438,-0.2509298 -0.714376,-0.395648 -1.164498,-0.6433761 -1.429864,-0.8244381 -1.340002,-0.9142991 0.04138,-0.04138 1.329968,-0.385082 2.371878,-0.632639 1.798714,-0.427373 2.141686,-0.517411 2.201102,-0.577841 0.03189,-0.03243 0.13222,-0.237561 0.222964,-0.455842 0.725548,-1.745305 1.515042,-3.592603 1.577424,-3.690938 0.103462,-0.163089 0.213508,-0.149262 0.310894,0.03906 0.07988,0.154475 0.622787,1.564582 0.927237,2.408333 0.35234,0.976489 0.63876,1.694133 0.70048,1.755072 0.0363,0.03581 0.54219,0.199774 1.12427,0.364358 1.51412,0.428117 3.27209,0.972735 3.33143,1.032077 0.10569,0.105692 0.0701,0.126416 -2.37893,1.3863549 -0.90222,0.4641606 -1.66617,0.8762958 -1.69765,0.9158568 -0.0514,0.064601 -0.17626,0.7174272 -0.41937,2.1927396 -0.14204,0.8620258 -0.13609,0.8502402 -0.56796,1.1236464 -0.924759,0.5854424 -1.357617,0.7534364 -1.628725,0.6321134 z m 0.703466,-0.4130866 c 0.21028,-0.1055508 0.540999,-0.2942342 0.734929,-0.4192968 0.33788,-0.2178966 0.35497,-0.23915 0.40958,-0.5092356 0.0653,-0.323215 0.20722,-1.098468 0.37598,-2.0545574 0.0642,-0.363802 0.14783,-0.6942492 0.18582,-0.7343268 0.038,-0.040078 0.88507,-0.4934928 1.8824,-1.0075894 0.99733,-0.514096 1.82223,-0.9614055 1.8331,-0.9940205 0.0178,-0.05351 -0.22107,-0.136771 -1.54698,-0.539178 -0.17463,-0.053 -0.81393,-0.23642 -1.42068,-0.407605 -0.97907,-0.276226 -1.1111,-0.32656 -1.17358,-0.447366 -0.0387,-0.07487 -0.23693,-0.587864 -0.44049,-1.139992 -0.20356,-0.552129 -0.39466,-1.062654 -0.42467,-1.134501 -0.03,-0.07185 -0.13747,-0.356848 -0.238793,-0.633338 -0.101326,-0.276489 -0.217994,-0.586052 -0.25926,-0.687916 -0.04127,-0.101865 -0.09123,-0.230862 -0.111036,-0.286661 -0.0698,-0.196685 -0.08876,-0.157234 -1.167442,2.429785 -0.242706,0.582084 -0.488138,1.16549 -0.545402,1.296459 l -0.104118,0.238125 -0.682058,0.167324 c -0.375132,0.09203 -1.289276,0.313068 -2.031432,0.491198 -0.742156,0.17813 -1.385094,0.347088 -1.42875,0.37546 -0.10973,0.07132 0.01406,0.160985 0.840256,0.6086055 1.302162,0.7054982 2.574764,1.4148906 2.712252,1.5119038 0.167804,0.1184032 0.193828,0.2454948 0.497206,2.4282168 0.04248,0.3055936 0.0889,0.6059752 0.103172,0.6675146 0.03144,0.1355756 1.364114,0.971677 1.550204,0.972576 0.03711,1.588e-4 0.239514,-0.086033 0.449792,-0.1915842 z"
       id="path6071" />
  </g>
</svg>
