<?xml version="1.0" encoding="UTF-8" standalone="no"?>
<svg
   xmlns:dc="http://purl.org/dc/elements/1.1/"
   xmlns:cc="http://creativecommons.org/ns#"
   xmlns:rdf="http://www.w3.org/1999/02/22-rdf-syntax-ns#"
   xmlns:svg="http://www.w3.org/2000/svg"
   xmlns="http://www.w3.org/2000/svg"
   xmlns:sodipodi="http://sodipodi.sourceforge.net/DTD/sodipodi-0.dtd"
   xmlns:inkscape="http://www.inkscape.org/namespaces/inkscape"
   width="13.229167mm"
   height="13.229167mm"
   viewBox="0 0 13.229169 13.229168"
   version="1.1"
   id="svg8"
   sodipodi:docname="VCS_resized_122.svg"
   inkscape:version="1.0.2-2 (e86c870879, 2021-01-15)">
  <defs
     id="defs2" />
  <sodipodi:namedview
     id="base"
     pagecolor="#ffffff"
     bordercolor="#666666"
     borderopacity="1.0"
     inkscape:pageopacity="0.0"
     inkscape:pageshadow="2"
     inkscape:zoom="2.8284271"
     inkscape:cx="-6.6689976"
     inkscape:cy="55.79093"
     inkscape:document-units="mm"
     inkscape:current-layer="layer1"
     inkscape:document-rotation="0"
     showgrid="false"
     inkscape:window-width="958"
     inkscape:window-height="1008"
     inkscape:window-x="1913"
     inkscape:window-y="0"
     inkscape:window-maximized="0" />
  <metadata
     id="metadata5">
    <rdf:RDF>
      <cc:Work
         rdf:about="">
        <dc:format>image/svg+xml</dc:format>
        <dc:type
           rdf:resource="http://purl.org/dc/dcmitype/StillImage" />
        <dc:title></dc:title>
      </cc:Work>
    </rdf:RDF>
  </metadata>
  <g
     inkscape:label="Ebene 1"
     inkscape:groupmode="layer"
     id="layer1"
     transform="translate(-39.964489,-11.830262)">
    <path
       style="fill:#000000;stroke-width:0.264582"
       d="m 44.833856,24.549636 c -0.363802,-0.09639 -0.760656,-0.202089 -0.881896,-0.234891 -0.194124,-0.05252 -0.297914,-0.15271 -0.869484,-0.839322 -0.356976,-0.428825 -0.705054,-0.837299 -0.77351,-0.90772 -0.233722,-0.240435 -0.617384,-0.81862 -0.738416,-1.112802 -0.0888,-0.21585 -0.121182,-0.400317 -0.122104,-0.695643 -0.0012,-0.378402 0.0107,-0.42017 0.203376,-0.714375 0.112548,-0.171861 0.34083,-0.441954 0.507292,-0.600205 0.43975,-0.418057 0.638538,-0.678046 0.827996,-1.082912 0.13849,-0.295944 0.1674,-0.421249 0.16413,-0.711372 -0.0057,-0.504304 -0.111514,-0.785852 -0.521706,-1.38793 -0.57675,-0.846551 -0.73277,-1.110004 -0.887998,-1.499468 -0.123392,-0.30959 -0.145282,-0.440521 -0.142754,-0.853841 0.0045,-0.742757 0.268572,-1.3251 0.717818,-1.583238 0.312876,-0.179778 0.51544,-0.207354 0.83627,-0.113845 0.342612,0.09986 0.67273,0.330668 1.426866,0.997628 1.030882,0.911715 1.404594,1.099703 2.181954,1.097588 0.671528,-0.0018 1.027198,-0.212731 2.107758,-1.249839 0.751928,-0.721694 0.993842,-0.875959 1.388338,-0.885327 0.751064,-0.01784 1.304204,0.729229 1.305832,1.763642 8e-4,0.5272 -0.120804,0.917146 -0.429862,1.378102 -0.107324,0.160073 -0.374284,0.556421 -0.593244,0.880772 -0.444278,0.658121 -0.550764,0.943688 -0.53979,1.447562 0.01316,0.604202 0.201256,0.964645 0.872266,1.671499 0.32661,0.344057 0.63409,0.723153 0.71326,0.879388 0.123206,0.243135 0.136422,0.320442 0.115276,0.674263 -0.03674,0.614655 -0.139358,0.775507 -1.637404,2.566476 l -0.705888,0.843918 -0.47625,0.12402 c -1.30798,0.34061 -1.242728,0.331505 -2.344916,0.327196 -1.004376,-0.0039 -1.065484,-0.01036 -1.70321,-0.179324 z m 3.780012,-0.348772 0.63147,-0.182206 1.023928,-1.243117 c 1.220464,-1.481726 1.298092,-1.644525 1.10085,-2.308708 -0.06137,-0.206668 -0.196064,-0.395306 -0.62241,-0.871708 -0.63958,-0.714666 -0.868008,-1.052687 -0.969796,-1.435065 -0.194578,-0.730959 0.0094,-1.436444 0.68793,-2.378953 0.407922,-0.566644 0.680028,-1.047112 0.75356,-1.330581 0.158066,-0.609366 0.02894,-1.342995 -0.28705,-1.630809 -0.275138,-0.250606 -0.438184,-0.324131 -0.65446,-0.295123 -0.369382,0.04954 -0.678318,0.253313 -1.348302,0.889312 -0.9585,0.909882 -1.432436,1.159127 -2.204058,1.159127 -0.803346,0 -1.348008,-0.269352 -2.329144,-1.151833 -0.487644,-0.438611 -0.9891,-0.768126 -1.32201,-0.868712 -0.378552,-0.114378 -0.82902,0.123236 -1.059304,0.558764 -0.09733,0.184081 -0.115606,0.306351 -0.116742,0.781193 -0.0014,0.554941 0.0016,0.568877 0.212464,0.978959 0.117598,0.228802 0.397384,0.692941 0.62175,1.03142 0.533032,0.804135 0.685844,1.199323 0.693334,1.793055 0.0051,0.406374 -0.01094,0.484208 -0.163776,0.79375 -0.103266,0.209135 -0.37874,0.580907 -0.705212,0.951737 -0.794616,0.90258 -0.81891,0.94493 -0.817392,1.424886 0.0018,0.545182 0.075,0.669875 1.180876,2.009427 0.70788,0.85746 0.95771,1.124697 1.093254,1.169431 0.09663,0.03189 0.44573,0.127953 0.775774,0.21347 0.595668,0.154344 0.60961,0.155372 1.896538,0.139988 l 1.296458,-0.0155 z"
       id="path1994" />
  </g>
</svg>
