<?xml version="1.0" encoding="UTF-8" standalone="no"?>
<svg
   xmlns:dc="http://purl.org/dc/elements/1.1/"
   xmlns:cc="http://creativecommons.org/ns#"
   xmlns:rdf="http://www.w3.org/1999/02/22-rdf-syntax-ns#"
   xmlns:svg="http://www.w3.org/2000/svg"
   xmlns="http://www.w3.org/2000/svg"
   xmlns:sodipodi="http://sodipodi.sourceforge.net/DTD/sodipodi-0.dtd"
   xmlns:inkscape="http://www.inkscape.org/namespaces/inkscape"
   width="13.229167mm"
   height="13.229167mm"
   viewBox="0 0 13.229169 13.229168"
   version="1.1"
   id="svg8"
   sodipodi:docname="VCS_resized_318.svg"
   inkscape:version="1.0.2-2 (e86c870879, 2021-01-15)">
  <defs
     id="defs2" />
  <sodipodi:namedview
     id="base"
     pagecolor="#ffffff"
     bordercolor="#666666"
     borderopacity="1.0"
     inkscape:pageopacity="0.0"
     inkscape:pageshadow="2"
     inkscape:zoom="4"
     inkscape:cx="10.920898"
     inkscape:cy="44.503771"
     inkscape:document-units="mm"
     inkscape:current-layer="layer1"
     inkscape:document-rotation="0"
     showgrid="false"
     inkscape:window-width="958"
     inkscape:window-height="1008"
     inkscape:window-x="1913"
     inkscape:window-y="0"
     inkscape:window-maximized="0" />
  <metadata
     id="metadata5">
    <rdf:RDF>
      <cc:Work
         rdf:about="">
        <dc:format>image/svg+xml</dc:format>
        <dc:type
           rdf:resource="http://purl.org/dc/dcmitype/StillImage" />
        <dc:title></dc:title>
      </cc:Work>
    </rdf:RDF>
  </metadata>
  <g
     inkscape:label="Ebene 1"
     inkscape:groupmode="layer"
     id="layer1"
     transform="translate(-94.984108,20.198175)">
    <path
       style="fill:#000000;stroke-width:0.264582"
       d="m 100.5588,-7.9652618 c -0.919938,-0.4608724 -0.858046,-0.385926 -0.95045,-1.1509022 -0.05884,-0.487116 -0.3071,-2.151399 -0.35314,-2.367392 -0.02351,-0.110278 -0.116814,-0.195696 -0.384002,-0.351534 -0.194122,-0.113223 -1.009562,-0.586464 -1.81209,-1.051646 -0.802528,-0.465183 -1.558574,-0.908557 -1.680104,-0.985275 -0.213246,-0.134617 -0.265344,-0.210319 -0.18073,-0.262613 0.04619,-0.02855 1.436458,-0.381848 3.055392,-0.776448 0.611188,-0.148971 1.198064,-0.293211 1.304168,-0.320532 0.207896,-0.05353 0.21195,-0.06101 0.786656,-1.450859 0.0963,-0.232833 0.32222,-0.768615 0.50209,-1.190625 0.17988,-0.42201 0.40667,-0.954524 0.504,-1.183363 0.19479,-0.458 0.28082,-0.573145 0.3954,-0.529179 0.0419,0.01607 0.44965,0.973508 0.90618,2.127647 0.45653,1.15414 0.85066,2.125234 0.87585,2.157987 0.0252,0.03275 0.15845,0.08953 0.29614,0.126182 0.13769,0.03665 0.5361,0.145454 0.88535,0.241792 0.34925,0.09634 0.89694,0.245132 1.21709,0.330651 0.95798,0.255906 2.05377,0.586511 2.1012,0.633949 0.0244,0.02443 0.002,0.08249 -0.0494,0.129018 -0.087,0.07841 -2.84467,1.647731 -3.60474,2.051357 -0.18475,0.0981 -0.35442,0.227393 -0.37705,0.28731 -0.0226,0.05992 -0.11654,0.573284 -0.20869,1.140816 -0.0921,0.567531 -0.20568,1.255501 -0.25232,1.5288214 l -0.0848,0.4969474 -0.77292,0.3719708 c -1.07724,0.5184188 -1.07611,0.5184208 -2.11906,-0.00408 z m 1.49601,-0.013806 c 0.2086,-0.088081 0.55045,-0.2452052 0.75966,-0.3491648 0.44648,-0.2218636 0.3725,-0.01458 0.70546,-1.9766074 0.12089,-0.712412 0.24128,-1.335412 0.26752,-1.384445 0.0262,-0.04903 0.25635,-0.202426 0.51135,-0.340874 0.52214,-0.283494 3.15038,-1.770035 3.18443,-1.801128 0.0599,-0.05471 10e-4,-0.07472 -1.1333,-0.388135 -0.32015,-0.08842 -0.96308,-0.266988 -1.42875,-0.396814 -0.46567,-0.129826 -1.01276,-0.278813 -1.21576,-0.331082 l -0.3691,-0.09503 -0.30309,-0.767138 c -1.05603,-2.672912 -1.29327,-3.248763 -1.34533,-3.265507 -0.032,-0.01031 -0.10099,0.09517 -0.15321,0.234395 -0.0522,0.139228 -0.25604,0.622234 -0.45295,1.073349 -0.19691,0.451115 -0.46494,1.082146 -0.59563,1.402292 -0.13069,0.320145 -0.29146,0.713052 -0.35728,0.873125 -0.0658,0.160073 -0.149666,0.324063 -0.18633,0.364424 -0.03666,0.04036 -0.987276,0.302298 -2.112472,0.582083 -1.125196,0.279786 -2.047446,0.532513 -2.049444,0.561618 -0.0037,0.05337 0.498032,0.356902 2.402626,1.453589 0.572432,0.329613 1.101132,0.649365 1.174892,0.710562 0.108938,0.09038 0.14432,0.185751 0.188514,0.50814 0.143376,1.045863 0.379752,2.6289388 0.404534,2.7092728 0.01526,0.049443 0.08009,0.105909 0.14409,0.1254786 0.064,0.01957 0.33066,0.1427744 0.5926,0.2737876 0.49956,0.2498656 0.79894,0.3739802 0.91717,0.3802328 0.0388,0.00205 0.24119,-0.068338 0.4498,-0.1564186 z"
       id="path6005" />
  </g>
</svg>
