<?xml version="1.0" encoding="UTF-8" standalone="no"?>
<svg
   xmlns:dc="http://purl.org/dc/elements/1.1/"
   xmlns:cc="http://creativecommons.org/ns#"
   xmlns:rdf="http://www.w3.org/1999/02/22-rdf-syntax-ns#"
   xmlns:svg="http://www.w3.org/2000/svg"
   xmlns="http://www.w3.org/2000/svg"
   xmlns:sodipodi="http://sodipodi.sourceforge.net/DTD/sodipodi-0.dtd"
   xmlns:inkscape="http://www.inkscape.org/namespaces/inkscape"
   width="13.229167mm"
   height="13.229167mm"
   viewBox="0 0 13.229169 13.229168"
   version="1.1"
   id="svg8"
   sodipodi:docname="VCS_resized_150.svg"
   inkscape:version="1.0.2-2 (e86c870879, 2021-01-15)">
  <defs
     id="defs2" />
  <sodipodi:namedview
     id="base"
     pagecolor="#ffffff"
     bordercolor="#666666"
     borderopacity="1.0"
     inkscape:pageopacity="0.0"
     inkscape:pageshadow="2"
     inkscape:zoom="2.8284271"
     inkscape:cx="-0.85599916"
     inkscape:cy="55.311542"
     inkscape:document-units="mm"
     inkscape:current-layer="layer1"
     inkscape:document-rotation="0"
     showgrid="false"
     inkscape:window-width="958"
     inkscape:window-height="1008"
     inkscape:window-x="1913"
     inkscape:window-y="0"
     inkscape:window-maximized="0" />
  <metadata
     id="metadata5">
    <rdf:RDF>
      <cc:Work
         rdf:about="">
        <dc:format>image/svg+xml</dc:format>
        <dc:type
           rdf:resource="http://purl.org/dc/dcmitype/StillImage" />
        <dc:title></dc:title>
      </cc:Work>
    </rdf:RDF>
  </metadata>
  <g
     inkscape:label="Ebene 1"
     inkscape:groupmode="layer"
     id="layer1"
     transform="translate(-38.426464,-11.9571)">
    <path
       style="fill:#000000;stroke-width:0.264582"
       d="m 43.428659,24.67776 c -0.05821,-0.01028 -0.359734,-0.04746 -0.670058,-0.08261 -0.310324,-0.03515 -0.5878,-0.07852 -0.616612,-0.09636 -0.02881,-0.01784 -0.295602,-0.413442 -0.592864,-0.879109 -0.297262,-0.465667 -0.76674,-1.176998 -1.043284,-1.580737 -0.697618,-1.01848 -0.91364,-1.537303 -0.91364,-2.194292 0,-0.545006 0.139948,-0.873935 0.709704,-1.668052 0.440504,-0.613968 0.594786,-1.215565 0.449716,-1.753586 -0.03139,-0.116416 -0.214938,-0.544424 -0.407882,-0.951128 -0.339818,-0.716294 -0.351474,-0.754657 -0.37202,-1.224405 -0.0247,-0.564831 0.02272,-0.744283 0.310632,-1.175435 0.26081,-0.390564 0.600254,-0.591323 0.999812,-0.591323 0.202874,0 0.405674,0.05664 0.78659,0.219683 0.282282,0.120826 0.85852,0.311237 1.28053,0.423136 0.760018,0.201524 0.776726,0.203455 1.762534,0.20365 1.289318,2.54e-4 1.820008,-0.09978 2.656008,-0.500671 0.797762,-0.382553 0.91025,-0.414561 1.216046,-0.346031 0.429166,0.09618 0.680416,0.313855 0.92401,0.80054 0.184906,0.369433 0.214736,0.476736 0.214736,0.772453 0,0.479342 -0.127586,0.926443 -0.39682,1.390573 -0.34862,0.600984 -0.46626,1.00092 -0.43583,1.481667 0.03074,0.485662 0.15976,0.795538 0.54374,1.305951 0.607326,0.807299 0.743306,1.269106 0.60869,2.067201 -0.0956,0.566779 -0.385016,1.077288 -2.039572,3.59765 -0.415848,0.633458 -0.365352,0.603604 -1.190624,0.703915 -0.465574,0.05659 -3.544676,0.119516 -3.783542,0.07732 z m 3.430476,-0.296169 c 0.35426,-0.03206 0.721144,-0.09023 0.815298,-0.129262 0.122354,-0.05072 0.252272,-0.196377 0.455398,-0.510559 0.156314,-0.241776 0.578654,-0.892029 0.938536,-1.445009 0.35988,-0.552979 0.750264,-1.195916 0.867518,-1.42875 0.20654,-0.410129 0.21319,-0.439838 0.21319,-0.9525 0,-0.617724 -0.08487,-0.84839 -0.554144,-1.506049 -0.15396,-0.215767 -0.348226,-0.536674 -0.431704,-0.713127 -0.13313,-0.281409 -0.151782,-0.381164 -0.151818,-0.811972 -5.4e-5,-0.662391 0.08851,-0.925913 0.63132,-1.878475 0.147426,-0.258712 0.178566,-0.374259 0.20197,-0.749403 0.0258,-0.413514 0.01676,-0.466867 -0.13371,-0.788394 -0.19358,-0.413669 -0.459364,-0.619574 -0.847948,-0.656912 -0.236966,-0.02277 -0.477958,0.04764 -1.0423,0.304537 -0.599178,0.272752 -1.209944,0.417435 -1.99806,0.473316 -1.25272,0.08882 -2.099122,-0.03616 -3.556206,-0.525116 -0.435472,-0.146133 -0.882904,-0.265696 -0.994296,-0.265696 -0.278792,0 -0.593136,0.173228 -0.77838,0.428948 -0.229222,0.316432 -0.28266,0.531388 -0.253486,1.01965 0.02378,0.39803 0.05158,0.483063 0.374476,1.145584 0.284124,0.582969 0.36554,0.810201 0.439162,1.225702 0.09001,0.507994 0.08989,0.511418 -0.02958,0.8454 -0.06598,0.184438 -0.244916,0.525841 -0.397648,0.758674 -0.493392,0.75216 -0.55026,0.855717 -0.640638,1.166609 -0.0624,0.214651 -0.08176,0.425945 -0.06482,0.707436 0.03058,0.508101 0.151114,0.752136 0.990628,2.005677 0.344656,0.514632 0.806716,1.214755 1.026798,1.555827 0.271802,0.421225 0.43918,0.629929 0.521832,0.650673 0.499278,0.125312 3.306604,0.172024 4.398606,0.07319 z"
       id="path2444" />
  </g>
</svg>
