<?xml version="1.0" encoding="UTF-8" standalone="no"?>
<svg
   xmlns:dc="http://purl.org/dc/elements/1.1/"
   xmlns:cc="http://creativecommons.org/ns#"
   xmlns:rdf="http://www.w3.org/1999/02/22-rdf-syntax-ns#"
   xmlns:svg="http://www.w3.org/2000/svg"
   xmlns="http://www.w3.org/2000/svg"
   xmlns:sodipodi="http://sodipodi.sourceforge.net/DTD/sodipodi-0.dtd"
   xmlns:inkscape="http://www.inkscape.org/namespaces/inkscape"
   width="13.229167mm"
   height="13.229167mm"
   viewBox="0 0 13.229169 13.229168"
   version="1.1"
   id="svg8"
   sodipodi:docname="VCS_resized_275.svg"
   inkscape:version="1.0.2-2 (e86c870879, 2021-01-15)">
  <defs
     id="defs2" />
  <sodipodi:namedview
     id="base"
     pagecolor="#ffffff"
     bordercolor="#666666"
     borderopacity="1.0"
     inkscape:pageopacity="0.0"
     inkscape:pageshadow="2"
     inkscape:zoom="4"
     inkscape:cx="22.113538"
     inkscape:cy="48.415827"
     inkscape:document-units="mm"
     inkscape:current-layer="layer1"
     inkscape:document-rotation="0"
     showgrid="false"
     inkscape:window-width="958"
     inkscape:window-height="1008"
     inkscape:window-x="1913"
     inkscape:window-y="0"
     inkscape:window-maximized="0" />
  <metadata
     id="metadata5">
    <rdf:RDF>
      <cc:Work
         rdf:about="">
        <dc:format>image/svg+xml</dc:format>
        <dc:type
           rdf:resource="http://purl.org/dc/dcmitype/StillImage" />
        <dc:title></dc:title>
      </cc:Work>
    </rdf:RDF>
  </metadata>
  <g
     inkscape:label="Ebene 1"
     inkscape:groupmode="layer"
     id="layer1"
     transform="translate(-79.840546,17.730967)">
    <path
       style="fill:#000000;stroke-width:0.264582"
       d="m 83.012254,-5.0318687 c 0,-0.095085 -0.02222,-0.5415694 -0.04938,-0.9921876 -0.02716,-0.4506176 -0.07773,-1.34318 -0.112372,-1.9834716 l -0.06299,-1.1641668 -0.217176,-0.2645832 c -0.334884,-0.4079902 -1.5485,-1.7862461 -2.143392,-2.4341671 -0.505412,-0.550466 -0.590302,-0.675524 -0.497084,-0.732302 0.02183,-0.0133 0.919814,-0.23151 1.995522,-0.48492 1.075708,-0.253411 2.006578,-0.48004 2.068598,-0.503621 0.100158,-0.03808 0.550028,-0.766068 2.108544,-3.412073 0.176064,-0.298917 0.243276,-0.370417 0.348202,-0.370417 0.13437,0 0.276662,0.219326 1.32173,2.037292 0.175672,0.305594 0.481146,0.816291 0.67883,1.134882 l 0.359428,0.579258 0.474208,0.12047 c 0.260816,0.06626 1.081428,0.26501 1.823584,0.441671 1.639568,0.390276 1.905,0.463904 1.905,0.52842 0,0.02754 -0.256926,0.342393 -0.570948,0.699667 -2.260812,2.5722123 -2.330268,2.6563995 -2.362082,2.8631091 -0.02941,0.1910576 -0.132656,2.1635534 -0.174284,3.3295018 l -0.02787,0.7805208 h -3.433034 -3.433036 z m 6.632932,-0.8722218 c 0.01892,-0.4292864 0.06685,-1.3563764 0.10649,-2.0602004 l 0.07207,-1.2796794 0.894096,-1.0221957 c 1.52479,-1.743252 1.826502,-2.105615 1.795266,-2.156157 -0.01662,-0.02689 -0.309686,-0.112935 -0.651266,-0.191215 -0.341576,-0.07828 -1.15683,-0.270409 -1.811674,-0.426952 -0.654844,-0.156543 -1.24144,-0.296411 -1.303548,-0.310818 -0.07897,-0.01832 -0.276716,-0.300838 -0.657638,-0.939541 -0.299596,-0.50234 -0.667192,-1.115752 -0.816882,-1.363137 -0.14969,-0.247386 -0.371782,-0.631513 -0.493538,-0.853616 -0.331264,-0.60428 -0.32155,-0.603771 -0.64422,-0.03378 -0.152724,0.269786 -0.634298,1.091507 -1.070164,1.826047 -0.75226,1.267742 -0.802286,1.338097 -0.985642,1.38616 -0.320124,0.08391 -1.450194,0.350979 -2.614098,0.617783 -0.603912,0.138436 -1.098006,0.277125 -1.097988,0.308199 1.8e-5,0.03107 0.204848,0.282716 0.455176,0.559206 0.250328,0.276489 0.82665,0.931333 1.280714,1.455208 0.454064,0.5238751 0.846042,0.9667357 0.871064,0.9841347 0.06338,0.044072 0.127354,0.8434414 0.196522,2.4554486 0.03247,0.7567084 0.07126,1.4770366 0.08621,1.6007292 l 0.02718,0.2248958 h 3.163724 3.163724 z"
       id="path5315" />
  </g>
</svg>
