<?xml version="1.0" encoding="UTF-8" standalone="no"?>
<svg
   xmlns:dc="http://purl.org/dc/elements/1.1/"
   xmlns:cc="http://creativecommons.org/ns#"
   xmlns:rdf="http://www.w3.org/1999/02/22-rdf-syntax-ns#"
   xmlns:svg="http://www.w3.org/2000/svg"
   xmlns="http://www.w3.org/2000/svg"
   xmlns:sodipodi="http://sodipodi.sourceforge.net/DTD/sodipodi-0.dtd"
   xmlns:inkscape="http://www.inkscape.org/namespaces/inkscape"
   width="13.229167mm"
   height="13.229167mm"
   viewBox="0 0 13.229167 13.229167"
   version="1.1"
   id="svg8"
   inkscape:version="1.0.2-2 (e86c870879, 2021-01-15)"
   sodipodi:docname="VCS_resized_1_blue.svg">
  <defs
     id="defs2" />
  <sodipodi:namedview
     id="base"
     pagecolor="#ffffff"
     bordercolor="#666666"
     borderopacity="1.0"
     inkscape:pageopacity="0.0"
     inkscape:pageshadow="2"
     inkscape:zoom="3.959798"
     inkscape:cx="24.902908"
     inkscape:cy="3.5018919"
     inkscape:document-units="mm"
     inkscape:current-layer="layer1"
     inkscape:document-rotation="0"
     showgrid="false"
     inkscape:window-width="958"
     inkscape:window-height="1008"
     inkscape:window-x="1913"
     inkscape:window-y="0"
     inkscape:window-maximized="0" />
  <metadata
     id="metadata5">
    <rdf:RDF>
      <cc:Work
         rdf:about="">
        <dc:format>image/svg+xml</dc:format>
        <dc:type
           rdf:resource="http://purl.org/dc/dcmitype/StillImage" />
        <dc:title></dc:title>
      </cc:Work>
    </rdf:RDF>
  </metadata>
  <g
     inkscape:label="Ebene 1"
     inkscape:groupmode="layer"
     id="layer1"
     transform="translate(-83.89695,-133.2455)">
    <path
       style="fill:#00112b;stroke-width:0.264582"
       d="m 88.99997,145.28954 c -0.251966,-0.49723 -0.303996,-0.89949 -0.292816,-2.26381 0.0062,-0.75915 -0.01438,-1.3906 -0.05325,-1.63148 -0.06229,-0.38616 -0.06808,-0.39648 -0.333256,-0.59418 -0.148422,-0.11066 -0.755012,-0.44254 -1.347974,-0.73752 -1.12957,-0.56192 -1.849528,-0.99941 -2.120566,-1.2886 -0.08857,-0.0945 -0.161148,-0.18512 -0.161284,-0.20139 -0.0018,-0.207 0.679452,-0.45503 1.438076,-0.52362 0.30033,-0.0272 1.020252,-0.0636 1.599828,-0.0811 0.579574,-0.0174 1.069264,-0.0413 1.0882,-0.053 0.01894,-0.0117 0.148146,-0.0272 0.287134,-0.0344 0.224941,-0.0116 0.271703,-0.0367 0.425583,-0.22784 0.196344,-0.24391 0.524083,-0.80409 0.744847,-1.2731 0.370508,-0.78713 0.745634,-1.3399 1.29638,-1.9103 0.320014,-0.33144 0.337004,-0.34139 0.425484,-0.24933 0.05069,0.0527 0.158846,0.3102 0.240352,0.57213 0.142316,0.45737 0.149708,0.53607 0.186378,1.98438 0.021,0.82947 0.05883,1.59147 0.08406,1.69333 0.05786,0.23356 0.42342,0.49178 1.437428,1.01535 0.79966,0.4129 1.324814,0.7131 1.572634,0.89898 0.389842,0.29242 0.815034,0.70623 0.815034,0.79322 0,0.291 -1.071398,0.51701 -2.434166,0.51349 -0.843368,-0.002 -1.861892,0.0801 -2.09958,0.16961 -0.175232,0.066 -0.517442,0.60925 -1.057656,1.67903 -0.527952,1.0455 -0.640262,1.22037 -1.094621,1.70431 -0.373084,0.39738 -0.464768,0.40386 -0.646257,0.0457 z m 0.488355,-0.2448 c 0.403014,-0.43116 0.492497,-0.57272 1.028547,-1.62719 0.393972,-0.77498 0.731814,-1.34291 0.98498,-1.65582 0.146938,-0.18161 0.814986,-0.2718 2.396232,-0.32354 1.162022,-0.038 1.399052,-0.0601 1.707182,-0.15919 0.306022,-0.0984 0.35072,-0.12811 0.308826,-0.20533 -0.145092,-0.26743 -0.716854,-0.65123 -1.80769,-1.21343 -0.452956,-0.23345 -1.035892,-0.56483 -1.295414,-0.73641 l -0.471856,-0.31195 -0.07065,-0.36946 c -0.0434,-0.22694 -0.07603,-0.85932 -0.08459,-1.63945 -0.0081,-0.74214 -0.03968,-1.37399 -0.07588,-1.52019 -0.08294,-0.33504 -0.222072,-0.67585 -0.275898,-0.67585 -0.07655,0 -0.530878,0.49307 -0.710652,0.77126 -0.09545,0.1477 -0.357754,0.62395 -0.582894,1.05833 -0.490246,0.94587 -0.573761,1.08899 -0.815969,1.39832 -0.10255,0.13097 -0.187502,0.24232 -0.188784,0.24744 -0.0078,0.0311 -1.454211,0.13144 -2.488439,0.1727 -1.182772,0.0472 -1.670018,0.12023 -1.865312,0.27966 -0.106758,0.0872 -0.08024,0.13212 0.185208,0.31411 0.138244,0.0948 0.295888,0.21347 0.350318,0.26376 0.05443,0.0503 0.49496,0.28678 0.978958,0.52554 0.955338,0.47129 1.773334,0.93192 1.98967,1.12042 0.203802,0.17759 0.250718,0.56174 0.263364,2.15637 0.0091,1.14716 0.02804,1.46465 0.104116,1.74502 0.157491,0.58039 0.210335,0.62698 0.436627,0.38488 z"
       id="path40" />
  </g>
</svg>
