<?xml version="1.0" encoding="UTF-8" standalone="no"?>
<svg
   xmlns:dc="http://purl.org/dc/elements/1.1/"
   xmlns:cc="http://creativecommons.org/ns#"
   xmlns:rdf="http://www.w3.org/1999/02/22-rdf-syntax-ns#"
   xmlns:svg="http://www.w3.org/2000/svg"
   xmlns="http://www.w3.org/2000/svg"
   xmlns:sodipodi="http://sodipodi.sourceforge.net/DTD/sodipodi-0.dtd"
   xmlns:inkscape="http://www.inkscape.org/namespaces/inkscape"
   width="13.229167mm"
   height="13.229167mm"
   viewBox="0 0 13.229167 13.229167"
   version="1.1"
   id="svg8"
   sodipodi:docname="VCS_resized_22.svg"
   inkscape:version="1.0.2-2 (e86c870879, 2021-01-15)">
  <defs
     id="defs2" />
  <sodipodi:namedview
     id="base"
     pagecolor="#ffffff"
     bordercolor="#666666"
     borderopacity="1.0"
     inkscape:pageopacity="0.0"
     inkscape:pageshadow="2"
     inkscape:zoom="2.8284271"
     inkscape:cx="11.590497"
     inkscape:cy="70.373106"
     inkscape:document-units="mm"
     inkscape:current-layer="layer1"
     inkscape:document-rotation="0"
     showgrid="false"
     inkscape:window-width="958"
     inkscape:window-height="1008"
     inkscape:window-x="1913"
     inkscape:window-y="0"
     inkscape:window-maximized="0" />
  <metadata
     id="metadata5">
    <rdf:RDF>
      <cc:Work
         rdf:about="">
        <dc:format>image/svg+xml</dc:format>
        <dc:type
           rdf:resource="http://purl.org/dc/dcmitype/StillImage" />
        <dc:title></dc:title>
      </cc:Work>
    </rdf:RDF>
  </metadata>
  <g
     inkscape:label="Ebene 1"
     inkscape:groupmode="layer"
     id="layer1"
     transform="translate(-35.133335,-7.9720607)">
    <path
       style="fill:#000000;stroke-width:0.264582"
       d="m 38.979031,19.594681 c -0.440274,-0.673326 -0.436484,-1.462364 0.01162,-2.420937 0.31903,-0.682449 0.394026,-0.937434 0.421268,-1.432306 0.02155,-0.39142 0.0093,-0.484097 -0.08988,-0.678445 -0.166008,-0.325402 -0.511752,-0.632829 -1.29593,-1.152302 -1.237152,-0.819546 -1.811804,-1.566687 -1.562818,-2.03192 0.13457,-0.251445 0.87857,-0.456894 1.45847,-0.402742 0.328968,0.03072 0.55548,0.100582 1.741218,0.537038 0.398164,0.146559 0.642986,0.202193 0.98891,0.224723 0.45053,0.02934 0.46508,0.02652 0.726142,-0.141004 0.331228,-0.212548 0.47431,-0.374731 0.95971,-1.087832 0.211976,-0.311413 0.499954,-0.691534 0.639952,-0.844714 0.414098,-0.4530897 1.239194,-0.8175277 1.515776,-0.6695067 0.182236,0.09753 0.341738,0.5684677 0.369472,1.0908857 0.02784,0.524311 -0.02749,0.733487 -0.439414,1.661391 -0.20937,0.471625 -0.386372,1.30606 -0.326908,1.54114 0.101686,0.402006 0.53657,0.815456 1.664062,1.582042 0.82861,0.563376 1.366114,1.268434 1.326872,1.740493 -0.01468,0.176492 -0.04434,0.210676 -0.307282,0.354101 -0.274466,0.149709 -0.324192,0.15862 -0.873124,0.15648 -0.497378,-0.0019 -0.635988,-0.02264 -0.9525,-0.142271 -0.990618,-0.374415 -1.350326,-0.478938 -1.833834,-0.532874 -0.493928,-0.0551 -0.519262,-0.0527 -0.761802,0.07209 -0.32283,0.166094 -0.808678,0.657293 -1.148306,1.160954 -0.638248,0.946501 -0.947876,1.240577 -1.5097,1.433873 -0.400048,0.137637 -0.623698,0.131951 -0.72198,-0.01835 z m 0.87631,-0.307916 c 0.304178,-0.15518 0.590342,-0.46164 1.083796,-1.160661 0.486524,-0.689203 0.934146,-1.141939 1.324724,-1.339861 0.25654,-0.129998 0.28656,-0.133348 0.778198,-0.08684 0.622724,0.05892 0.955266,0.142701 1.662546,0.418886 0.654214,0.255464 1.07115,0.331564 1.465194,0.267432 0.457214,-0.07441 0.609154,-0.180196 0.608506,-0.423649 -0.001,-0.377604 -0.44397,-0.906618 -1.159242,-1.384433 -0.939458,-0.627575 -1.312352,-0.944328 -1.602782,-1.361471 -0.1418,-0.203668 -0.161066,-0.274207 -0.156006,-0.571184 0.0095,-0.559634 0.107926,-0.961215 0.406322,-1.658418 0.156018,-0.364539 0.312332,-0.776628 0.347364,-0.915754 0.07738,-0.307303 0.03782,-0.69456 -0.103626,-1.014312 -0.102796,-0.2323907 -0.111258,-0.2381777 -0.348216,-0.2381777 -0.453612,0 -1.015886,0.4152207 -1.433198,1.0583697 -0.515362,0.794262 -1.0404,1.375535 -1.419564,1.571608 -0.33577,0.173634 -1.187552,0.019 -2.413662,-0.43817 -0.746138,-0.278209 -1.254732,-0.349284 -1.669132,-0.233259 -0.528136,0.147869 -0.637268,0.423456 -0.337118,0.851324 0.232146,0.330929 0.455036,0.518609 1.265416,1.065524 0.771168,0.520452 1.331544,1.032762 1.45633,1.331417 0.185846,0.444792 0.04819,1.326669 -0.335926,2.152097 -0.264952,0.569355 -0.37957,0.952161 -0.37957,1.2677 0,0.298734 0.118176,0.712931 0.242652,0.850476 0.12235,0.135194 0.44261,0.131331 0.716994,-0.0086 z"
       id="path344" />
  </g>
</svg>
