<?xml version="1.0" encoding="UTF-8" standalone="no"?>
<svg
   xmlns:dc="http://purl.org/dc/elements/1.1/"
   xmlns:cc="http://creativecommons.org/ns#"
   xmlns:rdf="http://www.w3.org/1999/02/22-rdf-syntax-ns#"
   xmlns:svg="http://www.w3.org/2000/svg"
   xmlns="http://www.w3.org/2000/svg"
   xmlns:sodipodi="http://sodipodi.sourceforge.net/DTD/sodipodi-0.dtd"
   xmlns:inkscape="http://www.inkscape.org/namespaces/inkscape"
   width="13.229167mm"
   height="13.229167mm"
   viewBox="0 0 13.229169 13.229168"
   version="1.1"
   id="svg8"
   sodipodi:docname="VCS_resized_307.svg"
   inkscape:version="1.0.2-2 (e86c870879, 2021-01-15)">
  <defs
     id="defs2" />
  <sodipodi:namedview
     id="base"
     pagecolor="#ffffff"
     bordercolor="#666666"
     borderopacity="1.0"
     inkscape:pageopacity="0.0"
     inkscape:pageshadow="2"
     inkscape:zoom="4"
     inkscape:cx="12.348528"
     inkscape:cy="48.346693"
     inkscape:document-units="mm"
     inkscape:current-layer="layer1"
     inkscape:document-rotation="0"
     showgrid="false"
     inkscape:window-width="958"
     inkscape:window-height="1008"
     inkscape:window-x="1913"
     inkscape:window-y="0"
     inkscape:window-maximized="0" />
  <metadata
     id="metadata5">
    <rdf:RDF>
      <cc:Work
         rdf:about="">
        <dc:format>image/svg+xml</dc:format>
        <dc:type
           rdf:resource="http://purl.org/dc/dcmitype/StillImage" />
        <dc:title></dc:title>
      </cc:Work>
    </rdf:RDF>
  </metadata>
  <g
     inkscape:label="Ebene 1"
     inkscape:groupmode="layer"
     id="layer1"
     transform="translate(-91.960548,21.214949)">
    <path
       style="fill:#000000;stroke-width:0.264582"
       d="m 97.432358,-8.7400699 c -0.523876,-0.1226212 -0.979132,-0.2398284 -1.01168,-0.2604612 -0.03255,-0.020633 -0.08784,-0.2702184 -0.122874,-0.5546344 -0.03503,-0.284416 -0.108364,-0.8504945 -0.16296,-1.2579525 -0.0546,-0.407458 -0.12788,-0.962424 -0.162856,-1.233258 -0.06257,-0.484515 -0.06708,-0.495234 -0.280568,-0.667419 -0.119338,-0.09625 -0.574166,-0.414307 -1.01073,-0.706799 -1.145108,-0.76721 -1.965678,-1.330595 -2.320664,-1.593317 -0.259,-0.191683 -0.298068,-0.240779 -0.238126,-0.299245 0.03944,-0.03847 0.393176,-0.144065 0.786082,-0.234661 0.392906,-0.0906 1.023938,-0.235704 1.402292,-0.322461 0.378354,-0.08676 1.045104,-0.246449 1.481666,-0.354872 0.91082,-0.22621 0.774762,-0.09923 1.213464,-1.132536 0.131928,-0.310742 0.397344,-0.906055 0.589816,-1.322917 0.19247,-0.416862 0.45657,-1.007963 0.586886,-1.313557 0.352018,-0.82548 0.445422,-0.854581 0.7092,-0.220956 0.09275,0.222792 0.341224,0.786322 0.552168,1.252288 0.210944,0.465966 0.480106,1.073429 0.598136,1.349918 0.53085,1.243491 0.50152,1.197791 0.81501,1.269968 0.15395,0.03544 0.89903,0.214813 1.65574,0.398596 0.75671,0.183783 1.60205,0.386987 1.87854,0.451563 0.59129,0.138099 0.6942,0.183181 0.65448,0.286694 -0.0162,0.04228 -0.29513,0.257919 -0.6198,0.479199 -0.32467,0.221279 -0.69802,0.478027 -0.82967,0.570549 -0.13166,0.09252 -0.69125,0.475331 -1.24355,0.850684 -0.55229,0.375354 -1.02252,0.698505 -1.04495,0.718112 -0.0372,0.03251 -0.0844,0.350125 -0.33278,2.238767 -0.0451,0.342699 -0.11043,0.7931525 -0.14523,1.0010065 l -0.0633,0.3779168 -0.87313,0.2034222 c -1.246326,0.2903718 -1.328912,0.2912564 -2.460624,0.026363 z m 1.696014,-0.1423744 c 0.260464,-0.05864 0.590464,-0.1301788 0.733336,-0.158976 0.546242,-0.1100982 0.664322,-0.1576582 0.691992,-0.2786992 0.024,-0.104923 0.32885,-2.2666415 0.43514,-3.0853775 l 0.0419,-0.322379 0.68792,-0.464465 c 1.71168,-1.155683 2.7764,-1.911198 2.76065,-1.958923 -0.0161,-0.04877 -0.18056,-0.09485 -1.22606,-0.34354 -0.23284,-0.05538 -0.85196,-0.207193 -1.37584,-0.337359 -0.52388,-0.130166 -1.03585,-0.253046 -1.13771,-0.273067 -0.33408,-0.06566 -0.39401,-0.144599 -0.763192,-1.005208 -0.195376,-0.455441 -0.422474,-0.975079 -0.504664,-1.154752 -0.352196,-0.769917 -0.795894,-1.795578 -0.795894,-1.839803 0,-0.02635 -0.03291,-0.04792 -0.07313,-0.04792 -0.04165,0 -0.164542,0.210697 -0.285496,0.48948 -0.1168,0.269213 -0.430234,0.977635 -0.69652,1.57427 -0.266284,0.596636 -0.563658,1.263386 -0.660832,1.481667 l -0.17668,0.396875 -0.654402,0.166315 c -0.35992,0.09147 -1.283394,0.311684 -2.052162,0.489358 -0.768768,0.177674 -1.408138,0.33342 -1.42082,0.346102 -0.05293,0.05293 0.114186,0.176506 1.645292,1.216685 0.882316,0.599413 1.654984,1.137146 1.717042,1.194961 0.126546,0.117896 0.132322,0.143573 0.276774,1.230132 0.237138,1.7837465 0.315182,2.3306275 0.335492,2.3509375 0.0118,0.01179 0.304198,0.08227 0.649792,0.1566288 0.345596,0.074355 0.759324,0.1661588 0.919398,0.204009 0.395976,0.093631 0.392686,0.093726 0.928722,-0.026955 z"
       id="path5827" />
  </g>
</svg>
