<?xml version="1.0" encoding="UTF-8" standalone="no"?>
<svg
   xmlns:dc="http://purl.org/dc/elements/1.1/"
   xmlns:cc="http://creativecommons.org/ns#"
   xmlns:rdf="http://www.w3.org/1999/02/22-rdf-syntax-ns#"
   xmlns:svg="http://www.w3.org/2000/svg"
   xmlns="http://www.w3.org/2000/svg"
   xmlns:sodipodi="http://sodipodi.sourceforge.net/DTD/sodipodi-0.dtd"
   xmlns:inkscape="http://www.inkscape.org/namespaces/inkscape"
   width="13.229167mm"
   height="13.229167mm"
   viewBox="0 0 13.229169 13.229168"
   version="1.1"
   id="svg8"
   sodipodi:docname="VCS_resized_323.svg"
   inkscape:version="1.0.2-2 (e86c870879, 2021-01-15)">
  <defs
     id="defs2" />
  <sodipodi:namedview
     id="base"
     pagecolor="#ffffff"
     bordercolor="#666666"
     borderopacity="1.0"
     inkscape:pageopacity="0.0"
     inkscape:pageshadow="2"
     inkscape:zoom="4"
     inkscape:cx="14.320515"
     inkscape:cy="27.788408"
     inkscape:document-units="mm"
     inkscape:current-layer="layer1"
     inkscape:document-rotation="0"
     showgrid="false"
     inkscape:window-width="958"
     inkscape:window-height="1008"
     inkscape:window-x="1913"
     inkscape:window-y="0"
     inkscape:window-maximized="0" />
  <metadata
     id="metadata5">
    <rdf:RDF>
      <cc:Work
         rdf:about="">
        <dc:format>image/svg+xml</dc:format>
        <dc:type
           rdf:resource="http://purl.org/dc/dcmitype/StillImage" />
        <dc:title></dc:title>
      </cc:Work>
    </rdf:RDF>
  </metadata>
  <g
     inkscape:label="Ebene 1"
     inkscape:groupmode="layer"
     id="layer1"
     transform="translate(-94.084625,15.775569)">
    <path
       style="fill:#000000;stroke-width:0.264582"
       d="m 100.47826,-3.1651168 c -0.18679,-0.051964 -1.563731,-0.9877452 -1.602653,-1.0891732 -0.017,-0.044297 -0.102754,-0.6087862 -0.190566,-1.2544202 -0.21261,-1.5631758 -0.247676,-1.741621 -0.35509,-1.8069386 -0.146972,-0.089373 -1.131782,-0.6305588 -2.263998,-1.2441428 -1.078834,-0.5846546 -1.648214,-0.914011 -1.741666,-1.0074636 -0.03433,-0.034335 -0.0332,-0.071217 0.0033,-0.1077292 0.07186,-0.071856 0.986376,-0.3183636 2.92898,-0.7895036 1.101598,-0.267171 1.585428,-0.406968 1.643898,-0.474986 0.04557,-0.05301 0.303802,-0.636343 0.573844,-1.29629 0.753901,-1.842386 1.204211,-2.854606 1.295571,-2.912238 0.13387,-0.08445 0.20981,0.04399 0.53112,0.898329 0.50566,1.344499 0.54608,1.452642 0.91915,2.459118 l 0.36232,0.977451 0.47236,0.141812 c 0.2598,0.078 0.81765,0.241637 1.23966,0.363645 1.51521,0.4380662 2.80458,0.8659552 2.80458,0.9307246 0,0.091297 -0.21728,0.2099454 -2.25444,1.2310772 -0.99256,0.4975214 -1.83303,0.938767 -1.8677,0.9805458 -0.06,0.072249 -0.28204,1.1697876 -0.45636,2.255418 -0.12827,0.798804 -0.11832,0.78253 -0.70029,1.1453176 -0.85908,0.5355416 -1.1326,0.657712 -1.34203,0.599447 z m 0.7939,-0.5835524 c 0.88321,-0.5038666 0.83931,-0.4478284 0.99672,-1.2724806 0.0744,-0.389917 0.20941,-1.0746058 0.29995,-1.5215304 l 0.16463,-0.8125904 1.83655,-0.9340088 c 1.01011,-0.513705 1.86396,-0.9614118 1.89745,-0.9949032 0.0764,-0.076394 -0.0242,-0.1348936 -0.42713,-0.2484254 -0.15984,-0.045037 -0.56447,-0.1631912 -0.89917,-0.262565 -0.3347,-0.099373 -1.06785,-0.313968 -1.62923,-0.476877 -0.56138,-0.162909 -1.04506,-0.311254 -1.07483,-0.329656 -0.0298,-0.0184 -0.0795,-0.09663 -0.11054,-0.173837 -0.0896,-0.223036 -0.57832,-1.548045 -0.92028,-2.495172 -0.28864,-0.799458 -0.54085,-1.401827 -0.58424,-1.395372 -0.0438,0.0065 -0.6709,1.419828 -1.078381,2.430435 -0.10186,0.25264 -0.29313,0.712462 -0.425042,1.021829 l -0.239836,0.562483 -0.47454,0.118437 c -0.260996,0.06514 -1.126424,0.27443 -1.923172,0.465091 -0.796748,0.1906594 -1.534936,0.3827512 -1.640416,0.42687 l -0.191784,0.080216 0.119326,0.09012 c 0.06563,0.049566 0.756192,0.4334898 1.534584,0.8531638 1.769096,0.9538192 2.113228,1.1543216 2.151244,1.2533874 0.03166,0.082497 0.108976,0.6011424 0.294868,1.977924 0.06091,0.4511146 0.122068,0.8731514 0.13591,0.9378594 0.02417,0.1129946 0.186098,0.232844 1.082199,0.800978 0.18917,0.1199408 0.38884,0.2182998 0.44371,0.2185764 0.0549,2.6e-4 0.35251,-0.1437014 0.66145,-0.3199522 z"
       id="path6087" />
  </g>
</svg>
