<?xml version="1.0" encoding="UTF-8" standalone="no"?>
<svg
   xmlns:dc="http://purl.org/dc/elements/1.1/"
   xmlns:cc="http://creativecommons.org/ns#"
   xmlns:rdf="http://www.w3.org/1999/02/22-rdf-syntax-ns#"
   xmlns:svg="http://www.w3.org/2000/svg"
   xmlns="http://www.w3.org/2000/svg"
   xmlns:sodipodi="http://sodipodi.sourceforge.net/DTD/sodipodi-0.dtd"
   xmlns:inkscape="http://www.inkscape.org/namespaces/inkscape"
   width="13.229167mm"
   height="13.229167mm"
   viewBox="0 0 13.229169 13.229168"
   version="1.1"
   id="svg8"
   sodipodi:docname="VCS_resized_195.svg"
   inkscape:version="1.0.2-2 (e86c870879, 2021-01-15)">
  <defs
     id="defs2" />
  <sodipodi:namedview
     id="base"
     pagecolor="#ffffff"
     bordercolor="#666666"
     borderopacity="1.0"
     inkscape:pageopacity="0.0"
     inkscape:pageshadow="2"
     inkscape:zoom="2.8284271"
     inkscape:cx="17.254582"
     inkscape:cy="77.610508"
     inkscape:document-units="mm"
     inkscape:current-layer="layer1"
     inkscape:document-rotation="0"
     showgrid="false"
     inkscape:window-width="958"
     inkscape:window-height="1008"
     inkscape:window-x="1913"
     inkscape:window-y="0"
     inkscape:window-maximized="0" />
  <metadata
     id="metadata5">
    <rdf:RDF>
      <cc:Work
         rdf:about="">
        <dc:format>image/svg+xml</dc:format>
        <dc:type
           rdf:resource="http://purl.org/dc/dcmitype/StillImage" />
        <dc:title></dc:title>
      </cc:Work>
    </rdf:RDF>
  </metadata>
  <g
     inkscape:label="Ebene 1"
     inkscape:groupmode="layer"
     id="layer1"
     transform="translate(-43.998085,-10.146055)">
    <path
       style="fill:#000000;stroke-width:0.264582"
       d="m 47.368805,22.845397 -0.308472,-0.016 -0.105378,-0.248588 c -0.05796,-0.136723 -0.411838,-0.867713 -0.7864,-1.624421 -0.930246,-1.879327 -1.049282,-2.381365 -0.871386,-3.675106 0.126544,-0.920279 0.09313,-1.312143 -0.179108,-2.100641 -0.210416,-0.609435 -0.377662,-1.309248 -0.377662,-1.580261 0,-0.18706 0.230388,-0.423474 0.759168,-0.779025 0.617478,-0.415191 1.17157,-0.669921 1.992498,-0.916 0.363802,-0.109052 0.935302,-0.310937 1.27,-0.448633 0.747552,-0.307545 1.582456,-0.669832 1.705846,-0.740211 0.05054,-0.02883 0.139554,-0.05241 0.197816,-0.05241 0.129918,0 0.81793,0.282115 1.606814,0.658864 0.331434,0.158284 0.869194,0.358044 1.225566,0.455258 0.787552,0.214835 0.965236,0.289775 1.693334,0.714189 0.660474,0.384995 1.052508,0.671467 1.209702,0.883969 0.102256,0.138233 0.10442,0.169687 0.04158,0.604332 -0.03646,0.252179 -0.134884,0.638997 -0.21872,0.859594 -0.08383,0.220597 -0.181304,0.508242 -0.216598,0.63921 -0.08864,0.328917 -0.08932,1.171543 -0.0016,1.943795 0.124992,1.100099 -0.04414,1.765086 -0.862522,3.391223 -0.27362,0.543688 -0.596798,1.195468 -0.718174,1.4484 -0.121376,0.252932 -0.24864,0.482594 -0.28281,0.510359 -0.05765,0.04685 -6.03374,0.110462 -6.773514,0.0721 z m 6.566896,-0.314734 c 0.133316,-0.117175 1.495986,-2.930709 1.659474,-3.426354 0.13127,-0.397962 0.133658,-0.461678 0.09616,-2.566458 l -0.0165,-0.926042 0.170606,-0.47625 c 0.250118,-0.698228 0.331808,-1.060466 0.314188,-1.393227 -0.01522,-0.28726 -0.02376,-0.302401 -0.280204,-0.495908 -0.518062,-0.390923 -1.465022,-0.887726 -2.010902,-1.054977 -0.84832,-0.259916 -1.205664,-0.395659 -1.947554,-0.739812 -0.803602,-0.37278 -1.058704,-0.470034 -1.232926,-0.470034 -0.06846,0 -0.53576,0.176423 -1.03845,0.392051 -0.502692,0.215628 -1.330704,0.534487 -1.840028,0.708575 -0.509322,0.174088 -1.067202,0.37923 -1.239734,0.455871 -0.420974,0.187002 -1.096422,0.58935 -1.333668,0.794432 -0.18042,0.155961 -0.192276,0.185118 -0.185998,0.457429 0.0073,0.315348 0.121854,0.77259 0.370358,1.477892 0.192884,0.547448 0.264496,1.192542 0.196786,1.772708 -0.02717,0.232834 -0.05105,0.744802 -0.05305,1.137709 -0.0046,0.901735 0.02905,1.010074 0.764404,2.460624 0.30984,0.611188 0.644574,1.295158 0.743854,1.519934 0.09928,0.224776 0.216436,0.418466 0.260344,0.430424 0.04391,0.01196 1.523806,0.0245 3.28866,0.02788 2.98576,0.0057 3.216148,-3.2e-4 3.314184,-0.08647 z"
       id="path4019" />
  </g>
</svg>
