<?xml version="1.0" encoding="UTF-8" standalone="no"?>
<svg
   xmlns:dc="http://purl.org/dc/elements/1.1/"
   xmlns:cc="http://creativecommons.org/ns#"
   xmlns:rdf="http://www.w3.org/1999/02/22-rdf-syntax-ns#"
   xmlns:svg="http://www.w3.org/2000/svg"
   xmlns="http://www.w3.org/2000/svg"
   xmlns:sodipodi="http://sodipodi.sourceforge.net/DTD/sodipodi-0.dtd"
   xmlns:inkscape="http://www.inkscape.org/namespaces/inkscape"
   width="13.229167mm"
   height="13.229167mm"
   viewBox="0 0 13.229169 13.229168"
   version="1.1"
   id="svg8"
   sodipodi:docname="VCS_resized_194.svg"
   inkscape:version="1.0.2-2 (e86c870879, 2021-01-15)">
  <defs
     id="defs2" />
  <sodipodi:namedview
     id="base"
     pagecolor="#ffffff"
     bordercolor="#666666"
     borderopacity="1.0"
     inkscape:pageopacity="0.0"
     inkscape:pageshadow="2"
     inkscape:zoom="2.8284271"
     inkscape:cx="10.981489"
     inkscape:cy="33.613724"
     inkscape:document-units="mm"
     inkscape:current-layer="layer1"
     inkscape:document-rotation="0"
     showgrid="false"
     inkscape:window-width="958"
     inkscape:window-height="1008"
     inkscape:window-x="1913"
     inkscape:window-y="0"
     inkscape:window-maximized="0" />
  <metadata
     id="metadata5">
    <rdf:RDF>
      <cc:Work
         rdf:about="">
        <dc:format>image/svg+xml</dc:format>
        <dc:type
           rdf:resource="http://purl.org/dc/dcmitype/StillImage" />
        <dc:title></dc:title>
      </cc:Work>
    </rdf:RDF>
  </metadata>
  <g
     inkscape:label="Ebene 1"
     inkscape:groupmode="layer"
     id="layer1"
     transform="translate(-45.657841,-21.786871)">
    <path
       style="fill:#000000;stroke-width:0.264582"
       d="m 49.078209,34.470723 -0.314394,-0.02646 -0.729154,-1.455208 c -0.858074,-1.712506 -0.97842,-1.993686 -1.07957,-2.522354 -0.09804,-0.512398 -0.09595,-0.886084 0.0089,-1.590315 0.134382,-0.902605 0.09054,-1.380554 -0.205236,-2.237331 -0.288676,-0.83622 -0.378608,-1.490727 -0.234956,-1.709968 0.121046,-0.184738 1.107366,-0.836851 1.600342,-1.058076 0.233678,-0.104865 0.721836,-0.27526 1.084792,-0.378655 0.581934,-0.165774 1.732908,-0.602257 2.512002,-0.952623 0.5866,-0.2638 0.616424,-0.267958 0.958552,-0.13365 0.171298,0.06724 0.671858,0.283011 1.11236,0.479479 0.50239,0.224072 1.044046,0.419664 1.45323,0.524762 0.789592,0.202804 0.867676,0.234472 1.518436,0.615822 0.668306,0.391631 1.16103,0.743028 1.265558,0.902557 0.11149,0.170156 0.05806,0.908852 -0.09616,1.329522 -0.314832,0.858756 -0.328656,0.922799 -0.333492,1.544997 -0.0026,0.334698 0.02973,0.91184 0.07185,1.282538 0.08448,0.743514 0.04404,1.183249 -0.166748,1.813087 -0.133536,0.399011 -1.682026,3.523334 -1.758398,3.547843 -0.09366,0.03006 -6.329262,0.05253 -6.667912,0.02403 z m 6.450284,-0.244511 c 0.118108,-0.04532 1.572838,-3.011711 1.748532,-3.565489 0.17244,-0.543516 0.183582,-0.920808 0.05993,-2.02934 -0.07946,-0.712374 -0.08013,-0.829136 -0.0072,-1.249604 0.04426,-0.255093 0.126624,-0.592047 0.183034,-0.748785 0.05641,-0.156739 0.138884,-0.384498 0.183274,-0.506131 0.04439,-0.121634 0.09637,-0.408916 0.115508,-0.638406 l 0.0348,-0.417254 -0.205226,-0.161732 c -0.620686,-0.489139 -1.57038,-0.969242 -2.382964,-1.20467 -0.353734,-0.102486 -1.086912,-0.378824 -1.629282,-0.614084 -0.542372,-0.23526 -1.063704,-0.440334 -1.158516,-0.45572 -0.119112,-0.01933 -0.294262,0.02085 -0.56676,0.129998 -1.463764,0.586333 -2.072518,0.816535 -2.549818,0.96422 -1.018658,0.315191 -1.85383,0.719061 -2.441864,1.180829 l -0.205226,0.161159 0.03545,0.425112 c 0.0198,0.237446 0.09488,0.589352 0.170076,0.797156 0.387734,1.071527 0.473822,1.622298 0.371432,2.376329 -0.09613,0.707946 -0.07774,1.807246 0.03597,2.149673 0.116914,0.35208 1.608576,3.344159 1.69457,3.399085 0.07353,0.04696 6.392472,0.05439 6.514258,0.0077 z"
       id="path3987" />
  </g>
</svg>
