<?xml version="1.0" encoding="UTF-8" standalone="no"?>
<svg
   xmlns:dc="http://purl.org/dc/elements/1.1/"
   xmlns:cc="http://creativecommons.org/ns#"
   xmlns:rdf="http://www.w3.org/1999/02/22-rdf-syntax-ns#"
   xmlns:svg="http://www.w3.org/2000/svg"
   xmlns="http://www.w3.org/2000/svg"
   xmlns:sodipodi="http://sodipodi.sourceforge.net/DTD/sodipodi-0.dtd"
   xmlns:inkscape="http://www.inkscape.org/namespaces/inkscape"
   width="13.229167mm"
   height="13.229167mm"
   viewBox="0 0 13.229167 13.229167"
   version="1.1"
   id="svg8"
   sodipodi:docname="VCS_resized_56.svg"
   inkscape:version="1.0.2-2 (e86c870879, 2021-01-15)">
  <defs
     id="defs2" />
  <sodipodi:namedview
     id="base"
     pagecolor="#ffffff"
     bordercolor="#666666"
     borderopacity="1.0"
     inkscape:pageopacity="0.0"
     inkscape:pageshadow="2"
     inkscape:zoom="2.8284271"
     inkscape:cx="-13.181083"
     inkscape:cy="75.662426"
     inkscape:document-units="mm"
     inkscape:current-layer="layer1"
     inkscape:document-rotation="0"
     showgrid="false"
     inkscape:window-width="958"
     inkscape:window-height="1008"
     inkscape:window-x="1913"
     inkscape:window-y="0"
     inkscape:window-maximized="0" />
  <metadata
     id="metadata5">
    <rdf:RDF>
      <cc:Work
         rdf:about="">
        <dc:format>image/svg+xml</dc:format>
        <dc:type
           rdf:resource="http://purl.org/dc/dcmitype/StillImage" />
        <dc:title></dc:title>
      </cc:Work>
    </rdf:RDF>
  </metadata>
  <g
     inkscape:label="Ebene 1"
     inkscape:groupmode="layer"
     id="layer1"
     transform="translate(-41.687481,-6.5725956)">
    <path
       style="fill:#000000;stroke-width:0.264582"
       d="m 44.6423,18.098224 c -0.379136,-0.140592 -0.6115,-0.34455 -0.788582,-0.692178 -0.120292,-0.236144 -0.147524,-0.357208 -0.14437,-0.641824 0.0058,-0.52344 0.176742,-0.825408 0.899888,-1.58964 0.737606,-0.779514 0.92185,-1.10559 0.92185,-1.631494 0,-0.699134 -0.181144,-1.028688 -1.061626,-1.931418 -1.068758,-1.095759 -1.316176,-1.65387 -1.082308,-2.4413916 0.248884,-0.8380806 1.26206,-1.0145984 2.183754,-0.3804576 0.13169,0.090606 0.527046,0.4388458 0.878566,0.773866 0.6987,0.6659032 1.003642,0.8489032 1.51137,0.9069952 0.645084,0.07381 1.081472,-0.154344 1.739858,-0.909631 0.654914,-0.7513044 0.96333,-1.0258156 1.362238,-1.212488 0.977244,-0.4573072 1.823566,0.095357 1.823566,1.190824 0,0.641774 -0.201236,1.03024 -1.022376,1.973585 -0.502366,0.577134 -0.72168,0.956504 -0.792726,1.37126 -0.123142,0.718898 0.134666,1.23327 0.989654,1.974526 0.628666,0.545044 0.89338,0.835598 1.058938,1.162308 0.18028,0.355766 0.219602,0.643476 0.135726,0.993104 -0.08179,0.34093 -0.2741,0.56014 -0.69009,0.786612 -0.258522,0.140744 -0.33592,0.156576 -0.763918,0.156266 -0.42716,-4e-4 -0.528068,-0.02103 -0.978958,-0.200986 -0.919276,-0.366904 -1.504378,-0.558016 -1.86408,-0.608866 -0.66832,-0.09448 -1.325938,0.07308 -2.184046,0.556474 -0.650352,0.366362 -0.911434,0.45533 -1.402292,0.477846 -0.35402,0.01624 -0.50946,-0.0014 -0.730036,-0.08329 z m 1.894014,-0.578802 c 0.92592,-0.474514 1.180346,-0.574728 1.640348,-0.646098 0.630156,-0.09777 1.380006,0.07501 2.67255,0.615812 0.405052,0.169476 0.53558,0.199462 0.873124,0.200592 0.77231,0.0026 1.22159,-0.335202 1.260594,-0.947756 0.03123,-0.490516 -0.08019,-0.660668 -1.072498,-1.637802 -0.811378,-0.798968 -0.86813,-0.868106 -1.007362,-1.227242 -0.320248,-0.826044 -0.08294,-1.568334 0.842612,-2.635674 0.65307,-0.753116 0.87668,-1.177493 0.875076,-1.6607562 -0.002,-0.586721 -0.234908,-0.942783 -0.698512,-1.0676182 -0.473744,-0.1275664 -1.069184,0.1582336 -1.606366,0.7710268 -0.172334,0.1965912 -0.430934,0.4911988 -0.574668,0.6546844 -0.30219,0.3437182 -0.481758,0.4884382 -0.849918,0.6849802 -0.230652,0.123135 -0.32601,0.14126 -0.743596,0.141341 -0.446286,1.05e-4 -0.506226,-0.01336 -0.877336,-0.19678 C 46.95386,10.411701 46.724604,10.230998 46.154306,9.6884394 45.668312,9.2260838 45.339954,8.9583462 45.137322,8.8592074 44.127704,8.3652472 43.280136,9.0916102 43.680606,10.10761 c 0.150646,0.382195 0.335924,0.631691 0.920436,1.239477 0.657184,0.683349 0.963908,1.107699 1.119696,1.549095 0.148246,0.42002 0.158678,0.682422 0.0427,1.073906 -0.127804,0.431394 -0.310128,0.704788 -0.853254,1.279452 -0.271048,0.286788 -0.579202,0.651542 -0.684786,0.810562 -0.166214,0.250338 -0.195026,0.340498 -0.214752,0.672016 -0.02116,0.355558 -0.01134,0.40065 0.137556,0.631772 0.152448,0.236638 0.40027,0.410598 0.747884,0.524984 0.07276,0.02394 0.305332,0.03581 0.516824,0.02637 0.357664,-0.01596 0.436156,-0.04362 1.123404,-0.395818 z"
       id="path922" />
  </g>
</svg>
