<?xml version="1.0" encoding="UTF-8" standalone="no"?>
<svg
   xmlns:dc="http://purl.org/dc/elements/1.1/"
   xmlns:cc="http://creativecommons.org/ns#"
   xmlns:rdf="http://www.w3.org/1999/02/22-rdf-syntax-ns#"
   xmlns:svg="http://www.w3.org/2000/svg"
   xmlns="http://www.w3.org/2000/svg"
   xmlns:sodipodi="http://sodipodi.sourceforge.net/DTD/sodipodi-0.dtd"
   xmlns:inkscape="http://www.inkscape.org/namespaces/inkscape"
   width="13.229167mm"
   height="13.229167mm"
   viewBox="0 0 13.229167 13.229167"
   version="1.1"
   id="svg8"
   inkscape:version="1.0.2-2 (e86c870879, 2021-01-15)"
   sodipodi:docname="VCS_resized_1.svg">
  <defs
     id="defs2" />
  <sodipodi:namedview
     id="base"
     pagecolor="#ffffff"
     bordercolor="#666666"
     borderopacity="1.0"
     inkscape:pageopacity="0.0"
     inkscape:pageshadow="2"
     inkscape:zoom="2.8284271"
     inkscape:cx="42.67466"
     inkscape:cy="23.856366"
     inkscape:document-units="mm"
     inkscape:current-layer="layer1"
     inkscape:document-rotation="0"
     showgrid="false"
     inkscape:window-width="958"
     inkscape:window-height="1008"
     inkscape:window-x="1913"
     inkscape:window-y="0"
     inkscape:window-maximized="0" />
  <metadata
     id="metadata5">
    <rdf:RDF>
      <cc:Work
         rdf:about="">
        <dc:format>image/svg+xml</dc:format>
        <dc:type
           rdf:resource="http://purl.org/dc/dcmitype/StillImage" />
        <dc:title></dc:title>
      </cc:Work>
    </rdf:RDF>
  </metadata>
  <g
     inkscape:label="Ebene 1"
     inkscape:groupmode="layer"
     id="layer1"
     transform="translate(-26.908985,-20.279615)">
    <path
       style="fill:#000000;stroke-width:0.264582"
       d="m 32.012008,32.32353 c -0.251966,-0.497229 -0.303996,-0.899491 -0.292816,-2.26381 0.0062,-0.759143 -0.01438,-1.390594 -0.05325,-1.631477 -0.06229,-0.386165 -0.06808,-0.396477 -0.333256,-0.594182 -0.148422,-0.110658 -0.755012,-0.442541 -1.347974,-0.737517 -1.12957,-0.561917 -1.849528,-0.999412 -2.120566,-1.288597 -0.08857,-0.0945 -0.161148,-0.185126 -0.161284,-0.201392 -0.0018,-0.207006 0.679452,-0.455028 1.438076,-0.523622 0.30033,-0.02716 1.020252,-0.06363 1.599828,-0.08105 0.579574,-0.01742 1.069264,-0.04125 1.0882,-0.05296 0.01894,-0.0117 0.148146,-0.02716 0.287134,-0.03436 0.224941,-0.01164 0.271703,-0.03668 0.425583,-0.227842 0.196344,-0.243912 0.524083,-0.804084 0.744847,-1.273094 0.370508,-0.787134 0.745634,-1.339909 1.29638,-1.910308 0.320014,-0.331434 0.337004,-0.341391 0.425484,-0.249331 0.05069,0.05274 0.158846,0.310201 0.240352,0.572139 0.142316,0.457361 0.149708,0.536064 0.186378,1.984375 0.021,0.829468 0.05883,1.591468 0.08406,1.693333 0.05786,0.233558 0.42342,0.491779 1.437428,1.015349 0.79966,0.412894 1.324814,0.713094 1.572634,0.898983 0.389842,0.292418 0.815034,0.70623 0.815034,0.793218 0,0.290998 -1.071398,0.517007 -2.434166,0.513484 -0.843368,-0.0022 -1.861892,0.0801 -2.09958,0.169611 -0.175232,0.06599 -0.517442,0.609251 -1.057656,1.679037 -0.527952,1.0455 -0.640262,1.220363 -1.094621,1.704306 -0.373084,0.397376 -0.464768,0.40386 -0.646257,0.0457 z m 0.488355,-0.244797 c 0.403014,-0.431159 0.492497,-0.572724 1.028547,-1.627188 0.393972,-0.774981 0.731814,-1.342917 0.98498,-1.65582 0.146938,-0.181608 0.814986,-0.271807 2.396232,-0.323539 1.162022,-0.03802 1.399052,-0.06012 1.707182,-0.159191 0.306022,-0.09839 0.35072,-0.128112 0.308826,-0.205331 -0.145092,-0.26743 -0.716854,-0.651232 -1.80769,-1.213436 -0.452956,-0.233448 -1.035892,-0.56483 -1.295414,-0.736404 L 35.35117,25.845871 35.28052,25.476417 c -0.0434,-0.226947 -0.07603,-0.859326 -0.08459,-1.639455 -0.0081,-0.742138 -0.03968,-1.37399 -0.07588,-1.520193 -0.08294,-0.335035 -0.222072,-0.675849 -0.275898,-0.675849 -0.07655,0 -0.530878,0.493074 -0.710652,0.77126 -0.09545,0.147703 -0.357754,0.623953 -0.582894,1.058333 -0.490246,0.945872 -0.573761,1.088992 -0.815969,1.398324 -0.10255,0.130969 -0.187502,0.242313 -0.188784,0.247431 -0.0078,0.03106 -1.454211,0.131448 -2.488439,0.172705 -1.182772,0.04718 -1.670018,0.120234 -1.865312,0.279659 -0.106758,0.08715 -0.08024,0.132125 0.185208,0.314115 0.138244,0.09478 0.295888,0.213469 0.350318,0.263754 0.05443,0.05029 0.49496,0.28678 0.978958,0.525544 0.955338,0.471284 1.773334,0.931913 1.98967,1.12042 0.203802,0.177584 0.250718,0.561733 0.263364,2.156372 0.0091,1.147154 0.02804,1.464647 0.104116,1.745013 0.157491,0.580396 0.210335,0.626978 0.436627,0.384883 z"
       id="path40" />
  </g>
</svg>
