<?xml version="1.0" encoding="UTF-8" standalone="no"?>
<svg
   xmlns:dc="http://purl.org/dc/elements/1.1/"
   xmlns:cc="http://creativecommons.org/ns#"
   xmlns:rdf="http://www.w3.org/1999/02/22-rdf-syntax-ns#"
   xmlns:svg="http://www.w3.org/2000/svg"
   xmlns="http://www.w3.org/2000/svg"
   xmlns:sodipodi="http://sodipodi.sourceforge.net/DTD/sodipodi-0.dtd"
   xmlns:inkscape="http://www.inkscape.org/namespaces/inkscape"
   width="13.229167mm"
   height="13.229167mm"
   viewBox="0 0 13.229169 13.229168"
   version="1.1"
   id="svg8"
   sodipodi:docname="VCS_resized_120.svg"
   inkscape:version="1.0.2-2 (e86c870879, 2021-01-15)">
  <defs
     id="defs2" />
  <sodipodi:namedview
     id="base"
     pagecolor="#ffffff"
     bordercolor="#666666"
     borderopacity="1.0"
     inkscape:pageopacity="0.0"
     inkscape:pageshadow="2"
     inkscape:zoom="2.8284271"
     inkscape:cx="-8.2848384"
     inkscape:cy="23.639727"
     inkscape:document-units="mm"
     inkscape:current-layer="layer1"
     inkscape:document-rotation="0"
     showgrid="false"
     inkscape:window-width="958"
     inkscape:window-height="1008"
     inkscape:window-x="1913"
     inkscape:window-y="0"
     inkscape:window-maximized="0" />
  <metadata
     id="metadata5">
    <rdf:RDF>
      <cc:Work
         rdf:about="">
        <dc:format>image/svg+xml</dc:format>
        <dc:type
           rdf:resource="http://purl.org/dc/dcmitype/StillImage" />
        <dc:title></dc:title>
      </cc:Work>
    </rdf:RDF>
  </metadata>
  <g
     inkscape:label="Ebene 1"
     inkscape:groupmode="layer"
     id="layer1"
     transform="translate(-40.392014,-20.336935)">
    <path
       style="fill:#000000;stroke-width:0.264582"
       d="m 45.152111,33.010098 c -0.480218,-0.123679 -0.910908,-0.247543 -0.957088,-0.275253 -0.04618,-0.02771 -0.379556,-0.391878 -0.740834,-0.809265 -1.382932,-1.597707 -1.54248,-1.851189 -1.573918,-2.500571 -0.02581,-0.533086 0.0482,-0.670305 0.786836,-1.458895 0.72546,-0.774523 0.963822,-1.20044 0.963346,-1.721355 -4e-4,-0.47572 -0.122118,-0.823292 -0.46366,-1.324377 -0.676626,-0.992694 -0.86465,-1.302499 -1.0035,-1.653448 -0.13473,-0.340537 -0.144126,-0.411947 -0.12268,-0.932434 0.01984,-0.481297 0.04482,-0.607788 0.171,-0.8657 0.204938,-0.418878 0.44502,-0.643347 0.797776,-0.745896 0.263184,-0.07651 0.316884,-0.0768 0.568452,-0.0031 0.331894,0.09725 0.812204,0.439136 1.479808,1.053339 0.956174,0.879692 1.207502,1.027209 1.8658,1.095128 0.833214,0.08596 1.07061,-0.04308 2.341642,-1.272916 0.96296,-0.931746 1.287298,-1.074185 1.857222,-0.815635 0.547726,0.248479 0.856048,0.849588 0.856048,1.668962 0,0.565857 -0.14295,0.977511 -0.532728,1.534089 -0.93798,1.339376 -1.076134,1.622634 -1.069564,2.192933 0.0044,0.380911 0.170076,0.855781 0.41542,1.190625 0.09596,0.130969 0.368402,0.428625 0.605422,0.661458 0.525468,0.516184 0.7402,0.896792 0.7402,1.311981 0,0.593264 -0.15719,0.852114 -1.401644,2.308123 -1.025146,1.199419 -0.908366,1.116417 -1.932106,1.373256 -0.865974,0.217259 -0.880924,0.219032 -1.825624,0.216432 -0.94443,-0.0026 -0.959898,-0.0045 -1.825626,-0.227491 z m 3.73526,-0.287839 c 0.856742,-0.231168 0.638282,-0.05218 1.951406,-1.598836 0.860356,-1.013368 0.94102,-1.13715 1.000602,-1.535463 0.06616,-0.442272 -0.06576,-0.720902 -0.644284,-1.360797 -0.957726,-1.059327 -1.158512,-1.452773 -1.10092,-2.157282 0.04617,-0.56479 0.268958,-1.057366 0.837678,-1.852083 0.633686,-0.885499 0.780086,-1.233778 0.781298,-1.85866 0.0012,-0.571576 -0.23981,-1.035675 -0.644912,-1.242342 -0.455498,-0.232378 -0.839488,-0.04374 -1.7935,0.881054 -0.625914,0.606746 -1.05399,0.925277 -1.41436,1.052423 -0.357312,0.126067 -0.805666,0.149677 -1.182544,0.06227 -0.664906,-0.154202 -0.897254,-0.304681 -2.029798,-1.314589 -0.464486,-0.414189 -1.08987,-0.781618 -1.33036,-0.781618 -0.173066,0 -0.492342,0.139016 -0.643848,0.280338 -0.337256,0.314588 -0.479804,1.092824 -0.308256,1.682926 0.08649,0.297515 0.543588,1.103336 0.86682,1.528122 0.302384,0.397388 0.597488,1.052445 0.662058,1.469609 0.101772,0.657509 -0.09618,1.180718 -0.68994,1.823535 -0.614272,0.66503 -0.95232,1.09312 -1.016312,1.287017 -0.08021,0.243025 -0.04007,0.631918 0.09725,0.942362 0.05592,0.126416 0.532992,0.732905 1.06016,1.347754 1.07638,1.255406 0.865698,1.108684 2.018168,1.405487 0.453138,0.1167 0.615042,0.129941 1.641926,0.134283 l 1.139216,0.0048 0.74245,-0.20033 z"
       id="path1962" />
  </g>
</svg>
