<?xml version="1.0" encoding="UTF-8" standalone="no"?>
<svg
   xmlns:dc="http://purl.org/dc/elements/1.1/"
   xmlns:cc="http://creativecommons.org/ns#"
   xmlns:rdf="http://www.w3.org/1999/02/22-rdf-syntax-ns#"
   xmlns:svg="http://www.w3.org/2000/svg"
   xmlns="http://www.w3.org/2000/svg"
   xmlns:sodipodi="http://sodipodi.sourceforge.net/DTD/sodipodi-0.dtd"
   xmlns:inkscape="http://www.inkscape.org/namespaces/inkscape"
   width="13.229167mm"
   height="13.229167mm"
   viewBox="0 0 13.229169 13.229168"
   version="1.1"
   id="svg8"
   sodipodi:docname="VCS_resized_204.svg"
   inkscape:version="1.0.2-2 (e86c870879, 2021-01-15)">
  <defs
     id="defs2" />
  <sodipodi:namedview
     id="base"
     pagecolor="#ffffff"
     bordercolor="#666666"
     borderopacity="1.0"
     inkscape:pageopacity="0.0"
     inkscape:pageshadow="2"
     inkscape:zoom="2.8284271"
     inkscape:cx="12.171506"
     inkscape:cy="58.727651"
     inkscape:document-units="mm"
     inkscape:current-layer="layer1"
     inkscape:document-rotation="0"
     showgrid="false"
     inkscape:window-width="958"
     inkscape:window-height="1008"
     inkscape:window-x="1913"
     inkscape:window-y="0"
     inkscape:window-maximized="0" />
  <metadata
     id="metadata5">
    <rdf:RDF>
      <cc:Work
         rdf:about="">
        <dc:format>image/svg+xml</dc:format>
        <dc:type
           rdf:resource="http://purl.org/dc/dcmitype/StillImage" />
        <dc:title></dc:title>
      </cc:Work>
    </rdf:RDF>
  </metadata>
  <g
     inkscape:label="Ebene 1"
     inkscape:groupmode="layer"
     id="layer1"
     transform="translate(-45.342983,-15.142145)">
    <path
       style="fill:#000000;stroke-width:0.264582"
       d="m 48.352978,27.876612 c -0.08872,-0.02351 -0.199072,-0.21783 -0.33223,-0.585069 -0.0398,-0.109753 -0.232262,-0.556738 -0.4277,-0.9933 -0.878068,-1.961374 -0.913638,-2.096827 -0.979336,-3.729266 -0.04788,-1.189743 -0.07828,-1.369018 -0.365102,-2.153205 -0.190468,-0.520749 -0.32118,-1.063944 -0.32118,-1.334714 0,-0.242292 0.07654,-0.319981 0.687916,-0.6982 0.8404,-0.519905 1.224024,-0.713776 2.328334,-1.176667 0.471444,-0.197614 1.51484,-0.753414 2.566458,-1.367111 0.517352,-0.301913 0.460522,-0.29926 0.940988,-0.04393 0.239166,0.127097 0.696784,0.389901 1.01693,0.584009 0.7371,0.446913 1.121604,0.640513 1.7875,0.900021 0.736648,0.287081 2.395422,1.24081 2.651592,1.524561 0.148494,0.164479 0.0912,0.646309 -0.167842,1.411545 -0.328064,0.969141 -0.338528,1.030786 -0.381322,2.246498 -0.04855,1.379098 -0.147114,1.82809 -0.659914,3.005979 -0.186184,0.42766 -0.435932,1.003782 -0.554994,1.280271 -0.450524,1.046211 -0.48051,1.098327 -0.651606,1.132547 -0.17905,0.03581 -7.002664,0.03202 -7.138492,-0.004 z m 7.120998,-0.348057 c 0.168908,-0.261513 1.25889,-2.825623 1.384476,-3.256888 0.148246,-0.509084 0.217952,-1.14182 0.230962,-2.096505 0.0091,-0.664695 0.08862,-1.152782 0.27016,-1.657334 0.160188,-0.445215 0.30831,-0.993734 0.346898,-1.284626 0.03353,-0.252803 0.03237,-0.255289 -0.197342,-0.422152 -0.54064,-0.392714 -1.679752,-1.01056 -2.27994,-1.236622 -0.48038,-0.180935 -1.230314,-0.565923 -2.078636,-1.067093 -0.407458,-0.240717 -0.827824,-0.479128 -0.93415,-0.529801 l -0.193316,-0.09213 -0.388766,0.211783 c -0.213822,0.116481 -0.672586,0.37155 -1.019476,0.56682 -0.864366,0.486566 -1.252894,0.678092 -1.948428,0.960478 -1.204998,0.489229 -2.432352,1.208086 -2.465742,1.444177 -0.02446,0.172936 0.183432,1.007543 0.363544,1.459496 0.232666,0.583822 0.320782,1.12732 0.370092,2.282729 0.06111,1.431771 0.136836,1.727909 0.803836,3.143401 0.157716,0.334698 0.378494,0.834761 0.490622,1.11125 0.112126,0.27649 0.229554,0.520204 0.26095,0.541586 0.0314,0.02138 1.598396,0.03924 3.48222,0.03969 l 3.425134,8e-4 0.0769,-0.119063 z"
       id="path4163" />
  </g>
</svg>
