<?xml version="1.0" encoding="UTF-8" standalone="no"?>
<svg
   xmlns:dc="http://purl.org/dc/elements/1.1/"
   xmlns:cc="http://creativecommons.org/ns#"
   xmlns:rdf="http://www.w3.org/1999/02/22-rdf-syntax-ns#"
   xmlns:svg="http://www.w3.org/2000/svg"
   xmlns="http://www.w3.org/2000/svg"
   xmlns:sodipodi="http://sodipodi.sourceforge.net/DTD/sodipodi-0.dtd"
   xmlns:inkscape="http://www.inkscape.org/namespaces/inkscape"
   width="13.229167mm"
   height="13.229167mm"
   viewBox="0 0 13.229169 13.229168"
   version="1.1"
   id="svg8"
   sodipodi:docname="VCS_resized_169.svg"
   inkscape:version="1.0.2-2 (e86c870879, 2021-01-15)">
  <defs
     id="defs2" />
  <sodipodi:namedview
     id="base"
     pagecolor="#ffffff"
     bordercolor="#666666"
     borderopacity="1.0"
     inkscape:pageopacity="0.0"
     inkscape:pageshadow="2"
     inkscape:zoom="2.8284271"
     inkscape:cx="-13.312292"
     inkscape:cy="16.230975"
     inkscape:document-units="mm"
     inkscape:current-layer="layer1"
     inkscape:document-rotation="0"
     showgrid="false"
     inkscape:window-width="958"
     inkscape:window-height="1008"
     inkscape:window-x="1913"
     inkscape:window-y="0"
     inkscape:window-maximized="0" />
  <metadata
     id="metadata5">
    <rdf:RDF>
      <cc:Work
         rdf:about="">
        <dc:format>image/svg+xml</dc:format>
        <dc:type
           rdf:resource="http://purl.org/dc/dcmitype/StillImage" />
        <dc:title></dc:title>
      </cc:Work>
    </rdf:RDF>
  </metadata>
  <g
     inkscape:label="Ebene 1"
     inkscape:groupmode="layer"
     id="layer1"
     transform="translate(-41.722191,-22.297167)">
    <path
       style="fill:#000000;stroke-width:0.264582"
       d="m 45.61059,34.810133 c -0.188062,-0.01256 -0.37199,-0.04778 -0.408728,-0.07827 -0.03674,-0.03049 -0.178784,-0.261395 -0.315654,-0.513122 -0.258064,-0.474622 -1.001754,-1.740813 -1.516656,-2.582227 -0.351522,-0.57443 -0.489824,-0.960278 -0.539748,-1.505848 -0.04875,-0.532759 0.03458,-0.902151 0.344936,-1.528983 0.584192,-1.1799 0.586534,-1.462965 0.02386,-2.883958 -0.201346,-0.50849 -0.215372,-1.150465 -0.03321,-1.52033 0.18278,-0.371124 0.541542,-0.739997 0.918506,-0.944386 0.310372,-0.168284 0.365912,-0.180654 0.783832,-0.174577 0.247386,0.0036 0.61648,0.02741 0.820208,0.05292 0.213724,0.02676 0.829306,0.02625 1.45521,-0.0012 1.406942,-0.0617 1.454472,-0.06188 2.51354,-0.0095 0.76946,0.03803 0.967366,0.031 1.36817,-0.04862 0.922498,-0.183246 1.403034,-0.0362 2.02039,0.618225 0.446002,0.472786 0.553902,0.68983 0.553104,1.112579 -8e-4,0.398522 -0.08951,0.745186 -0.306716,1.19798 -0.385526,0.80367 -0.346686,1.434352 0.14975,2.431595 0.38387,0.771124 0.44709,1.012008 0.403296,1.536655 -0.05812,0.696202 -0.21,1.049651 -1.049652,2.442649 -0.307004,0.509323 -0.635342,1.080823 -0.729642,1.27 -0.246392,0.494297 -0.596472,1.046924 -0.688908,1.087495 -0.08994,0.03947 -5.240234,0.07606 -5.765886,0.04096 z m 4.548804,-0.223121 c 0.509322,-0.02219 0.975258,-0.06679 1.035414,-0.0991 0.06015,-0.03231 0.214936,-0.251569 0.343958,-0.48724 0.129022,-0.23567 0.560562,-0.989975 0.958978,-1.676232 0.960476,-1.654388 1.017926,-1.795496 1.020132,-2.505674 l 0.0018,-0.555625 -0.36621,-0.758754 c -0.335882,-0.695914 -0.36805,-0.79233 -0.38842,-1.164167 -0.02782,-0.507819 0.08079,-1.039634 0.32335,-1.583298 0.294594,-0.66029 0.330006,-1.016598 0.138364,-1.392243 -0.149474,-0.292996 -0.662938,-0.790615 -0.973252,-0.943219 -0.247226,-0.121579 -0.282322,-0.124795 -0.87155,-0.07986 -0.337672,0.02575 -0.935418,0.04374 -1.328324,0.03996 -0.392906,-0.0038 -1.154906,-0.0047 -1.693334,-0.0022 -1.660822,0.008 -2.944266,0.0039 -3.38282,-0.0108 -0.324562,-0.01085 -0.472714,0.0095 -0.654706,0.09002 -0.304384,0.134643 -0.619816,0.422142 -0.840312,0.7659 -0.164624,0.25665 -0.175544,0.302356 -0.173166,0.724811 0.0022,0.383058 0.02395,0.492224 0.144878,0.725674 0.271006,0.523166 0.419404,1.064066 0.425478,1.550838 0.0063,0.50384 -0.03676,0.664293 -0.361994,1.349375 -0.30931,0.651529 -0.417012,1.106274 -0.382224,1.613834 0.03361,0.490404 0.125098,0.68379 1.052136,2.2241 0.359574,0.597447 0.772834,1.305025 0.918356,1.572396 0.14552,0.267371 0.300302,0.504228 0.343958,0.526349 0.189196,0.09587 3.14963,0.143082 4.709582,0.07511 z"
       id="path2748" />
  </g>
</svg>
