<?xml version="1.0" encoding="UTF-8" standalone="no"?>
<svg
   xmlns:dc="http://purl.org/dc/elements/1.1/"
   xmlns:cc="http://creativecommons.org/ns#"
   xmlns:rdf="http://www.w3.org/1999/02/22-rdf-syntax-ns#"
   xmlns:svg="http://www.w3.org/2000/svg"
   xmlns="http://www.w3.org/2000/svg"
   xmlns:sodipodi="http://sodipodi.sourceforge.net/DTD/sodipodi-0.dtd"
   xmlns:inkscape="http://www.inkscape.org/namespaces/inkscape"
   width="13.229167mm"
   height="13.229167mm"
   viewBox="0 0 13.229169 13.229168"
   version="1.1"
   id="svg8"
   sodipodi:docname="VCS_resized_121.svg"
   inkscape:version="1.0.2-2 (e86c870879, 2021-01-15)">
  <defs
     id="defs2" />
  <sodipodi:namedview
     id="base"
     pagecolor="#ffffff"
     bordercolor="#666666"
     borderopacity="1.0"
     inkscape:pageopacity="0.0"
     inkscape:pageshadow="2"
     inkscape:zoom="2.8284271"
     inkscape:cx="-0.58052271"
     inkscape:cy="52.79601"
     inkscape:document-units="mm"
     inkscape:current-layer="layer1"
     inkscape:document-rotation="0"
     showgrid="false"
     inkscape:window-width="958"
     inkscape:window-height="1008"
     inkscape:window-x="1913"
     inkscape:window-y="0"
     inkscape:window-maximized="0" />
  <metadata
     id="metadata5">
    <rdf:RDF>
      <cc:Work
         rdf:about="">
        <dc:format>image/svg+xml</dc:format>
        <dc:type
           rdf:resource="http://purl.org/dc/dcmitype/StillImage" />
        <dc:title></dc:title>
      </cc:Work>
    </rdf:RDF>
  </metadata>
  <g
     inkscape:label="Ebene 1"
     inkscape:groupmode="layer"
     id="layer1"
     transform="translate(-38.35358,-12.622668)">
    <path
       style="fill:#000000;stroke-width:0.264582"
       d="m 43.221915,25.345785 c -0.363802,-0.09639 -0.760656,-0.20209 -0.881896,-0.234892 -0.192744,-0.05215 -0.302436,-0.156436 -0.873124,-0.830132 -0.35898,-0.423771 -0.777884,-0.917502 -0.930902,-1.097182 -0.153018,-0.179679 -0.373282,-0.513994 -0.489478,-0.742921 -0.192288,-0.378839 -0.211266,-0.452975 -0.211266,-0.825233 0,-0.384687 0.01206,-0.427579 0.203012,-0.721477 0.111658,-0.171861 0.320016,-0.419241 0.463022,-0.549732 0.686582,-0.626506 1.027024,-1.184712 1.067962,-1.751085 0.03709,-0.513068 -0.08049,-0.846347 -0.531302,-1.506087 -0.91275,-1.335747 -1.054794,-1.655355 -1.05142,-2.365748 0.0051,-1.075361 0.521154,-1.765235 1.313548,-1.756018 0.34198,0.004 0.31048,-0.01049 0.962596,0.442146 0.127256,0.08833 0.448724,0.360227 0.714374,0.604215 1.105536,1.015392 1.449462,1.184703 2.305814,1.13513 0.581522,-0.03366 0.830062,-0.1958 1.942002,-1.266875 0.74964,-0.722092 0.96969,-0.874074 1.33586,-0.922649 0.974166,-0.129227 1.695562,1.284885 1.279792,2.508706 -0.128558,0.378406 -0.227362,0.545564 -0.750792,1.270184 -0.51495,0.712883 -0.693358,1.102856 -0.724168,1.582924 -0.01988,0.309849 -0.0014,0.448627 0.09501,0.714908 0.15666,0.432504 0.239224,0.547162 0.850792,1.181495 0.627768,0.651138 0.78973,0.941433 0.78973,1.415476 0,0.522179 -0.209056,0.875789 -1.272266,2.151993 -0.497058,0.596636 -0.947784,1.129618 -1.001612,1.184404 -0.09273,0.09438 -0.51537,0.22857 -1.44687,0.459394 -0.34226,0.08481 -0.592844,0.101752 -1.455208,0.09838 -1.004376,-0.0039 -1.065484,-0.01036 -1.70321,-0.179324 z m 3.661496,-0.327582 0.734458,-0.19348 0.931492,-1.116208 c 1.1082,-1.327954 1.21138,-1.47946 1.256332,-1.844741 0.06639,-0.539448 -0.112348,-0.856402 -0.99355,-1.761901 -0.08318,-0.08547 -0.26415,-0.325621 -0.402162,-0.533668 -0.613074,-0.924186 -0.441564,-1.835838 0.610768,-3.246524 0.486026,-0.651533 0.655236,-1.084148 0.656372,-1.678119 10e-4,-0.574458 -0.209658,-0.978275 -0.65514,-1.255277 -0.19903,-0.123756 -0.54489,-0.08063 -0.866932,0.108099 -0.129146,0.07568 -0.525694,0.415817 -0.881216,0.755849 -1.052852,1.006981 -1.42153,1.196287 -2.252752,1.15673 -0.411564,-0.01959 -0.574664,-0.05433 -0.899582,-0.191604 -0.395078,-0.166919 -0.564364,-0.293879 -1.507152,-1.13031 -0.486042,-0.431211 -1.095548,-0.781618 -1.359566,-0.781618 -0.18756,0 -0.50659,0.15755 -0.65928,0.32558 -0.25398,0.279494 -0.308054,0.464524 -0.309288,1.05832 -0.0012,0.55838 8e-4,0.567654 0.217342,0.98421 0.120184,0.231285 0.334496,0.592248 0.47625,0.80214 0.69494,1.028982 0.869362,1.42977 0.881966,2.026573 0.01386,0.65601 -0.15527,0.952548 -1.245536,2.183892 -0.452388,0.510926 -0.547714,0.732175 -0.497764,1.155298 0.01652,0.140005 0.08399,0.36257 0.149928,0.49459 0.11743,0.235127 1.813548,2.311253 1.99055,2.436521 0.04941,0.03497 0.41131,0.14655 0.804216,0.247956 0.70911,0.183014 0.723116,0.184396 1.900082,0.18777 l 1.185706,0.0034 z"
       id="path1978" />
  </g>
</svg>
