<?xml version="1.0" encoding="UTF-8" standalone="no"?>
<svg
   xmlns:dc="http://purl.org/dc/elements/1.1/"
   xmlns:cc="http://creativecommons.org/ns#"
   xmlns:rdf="http://www.w3.org/1999/02/22-rdf-syntax-ns#"
   xmlns:svg="http://www.w3.org/2000/svg"
   xmlns="http://www.w3.org/2000/svg"
   xmlns:sodipodi="http://sodipodi.sourceforge.net/DTD/sodipodi-0.dtd"
   xmlns:inkscape="http://www.inkscape.org/namespaces/inkscape"
   width="13.229167mm"
   height="13.229167mm"
   viewBox="0 0 13.229167 13.229167"
   version="1.1"
   id="svg8"
   sodipodi:docname="VCS_resized_91.svg"
   inkscape:version="1.0.2-2 (e86c870879, 2021-01-15)">
  <defs
     id="defs2" />
  <sodipodi:namedview
     id="base"
     pagecolor="#ffffff"
     bordercolor="#666666"
     borderopacity="1.0"
     inkscape:pageopacity="0.0"
     inkscape:pageshadow="2"
     inkscape:zoom="2.8284271"
     inkscape:cx="-4.5742752"
     inkscape:cy="57.262643"
     inkscape:document-units="mm"
     inkscape:current-layer="layer1"
     inkscape:document-rotation="0"
     showgrid="false"
     inkscape:window-width="958"
     inkscape:window-height="1008"
     inkscape:window-x="1913"
     inkscape:window-y="0"
     inkscape:window-maximized="0" />
  <metadata
     id="metadata5">
    <rdf:RDF>
      <cc:Work
         rdf:about="">
        <dc:format>image/svg+xml</dc:format>
        <dc:type
           rdf:resource="http://purl.org/dc/dcmitype/StillImage" />
        <dc:title></dc:title>
      </cc:Work>
    </rdf:RDF>
  </metadata>
  <g
     inkscape:label="Ebene 1"
     inkscape:groupmode="layer"
     id="layer1"
     transform="translate(-39.410263,-11.440872)">
    <path
       style="fill:#000000;stroke-width:0.264582"
       d="m 44.701604,23.745827 c -0.159814,-0.02029 -0.512424,-0.06224 -0.783578,-0.09323 -0.92447,-0.105648 -1.65916,-0.431871 -2.206748,-0.979857 -0.597804,-0.598237 -0.775488,-1.0945 -0.584046,-1.631213 0.109806,-0.307847 0.321126,-0.581998 0.87887,-1.140182 0.864464,-0.865148 1.108472,-1.270539 1.108472,-1.841603 0,-0.565764 -0.287484,-1.114377 -1.077268,-2.055775 -0.979076,-1.167031 -1.212598,-2.084344 -0.761116,-2.989792 0.240664,-0.482649 0.547046,-0.687917 1.026782,-0.687917 0.57604,0 0.96041,0.270852 1.851578,1.304737 0.34435,0.399497 0.728602,0.799191 0.85389,0.888207 0.693494,0.492722 1.503196,0.448788 2.13096,-0.115625 0.150074,-0.13493 0.506262,-0.522539 0.791532,-0.861353 0.816296,-0.96952 1.156078,-1.20875 1.723756,-1.213643 0.52604,-0.0045 0.99091,0.3897 1.164782,0.987797 0.06126,0.210737 0.07967,0.435433 0.06436,0.785513 -0.01956,0.447423 -0.04068,0.528968 -0.241244,0.931626 -0.13882,0.278705 -0.401186,0.658562 -0.712136,1.031043 -1.037892,1.24327 -1.250042,1.90627 -0.862722,2.696131 0.116254,0.237075 0.333452,0.491145 0.900426,1.053276 0.839626,0.832454 0.98758,1.064036 1.022006,1.599674 0.018,0.280197 -4e-4,0.371526 -0.12277,0.608542 -0.184848,0.358075 -0.331404,0.511066 -0.799654,0.834767 -0.483582,0.3343 -1.068792,0.615546 -1.417038,0.681016 -1.066424,0.200486 -3.145292,0.309907 -3.949096,0.207861 z m 3.153628,-0.386342 c 1.110586,-0.188138 1.87409,-0.523154 2.412124,-1.058408 0.305256,-0.303678 0.4143,-0.525707 0.4143,-0.84357 0,-0.398391 -0.25033,-0.768844 -1.074846,-1.590624 -0.465772,-0.464225 -0.752964,-0.879032 -0.886572,-1.280523 -0.107254,-0.322298 -0.112606,-0.389403 -0.0587,-0.736126 0.101238,-0.651178 0.350972,-1.111541 1.121284,-2.066985 0.586454,-0.7274 0.80374,-1.169521 0.834008,-1.696992 0.033,-0.575075 -0.0475,-0.829118 -0.362578,-1.144192 l -0.257504,-0.257503 -0.365322,0.02064 c -0.515786,0.02914 -0.802472,0.231718 -1.490362,1.053093 -0.296188,0.353665 -0.64416,0.744244 -0.77327,0.867953 -0.635442,0.608861 -1.435172,0.750472 -2.18233,0.386431 -0.27808,-0.13549 -0.919778,-0.756577 -1.449562,-1.403002 -0.412044,-0.502763 -0.746606,-0.765277 -1.128624,-0.885575 -0.7112,-0.223956 -1.256112,0.292229 -1.255864,1.189653 9.6e-5,0.342752 0.0254,0.450999 0.185544,0.79375 0.10199,0.218282 0.337942,0.596393 0.524338,0.840248 0.877436,1.147909 1.074852,1.47299 1.240458,2.042655 0.122578,0.421655 0.08285,0.855362 -0.119066,1.299698 -0.118732,0.261282 -0.292508,0.48831 -0.708834,0.926041 -0.983888,1.034474 -1.130178,1.26091 -1.09428,1.693794 0.05404,0.65165 0.72272,1.301513 1.704874,1.656898 0.597748,0.216291 1.422166,0.308325 2.843734,0.317462 1.001406,0.0064 1.245622,-0.0094 1.927052,-0.124819 z"
       id="path1498" />
  </g>
</svg>
