<?xml version="1.0" encoding="UTF-8" standalone="no"?>
<svg
   xmlns:dc="http://purl.org/dc/elements/1.1/"
   xmlns:cc="http://creativecommons.org/ns#"
   xmlns:rdf="http://www.w3.org/1999/02/22-rdf-syntax-ns#"
   xmlns:svg="http://www.w3.org/2000/svg"
   xmlns="http://www.w3.org/2000/svg"
   xmlns:sodipodi="http://sodipodi.sourceforge.net/DTD/sodipodi-0.dtd"
   xmlns:inkscape="http://www.inkscape.org/namespaces/inkscape"
   width="13.229167mm"
   height="13.229167mm"
   viewBox="0 0 13.229169 13.229168"
   version="1.1"
   id="svg8"
   sodipodi:docname="VCS_resized_130.svg"
   inkscape:version="1.0.2-2 (e86c870879, 2021-01-15)">
  <defs
     id="defs2" />
  <sodipodi:namedview
     id="base"
     pagecolor="#ffffff"
     bordercolor="#666666"
     borderopacity="1.0"
     inkscape:pageopacity="0.0"
     inkscape:pageshadow="2"
     inkscape:zoom="2.8284271"
     inkscape:cx="-0.7911112"
     inkscape:cy="70.290532"
     inkscape:document-units="mm"
     inkscape:current-layer="layer1"
     inkscape:document-rotation="0"
     showgrid="false"
     inkscape:window-width="958"
     inkscape:window-height="1008"
     inkscape:window-x="1913"
     inkscape:window-y="0"
     inkscape:window-maximized="0" />
  <metadata
     id="metadata5">
    <rdf:RDF>
      <cc:Work
         rdf:about="">
        <dc:format>image/svg+xml</dc:format>
        <dc:type
           rdf:resource="http://purl.org/dc/dcmitype/StillImage" />
        <dc:title></dc:title>
      </cc:Work>
    </rdf:RDF>
  </metadata>
  <g
     inkscape:label="Ebene 1"
     inkscape:groupmode="layer"
     id="layer1"
     transform="translate(-38.409298,-7.9939084)">
    <path
       style="fill:#000000;stroke-width:0.264582"
       d="m 43.819704,20.8198 c -0.248654,-0.04092 -1.190256,-0.234258 -1.417002,-0.290946 -0.211582,-0.0529 -0.271388,-0.11582 -0.91506,-0.962754 -0.378774,-0.498386 -0.819084,-1.072844 -0.978464,-1.276574 -0.15938,-0.203728 -0.378634,-0.547718 -0.487232,-0.76442 -0.171382,-0.341986 -0.19992,-0.452208 -0.21617,-0.834907 -0.01648,-0.387978 -0.0024,-0.474168 0.116852,-0.718003 0.07456,-0.152404 0.350116,-0.514883 0.612338,-0.805509 0.74126,-0.821554 0.955592,-1.370955 0.797236,-2.043571 -0.08363,-0.355225 -0.176796,-0.540636 -0.628598,-1.251027 -0.424598,-0.667617 -0.561244,-0.96101 -0.644366,-1.383511 -0.110686,-0.562607 0.05422,-1.305756 0.382312,-1.722854 0.249864,-0.317651 0.863232,-0.486513 1.242886,-0.342169 0.08087,0.03075 0.524938,0.298637 0.98682,0.595312 1.352946,0.869025 1.426684,0.913152 1.704074,1.019784 0.203482,0.07822 0.399004,0.101645 0.846666,0.101435 0.568146,-2.6e-4 0.591338,-0.005 0.968612,-0.198424 0.477132,-0.244596 0.906916,-0.534024 1.253888,-0.844399 0.145522,-0.130172 0.413692,-0.337964 0.595938,-0.46176 0.436268,-0.296352 0.822036,-0.346728 1.202,-0.156965 0.50808,0.253747 0.779288,0.810958 0.783092,1.608905 0.0029,0.603102 -0.103004,0.890837 -0.606242,1.647471 -0.20352,0.306 -0.445356,0.715344 -0.537412,0.909654 -0.149322,0.315184 -0.167376,0.404662 -0.167376,0.829542 0,0.431031 0.01652,0.510026 0.173992,0.831991 0.11508,0.235291 0.332666,0.526601 0.642622,0.860362 0.619494,0.667075 0.715702,0.866173 0.716432,1.482647 8e-4,0.67324 0.02119,0.636156 -1.38078,2.51059 -0.469234,0.627362 -0.89832,1.181052 -0.953526,1.23042 -0.09796,0.0876 -0.70227,0.245136 -1.500614,0.39118 -0.370172,0.06772 -2.246142,0.09557 -2.592918,0.0385 z m 3.148542,-0.411356 c 0.34925,-0.07702 0.675534,-0.16857 0.725076,-0.203438 0.07451,-0.05244 1.439466,-1.838506 1.989576,-2.603396 0.275772,-0.383438 0.36158,-0.764513 0.269176,-1.195385 -0.07457,-0.347711 -0.180148,-0.518492 -0.727964,-1.177558 -0.69356,-0.834405 -0.807568,-1.079774 -0.80295,-1.728099 0.0045,-0.626449 0.176892,-1.067753 0.744334,-1.905 0.41317,-0.609625 0.519494,-0.836753 0.574922,-1.228155 C 49.797006,9.967846 49.74031,9.556144 49.58426,9.233831 49.43454,8.924553 49.038484,8.683765 48.729974,8.714457 c -0.273304,0.02719 -0.63362,0.228317 -1.109196,0.619152 -0.956952,0.786435 -1.618098,1.091083 -2.37833,1.095907 -0.715044,0.0045 -1.21141,-0.181009 -2.154314,-0.805309 -0.837782,-0.554697 -1.40552,-0.865321 -1.673444,-0.915583 -0.284702,-0.05341 -0.730328,0.17992 -0.897498,0.469933 -0.257976,0.447542 -0.297282,1.085903 -0.09783,1.588786 0.04792,0.120826 0.28786,0.551594 0.533198,0.957262 0.953292,1.576285 0.961464,2.246047 0.04083,3.346088 -0.805436,0.96239 -0.970888,1.28225 -0.913736,1.766482 0.0588,0.498211 0.08254,0.535333 1.6689,2.610471 0.301522,0.394424 0.575366,0.739404 0.608542,0.766622 0.0584,0.04791 1.192758,0.296714 1.568444,0.34401 0.101864,0.01282 0.68527,0.01586 1.296458,0.0068 0.9676,-0.01442 1.193336,-0.03466 1.74625,-0.156596 z"
       id="path2122" />
  </g>
</svg>
