<?xml version="1.0" encoding="UTF-8" standalone="no"?>
<svg
   xmlns:dc="http://purl.org/dc/elements/1.1/"
   xmlns:cc="http://creativecommons.org/ns#"
   xmlns:rdf="http://www.w3.org/1999/02/22-rdf-syntax-ns#"
   xmlns:svg="http://www.w3.org/2000/svg"
   xmlns="http://www.w3.org/2000/svg"
   xmlns:sodipodi="http://sodipodi.sourceforge.net/DTD/sodipodi-0.dtd"
   xmlns:inkscape="http://www.inkscape.org/namespaces/inkscape"
   width="13.229167mm"
   height="13.229167mm"
   viewBox="0 0 13.229167 13.229167"
   version="1.1"
   id="svg8"
   sodipodi:docname="VCS_resized_26.svg"
   inkscape:version="1.0.2-2 (e86c870879, 2021-01-15)">
  <defs
     id="defs2" />
  <sodipodi:namedview
     id="base"
     pagecolor="#ffffff"
     bordercolor="#666666"
     borderopacity="1.0"
     inkscape:pageopacity="0.0"
     inkscape:pageshadow="2"
     inkscape:zoom="2.8284271"
     inkscape:cx="6.1676774"
     inkscape:cy="50.885958"
     inkscape:document-units="mm"
     inkscape:current-layer="layer1"
     inkscape:document-rotation="0"
     showgrid="false"
     inkscape:window-width="958"
     inkscape:window-height="1008"
     inkscape:window-x="1913"
     inkscape:window-y="0"
     inkscape:window-maximized="0" />
  <metadata
     id="metadata5">
    <rdf:RDF>
      <cc:Work
         rdf:about="">
        <dc:format>image/svg+xml</dc:format>
        <dc:type
           rdf:resource="http://purl.org/dc/dcmitype/StillImage" />
        <dc:title></dc:title>
      </cc:Work>
    </rdf:RDF>
  </metadata>
  <g
     inkscape:label="Ebene 1"
     inkscape:groupmode="layer"
     id="layer1"
     transform="translate(-36.568123,-13.128036)">
    <path
       style="fill:#000000;stroke-width:0.264582"
       d="m 40.220978,24.66839 c -0.24332,-0.231854 -0.37812,-0.627064 -0.37812,-1.108578 0,-0.480058 0.08572,-0.753069 0.441196,-1.405203 0.482914,-0.885918 0.618716,-1.57034 0.40502,-2.04124 -0.135844,-0.299347 -0.659782,-0.814105 -1.190174,-1.169323 -1.041262,-0.697359 -1.506822,-1.218522 -1.587052,-1.776594 -0.03777,-0.262754 0.04766,-0.436604 0.28173,-0.573309 0.25044,-0.146265 0.820152,-0.254475 1.141044,-0.216726 0.33662,0.0396 0.89045,0.212199 1.169694,0.364533 0.306632,0.167275 1.01597,0.455958 1.322916,0.538395 0.842594,0.226296 1.304378,-0.04326 2.163134,-1.262677 0.555762,-0.789173 0.970466,-1.122375 1.595254,-1.28174 0.444918,-0.113485 0.601944,-0.06226 0.756518,0.246801 0.06755,0.135066 0.148186,0.416444 0.179182,0.625284 0.07719,0.520111 -8e-4,0.839186 -0.382494,1.565428 -0.634386,1.206937 -0.719758,1.900545 -0.295918,2.404249 0.184298,0.219026 0.650046,0.600876 1.196616,0.981061 0.861302,0.599108 1.355392,1.206794 1.415612,1.741079 0.03452,0.306273 -0.05237,0.437724 -0.39218,0.593294 -0.566924,0.259546 -1.31621,0.189185 -2.081766,-0.195486 -0.508478,-0.255497 -1.238134,-0.4775 -1.681862,-0.511717 -0.38233,-0.02948 -0.441382,-0.02019 -0.703886,0.110767 -0.377608,0.188381 -0.655708,0.462345 -1.189546,1.17185 -0.679346,0.902898 -0.946864,1.118726 -1.568228,1.265218 -0.438726,0.103433 -0.439648,0.103335 -0.61669,-0.06537 z m 0.79138,-0.232746 c 0.294932,-0.08836 0.718694,-0.493047 1.241402,-1.185507 0.52517,-0.695723 0.81163,-0.963588 1.279312,-1.196273 0.308614,-0.153544 0.354304,-0.161793 0.70478,-0.127258 0.551118,0.0543 1.097856,0.212492 1.747476,0.505595 0.647902,0.292326 1.101592,0.395847 1.499028,0.342041 0.27674,-0.03746 0.557058,-0.152276 0.62592,-0.256361 0.05694,-0.08607 0.04887,-0.373803 -0.01522,-0.542362 -0.09432,-0.248094 -0.51091,-0.688593 -0.965724,-1.021158 -0.238574,-0.174449 -0.540928,-0.395272 -0.671898,-0.490719 -0.38426,-0.280039 -0.847546,-0.738981 -0.988222,-0.978955 -0.09522,-0.162439 -0.130588,-0.300164 -0.130588,-0.508571 0,-0.612267 0.08231,-0.886264 0.543346,-1.808664 0.410628,-0.821551 0.474948,-1.105009 0.367826,-1.621011 -0.08316,-0.400566 -0.204946,-0.522255 -0.522028,-0.521597 -0.54062,0.0011 -0.977068,0.348192 -1.663144,1.322559 -0.42089,0.597749 -0.647298,0.826836 -1.07323,1.085934 -0.304108,0.18499 -0.333126,0.191985 -0.687918,0.165844 -0.462364,-0.03407 -0.945448,-0.183238 -1.693332,-0.522883 -0.617992,-0.280655 -1.177092,-0.464471 -1.41275,-0.464471 -0.284408,0 -0.683826,0.118023 -0.837754,0.247545 -0.422218,0.355272 -0.0069,0.991544 1.181324,1.809812 1.035734,0.713253 1.51897,1.312353 1.51897,1.883159 0,0.413326 -0.177552,0.962853 -0.568882,1.76069 l -0.35716,0.728169 0.0022,0.502709 c 0.0037,0.847347 0.235874,1.083593 0.876248,0.891733 z"
       id="path408" />
  </g>
</svg>
