<?xml version="1.0" encoding="UTF-8" standalone="no"?>
<svg
   xmlns:dc="http://purl.org/dc/elements/1.1/"
   xmlns:cc="http://creativecommons.org/ns#"
   xmlns:rdf="http://www.w3.org/1999/02/22-rdf-syntax-ns#"
   xmlns:svg="http://www.w3.org/2000/svg"
   xmlns="http://www.w3.org/2000/svg"
   xmlns:sodipodi="http://sodipodi.sourceforge.net/DTD/sodipodi-0.dtd"
   xmlns:inkscape="http://www.inkscape.org/namespaces/inkscape"
   width="13.229167mm"
   height="13.229167mm"
   viewBox="0 0 13.229169 13.229168"
   version="1.1"
   id="svg8"
   sodipodi:docname="VCS_resized_126.svg"
   inkscape:version="1.0.2-2 (e86c870879, 2021-01-15)">
  <defs
     id="defs2" />
  <sodipodi:namedview
     id="base"
     pagecolor="#ffffff"
     bordercolor="#666666"
     borderopacity="1.0"
     inkscape:pageopacity="0.0"
     inkscape:pageshadow="2"
     inkscape:zoom="2.8284271"
     inkscape:cx="-2.5613076"
     inkscape:cy="58.974864"
     inkscape:document-units="mm"
     inkscape:current-layer="layer1"
     inkscape:document-rotation="0"
     showgrid="false"
     inkscape:window-width="958"
     inkscape:window-height="1008"
     inkscape:window-x="1913"
     inkscape:window-y="0"
     inkscape:window-maximized="0" />
  <metadata
     id="metadata5">
    <rdf:RDF>
      <cc:Work
         rdf:about="">
        <dc:format>image/svg+xml</dc:format>
        <dc:type
           rdf:resource="http://purl.org/dc/dcmitype/StillImage" />
        <dc:title></dc:title>
      </cc:Work>
    </rdf:RDF>
  </metadata>
  <g
     inkscape:label="Ebene 1"
     inkscape:groupmode="layer"
     id="layer1"
     transform="translate(-38.877663,-10.987846)">
    <path
       style="fill:#000000;stroke-width:0.264582"
       d="m 43.958338,23.764241 c -0.247384,-0.05222 -0.640292,-0.144095 -0.873124,-0.20416 -0.479028,-0.123578 -0.395754,-0.04881 -1.27,-1.140214 -0.952508,-1.189103 -1.080608,-1.364259 -1.281296,-1.751966 -0.162254,-0.313456 -0.1954,-0.436481 -0.215556,-0.800037 -0.0214,-0.385987 -0.0096,-0.458015 0.116606,-0.709196 0.07723,-0.153766 0.33412,-0.484203 0.570862,-0.734304 0.74366,-0.785626 0.97584,-1.261255 0.9298,-1.904729 -0.03213,-0.449079 -0.176678,-0.772609 -0.67215,-1.504428 -0.650352,-0.960582 -0.828338,-1.496644 -0.745992,-2.246795 0.04139,-0.377055 0.213546,-0.813772 0.411898,-1.044878 0.213798,-0.249105 0.498036,-0.36911 0.867034,-0.366062 0.33447,0.0028 0.37313,0.01696 0.7925,0.291042 0.242484,0.158476 0.656196,0.454825 0.919362,0.658554 0.802828,0.621506 0.862098,0.661712 1.230874,0.834967 0.328904,0.154522 0.400464,0.167779 0.912516,0.16906 0.53221,0.0013 0.568752,-0.006 0.867138,-0.173863 0.390002,-0.219409 1.013842,-0.682614 1.22307,-0.908139 0.239646,-0.258312 0.908164,-0.748219 1.128268,-0.826824 0.74484,-0.266002 1.466612,0.342171 1.591574,1.341076 0.08788,0.702463 -0.08235,1.294145 -0.564718,1.96288 -0.418034,0.579544 -0.703532,1.062209 -0.782808,1.323417 -0.117282,0.386445 -0.09606,0.851539 0.05746,1.25942 0.142628,0.37893 0.29456,0.586629 0.93485,1.277998 0.484118,0.522737 0.594652,0.782709 0.563252,1.324743 -0.02621,0.452462 -0.159808,0.727104 -0.69928,1.437556 -1.036414,1.364891 -1.63029,2.07342 -1.795554,2.142202 -0.09266,0.03856 -0.5144,0.143843 -0.93721,0.233956 -0.717596,0.152942 -0.837302,0.163504 -1.799166,0.158758 -0.772718,-0.0038 -1.142912,-0.02883 -1.480214,-0.100034 z m 2.979588,-0.262171 c 0.12203,-0.02738 0.443828,-0.101906 0.71511,-0.165602 l 0.493242,-0.115811 0.485718,-0.611858 c 1.013066,-1.276158 1.550832,-1.987566 1.656564,-2.191453 0.116286,-0.224242 0.121776,-0.844388 0.0097,-1.09882 -0.04486,-0.101864 -0.306544,-0.447146 -0.58152,-0.767291 -0.871798,-1.015006 -1.0492,-1.422828 -0.946694,-2.176317 0.06593,-0.48464 0.27143,-0.940854 0.712046,-1.580767 0.61571,-0.894208 0.718628,-1.148624 0.719758,-1.779284 10e-4,-0.583403 -0.209726,-1.020865 -0.583804,-1.211705 -0.466334,-0.237906 -0.888692,-0.06659 -1.743902,0.707373 -0.460292,0.416563 -0.906134,0.72377 -1.322916,0.911557 -0.306492,0.138094 -0.401602,0.154976 -0.873126,0.154976 -0.799682,0 -1.14799,-0.145812 -2.156526,-0.90278 -1.246068,-0.935252 -1.680594,-1.112614 -2.145062,-0.875559 -0.433172,0.221082 -0.564056,0.50404 -0.565572,1.222714 -0.0012,0.529438 0.0078,0.57433 0.18838,0.9525 0.104256,0.218281 0.351968,0.646353 0.550472,0.951271 0.45972,0.706161 0.669914,1.262075 0.680742,1.800395 0.007,0.34617 -0.01328,0.44082 -0.158462,0.740834 -0.09155,0.189177 -0.288596,0.486833 -0.43789,0.661458 -0.922322,1.078809 -1.062934,1.307275 -1.062244,1.725931 8e-4,0.449226 0.2,0.820818 0.91722,1.71048 0.237522,0.29463 0.622358,0.779153 0.855192,1.076719 0.396438,0.506654 0.441516,0.546445 0.70951,0.626281 0.780332,0.232465 1.165608,0.277011 2.428828,0.280824 0.678336,0.002 1.33318,-0.01868 1.455208,-0.04607 z"
       id="path2058" />
  </g>
</svg>
