<?xml version="1.0" encoding="UTF-8" standalone="no"?>
<svg
   xmlns:dc="http://purl.org/dc/elements/1.1/"
   xmlns:cc="http://creativecommons.org/ns#"
   xmlns:rdf="http://www.w3.org/1999/02/22-rdf-syntax-ns#"
   xmlns:svg="http://www.w3.org/2000/svg"
   xmlns="http://www.w3.org/2000/svg"
   xmlns:sodipodi="http://sodipodi.sourceforge.net/DTD/sodipodi-0.dtd"
   xmlns:inkscape="http://www.inkscape.org/namespaces/inkscape"
   width="13.229167mm"
   height="13.229167mm"
   viewBox="0 0 13.229167 13.229167"
   version="1.1"
   id="svg8"
   sodipodi:docname="VCS_resized_30.svg"
   inkscape:version="1.0.2-2 (e86c870879, 2021-01-15)">
  <defs
     id="defs2" />
  <sodipodi:namedview
     id="base"
     pagecolor="#ffffff"
     bordercolor="#666666"
     borderopacity="1.0"
     inkscape:pageopacity="0.0"
     inkscape:pageshadow="2"
     inkscape:zoom="2.8284271"
     inkscape:cx="16.245713"
     inkscape:cy="52.175371"
     inkscape:document-units="mm"
     inkscape:current-layer="layer1"
     inkscape:document-rotation="0"
     showgrid="false"
     inkscape:window-width="958"
     inkscape:window-height="1008"
     inkscape:window-x="1913"
     inkscape:window-y="0"
     inkscape:window-maximized="0" />
  <metadata
     id="metadata5">
    <rdf:RDF>
      <cc:Work
         rdf:about="">
        <dc:format>image/svg+xml</dc:format>
        <dc:type
           rdf:resource="http://purl.org/dc/dcmitype/StillImage" />
        <dc:title></dc:title>
      </cc:Work>
    </rdf:RDF>
  </metadata>
  <g
     inkscape:label="Ebene 1"
     inkscape:groupmode="layer"
     id="layer1"
     transform="translate(-33.901642,-12.786879)">
    <path
       style="fill:#000000;stroke-width:0.264582"
       d="m 37.324459,24.255309 c -0.08399,-0.08004 -0.206292,-0.275646 -0.271774,-0.434689 -0.104382,-0.253524 -0.114646,-0.34352 -0.08328,-0.730136 0.04041,-0.497991 0.130728,-0.740502 0.50909,-1.366902 0.386856,-0.640459 0.57909,-1.167744 0.57909,-1.588403 0,-0.482546 -0.477412,-1.091631 -1.32237,-1.687089 -0.989488,-0.697311 -1.429296,-1.271188 -1.429296,-1.864992 0,-0.244653 0.02212,-0.308776 0.150928,-0.437587 0.463806,-0.463806 1.58841,-0.387775 2.500986,0.169083 0.702078,0.428412 1.59361,0.717487 1.995794,0.647127 0.445638,-0.07796 0.780886,-0.364793 1.409564,-1.205985 0.514358,-0.688226 0.812526,-0.974509 1.225304,-1.176463 0.331144,-0.162014 0.887752,-0.228732 1.074488,-0.128794 0.158796,0.08498 0.326218,0.47603 0.373362,0.87206 0.06734,0.565646 -0.0795,1.035394 -0.578516,1.850684 -0.416756,0.6809 -0.595198,1.400589 -0.453236,1.827997 0.121168,0.364801 0.414392,0.671663 1.21167,1.268021 0.381716,0.285521 0.805136,0.638209 0.940934,0.783749 0.458878,0.491806 0.693074,1.172794 0.503062,1.462787 -0.144358,0.220319 -0.607526,0.408958 -1.049534,0.427455 -0.470764,0.0197 -0.80044,-0.0729 -1.61034,-0.452331 -0.64793,-0.303546 -1.229932,-0.471574 -1.630744,-0.470805 -0.512396,9.8e-4 -1.05013,0.343188 -1.600514,1.018538 -0.77632,0.952588 -1.092008,1.201822 -1.658284,1.309214 -0.4603,0.08729 -0.617016,0.06885 -0.786388,-0.09254 z m 1.156464,-0.307124 c 0.25903,-0.131312 0.512702,-0.382222 1.106404,-1.094361 0.392144,-0.470372 0.68948,-0.722287 1.116096,-0.945604 0.198128,-0.103712 0.311078,-0.123584 0.672454,-0.118311 0.529992,0.0077 0.977996,0.136149 1.822848,0.522496 0.900692,0.411882 1.463874,0.47847 1.9564,0.231318 0.211562,-0.106163 0.258452,-0.185775 0.25672,-0.435867 -0.0032,-0.455753 -0.361486,-0.885384 -1.369428,-1.64194 -0.751358,-0.563965 -1.212512,-1.051461 -1.317142,-1.392378 -0.07309,-0.238163 -0.0037,-0.820809 0.151594,-1.27206 0.05726,-0.16643 0.248938,-0.547305 0.42595,-0.84639 0.311762,-0.526757 0.522688,-1.05704 0.522688,-1.314076 0,-0.266818 -0.118686,-0.657762 -0.239148,-0.787743 -0.105368,-0.113694 -0.172522,-0.135997 -0.406556,-0.135027 -0.537566,0.0022 -1.013754,0.347534 -1.561586,1.132374 -0.41589,0.59582 -0.925448,1.091144 -1.307136,1.270625 -0.265588,0.124888 -0.353706,0.14188 -0.582082,0.112247 -0.543634,-0.07054 -0.924184,-0.206577 -1.821576,-0.651167 -0.865732,-0.428905 -0.940366,-0.455857 -1.32378,-0.478053 -0.338296,-0.01958 -0.447018,-0.0044 -0.649384,0.09073 -0.38321,0.18013 -0.450234,0.428131 -0.236984,0.876873 0.149834,0.315291 0.505066,0.664415 1.222754,1.201729 0.63827,0.477856 1.077002,0.93936 1.272106,1.338138 0.129482,0.264654 0.141266,0.333462 0.11145,0.650748 -0.04165,0.44326 -0.230956,0.970311 -0.53487,1.489174 -0.439024,0.749533 -0.524934,0.98768 -0.52617,1.458544 -10e-4,0.418083 0.08466,0.702094 0.241196,0.798839 0.23916,0.147809 0.632968,0.123775 0.997182,-0.06086 z"
       id="path472" />
  </g>
</svg>
