<?xml version="1.0" encoding="UTF-8" standalone="no"?>
<svg
   xmlns:dc="http://purl.org/dc/elements/1.1/"
   xmlns:cc="http://creativecommons.org/ns#"
   xmlns:rdf="http://www.w3.org/1999/02/22-rdf-syntax-ns#"
   xmlns:svg="http://www.w3.org/2000/svg"
   xmlns="http://www.w3.org/2000/svg"
   xmlns:sodipodi="http://sodipodi.sourceforge.net/DTD/sodipodi-0.dtd"
   xmlns:inkscape="http://www.inkscape.org/namespaces/inkscape"
   width="13.229167mm"
   height="13.229167mm"
   viewBox="0 0 13.229169 13.229168"
   version="1.1"
   id="svg8"
   sodipodi:docname="VCS_resized_148.svg"
   inkscape:version="1.0.2-2 (e86c870879, 2021-01-15)">
  <defs
     id="defs2" />
  <sodipodi:namedview
     id="base"
     pagecolor="#ffffff"
     bordercolor="#666666"
     borderopacity="1.0"
     inkscape:pageopacity="0.0"
     inkscape:pageshadow="2"
     inkscape:zoom="2.8284271"
     inkscape:cx="7.1232763"
     inkscape:cy="46.940382"
     inkscape:document-units="mm"
     inkscape:current-layer="layer1"
     inkscape:document-rotation="0"
     showgrid="false"
     inkscape:window-width="958"
     inkscape:window-height="1008"
     inkscape:window-x="1913"
     inkscape:window-y="0"
     inkscape:window-maximized="0" />
  <metadata
     id="metadata5">
    <rdf:RDF>
      <cc:Work
         rdf:about="">
        <dc:format>image/svg+xml</dc:format>
        <dc:type
           rdf:resource="http://purl.org/dc/dcmitype/StillImage" />
        <dc:title></dc:title>
      </cc:Work>
    </rdf:RDF>
  </metadata>
  <g
     inkscape:label="Ebene 1"
     inkscape:groupmode="layer"
     id="layer1"
     transform="translate(-36.315281,-14.171969)">
    <path
       style="fill:#000000;stroke-width:0.264582"
       d="m 41.11047,26.876439 c -0.203728,-0.02383 -0.524902,-0.06226 -0.713718,-0.08542 l -0.343302,-0.0421 -0.238782,-0.354112 c -0.131328,-0.194762 -0.36975,-0.562137 -0.529822,-0.816388 -0.160072,-0.254252 -0.534804,-0.815397 -0.832736,-1.24699 -0.644252,-0.933285 -0.791404,-1.210428 -0.890218,-1.676616 -0.156664,-0.739122 -0.07535,-1.17649 0.324654,-1.746161 0.546508,-0.778324 0.672126,-0.985565 0.770232,-1.270714 0.195918,-0.569444 0.111226,-1.005726 -0.378846,-1.951616 -0.354226,-0.683691 -0.4488,-1.050179 -0.401722,-1.556722 0.0396,-0.426099 0.08432,-0.552165 0.323888,-0.913089 0.342632,-0.516196 0.954616,-0.703376 1.47095,-0.4499 0.588092,0.288704 1.284668,0.539167 1.995048,0.717346 0.324154,0.08131 0.5908,0.09922 1.455208,0.09777 1.311084,-0.0022 1.63767,-0.07475 2.637,-0.585804 0.865728,-0.442731 1.107886,-0.460618 1.607086,-0.118708 0.167686,0.11485 0.27184,0.252331 0.423236,0.558664 0.185126,0.374574 0.200824,0.441701 0.200914,0.859057 1.06e-4,0.514666 -0.08032,0.777763 -0.408202,1.335332 -0.637572,1.084187 -0.61442,1.867741 0.08259,2.795109 0.654422,0.870708 0.782018,1.253611 0.67475,2.024847 -0.07256,0.521707 -0.254486,0.919295 -0.781754,1.708507 -0.23233,0.347749 -0.632974,0.965646 -0.89032,1.373105 -0.722406,1.143793 -0.734068,1.155787 -1.198038,1.23217 -0.982892,0.161811 -3.402192,0.224225 -4.358094,0.11243 z m 4.047512,-0.308877 c 0.518408,-0.09706 0.548034,-0.122565 1.041128,-0.896349 0.252862,-0.396802 0.667782,-1.03102 0.922042,-1.409374 0.639106,-0.951024 0.889548,-1.460623 0.929832,-1.892014 0.05673,-0.607471 -0.09167,-1.027716 -0.624282,-1.76794 -0.481962,-0.669827 -0.573696,-0.905245 -0.57396,-1.472963 -4e-4,-0.662182 0.12666,-1.05642 0.57741,-1.792858 0.359696,-0.587673 0.408136,-1.173334 0.144652,-1.748859 -0.156226,-0.341243 -0.445422,-0.558946 -0.79482,-0.598328 -0.201642,-0.02273 -0.337476,0.02 -1.019614,0.320732 -1.007996,0.444389 -1.562362,0.564938 -2.597972,0.564938 -1.065958,0 -1.62823,-0.110905 -2.890988,-0.570232 -0.940986,-0.342283 -1.202758,-0.383203 -1.495522,-0.233785 -0.245736,0.125417 -0.337856,0.224181 -0.503142,0.539434 -0.104178,0.198698 -0.124912,0.316978 -0.125228,0.714375 l -4e-4,0.47625 0.38338,0.767291 c 0.329054,0.658566 0.39527,0.838839 0.467298,1.272202 0.08167,0.491402 0.0809,0.513878 -0.02901,0.840133 -0.06873,0.204033 -0.28688,0.590821 -0.55742,0.988342 -0.24447,0.359215 -0.475374,0.755062 -0.51312,0.879658 -0.03775,0.124598 -0.06816,0.440853 -0.0676,0.70279 10e-4,0.466339 0.0062,0.485611 0.247462,0.926042 0.135536,0.247385 0.468732,0.77126 0.740434,1.164167 0.271704,0.392906 0.679782,1.003759 0.906844,1.35745 0.227062,0.353692 0.461278,0.686913 0.52048,0.740491 0.186514,0.168792 0.998072,0.225593 2.901874,0.203101 0.945884,-0.01117 1.850482,-0.04479 2.010218,-0.07469 z"
       id="path2412" />
  </g>
</svg>
