<?xml version="1.0" encoding="UTF-8" standalone="no"?>
<svg
   xmlns:dc="http://purl.org/dc/elements/1.1/"
   xmlns:cc="http://creativecommons.org/ns#"
   xmlns:rdf="http://www.w3.org/1999/02/22-rdf-syntax-ns#"
   xmlns:svg="http://www.w3.org/2000/svg"
   xmlns="http://www.w3.org/2000/svg"
   xmlns:sodipodi="http://sodipodi.sourceforge.net/DTD/sodipodi-0.dtd"
   xmlns:inkscape="http://www.inkscape.org/namespaces/inkscape"
   width="13.229167mm"
   height="13.229167mm"
   viewBox="0 0 13.229169 13.229168"
   version="1.1"
   id="svg8"
   sodipodi:docname="VCS_resized_225.svg"
   inkscape:version="1.0.2-2 (e86c870879, 2021-01-15)">
  <defs
     id="defs2" />
  <sodipodi:namedview
     id="base"
     pagecolor="#ffffff"
     bordercolor="#666666"
     borderopacity="1.0"
     inkscape:pageopacity="0.0"
     inkscape:pageshadow="2"
     inkscape:zoom="2.8284271"
     inkscape:cx="8.2752954"
     inkscape:cy="30.969077"
     inkscape:document-units="mm"
     inkscape:current-layer="layer1"
     inkscape:document-rotation="0"
     showgrid="false"
     inkscape:window-width="958"
     inkscape:window-height="1008"
     inkscape:window-x="1913"
     inkscape:window-y="0"
     inkscape:window-maximized="0" />
  <metadata
     id="metadata5">
    <rdf:RDF>
      <cc:Work
         rdf:about="">
        <dc:format>image/svg+xml</dc:format>
        <dc:type
           rdf:resource="http://purl.org/dc/dcmitype/StillImage" />
        <dc:title></dc:title>
      </cc:Work>
    </rdf:RDF>
  </metadata>
  <g
     inkscape:label="Ebene 1"
     inkscape:groupmode="layer"
     id="layer1"
     transform="translate(-46.373856,-22.486601)">
    <path
       style="fill:#000000;stroke-width:0.264582"
       d="m 49.008044,35.252747 c -0.0443,-0.05093 -0.122314,-0.271198 -0.173374,-0.489479 -0.05106,-0.218282 -0.211254,-0.801688 -0.35599,-1.296459 -0.253568,-0.866804 -0.333338,-1.169287 -0.565184,-2.143125 -0.196518,-0.825446 -0.583262,-2.048941 -0.830818,-2.628349 -0.289268,-0.677043 -0.547284,-1.445957 -0.514164,-1.532267 0.0242,-0.06307 0.769288,-0.466501 2.415422,-1.307859 1.015608,-0.519089 1.464866,-0.84071 2.707618,-1.938373 0.97924,-0.864916 1.221244,-1.059819 1.315938,-1.059819 0.07958,0 0.450206,0.307494 1.802804,1.49572 0.74103,0.650976 1.163606,0.944601 2.026012,1.407764 0.443072,0.237956 0.847886,0.449971 0.899584,0.471144 0.311358,0.127521 1.649172,0.872932 1.671608,0.931396 0.03325,0.08664 -0.160134,0.677015 -0.38023,1.160816 -0.09017,0.198209 -0.261814,0.686366 -0.381428,1.084792 -0.119616,0.398426 -0.296546,0.986348 -0.39318,1.306494 -0.09663,0.320145 -0.239736,0.84402 -0.318002,1.164166 -0.07827,0.320146 -0.220168,0.844021 -0.315334,1.164167 -0.298236,1.003278 -0.55673,1.939484 -0.55673,2.01634 0,0.04063 -0.04763,0.121493 -0.105834,0.179702 -0.10391,0.103909 -0.176388,0.105833 -3.987006,0.105833 -3.630398,0 -3.886378,-0.006 -3.961712,-0.0926 z m 7.934796,-0.833438 c 0.09693,-0.34925 0.281046,-0.992187 0.409148,-1.42875 0.128102,-0.436562 0.285548,-1.019969 0.349876,-1.296458 0.280374,-1.205067 0.81662,-2.900466 1.179976,-3.730625 0.330342,-0.75473 0.460362,-0.607807 -1.369454,-1.547475 -1.69842,-0.872192 -2.024692,-1.08664 -3.122082,-2.052048 -1.17513,-1.033796 -1.300926,-1.136492 -1.390422,-1.135087 -0.05018,7.8e-4 -0.484152,0.346667 -0.96437,0.768621 -1.58832,1.395613 -1.744948,1.502248 -3.532188,2.404801 -1.365042,0.689343 -1.600728,0.825413 -1.600728,0.924154 0,0.140128 0.193806,0.710257 0.418408,1.230855 0.339538,0.787002 0.780726,2.20777 0.932982,3.004512 0.05006,0.261938 0.192884,0.809625 0.317396,1.217084 0.124512,0.407458 0.31367,1.073326 0.42035,1.479706 0.10668,0.40638 0.205644,0.757772 0.21992,0.780872 0.01428,0.0231 1.719982,0.03589 3.790456,0.02842 l 3.764498,-0.01358 z"
       id="path4499" />
  </g>
</svg>
