<?xml version="1.0" encoding="UTF-8" standalone="no"?>
<svg
   xmlns:dc="http://purl.org/dc/elements/1.1/"
   xmlns:cc="http://creativecommons.org/ns#"
   xmlns:rdf="http://www.w3.org/1999/02/22-rdf-syntax-ns#"
   xmlns:svg="http://www.w3.org/2000/svg"
   xmlns="http://www.w3.org/2000/svg"
   xmlns:sodipodi="http://sodipodi.sourceforge.net/DTD/sodipodi-0.dtd"
   xmlns:inkscape="http://www.inkscape.org/namespaces/inkscape"
   width="13.229167mm"
   height="13.229167mm"
   viewBox="0 0 13.229167 13.229167"
   version="1.1"
   id="svg8"
   sodipodi:docname="VCS_resized_28.svg"
   inkscape:version="1.0.2-2 (e86c870879, 2021-01-15)">
  <defs
     id="defs2" />
  <sodipodi:namedview
     id="base"
     pagecolor="#ffffff"
     bordercolor="#666666"
     borderopacity="1.0"
     inkscape:pageopacity="0.0"
     inkscape:pageshadow="2"
     inkscape:zoom="2.8284271"
     inkscape:cx="10.599881"
     inkscape:cy="51.927677"
     inkscape:document-units="mm"
     inkscape:current-layer="layer1"
     inkscape:document-rotation="0"
     showgrid="false"
     inkscape:window-width="958"
     inkscape:window-height="1008"
     inkscape:window-x="1913"
     inkscape:window-y="0"
     inkscape:window-maximized="0" />
  <metadata
     id="metadata5">
    <rdf:RDF>
      <cc:Work
         rdf:about="">
        <dc:format>image/svg+xml</dc:format>
        <dc:type
           rdf:resource="http://purl.org/dc/dcmitype/StillImage" />
        <dc:title></dc:title>
      </cc:Work>
    </rdf:RDF>
  </metadata>
  <g
     inkscape:label="Ebene 1"
     inkscape:groupmode="layer"
     id="layer1"
     transform="translate(-35.395435,-12.852414)">
    <path
       style="fill:#000000;stroke-width:0.264582"
       d="m 38.947518,24.356999 c -0.08227,-0.06965 -0.206588,-0.27167 -0.276264,-0.448928 -0.109492,-0.278548 -0.122376,-0.378055 -0.09495,-0.733253 0.03924,-0.508171 0.117998,-0.72974 0.5115,-1.439044 0.347388,-0.626184 0.474098,-1.002116 0.484108,-1.436281 0.01352,-0.58681 -0.358482,-1.077545 -1.329604,-1.75394 -0.605242,-0.421555 -1.09549,-0.882029 -1.28523,-1.207173 -0.191778,-0.328635 -0.237346,-0.763719 -0.10237,-0.977448 0.15024,-0.237904 0.559386,-0.369701 1.13135,-0.364439 0.511298,0.0047 0.70864,0.06741 1.591742,0.505818 0.713428,0.354171 1.232148,0.52008 1.62605,0.52008 0.56626,0 0.90754,-0.245971 1.49933,-1.080612 0.761736,-1.074329 1.308706,-1.477179 2.01334,-1.48285 0.365542,-0.0029 0.374586,3e-4 0.494598,0.176975 0.168076,0.247438 0.242048,0.546869 0.243138,0.984195 0.0012,0.458597 -0.09508,0.744387 -0.478718,1.421774 -0.49058,0.866226 -0.647226,1.541752 -0.466962,2.013765 0.102554,0.268536 0.552626,0.717116 1.124948,1.121221 0.57815,0.408221 1.055612,0.804742 1.205256,1.000935 0.367962,0.482421 0.521226,1.168324 0.304824,1.364166 -0.191838,0.17361 -0.605636,0.312806 -0.984636,0.331218 -0.443678,0.02155 -0.876876,-0.09915 -1.698952,-0.473385 -0.62261,-0.283432 -1.056642,-0.403142 -1.517446,-0.418524 -0.586962,-0.01959 -1.030834,0.288052 -1.73882,1.205167 -0.664436,0.860701 -0.96397,1.095997 -1.55915,1.224785 -0.444336,0.09615 -0.527082,0.08971 -0.697086,-0.05422 z m 1.03175,-0.318344 c 0.274448,-0.141923 0.517978,-0.384889 1.049524,-1.04709 0.499532,-0.622319 0.829406,-0.918111 1.289326,-1.156119 0.48014,-0.248471 1.322298,-0.100636 2.48586,0.436375 0.58578,0.27035 1.051662,0.378904 1.42875,0.332909 0.647898,-0.07903 0.817244,-0.29892 0.651768,-0.846298 -0.08384,-0.277317 -0.524158,-0.739703 -1.0751,-1.128972 -0.929262,-0.65657 -1.327032,-1.0352 -1.531708,-1.458004 -0.10716,-0.221363 -0.118528,-0.301938 -0.08837,-0.626384 0.04348,-0.467815 0.23239,-1.036332 0.490076,-1.474864 0.513048,-0.873104 0.631308,-1.341425 0.47222,-1.870036 -0.111856,-0.371669 -0.207308,-0.453418 -0.527812,-0.452036 -0.542032,0.0023 -0.912948,0.279117 -1.594008,1.189463 -0.493556,0.659718 -0.905108,1.071641 -1.24279,1.243914 -0.196808,0.100403 -0.290432,0.114141 -0.631118,0.0926 -0.488146,-0.03086 -0.872862,-0.158066 -1.80232,-0.595935 -0.792928,-0.373549 -1.02406,-0.448812 -1.379636,-0.449245 -0.290472,-3.8e-4 -0.693596,0.128586 -0.812382,0.259842 -0.203392,0.224745 -0.05693,0.72633 0.331226,1.134309 0.106654,0.112102 0.469996,0.404001 0.807426,0.648664 0.702192,0.509143 1.271756,1.071487 1.42315,1.405105 0.139288,0.306944 0.139062,0.865112 -6e-4,1.28237 -0.05741,0.171624 -0.277092,0.655873 -0.488178,1.07611 l -0.383792,0.764065 0.0028,0.458474 c 0.0029,0.478834 0.08617,0.737508 0.275014,0.854582 0.12523,0.07763 0.644962,0.03254 0.850602,-0.0738 z"
       id="path440" />
  </g>
</svg>
