<?xml version="1.0" encoding="UTF-8" standalone="no"?>
<svg
   xmlns:dc="http://purl.org/dc/elements/1.1/"
   xmlns:cc="http://creativecommons.org/ns#"
   xmlns:rdf="http://www.w3.org/1999/02/22-rdf-syntax-ns#"
   xmlns:svg="http://www.w3.org/2000/svg"
   xmlns="http://www.w3.org/2000/svg"
   xmlns:sodipodi="http://sodipodi.sourceforge.net/DTD/sodipodi-0.dtd"
   xmlns:inkscape="http://www.inkscape.org/namespaces/inkscape"
   width="13.229167mm"
   height="13.229167mm"
   viewBox="0 0 13.229169 13.229168"
   version="1.1"
   id="svg8"
   sodipodi:docname="VCS_resized_310.svg"
   inkscape:version="1.0.2-2 (e86c870879, 2021-01-15)">
  <defs
     id="defs2" />
  <sodipodi:namedview
     id="base"
     pagecolor="#ffffff"
     bordercolor="#666666"
     borderopacity="1.0"
     inkscape:pageopacity="0.0"
     inkscape:pageshadow="2"
     inkscape:zoom="4"
     inkscape:cx="6.9912046"
     inkscape:cy="60.035398"
     inkscape:document-units="mm"
     inkscape:current-layer="layer1"
     inkscape:document-rotation="0"
     showgrid="false"
     inkscape:window-width="958"
     inkscape:window-height="1008"
     inkscape:window-x="1913"
     inkscape:window-y="0"
     inkscape:window-maximized="0" />
  <metadata
     id="metadata5">
    <rdf:RDF>
      <cc:Work
         rdf:about="">
        <dc:format>image/svg+xml</dc:format>
        <dc:type
           rdf:resource="http://purl.org/dc/dcmitype/StillImage" />
        <dc:title></dc:title>
      </cc:Work>
    </rdf:RDF>
  </metadata>
  <g
     inkscape:label="Ebene 1"
     inkscape:groupmode="layer"
     id="layer1"
     transform="translate(-93.378006,24.307585)">
    <path
       style="fill:#000000;stroke-width:0.264582"
       d="m 99.502731,-11.770067 c -0.232834,-0.07113 -0.661458,-0.1919 -0.9525,-0.268382 -0.291042,-0.07648 -0.556278,-0.160597 -0.589414,-0.186924 -0.03314,-0.02633 -0.07666,-0.184076 -0.09671,-0.350554 -0.06676,-0.554138 -0.397426,-2.893738 -0.426518,-3.017796 -0.03067,-0.130794 -0.04763,-0.142346 -3.344824,-2.278557 -0.325338,-0.210782 -0.54194,-0.38594 -0.542396,-0.438619 -8e-4,-0.08933 0.151612,-0.130077 3.554258,-0.950385 l 0.935644,-0.225565 0.184762,-0.400049 c 0.101618,-0.220027 0.327224,-0.733425 0.501346,-1.140883 0.749298,-1.75341 1.129578,-2.598026 1.202764,-2.671395 0.0552,-0.05533 0.102187,-0.06314 0.159337,-0.02646 0.0737,0.0473 0.619,1.249107 1.21212,2.671395 0.46513,1.115363 0.65527,1.50909 0.7506,1.55427 0.0536,0.02538 1.06177,0.287317 2.24049,0.582083 1.87652,0.469267 2.14312,0.548371 2.14312,0.635876 0,0.09739 -0.79273,0.642014 -2.97124,2.041298 -0.4118,0.264508 -0.77227,0.510063 -0.80104,0.545677 -0.0288,0.03561 -0.15194,0.755317 -0.27372,1.599337 -0.12178,0.844021 -0.23835,1.616596 -0.25904,1.716832 l -0.0376,0.182249 -0.97661,0.280772 c -0.53713,0.154425 -1.0245,0.279497 -1.08304,0.277937 -0.05854,-0.0016 -0.296923,-0.06103 -0.529757,-0.132159 z m 1.587499,-0.416661 c 0.37835,-0.111235 0.71337,-0.233674 0.74447,-0.272088 0.057,-0.07036 0.11138,-0.390531 0.39443,-2.321457 0.0882,-0.601626 0.1837,-1.081232 0.22225,-1.116051 0.0372,-0.03358 0.40097,-0.271374 0.80843,-0.528426 0.61236,-0.386318 2.59067,-1.686158 2.66789,-1.752924 0.0582,-0.05033 -0.1828,-0.118665 -2.09473,-0.59393 l -2.052,-0.510081 -0.49341,-1.137632 c -0.27137,-0.625696 -0.59773,-1.387662 -0.72525,-1.693256 -0.46511,-1.114638 -0.50343,-1.187992 -0.577975,-1.106345 -0.0374,0.04096 -0.121452,0.205439 -0.18679,0.365512 -0.06534,0.160073 -0.245918,0.576792 -0.401284,0.926042 -0.155368,0.34925 -0.466346,1.063625 -0.691064,1.5875 -0.224718,0.523875 -0.435564,0.982119 -0.468546,1.018321 -0.03298,0.0362 -0.964138,0.282336 -2.069236,0.546965 -1.105098,0.264629 -2.030446,0.501456 -2.05633,0.526282 -0.04525,0.0434 0.24834,0.243126 2.43366,1.655642 0.526814,0.340515 0.996814,0.66218 1.044444,0.71481 0.06303,0.06965 0.1504,0.544297 0.321002,1.743862 0.128922,0.906494 0.248196,1.670491 0.265056,1.69777 0.01686,0.02728 0.206362,0.08869 0.421116,0.13647 0.214754,0.04778 0.566072,0.144857 0.780706,0.215733 0.51833,0.171158 0.849041,0.15133 1.713161,-0.102719 z"
       id="path5875" />
  </g>
</svg>
