<?xml version="1.0" encoding="UTF-8" standalone="no"?>
<svg
   xmlns:dc="http://purl.org/dc/elements/1.1/"
   xmlns:cc="http://creativecommons.org/ns#"
   xmlns:rdf="http://www.w3.org/1999/02/22-rdf-syntax-ns#"
   xmlns:svg="http://www.w3.org/2000/svg"
   xmlns="http://www.w3.org/2000/svg"
   xmlns:sodipodi="http://sodipodi.sourceforge.net/DTD/sodipodi-0.dtd"
   xmlns:inkscape="http://www.inkscape.org/namespaces/inkscape"
   width="13.229167mm"
   height="13.229167mm"
   viewBox="0 0 13.229169 13.229168"
   version="1.1"
   id="svg8"
   sodipodi:docname="VCS_resized_330.svg"
   inkscape:version="1.0.2-2 (e86c870879, 2021-01-15)">
  <defs
     id="defs2" />
  <sodipodi:namedview
     id="base"
     pagecolor="#ffffff"
     bordercolor="#666666"
     borderopacity="1.0"
     inkscape:pageopacity="0.0"
     inkscape:pageshadow="2"
     inkscape:zoom="4"
     inkscape:cx="4.065801"
     inkscape:cy="35.264475"
     inkscape:document-units="mm"
     inkscape:current-layer="layer1"
     inkscape:document-rotation="0"
     showgrid="false"
     inkscape:window-width="958"
     inkscape:window-height="1008"
     inkscape:window-x="1913"
     inkscape:window-y="0"
     inkscape:window-maximized="0" />
  <metadata
     id="metadata5">
    <rdf:RDF>
      <cc:Work
         rdf:about="">
        <dc:format>image/svg+xml</dc:format>
        <dc:type
           rdf:resource="http://purl.org/dc/dcmitype/StillImage" />
        <dc:title></dc:title>
      </cc:Work>
    </rdf:RDF>
  </metadata>
  <g
     inkscape:label="Ebene 1"
     inkscape:groupmode="layer"
     id="layer1"
     transform="translate(-96.797852,17.753613)">
    <path
       style="fill:#000000;stroke-width:0.264582"
       d="m 102.95284,-5.2823275 c -0.31919,-0.2522432 -1.2311,-1.1622934 -1.26158,-1.259007 -0.015,-0.047602 -0.0747,-0.4318302 -0.13276,-0.8538406 -0.20886,-1.5193026 -0.26698,-1.8681806 -0.32232,-1.9348614 -0.0309,-0.037266 -0.94711,-0.513425 -2.035945,-1.0581315 -1.08885,-0.544705 -2.014951,-1.029301 -2.058007,-1.076878 -0.04306,-0.04758 -0.06159,-0.113512 -0.04119,-0.146521 0.05338,-0.08636 1.085457,-0.377855 2.787007,-0.787141 0.814045,-0.195807 1.555045,-0.376712 1.646675,-0.40201 0.18993,-0.05244 0.23175,-0.132814 0.75303,-1.447165 0.73202,-1.845727 1.21994,-2.910417 1.33376,-2.910417 0.12368,0 0.2733,0.372867 0.91641,2.283713 0.3315,0.984979 0.63846,1.874214 0.68214,1.976079 l 0.0794,0.185208 1.74008,0.554329 c 1.9378,0.617313 2.69259,0.901116 2.69259,1.012424 0,0.08651 -0.49651,0.337822 -1.56105,0.790149 -0.42201,0.179315 -1.193,0.5065939 -1.71331,0.7272855 -0.84472,0.3582898 -0.95328,0.4186354 -1.01375,0.5635354 -0.0373,0.089253 -0.17792,0.7099644 -0.31259,1.3793604 l -0.24487,1.2170832 -0.32888,0.3350076 c -0.3852,0.3923632 -1.1908,1.0143674 -1.31378,1.0143674 -0.0469,0 -0.17792,-0.073156 -0.29106,-0.162569 z m 0.59219,-0.3251232 c 0.14324,-0.093606 0.45367,-0.3614964 0.68986,-0.5953124 0.4122,-0.4080642 0.43209,-0.43892 0.49581,-0.7690786 0.11446,-0.5930928 0.41011,-1.9747866 0.47027,-2.197742 l 0.0576,-0.2133668 1.65471,-0.7078855 c 0.91009,-0.389338 1.80832,-0.784202 1.99607,-0.877477 l 0.34135,-0.16959 -0.24365,-0.107778 c -0.134,-0.05928 -0.56146,-0.208199 -0.9499,-0.330934 -0.38843,-0.122735 -1.20631,-0.383246 -1.81749,-0.578912 l -1.11125,-0.355757 -0.0996,-0.206841 c -0.0548,-0.113763 -0.3715,-1.016466 -0.70384,-2.006008 -0.33233,-0.989542 -0.63519,-1.830474 -0.67301,-1.868739 -0.0566,-0.05724 -0.11666,0.03659 -0.33882,0.529167 -0.14852,0.329306 -0.47132,1.099028 -0.71733,1.710493 -0.71576,1.779066 -0.6754,1.703167 -0.94236,1.77186 -0.12607,0.03244 -0.34828,0.09161 -0.4938,0.131485 -0.14553,0.03988 -0.82418,0.205962 -1.508125,0.369082 -1.55386,0.370589 -2.01914,0.505678 -1.99613,0.579545 0.01,0.03187 0.8725,0.487764 1.91681,1.013105 1.732035,0.8712965 1.902485,0.9688701 1.941325,1.1112497 0.0549,0.2014444 0.29061,1.8366694 0.33899,2.3521268 l 0.0372,0.396875 0.37577,0.3907552 c 0.41793,0.4345946 0.85338,0.7998698 0.95354,0.7998698 0.0361,0 0.18274,-0.076587 0.32597,-0.1701922 z"
       id="path6199" />
  </g>
</svg>
