<?xml version="1.0" encoding="UTF-8" standalone="no"?>
<svg
   xmlns:dc="http://purl.org/dc/elements/1.1/"
   xmlns:cc="http://creativecommons.org/ns#"
   xmlns:rdf="http://www.w3.org/1999/02/22-rdf-syntax-ns#"
   xmlns:svg="http://www.w3.org/2000/svg"
   xmlns="http://www.w3.org/2000/svg"
   xmlns:sodipodi="http://sodipodi.sourceforge.net/DTD/sodipodi-0.dtd"
   xmlns:inkscape="http://www.inkscape.org/namespaces/inkscape"
   width="13.229167mm"
   height="13.229167mm"
   viewBox="0 0 13.229167 13.229167"
   version="1.1"
   id="svg8"
   sodipodi:docname="VCS_resized_48.svg"
   inkscape:version="1.0.2-2 (e86c870879, 2021-01-15)">
  <defs
     id="defs2" />
  <sodipodi:namedview
     id="base"
     pagecolor="#ffffff"
     bordercolor="#666666"
     borderopacity="1.0"
     inkscape:pageopacity="0.0"
     inkscape:pageshadow="2"
     inkscape:zoom="2.8284271"
     inkscape:cx="13.855678"
     inkscape:cy="63.46154"
     inkscape:document-units="mm"
     inkscape:current-layer="layer1"
     inkscape:document-rotation="0"
     showgrid="false"
     inkscape:window-width="958"
     inkscape:window-height="1008"
     inkscape:window-x="1913"
     inkscape:window-y="0"
     inkscape:window-maximized="0" />
  <metadata
     id="metadata5">
    <rdf:RDF>
      <cc:Work
         rdf:about="">
        <dc:format>image/svg+xml</dc:format>
        <dc:type
           rdf:resource="http://purl.org/dc/dcmitype/StillImage" />
        <dc:title></dc:title>
      </cc:Work>
    </rdf:RDF>
  </metadata>
  <g
     inkscape:label="Ebene 1"
     inkscape:groupmode="layer"
     id="layer1"
     transform="translate(-34.534004,-9.8007469)">
    <path
       style="fill:#000000;stroke-width:0.264582"
       d="m 37.804648,21.33731 c -0.772268,-0.133454 -1.243926,-0.795352 -1.107256,-1.553853 0.08285,-0.459817 0.272516,-0.770404 0.847814,-1.388347 0.292746,-0.314448 0.5801,-0.68333 0.67843,-0.870916 0.331202,-0.631844 0.260384,-1.332419 -0.190948,-1.888927 -0.109858,-0.135461 -0.502352,-0.544207 -0.87221,-0.908328 -0.562634,-0.553905 -0.700504,-0.721951 -0.844132,-1.028874 -0.28694,-0.613179 -0.222468,-1.233226 0.164592,-1.58291 0.343304,-0.310157 0.809822,-0.378127 1.340988,-0.195379 0.368078,0.126637 0.67819,0.334633 1.226264,0.822467 0.83197,0.74053 1.126678,0.911366 1.69025,0.979797 0.248914,0.03022 0.394338,0.01642 0.650498,-0.06176 0.364,-0.111085 0.569858,-0.290571 1.451272,-1.265351 0.502328,-0.555539 0.962638,-0.853463 1.424034,-0.921669 0.48181,-0.07122 0.953282,0.158411 1.173974,0.571798 0.09871,0.184888 0.118452,0.305548 0.118574,0.724539 1.06e-4,0.436011 -0.0185,0.541322 -0.140448,0.79375 -0.07733,0.160073 -0.250998,0.42201 -0.385934,0.582083 -1.03473,1.227474 -1.161958,1.456361 -1.16187,2.090208 1.06e-4,0.674013 0.220406,0.999757 1.280844,1.893788 0.7899,0.665949 1.059694,1.14773 1.001584,1.788573 -0.03731,0.411515 -0.185288,0.638015 -0.557306,0.853055 -0.282988,0.163578 -0.331868,0.174168 -0.804014,0.174168 -0.473284,0 -0.52594,-0.01148 -0.899584,-0.19624 -0.218282,-0.10793 -0.563562,-0.291734 -0.767292,-0.408448 -0.570008,-0.326555 -1.014186,-0.448787 -1.640416,-0.451421 -0.502374,-0.0021 -0.549262,0.0075 -0.926042,0.189856 -0.218282,0.105645 -0.60159,0.359225 -0.851798,0.563511 -0.784778,0.640748 -1.24302,0.808338 -1.899868,0.694826 z m 0.978958,-0.369972 c 0.116416,-0.05442 0.449792,-0.286598 0.740834,-0.515944 0.29104,-0.229346 0.635176,-0.470978 0.764746,-0.536961 0.939126,-0.478246 1.755448,-0.422993 2.912962,0.197165 1.110548,0.594996 1.040556,0.569156 1.534582,0.566552 0.761918,-0.004 1.12789,-0.29298 1.132996,-0.894588 0.0039,-0.457438 -0.18578,-0.776136 -0.784916,-1.318939 -0.838898,-0.76002 -1.162688,-1.11071 -1.327038,-1.437284 -0.139704,-0.277603 -0.158596,-0.369408 -0.157468,-0.765238 0.002,-0.68444 0.212804,-1.083092 1.168008,-2.208305 0.421738,-0.496799 0.524044,-0.74832 0.524044,-1.288372 0,-0.418756 -0.01182,-0.469471 -0.152496,-0.653844 -0.183278,-0.24022 -0.41806,-0.347575 -0.758618,-0.346879 -0.516474,0.0011 -0.956084,0.32251 -1.80846,1.3224 -0.33285,0.390451 -0.566126,0.581818 -0.984594,0.807705 -0.170624,0.0921 -0.298878,0.1139 -0.661458,0.112416 -0.737664,-0.003 -1.128032,-0.210982 -2.161702,-1.151618 -0.55157,-0.501927 -0.976932,-0.722548 -1.413166,-0.732961 -0.854804,-0.0204 -1.190332,0.698446 -0.727752,1.559163 0.09079,0.168936 0.407672,0.534456 0.814026,0.938976 0.713132,0.709912 0.94498,0.996255 1.113418,1.375118 0.361552,0.813229 0.14905,1.541788 -0.728366,2.497201 -0.69576,0.757608 -0.911456,1.187783 -0.843644,1.682528 0.102402,0.747097 1.02934,1.153883 1.804062,0.791709 z"
       id="path778" />
  </g>
</svg>
