<?xml version="1.0" encoding="UTF-8" standalone="no"?>
<svg
   xmlns:dc="http://purl.org/dc/elements/1.1/"
   xmlns:cc="http://creativecommons.org/ns#"
   xmlns:rdf="http://www.w3.org/1999/02/22-rdf-syntax-ns#"
   xmlns:svg="http://www.w3.org/2000/svg"
   xmlns="http://www.w3.org/2000/svg"
   xmlns:sodipodi="http://sodipodi.sourceforge.net/DTD/sodipodi-0.dtd"
   xmlns:inkscape="http://www.inkscape.org/namespaces/inkscape"
   width="13.229167mm"
   height="13.229167mm"
   viewBox="0 0 13.229169 13.229168"
   version="1.1"
   id="svg8"
   sodipodi:docname="VCS_resized_236.svg"
   inkscape:version="1.0.2-2 (e86c870879, 2021-01-15)">
  <defs
     id="defs2" />
  <sodipodi:namedview
     id="base"
     pagecolor="#ffffff"
     bordercolor="#666666"
     borderopacity="1.0"
     inkscape:pageopacity="0.0"
     inkscape:pageshadow="2"
     inkscape:zoom="2.8284271"
     inkscape:cx="-10.026381"
     inkscape:cy="46.520353"
     inkscape:document-units="mm"
     inkscape:current-layer="layer1"
     inkscape:document-rotation="0"
     showgrid="false"
     inkscape:window-width="958"
     inkscape:window-height="1008"
     inkscape:window-x="1913"
     inkscape:window-y="0"
     inkscape:window-maximized="0" />
  <metadata
     id="metadata5">
    <rdf:RDF>
      <cc:Work
         rdf:about="">
        <dc:format>image/svg+xml</dc:format>
        <dc:type
           rdf:resource="http://purl.org/dc/dcmitype/StillImage" />
        <dc:title></dc:title>
      </cc:Work>
    </rdf:RDF>
  </metadata>
  <g
     inkscape:label="Ebene 1"
     inkscape:groupmode="layer"
     id="layer1"
     transform="translate(-76.353821,-39.721298)">
    <path
       style="fill:#000000;stroke-width:0.264582"
       d="m 78.903714,52.537765 c -0.03779,-0.04554 -0.08706,-0.206274 -0.10947,-0.357188 -0.06835,-0.460224 -0.245686,-1.398939 -0.411834,-2.180045 -0.08675,-0.40782 -0.1837,-0.907882 -0.215452,-1.11125 -0.05695,-0.364774 -0.670224,-1.881481 -1.159022,-2.866417 -0.265378,-0.534744 -0.608332,-1.337679 -0.582276,-1.363243 0.0193,-0.01893 0.915428,-0.441215 2.767312,-1.304031 l 0.842038,-0.392318 0.802692,-0.79375 c 0.441482,-0.436563 1.078904,-1.083031 1.416494,-1.436597 0.33759,-0.353566 0.64156,-0.660004 0.67549,-0.680974 0.03834,-0.0237 0.605508,0.510906 1.498552,1.412513 l 1.43686,1.450641 0.899584,0.429224 c 0.494769,0.236074 1.304395,0.614185 1.799165,0.840247 0.494772,0.226062 0.92082,0.429316 0.946776,0.451676 0.0262,0.02257 -0.218388,0.636495 -0.54973,1.379879 -0.328308,0.736573 -0.638312,1.434474 -0.688898,1.550891 -0.05058,0.116416 -0.144788,0.330729 -0.20934,0.47625 -0.205338,0.462898 -0.262834,0.658878 -0.346828,1.18219 -0.04512,0.281129 -0.15056,0.832612 -0.234306,1.225518 -0.08375,0.392906 -0.206086,1.008557 -0.271864,1.368114 -0.06578,0.359556 -0.152836,0.686978 -0.193462,0.727604 -0.0619,0.0619 -0.719295,0.07387 -4.058813,0.07387 -3.550882,0 -3.992434,-0.009 -4.053668,-0.0828 z m 7.934822,-0.300846 c 0.02463,-0.06548 0.08629,-0.357188 0.137029,-0.64823 0.05074,-0.291041 0.16285,-0.850193 0.249134,-1.242558 0.08628,-0.392365 0.20194,-0.987678 0.257016,-1.322917 0.08424,-0.512784 0.155402,-0.735505 0.44834,-1.403275 0.19151,-0.436562 0.379362,-0.865187 0.417448,-0.9525 0.03809,-0.08731 0.2434,-0.534764 0.456256,-0.994337 0.333646,-0.720375 0.37662,-0.845722 0.311674,-0.909084 -0.07054,-0.06881 -0.999568,-0.508495 -1.90096,-0.899667 -0.764675,-0.33184 -1.505261,-0.729463 -1.763053,-0.946588 -0.143058,-0.12049 -0.7393,-0.719136 -1.324982,-1.330324 -0.585682,-0.611187 -1.103656,-1.11125 -1.151056,-1.11125 -0.0474,0 -0.478532,0.416719 -0.958074,0.926042 -1.551784,1.64815 -1.768016,1.814483 -3.125788,2.404474 -0.828564,0.360035 -2.000458,0.91277 -2.058688,0.971 -0.05915,0.05915 0.05917,0.3514 0.58798,1.452255 0.205972,0.428783 0.374494,0.793754 0.374494,0.811046 0,0.01729 0.126792,0.321314 0.281762,0.675604 0.188826,0.431698 0.304228,0.783791 0.349878,1.067496 0.03747,0.232833 0.157598,0.840052 0.26696,1.349375 0.109362,0.509323 0.253276,1.217745 0.319806,1.574272 l 0.120968,0.648228 h 3.82954 3.82954 z"
       id="path4675" />
  </g>
</svg>
