<?xml version="1.0" encoding="UTF-8" standalone="no"?>
<svg
   xmlns:dc="http://purl.org/dc/elements/1.1/"
   xmlns:cc="http://creativecommons.org/ns#"
   xmlns:rdf="http://www.w3.org/1999/02/22-rdf-syntax-ns#"
   xmlns:svg="http://www.w3.org/2000/svg"
   xmlns="http://www.w3.org/2000/svg"
   xmlns:sodipodi="http://sodipodi.sourceforge.net/DTD/sodipodi-0.dtd"
   xmlns:inkscape="http://www.inkscape.org/namespaces/inkscape"
   width="13.229167mm"
   height="13.229167mm"
   viewBox="0 0 13.229169 13.229168"
   version="1.1"
   id="svg8"
   sodipodi:docname="VCS_resized_238.svg"
   inkscape:version="1.0.2-2 (e86c870879, 2021-01-15)">
  <defs
     id="defs2" />
  <sodipodi:namedview
     id="base"
     pagecolor="#ffffff"
     bordercolor="#666666"
     borderopacity="1.0"
     inkscape:pageopacity="0.0"
     inkscape:pageshadow="2"
     inkscape:zoom="2.8284271"
     inkscape:cx="19.299906"
     inkscape:cy="44.173789"
     inkscape:document-units="mm"
     inkscape:current-layer="layer1"
     inkscape:document-rotation="0"
     showgrid="false"
     inkscape:window-width="958"
     inkscape:window-height="1008"
     inkscape:window-x="1913"
     inkscape:window-y="0"
     inkscape:window-maximized="0" />
  <metadata
     id="metadata5">
    <rdf:RDF>
      <cc:Work
         rdf:about="">
        <dc:format>image/svg+xml</dc:format>
        <dc:type
           rdf:resource="http://purl.org/dc/dcmitype/StillImage" />
        <dc:title></dc:title>
      </cc:Work>
    </rdf:RDF>
  </metadata>
  <g
     inkscape:label="Ebene 1"
     inkscape:groupmode="layer"
     id="layer1"
     transform="translate(-68.594574,-40.342159)">
    <path
       style="fill:#000000;stroke-width:0.264582"
       d="m 71.08971,53.12595 c -0.02765,-0.06548 -0.11245,-0.535781 -0.188448,-1.045104 -0.076,-0.509323 -0.182168,-1.104636 -0.235934,-1.322917 -0.05377,-0.218281 -0.137286,-0.670719 -0.185598,-1.005417 -0.09776,-0.677255 -0.10739,-0.701105 -1.222862,-3.027722 -0.330936,-0.690258 -0.601702,-1.293017 -0.601702,-1.339465 0,-0.05309 0.13263,-0.144189 0.357186,-0.245332 0.196454,-0.08848 0.60722,-0.27489 0.912814,-0.414235 0.305594,-0.139344 0.936624,-0.426769 1.40229,-0.638721 1.036586,-0.471812 1.123136,-0.542569 2.552604,-2.086816 1.20086,-1.297281 1.291034,-1.382063 1.39932,-1.315617 0.04089,0.02509 0.34715,0.342674 0.680584,0.705743 0.333434,0.36307 0.944132,1.007184 1.357108,1.431366 l 0.750866,0.77124 0.863092,0.405019 c 0.474702,0.22276 1.29156,0.597662 1.81524,0.833114 0.523682,0.235452 0.973374,0.449321 0.999316,0.475264 0.05793,0.05793 -0.0083,0.224221 -0.491758,1.234271 -0.206202,0.430823 -0.374912,0.792579 -0.374912,0.803901 0,0.01132 -0.09264,0.218424 -0.205876,0.460225 -0.719022,1.53545 -0.654652,1.3455 -0.821448,2.424015 -0.04276,0.27649 -0.125754,0.740834 -0.18443,1.031875 -0.05868,0.291042 -0.1529,0.82147 -0.209386,1.17873 -0.05648,0.357259 -0.131844,0.684681 -0.167468,0.727604 -0.05605,0.06753 -0.609222,0.07804 -4.107548,0.07804 h -4.04278 z m 7.976668,-0.211667 c 0.02888,-0.03638 0.09301,-0.339989 0.14251,-0.674687 0.04951,-0.334698 0.148764,-0.875151 0.220576,-1.201006 0.07181,-0.325856 0.175326,-0.897356 0.23003,-1.27 0.09691,-0.66018 0.112556,-0.706001 0.610644,-1.788786 0.281152,-0.611187 0.662914,-1.426971 0.848362,-1.812853 l 0.337176,-0.701602 -0.275152,-0.139995 c -0.28469,-0.144847 -1.096552,-0.509981 -1.650984,-0.742527 -0.174624,-0.07324 -0.627062,-0.281005 -1.005416,-0.461692 l -0.687918,-0.328522 -0.987092,-1.028488 c -0.542902,-0.565668 -1.114402,-1.177314 -1.27,-1.359213 -0.1556,-0.181899 -0.320376,-0.330727 -0.366172,-0.330729 -0.0458,-2e-6 -0.307734,0.255483 -0.582084,0.567745 -0.27435,0.312262 -0.879818,0.949594 -1.345484,1.416292 l -0.846668,0.848544 -0.60854,0.272439 c -0.334698,0.149842 -0.906198,0.403641 -1.27,0.563998 -0.363802,0.160357 -0.869928,0.387607 -1.124726,0.505 l -0.463266,0.213442 0.09221,0.200747 c 0.05072,0.110411 0.27364,0.569841 0.495388,1.020956 0.221748,0.451114 0.4809,0.998802 0.575892,1.217083 0.09499,0.218281 0.251224,0.565865 0.34718,0.772407 0.12721,0.273812 0.198148,0.538983 0.261888,0.978959 0.04808,0.331884 0.13343,0.786191 0.189666,1.009571 0.05624,0.22338 0.16255,0.79488 0.236252,1.27 0.0737,0.47512 0.146694,0.905527 0.1622,0.956459 0.02651,0.08708 0.256424,0.0926 3.854608,0.0926 2.99785,0 3.837782,-0.01432 3.878918,-0.06615 z"
       id="path4707" />
  </g>
</svg>
