<?xml version="1.0" encoding="UTF-8" standalone="no"?>
<svg
   xmlns:dc="http://purl.org/dc/elements/1.1/"
   xmlns:cc="http://creativecommons.org/ns#"
   xmlns:rdf="http://www.w3.org/1999/02/22-rdf-syntax-ns#"
   xmlns:svg="http://www.w3.org/2000/svg"
   xmlns="http://www.w3.org/2000/svg"
   xmlns:sodipodi="http://sodipodi.sourceforge.net/DTD/sodipodi-0.dtd"
   xmlns:inkscape="http://www.inkscape.org/namespaces/inkscape"
   width="13.229167mm"
   height="13.229167mm"
   viewBox="0 0 13.229169 13.229168"
   version="1.1"
   id="svg8"
   sodipodi:docname="VCS_resized_265.svg"
   inkscape:version="1.0.2-2 (e86c870879, 2021-01-15)">
  <defs
     id="defs2" />
  <sodipodi:namedview
     id="base"
     pagecolor="#ffffff"
     bordercolor="#666666"
     borderopacity="1.0"
     inkscape:pageopacity="0.0"
     inkscape:pageshadow="2"
     inkscape:zoom="4"
     inkscape:cx="15.210536"
     inkscape:cy="42.756001"
     inkscape:document-units="mm"
     inkscape:current-layer="layer1"
     inkscape:document-rotation="0"
     showgrid="false"
     inkscape:window-width="958"
     inkscape:window-height="1008"
     inkscape:window-x="1913"
     inkscape:window-y="0"
     inkscape:window-maximized="0" />
  <metadata
     id="metadata5">
    <rdf:RDF>
      <cc:Work
         rdf:about="">
        <dc:format>image/svg+xml</dc:format>
        <dc:type
           rdf:resource="http://purl.org/dc/dcmitype/StillImage" />
        <dc:title></dc:title>
      </cc:Work>
    </rdf:RDF>
  </metadata>
  <g
     inkscape:label="Ebene 1"
     inkscape:groupmode="layer"
     id="layer1"
     transform="translate(-74.738899,15.927813)">
    <path
       style="fill:#000000;stroke-width:0.264582"
       d="m 77.517895,-3.0286129 c -0.01132,-0.03638 -0.04791,-1.0424582 -0.08129,-2.2357292 l -0.06069,-2.1695832 -0.759186,-1.0054166 c -0.417552,-0.5529792 -1.012116,-1.3367418 -1.321252,-1.7416951 -0.338694,-0.443673 -0.54288,-0.755463 -0.513788,-0.784554 0.0444,-0.0444 2.824008,-0.777551 3.689338,-0.973104 l 0.373588,-0.08443 0.854258,-1.303735 c 0.469842,-0.717055 1.004196,-1.535726 1.187454,-1.81927 0.4495,-0.695484 0.483362,-0.694491 0.939466,0.02754 0.85668,1.356175 1.966158,3.001003 2.057066,3.049655 0.09064,0.04851 0.599546,0.185155 3.183324,0.854758 0.450768,0.116819 0.837726,0.230546 0.859908,0.252728 0.02218,0.02218 -0.149356,0.289166 -0.381196,0.593298 -0.23184,0.304132 -0.832134,1.1006551 -1.333984,1.7700511 l -0.912456,1.2170832 -0.03771,0.7408334 c -0.02074,0.4074584 -0.05508,1.4016302 -0.07632,2.2092708 l -0.03861,1.4684374 h -3.80366 c -2.996666,0 -3.808028,-0.014034 -3.824254,-0.066146 z m 7.385688,-1.2567708 c 0.01804,-0.5675312 0.05054,-1.5208572 0.0722,-2.1185018 l 0.03939,-1.0866268 0.151566,-0.1833732 c 0.256004,-0.3097244 2.279484,-3.0291815 2.306688,-3.1000705 0.01608,-0.0419 -0.04973,-0.08637 -0.17729,-0.119816 -0.111574,-0.02925 -0.924954,-0.234425 -1.807512,-0.455944 -0.88256,-0.221519 -1.66122,-0.428535 -1.730356,-0.460036 -0.114514,-0.05218 -1.20266,-1.633924 -2.058876,-2.992819 -0.169626,-0.269213 -0.329824,-0.489479 -0.355996,-0.489479 -0.02617,0 -0.16,0.180303 -0.297394,0.400674 -0.307962,0.493948 -1.961048,2.996979 -2.016648,3.053522 -0.02986,0.03036 -3.714496,0.990804 -3.801126,0.990804 -0.07027,0 0.03784,0.184581 0.321002,0.54802 0.184658,0.237016 0.71223,0.9310005 1.172382,1.5421879 0.46015,0.6111876 0.853706,1.1231564 0.874568,1.1377084 0.03974,0.02772 0.157794,2.9137748 0.157484,3.85006 l -1.8e-4,0.5427684 3.558646,-0.013602 3.558646,-0.013602 z"
       id="path5153" />
  </g>
</svg>
