<?xml version="1.0" encoding="UTF-8" standalone="no"?>
<svg
   xmlns:dc="http://purl.org/dc/elements/1.1/"
   xmlns:cc="http://creativecommons.org/ns#"
   xmlns:rdf="http://www.w3.org/1999/02/22-rdf-syntax-ns#"
   xmlns:svg="http://www.w3.org/2000/svg"
   xmlns="http://www.w3.org/2000/svg"
   xmlns:sodipodi="http://sodipodi.sourceforge.net/DTD/sodipodi-0.dtd"
   xmlns:inkscape="http://www.inkscape.org/namespaces/inkscape"
   width="13.229167mm"
   height="13.229167mm"
   viewBox="0 0 13.229169 13.229168"
   version="1.1"
   id="svg8"
   sodipodi:docname="VCS_resized_147.svg"
   inkscape:version="1.0.2-2 (e86c870879, 2021-01-15)">
  <defs
     id="defs2" />
  <sodipodi:namedview
     id="base"
     pagecolor="#ffffff"
     bordercolor="#666666"
     borderopacity="1.0"
     inkscape:pageopacity="0.0"
     inkscape:pageshadow="2"
     inkscape:zoom="2.8284271"
     inkscape:cx="5.9046882"
     inkscape:cy="71.967419"
     inkscape:document-units="mm"
     inkscape:current-layer="layer1"
     inkscape:document-rotation="0"
     showgrid="false"
     inkscape:window-width="958"
     inkscape:window-height="1008"
     inkscape:window-x="1913"
     inkscape:window-y="0"
     inkscape:window-maximized="0" />
  <metadata
     id="metadata5">
    <rdf:RDF>
      <cc:Work
         rdf:about="">
        <dc:format>image/svg+xml</dc:format>
        <dc:type
           rdf:resource="http://purl.org/dc/dcmitype/StillImage" />
        <dc:title></dc:title>
      </cc:Work>
    </rdf:RDF>
  </metadata>
  <g
     inkscape:label="Ebene 1"
     inkscape:groupmode="layer"
     id="layer1"
     transform="translate(-36.637699,-7.5502324)">
    <path
       style="fill:#000000;stroke-width:0.264582"
       d="m 41.721832,20.312694 c -0.04366,-0.01057 -0.329406,-0.04699 -0.635,-0.08093 -0.305594,-0.03394 -0.594864,-0.07252 -0.642826,-0.08574 -0.04796,-0.01322 -0.320928,-0.384847 -0.606596,-0.825848 -0.285668,-0.441 -0.768232,-1.160496 -1.072364,-1.598878 -0.304132,-0.438382 -0.620808,-0.9417 -0.703724,-1.118483 -0.210946,-0.449752 -0.297958,-1.082182 -0.208704,-1.516899 0.07876,-0.383578 0.158282,-0.528069 0.64935,-1.179813 0.418762,-0.55578 0.574032,-0.943646 0.574032,-1.43394 0,-0.387717 -0.11811,-0.736845 -0.516752,-1.527507 -0.330172,-0.65486 -0.405622,-0.9648167 -0.355746,-1.4614577 0.06154,-0.612829 0.39388,-1.150697 0.846316,-1.369718 0.334544,-0.16195 0.556456,-0.135582 1.157644,0.13755 0.651666,0.296067 1.234702,0.505266 1.83187,0.657296 0.662866,0.168756 1.98434,0.173302 2.725208,0.0094 0.291042,-0.0644 0.636324,-0.173898 0.767292,-0.243338 1.105242,-0.585997 1.28672,-0.666541 1.499314,-0.66542 0.48013,0.0025 0.935586,0.377048 1.151828,0.947139 0.227538,0.599871 0.115902,1.4246347 -0.276606,2.0435547 -0.688494,1.085643 -0.6695,1.837721 0.07168,2.83804 0.659162,0.889631 0.777298,1.23566 0.677606,1.984789 -0.07404,0.556365 -0.231956,0.916982 -0.725796,1.657398 -0.203824,0.305594 -0.532654,0.805656 -0.730732,1.11125 -0.792336,1.222412 -0.936646,1.430479 -1.024904,1.477713 -0.260074,0.139188 -1.244024,0.225359 -2.785512,0.243947 -0.873126,0.01053 -1.62322,0.01049 -1.666876,-5.3e-5 z m 3.798954,-0.358709 c 0.253782,-0.04849 0.425374,-0.113266 0.50138,-0.189272 0.06355,-0.06355 0.30665,-0.411728 0.540214,-0.77372 0.233564,-0.361993 0.634486,-0.970298 0.89094,-1.35179 0.256454,-0.381491 0.56517,-0.888923 0.686034,-1.127626 0.209786,-0.414317 0.219704,-0.455612 0.218602,-0.910256 -0.0014,-0.606325 -0.09896,-0.859072 -0.60047,-1.556657 -0.207684,-0.288883 -0.43623,-0.669513 -0.50788,-0.845845 -0.276264,-0.679888 -0.1236,-1.453048 0.48756,-2.469231 0.437484,-0.727408 0.41535,-1.5613267 -0.05517,-2.0786077 -0.350656,-0.385505 -0.67682,-0.37719 -1.566382,0.03993 -1.336706,0.626793 -2.377166,0.761985 -3.879432,0.504075 -0.4724,-0.0811 -1.030076,-0.257018 -2.075394,-0.65467 -0.698266,-0.26563 -0.896682,-0.261534 -1.231934,0.02543 -0.336216,0.287789 -0.460748,0.596844 -0.457488,1.135367 0.0027,0.4477677 0.0044,0.4532447 0.377584,1.2170837 0.405816,0.830647 0.575074,1.416482 0.532568,1.843314 -0.03617,0.363186 -0.215436,0.730504 -0.65507,1.342216 -0.492106,0.684723 -0.631794,1.080082 -0.587682,1.663327 0.02529,0.334416 0.06421,0.453654 0.269884,0.826891 0.132184,0.23987 0.37399,0.626627 0.537348,0.85946 0.163358,0.232833 0.591686,0.867717 0.95184,1.410852 0.360154,0.543136 0.683522,1.005256 0.718598,1.026933 0.28894,0.178575 4.04657,0.226688 4.904348,0.0628 z"
       id="path2396" />
  </g>
</svg>
