<?xml version="1.0" encoding="UTF-8" standalone="no"?>
<svg
   xmlns:dc="http://purl.org/dc/elements/1.1/"
   xmlns:cc="http://creativecommons.org/ns#"
   xmlns:rdf="http://www.w3.org/1999/02/22-rdf-syntax-ns#"
   xmlns:svg="http://www.w3.org/2000/svg"
   xmlns="http://www.w3.org/2000/svg"
   xmlns:sodipodi="http://sodipodi.sourceforge.net/DTD/sodipodi-0.dtd"
   xmlns:inkscape="http://www.inkscape.org/namespaces/inkscape"
   width="13.229167mm"
   height="13.229167mm"
   viewBox="0 0 13.229169 13.229168"
   version="1.1"
   id="svg8"
   sodipodi:docname="VCS_resized_189.svg"
   inkscape:version="1.0.2-2 (e86c870879, 2021-01-15)">
  <defs
     id="defs2" />
  <sodipodi:namedview
     id="base"
     pagecolor="#ffffff"
     bordercolor="#666666"
     borderopacity="1.0"
     inkscape:pageopacity="0.0"
     inkscape:pageshadow="2"
     inkscape:zoom="2.8284271"
     inkscape:cx="-6.3674349"
     inkscape:cy="39.926288"
     inkscape:document-units="mm"
     inkscape:current-layer="layer1"
     inkscape:document-rotation="0"
     showgrid="false"
     inkscape:window-width="958"
     inkscape:window-height="1008"
     inkscape:window-x="1913"
     inkscape:window-y="0"
     inkscape:window-maximized="0" />
  <metadata
     id="metadata5">
    <rdf:RDF>
      <cc:Work
         rdf:about="">
        <dc:format>image/svg+xml</dc:format>
        <dc:type
           rdf:resource="http://purl.org/dc/dcmitype/StillImage" />
        <dc:title></dc:title>
      </cc:Work>
    </rdf:RDF>
  </metadata>
  <g
     inkscape:label="Ebene 1"
     inkscape:groupmode="layer"
     id="layer1"
     transform="translate(-50.248077,-20.116671)">
    <path
       style="fill:#000000;stroke-width:0.264582"
       d="m 53.916232,32.795429 c -0.231454,-0.0086 -0.450532,-0.0403 -0.486838,-0.07043 -0.03631,-0.03013 -0.244922,-0.415997 -0.463588,-0.857477 -0.218668,-0.44148 -0.548544,-1.07929 -0.733058,-1.417355 -0.184516,-0.338065 -0.397906,-0.754784 -0.474202,-0.926042 -0.284782,-0.639243 -0.389632,-1.681257 -0.231216,-2.297864 0.10353,-0.402968 0.190354,-1.001269 0.190354,-1.311718 0,-0.261831 -0.134086,-0.767085 -0.38903,-1.465923 -0.182762,-0.500974 -0.242232,-1.185437 -0.119298,-1.373056 0.112986,-0.172441 0.966588,-0.803581 1.381452,-1.021426 0.432146,-0.226919 0.499392,-0.250078 1.5875,-0.546697 0.523876,-0.14281 1.361604,-0.391734 1.86162,-0.553165 l 0.90912,-0.293512 0.572546,0.194626 c 0.314902,0.107044 0.797836,0.287913 1.07319,0.401931 0.303912,0.125843 0.657408,0.228009 0.899584,0.259994 0.708032,0.09351 0.973816,0.16239 1.35144,0.350226 0.491722,0.244589 1.19764,0.72191 1.494874,1.010788 l 0.239896,0.233152 -0.02985,0.460676 c -0.01712,0.264383 -0.07797,0.594702 -0.142792,0.775217 -0.281186,0.783061 -0.330458,0.977375 -0.354826,1.399331 -0.02022,0.350137 0.0043,0.602206 0.110758,1.137709 0.269814,1.357433 0.149588,2.010196 -0.640768,3.479059 -0.16058,0.298434 -0.481424,0.923607 -0.712988,1.389274 -0.231564,0.465667 -0.461138,0.887025 -0.510166,0.936351 -0.08126,0.08175 -0.348886,0.09111 -3.026016,0.105833 -1.615282,0.0089 -3.126248,0.0091 -3.357702,4.8e-4 z m 6.056452,-0.26899 c 0.10959,-0.02979 0.26573,-0.294497 0.9099,-1.542538 0.427684,-0.828615 0.85597,-1.720886 0.951748,-1.982824 0.155512,-0.42531 0.173686,-0.532849 0.169894,-1.005416 -0.0023,-0.291042 -0.03096,-0.624417 -0.06361,-0.740834 -0.03265,-0.116416 -0.09534,-0.45196 -0.139314,-0.745653 -0.07103,-0.474419 -0.07115,-0.588377 -10e-4,-1.021565 0.04337,-0.268169 0.16092,-0.697583 0.261216,-0.954254 0.182906,-0.468078 0.281796,-1.045439 0.220732,-1.288734 -0.03596,-0.143269 -0.405552,-0.446863 -0.933994,-0.767209 -0.666574,-0.40408 -0.865868,-0.48254 -1.627426,-0.640697 -0.482422,-0.100187 -0.997816,-0.252172 -1.42875,-0.421324 -0.370756,-0.145532 -0.830998,-0.306042 -1.02276,-0.356689 l -0.348658,-0.09209 -0.656758,0.201801 c -0.361218,0.11099 -1.061572,0.317409 -1.556342,0.458709 -1.598756,0.456582 -1.984252,0.614966 -2.70338,1.110699 -0.60702,0.418451 -0.625708,0.447674 -0.586082,0.916457 0.01848,0.218632 0.08482,0.534789 0.147416,0.702571 0.365074,0.978532 0.37991,1.038476 0.402944,1.627975 0.01814,0.464435 4e-4,0.676082 -0.08752,1.047154 -0.07836,0.330524 -0.110258,0.641013 -0.110258,1.073231 0,0.741649 0.07275,0.988283 0.568626,1.92774 0.192026,0.363802 0.548772,1.054365 0.792772,1.534584 0.243998,0.480218 0.482582,0.90289 0.53019,0.93927 0.06712,0.05129 0.770498,0.06496 3.13238,0.06087 1.675204,-0.0029 3.105354,-0.02146 3.178116,-0.04124 z"
       id="path3907" />
  </g>
</svg>
