<?xml version="1.0" encoding="UTF-8" standalone="no"?>
<svg
   xmlns:dc="http://purl.org/dc/elements/1.1/"
   xmlns:cc="http://creativecommons.org/ns#"
   xmlns:rdf="http://www.w3.org/1999/02/22-rdf-syntax-ns#"
   xmlns:svg="http://www.w3.org/2000/svg"
   xmlns="http://www.w3.org/2000/svg"
   xmlns:sodipodi="http://sodipodi.sourceforge.net/DTD/sodipodi-0.dtd"
   xmlns:inkscape="http://www.inkscape.org/namespaces/inkscape"
   width="13.229167mm"
   height="13.229167mm"
   viewBox="0 0 13.229169 13.229168"
   version="1.1"
   id="svg8"
   sodipodi:docname="VCS_resized_293.svg"
   inkscape:version="1.0.2-2 (e86c870879, 2021-01-15)">
  <defs
     id="defs2" />
  <sodipodi:namedview
     id="base"
     pagecolor="#ffffff"
     bordercolor="#666666"
     borderopacity="1.0"
     inkscape:pageopacity="0.0"
     inkscape:pageshadow="2"
     inkscape:zoom="4"
     inkscape:cx="18.333596"
     inkscape:cy="38.809944"
     inkscape:document-units="mm"
     inkscape:current-layer="layer1"
     inkscape:document-rotation="0"
     showgrid="false"
     inkscape:window-width="958"
     inkscape:window-height="1008"
     inkscape:window-x="1913"
     inkscape:window-y="0"
     inkscape:window-maximized="0" />
  <metadata
     id="metadata5">
    <rdf:RDF>
      <cc:Work
         rdf:about="">
        <dc:format>image/svg+xml</dc:format>
        <dc:type
           rdf:resource="http://purl.org/dc/dcmitype/StillImage" />
        <dc:title></dc:title>
      </cc:Work>
    </rdf:RDF>
  </metadata>
  <g
     inkscape:label="Ebene 1"
     inkscape:groupmode="layer"
     id="layer1"
     transform="translate(-90.376999,18.691683)">
    <path
       style="fill:#000000;stroke-width:0.264582"
       d="m 95.330929,-6.0093868 c -0.505902,-0.025191 -0.947716,-0.056507 -0.98181,-0.06959 -0.03838,-0.014726 -0.08628,-0.2930128 -0.125754,-0.7305754 -0.03507,-0.3887338 -0.114044,-1.2663826 -0.175496,-1.9503306 -0.06887,-0.7665386 -0.139068,-1.2874832 -0.183002,-1.3580972 -0.0392,-0.06301 -0.822148,-0.764262 -1.739882,-1.558348 -0.917736,-0.794086 -1.668608,-1.461259 -1.668608,-1.482608 0,-0.05399 0.0462,-0.06587 1.296458,-0.33345 2.524,-0.540182 3.063384,-0.664487 3.11782,-0.718521 0.03145,-0.03122 0.49771,-0.930866 1.036138,-1.999221 0.887052,-1.7601 0.991998,-1.943975 1.117856,-1.958568 0.133154,-0.01544 0.180208,0.06663 1.137708,1.984375 l 0.99881,2.00048 0.978963,0.221483 c 0.53842,0.121816 1.43139,0.31946 1.98437,0.43921 1.32057,0.285974 1.40229,0.309091 1.40229,0.396665 0,0.04088 -0.70842,0.692054 -1.57427,1.44706 -0.86585,0.755005 -1.62898,1.431806 -1.69585,1.504001 -0.1306,0.141006 -0.13227,0.151634 -0.300261,1.9182476 -0.17818,1.873749 -0.19753,2.0659852 -0.213606,2.1221122 -0.0092,0.032099 -0.167634,0.073104 -0.352092,0.091122 -0.6111,0.059693 -3.125206,0.081091 -4.059782,0.034553 z m 3.20889,-0.258199 c 0.50228,-0.022735 0.922752,-0.051068 0.934382,-0.062962 0.02722,-0.027835 0.106364,-0.7383882 0.241128,-2.164751 0.05912,-0.6257396 0.121286,-1.2711324 0.138146,-1.4342068 l 0.03066,-0.2964984 1.587205,-1.392496 c 1.08348,-0.950571 1.56494,-1.404932 1.51706,-1.431683 -0.0386,-0.02155 -0.4571,-0.124708 -0.93004,-0.229234 -1.3307,-0.294103 -2.507921,-0.548825 -2.711979,-0.586809 -0.101866,-0.01896 -0.22771,-0.04647 -0.279654,-0.06113 -0.06175,-0.01743 -0.42731,-0.69273 -1.055846,-1.95045 -0.52877,-1.058086 -0.981302,-1.911492 -1.005628,-1.896458 -0.02433,0.01503 -0.471054,0.880726 -0.992726,1.923758 -0.612852,1.225336 -0.981956,1.906481 -1.04305,1.924844 -0.100642,0.03025 -0.856864,0.193607 -2.740388,0.591969 -0.640292,0.13542 -1.182586,0.263224 -1.205098,0.284009 -0.02251,0.02079 0.358488,0.380685 0.846666,0.799777 2.105816,1.807803 2.274374,1.968935 2.31303,2.211112 0.01704,0.1067682 0.06557,0.5751242 0.107838,1.0407908 0.158096,1.7416626 0.24951,2.6464572 0.269422,2.6666782 0.0773,0.078497 2.718224,0.1208062 3.978876,0.063743 z"
       id="path5603" />
  </g>
</svg>
