<?xml version="1.0" encoding="UTF-8" standalone="no"?>
<svg
   xmlns:dc="http://purl.org/dc/elements/1.1/"
   xmlns:cc="http://creativecommons.org/ns#"
   xmlns:rdf="http://www.w3.org/1999/02/22-rdf-syntax-ns#"
   xmlns:svg="http://www.w3.org/2000/svg"
   xmlns="http://www.w3.org/2000/svg"
   xmlns:sodipodi="http://sodipodi.sourceforge.net/DTD/sodipodi-0.dtd"
   xmlns:inkscape="http://www.inkscape.org/namespaces/inkscape"
   width="13.229167mm"
   height="13.229167mm"
   viewBox="0 0 13.229167 13.229167"
   version="1.1"
   id="svg8"
   inkscape:version="1.0.2-2 (e86c870879, 2021-01-15)"
   sodipodi:docname="VCS_resized_180_blue.svg">
  <defs
     id="defs2" />
  <sodipodi:namedview
     id="base"
     pagecolor="#ffffff"
     bordercolor="#666666"
     borderopacity="1.0"
     inkscape:pageopacity="0.0"
     inkscape:pageshadow="2"
     inkscape:zoom="3.959798"
     inkscape:cx="15.810267"
     inkscape:cy="31.451346"
     inkscape:document-units="mm"
     inkscape:current-layer="layer1"
     inkscape:document-rotation="0"
     showgrid="false"
     inkscape:window-width="958"
     inkscape:window-height="1008"
     inkscape:window-x="1913"
     inkscape:window-y="0"
     inkscape:window-maximized="0" />
  <metadata
     id="metadata5">
    <rdf:RDF>
      <cc:Work
         rdf:about="">
        <dc:format>image/svg+xml</dc:format>
        <dc:type
           rdf:resource="http://purl.org/dc/dcmitype/StillImage" />
        <dc:title></dc:title>
      </cc:Work>
    </rdf:RDF>
  </metadata>
  <g
     inkscape:label="Ebene 1"
     inkscape:groupmode="layer"
     id="layer1"
     transform="translate(-86.302711,-125.85054)">
    <path
       style="fill:#00112b;stroke-width:0.264582"
       d="m 89.672584,138.37727 c -0.05149,-0.03 -0.190218,-0.24663 -0.308282,-0.48144 -0.118062,-0.23482 -0.443604,-0.83464 -0.723426,-1.33295 -1.096386,-1.95244 -1.14531,-2.07936 -1.144734,-2.96976 4e-4,-0.52526 0.01732,-0.62858 0.173988,-1.05833 0.242976,-0.66654 0.28067,-0.84084 0.286086,-1.32292 0.0037,-0.33332 -0.02442,-0.50209 -0.13245,-0.79375 -0.07547,-0.20373 -0.18811,-0.5093 -0.250322,-0.67905 -0.17586,-0.47986 -0.228284,-1.0231 -0.120622,-1.24998 0.113476,-0.23913 0.785066,-0.88826 1.144168,-1.1059 0.466344,-0.28263 1.107752,-0.47206 1.731538,-0.51137 0.517934,-0.0326 1.203644,-0.13286 2.2049,-0.32226 0.522558,-0.0988 0.720006,-0.0781 1.704236,0.17912 0.61091,0.15965 0.833168,0.19149 1.534584,0.21985 0.818022,0.0331 0.821196,0.0337 1.190624,0.22998 0.408354,0.21699 1.06413,0.74521 1.318308,1.06189 0.153218,0.1909 0.162786,0.22868 0.154126,0.60855 -0.0091,0.39962 -0.04144,0.52142 -0.360328,1.3575 -0.266122,0.69775 -0.234722,1.32717 0.111364,2.23232 0.436228,1.14092 0.296662,1.83591 -0.735434,3.66226 -0.289576,0.51242 -0.626618,1.13408 -0.748982,1.38147 -0.35223,0.7121 -0.474206,0.87992 -0.66769,0.91862 -0.293882,0.0588 -6.258136,0.0364 -6.361652,-0.0238 z m 6.294346,-0.25068 c 0.053,-0.0284 0.296508,-0.42897 0.541122,-0.89023 0.244612,-0.46126 0.582488,-1.08196 0.75083,-1.37933 0.89601,-1.58277 1.033504,-2.22859 0.684764,-3.21641 -0.255096,-0.72257 -0.319402,-1.00364 -0.318396,-1.39164 0.0012,-0.46471 0.104082,-0.93371 0.333724,-1.52139 0.10272,-0.26288 0.202912,-0.62069 0.22265,-0.79514 0.03431,-0.30328 0.0281,-0.32736 -0.141642,-0.54946 -0.221444,-0.28975 -0.817024,-0.75016 -1.23586,-0.95538 -0.287238,-0.14074 -0.385588,-0.15877 -1.031874,-0.1891 -0.544584,-0.0256 -0.859012,-0.0715 -1.322916,-0.19322 -1.1863,-0.31129 -1.397304,-0.32133 -2.54,-0.12085 -0.422012,0.074 -1.077058,0.16792 -1.45566,0.20861 -1.134672,0.12196 -1.803484,0.43025 -2.486226,1.14604 l -0.30606,0.32087 0.02817,0.41095 c 0.01888,0.2754 0.07516,0.5229 0.170638,0.75033 0.317552,0.75644 0.361672,0.94527 0.363658,1.55646 0.0018,0.54503 -0.0113,0.61915 -0.205274,1.16417 -0.19646,0.552 -0.207248,0.6149 -0.208726,1.21708 -0.0014,0.60003 0.0078,0.65653 0.16826,1.02574 0.0934,0.2149 0.358446,0.71497 0.588986,1.11125 0.23054,0.39628 0.603402,1.0658 0.828582,1.48781 0.22518,0.42201 0.420404,0.77919 0.43383,0.79375 0.09702,0.10515 5.941756,0.1138 6.137422,0.009 z"
       id="path2940" />
  </g>
</svg>
