<?xml version="1.0" encoding="UTF-8" standalone="no"?>
<svg
   xmlns:dc="http://purl.org/dc/elements/1.1/"
   xmlns:cc="http://creativecommons.org/ns#"
   xmlns:rdf="http://www.w3.org/1999/02/22-rdf-syntax-ns#"
   xmlns:svg="http://www.w3.org/2000/svg"
   xmlns="http://www.w3.org/2000/svg"
   xmlns:sodipodi="http://sodipodi.sourceforge.net/DTD/sodipodi-0.dtd"
   xmlns:inkscape="http://www.inkscape.org/namespaces/inkscape"
   width="13.229167mm"
   height="13.229167mm"
   viewBox="0 0 13.229167 13.229167"
   version="1.1"
   id="svg8"
   sodipodi:docname="VCS_resized_96.svg"
   inkscape:version="1.0.2-2 (e86c870879, 2021-01-15)">
  <defs
     id="defs2" />
  <sodipodi:namedview
     id="base"
     pagecolor="#ffffff"
     bordercolor="#666666"
     borderopacity="1.0"
     inkscape:pageopacity="0.0"
     inkscape:pageshadow="2"
     inkscape:zoom="2.8284271"
     inkscape:cx="3.3542185"
     inkscape:cy="48.636546"
     inkscape:document-units="mm"
     inkscape:current-layer="layer1"
     inkscape:document-rotation="0"
     showgrid="false"
     inkscape:window-width="958"
     inkscape:window-height="1008"
     inkscape:window-x="1913"
     inkscape:window-y="0"
     inkscape:window-maximized="0" />
  <metadata
     id="metadata5">
    <rdf:RDF>
      <cc:Work
         rdf:about="">
        <dc:format>image/svg+xml</dc:format>
        <dc:type
           rdf:resource="http://purl.org/dc/dcmitype/StillImage" />
        <dc:title></dc:title>
      </cc:Work>
    </rdf:RDF>
  </metadata>
  <g
     inkscape:label="Ebene 1"
     inkscape:groupmode="layer"
     id="layer1"
     transform="translate(-37.312515,-13.723193)">
    <path
       style="fill:#000000;stroke-width:0.264582"
       d="m 42.176669,26.134933 c -0.741154,-0.144781 -1.07156,-0.248987 -1.552058,-0.489494 -0.831908,-0.416402 -1.213654,-0.766974 -1.540688,-1.414878 -0.21107,-0.418157 -0.225842,-0.604706 -0.07889,-0.996322 0.104874,-0.279491 0.672468,-0.964777 1.13177,-1.366447 0.283056,-0.247539 0.697568,-0.852314 0.804186,-1.17331 0.105652,-0.31809 0.07629,-0.694676 -0.08672,-1.112358 -0.132742,-0.340119 -0.273254,-0.554725 -0.788954,-1.204974 -0.611746,-0.771355 -0.68343,-0.875438 -0.847546,-1.230608 -0.234368,-0.507206 -0.297472,-0.903858 -0.221518,-1.392414 0.183966,-1.183307 1.109586,-1.672158 1.993998,-1.053096 0.391572,0.274089 0.430926,0.313155 1.011222,1.003826 0.649204,0.772689 0.900362,1.004405 1.274184,1.175546 0.248732,0.113874 0.345422,0.128816 0.720724,0.111378 0.703898,-0.03271 0.95036,-0.205457 1.858794,-1.302876 0.824656,-0.996208 1.14273,-1.227589 1.687542,-1.227589 1.08655,0 1.635506,1.382933 1.062906,2.677684 -0.160358,0.362597 -0.364246,0.665638 -0.779632,1.158774 -0.449562,0.533709 -0.698728,0.915858 -0.867096,1.329872 -0.207802,0.510983 -0.199182,0.842566 0.03433,1.320544 0.147538,0.301988 0.306706,0.492055 0.912032,1.08907 0.79216,0.781283 0.989338,1.082694 1.037728,1.586295 0.05176,0.538642 -0.508968,1.297718 -1.39107,1.883153 -0.465792,0.309137 -0.710034,0.401671 -1.520336,0.575995 -0.583548,0.125541 -0.780442,0.141308 -1.945706,0.155801 -1.17091,0.01456 -1.355796,0.0045 -1.909204,-0.103572 z m 3.582032,-0.320814 c 0.786666,-0.162717 0.878904,-0.190624 1.266666,-0.383248 1.01199,-0.502715 1.677602,-1.294479 1.588386,-1.889424 -0.04533,-0.302271 -0.239356,-0.585454 -0.801016,-1.169089 -0.695922,-0.723146 -0.906384,-0.985032 -1.066688,-1.327317 -0.126588,-0.270298 -0.146634,-0.378994 -0.146634,-0.795131 0,-0.475298 0.0038,-0.489709 0.2755,-1.031875 0.167506,-0.334306 0.43434,-0.746904 0.680702,-1.052552 0.771852,-0.957596 0.990248,-1.422474 0.985574,-2.097906 -0.0053,-0.75902 -0.370402,-1.235844 -0.946408,-1.235844 -0.49399,0 -0.889882,0.284589 -1.567196,1.126588 -0.559458,0.695487 -0.942458,1.060623 -1.292642,1.23235 -0.269806,0.13231 -0.363286,0.149624 -0.807822,0.149624 -0.817296,0 -1.120876,-0.198691 -2.103848,-1.376953 -0.579146,-0.694208 -0.937018,-0.995765 -1.317678,-1.110326 -0.368206,-0.110814 -0.628824,-0.0483 -0.890798,0.213673 -0.419914,0.419915 -0.48829,1.155122 -0.171002,1.838709 0.198102,0.426806 0.293106,0.570758 0.906644,1.373768 0.760638,0.995537 1.040992,1.804239 0.852812,2.459998 -0.132804,0.462785 -0.27419,0.669839 -0.95303,1.395669 -0.746388,0.798054 -0.967578,1.110962 -1.010196,1.429082 -0.118222,0.882472 1.20891,1.946007 2.808554,2.250714 0.54066,0.102987 0.816704,0.1216 1.858036,0.125281 1.103466,0.0039 1.284534,-0.0084 1.852084,-0.125791 z"
       id="path1578" />
  </g>
</svg>
