<?xml version="1.0" encoding="UTF-8" standalone="no"?>
<svg
   xmlns:dc="http://purl.org/dc/elements/1.1/"
   xmlns:cc="http://creativecommons.org/ns#"
   xmlns:rdf="http://www.w3.org/1999/02/22-rdf-syntax-ns#"
   xmlns:svg="http://www.w3.org/2000/svg"
   xmlns="http://www.w3.org/2000/svg"
   xmlns:sodipodi="http://sodipodi.sourceforge.net/DTD/sodipodi-0.dtd"
   xmlns:inkscape="http://www.inkscape.org/namespaces/inkscape"
   width="13.229167mm"
   height="13.229167mm"
   viewBox="0 0 13.229169 13.229168"
   version="1.1"
   id="svg8"
   sodipodi:docname="VCS_resized_210.svg"
   inkscape:version="1.0.2-2 (e86c870879, 2021-01-15)">
  <defs
     id="defs2" />
  <sodipodi:namedview
     id="base"
     pagecolor="#ffffff"
     bordercolor="#666666"
     borderopacity="1.0"
     inkscape:pageopacity="0.0"
     inkscape:pageshadow="2"
     inkscape:zoom="2.8284271"
     inkscape:cx="16.89573"
     inkscape:cy="45.178381"
     inkscape:document-units="mm"
     inkscape:current-layer="layer1"
     inkscape:document-rotation="0"
     showgrid="false"
     inkscape:window-width="958"
     inkscape:window-height="1008"
     inkscape:window-x="1913"
     inkscape:window-y="0"
     inkscape:window-maximized="0" />
  <metadata
     id="metadata5">
    <rdf:RDF>
      <cc:Work
         rdf:about="">
        <dc:format>image/svg+xml</dc:format>
        <dc:type
           rdf:resource="http://purl.org/dc/dcmitype/StillImage" />
        <dc:title></dc:title>
      </cc:Work>
    </rdf:RDF>
  </metadata>
  <g
     inkscape:label="Ebene 1"
     inkscape:groupmode="layer"
     id="layer1"
     transform="translate(-44.093033,-18.727057)">
    <path
       style="fill:#000000;stroke-width:0.264582"
       d="m 46.931569,31.467137 c -0.04784,-0.03638 -0.181004,-0.328083 -0.295912,-0.648229 -0.114908,-0.320146 -0.344224,-0.903552 -0.509592,-1.296458 -0.530344,-1.260076 -0.628558,-1.662593 -0.796204,-3.263137 -0.09542,-0.910944 -0.15046,-1.155643 -0.439684,-1.954608 -0.25634,-0.708125 -0.401626,-1.361943 -0.331392,-1.491331 0.08558,-0.157658 1.31176,-0.881264 2.518918,-1.486492 0.640292,-0.32102 1.354666,-0.708612 1.5875,-0.861316 0.232834,-0.152704 0.777412,-0.511 1.210176,-0.796213 0.432764,-0.285213 0.821866,-0.51857 0.86467,-0.51857 0.04281,0 0.164976,0.05923 0.27149,0.131634 1.316854,0.895067 2.301946,1.502489 3.051164,1.881387 1.301014,0.657956 2.622346,1.424067 2.776516,1.609831 0.09405,0.113324 -0.005,0.629446 -0.262156,1.366405 -0.290562,0.832598 -0.359644,1.161277 -0.448796,2.135289 -0.116164,1.269126 -0.29612,1.944996 -0.8998,3.379413 -0.134736,0.320145 -0.325708,0.801249 -0.424386,1.069118 -0.200468,0.544188 -0.280206,0.711871 -0.365654,0.768926 -0.03202,0.02138 -1.714594,0.03924 -3.739048,0.03969 -2.86401,6.2e-4 -3.700126,-0.01387 -3.76781,-0.06534 z m 7.8735,-1.468437 c 0.8129,-2.019757 0.909718,-2.378095 1.056138,-3.908901 0.08348,-0.872827 0.11952,-1.031781 0.455984,-2.01142 0.113756,-0.331209 0.22707,-0.731274 0.251808,-0.889035 l 0.04498,-0.286838 -0.217306,-0.147256 c -0.436346,-0.29569 -1.247026,-0.745041 -2.294782,-1.271974 -0.703204,-0.353652 -1.382826,-0.747596 -1.975282,-1.144975 -0.49677,-0.333201 -1.007018,-0.66665 -1.133884,-0.740998 -0.225294,-0.132031 -0.234744,-0.13307 -0.405968,-0.04466 -0.09642,0.04979 -0.484868,0.297376 -0.863222,0.550196 -1.083098,0.723738 -1.688334,1.071907 -2.677964,1.540534 -0.506204,0.239707 -1.20612,0.607441 -1.55537,0.817188 l -0.635,0.381357 0.0055,0.287653 c 0.0038,0.198771 0.09663,0.556412 0.300444,1.157451 0.329424,0.971446 0.381464,1.199566 0.462924,2.029254 0.08364,0.851904 0.19589,1.547823 0.312296,1.936169 0.0567,0.189177 0.329424,0.903138 0.606042,1.586579 0.276618,0.683442 0.51399,1.284873 0.527496,1.336515 0.02325,0.08892 0.215382,0.09317 3.629618,0.0803 l 3.605064,-0.0136 z"
       id="path4259" />
  </g>
</svg>
