<?xml version="1.0" encoding="UTF-8" standalone="no"?>
<svg
   xmlns:dc="http://purl.org/dc/elements/1.1/"
   xmlns:cc="http://creativecommons.org/ns#"
   xmlns:rdf="http://www.w3.org/1999/02/22-rdf-syntax-ns#"
   xmlns:svg="http://www.w3.org/2000/svg"
   xmlns="http://www.w3.org/2000/svg"
   xmlns:sodipodi="http://sodipodi.sourceforge.net/DTD/sodipodi-0.dtd"
   xmlns:inkscape="http://www.inkscape.org/namespaces/inkscape"
   width="13.229167mm"
   height="13.229167mm"
   viewBox="0 0 13.229167 13.229167"
   version="1.1"
   id="svg8"
   sodipodi:docname="VCS_resized_37.svg"
   inkscape:version="1.0.2-2 (e86c870879, 2021-01-15)">
  <defs
     id="defs2" />
  <sodipodi:namedview
     id="base"
     pagecolor="#ffffff"
     bordercolor="#666666"
     borderopacity="1.0"
     inkscape:pageopacity="0.0"
     inkscape:pageshadow="2"
     inkscape:zoom="2.8284271"
     inkscape:cx="-3.2202915"
     inkscape:cy="37.529962"
     inkscape:document-units="mm"
     inkscape:current-layer="layer1"
     inkscape:document-rotation="0"
     showgrid="false"
     inkscape:window-width="958"
     inkscape:window-height="1008"
     inkscape:window-x="1913"
     inkscape:window-y="0"
     inkscape:window-maximized="0" />
  <metadata
     id="metadata5">
    <rdf:RDF>
      <cc:Work
         rdf:about="">
        <dc:format>image/svg+xml</dc:format>
        <dc:type
           rdf:resource="http://purl.org/dc/dcmitype/StillImage" />
        <dc:title></dc:title>
      </cc:Work>
    </rdf:RDF>
  </metadata>
  <g
     inkscape:label="Ebene 1"
     inkscape:groupmode="layer"
     id="layer1"
     transform="translate(-39.052021,-16.66181)">
    <path
       style="fill:#000000;stroke-width:0.264582"
       d="m 42.2286,28.126675 c -0.09465,-0.05952 -0.23506,-0.23107 -0.316496,-0.386694 -0.12371,-0.236406 -0.14577,-0.34118 -0.142462,-0.676596 0.0053,-0.533508 0.133476,-0.843878 0.652922,-1.58051 0.508984,-0.721799 0.651526,-1.061082 0.658776,-1.568032 0.0091,-0.635928 -0.230278,-0.990661 -1.215042,-1.800608 -0.97159,-0.799111 -1.307838,-1.281889 -1.308774,-1.879114 -10e-4,-0.612487 0.34443,-0.872607 1.154492,-0.869464 0.376828,0.0015 0.470092,0.02328 0.829798,0.194101 0.22289,0.10585 0.659418,0.360316 0.97006,0.565479 0.683902,0.451681 1.042706,0.598449 1.537128,0.628762 0.614888,0.0377 0.93648,-0.17373 1.671544,-1.098947 0.752848,-0.947604 1.295046,-1.322792 1.91174,-1.322875 0.430838,-5.9e-5 0.598486,0.101806 0.768168,0.466743 0.116232,0.249981 0.139918,0.376593 0.14087,0.753042 10e-4,0.416911 -0.01428,0.483564 -0.194908,0.846667 -0.10783,0.216772 -0.319362,0.560818 -0.470072,0.764548 -0.5272,0.712669 -0.767722,1.433106 -0.639058,1.914167 0.12378,0.4628 0.411338,0.766382 1.615524,1.705545 0.585158,0.456374 0.88368,0.940208 0.917304,1.486746 0.02803,0.455516 -0.03845,0.568746 -0.460352,0.784148 -0.329926,0.168444 -0.364466,0.174852 -0.846666,0.157092 -0.500566,-0.01844 -0.506432,-0.02025 -1.375834,-0.425014 -0.696898,-0.324452 -0.968732,-0.423044 -1.346818,-0.488472 -0.430504,-0.0745 -0.500462,-0.0743 -0.767292,0.0022 -0.461674,0.132388 -0.715402,0.310194 -1.435518,1.005976 -0.836332,0.80807 -0.971196,0.882966 -1.636206,0.908654 -0.434034,0.01676 -0.525948,0.0048 -0.672828,-0.08756 z m 1.239792,-0.267268 c 0.128858,-0.0585 0.508634,-0.377148 0.899582,-0.75479 1.400702,-1.353032 1.956292,-1.428956 3.85158,-0.52634 l 0.740832,0.352816 h 0.529168 c 0.431604,0 0.560716,-0.01908 0.70029,-0.103508 0.234934,-0.142106 0.349528,-0.398904 0.303612,-0.680382 -0.07254,-0.444692 -0.406724,-0.841946 -1.302206,-1.547961 -0.636494,-0.501824 -0.936998,-0.833544 -1.129274,-1.246586 -0.152338,-0.327246 -0.163012,-0.522934 -0.05379,-0.986169 0.09744,-0.413288 0.330824,-0.882873 0.674886,-1.357936 0.145906,-0.201461 0.33943,-0.511024 0.430052,-0.687917 0.146264,-0.285505 0.164768,-0.372137 0.164768,-0.771416 0,-0.385708 -0.01748,-0.474309 -0.122744,-0.621878 -0.162934,-0.228436 -0.294666,-0.291893 -0.61534,-0.296416 -0.503812,-0.0071 -0.986494,0.342797 -1.581466,1.146424 -0.38752,0.52342 -0.78225,0.896378 -1.164132,1.09992 -0.279988,0.149231 -0.368566,0.170558 -0.674282,0.162346 -0.567982,-0.01526 -1.072758,-0.226764 -1.946328,-0.815533 -0.848068,-0.57158 -1.451924,-0.73704 -1.925436,-0.527583 -0.425248,0.188107 -0.533218,0.538949 -0.31658,1.028697 0.142638,0.322457 0.438458,0.638292 1.167938,1.246962 0.55299,0.46141 0.957342,0.916746 1.157134,1.303037 0.111826,0.216213 0.14695,0.718722 0.07131,1.020178 -0.09219,0.367408 -0.329064,0.835017 -0.63821,1.259887 -0.441328,0.606534 -0.647632,1.071314 -0.65136,1.467438 -0.004,0.420538 0.127476,0.707766 0.385964,0.84347 0.248182,0.130296 0.749278,0.127052 1.044038,-0.0068 z"
       id="path584" />
  </g>
</svg>
