<?xml version="1.0" encoding="UTF-8" standalone="no"?>
<svg
   xmlns:dc="http://purl.org/dc/elements/1.1/"
   xmlns:cc="http://creativecommons.org/ns#"
   xmlns:rdf="http://www.w3.org/1999/02/22-rdf-syntax-ns#"
   xmlns:svg="http://www.w3.org/2000/svg"
   xmlns="http://www.w3.org/2000/svg"
   xmlns:sodipodi="http://sodipodi.sourceforge.net/DTD/sodipodi-0.dtd"
   xmlns:inkscape="http://www.inkscape.org/namespaces/inkscape"
   width="13.229167mm"
   height="13.229167mm"
   viewBox="0 0 13.229167 13.229167"
   version="1.1"
   id="svg8"
   sodipodi:docname="VCS_resized_19.svg"
   inkscape:version="1.0.2-2 (e86c870879, 2021-01-15)">
  <defs
     id="defs2" />
  <sodipodi:namedview
     id="base"
     pagecolor="#ffffff"
     bordercolor="#666666"
     borderopacity="1.0"
     inkscape:pageopacity="0.0"
     inkscape:pageshadow="2"
     inkscape:zoom="2.8284271"
     inkscape:cx="19.925918"
     inkscape:cy="47.379662"
     inkscape:document-units="mm"
     inkscape:current-layer="layer1"
     inkscape:document-rotation="0"
     showgrid="false"
     inkscape:window-width="958"
     inkscape:window-height="1008"
     inkscape:window-x="1913"
     inkscape:window-y="0"
     inkscape:window-maximized="0" />
  <metadata
     id="metadata5">
    <rdf:RDF>
      <cc:Work
         rdf:about="">
        <dc:format>image/svg+xml</dc:format>
        <dc:type
           rdf:resource="http://purl.org/dc/dcmitype/StillImage" />
        <dc:title></dc:title>
      </cc:Work>
    </rdf:RDF>
  </metadata>
  <g
     inkscape:label="Ebene 1"
     inkscape:groupmode="layer"
     id="layer1"
     transform="translate(-32.927921,-14.055743)">
    <path
       style="fill:#000000;stroke-width:0.264582"
       d="m 37.023182,25.814423 c -0.0609,-0.04266 -0.1674,-0.215295 -0.23667,-0.383646 -0.107146,-0.260395 -0.125628,-0.392996 -0.123798,-0.888177 0.0021,-0.569838 0.0075,-0.595351 0.255616,-1.212813 0.237552,-0.591124 0.404072,-1.233739 0.403396,-1.556738 -0.0012,-0.59319 -0.329736,-0.942729 -1.69889,-1.80774 -1.117398,-0.705955 -1.70736,-1.514831 -1.38321,-1.896471 0.147786,-0.173997 0.710282,-0.33262 1.175882,-0.331597 0.48038,0.0011 0.73886,0.05281 1.48318,0.29698 0.767822,0.251878 1.185054,0.341924 1.5875,0.342608 0.558868,9.4e-4 0.810304,-0.212171 1.528384,-1.295479 0.651032,-0.982159 1.050962,-1.347451 1.73217,-1.58215 0.309962,-0.106792 0.437654,-0.02872 0.599478,0.366509 0.108346,0.264623 0.129054,0.402175 0.127254,0.845225 -0.002,0.498856 -0.0164,0.567054 -0.250858,1.190625 -0.312096,0.830038 -0.451334,1.584799 -0.353676,1.917148 0.09414,0.32039 0.566872,0.760623 1.432696,1.334213 0.39289,0.26028 0.857218,0.618709 1.031844,0.796509 0.36965,0.376371 0.62338,0.841294 0.59875,1.097125 -0.01474,0.153092 -0.05341,0.191503 -0.334168,0.33188 -0.293764,0.146882 -0.357058,0.158212 -0.846666,0.151548 -0.38438,-0.0052 -0.630518,-0.03937 -0.899584,-0.124755 -0.988234,-0.313623 -1.430572,-0.419359 -1.89784,-0.453658 -0.467522,-0.03432 -0.515068,-0.02843 -0.704062,0.0872 -0.387698,0.23721 -0.775848,0.661216 -1.213928,1.326067 -0.549812,0.834419 -0.83309,1.122915 -1.326846,1.351292 -0.424318,0.196259 -0.525406,0.210744 -0.685954,0.09829 z m 0.72932,-0.402344 c 0.323434,-0.165004 0.633276,-0.505447 1.089116,-1.196685 0.441592,-0.669629 0.885918,-1.150561 1.27206,-1.376854 0.215766,-0.126448 0.285786,-0.13941 0.692516,-0.1282 0.556078,0.01533 1.02328,0.110551 1.781036,0.36301 0.511424,0.17039 0.646318,0.194182 1.11125,0.196 0.443284,0.0017 0.559226,-0.01576 0.714374,-0.107796 0.162544,-0.09642 0.183808,-0.133365 0.173768,-0.301898 -0.02515,-0.422102 -0.44479,-0.854844 -1.499208,-1.546008 -0.739842,-0.484961 -1.398364,-1.086612 -1.46056,-1.334423 -0.0183,-0.0729 -0.0194,-0.361838 -0.0024,-0.642085 0.03084,-0.509788 0.08717,-0.726291 0.462724,-1.77827 0.153534,-0.430068 0.166994,-0.516202 0.142368,-0.910925 -0.03512,-0.562869 -0.14779,-0.776782 -0.421312,-0.799859 -0.42659,-0.03599 -0.949138,0.387687 -1.44545,1.171962 -0.419448,0.662817 -0.771008,1.098062 -1.110588,1.374953 l -0.31617,0.257801 -0.502708,-0.03256 c -0.483228,-0.0313 -0.994044,-0.150847 -2.06375,-0.482992 -0.597736,-0.185598 -1.236234,-0.200736 -1.598756,-0.0379 -0.628846,0.282456 -0.280676,0.824435 1.122506,1.747357 1.27996,0.841875 1.567924,1.13002 1.639114,1.640137 0.07522,0.539035 -0.103508,1.323621 -0.53233,2.336782 -0.152226,0.359661 -0.118244,1.237669 0.05919,1.529445 0.08426,0.138557 0.135882,0.16849 0.29056,0.16849 0.103452,0 0.284664,-0.04927 0.402692,-0.10948 z"
       id="path296" />
  </g>
</svg>
