<?xml version="1.0" encoding="UTF-8" standalone="no"?>
<svg
   xmlns:dc="http://purl.org/dc/elements/1.1/"
   xmlns:cc="http://creativecommons.org/ns#"
   xmlns:rdf="http://www.w3.org/1999/02/22-rdf-syntax-ns#"
   xmlns:svg="http://www.w3.org/2000/svg"
   xmlns="http://www.w3.org/2000/svg"
   xmlns:sodipodi="http://sodipodi.sourceforge.net/DTD/sodipodi-0.dtd"
   xmlns:inkscape="http://www.inkscape.org/namespaces/inkscape"
   width="13.229167mm"
   height="13.229167mm"
   viewBox="0 0 13.229169 13.229168"
   version="1.1"
   id="svg8"
   sodipodi:docname="VCS_resized_292.svg"
   inkscape:version="1.0.2-2 (e86c870879, 2021-01-15)">
  <defs
     id="defs2" />
  <sodipodi:namedview
     id="base"
     pagecolor="#ffffff"
     bordercolor="#666666"
     borderopacity="1.0"
     inkscape:pageopacity="0.0"
     inkscape:pageshadow="2"
     inkscape:zoom="4"
     inkscape:cx="10.358588"
     inkscape:cy="41.699219"
     inkscape:document-units="mm"
     inkscape:current-layer="layer1"
     inkscape:document-rotation="0"
     showgrid="false"
     inkscape:window-width="958"
     inkscape:window-height="1008"
     inkscape:window-x="1913"
     inkscape:window-y="0"
     inkscape:window-maximized="0" />
  <metadata
     id="metadata5">
    <rdf:RDF>
      <cc:Work
         rdf:about="">
        <dc:format>image/svg+xml</dc:format>
        <dc:type
           rdf:resource="http://purl.org/dc/dcmitype/StillImage" />
        <dc:title></dc:title>
      </cc:Work>
    </rdf:RDF>
  </metadata>
  <g
     inkscape:label="Ebene 1"
     inkscape:groupmode="layer"
     id="layer1"
     transform="translate(-92.487053,19.456137)">
    <path
       style="fill:#000000;stroke-width:0.264582"
       d="m 97.154591,-6.752628 c -0.620472,-0.017508 -0.733538,-0.033804 -0.77449,-0.1116198 -0.02637,-0.050115 -0.0639,-0.3173364 -0.08338,-0.593826 -0.01948,-0.2764896 -0.05757,-0.7408334 -0.08464,-1.031875 -0.02707,-0.2910415 -0.08563,-0.9458853 -0.130138,-1.4552083 l -0.08093,-0.9260419 -0.175686,-0.15875 c -0.09663,-0.08731 -0.830404,-0.733846 -1.630614,-1.436741 -0.80021,-0.702896 -1.496236,-1.319299 -1.546722,-1.369786 -0.172024,-0.172025 -0.199108,-0.163786 2.058134,-0.626124 0.785812,-0.160954 1.615018,-0.335514 1.84268,-0.387913 l 0.41393,-0.09527 1.01482,-1.997119 c 0.959644,-1.888533 1.022654,-1.997145 1.15888,-1.997604 0.136692,-4.6e-4 0.195448,0.102062 1.148675,2.004296 l 1.00461,2.00478 0.30654,0.05613 c 0.25433,0.04657 1.72534,0.360399 3.65663,0.780111 0.3216,0.06989 0.38401,0.10033 0.37042,0.180666 -0.009,0.05314 -0.71882,0.719497 -1.57739,1.480797 -0.85857,0.7613 -1.61082,1.439076 -1.67166,1.50617 -0.12054,0.132936 -0.16329,0.448824 -0.31556,2.3317718 -0.0424,0.523875 -0.0923,1.1358172 -0.11087,1.3598716 -0.0242,0.2916946 -0.0566,0.4160854 -0.11381,0.438059 -0.0997,0.038252 -3.695105,0.073 -4.679433,0.045224 z m 4.462249,-0.3193996 c 0.0229,-0.023148 0.0656,-0.3159316 0.0948,-0.6506296 0.20726,-2.3705338 0.2813,-3.1094798 0.32131,-3.2069518 0.0358,-0.08732 2.36424,-2.216127 3.01293,-2.754659 0.0757,-0.06288 0.12379,-0.128392 0.10677,-0.145591 -0.017,-0.0172 -0.30277,-0.09039 -0.635,-0.162642 -0.86683,-0.188517 -2.32547,-0.497831 -2.87227,-0.609084 -0.25797,-0.05249 -0.49967,-0.127591 -0.5371,-0.166898 -0.0374,-0.03931 -0.48987,-0.910857 -1.00542,-1.936779 -0.515555,-1.025922 -0.952517,-1.865085 -0.971031,-1.864806 -0.01852,2.8e-4 -0.462284,0.847036 -0.986158,1.881685 -0.523876,1.034649 -0.981352,1.905734 -1.016612,1.935744 -0.07193,0.06122 -0.471806,0.153554 -2.158388,0.498386 -1.538048,0.314463 -1.886276,0.397708 -1.867632,0.446463 0.0086,0.02236 0.64658,0.593144 1.41784,1.268398 0.77126,0.675254 1.475856,1.304455 1.56577,1.398224 0.181568,0.189353 0.173642,0.137264 0.367208,2.4130942 0.04579,0.538427 0.09991,1.1337396 0.120246,1.3229166 l 0.03698,0.3439584 0.661458,0.033069 c 0.879982,0.043993 4.291409,0.00952 4.344249,-0.043897 z"
       id="path5587" />
  </g>
</svg>
