<?xml version="1.0" encoding="UTF-8" standalone="no"?>
<svg
   xmlns:dc="http://purl.org/dc/elements/1.1/"
   xmlns:cc="http://creativecommons.org/ns#"
   xmlns:rdf="http://www.w3.org/1999/02/22-rdf-syntax-ns#"
   xmlns:svg="http://www.w3.org/2000/svg"
   xmlns="http://www.w3.org/2000/svg"
   xmlns:sodipodi="http://sodipodi.sourceforge.net/DTD/sodipodi-0.dtd"
   xmlns:inkscape="http://www.inkscape.org/namespaces/inkscape"
   width="13.229167mm"
   height="13.229167mm"
   viewBox="0 0 13.229167 13.229167"
   version="1.1"
   id="svg8"
   sodipodi:docname="VCS_resized_77.svg"
   inkscape:version="1.0.2-2 (e86c870879, 2021-01-15)">
  <defs
     id="defs2" />
  <sodipodi:namedview
     id="base"
     pagecolor="#ffffff"
     bordercolor="#666666"
     borderopacity="1.0"
     inkscape:pageopacity="0.0"
     inkscape:pageshadow="2"
     inkscape:zoom="2.8284271"
     inkscape:cx="7.7181832"
     inkscape:cy="48.435306"
     inkscape:document-units="mm"
     inkscape:current-layer="layer1"
     inkscape:document-rotation="0"
     showgrid="false"
     inkscape:window-width="958"
     inkscape:window-height="1008"
     inkscape:window-x="1913"
     inkscape:window-y="0"
     inkscape:window-maximized="0" />
  <metadata
     id="metadata5">
    <rdf:RDF>
      <cc:Work
         rdf:about="">
        <dc:format>image/svg+xml</dc:format>
        <dc:type
           rdf:resource="http://purl.org/dc/dcmitype/StillImage" />
        <dc:title></dc:title>
      </cc:Work>
    </rdf:RDF>
  </metadata>
  <g
     inkscape:label="Ebene 1"
     inkscape:groupmode="layer"
     id="layer1"
     transform="translate(-36.157883,-13.776438)">
    <path
       style="fill:#000000;stroke-width:0.264582"
       d="m 39.469122,25.65682 c -0.582948,-0.164282 -1.209836,-0.649039 -1.431508,-1.106951 -0.150302,-0.310485 -0.147642,-0.854447 0.0057,-1.156394 0.15864,-0.312466 0.432552,-0.642525 0.864974,-1.042273 0.393202,-0.363491 0.66662,-0.685163 0.877698,-1.032598 0.110976,-0.182668 0.128594,-0.276913 0.128594,-0.687916 0,-0.404928 -0.02105,-0.521147 -0.140542,-0.776042 -0.163712,-0.349211 -0.429126,-0.7169 -0.891334,-1.234792 -0.768616,-0.861219 -1.000164,-1.296153 -1.042344,-1.957916 -0.02252,-0.353239 -0.0074,-0.475088 0.09125,-0.735905 0.240912,-0.636865 0.766952,-0.960724 1.358838,-0.836574 0.492096,0.103218 0.825418,0.35727 1.566888,1.194258 0.703554,0.794185 0.891388,0.956856 1.326138,1.148485 0.205896,0.09075 0.335162,0.109857 0.63943,0.09449 0.610662,-0.03084 0.889616,-0.206599 1.547358,-0.974952 0.96464,-1.126861 1.426714,-1.463815 2.018394,-1.471853 0.2363,-0.0032 0.352576,0.02669 0.547144,0.140719 0.494678,0.289901 0.69948,0.750836 0.667702,1.502755 -0.01874,0.44339 -0.03941,0.522416 -0.242204,0.926041 -0.154038,0.306583 -0.36077,0.594734 -0.677258,0.943992 -0.953978,1.052752 -1.240028,1.694649 -1.057776,2.373655 0.113994,0.4247 0.287586,0.654978 1.062824,1.409887 0.581722,0.566466 0.735058,0.748641 0.868528,1.031875 0.383752,0.814355 0.04134,1.631741 -0.823654,1.966193 -0.414116,0.160118 -1.2786,0.281292 -1.683654,0.235998 -0.647942,-0.07246 -2.435068,-0.09576 -3.00284,-0.03916 -1.024194,0.102108 -1.112048,0.109192 -1.70956,0.137844 -0.432174,0.02072 -0.65591,0.0071 -0.868746,-0.05287 z m 1.556664,-0.299548 c 0.283926,-0.03606 1.427182,-0.06363 2.831042,-0.06826 2.292064,-0.0076 2.362656,-0.01086 2.650032,-0.124198 0.594826,-0.234577 0.90896,-0.636133 0.902774,-1.154014 -0.0049,-0.409206 -0.175482,-0.664456 -0.998352,-1.493768 -0.908152,-0.915263 -1.04633,-1.167719 -1.04633,-1.91169 0,-0.482295 0.0093,-0.523039 0.218182,-0.953613 0.155136,-0.319819 0.38918,-0.654532 0.80995,-1.158332 0.71926,-0.861189 0.910282,-1.210437 0.943842,-1.725626 0.03297,-0.506179 -0.0521,-0.782625 -0.332022,-1.07889 -0.230236,-0.243679 -0.231078,-0.244027 -0.5913,-0.244027 -0.597134,0 -0.899164,0.212554 -1.743964,1.227322 -0.741738,0.890968 -1.204008,1.187533 -1.86018,1.193378 -0.751666,0.0067 -1.19934,-0.262494 -2.00661,-1.206585 -0.29724,-0.347617 -0.630614,-0.712399 -0.740832,-0.810627 -0.301086,-0.268327 -0.680194,-0.428823 -1.014362,-0.429429 -0.362142,-6.6e-4 -0.592894,0.136256 -0.786538,0.466685 -0.122866,0.209655 -0.144356,0.30609 -0.144356,0.647777 0,0.356033 0.02202,0.445884 0.194616,0.794174 0.107038,0.215997 0.332944,0.5573 0.502012,0.758451 0.75531,0.898641 0.933624,1.142391 1.132114,1.54757 0.278286,0.568066 0.343914,0.968335 0.230518,1.405945 -0.127302,0.491274 -0.302106,0.744251 -1.005396,1.455011 -0.749612,0.757573 -0.938446,1.057095 -0.940596,1.491928 -0.0021,0.432149 0.164164,0.695966 0.696682,1.10522 0.411016,0.315876 1.058378,0.397788 2.099074,0.265598 z"
       id="path1274" />
  </g>
</svg>
