<?xml version="1.0" encoding="UTF-8" standalone="no"?>
<svg
   xmlns:dc="http://purl.org/dc/elements/1.1/"
   xmlns:cc="http://creativecommons.org/ns#"
   xmlns:rdf="http://www.w3.org/1999/02/22-rdf-syntax-ns#"
   xmlns:svg="http://www.w3.org/2000/svg"
   xmlns="http://www.w3.org/2000/svg"
   xmlns:sodipodi="http://sodipodi.sourceforge.net/DTD/sodipodi-0.dtd"
   xmlns:inkscape="http://www.inkscape.org/namespaces/inkscape"
   width="13.229167mm"
   height="13.229167mm"
   viewBox="0 0 13.229169 13.229168"
   version="1.1"
   id="svg8"
   sodipodi:docname="VCS_resized_108.svg"
   inkscape:version="1.0.2-2 (e86c870879, 2021-01-15)">
  <defs
     id="defs2" />
  <sodipodi:namedview
     id="base"
     pagecolor="#ffffff"
     bordercolor="#666666"
     borderopacity="1.0"
     inkscape:pageopacity="0.0"
     inkscape:pageshadow="2"
     inkscape:zoom="2.8284271"
     inkscape:cx="5.6525777"
     inkscape:cy="42.445052"
     inkscape:document-units="mm"
     inkscape:current-layer="layer1"
     inkscape:document-rotation="0"
     showgrid="false"
     inkscape:window-width="958"
     inkscape:window-height="1008"
     inkscape:window-x="1913"
     inkscape:window-y="0"
     inkscape:window-maximized="0" />
  <metadata
     id="metadata5">
    <rdf:RDF>
      <cc:Work
         rdf:about="">
        <dc:format>image/svg+xml</dc:format>
        <dc:type
           rdf:resource="http://purl.org/dc/dcmitype/StillImage" />
        <dc:title></dc:title>
      </cc:Work>
    </rdf:RDF>
  </metadata>
  <g
     inkscape:label="Ebene 1"
     inkscape:groupmode="layer"
     id="layer1"
     transform="translate(-36.704407,-15.36136)">
    <path
       style="fill:#000000;stroke-width:0.264582"
       d="m 42.076345,28.028964 c -1.370228,-0.287136 -1.324374,-0.266506 -2.2643,-1.018754 -0.947592,-0.758382 -1.295082,-1.161368 -1.484098,-1.721114 -0.21849,-0.64703 -0.07282,-0.987882 0.820306,-1.919376 0.926108,-0.965896 1.15618,-1.460656 0.995714,-2.141231 -0.10378,-0.440159 -0.223902,-0.654009 -0.79794,-1.420563 -0.584758,-0.780871 -0.80122,-1.162399 -0.921508,-1.624217 -0.295176,-1.133255 0.28619,-2.29195 1.149406,-2.290828 0.556716,7.2e-4 0.818014,0.176241 1.920338,1.289925 0.83734,0.845971 1.08486,1.008485 1.660276,1.090094 0.465852,0.06607 0.780518,0.0054 1.12797,-0.21735 0.240732,-0.154357 1.133294,-1.043536 1.373112,-1.367908 0.163882,-0.221662 0.706118,-0.638852 0.938036,-0.721714 0.314006,-0.112191 0.62424,-0.08965 0.910518,0.06616 0.406382,0.221182 0.644108,0.634542 0.735492,1.278883 0.10827,0.763398 -0.108798,1.33256 -0.922206,2.41807 -0.579546,0.773414 -0.629614,0.858088 -0.773222,1.307618 -0.181458,0.568013 -0.11704,1.014026 0.216468,1.498762 0.09035,0.131318 0.445732,0.533044 0.78974,0.892722 0.655098,0.68494 0.84944,1.011238 0.84944,1.426196 0,0.523014 -0.360754,1.08993 -1.19747,1.881796 -0.785682,0.743568 -1.119136,0.941616 -1.938976,1.151616 -0.682946,0.174936 -0.690764,0.17564 -1.883528,0.169526 -0.658754,-0.0034 -1.24536,-0.01612 -1.303568,-0.02832 z m 3.140474,-0.408978 c 0.698254,-0.18072 0.921374,-0.324754 2.06345,-1.332054 0.27106,-0.239072 0.637986,-0.735956 0.72446,-0.981044 0.103926,-0.29456 0.09617,-0.610936 -0.02128,-0.86826 -0.05313,-0.116418 -0.344316,-0.482406 -0.647066,-0.81331 -0.70848,-0.77436 -0.915058,-1.052216 -1.049552,-1.41168 -0.196652,-0.525602 -0.111634,-1.176557 0.236468,-1.810535 0.100068,-0.182247 0.387934,-0.610872 0.639704,-0.9525 0.25177,-0.341629 0.531862,-0.775924 0.622428,-0.965101 0.151978,-0.317464 0.164662,-0.386756 0.164662,-0.899583 0,-0.476841 -0.01708,-0.587614 -0.1205,-0.78123 -0.17405,-0.325866 -0.49402,-0.541987 -0.800252,-0.540525 -0.48297,0.0023 -0.633518,0.11713 -1.950626,1.487732 -0.868398,0.903668 -1.67776,1.093573 -2.64059,0.619574 -0.282224,-0.138939 -0.505744,-0.327635 -1.149804,-0.970668 -0.908864,-0.907413 -1.255468,-1.1378 -1.711758,-1.1378 -0.568558,0 -0.936272,0.50818 -0.938104,1.296458 -0.0014,0.635883 0.179588,1.03061 0.970538,2.115804 1.170968,1.606585 1.126212,2.508798 -0.190074,3.831686 -0.90637,0.910916 -1.034252,1.286752 -0.679206,1.99613 0.18957,0.378758 0.426802,0.620154 1.299334,1.322138 0.700368,0.563472 0.846124,0.642998 1.435896,0.783438 0.766208,0.182456 0.736242,0.180008 2.030146,0.165814 1.067102,-0.0117 1.20982,-0.02458 1.711724,-0.154484 z"
       id="path1770" />
  </g>
</svg>
