<?xml version="1.0" encoding="UTF-8" standalone="no"?>
<svg
   xmlns:dc="http://purl.org/dc/elements/1.1/"
   xmlns:cc="http://creativecommons.org/ns#"
   xmlns:rdf="http://www.w3.org/1999/02/22-rdf-syntax-ns#"
   xmlns:svg="http://www.w3.org/2000/svg"
   xmlns="http://www.w3.org/2000/svg"
   xmlns:sodipodi="http://sodipodi.sourceforge.net/DTD/sodipodi-0.dtd"
   xmlns:inkscape="http://www.inkscape.org/namespaces/inkscape"
   width="13.229167mm"
   height="13.229167mm"
   viewBox="0 0 13.229167 13.229167"
   version="1.1"
   id="svg8"
   sodipodi:docname="VCS_resized_90.svg"
   inkscape:version="1.0.2-2 (e86c870879, 2021-01-15)">
  <defs
     id="defs2" />
  <sodipodi:namedview
     id="base"
     pagecolor="#ffffff"
     bordercolor="#666666"
     borderopacity="1.0"
     inkscape:pageopacity="0.0"
     inkscape:pageshadow="2"
     inkscape:zoom="2.8284271"
     inkscape:cx="-3.487725"
     inkscape:cy="62.762832"
     inkscape:document-units="mm"
     inkscape:current-layer="layer1"
     inkscape:document-rotation="0"
     showgrid="false"
     inkscape:window-width="958"
     inkscape:window-height="1008"
     inkscape:window-x="1913"
     inkscape:window-y="0"
     inkscape:window-maximized="0" />
  <metadata
     id="metadata5">
    <rdf:RDF>
      <cc:Work
         rdf:about="">
        <dc:format>image/svg+xml</dc:format>
        <dc:type
           rdf:resource="http://purl.org/dc/dcmitype/StillImage" />
        <dc:title></dc:title>
      </cc:Work>
    </rdf:RDF>
  </metadata>
  <g
     inkscape:label="Ebene 1"
     inkscape:groupmode="layer"
     id="layer1"
     transform="translate(-39.12278,-9.9856138)">
    <path
       style="fill:#000000;stroke-width:0.264582"
       d="m 43.995267,22.242326 c -0.83005,-0.08024 -1.222356,-0.18142 -1.832346,-0.472571 -0.392978,-0.18757 -0.541356,-0.294241 -0.796304,-0.572472 -0.896326,-0.978182 -0.808798,-1.577132 0.402998,-2.75765 0.767568,-0.747756 1.061486,-1.24814 1.061486,-1.807141 0,-0.566912 -0.272776,-1.085581 -1.080758,-2.055012 -0.763396,-0.915934 -1.026914,-1.543288 -0.957848,-2.28033 0.05273,-0.562669 0.27673,-0.991032 0.633308,-1.211079 0.2238,-0.138109 0.308944,-0.160003 0.60788,-0.156312 0.578592,0.0071 0.97585,0.275569 1.737882,1.174274 0.93405,1.101575 1.279304,1.334975 1.974738,1.334975 0.668644,0 0.977184,-0.215611 1.930968,-1.349375 0.734786,-0.873443 1.05152,-1.108501 1.576874,-1.170246 0.254228,-0.02988 0.333696,-0.01503 0.589668,0.110209 0.538588,0.263506 0.805754,0.865842 0.755148,1.70251 -0.03946,0.652407 -0.25156,1.074522 -0.966742,1.923986 -0.633448,0.752385 -0.87226,1.152177 -1.01045,1.691585 -0.07217,0.281699 -0.0723,0.344408 -0.0012,0.583828 0.147884,0.497981 0.346624,0.773637 1.057526,1.466805 0.786102,0.766492 0.979034,1.059127 1.023806,1.552891 0.05598,0.617381 -0.277568,1.087507 -1.136042,1.6012 -0.610294,0.365187 -0.989078,0.502924 -1.63897,0.595976 -1.02108,0.146199 -2.921408,0.191609 -3.931626,0.09395 z m 3.518958,-0.337309 c 0.829194,-0.127011 1.130036,-0.216517 1.675798,-0.498579 0.820572,-0.424092 1.165542,-0.805349 1.198244,-1.324285 0.01894,-0.30054 0.0074,-0.338677 -0.193712,-0.639392 -0.117618,-0.175884 -0.394874,-0.497353 -0.616124,-0.714375 -1.027924,-1.00828 -1.338968,-1.632025 -1.196722,-2.39982 0.106846,-0.576707 0.398118,-1.088481 1.12794,-1.981816 0.229548,-0.280977 0.505514,-0.688225 0.613258,-0.904997 0.184744,-0.371681 0.195902,-0.422922 0.195902,-0.899584 0,-0.60539 -0.09274,-0.836817 -0.440676,-1.099711 -0.17902,-0.135261 -0.280464,-0.173033 -0.464722,-0.173033 -0.511904,0 -0.89919,0.277316 -1.642418,1.176054 -0.61502,0.743703 -0.845376,0.955378 -1.288642,1.184147 -0.257676,0.132986 -0.345642,0.149984 -0.767292,0.148267 -0.426784,-0.0017 -0.509228,-0.01896 -0.79375,-0.165806 -0.378804,-0.19551 -0.74769,-0.545278 -1.34317,-1.27356 -0.65821,-0.805002 -1.128426,-1.106936 -1.64638,-1.057167 -0.544584,0.05233 -0.87044,0.507569 -0.860436,1.202089 0.0088,0.613275 0.245376,1.116665 0.884168,1.881601 0.997458,1.194431 1.322038,2.103567 1.034466,2.897494 -0.155106,0.428212 -0.22923,0.529476 -0.919712,1.256464 -0.317892,0.334698 -0.663698,0.737446 -0.76846,0.894995 -0.166648,0.25062 -0.190476,0.326897 -0.190476,0.609752 0,0.275433 0.02583,0.363547 0.174452,0.595157 0.339834,0.529588 0.7945,0.863017 1.500242,1.100205 0.607666,0.204226 1.336584,0.278624 2.796764,0.285454 0.998228,0.0047 1.379246,-0.01497 1.931458,-0.09955 z"
       id="path1482" />
  </g>
</svg>
