<?xml version="1.0" encoding="UTF-8" standalone="no"?>
<svg
   xmlns:dc="http://purl.org/dc/elements/1.1/"
   xmlns:cc="http://creativecommons.org/ns#"
   xmlns:rdf="http://www.w3.org/1999/02/22-rdf-syntax-ns#"
   xmlns:svg="http://www.w3.org/2000/svg"
   xmlns="http://www.w3.org/2000/svg"
   xmlns:sodipodi="http://sodipodi.sourceforge.net/DTD/sodipodi-0.dtd"
   xmlns:inkscape="http://www.inkscape.org/namespaces/inkscape"
   width="13.229167mm"
   height="13.229167mm"
   viewBox="0 0 13.229169 13.229168"
   version="1.1"
   id="svg8"
   sodipodi:docname="VCS_resized_174.svg"
   inkscape:version="1.0.2-2 (e86c870879, 2021-01-15)">
  <defs
     id="defs2" />
  <sodipodi:namedview
     id="base"
     pagecolor="#ffffff"
     bordercolor="#666666"
     borderopacity="1.0"
     inkscape:pageopacity="0.0"
     inkscape:pageshadow="2"
     inkscape:zoom="2.8284271"
     inkscape:cx="-0.18975667"
     inkscape:cy="47.114003"
     inkscape:document-units="mm"
     inkscape:current-layer="layer1"
     inkscape:document-rotation="0"
     showgrid="false"
     inkscape:window-width="958"
     inkscape:window-height="1008"
     inkscape:window-x="1913"
     inkscape:window-y="0"
     inkscape:window-maximized="0" />
  <metadata
     id="metadata5">
    <rdf:RDF>
      <cc:Work
         rdf:about="">
        <dc:format>image/svg+xml</dc:format>
        <dc:type
           rdf:resource="http://purl.org/dc/dcmitype/StillImage" />
        <dc:title></dc:title>
      </cc:Work>
    </rdf:RDF>
  </metadata>
  <g
     inkscape:label="Ebene 1"
     inkscape:groupmode="layer"
     id="layer1"
     transform="translate(-38.250187,-14.126032)">
    <path
       style="fill:#000000;stroke-width:0.264582"
       d="m 41.748649,26.609355 c -0.103344,-0.02881 -0.253112,-0.255892 -0.703268,-1.066324 -0.314578,-0.566347 -0.752432,-1.333488 -0.973006,-1.704758 -0.637064,-1.0723 -0.67937,-1.200162 -0.678342,-2.050172 l 8e-4,-0.714375 0.242408,-0.531326 c 0.281362,-0.616712 0.37469,-0.962486 0.37469,-1.388201 0,-0.297101 -0.04294,-0.448681 -0.408162,-1.440681 -0.08036,-0.218282 -0.157606,-0.55277 -0.17165,-0.743309 -0.02184,-0.296257 -0.0062,-0.384396 0.10767,-0.608542 0.161596,-0.317976 0.670558,-0.849924 0.995264,-1.040214 0.13077,-0.07664 0.400594,-0.191944 0.599612,-0.256239 0.317054,-0.10243 0.428158,-0.112484 0.897496,-0.08122 0.364332,0.02427 0.848744,0.0058 1.514604,-0.05763 1.257008,-0.119821 1.86946,-0.112975 2.745488,0.03069 0.651794,0.106892 0.755818,0.110918 1.306114,0.05055 0.713866,-0.0783 0.996914,-0.03102 1.414914,0.236373 0.391276,0.250296 0.916738,0.750262 1.078344,1.026021 0.12594,0.214902 0.134864,0.269624 0.109708,0.67283 -0.02158,0.345957 -0.06759,0.532862 -0.217242,0.882605 -0.456636,1.067165 -0.447316,1.506544 0.05642,2.660093 0.302728,0.693237 0.30306,0.69458 0.291612,1.179881 -0.01698,0.719605 -0.167384,1.128436 -0.862786,2.345188 -0.324358,0.567531 -0.743014,1.318656 -0.930344,1.669166 -0.187332,0.35051 -0.396738,0.707698 -0.465348,0.79375 l -0.124746,0.156459 -3.034504,0.008 c -1.66898,0.0044 -3.093594,-0.0085 -3.165812,-0.02861 z m 5.07395,-0.210443 c 0.94241,-0.03649 0.976624,-0.04172 1.058334,-0.161853 0.04644,-0.06828 0.287934,-0.495961 0.536652,-0.950405 0.24872,-0.454444 0.604206,-1.088199 0.789968,-1.408345 0.892258,-1.537715 1.027494,-2.165416 0.655546,-3.042708 -0.455798,-1.075061 -0.503088,-1.253056 -0.470986,-1.772708 0.03025,-0.489639 0.137448,-0.912463 0.348822,-1.375834 0.15107,-0.331177 0.246974,-0.794242 0.210322,-1.015525 -0.06216,-0.375265 -0.673706,-0.993012 -1.254366,-1.267079 -0.26035,-0.122883 -0.317922,-0.128721 -1.164166,-0.118041 -0.67685,0.0085 -1.010782,-0.01174 -1.39298,-0.08459 -0.597228,-0.113844 -1.618864,-0.126598 -2.434166,-0.03039 -0.305594,0.03606 -0.98425,0.08145 -1.508126,0.100864 -0.928888,0.03442 -0.96148,0.03953 -1.314826,0.206008 -0.408634,0.192529 -0.912624,0.664794 -1.098706,1.029546 -0.0941,0.184461 -0.107992,0.278649 -0.08205,0.556494 0.01718,0.183949 0.08242,0.446936 0.144978,0.584416 0.53539,1.17654 0.575538,1.870078 0.162244,2.802645 -0.263456,0.594472 -0.394968,1.18817 -0.3596,1.623391 0.03564,0.438541 0.226672,0.863328 0.896974,1.994519 0.248178,0.418821 0.594338,1.02343 0.769244,1.343576 0.174908,0.320146 0.378646,0.670683 0.45275,0.778973 l 0.134738,0.196891 0.70275,0.01645 c 1.41846,0.0332 3.267832,0.03044 4.216646,-0.0063 z"
       id="path2828" />
  </g>
</svg>
