<?xml version="1.0" encoding="UTF-8" standalone="no"?>
<svg
   xmlns:dc="http://purl.org/dc/elements/1.1/"
   xmlns:cc="http://creativecommons.org/ns#"
   xmlns:rdf="http://www.w3.org/1999/02/22-rdf-syntax-ns#"
   xmlns:svg="http://www.w3.org/2000/svg"
   xmlns="http://www.w3.org/2000/svg"
   xmlns:sodipodi="http://sodipodi.sourceforge.net/DTD/sodipodi-0.dtd"
   xmlns:inkscape="http://www.inkscape.org/namespaces/inkscape"
   width="13.229167mm"
   height="13.229167mm"
   viewBox="0 0 13.229169 13.229168"
   version="1.1"
   id="svg8"
   sodipodi:docname="VCS_resized_256.svg"
   inkscape:version="1.0.2-2 (e86c870879, 2021-01-15)">
  <defs
     id="defs2" />
  <sodipodi:namedview
     id="base"
     pagecolor="#ffffff"
     bordercolor="#666666"
     borderopacity="1.0"
     inkscape:pageopacity="0.0"
     inkscape:pageshadow="2"
     inkscape:zoom="2.8284271"
     inkscape:cx="9.0227194"
     inkscape:cy="2.7744234"
     inkscape:document-units="mm"
     inkscape:current-layer="layer1"
     inkscape:document-rotation="0"
     showgrid="false"
     inkscape:window-width="958"
     inkscape:window-height="1008"
     inkscape:window-x="1913"
     inkscape:window-y="0"
     inkscape:window-maximized="0" />
  <metadata
     id="metadata5">
    <rdf:RDF>
      <cc:Work
         rdf:about="">
        <dc:format>image/svg+xml</dc:format>
        <dc:type
           rdf:resource="http://purl.org/dc/dcmitype/StillImage" />
        <dc:title></dc:title>
      </cc:Work>
    </rdf:RDF>
  </metadata>
  <g
     inkscape:label="Ebene 1"
     inkscape:groupmode="layer"
     id="layer1"
     transform="translate(-75.654839,-6.2888055)">
    <path
       style="fill:#000000;stroke-width:0.264582"
       d="m 78.30504,18.76391 c -0.135696,-1.877822 -0.194308,-2.663515 -0.240646,-3.225771 l -0.05325,-0.646083 -0.91636,-1.391209 c -0.504,-0.765164 -1.031376,-1.565422 -1.171946,-1.778351 -0.140572,-0.212929 -0.234538,-0.405742 -0.208812,-0.428474 0.02573,-0.02273 0.546836,-0.201163 1.158024,-0.396515 0.611188,-0.195352 1.489528,-0.478789 1.951866,-0.62986 l 0.840616,-0.2746751 0.932092,-1.249131 c 0.512652,-0.687023 1.080334,-1.454976 1.261518,-1.706563 0.222062,-0.308348 0.363402,-0.457431 0.433672,-0.457431 0.07273,0 0.251848,0.203949 0.592536,0.674688 0.760848,1.051287 1.818768,2.459073 1.965884,2.616025 0.10672,0.113855 0.447922,0.2436941 1.713163,0.6519201 2.374998,0.766285 2.268412,0.726405 2.263802,0.847021 -0.0022,0.05783 -0.23032,0.450419 -0.506908,0.87243 -0.980306,1.49572 -1.672034,2.568092 -1.736078,2.691404 -0.03569,0.06872 -0.08622,0.425909 -0.112276,0.79375 -0.02606,0.367843 -0.07146,0.954554 -0.100894,1.303804 -0.02943,0.34925 -0.06664,0.908844 -0.08269,1.243542 -0.01606,0.334698 -0.04091,0.685932 -0.05524,0.780521 l -0.02606,0.171979 H 82.272776 78.3385 Z m 7.702144,-0.436563 c 0.0184,-0.334697 0.08556,-1.251479 0.149233,-2.037291 l 0.11577,-1.42875 0.488364,-0.740834 c 0.2686,-0.407458 0.59435,-0.906702 0.723892,-1.10943 0.12954,-0.202729 0.407492,-0.62877 0.61767,-0.946758 0.210178,-0.317988 0.370868,-0.596402 0.357088,-0.618699 -0.01378,-0.0223 -0.340526,-0.140883 -0.726102,-0.263525 C 87.347525,11.059418 86.674867,10.844728 86.238305,10.704972 85.801742,10.565215 85.385022,10.434413 85.312262,10.4143 84.93516,10.310061 84.693796,10.157287 84.494044,9.8964019 84.041392,9.3052159 83.34356,8.3655289 82.853852,7.6877509 82.5713,7.2966849 82.321292,6.9697859 82.29828,6.9613079 c -0.02301,-0.0085 -0.300828,0.345498 -0.617368,0.786614 -1.08485,1.511802 -1.660744,2.2690891 -1.852976,2.4366251 -0.100116,0.08725 -0.219676,0.128594 -1.897548,0.656132 -1.298262,0.408185 -1.73861,0.557014 -1.788744,0.604561 -0.02337,0.02216 0.44376,0.777622 1.03807,1.678793 l 1.080562,1.638492 0.05837,0.605015 c 0.04989,0.517107 0.117088,1.367329 0.253822,3.21152 l 0.02847,0.384004 3.68639,-0.01359 3.686388,-0.01359 z"
       id="path5009" />
  </g>
</svg>
