<?xml version="1.0" encoding="UTF-8" standalone="no"?>
<svg
   xmlns:dc="http://purl.org/dc/elements/1.1/"
   xmlns:cc="http://creativecommons.org/ns#"
   xmlns:rdf="http://www.w3.org/1999/02/22-rdf-syntax-ns#"
   xmlns:svg="http://www.w3.org/2000/svg"
   xmlns="http://www.w3.org/2000/svg"
   xmlns:sodipodi="http://sodipodi.sourceforge.net/DTD/sodipodi-0.dtd"
   xmlns:inkscape="http://www.inkscape.org/namespaces/inkscape"
   width="13.229167mm"
   height="13.229167mm"
   viewBox="0 0 13.229167 13.229167"
   version="1.1"
   id="svg8"
   sodipodi:docname="VCS_resized_3.svg"
   inkscape:version="1.0.2-2 (e86c870879, 2021-01-15)">
  <defs
     id="defs2" />
  <sodipodi:namedview
     id="base"
     pagecolor="#ffffff"
     bordercolor="#666666"
     borderopacity="1.0"
     inkscape:pageopacity="0.0"
     inkscape:pageshadow="2"
     inkscape:zoom="2.8284271"
     inkscape:cx="13.937452"
     inkscape:cy="82.084749"
     inkscape:document-units="mm"
     inkscape:current-layer="layer1"
     inkscape:document-rotation="0"
     showgrid="false"
     inkscape:window-width="958"
     inkscape:window-height="1008"
     inkscape:window-x="1913"
     inkscape:window-y="0"
     inkscape:window-maximized="0" />
  <metadata
     id="metadata5">
    <rdf:RDF>
      <cc:Work
         rdf:about="">
        <dc:format>image/svg+xml</dc:format>
        <dc:type
           rdf:resource="http://purl.org/dc/dcmitype/StillImage" />
        <dc:title></dc:title>
      </cc:Work>
    </rdf:RDF>
  </metadata>
  <g
     inkscape:label="Ebene 1"
     inkscape:groupmode="layer"
     id="layer1"
     transform="translate(-34.512371,-4.8733554)">
    <path
       style="fill:#000000;stroke-width:0.264582"
       d="m 39.570185,17.015019 c -0.238998,-0.365388 -0.391824,-1.031181 -0.374956,-1.633531 0.006,-0.214792 0.02979,-0.759624 0.05284,-1.210739 0.05541,-1.084758 -0.01058,-1.516733 -0.26599,-1.740983 -0.22624,-0.198643 -0.72302,-0.487613 -1.544258,-0.898278 -1.030922,-0.515518 -1.708784,-0.958077 -1.966164,-1.283658 -0.190526,-0.241012 -0.107028,-0.3630223 0.34893,-0.5098735 0.549798,-0.1770746 1.017398,-0.2201064 2.449204,-0.2253948 1.545152,-0.00571 1.738108,-0.0298 1.927128,-0.2406276 0.16376,-0.1826518 0.4391,-0.6408784 0.824294,-1.3718099 0.153376,-0.2910416 0.385456,-0.6910512 0.515734,-0.8889098 0.295184,-0.448306 1.044242,-1.2086328 1.150538,-1.1678436 0.08985,0.034478 0.266203,0.4842154 0.376693,0.960635 0.06094,0.2627764 0.07494,0.6399874 0.06293,1.6959869 -0.0085,0.7469262 0.0037,1.469797 0.02704,1.6063783 0.04077,0.238382 0.05985,0.259816 0.47625,0.535011 0.238576,0.157674 0.69571,0.42372 1.015856,0.591212 1.079916,0.564986 1.575824,0.898849 2.029114,1.366067 0.274014,0.282434 0.270978,0.38749 -0.01586,0.548381 -0.352454,0.197704 -0.804212,0.246644 -2.357222,0.255362 -1.497675,0.0084 -1.882205,0.05065 -2.084165,0.228947 -0.166044,0.146591 -0.528586,0.735456 -0.9366,1.521285 -0.21072,0.405847 -0.441382,0.833154 -0.51258,0.949571 -0.179284,0.293148 -0.91542,1.031876 -1.028258,1.031876 -0.05094,0 -0.12767,-0.05358 -0.170504,-0.119064 z m 0.57475,-0.536585 c 0.277694,-0.284433 0.546822,-0.714577 0.980332,-1.566852 0.27166,-0.53408 0.717318,-1.231656 0.932644,-1.459835 0.137772,-0.145997 0.205216,-0.169921 0.634006,-0.224895 0.263909,-0.03384 1.037815,-0.0621 1.719791,-0.06281 0.681978,-7e-4 1.347116,-0.02487 1.478084,-0.05368 0.268198,-0.059 0.635,-0.208541 0.635,-0.258877 0,-0.07574 -0.393654,-0.429756 -0.752892,-0.677088 -0.21165,-0.145719 -0.694378,-0.426363 -1.072732,-0.623652 -0.550392,-0.286997 -1.446356,-0.836762 -1.681596,-1.03183 -0.02265,-0.01878 -0.07777,-0.329941 -0.122494,-0.6914671 -0.06804,-0.5499662 -0.0713,-0.7811056 -0.01998,-1.4152404 0.03373,-0.4168551 0.04498,-0.9169177 0.025,-1.1112499 -0.0378,-0.3676056 -0.233891,-0.9692482 -0.325907,-0.9999198 -0.09508,-0.031695 -0.536778,0.4048012 -0.77701,0.7678702 -0.12918,0.1952328 -0.418426,0.7002504 -0.642768,1.1222607 -0.544224,1.0237376 -0.84518,1.4377592 -1.086672,1.4949138 -0.101194,0.023951 -0.91027,0.056598 -1.797948,0.07255 -1.394498,0.025061 -1.670312,0.043733 -2.028396,0.1373204 -0.582652,0.1522781 -0.58516,0.1967351 -0.03625,0.6423331 0.181806,0.147588 0.589168,0.381842 1.323814,0.761263 0.92924,0.479921 1.468352,0.803655 1.697134,1.01912 0.183396,0.17272 0.19971,0.213752 0.241936,0.608541 0.0249,0.232834 0.03482,0.732896 0.02205,1.11125 -0.04536,1.343254 -0.02599,1.939199 0.07395,2.275417 0.09824,0.330501 0.164918,0.449791 0.251412,0.449791 0.02806,0 0.176336,-0.128354 0.329498,-0.285231 z"
       id="path40" />
  </g>
</svg>
