<?xml version="1.0" encoding="UTF-8" standalone="no"?>
<svg
   xmlns:dc="http://purl.org/dc/elements/1.1/"
   xmlns:cc="http://creativecommons.org/ns#"
   xmlns:rdf="http://www.w3.org/1999/02/22-rdf-syntax-ns#"
   xmlns:svg="http://www.w3.org/2000/svg"
   xmlns="http://www.w3.org/2000/svg"
   xmlns:sodipodi="http://sodipodi.sourceforge.net/DTD/sodipodi-0.dtd"
   xmlns:inkscape="http://www.inkscape.org/namespaces/inkscape"
   width="13.229167mm"
   height="13.229167mm"
   viewBox="0 0 13.229167 13.229167"
   version="1.1"
   id="svg8"
   sodipodi:docname="VCS_resized_63.svg"
   inkscape:version="1.0.2-2 (e86c870879, 2021-01-15)">
  <defs
     id="defs2" />
  <sodipodi:namedview
     id="base"
     pagecolor="#ffffff"
     bordercolor="#666666"
     borderopacity="1.0"
     inkscape:pageopacity="0.0"
     inkscape:pageshadow="2"
     inkscape:zoom="2.8284271"
     inkscape:cx="11.27532"
     inkscape:cy="83.228467"
     inkscape:document-units="mm"
     inkscape:current-layer="layer1"
     inkscape:document-rotation="0"
     showgrid="false"
     inkscape:window-width="958"
     inkscape:window-height="1008"
     inkscape:window-x="1913"
     inkscape:window-y="0"
     inkscape:window-maximized="0" />
  <metadata
     id="metadata5">
    <rdf:RDF>
      <cc:Work
         rdf:about="">
        <dc:format>image/svg+xml</dc:format>
        <dc:type
           rdf:resource="http://purl.org/dc/dcmitype/StillImage" />
        <dc:title></dc:title>
      </cc:Work>
    </rdf:RDF>
  </metadata>
  <g
     inkscape:label="Ebene 1"
     inkscape:groupmode="layer"
     id="layer1"
     transform="translate(-35.216724,-4.5707464)">
    <path
       style="fill:#000000;stroke-width:0.264582"
       d="m 38.384354,16.197394 c -0.636338,-0.171244 -1.052842,-0.5556 -1.202934,-1.110079 -0.167208,-0.617715 0.02289,-1.019616 0.925128,-1.955899 0.691348,-0.717435 0.89592,-1.054148 0.940738,-1.548409 0.05824,-0.642245 -0.194386,-1.125849 -1.094582,-2.0954063 -0.877682,-0.9453049 -1.072038,-1.3045449 -1.077558,-1.9917119 -0.0088,-1.0976215 0.870322,-1.6202985 1.885074,-1.1207373 0.26131,0.1286428 0.506454,0.3351296 1.111524,0.9362455 0.641792,0.6375988 0.838328,0.8005958 1.13446,0.9408684 0.302078,0.1430888 0.417016,0.1691836 0.733768,0.1665896 0.64927,-0.00532 1.00359,-0.2503672 1.91621,-1.3252656 0.347418,-0.4091927 0.581564,-0.6095415 0.98904,-0.8462753 0.229424,-0.133291 0.318472,-0.153717 0.670128,-0.153717 0.364338,0 0.42886,0.01613 0.635,0.15875 0.491574,0.3401002 0.71459,1.2193859 0.478712,1.8874239 -0.130944,0.3708494 -0.321066,0.6501838 -0.868596,1.2761657 -0.798094,0.9124453 -1.071572,1.5191123 -0.946886,2.1005053 0.103006,0.4803 0.25362,0.68818 1.093476,1.509239 0.917362,0.896827 1.080082,1.147861 1.080478,1.666875 4e-4,0.569164 -0.153988,0.85641 -0.621094,1.155315 -0.53848,0.344579 -1.109802,0.341314 -2.338016,-0.01336 -0.336574,-0.09719 -0.87171,-0.218842 -1.189192,-0.270332 -0.744918,-0.120812 -1.102014,-0.06989 -2.224682,0.317255 -0.735174,0.253519 -1.370706,0.405419 -1.653216,0.395138 -0.05263,-0.0019 -0.222274,-0.03755 -0.37698,-0.07918 z m 1.657116,-0.49538 c 1.009952,-0.365382 1.33814,-0.44036 1.957918,-0.447308 0.63166,-0.0071 0.81014,0.02448 2.010832,0.355595 0.952332,0.262624 1.37178,0.283527 1.812782,0.09034 0.675134,-0.295748 0.879794,-0.948283 0.493608,-1.573801 -0.08642,-0.139971 -0.474618,-0.566191 -0.862672,-0.947155 -0.974786,-0.956975 -1.217708,-1.427549 -1.104304,-2.139192 0.0872,-0.547187 0.39632,-1.0989123 1.007592,-1.7983553 0.310646,-0.3554517 0.603296,-0.7512667 0.703664,-0.9517161 0.153856,-0.3072782 0.171832,-0.3907176 0.171832,-0.7976838 0,-0.4071834 -0.01514,-0.477383 -0.145422,-0.674186 C 45.871686,6.4928415 45.716018,6.4113501 45.309184,6.4112135 44.73548,6.4110229 44.612468,6.5027669 43.269388,7.9325462 42.628478,8.6148292 42.071044,8.847308 41.40265,8.711073 40.859664,8.6003988 40.54574,8.3853456 39.70725,7.5496406 38.807096,6.6524787 38.601394,6.5248371 38.047936,6.5200101 c -0.409212,-0.00357 -0.57592,0.088099 -0.773328,0.4252289 -0.102226,0.1745808 -0.118648,0.2683484 -0.105704,0.6035666 0.02173,0.562764 0.17407,0.8389852 0.919938,1.6680291 0.70435,0.782896 0.914372,1.0772073 1.106454,1.5505083 0.230412,0.567749 0.168566,1.183432 -0.17327,1.724935 -0.07463,0.118226 -0.364658,0.453293 -0.644504,0.744595 -0.54747,0.569887 -0.796984,0.900788 -0.894116,1.185767 -0.134356,0.394183 -0.03298,0.793152 0.27755,1.092282 0.563068,0.542401 1.16248,0.591577 2.280514,0.187092 z"
       id="path1034" />
  </g>
</svg>
