<?xml version="1.0" encoding="UTF-8" standalone="no"?>
<svg
   xmlns:dc="http://purl.org/dc/elements/1.1/"
   xmlns:cc="http://creativecommons.org/ns#"
   xmlns:rdf="http://www.w3.org/1999/02/22-rdf-syntax-ns#"
   xmlns:svg="http://www.w3.org/2000/svg"
   xmlns="http://www.w3.org/2000/svg"
   xmlns:sodipodi="http://sodipodi.sourceforge.net/DTD/sodipodi-0.dtd"
   xmlns:inkscape="http://www.inkscape.org/namespaces/inkscape"
   width="13.229167mm"
   height="13.229167mm"
   viewBox="0 0 13.229169 13.229168"
   version="1.1"
   id="svg8"
   sodipodi:docname="VCS_resized_284.svg"
   inkscape:version="1.0.2-2 (e86c870879, 2021-01-15)">
  <defs
     id="defs2" />
  <sodipodi:namedview
     id="base"
     pagecolor="#ffffff"
     bordercolor="#666666"
     borderopacity="1.0"
     inkscape:pageopacity="0.0"
     inkscape:pageshadow="2"
     inkscape:zoom="4"
     inkscape:cx="30.304325"
     inkscape:cy="37.906037"
     inkscape:document-units="mm"
     inkscape:current-layer="layer1"
     inkscape:document-rotation="0"
     showgrid="false"
     inkscape:window-width="958"
     inkscape:window-height="1008"
     inkscape:window-x="1913"
     inkscape:window-y="0"
     inkscape:window-maximized="0" />
  <metadata
     id="metadata5">
    <rdf:RDF>
      <cc:Work
         rdf:about="">
        <dc:format>image/svg+xml</dc:format>
        <dc:type
           rdf:resource="http://purl.org/dc/dcmitype/StillImage" />
        <dc:title></dc:title>
      </cc:Work>
    </rdf:RDF>
  </metadata>
  <g
     inkscape:label="Ebene 1"
     inkscape:groupmode="layer"
     id="layer1"
     transform="translate(-79.085777,13.14608)">
    <path
       style="fill:#000000;stroke-width:0.264582"
       d="m 82.620602,-0.47135395 c -0.02727,-0.071716 -0.07451,-0.58963775 -0.104974,-1.15093755 -0.06473,-1.192412 -0.150158,-2.4021858 -0.193512,-2.7403366 -0.02943,-0.2295562 -0.08788,-0.2956852 -1.624376,-1.8376937 -0.994454,-0.9980236 -1.574506,-1.6175862 -1.542416,-1.6474794 0.02829,-0.026351 0.52768,-0.1480846 1.109764,-0.2705197 1.301422,-0.2737394 2.930462,-0.6300776 3.057922,-0.6688936 0.110814,-0.033747 0.23534,-0.2244762 0.617932,-0.9464552 0.15423,-0.2910423 0.321704,-0.6006043 0.372164,-0.6879173 0.05046,-0.08731 0.174958,-0.313531 0.276662,-0.502708 0.606032,-1.12728 0.907304,-1.674717 0.95373,-1.733021 0.02897,-0.03638 0.103336,-0.0655 0.165256,-0.0647 0.09214,0.0012 0.232724,0.224301 0.774042,1.228429 1.164188,2.1595277 1.381208,2.5523503 1.445328,2.6161541 0.05866,0.058369 1.226412,0.3385846 3.254318,0.7809092 0.785966,0.1714343 1.107526,0.2693433 1.059574,0.3226187 -0.0098,0.010852 -0.72023,0.7368012 -1.578804,1.6132182 -1.335018,1.3627649 -1.566,1.6217035 -1.595288,1.7883757 -0.01884,0.1071896 -0.07293,0.742578 -0.12021,1.4119738 -0.14957,2.11768535 -0.182856,2.51289395 -0.216172,2.56680275 -0.0209,0.033823 -1.107544,0.052572 -3.046928,0.052572 h -3.014438 z m 5.877864,-0.14742 c 0.0027,-0.00728 0.07206,-0.92382175 0.154218,-2.03676835 l 0.149378,-2.0235386 1.446514,-1.4572905 c 0.795582,-0.8015098 1.446512,-1.4851804 1.446512,-1.5192682 0,-0.038398 -0.74394,-0.2273786 -1.955388,-0.4967203 -1.320662,-0.2936236 -1.97508,-0.4616736 -2.016054,-0.5177086 -0.03337,-0.045632 -0.212284,-0.3631408 -0.397594,-0.7055756 -1.124758,-2.0784369 -1.582322,-2.8974369 -1.6271,-2.9123619 -0.04431,-0.01477 -0.455032,0.712366 -1.721874,3.0483895 -0.178928,0.329938 -0.36419,0.620977 -0.411692,0.6467534 -0.07766,0.042139 -2.755026,0.6362023 -3.5794,0.7942077 -0.18261,0.035001 -0.342672,0.080876 -0.355694,0.1019466 -0.01302,0.02107 0.326886,0.3830284 0.755352,0.8043514 0.428464,0.421323 1.094678,1.0873862 1.480474,1.4801406 l 0.701446,0.7140987 0.07773,0.9747238 c 0.04275,0.5360988 0.103242,1.43716 0.134422,2.0023588 0.03118,0.5651986 0.06891,1.04740175 0.08384,1.07156235 0.02313,0.037432 5.621294,0.067931 5.634906,0.030699 z"
       id="path5459" />
  </g>
</svg>
