<?xml version="1.0" encoding="UTF-8" standalone="no"?>
<svg
   xmlns:dc="http://purl.org/dc/elements/1.1/"
   xmlns:cc="http://creativecommons.org/ns#"
   xmlns:rdf="http://www.w3.org/1999/02/22-rdf-syntax-ns#"
   xmlns:svg="http://www.w3.org/2000/svg"
   xmlns="http://www.w3.org/2000/svg"
   xmlns:sodipodi="http://sodipodi.sourceforge.net/DTD/sodipodi-0.dtd"
   xmlns:inkscape="http://www.inkscape.org/namespaces/inkscape"
   width="13.229167mm"
   height="13.229167mm"
   viewBox="0 0 13.229167 13.229167"
   version="1.1"
   id="svg8"
   sodipodi:docname="VCS_resized_84.svg"
   inkscape:version="1.0.2-2 (e86c870879, 2021-01-15)">
  <defs
     id="defs2" />
  <sodipodi:namedview
     id="base"
     pagecolor="#ffffff"
     bordercolor="#666666"
     borderopacity="1.0"
     inkscape:pageopacity="0.0"
     inkscape:pageshadow="2"
     inkscape:zoom="2.8284271"
     inkscape:cx="11.77968"
     inkscape:cy="13.764174"
     inkscape:document-units="mm"
     inkscape:current-layer="layer1"
     inkscape:document-rotation="0"
     showgrid="false"
     inkscape:window-width="958"
     inkscape:window-height="1008"
     inkscape:window-x="1913"
     inkscape:window-y="0"
     inkscape:window-maximized="0" />
  <metadata
     id="metadata5">
    <rdf:RDF>
      <cc:Work
         rdf:about="">
        <dc:format>image/svg+xml</dc:format>
        <dc:type
           rdf:resource="http://purl.org/dc/dcmitype/StillImage" />
        <dc:title></dc:title>
      </cc:Work>
    </rdf:RDF>
  </metadata>
  <g
     inkscape:label="Ebene 1"
     inkscape:groupmode="layer"
     id="layer1"
     transform="translate(-35.083279,-22.949842)">
    <path
       style="fill:#000000;stroke-width:0.264582"
       d="m 39.609176,35.030553 c -1.140006,-0.04478 -1.616884,-0.212938 -2.212986,-0.780341 -0.44463,-0.423224 -0.617238,-0.743662 -0.616398,-1.144317 10e-4,-0.522502 0.250616,-0.923452 1.053796,-1.693333 0.515718,-0.494335 0.879504,-1.016114 0.960368,-1.377456 0.123468,-0.551708 -0.120582,-1.236352 -0.67681,-1.89869 -1.08282,-1.289386 -1.32585,-1.707132 -1.375564,-2.364454 -0.04908,-0.648972 0.14325,-1.143631 0.58193,-1.496677 0.172542,-0.13886 0.254594,-0.165105 0.572304,-0.183058 0.335534,-0.01896 0.403126,-0.0046 0.709168,0.150748 0.346776,0.176015 0.77667,0.575152 1.281698,1.190003 0.843358,1.026753 1.551754,1.332849 2.373266,1.025483 0.370364,-0.138571 0.58801,-0.332557 1.222868,-1.089931 0.718406,-0.857044 1.133784,-1.189981 1.587542,-1.272454 0.570892,-0.103763 1.036746,0.1544 1.303964,0.722617 0.148836,0.316487 0.16422,0.39745 0.161958,0.85241 -0.0038,0.763604 -0.186918,1.146601 -1.002916,2.097604 -0.553468,0.645038 -0.778744,0.997424 -0.92153,1.441492 -0.14762,0.459099 -0.125092,0.724417 0.102882,1.211586 0.128908,0.275469 0.286284,0.460492 0.890894,1.047403 0.973246,0.944755 1.179526,1.358077 0.994842,1.993365 -0.145242,0.499617 -0.556788,0.866166 -1.307282,1.164352 -0.783722,0.311388 -1.0983,0.351075 -3.091078,0.389967 -0.756708,0.01477 -1.459176,0.03137 -1.561042,0.0369 -0.101864,0.0055 -0.566208,-0.0049 -1.031874,-0.02322 z m 3.889374,-0.340515 c 0.762458,-0.04317 1.71255,-0.292583 2.197786,-0.57695 0.633372,-0.371182 0.822534,-1.011507 0.465766,-1.576663 -0.0764,-0.121022 -0.448614,-0.54153 -0.827146,-0.934462 -0.838494,-0.870391 -1.004588,-1.164426 -1.03362,-1.829818 -0.0312,-0.715053 0.186944,-1.16679 1.123396,-2.326375 0.281178,-0.348174 0.571812,-0.756869 0.645858,-0.908213 0.316828,-0.647569 0.28539,-1.378198 -0.07656,-1.77932 -0.586798,-0.650309 -1.343798,-0.390466 -2.253856,0.773643 -0.949038,1.21397 -1.613434,1.545508 -2.59642,1.29563 -0.45372,-0.115337 -0.693582,-0.32423 -1.895018,-1.650351 -0.633262,-0.698984 -1.18748,-0.919883 -1.678904,-0.669177 -0.416014,0.212234 -0.634446,0.758015 -0.533746,1.333633 0.08361,0.47792 0.317602,0.897342 0.904534,1.621332 0.609528,0.751866 0.805392,1.046695 0.97529,1.468073 0.170488,0.422843 0.215726,0.805433 0.135532,1.146223 -0.12931,0.549507 -0.287004,0.777547 -1.15426,1.669162 -0.60316,0.620102 -0.801552,0.953134 -0.801552,1.34553 0,0.725157 0.8345,1.441179 1.86972,1.604267 0.427384,0.06733 3.304278,0.06342 4.533196,-0.0062 z"
       id="path1386" />
  </g>
</svg>
