<?xml version="1.0" encoding="UTF-8" standalone="no"?>
<svg
   xmlns:dc="http://purl.org/dc/elements/1.1/"
   xmlns:cc="http://creativecommons.org/ns#"
   xmlns:rdf="http://www.w3.org/1999/02/22-rdf-syntax-ns#"
   xmlns:svg="http://www.w3.org/2000/svg"
   xmlns="http://www.w3.org/2000/svg"
   xmlns:sodipodi="http://sodipodi.sourceforge.net/DTD/sodipodi-0.dtd"
   xmlns:inkscape="http://www.inkscape.org/namespaces/inkscape"
   width="13.229167mm"
   height="13.229167mm"
   viewBox="0 0 13.229169 13.229168"
   version="1.1"
   id="svg8"
   sodipodi:docname="VCS_resized_212.svg"
   inkscape:version="1.0.2-2 (e86c870879, 2021-01-15)">
  <defs
     id="defs2" />
  <sodipodi:namedview
     id="base"
     pagecolor="#ffffff"
     bordercolor="#666666"
     borderopacity="1.0"
     inkscape:pageopacity="0.0"
     inkscape:pageshadow="2"
     inkscape:zoom="2.8284271"
     inkscape:cx="0.98907054"
     inkscape:cy="37.904332"
     inkscape:document-units="mm"
     inkscape:current-layer="layer1"
     inkscape:document-rotation="0"
     showgrid="false"
     inkscape:window-width="958"
     inkscape:window-height="1008"
     inkscape:window-x="1913"
     inkscape:window-y="0"
     inkscape:window-maximized="0" />
  <metadata
     id="metadata5">
    <rdf:RDF>
      <cc:Work
         rdf:about="">
        <dc:format>image/svg+xml</dc:format>
        <dc:type
           rdf:resource="http://purl.org/dc/dcmitype/StillImage" />
        <dc:title></dc:title>
      </cc:Work>
    </rdf:RDF>
  </metadata>
  <g
     inkscape:label="Ebene 1"
     inkscape:groupmode="layer"
     id="layer1"
     transform="translate(-48.30167,-20.651649)">
    <path
       style="fill:#000000;stroke-width:0.264582"
       d="m 51.087588,33.368463 c -0.04483,-0.05093 -0.14198,-0.274522 -0.215884,-0.496866 -0.07391,-0.222344 -0.1825,-0.520001 -0.241318,-0.661459 -0.268302,-0.645257 -0.690998,-1.766727 -0.768708,-2.039477 -0.115564,-0.405619 -0.224004,-0.999053 -0.322184,-1.763135 -0.126898,-0.987595 -0.17626,-1.209266 -0.426128,-1.913627 -0.295024,-0.831655 -0.464784,-1.531382 -0.39973,-1.647628 0.07581,-0.135471 1.214724,-0.815262 2.200934,-1.313689 1.136846,-0.574558 1.5555,-0.826512 2.818204,-1.696051 0.56047,-0.385958 1.063922,-0.725764 1.118784,-0.755125 0.08225,-0.04402 0.228408,0.03266 0.833046,0.437018 0.403314,0.26972 0.899986,0.611695 1.103716,0.759943 0.370646,0.269709 1.256376,0.811034 1.327036,0.811034 0.06722,0 1.619896,0.85455 2.285594,1.257926 0.357114,0.216391 0.674528,0.440583 0.705366,0.498205 0.07212,0.13475 0.0073,0.414182 -0.331682,1.430071 -0.179978,0.539364 -0.283756,0.961977 -0.337852,1.375833 -0.217738,1.665754 -0.392604,2.425889 -0.78861,3.428067 -0.235412,0.595762 -0.623442,1.602943 -0.741872,1.925624 -0.183608,0.500269 0.206726,0.45594 -4.014778,0.45594 -3.478838,0 -3.727758,-0.0061 -3.803934,-0.0926 z m 7.460822,-0.238125 c 0.02929,-0.03638 0.114026,-0.232833 0.188296,-0.436562 0.07427,-0.20373 0.247884,-0.656167 0.385806,-1.005417 0.620852,-1.572143 0.780338,-2.18823 0.999682,-3.861703 0.06852,-0.522781 0.158948,-0.895415 0.378818,-1.561042 0.158846,-0.480886 0.302302,-0.984788 0.318792,-1.119782 L 60.849784,24.900389 60.2478,24.54146 c -0.33109,-0.197411 -1.097592,-0.615894 -1.703338,-0.929961 -1.012558,-0.52499 -1.496336,-0.825273 -2.973228,-1.845495 -0.291042,-0.201048 -0.566124,-0.366531 -0.611294,-0.36774 -0.04517,-0.0012 -0.259484,0.118477 -0.47625,0.265967 -1.236574,0.841377 -1.471374,0.998205 -1.84056,1.22935 -0.223104,0.139685 -0.875272,0.490697 -1.449258,0.780026 -0.573986,0.28933 -1.308956,0.683561 -1.633266,0.876068 l -0.589656,0.350013 0.03468,0.272252 c 0.01908,0.149739 0.162518,0.653252 0.318764,1.118919 0.32072,0.955848 0.388634,1.218019 0.452288,1.745965 0.08848,0.733821 0.26569,1.78642 0.350358,2.081028 0.0475,0.165279 0.282992,0.800569 0.523314,1.411757 0.240324,0.611187 0.47739,1.236266 0.526816,1.389062 l 0.08986,0.277813 h 3.614058 c 2.827566,0 3.62565,-0.0144 3.667318,-0.06615 z"
       id="path4291" />
  </g>
</svg>
