<?xml version="1.0" encoding="UTF-8" standalone="no"?>
<svg
   xmlns:dc="http://purl.org/dc/elements/1.1/"
   xmlns:cc="http://creativecommons.org/ns#"
   xmlns:rdf="http://www.w3.org/1999/02/22-rdf-syntax-ns#"
   xmlns:svg="http://www.w3.org/2000/svg"
   xmlns="http://www.w3.org/2000/svg"
   xmlns:sodipodi="http://sodipodi.sourceforge.net/DTD/sodipodi-0.dtd"
   xmlns:inkscape="http://www.inkscape.org/namespaces/inkscape"
   width="13.229167mm"
   height="13.229167mm"
   viewBox="0 0 13.229167 13.229167"
   version="1.1"
   id="svg8"
   sodipodi:docname="VCS_resized_88.svg"
   inkscape:version="1.0.2-2 (e86c870879, 2021-01-15)">
  <defs
     id="defs2" />
  <sodipodi:namedview
     id="base"
     pagecolor="#ffffff"
     bordercolor="#666666"
     borderopacity="1.0"
     inkscape:pageopacity="0.0"
     inkscape:pageshadow="2"
     inkscape:zoom="2.8284271"
     inkscape:cx="-5.8272384"
     inkscape:cy="31.253946"
     inkscape:document-units="mm"
     inkscape:current-layer="layer1"
     inkscape:document-rotation="0"
     showgrid="false"
     inkscape:window-width="958"
     inkscape:window-height="1008"
     inkscape:window-x="1913"
     inkscape:window-y="0"
     inkscape:window-maximized="0" />
  <metadata
     id="metadata5">
    <rdf:RDF>
      <cc:Work
         rdf:about="">
        <dc:format>image/svg+xml</dc:format>
        <dc:type
           rdf:resource="http://purl.org/dc/dcmitype/StillImage" />
        <dc:title></dc:title>
      </cc:Work>
    </rdf:RDF>
  </metadata>
  <g
     inkscape:label="Ebene 1"
     inkscape:groupmode="layer"
     id="layer1"
     transform="translate(-39.741776,-18.32234)">
    <path
       style="fill:#000000;stroke-width:0.264582"
       d="m 44.964718,30.550241 c -0.01192,-0.0112 -0.263426,-0.03523 -0.558882,-0.05339 -1.068092,-0.06567 -1.835162,-0.364305 -2.39968,-0.934246 -0.451734,-0.456071 -0.61001,-0.768176 -0.603906,-1.190832 0.0067,-0.463656 0.19156,-0.765759 0.95176,-1.555373 0.92414,-0.959897 1.10128,-1.260028 1.094292,-1.854064 -0.0065,-0.554166 -0.317222,-1.122989 -1.14032,-2.087653 -0.689272,-0.807824 -0.910798,-1.304742 -0.90944,-2.040025 8e-4,-0.472325 0.01206,-0.523413 0.185208,-0.845284 0.24187,-0.449633 0.499624,-0.634227 0.94155,-0.674299 0.59279,-0.05375 1.036146,0.23379 1.883578,1.221608 0.695996,0.811292 0.85295,0.954754 1.2384,1.131941 0.401176,0.184415 0.807672,0.209469 1.192586,0.0735 0.41077,-0.145098 0.67446,-0.370744 1.29726,-1.110093 0.864988,-1.026859 1.189446,-1.27087 1.744798,-1.312183 0.320614,-0.02385 0.377128,-0.01193 0.619904,0.13071 0.470528,0.276459 0.709914,0.779582 0.711202,1.49475 0.0012,0.654845 -0.240774,1.184713 -0.901136,1.97345 -0.574718,0.686444 -0.760614,0.95507 -0.950034,1.372828 -0.400472,0.88322 -0.179808,1.452007 0.990908,2.554194 0.710772,0.669166 0.904632,0.973694 0.951936,1.495359 0.02346,0.258691 0.007,0.360735 -0.0906,0.562384 -0.22127,0.45708 -0.516634,0.707792 -1.296908,1.100846 -0.54711,0.275602 -0.793502,0.343597 -1.571556,0.433693 -0.63175,0.07315 -3.327228,0.162589 -3.380922,0.112176 z m 3.126854,-0.377117 c 0.734554,-0.09638 1.131518,-0.193417 1.557536,-0.380738 0.955166,-0.41999 1.389504,-0.895379 1.341952,-1.468787 -0.02939,-0.354464 -0.181616,-0.571979 -1.020074,-1.457611 -0.862922,-0.911474 -1.007444,-1.183111 -1.003718,-1.886548 0.0024,-0.461019 0.01362,-0.50758 0.222486,-0.926041 0.234234,-0.469301 0.409988,-0.723903 0.978084,-1.416883 0.685156,-0.835772 0.909552,-1.545042 0.708076,-2.238092 -0.06784,-0.23337 -0.139192,-0.342803 -0.337176,-0.517145 -0.249146,-0.219394 -0.253916,-0.220979 -0.605642,-0.201154 -0.310232,0.01749 -0.392488,0.04623 -0.658494,0.230071 -0.167188,0.115548 -0.454704,0.388681 -0.638926,0.606962 -0.747672,0.885909 -1.118006,1.250872 -1.454066,1.43298 -0.317054,0.17181 -0.359794,0.180708 -0.862746,0.179603 -0.475926,-10e-4 -0.557826,-0.01612 -0.814006,-0.149866 -0.3692,-0.192746 -0.700684,-0.505336 -1.307898,-1.233347 -0.27104,-0.324961 -0.57192,-0.651185 -0.66862,-0.724942 -0.570706,-0.435298 -1.202058,-0.467079 -1.555682,-0.07831 -0.22872,0.251451 -0.302052,0.474141 -0.30259,0.918891 -4e-4,0.380507 0.01936,0.465307 0.1916,0.820208 0.106636,0.219714 0.441262,0.713666 0.752098,1.1102 0.921478,1.175527 1.232952,1.94401 1.058848,2.612438 -0.14145,0.543061 -0.331656,0.820999 -1.060794,1.550086 -0.538884,0.538846 -0.852066,0.998229 -0.900436,1.320777 -0.07688,0.512671 0.464362,1.222557 1.194354,1.566499 0.73539,0.346485 1.08454,0.390397 3.201458,0.402639 0.964296,0.0056 1.55786,-0.01593 1.984376,-0.07189 z"
       id="path1450" />
  </g>
</svg>
