<?xml version="1.0" encoding="UTF-8" standalone="no"?>
<svg
   xmlns:dc="http://purl.org/dc/elements/1.1/"
   xmlns:cc="http://creativecommons.org/ns#"
   xmlns:rdf="http://www.w3.org/1999/02/22-rdf-syntax-ns#"
   xmlns:svg="http://www.w3.org/2000/svg"
   xmlns="http://www.w3.org/2000/svg"
   xmlns:sodipodi="http://sodipodi.sourceforge.net/DTD/sodipodi-0.dtd"
   xmlns:inkscape="http://www.inkscape.org/namespaces/inkscape"
   width="13.229167mm"
   height="13.229167mm"
   viewBox="0 0 13.229169 13.229168"
   version="1.1"
   id="svg8"
   sodipodi:docname="VCS_resized_226.svg"
   inkscape:version="1.0.2-2 (e86c870879, 2021-01-15)">
  <defs
     id="defs2" />
  <sodipodi:namedview
     id="base"
     pagecolor="#ffffff"
     bordercolor="#666666"
     borderopacity="1.0"
     inkscape:pageopacity="0.0"
     inkscape:pageshadow="2"
     inkscape:zoom="2.8284271"
     inkscape:cx="-3.1406947"
     inkscape:cy="46.053991"
     inkscape:document-units="mm"
     inkscape:current-layer="layer1"
     inkscape:document-rotation="0"
     showgrid="false"
     inkscape:window-width="958"
     inkscape:window-height="1008"
     inkscape:window-x="1913"
     inkscape:window-y="0"
     inkscape:window-maximized="0" />
  <metadata
     id="metadata5">
    <rdf:RDF>
      <cc:Work
         rdf:about="">
        <dc:format>image/svg+xml</dc:format>
        <dc:type
           rdf:resource="http://purl.org/dc/dcmitype/StillImage" />
        <dc:title></dc:title>
      </cc:Work>
    </rdf:RDF>
  </metadata>
  <g
     inkscape:label="Ebene 1"
     inkscape:groupmode="layer"
     id="layer1"
     transform="translate(-49.394337,-18.495384)">
    <path
       style="fill:#000000;stroke-width:0.264582"
       d="m 52.046751,31.313979 c -0.03729,-0.02366 -0.184896,-0.493596 -0.328006,-1.044294 -0.143108,-0.550697 -0.332746,-1.235991 -0.421414,-1.522875 -0.08867,-0.286884 -0.20953,-0.763134 -0.268578,-1.058333 -0.09552,-0.477528 -0.193028,-0.821658 -0.594388,-2.097768 -0.0595,-0.189177 -0.202142,-0.55827 -0.316984,-0.820208 -0.114842,-0.261937 -0.290066,-0.713559 -0.389386,-1.003604 -0.171936,-0.502098 -0.176132,-0.531647 -0.08764,-0.61701 0.05112,-0.04931 0.804508,-0.452623 1.674192,-0.896248 1.793544,-0.914883 1.974068,-1.039769 3.551672,-2.457023 0.523874,-0.470628 1.005542,-0.884038 1.070374,-0.918689 0.108888,-0.0582 0.189572,6.2e-4 1.058556,0.771661 1.89814,1.684208 1.82674,1.634457 3.781038,2.634548 0.893046,0.457006 1.637396,0.866559 1.65411,0.910119 0.03209,0.08361 -0.125478,0.557658 -0.396898,1.194092 -0.2428,0.569327 -0.932564,2.782991 -1.133118,3.636529 -0.05129,0.218281 -0.219266,0.83908 -0.373282,1.379551 -0.154016,0.540472 -0.320424,1.147691 -0.369796,1.349375 -0.04937,0.201685 -0.123542,0.420277 -0.164824,0.485762 l -0.07506,0.119062 -3.901384,-8e-4 c -2.145762,-4.2e-4 -3.931898,-0.02017 -3.96919,-0.04384 z m 7.804378,-0.48452 c 0.439468,-1.518972 0.812216,-2.909092 0.9152,-3.413125 0.126004,-0.616706 0.61527,-2.114862 1.042114,-3.191005 0.28362,-0.715051 0.330736,-0.876453 0.275334,-0.943206 -0.03676,-0.04429 -0.770874,-0.434674 -1.631362,-0.867513 -1.753494,-0.882031 -1.864248,-0.957914 -3.358232,-2.300877 -0.485594,-0.436507 -0.939024,-0.815249 -1.007622,-0.841648 -0.143336,-0.05516 -0.11788,-0.07406 -1.172906,0.870919 -1.46403,1.311327 -1.656788,1.442174 -3.367648,2.285994 -0.851464,0.419954 -1.577832,0.799501 -1.614148,0.843436 -0.07853,0.09501 -0.0082,0.323128 0.398852,1.29284 0.1451,0.345709 0.350698,0.902404 0.456886,1.237102 0.106188,0.334698 0.239928,0.751417 0.2972,0.926042 0.05727,0.174625 0.129208,0.460375 0.159858,0.635 0.08419,0.479689 0.198834,0.936509 0.418306,1.666875 0.109322,0.363802 0.278962,0.97713 0.37698,1.362951 l 0.178216,0.701492 3.78204,-0.01358 3.78204,-0.01358 z"
       id="path4515" />
  </g>
</svg>
