<?xml version="1.0" encoding="UTF-8" standalone="no"?>
<svg
   xmlns:dc="http://purl.org/dc/elements/1.1/"
   xmlns:cc="http://creativecommons.org/ns#"
   xmlns:rdf="http://www.w3.org/1999/02/22-rdf-syntax-ns#"
   xmlns:svg="http://www.w3.org/2000/svg"
   xmlns="http://www.w3.org/2000/svg"
   xmlns:sodipodi="http://sodipodi.sourceforge.net/DTD/sodipodi-0.dtd"
   xmlns:inkscape="http://www.inkscape.org/namespaces/inkscape"
   width="13.229167mm"
   height="13.229167mm"
   viewBox="0 0 13.229167 13.229167"
   version="1.1"
   id="svg8"
   sodipodi:docname="VCS_resized_2.svg"
   inkscape:version="1.0.2-2 (e86c870879, 2021-01-15)">
  <defs
     id="defs2" />
  <sodipodi:namedview
     id="base"
     pagecolor="#ffffff"
     bordercolor="#666666"
     borderopacity="1.0"
     inkscape:pageopacity="0.0"
     inkscape:pageshadow="2"
     inkscape:zoom="2.8284271"
     inkscape:cx="25.394693"
     inkscape:cy="67.223373"
     inkscape:document-units="mm"
     inkscape:current-layer="layer1"
     inkscape:document-rotation="0"
     showgrid="false"
     inkscape:window-width="958"
     inkscape:window-height="1008"
     inkscape:window-x="1913"
     inkscape:window-y="0"
     inkscape:window-maximized="0" />
  <metadata
     id="metadata5">
    <rdf:RDF>
      <cc:Work
         rdf:about="">
        <dc:format>image/svg+xml</dc:format>
        <dc:type
           rdf:resource="http://purl.org/dc/dcmitype/StillImage" />
        <dc:title></dc:title>
      </cc:Work>
    </rdf:RDF>
  </metadata>
  <g
     inkscape:label="Ebene 1"
     inkscape:groupmode="layer"
     id="layer1"
     transform="translate(-31.480976,-8.8054276)">
    <path
       style="fill:#000000;stroke-width:0.264582"
       d="m 36.634115,21.015945 c -0.350164,-0.399366 -0.499475,-1.295042 -0.411749,-2.469956 0.06414,-0.859024 0.0022,-1.817406 -0.130648,-2.020094 -0.127543,-0.194656 -0.503328,-0.424496 -1.581075,-0.967028 -1.45014,-0.729994 -2.203819,-1.25075 -2.203819,-1.52273 0,-0.102288 0.05042,-0.14963 0.250895,-0.235562 0.524809,-0.224958 0.834681,-0.262946 2.52723,-0.30981 0.902229,-0.02498 1.702884,-0.06968 1.779232,-0.09933 0.226014,-0.08778 0.481571,-0.456004 0.997636,-1.437464 0.267809,-0.509322 0.584537,-1.05701 0.703839,-1.217084 0.297102,-0.398636 0.886098,-1.0054165 0.97595,-1.0054165 0.09545,0 0.243868,0.3403285 0.383114,0.8784685 0.10022,0.38732 0.109736,0.555796 0.09862,1.74625 -0.01456,1.558586 0.02582,1.840198 0.288258,2.010576 0.608098,0.394786 0.811574,0.513436 1.30856,0.763044 0.696696,0.349914 1.109854,0.595554 1.481666,0.88092 0.450248,0.345564 0.805724,0.696178 0.781282,0.770594 -0.0425,0.129412 -0.365394,0.298814 -0.743906,0.390286 -0.30355,0.07336 -0.656578,0.09428 -1.73071,0.102594 -1.65662,0.01282 -2.030808,0.06348 -2.23846,0.303082 -0.267358,0.308486 -0.50839,0.708012 -0.907231,1.503782 -0.216103,0.43117 -0.448025,0.870868 -0.515382,0.977108 -0.166061,0.261922 -0.894911,1.050378 -0.97097,1.050378 -0.03363,0 -0.09767,-0.04167 -0.142332,-0.0926 z m 0.559992,-0.653854 c 0.209844,-0.231886 0.415317,-0.564346 0.727674,-1.177396 0.419321,-0.822982 0.854221,-1.54337 1.113799,-1.844944 0.177326,-0.206014 0.564366,-0.257762 2.134786,-0.285426 0.727604,-0.01282 1.46579,-0.05059 1.640416,-0.08393 0.37235,-0.0711 0.661458,-0.181628 0.661458,-0.252872 0,-0.191148 -0.895226,-0.819788 -1.84106,-1.29282 -0.556018,-0.278074 -1.633702,-0.942722 -1.712658,-1.05626 -0.08874,-0.127608 -0.153856,-1.16734 -0.139608,-2.229264 0.01486,-1.106996 0.0095,-1.181894 -0.109024,-1.525156 -0.06855,-0.198544 -0.159616,-0.37441 -0.20236,-0.390812 -0.101848,-0.03908 -0.500318,0.348654 -0.745426,0.725344 -0.104158,0.160072 -0.390028,0.672042 -0.635269,1.137708 -0.445927,0.846734 -0.868102,1.482714 -1.017511,1.53282 -0.11878,0.03983 -1.93299,0.130162 -2.77235,0.138034 -0.955812,0.009 -1.711814,0.19852 -1.578132,0.395692 0.02078,0.03064 0.133004,0.125894 0.249397,0.211666 0.116393,0.08577 0.251454,0.191708 0.300136,0.23541 0.09329,0.08374 0.123972,0.100278 1.562786,0.842212 1.02356,0.527804 1.489741,0.85126 1.569769,1.089164 0.03062,0.09103 0.05596,0.83599 0.0594,1.74625 0.0059,1.551332 0.01652,1.674972 0.192739,2.23573 0.07963,0.253398 0.207194,0.21776 0.541036,-0.151146 z"
       id="path24" />
  </g>
</svg>
