<?xml version="1.0" encoding="UTF-8" standalone="no"?>
<svg
   xmlns:dc="http://purl.org/dc/elements/1.1/"
   xmlns:cc="http://creativecommons.org/ns#"
   xmlns:rdf="http://www.w3.org/1999/02/22-rdf-syntax-ns#"
   xmlns:svg="http://www.w3.org/2000/svg"
   xmlns="http://www.w3.org/2000/svg"
   xmlns:sodipodi="http://sodipodi.sourceforge.net/DTD/sodipodi-0.dtd"
   xmlns:inkscape="http://www.inkscape.org/namespaces/inkscape"
   width="13.229167mm"
   height="13.229167mm"
   viewBox="0 0 13.229169 13.229168"
   version="1.1"
   id="svg8"
   sodipodi:docname="VCS_resized_127.svg"
   inkscape:version="1.0.2-2 (e86c870879, 2021-01-15)">
  <defs
     id="defs2" />
  <sodipodi:namedview
     id="base"
     pagecolor="#ffffff"
     bordercolor="#666666"
     borderopacity="1.0"
     inkscape:pageopacity="0.0"
     inkscape:pageshadow="2"
     inkscape:zoom="2.8284271"
     inkscape:cx="6.3068953"
     inkscape:cy="57.584577"
     inkscape:document-units="mm"
     inkscape:current-layer="layer1"
     inkscape:document-rotation="0"
     showgrid="false"
     inkscape:window-width="958"
     inkscape:window-height="1008"
     inkscape:window-x="1913"
     inkscape:window-y="0"
     inkscape:window-maximized="0" />
  <metadata
     id="metadata5">
    <rdf:RDF>
      <cc:Work
         rdf:about="">
        <dc:format>image/svg+xml</dc:format>
        <dc:type
           rdf:resource="http://purl.org/dc/dcmitype/StillImage" />
        <dc:title></dc:title>
      </cc:Work>
    </rdf:RDF>
  </metadata>
  <g
     inkscape:label="Ebene 1"
     inkscape:groupmode="layer"
     id="layer1"
     transform="translate(-36.531284,-11.355693)">
    <path
       style="fill:#000000;stroke-width:0.264582"
       d="m 41.830672,24.182711 c -0.600602,-0.119815 -1.461666,-0.335914 -1.523254,-0.382287 -0.03742,-0.02818 -0.310306,-0.363126 -0.606404,-0.744326 -0.296098,-0.3812 -0.635062,-0.802701 -0.753256,-0.936669 -0.332264,-0.376611 -0.74804,-1.018954 -0.86926,-1.342948 -0.0651,-0.173988 -0.113628,-0.440882 -0.119428,-0.656798 -0.01304,-0.485276 0.142164,-0.791586 0.699962,-1.381467 0.514636,-0.544239 0.760016,-0.931399 0.875444,-1.381273 0.1564,-0.609556 0.0068,-1.072284 -0.652478,-2.017793 -0.578878,-0.830239 -0.795066,-1.501413 -0.707708,-2.197133 0.100368,-0.799342 0.521198,-1.317762 1.151516,-1.418554 0.378414,-0.06051 0.814712,0.178161 2.157108,1.180018 0.804768,0.600616 1.191554,0.756319 1.871716,0.753473 0.439628,-0.0018 0.655454,-0.06645 1.082908,-0.324191 0.37212,-0.224374 0.980652,-0.693445 1.05503,-0.813241 0.02041,-0.03287 0.217534,-0.19796 0.438056,-0.366867 0.418466,-0.320518 0.685652,-0.446468 0.95359,-0.449516 0.230626,-0.0026 0.668686,0.218627 0.84298,0.425763 0.455966,0.541885 0.554668,1.567208 0.221084,2.296606 -0.06655,0.14552 -0.323432,0.562584 -0.570844,0.926807 -0.688904,1.014159 -0.806848,1.510327 -0.5389,2.267017 0.10763,0.303949 0.254764,0.50474 0.88604,1.209161 0.536462,0.59862 0.629344,0.808009 0.605464,1.364931 -0.02113,0.492846 -0.111024,0.70856 -0.531732,1.276041 -0.618584,0.834385 -1.62941,2.118907 -1.769994,2.249242 -0.148986,0.138123 -0.50395,0.243032 -1.49889,0.442993 -0.444912,0.08942 -2.284072,0.103736 -2.69875,0.02101 z m 3.439582,-0.449168 0.555626,-0.153452 0.991136,-1.27 c 0.545126,-0.6985 1.04519,-1.377156 1.11125,-1.508125 0.153524,-0.304363 0.167802,-0.939802 0.02697,-1.200244 -0.08417,-0.155658 -0.53167,-0.711497 -0.823002,-1.022256 -0.23814,-0.254019 -0.523898,-0.716559 -0.616806,-0.998384 -0.06956,-0.211004 -0.08765,-0.394633 -0.07039,-0.714375 0.0198,-0.366618 0.05565,-0.499284 0.242058,-0.895637 0.120352,-0.255899 0.376316,-0.691165 0.568808,-0.967257 0.466568,-0.669196 0.561194,-0.897125 0.594574,-1.432167 0.04499,-0.721056 -0.168928,-1.217111 -0.610776,-1.416356 -0.426204,-0.192191 -0.948526,0.02867 -1.703218,0.720212 -0.478284,0.438262 -1.00103,0.772897 -1.447274,0.926471 -0.333298,0.114704 -0.441772,0.127381 -0.882704,0.103164 -0.802368,-0.04407 -1.098104,-0.18174 -2.301874,-1.071565 -0.566808,-0.418983 -1.243268,-0.762856 -1.500678,-0.762856 -0.264906,0 -0.615294,0.225863 -0.776122,0.500293 -0.161692,0.275909 -0.232388,0.770859 -0.170406,1.19304 0.04578,0.311825 0.314896,0.881597 0.665666,1.40935 0.694182,1.044438 0.888586,1.758731 0.661604,2.430911 -0.11498,0.340502 -0.269264,0.581543 -0.66901,1.045201 -0.838,0.971987 -0.908374,1.103147 -0.870888,1.623137 0.03286,0.455902 0.171734,0.716006 0.833528,1.561193 0.296258,0.378354 0.685496,0.876058 0.864978,1.106009 0.545128,0.69842 0.418584,0.631794 1.807994,0.951907 0.05821,0.01341 0.748772,0.01783 1.534584,0.0098 1.391202,-0.01419 1.443352,-0.0186 1.984374,-0.168025 z"
       id="path2074" />
  </g>
</svg>
