<?xml version="1.0" encoding="UTF-8" standalone="no"?>
<svg
   xmlns:dc="http://purl.org/dc/elements/1.1/"
   xmlns:cc="http://creativecommons.org/ns#"
   xmlns:rdf="http://www.w3.org/1999/02/22-rdf-syntax-ns#"
   xmlns:svg="http://www.w3.org/2000/svg"
   xmlns="http://www.w3.org/2000/svg"
   xmlns:sodipodi="http://sodipodi.sourceforge.net/DTD/sodipodi-0.dtd"
   xmlns:inkscape="http://www.inkscape.org/namespaces/inkscape"
   width="13.229167mm"
   height="13.229167mm"
   viewBox="0 0 13.229167 13.229167"
   version="1.1"
   id="svg8"
   sodipodi:docname="VCS_resized_17.svg"
   inkscape:version="1.0.2-2 (e86c870879, 2021-01-15)">
  <defs
     id="defs2" />
  <sodipodi:namedview
     id="base"
     pagecolor="#ffffff"
     bordercolor="#666666"
     borderopacity="1.0"
     inkscape:pageopacity="0.0"
     inkscape:pageshadow="2"
     inkscape:zoom="2.8284271"
     inkscape:cx="-6.4095359"
     inkscape:cy="66.551709"
     inkscape:document-units="mm"
     inkscape:current-layer="layer1"
     inkscape:document-rotation="0"
     showgrid="false"
     inkscape:window-width="958"
     inkscape:window-height="1008"
     inkscape:window-x="1913"
     inkscape:window-y="0"
     inkscape:window-maximized="0" />
  <metadata
     id="metadata5">
    <rdf:RDF>
      <cc:Work
         rdf:about="">
        <dc:format>image/svg+xml</dc:format>
        <dc:type
           rdf:resource="http://purl.org/dc/dcmitype/StillImage" />
        <dc:title></dc:title>
      </cc:Work>
    </rdf:RDF>
  </metadata>
  <g
     inkscape:label="Ebene 1"
     inkscape:groupmode="layer"
     id="layer1"
     transform="translate(-39.895844,-8.983139)">
    <path
       style="fill:#000000;stroke-width:0.264582"
       d="m 44.075605,20.757865 c -0.216358,-0.232232 -0.335924,-0.664817 -0.340988,-1.233687 -0.0044,-0.49922 0.0093,-0.569649 0.243294,-1.244503 0.5906,-1.703512 0.46212,-2.151431 -0.849724,-2.962372 -1.276408,-0.789036 -1.716428,-1.154875 -1.940916,-1.613713 -0.17131,-0.350145 -0.154626,-0.491494 0.07634,-0.646768 0.2787,-0.187368 0.565828,-0.24842 1.169404,-0.248652 0.503058,-2.2e-4 0.643238,0.02417 1.481666,0.257459 0.754452,0.209926 1.009386,0.258563 1.375834,0.262485 0.42303,0.0045 0.464198,-0.0052 0.69191,-0.163352 0.272956,-0.189586 0.519964,-0.502355 0.974652,-1.234126 0.67031,-1.078796 1.791228,-1.889691 2.07557,-1.50151 0.03997,0.05457 0.125042,0.265906 0.189046,0.469635 0.17644,0.561638 0.150056,1.071677 -0.09325,1.802813 -0.301414,0.905733 -0.373472,1.292789 -0.352532,1.893599 0.0062,0.177586 0.05322,0.249562 0.364294,0.557512 0.196452,0.194479 0.488156,0.438334 0.648228,0.541899 1.00392,0.649519 1.232966,0.813976 1.500898,1.077662 0.345908,0.340424 0.526766,0.608375 0.61946,0.917756 0.05825,0.194431 0.05489,0.232085 -0.02901,0.324797 -0.309612,0.342117 -1.302932,0.430308 -2.117802,0.188028 -0.854242,-0.253987 -1.345658,-0.350416 -1.841184,-0.361291 -0.42118,-0.0092 -0.51223,0.005 -0.672358,0.105399 -0.323628,0.202852 -0.774662,0.713635 -1.11239,1.259743 -0.571596,0.924276 -0.829138,1.200095 -1.386602,1.485 -0.415784,0.212498 -0.527316,0.223453 -0.67383,0.06619 z m 0.834512,-0.433638 c 0.267734,-0.169013 0.548898,-0.514384 0.9941,-1.221111 0.367944,-0.584083 0.876688,-1.147528 1.250556,-1.385014 0.164494,-0.104489 0.26661,-0.125382 0.612804,-0.125382 0.479954,0 1.320506,0.148369 1.967934,0.347366 0.584282,0.17959 1.29978,0.203114 1.631268,0.05363 0.185182,-0.08351 0.220816,-0.124235 0.220816,-0.252396 0,-0.24133 -0.182312,-0.537309 -0.511908,-0.831073 -0.317894,-0.283335 -0.351044,-0.307034 -1.207884,-0.863495 -0.581704,-0.377779 -1.07864,-0.806595 -1.2431,-1.072698 -0.203986,-0.330054 -0.118172,-1.170693 0.220612,-2.161155 0.195118,-0.570445 0.220808,-0.701659 0.224532,-1.146851 0.0034,-0.412678 -0.0156,-0.540616 -0.106432,-0.714375 -0.14118,-0.270101 -0.301322,-0.294944 -0.686492,-0.106498 -0.36002,0.176142 -0.66146,0.515687 -1.150516,1.29595 -0.403412,0.643624 -0.901072,1.222868 -1.170206,1.362042 -0.296,0.153068 -0.946474,0.103207 -1.909232,-0.146348 -1.170246,-0.303339 -1.320088,-0.328932 -1.775474,-0.303262 -0.538442,0.03035 -0.811234,0.161773 -0.834286,0.401925 -0.01806,0.18822 0.08814,0.362551 0.419676,0.688874 0.17067,0.167986 0.355134,0.295326 1.53812,1.061803 0.633154,0.41023 1.078662,0.860267 1.13175,1.143254 0.08467,0.451306 -0.01524,1.15832 -0.270596,1.914935 -0.144574,0.428368 -0.255114,0.862932 -0.27262,1.071747 -0.03285,0.39179 0.04326,0.835012 0.178936,1.04208 0.07997,0.122057 0.11378,0.1333 0.317032,0.105441 0.12513,-0.01715 0.318904,-0.08888 0.43061,-0.159394 z"
       id="path264" />
  </g>
</svg>
