<?xml version="1.0" encoding="UTF-8" standalone="no"?>
<svg
   xmlns:dc="http://purl.org/dc/elements/1.1/"
   xmlns:cc="http://creativecommons.org/ns#"
   xmlns:rdf="http://www.w3.org/1999/02/22-rdf-syntax-ns#"
   xmlns:svg="http://www.w3.org/2000/svg"
   xmlns="http://www.w3.org/2000/svg"
   xmlns:sodipodi="http://sodipodi.sourceforge.net/DTD/sodipodi-0.dtd"
   xmlns:inkscape="http://www.inkscape.org/namespaces/inkscape"
   width="13.229167mm"
   height="13.229167mm"
   viewBox="0 0 13.229169 13.229168"
   version="1.1"
   id="svg8"
   sodipodi:docname="VCS_resized_335.svg"
   inkscape:version="1.0.2-2 (e86c870879, 2021-01-15)">
  <defs
     id="defs2" />
  <sodipodi:namedview
     id="base"
     pagecolor="#ffffff"
     bordercolor="#666666"
     borderopacity="1.0"
     inkscape:pageopacity="0.0"
     inkscape:pageshadow="2"
     inkscape:zoom="4"
     inkscape:cx="18.821683"
     inkscape:cy="9.7125204"
     inkscape:document-units="mm"
     inkscape:current-layer="layer1"
     inkscape:document-rotation="0"
     showgrid="false"
     inkscape:window-width="958"
     inkscape:window-height="1008"
     inkscape:window-x="1913"
     inkscape:window-y="0"
     inkscape:window-maximized="0" />
  <metadata
     id="metadata5">
    <rdf:RDF>
      <cc:Work
         rdf:about="">
        <dc:format>image/svg+xml</dc:format>
        <dc:type
           rdf:resource="http://purl.org/dc/dcmitype/StillImage" />
        <dc:title></dc:title>
      </cc:Work>
    </rdf:RDF>
  </metadata>
  <g
     inkscape:label="Ebene 1"
     inkscape:groupmode="layer"
     id="layer1"
     transform="translate(-92.893692,10.992992)">
    <path
       style="fill:#000000;stroke-width:0.264582"
       d="m 98.838798,1.253527 c -0.375804,-0.40058479 -1.021934,-1.25037419 -1.022676,-1.34502259 -0.0021,-0.263946 -0.302664,-2.45324041 -0.346598,-2.52432501 -0.04075,-0.065933 -0.452964,-0.2713201 -1.42565,-0.7103325 -0.436562,-0.1970382 -1.254048,-0.5801928 -1.816636,-0.851453 -0.817688,-0.394261 -1.019382,-0.5121546 -1.005418,-0.5876794 0.02326,-0.1257966 0.613716,-0.3181874 2.001846,-0.6522704 2.186282,-0.5261764 2.597604,-0.6437096 2.677046,-0.7649536 0.04077,-0.062224 0.295866,-0.6711231 0.56688,-1.3531105 0.271014,-0.6819872 0.657462,-1.6040742 0.858772,-2.0490824 0.309713,-0.6846356 0.382383,-0.8067436 0.472393,-0.7937496 0.13511,0.01951 0.291163,0.441268 0.925863,2.5024388 0.2599,0.8440208 0.50599,1.6295579 0.54685,1.7456389 l 0.0743,0.2110548 1.52947,0.5158524 c 2.07176,0.698753 2.9565,1.0515658 2.91902,1.1640306 -0.0115,0.034356 -0.0988,0.1060356 -0.19414,0.1592872 -0.20449,0.1142422 -1.47281,0.6340642 -1.77749,0.7285058 -0.58284,0.1806654 -2.33632,0.8683131 -2.39148,0.9378529 -0.0687,0.086628 -0.20337,0.6286348 -0.43919,1.76789901 -0.14237,0.6878404 -0.16515,0.748493 -0.37956,1.0106094 -0.38614,0.4720526 -1.213166,1.25781059 -1.323868,1.25781059 -0.05981,0 -0.249816,-0.1558988 -0.449734,-0.3690014 z m 0.816079,-0.223629 c 0.446323,-0.40283739 0.900703,-0.96481039 0.964393,-1.19275599 0.0306,-0.1094436 0.13713,-0.570677 0.23677,-1.02496221 0.30167,-1.3753558 0.31653,-1.4135942 0.5961,-1.5334294 0.34963,-0.1498693 1.72058,-0.6699667 2.21609,-0.8407165 0.23523,-0.081059 0.69713,-0.2611062 1.02643,-0.400106 0.53866,-0.227365 0.58899,-0.2598608 0.50152,-0.3238178 -0.13125,-0.095977 -0.4309,-0.2070492 -2.19376,-0.8131832 -0.82947,-0.2852006 -1.58318,-0.5459968 -1.67491,-0.579547 -0.19143,-0.070013 -0.2312,-0.1623176 -0.62757,-1.4565599 -0.41953,-1.3698964 -0.816703,-2.5897936 -0.869883,-2.6718494 -0.0337,-0.052047 -0.0688,-0.061059 -0.10299,-0.026458 -0.0702,0.071044 -0.329715,0.6767408 -1.040175,2.427586 -0.329308,0.8115407 -0.618172,1.4937101 -0.641922,1.5159323 -0.04158,0.03891 -2.049554,0.5528072 -3.085888,0.789767 -0.659436,0.1507814 -1.164166,0.315629 -1.164166,0.3802222 0,0.055771 1.008086,0.5498418 2.621914,1.2850198 0.554376,0.2525458 1.07231,0.511529 1.150966,0.575519 0.166836,0.1357269 0.191644,0.2448987 0.351102,1.5450947 0.06068,0.49477081 0.121258,0.98154261 0.134618,1.08171481 0.04366,0.3273304 1.008074,1.53083799 1.230944,1.53610919 0.03607,8.6e-4 0.202757,-0.1222578 0.370417,-0.2735796 z"
       id="path6279" />
  </g>
</svg>
