<?xml version="1.0" encoding="UTF-8" standalone="no"?>
<svg
   xmlns:dc="http://purl.org/dc/elements/1.1/"
   xmlns:cc="http://creativecommons.org/ns#"
   xmlns:rdf="http://www.w3.org/1999/02/22-rdf-syntax-ns#"
   xmlns:svg="http://www.w3.org/2000/svg"
   xmlns="http://www.w3.org/2000/svg"
   xmlns:sodipodi="http://sodipodi.sourceforge.net/DTD/sodipodi-0.dtd"
   xmlns:inkscape="http://www.inkscape.org/namespaces/inkscape"
   width="13.229167mm"
   height="13.229167mm"
   viewBox="0 0 13.229169 13.229168"
   version="1.1"
   id="svg8"
   sodipodi:docname="VCS_resized_339.svg"
   inkscape:version="1.0.2-2 (e86c870879, 2021-01-15)">
  <defs
     id="defs2" />
  <sodipodi:namedview
     id="base"
     pagecolor="#ffffff"
     bordercolor="#666666"
     borderopacity="1.0"
     inkscape:pageopacity="0.0"
     inkscape:pageshadow="2"
     inkscape:zoom="4"
     inkscape:cx="12.916633"
     inkscape:cy="35.053641"
     inkscape:document-units="mm"
     inkscape:current-layer="layer1"
     inkscape:document-rotation="0"
     showgrid="false"
     inkscape:window-width="958"
     inkscape:window-height="1008"
     inkscape:window-x="1913"
     inkscape:window-y="0"
     inkscape:window-maximized="0" />
  <metadata
     id="metadata5">
    <rdf:RDF>
      <cc:Work
         rdf:about="">
        <dc:format>image/svg+xml</dc:format>
        <dc:type
           rdf:resource="http://purl.org/dc/dcmitype/StillImage" />
        <dc:title></dc:title>
      </cc:Work>
    </rdf:RDF>
  </metadata>
  <g
     inkscape:label="Ebene 1"
     inkscape:groupmode="layer"
     id="layer1"
     transform="translate(-94.45607,17.69783)">
    <path
       style="fill:#000000;stroke-width:0.264582"
       d="m 100.40988,-5.3709039 c -0.32851,-0.3927034 -0.575677,-0.7505672 -0.805941,-1.1668712 -0.178282,-0.3223239 -0.206508,-0.4272767 -0.270402,-1.0054167 -0.09772,-0.884218 -0.226056,-1.7804443 -0.263664,-1.8412983 -0.04523,-0.07318 -0.602934,-0.3448 -1.71661,-0.8360489 -1.551648,-0.684441 -2.513542,-1.183895 -2.513542,-1.305131 0,-0.170034 0.550188,-0.336607 2.69875,-0.817065 1.343106,-0.300343 1.845966,-0.423353 1.921508,-0.47004 0.03604,-0.02227 0.276386,-0.562598 0.534102,-1.200719 0.679459,-1.68238 1.269149,-2.966354 1.400819,-3.05008 0.0327,-0.02078 0.0897,-0.0075 0.12665,0.02945 0.0947,0.09462 0.39644,0.958904 0.58561,1.677122 0.1625,0.61695 0.51473,1.891674 0.67642,2.44793 0.049,0.168701 0.12899,0.328045 0.17766,0.354095 0.0487,0.02605 0.58678,0.224674 1.19579,0.441383 1.83049,0.651366 3.14456,1.197079 3.14456,1.305883 0,0.02755 -0.0549,0.0861 -0.12212,0.130113 -0.1949,0.127703 -1.1273,0.493834 -1.70338,0.668872 -0.71355,0.2168099 -2.11735,0.6693619 -2.39246,0.7712769 -0.2607,0.09657 -0.27445,0.128924 -0.56966,1.3397723 -0.10289,0.4220104 -0.21239,0.858837 -0.24334,0.9707256 -0.10591,0.3828581 -1.33294,1.8338579 -1.5508,1.8338579 -0.0426,0 -0.18213,-0.1250156 -0.30995,-0.2778126 z m 0.73325,-0.4233332 c 0.35132,-0.3660802 0.67946,-0.7839048 0.80446,-1.0243281 0.0319,-0.061334 0.16542,-0.5256774 0.29674,-1.031875 0.13131,-0.5061978 0.28112,-1.0504848 0.3329,-1.2095269 l 0.0941,-0.289167 1.11125,-0.373242 c 0.61119,-0.205282 1.39701,-0.4634639 1.74626,-0.5737359 0.34925,-0.110272 0.77787,-0.266607 0.9525,-0.347411 l 0.3175,-0.146916 -0.26459,-0.134056 c -0.35252,-0.178614 -1.02211,-0.439675 -2.35007,-0.916254 -1.49897,-0.537956 -1.46409,-0.521504 -1.53727,-0.725121 -0.0946,-0.263268 -0.27775,-0.898516 -0.63353,-2.197631 -0.35211,-1.285748 -0.51182,-1.75959 -0.59307,-1.75959 -0.0757,0 -0.54286,1.009613 -1.07644,2.326301 -0.25313,0.624621 -0.515929,1.2456 -0.584011,1.379953 l -0.123784,0.244277 -0.757788,0.174125 c -0.416784,0.09577 -0.948288,0.218976 -1.18112,0.273793 -0.232834,0.05482 -0.697178,0.159294 -1.031876,0.232169 -0.852434,0.185604 -1.24354,0.310054 -1.24354,0.395694 0,0.09133 0.413288,0.306547 1.746248,0.909342 1.34151,0.6066599 2.01881,0.9366159 2.082554,1.0145459 0.07429,0.09082 0.20169,0.8497857 0.303416,1.8075081 0.09974,0.9390322 0.128562,1.0218002 0.580371,1.6665749 0.30805,0.439626 0.52263,0.6882168 0.59406,0.6882168 0.0256,0 0.21218,-0.1726406 0.41468,-0.3836458 z"
       id="path6343" />
  </g>
</svg>
