<?xml version="1.0" encoding="UTF-8" standalone="no"?>
<svg
   xmlns:dc="http://purl.org/dc/elements/1.1/"
   xmlns:cc="http://creativecommons.org/ns#"
   xmlns:rdf="http://www.w3.org/1999/02/22-rdf-syntax-ns#"
   xmlns:svg="http://www.w3.org/2000/svg"
   xmlns="http://www.w3.org/2000/svg"
   xmlns:sodipodi="http://sodipodi.sourceforge.net/DTD/sodipodi-0.dtd"
   xmlns:inkscape="http://www.inkscape.org/namespaces/inkscape"
   width="13.229167mm"
   height="13.229167mm"
   viewBox="0 0 13.229169 13.229168"
   version="1.1"
   id="svg8"
   sodipodi:docname="VCS_resized_153.svg"
   inkscape:version="1.0.2-2 (e86c870879, 2021-01-15)">
  <defs
     id="defs2" />
  <sodipodi:namedview
     id="base"
     pagecolor="#ffffff"
     bordercolor="#666666"
     borderopacity="1.0"
     inkscape:pageopacity="0.0"
     inkscape:pageshadow="2"
     inkscape:zoom="2.8284271"
     inkscape:cx="7.9373734"
     inkscape:cy="48.619681"
     inkscape:document-units="mm"
     inkscape:current-layer="layer1"
     inkscape:document-rotation="0"
     showgrid="false"
     inkscape:window-width="958"
     inkscape:window-height="1008"
     inkscape:window-x="1913"
     inkscape:window-y="0"
     inkscape:window-maximized="0" />
  <metadata
     id="metadata5">
    <rdf:RDF>
      <cc:Work
         rdf:about="">
        <dc:format>image/svg+xml</dc:format>
        <dc:type
           rdf:resource="http://purl.org/dc/dcmitype/StillImage" />
        <dc:title></dc:title>
      </cc:Work>
    </rdf:RDF>
  </metadata>
  <g
     inkscape:label="Ebene 1"
     inkscape:groupmode="layer"
     id="layer1"
     transform="translate(-36.099884,-13.727654)">
    <path
       style="fill:#000000;stroke-width:0.264582"
       d="m 40.543894,26.364726 c -0.480654,-0.03621 -0.687624,-0.07326 -0.757188,-0.135525 -0.05265,-0.04713 -0.359826,-0.5034 -0.68261,-1.013933 -0.322784,-0.510532 -0.773234,-1.204119 -1.000996,-1.541304 -0.692462,-1.02513 -0.879656,-1.549125 -0.823884,-2.306207 0.03349,-0.454691 0.121534,-0.659057 0.609366,-1.414539 0.665538,-1.030685 0.683594,-1.419884 0.121076,-2.609719 -0.1759,-0.372059 -0.347332,-0.805936 -0.380962,-0.96417 -0.167874,-0.789875 0.207818,-1.661566 0.858156,-1.991116 0.363812,-0.184358 0.626034,-0.16811 1.257308,0.07791 0.291854,0.113739 0.656674,0.234407 0.81071,0.268151 1.221718,0.267635 1.2066,0.265884 2.29528,0.265884 1.200524,0 1.845706,-0.09303 2.390884,-0.344754 0.95984,-0.44318 1.301556,-0.490353 1.738142,-0.239945 0.636066,0.364821 0.976404,1.157954 0.820498,1.912107 -0.03258,0.157603 -0.190196,0.548487 -0.350254,0.868633 -0.160056,0.320146 -0.3303,0.743475 -0.378316,0.940731 -0.08207,0.337129 -0.08164,0.38566 0.0072,0.808861 0.08148,0.388263 0.137356,0.512066 0.406078,0.899713 0.547584,0.789925 0.650298,1.030371 0.671774,1.572571 0.0199,0.502252 -0.066,0.928345 -0.26899,1.334374 -0.1063,0.212624 -1.638058,2.669609 -1.98702,3.187238 -0.102642,0.152253 -0.224642,0.288469 -0.271112,0.302703 -0.04647,0.01423 -0.50121,0.06217 -1.010532,0.106523 -1.018956,0.08873 -3.004442,0.09644 -4.074584,0.01582 z m 4.081562,-0.251844 c 0.338534,-0.02806 0.678816,-0.07508 0.756182,-0.104492 0.09264,-0.03522 0.243812,-0.216132 0.442814,-0.52993 0.166184,-0.262047 0.574204,-0.899258 0.906714,-1.416024 0.756696,-1.176013 0.98255,-1.593531 1.090998,-2.016843 0.157712,-0.615611 0.01728,-1.124719 -0.545468,-1.97751 -0.21115,-0.319978 -0.411038,-0.69298 -0.458084,-0.854811 -0.187548,-0.645137 -0.04185,-1.401023 0.424504,-2.202286 0.238478,-0.409743 0.358158,-0.854462 0.322618,-1.19881 -0.05978,-0.57918 -0.524054,-1.139006 -1.002398,-1.208692 -0.23058,-0.03359 -0.529496,0.04185 -1.151108,0.290509 -0.160072,0.06403 -0.541072,0.17343 -0.846666,0.243104 -0.486468,0.110913 -0.688272,0.12674 -1.621342,0.12716 -1.299092,5.84e-4 -1.882804,-0.09149 -3.216044,-0.507299 -0.317676,-0.09908 -0.65105,-0.179616 -0.740834,-0.178977 -0.372422,0.0027 -0.84484,0.362911 -1.01737,0.775834 -0.108226,0.259018 -0.145562,0.750929 -0.0764,1.006564 0.03311,0.122385 0.199166,0.515292 0.36901,0.873125 0.307298,0.647426 0.429228,1.09307 0.429228,1.568805 0,0.281952 -0.195668,0.76442 -0.493138,1.215955 -0.503562,0.764367 -0.644066,1.179774 -0.60701,1.794678 0.03062,0.508074 0.179358,0.820265 0.928452,1.948709 0.28842,0.434478 0.731368,1.115056 0.98433,1.512395 0.252964,0.397339 0.501026,0.73951 0.551252,0.760378 0.284606,0.118252 3.436614,0.172369 4.569758,0.07846 z"
       id="path2492" />
  </g>
</svg>
