<?xml version="1.0" encoding="UTF-8" standalone="no"?>
<svg
   xmlns:dc="http://purl.org/dc/elements/1.1/"
   xmlns:cc="http://creativecommons.org/ns#"
   xmlns:rdf="http://www.w3.org/1999/02/22-rdf-syntax-ns#"
   xmlns:svg="http://www.w3.org/2000/svg"
   xmlns="http://www.w3.org/2000/svg"
   xmlns:sodipodi="http://sodipodi.sourceforge.net/DTD/sodipodi-0.dtd"
   xmlns:inkscape="http://www.inkscape.org/namespaces/inkscape"
   width="13.229167mm"
   height="13.229167mm"
   viewBox="0 0 13.229169 13.229168"
   version="1.1"
   id="svg8"
   sodipodi:docname="VCS_resized_138.svg"
   inkscape:version="1.0.2-2 (e86c870879, 2021-01-15)">
  <defs
     id="defs2" />
  <sodipodi:namedview
     id="base"
     pagecolor="#ffffff"
     bordercolor="#666666"
     borderopacity="1.0"
     inkscape:pageopacity="0.0"
     inkscape:pageshadow="2"
     inkscape:zoom="2.8284271"
     inkscape:cx="10.800851"
     inkscape:cy="26.712542"
     inkscape:document-units="mm"
     inkscape:current-layer="layer1"
     inkscape:document-rotation="0"
     showgrid="false"
     inkscape:window-width="958"
     inkscape:window-height="1008"
     inkscape:window-x="1913"
     inkscape:window-y="0"
     inkscape:window-maximized="0" />
  <metadata
     id="metadata5">
    <rdf:RDF>
      <cc:Work
         rdf:about="">
        <dc:format>image/svg+xml</dc:format>
        <dc:type
           rdf:resource="http://purl.org/dc/dcmitype/StillImage" />
        <dc:title></dc:title>
      </cc:Work>
    </rdf:RDF>
  </metadata>
  <g
     inkscape:label="Ebene 1"
     inkscape:groupmode="layer"
     id="layer1"
     transform="translate(-35.342258,-19.523918)">
    <path
       style="fill:#000000;stroke-width:0.264582"
       d="m 40.505128,32.305452 c -0.116418,-0.02132 -0.414074,-0.06837 -0.661458,-0.104548 -0.762228,-0.111478 -0.724332,-0.08532 -1.265718,-0.873557 -0.2672,-0.389031 -0.643174,-0.91804 -0.8355,-1.175578 -0.968044,-1.296278 -1.163294,-1.728851 -1.115626,-2.471635 0.03194,-0.497613 0.142636,-0.71996 0.674422,-1.354618 0.522056,-0.623044 0.697902,-0.968751 0.731482,-1.438069 0.03666,-0.512313 -0.05711,-0.808356 -0.502654,-1.587019 -0.219168,-0.383033 -0.443114,-0.823391 -0.497656,-0.978573 -0.119724,-0.34064 -0.131302,-0.954948 -0.02467,-1.309249 0.180116,-0.598477 0.626348,-1.035733 1.103816,-1.081612 0.23875,-0.02294 0.327744,0.01249 1.489922,0.59312 0.679804,0.339635 1.399274,0.664209 1.598824,0.721275 0.434248,0.124184 1.333118,0.14044 1.738986,0.03145 0.50515,-0.135651 1.112834,-0.411641 1.402292,-0.636876 0.417644,-0.324978 0.9933,-0.659583 1.202164,-0.698766 0.572578,-0.107416 1.084452,0.279107 1.344108,1.014957 0.08804,0.249508 0.105944,0.400151 0.08757,0.736949 -0.02807,0.514542 -0.166576,0.87824 -0.587044,1.541501 -0.165776,0.2615 -0.353154,0.616953 -0.416396,0.789894 -0.23077,0.631058 -0.09219,1.37661 0.358444,1.928397 0.429472,0.525876 0.719398,0.922802 0.824784,1.129178 0.14806,0.289943 0.182182,0.832203 0.07795,1.238766 -0.137594,0.536698 -0.139742,0.540128 -1.95517,3.121132 -0.46074,0.655038 -0.415922,0.63299 -1.650788,0.812082 -0.713212,0.103437 -2.662686,0.135531 -3.122082,0.0514 z m 3.32625,-0.342374 c 0.472106,-0.08278 0.766686,-0.160584 0.832082,-0.219766 0.05568,-0.05039 0.392988,-0.505887 0.749576,-1.012217 1.608886,-2.284506 1.599576,-2.267424 1.561756,-2.865633 -0.03449,-0.545551 -0.135914,-0.76467 -0.702918,-1.518619 -0.549764,-0.731024 -0.662552,-0.965326 -0.699524,-1.453151 -0.04495,-0.593114 0.198302,-1.269648 0.760502,-2.11512 0.429542,-0.645971 0.51101,-1.32908 0.226424,-1.898586 -0.20735,-0.414946 -0.444806,-0.589174 -0.802984,-0.589174 -0.294872,0 -0.590838,0.135063 -1.242818,0.567158 -0.88124,0.584035 -1.59694,0.789598 -2.585198,0.742518 -0.657292,-0.03131 -0.972288,-0.120086 -1.752554,-0.493915 -0.284494,-0.136302 -0.791104,-0.379323 -1.125802,-0.540048 -0.744274,-0.357405 -0.987266,-0.382904 -1.33304,-0.139885 -0.133416,0.09377 -0.276242,0.261391 -0.357402,0.419452 -0.118444,0.230671 -0.135184,0.328896 -0.135184,0.793266 v 0.529995 l 0.399692,0.714375 c 0.517244,0.924475 0.623458,1.182828 0.698802,1.699763 0.05795,0.397631 0.05394,0.449686 -0.06002,0.778697 -0.0767,0.221451 -0.233484,0.49701 -0.42155,0.740915 -0.608756,0.789507 -0.796908,1.091034 -0.885874,1.419675 -0.18162,0.670902 -0.01058,1.067723 1.113766,2.584075 0.237382,0.320146 0.579184,0.798836 0.759558,1.063756 0.180374,0.26492 0.37763,0.526629 0.438344,0.581576 0.213524,0.193235 1.291864,0.329882 2.641648,0.334747 1.037116,0.0037 1.286762,-0.01234 1.922714,-0.123854 z"
       id="path2250" />
  </g>
</svg>
