<?xml version="1.0" encoding="UTF-8" standalone="no"?>
<svg
   xmlns:dc="http://purl.org/dc/elements/1.1/"
   xmlns:cc="http://creativecommons.org/ns#"
   xmlns:rdf="http://www.w3.org/1999/02/22-rdf-syntax-ns#"
   xmlns:svg="http://www.w3.org/2000/svg"
   xmlns="http://www.w3.org/2000/svg"
   xmlns:sodipodi="http://sodipodi.sourceforge.net/DTD/sodipodi-0.dtd"
   xmlns:inkscape="http://www.inkscape.org/namespaces/inkscape"
   width="13.229167mm"
   height="13.229167mm"
   viewBox="0 0 13.229169 13.229168"
   version="1.1"
   id="svg8"
   sodipodi:docname="VCS_resized_239.svg"
   inkscape:version="1.0.2-2 (e86c870879, 2021-01-15)">
  <defs
     id="defs2" />
  <sodipodi:namedview
     id="base"
     pagecolor="#ffffff"
     bordercolor="#666666"
     borderopacity="1.0"
     inkscape:pageopacity="0.0"
     inkscape:pageshadow="2"
     inkscape:zoom="2.8284271"
     inkscape:cx="5.860224"
     inkscape:cy="29.999031"
     inkscape:document-units="mm"
     inkscape:current-layer="layer1"
     inkscape:document-rotation="0"
     showgrid="false"
     inkscape:window-width="958"
     inkscape:window-height="1008"
     inkscape:window-x="1913"
     inkscape:window-y="0"
     inkscape:window-maximized="0" />
  <metadata
     id="metadata5">
    <rdf:RDF>
      <cc:Work
         rdf:about="">
        <dc:format>image/svg+xml</dc:format>
        <dc:type
           rdf:resource="http://purl.org/dc/dcmitype/StillImage" />
        <dc:title></dc:title>
      </cc:Work>
    </rdf:RDF>
  </metadata>
  <g
     inkscape:label="Ebene 1"
     inkscape:groupmode="layer"
     id="layer1"
     transform="translate(-72.15049,-44.092564)">
    <path
       style="fill:#000000;stroke-width:0.264582"
       d="m 74.6437,56.938085 c -0.02765,-0.03638 -0.127622,-0.578115 -0.22216,-1.203854 -0.09454,-0.62574 -0.215084,-1.328208 -0.26788,-1.561042 -0.0528,-0.232833 -0.124032,-0.621851 -0.158302,-0.864485 -0.06825,-0.483204 -0.196426,-0.781658 -1.286196,-2.994878 -0.45536,-0.924791 -0.557698,-1.17296 -0.503666,-1.22138 0.03729,-0.03342 0.22259,-0.126303 0.411766,-0.206403 0.189178,-0.0801 0.570178,-0.248988 0.846668,-0.375304 0.276488,-0.126316 0.911088,-0.412513 1.41022,-0.635995 l 0.907514,-0.406329 0.606644,-0.616363 c 0.67154,-0.682297 1.114884,-1.153501 1.812174,-1.92605 0.256122,-0.283766 0.493154,-0.515938 0.52674,-0.515938 0.09323,0 0.18,0.0832 0.772584,0.740834 0.301592,0.334697 0.881492,0.961989 1.288666,1.39398 0.87748,0.930965 0.73428,0.845073 3.25879,1.954643 0.990418,0.435308 1.261312,0.563259 1.289672,0.609147 0.01414,0.02288 -0.15119,0.404399 -0.367398,0.847826 -0.216208,0.443428 -0.393106,0.814107 -0.393106,0.823733 0,0.0096 -0.199928,0.432484 -0.444284,0.939686 -0.60187,1.249282 -0.59977,1.243541 -0.690348,1.886703 -0.04388,0.311615 -0.125522,0.780886 -0.181416,1.042823 -0.0559,0.261938 -0.154476,0.845344 -0.21907,1.296459 -0.0646,0.451114 -0.15098,0.873786 -0.191968,0.93927 l -0.07452,0.119063 H 78.7344 c -3.170252,0 -4.051254,-0.01424 -4.090698,-0.06615 z m 7.961442,-0.264583 c 0.02888,-0.03638 0.09225,-0.33999 0.140826,-0.674688 0.04858,-0.334698 0.146162,-0.894291 0.216854,-1.243541 0.07069,-0.34925 0.176296,-0.93431 0.234676,-1.300133 0.10392,-0.651178 0.118458,-0.691147 0.692904,-1.905 0.322716,-0.681927 0.706106,-1.475039 0.851978,-1.76247 0.151882,-0.299275 0.2454,-0.542421 0.218842,-0.56898 -0.04402,-0.04402 -0.96024,-0.453861 -1.99875,-0.894078 -0.97368,-0.412736 -1.505758,-0.684752 -1.723982,-0.881359 -0.24252,-0.218499 -1.84833,-1.947642 -2.190278,-2.358501 -0.115056,-0.138245 -0.24829,-0.251354 -0.296074,-0.251354 -0.04778,0 -0.28021,0.22427 -0.516502,0.498378 -0.236294,0.274108 -0.83472,0.913805 -1.329838,1.421548 l -0.900212,0.92317 -0.701974,0.319727 c -0.386086,0.175851 -1.154412,0.51496 -1.707392,0.753577 -0.552978,0.238616 -1.024948,0.452077 -1.04882,0.474357 -0.02387,0.02228 0.169642,0.466271 0.430032,0.986646 0.26039,0.520376 0.597326,1.219982 0.748748,1.55468 0.151422,0.334698 0.318906,0.694464 0.37219,0.79948 0.05328,0.105015 0.12397,0.378859 0.157082,0.608541 0.03311,0.229682 0.128464,0.750979 0.211886,1.158437 0.08342,0.407459 0.202238,1.086115 0.264032,1.508125 0.06179,0.422011 0.12262,0.797057 0.13517,0.833438 0.0334,0.09682 7.661752,0.09682 7.738602,0 z"
       id="path4723" />
  </g>
</svg>
