<?xml version="1.0" encoding="UTF-8" standalone="no"?>
<svg
   xmlns:dc="http://purl.org/dc/elements/1.1/"
   xmlns:cc="http://creativecommons.org/ns#"
   xmlns:rdf="http://www.w3.org/1999/02/22-rdf-syntax-ns#"
   xmlns:svg="http://www.w3.org/2000/svg"
   xmlns="http://www.w3.org/2000/svg"
   xmlns:sodipodi="http://sodipodi.sourceforge.net/DTD/sodipodi-0.dtd"
   xmlns:inkscape="http://www.inkscape.org/namespaces/inkscape"
   width="13.229167mm"
   height="13.229167mm"
   viewBox="0 0 13.229169 13.229168"
   version="1.1"
   id="svg8"
   sodipodi:docname="VCS_resized_329.svg"
   inkscape:version="1.0.2-2 (e86c870879, 2021-01-15)">
  <defs
     id="defs2" />
  <sodipodi:namedview
     id="base"
     pagecolor="#ffffff"
     bordercolor="#666666"
     borderopacity="1.0"
     inkscape:pageopacity="0.0"
     inkscape:pageshadow="2"
     inkscape:zoom="4"
     inkscape:cx="20.883533"
     inkscape:cy="31.389474"
     inkscape:document-units="mm"
     inkscape:current-layer="layer1"
     inkscape:document-rotation="0"
     showgrid="false"
     inkscape:window-width="958"
     inkscape:window-height="1008"
     inkscape:window-x="1913"
     inkscape:window-y="0"
     inkscape:window-maximized="0" />
  <metadata
     id="metadata5">
    <rdf:RDF>
      <cc:Work
         rdf:about="">
        <dc:format>image/svg+xml</dc:format>
        <dc:type
           rdf:resource="http://purl.org/dc/dcmitype/StillImage" />
        <dc:title></dc:title>
      </cc:Work>
    </rdf:RDF>
  </metadata>
  <g
     inkscape:label="Ebene 1"
     inkscape:groupmode="layer"
     id="layer1"
     transform="translate(-92.34816,16.728352)">
    <path
       style="fill:#000000;stroke-width:0.264582"
       d="m 98.371677,-4.3610633 c -0.183412,-0.1524164 -0.516094,-0.4513886 -0.739292,-0.6643826 -0.450962,-0.4303432 -0.433608,-0.3841294 -0.570482,-1.519121 -0.145308,-1.2049104 -0.225014,-1.6990404 -0.282758,-1.7529218 -0.03512,-0.032773 -0.879786,-0.470528 -1.877028,-0.9727882 -2.308948,-1.1629001 -2.433542,-1.2407321 -2.192586,-1.3696881 0.12756,-0.06827 1.373324,-0.398228 3.050364,-0.807936 0.755118,-0.184479 1.413728,-0.371135 1.463578,-0.414791 0.04985,-0.04366 0.305948,-0.617415 0.569106,-1.275019 0.60074,-1.501185 1.157658,-2.771014 1.281474,-2.921891 0.08425,-0.102661 0.103764,-0.106793 0.172026,-0.03642 0.09272,0.09559 0.366392,0.834738 0.989411,2.672292 0.25655,0.756708 0.49406,1.451874 0.52778,1.544814 0.0677,0.186713 0.0735,0.188972 2.06389,0.810668 1.58187,0.494096 2.4464,0.803313 2.47353,0.884703 0.009,0.02817 -0.0145,0.07748 -0.0532,0.109571 -0.13709,0.1137821 -1.05001,0.5412085 -2.37459,1.1117867 -2.02167,0.8708592 -1.82045,0.7487936 -1.9195,1.1644106 -0.0464,0.1944964 -0.1685,0.8038508 -0.27143,1.3541212 -0.10293,0.5502708 -0.2041,1.0302424 -0.22482,1.0666042 -0.14002,0.2457476 -1.490301,1.2931124 -1.667099,1.2931124 -0.04668,0 -0.234932,-0.1247044 -0.418344,-0.2771214 z m 0.884544,-0.3094572 c 0.520708,-0.3796152 0.966799,-0.8040798 1.001849,-0.9532784 0.0164,-0.06986 0.13699,-0.6627992 0.26795,-1.317643 0.13096,-0.6548438 0.25932,-1.2399586 0.28523,-1.3002556 0.0469,-0.1091434 0.56214,-0.3544268 2.45608,-1.1692716 1.15366,-0.4963462 1.5553,-0.7067089 1.45571,-0.7624409 -0.11669,-0.0653 -0.72023,-0.274413 -1.36671,-0.473528 -1.02382,-0.315332 -1.87511,-0.585852 -2.29537,-0.72941 l -0.41682,-0.142386 -0.12276,-0.3175 c -0.0675,-0.174625 -0.35189,-0.992084 -0.631949,-1.816577 -0.591756,-1.742117 -0.69644,-2.005212 -0.769,-1.932653 -0.06791,0.06791 -0.534486,1.147323 -1.094516,2.532147 -0.38035,0.940512 -0.568896,1.378805 -0.62009,1.441446 -0.01356,0.0166 -2.343708,0.602589 -2.992416,0.752545 -0.82364,0.190392 -1.225594,0.320299 -1.203412,0.38893 0.01118,0.0346 0.848334,0.4826951 1.860334,0.9957629 1.012,0.5130678 1.872264,0.9655054 1.911698,1.0054166 0.03943,0.039911 0.106896,0.3106912 0.149916,0.601733 0.125876,0.8515784 0.237352,1.6693864 0.2741,2.0108332 0.03332,0.3096272 0.04355,0.3265124 0.412538,0.680935 0.50468,0.4847604 0.870954,0.7742734 0.979566,0.7742734 0.04894,0 0.255074,-0.1210856 0.458072,-0.2690786 z"
       id="path6183" />
  </g>
</svg>
