<?xml version="1.0" encoding="UTF-8" standalone="no"?>
<svg
   xmlns:dc="http://purl.org/dc/elements/1.1/"
   xmlns:cc="http://creativecommons.org/ns#"
   xmlns:rdf="http://www.w3.org/1999/02/22-rdf-syntax-ns#"
   xmlns:svg="http://www.w3.org/2000/svg"
   xmlns="http://www.w3.org/2000/svg"
   xmlns:sodipodi="http://sodipodi.sourceforge.net/DTD/sodipodi-0.dtd"
   xmlns:inkscape="http://www.inkscape.org/namespaces/inkscape"
   width="13.229167mm"
   height="13.229167mm"
   viewBox="0 0 13.229169 13.229168"
   version="1.1"
   id="svg8"
   sodipodi:docname="VCS_resized_106.svg"
   inkscape:version="1.0.2-2 (e86c870879, 2021-01-15)">
  <defs
     id="defs2" />
  <sodipodi:namedview
     id="base"
     pagecolor="#ffffff"
     bordercolor="#666666"
     borderopacity="1.0"
     inkscape:pageopacity="0.0"
     inkscape:pageshadow="2"
     inkscape:zoom="2.8284271"
     inkscape:cx="12.214432"
     inkscape:cy="38.151103"
     inkscape:document-units="mm"
     inkscape:current-layer="layer1"
     inkscape:document-rotation="0"
     showgrid="false"
     inkscape:window-width="958"
     inkscape:window-height="1008"
     inkscape:window-x="1913"
     inkscape:window-y="0"
     inkscape:window-maximized="0" />
  <metadata
     id="metadata5">
    <rdf:RDF>
      <cc:Work
         rdf:about="">
        <dc:format>image/svg+xml</dc:format>
        <dc:type
           rdf:resource="http://purl.org/dc/dcmitype/StillImage" />
        <dc:title></dc:title>
      </cc:Work>
    </rdf:RDF>
  </metadata>
  <g
     inkscape:label="Ebene 1"
     inkscape:groupmode="layer"
     id="layer1"
     transform="translate(-34.96825,-16.497467)">
    <path
       style="fill:#000000;stroke-width:0.264582"
       d="m 40.313976,29.124517 c -1.117804,-0.210379 -1.22797,-0.252968 -1.942294,-0.750876 -1.273192,-0.887456 -1.841026,-1.602556 -1.84118,-2.318682 -9.4e-5,-0.451608 0.139818,-0.686488 0.85178,-1.429907 0.333862,-0.348613 0.701354,-0.778235 0.81665,-0.954713 0.505472,-0.773709 0.38307,-1.457392 -0.456894,-2.551986 -0.92693,-1.207924 -1.099108,-1.581556 -1.102444,-2.392352 -0.0021,-0.503035 0.01214,-0.586988 0.150222,-0.886978 0.371396,-0.806935 1.100598,-1.029196 1.823622,-0.555839 0.164036,0.107393 0.661786,0.567642 1.106112,1.022777 0.996342,1.02058 1.157482,1.120843 1.851006,1.151706 0.451986,0.02011 0.512388,0.01047 0.792324,-0.126488 0.309262,-0.151308 0.848444,-0.657704 1.443596,-1.355814 0.2752,-0.322809 0.677438,-0.680938 0.9216,-0.820539 0.174702,-0.09989 0.636208,-0.140165 0.839028,-0.07323 0.64908,0.214216 1.069966,1.139687 0.929426,2.043685 -0.06654,0.427989 -0.39166,1.074411 -0.797232,1.585094 -0.590422,0.74344 -0.827866,1.136643 -0.970832,1.607687 -0.218072,0.718493 -0.02659,1.158234 0.937532,2.15309 0.779374,0.804216 0.965064,1.112748 0.969136,1.610265 0.0046,0.556357 -0.46069,1.239365 -1.359328,1.99557 -0.676756,0.569492 -0.978186,0.729933 -1.733914,0.922909 -0.621824,0.158783 -0.726458,0.169815 -1.74625,0.184109 -0.768964,0.01078 -1.200338,-0.0065 -1.481666,-0.05949 z m 3.004934,-0.377488 c 0.388752,-0.08716 0.728368,-0.199746 0.9109,-0.301975 0.738642,-0.413686 1.724268,-1.325357 1.960544,-1.813439 0.29805,-0.615691 0.169856,-0.985279 -0.640794,-1.847423 -0.713812,-0.759154 -0.920758,-1.046719 -1.060928,-1.474218 -0.108326,-0.330382 -0.113998,-0.40027 -0.06186,-0.762152 0.07356,-0.510598 0.404588,-1.186101 0.900436,-1.837446 0.747122,-0.981418 0.936638,-1.417192 0.904822,-2.080556 -0.02582,-0.538409 -0.18111,-0.864094 -0.512078,-1.073987 -0.495192,-0.314041 -0.956588,-0.141263 -1.675348,0.627363 -0.261936,0.280111 -0.64309,0.679537 -0.847008,0.887612 -0.761496,0.777024 -1.609508,0.945931 -2.495556,0.497065 -0.310062,-0.157074 -0.838044,-0.642861 -1.42692,-1.312883 -0.424698,-0.483221 -1.041512,-0.848713 -1.435736,-0.850744 -0.588448,-0.003 -1.037416,0.723647 -0.943068,1.5264 0.04846,0.412301 0.370416,1.055109 0.850264,1.697598 0.49643,0.664694 0.655624,0.928283 0.833392,1.379905 0.199452,0.506707 0.226152,0.853547 0.09771,1.269168 -0.145746,0.471593 -0.335586,0.750883 -0.961452,1.414465 -0.681444,0.722512 -0.838936,0.950973 -0.875822,1.270487 -0.06826,0.59123 0.33687,1.161304 1.3795,1.941173 0.766242,0.573137 0.963424,0.675469 1.56491,0.812149 0.703166,0.159785 0.651688,0.155221 1.840768,0.163204 0.981474,0.0066 1.1266,-0.0047 1.693332,-0.131766 z"
       id="path1738" />
  </g>
</svg>
