<?xml version="1.0" encoding="UTF-8" standalone="no"?>
<svg
   xmlns:dc="http://purl.org/dc/elements/1.1/"
   xmlns:cc="http://creativecommons.org/ns#"
   xmlns:rdf="http://www.w3.org/1999/02/22-rdf-syntax-ns#"
   xmlns:svg="http://www.w3.org/2000/svg"
   xmlns="http://www.w3.org/2000/svg"
   xmlns:sodipodi="http://sodipodi.sourceforge.net/DTD/sodipodi-0.dtd"
   xmlns:inkscape="http://www.inkscape.org/namespaces/inkscape"
   width="13.229167mm"
   height="13.229167mm"
   viewBox="0 0 13.229169 13.229168"
   version="1.1"
   id="svg8"
   sodipodi:docname="VCS_resized_111.svg"
   inkscape:version="1.0.2-2 (e86c870879, 2021-01-15)">
  <defs
     id="defs2" />
  <sodipodi:namedview
     id="base"
     pagecolor="#ffffff"
     bordercolor="#666666"
     borderopacity="1.0"
     inkscape:pageopacity="0.0"
     inkscape:pageshadow="2"
     inkscape:zoom="2.8284271"
     inkscape:cx="-1.267225"
     inkscape:cy="50.952972"
     inkscape:document-units="mm"
     inkscape:current-layer="layer1"
     inkscape:document-rotation="0"
     showgrid="false"
     inkscape:window-width="958"
     inkscape:window-height="1008"
     inkscape:window-x="1913"
     inkscape:window-y="0"
     inkscape:window-maximized="0" />
  <metadata
     id="metadata5">
    <rdf:RDF>
      <cc:Work
         rdf:about="">
        <dc:format>image/svg+xml</dc:format>
        <dc:type
           rdf:resource="http://purl.org/dc/dcmitype/StillImage" />
        <dc:title></dc:title>
      </cc:Work>
    </rdf:RDF>
  </metadata>
  <g
     inkscape:label="Ebene 1"
     inkscape:groupmode="layer"
     id="layer1"
     transform="translate(-38.535271,-13.110306)">
    <path
       style="fill:#000000;stroke-width:0.264582"
       d="m 43.774275,25.781627 c -0.840572,-0.182262 -1.280916,-0.312615 -1.39465,-0.412854 -0.06241,-0.055 -0.373748,-0.324683 -0.691858,-0.599286 -1.237586,-1.068319 -1.617658,-1.60873 -1.617658,-2.300092 0,-0.440441 0.153216,-0.699432 0.842756,-1.424556 0.966464,-1.01634 1.169146,-1.467999 0.9913,-2.209023 -0.102202,-0.425847 -0.234976,-0.655497 -0.8506,-1.471232 -0.57545,-0.7625 -0.829196,-1.312651 -0.864096,-1.873461 -0.0343,-0.551085 0.05015,-0.946419 0.281008,-1.315487 0.308752,-0.493607 0.76183,-0.690668 1.256998,-0.546718 0.388464,0.11293 0.839744,0.462345 1.650818,1.27819 0.857054,0.862095 1.079892,0.987944 1.805526,1.01968 0.420696,0.0184 0.522534,0.0054 0.72518,-0.09272 0.311524,-0.150806 0.988812,-0.746215 1.382922,-1.215737 0.303842,-0.36198 0.821096,-0.820755 1.075042,-0.953502 0.06668,-0.03485 0.261282,-0.06536 0.432458,-0.06778 1.087614,-0.01542 1.665618,1.478673 1.06855,2.762123 -0.08801,0.189177 -0.39075,0.65352 -0.672766,1.031875 -0.558324,0.749052 -0.73028,1.063858 -0.82189,1.504668 -0.143772,0.691799 0.06693,1.150023 0.960162,2.088085 0.715854,0.751785 0.89527,1.050871 0.896116,1.493822 6e-4,0.332799 -0.100222,0.630337 -0.325316,0.959735 -0.246178,0.360248 -1.272268,1.397777 -1.726282,1.745522 -0.353054,0.270418 -0.446554,0.312694 -1.05933,0.478973 -0.64985,0.176339 -0.708884,0.182954 -1.783348,0.199842 -0.92817,0.01459 -1.185354,0.0014 -1.561042,-0.08006 z m 3.175648,-0.369634 c 0.71301,-0.170547 0.764334,-0.199081 1.496906,-0.832211 0.647924,-0.559973 1.322758,-1.326151 1.402514,-1.592357 0.08639,-0.288331 0.0796,-0.781097 -0.01324,-0.960613 -0.04208,-0.08136 -0.353038,-0.455227 -0.69103,-0.83081 -0.711518,-0.79065 -0.898262,-1.053726 -1.006348,-1.417691 -0.22163,-0.746311 0.0018,-1.414253 0.889816,-2.659875 0.543028,-0.761722 0.697312,-1.066334 0.767818,-1.515949 0.0533,-0.339913 -0.0049,-0.869093 -0.119982,-1.091725 -0.117794,-0.227791 -0.482384,-0.51539 -0.69764,-0.550322 -0.387248,-0.06284 -0.84494,0.19529 -1.391468,0.784769 -1.090134,1.175803 -1.493718,1.451308 -2.19161,1.496096 -0.790124,0.05071 -1.316218,-0.211669 -2.166666,-1.080571 -0.641364,-0.655282 -0.965958,-0.915818 -1.382842,-1.10994 -0.321418,-0.149668 -0.463776,-0.15469 -0.746364,-0.02633 -0.279626,0.127017 -0.478714,0.370083 -0.57859,0.706398 -0.224574,0.756228 -0.0012,1.429115 0.856856,2.580804 0.601666,0.80759 0.912708,1.594932 0.846644,2.143125 -0.0367,0.304553 -0.22927,0.780077 -0.405912,1.002354 -0.08373,0.10536 -0.342236,0.399183 -0.574458,0.652938 -0.777374,0.849457 -0.875914,1.008689 -0.87802,1.418826 -0.0024,0.465659 0.247096,0.881431 0.883952,1.473111 0.296798,0.275744 0.739902,0.666724 0.984672,0.868845 0.438,0.361679 0.45432,0.369643 1.031874,0.503493 0.322762,0.0748 0.634462,0.145909 0.69267,0.158016 0.05821,0.01211 0.609374,0.02478 1.224812,0.02815 1.06518,0.0058 1.150066,-0.0013 1.765628,-0.148536 z"
       id="path1818" />
  </g>
</svg>
