<?xml version="1.0" encoding="UTF-8" standalone="no"?>
<svg
   xmlns:dc="http://purl.org/dc/elements/1.1/"
   xmlns:cc="http://creativecommons.org/ns#"
   xmlns:rdf="http://www.w3.org/1999/02/22-rdf-syntax-ns#"
   xmlns:svg="http://www.w3.org/2000/svg"
   xmlns="http://www.w3.org/2000/svg"
   xmlns:sodipodi="http://sodipodi.sourceforge.net/DTD/sodipodi-0.dtd"
   xmlns:inkscape="http://www.inkscape.org/namespaces/inkscape"
   width="13.229167mm"
   height="13.229167mm"
   viewBox="0 0 13.229169 13.229168"
   version="1.1"
   id="svg8"
   sodipodi:docname="VCS_resized_139.svg"
   inkscape:version="1.0.2-2 (e86c870879, 2021-01-15)">
  <defs
     id="defs2" />
  <sodipodi:namedview
     id="base"
     pagecolor="#ffffff"
     bordercolor="#666666"
     borderopacity="1.0"
     inkscape:pageopacity="0.0"
     inkscape:pageshadow="2"
     inkscape:zoom="2.8284271"
     inkscape:cx="9.9282441"
     inkscape:cy="17.301511"
     inkscape:document-units="mm"
     inkscape:current-layer="layer1"
     inkscape:document-rotation="0"
     showgrid="false"
     inkscape:window-width="958"
     inkscape:window-height="1008"
     inkscape:window-x="1913"
     inkscape:window-y="0"
     inkscape:window-maximized="0" />
  <metadata
     id="metadata5">
    <rdf:RDF>
      <cc:Work
         rdf:about="">
        <dc:format>image/svg+xml</dc:format>
        <dc:type
           rdf:resource="http://purl.org/dc/dcmitype/StillImage" />
        <dc:title></dc:title>
      </cc:Work>
    </rdf:RDF>
  </metadata>
  <g
     inkscape:label="Ebene 1"
     inkscape:groupmode="layer"
     id="layer1"
     transform="translate(-35.573135,-22.01392)">
    <path
       style="fill:#000000;stroke-width:0.264582"
       d="m 40.701186,34.801128 c -0.116416,-0.02474 -0.425978,-0.07494 -0.687916,-0.111557 -0.261938,-0.03662 -0.525754,-0.08439 -0.586258,-0.106165 -0.0605,-0.02177 -0.378014,-0.428676 -0.705578,-0.904232 -0.327566,-0.475557 -0.807294,-1.150399 -1.066064,-1.499649 -0.575324,-0.776485 -0.791916,-1.272739 -0.805074,-1.844584 -0.01324,-0.575846 0.101278,-0.837589 0.681994,-1.558618 0.954642,-1.185307 0.97776,-1.651441 0.15534,-3.132006 -0.447426,-0.805477 -0.525902,-1.06852 -0.498122,-1.669638 0.03169,-0.685588 0.364362,-1.236067 0.88662,-1.467087 0.328468,-0.145297 0.603912,-0.09387 1.18952,0.222078 0.647414,0.349298 1.839102,0.887207 2.201114,0.99355 0.197184,0.05792 0.500062,0.08638 0.927758,0.08717 0.579838,0.0011 0.67815,-0.0137 1.131706,-0.170013 0.584726,-0.201521 0.8535,-0.339561 1.355378,-0.696115 0.74779,-0.53126 1.099592,-0.630447 1.504118,-0.424073 0.496676,0.253385 0.796118,0.767574 0.83829,1.439474 0.03179,0.506426 -0.09948,0.977528 -0.410418,1.472986 -0.421902,0.672264 -0.645394,1.188128 -0.675106,1.558266 -0.0384,0.478412 0.121334,0.959137 0.468016,1.408492 0.93198,1.207997 0.917536,1.178124 0.919458,1.901576 0.0014,0.54894 -0.0012,0.561036 -0.2232,1.005416 -0.12357,0.247386 -0.34979,0.621454 -0.502708,0.831263 -0.152918,0.209809 -0.584296,0.823563 -0.958616,1.363897 -0.374322,0.540335 -0.719602,1.002345 -0.767292,1.02669 -0.04769,0.02434 -0.18196,0.06027 -0.298376,0.07984 -0.116416,0.01957 -0.414072,0.07316 -0.661458,0.119105 -0.511558,0.095 -3.054736,0.150092 -3.413126,0.07394 z m 3.352298,-0.326085 c 0.368154,-0.0617 0.72368,-0.140144 0.79006,-0.17431 0.171904,-0.08848 2.098746,-2.856652 2.298472,-3.302069 0.130364,-0.29073 0.139554,-0.785477 0.02204,-1.186468 -0.06513,-0.222241 -0.21043,-0.463267 -0.542304,-0.899583 -0.69929,-0.919363 -0.734942,-1.003607 -0.73369,-1.733713 0.001,-0.587514 0.0076,-0.622411 0.190964,-1.009925 0.104458,-0.220761 0.314406,-0.595443 0.466554,-0.832628 0.310122,-0.483453 0.424678,-0.836257 0.425602,-1.310766 8e-4,-0.450526 -0.233,-0.920567 -0.550682,-1.106741 -0.416434,-0.244046 -0.723348,-0.170376 -1.568858,0.376582 -0.903598,0.584534 -1.541072,0.784556 -2.483582,0.77928 -0.590404,-0.0033 -0.712618,-0.02091 -1.137708,-0.163865 -0.261938,-0.08809 -0.906858,-0.362908 -1.433156,-0.610709 -0.526298,-0.247801 -1.04422,-0.474656 -1.150938,-0.504122 -0.390248,-0.107753 -0.821356,0.122806 -1.043842,0.558254 -0.111458,0.218143 -0.129148,0.325247 -0.129148,0.781932 v 0.529167 l 0.438828,0.800572 c 0.519216,0.947232 0.66619,1.396779 0.636218,1.946005 -0.02587,0.4741 -0.163282,0.753527 -0.731186,1.486885 -0.558674,0.721437 -0.655962,0.940683 -0.657414,1.481538 -10e-4,0.39339 0.01358,0.450446 0.206858,0.806658 0.114398,0.210828 0.430588,0.687078 0.702644,1.058333 0.272058,0.371255 0.701704,0.977702 0.954768,1.347661 0.253064,0.369958 0.509614,0.69922 0.57011,0.731691 0.265962,0.142758 1.366862,0.25264 2.580846,0.257596 1.00265,0.0041 1.323496,-0.01423 1.878542,-0.107255 z"
       id="path2266" />
  </g>
</svg>
