<?xml version="1.0" encoding="UTF-8" standalone="no"?>
<svg
   xmlns:dc="http://purl.org/dc/elements/1.1/"
   xmlns:cc="http://creativecommons.org/ns#"
   xmlns:rdf="http://www.w3.org/1999/02/22-rdf-syntax-ns#"
   xmlns:svg="http://www.w3.org/2000/svg"
   xmlns="http://www.w3.org/2000/svg"
   xmlns:sodipodi="http://sodipodi.sourceforge.net/DTD/sodipodi-0.dtd"
   xmlns:inkscape="http://www.inkscape.org/namespaces/inkscape"
   width="13.229167mm"
   height="13.229167mm"
   viewBox="0 0 13.229169 13.229168"
   version="1.1"
   id="svg8"
   sodipodi:docname="VCS_resized_161.svg"
   inkscape:version="1.0.2-2 (e86c870879, 2021-01-15)">
  <defs
     id="defs2" />
  <sodipodi:namedview
     id="base"
     pagecolor="#ffffff"
     bordercolor="#666666"
     borderopacity="1.0"
     inkscape:pageopacity="0.0"
     inkscape:pageshadow="2"
     inkscape:zoom="2.8284271"
     inkscape:cx="-5.8863217"
     inkscape:cy="60.962063"
     inkscape:document-units="mm"
     inkscape:current-layer="layer1"
     inkscape:document-rotation="0"
     showgrid="false"
     inkscape:window-width="958"
     inkscape:window-height="1008"
     inkscape:window-x="1913"
     inkscape:window-y="0"
     inkscape:window-maximized="0" />
  <metadata
     id="metadata5">
    <rdf:RDF>
      <cc:Work
         rdf:about="">
        <dc:format>image/svg+xml</dc:format>
        <dc:type
           rdf:resource="http://purl.org/dc/dcmitype/StillImage" />
        <dc:title></dc:title>
      </cc:Work>
    </rdf:RDF>
  </metadata>
  <g
     inkscape:label="Ebene 1"
     inkscape:groupmode="layer"
     id="layer1"
     transform="translate(-39.757404,-10.462066)">
    <path
       style="fill:#000000;stroke-width:0.264582"
       d="m 43.879303,23.011304 -0.54556,-0.05104 -0.121004,-0.192524 c -0.06655,-0.105887 -0.400626,-0.656867 -0.74239,-1.224398 -0.341762,-0.567531 -0.782048,-1.285824 -0.978416,-1.596207 -0.393804,-0.622457 -0.533876,-0.993949 -0.584978,-1.551458 -0.05074,-0.553547 0.02196,-0.889354 0.303778,-1.403168 0.489238,-0.891997 0.597368,-1.149536 0.630184,-1.500952 0.03585,-0.383948 -0.09118,-0.890938 -0.353386,-1.410367 -0.24808,-0.491442 -0.332264,-0.861581 -0.306706,-1.348512 0.01854,-0.353447 0.04999,-0.479559 0.17104,-0.686117 0.469698,-0.801479 1.105996,-1.079011 1.935288,-0.844106 0.558768,0.158276 0.66732,0.175668 1.534582,0.245857 1.275952,0.103267 3.473126,0.04218 4.021668,-0.111812 0.925356,-0.259775 1.13576,-0.292365 1.403522,-0.217397 0.459838,0.128747 0.99366,0.635625 1.225688,1.163822 0.04819,0.109696 0.08103,0.336234 0.08055,0.555625 -8e-4,0.394657 -0.07886,0.646825 -0.466502,1.508125 -0.18051,0.401071 -0.202394,0.495647 -0.202032,0.873125 6e-4,0.533409 0.09186,0.803482 0.501188,1.481667 0.413072,0.684395 0.497298,0.971649 0.457194,1.559284 -0.0387,0.56699 -0.176794,0.972451 -0.527732,1.54944 -0.151712,0.249434 -0.529344,0.878356 -0.839182,1.397605 -0.750412,1.257592 -1.00781,1.655687 -1.106122,1.710736 -0.249344,0.139619 -4.264698,0.207461 -5.490676,0.09277 z m 4.813926,-0.251855 c 0.342448,-0.03906 0.462192,-0.07573 0.554926,-0.169934 0.06504,-0.06607 0.312636,-0.453504 0.550222,-0.860963 0.237584,-0.407458 0.633632,-1.057226 0.880106,-1.443929 0.246474,-0.386703 0.53426,-0.886765 0.639526,-1.11125 0.182614,-0.389435 0.191536,-0.434897 0.194538,-0.99128 0.0036,-0.661652 -0.02161,-0.741136 -0.484056,-1.527882 -0.392052,-0.666985 -0.460106,-0.901346 -0.422992,-1.456657 0.03371,-0.504358 0.08856,-0.685087 0.44178,-1.455666 0.30009,-0.65467 0.331454,-1.010994 0.126088,-1.432502 -0.185342,-0.380408 -0.576516,-0.742935 -0.917686,-0.850479 -0.3009,-0.09485 -0.296854,-0.09533 -1.491654,0.178265 -0.29996,0.06869 -0.717664,0.08533 -2.196042,0.08748 -1.8265,0.0027 -2.45631,-0.03922 -3.201458,-0.212843 -0.705986,-0.164501 -1.159472,-0.06169 -1.527316,0.34627 -0.321636,0.356711 -0.418508,0.628413 -0.39431,1.105951 0.0169,0.333592 0.05808,0.486394 0.237136,0.879943 0.330578,0.72659 0.400894,0.966103 0.427966,1.45774 0.02205,0.400534 0.0088,0.49266 -0.116032,0.804614 -0.07752,0.193759 -0.23481,0.514426 -0.34954,0.712594 -0.420212,0.72581 -0.54816,1.336538 -0.400642,1.91236 0.100658,0.392904 0.286128,0.737518 1.015054,1.886025 0.295546,0.465667 0.689168,1.105791 0.874716,1.422497 0.185548,0.316707 0.386756,0.608196 0.447128,0.647753 0.244392,0.160132 3.889464,0.211392 5.112542,0.0719 z"
       id="path2620" />
  </g>
</svg>
