<?xml version="1.0" encoding="UTF-8" standalone="no"?>
<svg
   xmlns:dc="http://purl.org/dc/elements/1.1/"
   xmlns:cc="http://creativecommons.org/ns#"
   xmlns:rdf="http://www.w3.org/1999/02/22-rdf-syntax-ns#"
   xmlns:svg="http://www.w3.org/2000/svg"
   xmlns="http://www.w3.org/2000/svg"
   xmlns:sodipodi="http://sodipodi.sourceforge.net/DTD/sodipodi-0.dtd"
   xmlns:inkscape="http://www.inkscape.org/namespaces/inkscape"
   width="13.229167mm"
   height="13.229167mm"
   viewBox="0 0 13.229169 13.229168"
   version="1.1"
   id="svg8"
   sodipodi:docname="VCS_resized_172.svg"
   inkscape:version="1.0.2-2 (e86c870879, 2021-01-15)">
  <defs
     id="defs2" />
  <sodipodi:namedview
     id="base"
     pagecolor="#ffffff"
     bordercolor="#666666"
     borderopacity="1.0"
     inkscape:pageopacity="0.0"
     inkscape:pageshadow="2"
     inkscape:zoom="2.8284271"
     inkscape:cx="-1.8894955"
     inkscape:cy="38.595311"
     inkscape:document-units="mm"
     inkscape:current-layer="layer1"
     inkscape:document-rotation="0"
     showgrid="false"
     inkscape:window-width="958"
     inkscape:window-height="1008"
     inkscape:window-x="1913"
     inkscape:window-y="0"
     inkscape:window-maximized="0" />
  <metadata
     id="metadata5">
    <rdf:RDF>
      <cc:Work
         rdf:about="">
        <dc:format>image/svg+xml</dc:format>
        <dc:type
           rdf:resource="http://purl.org/dc/dcmitype/StillImage" />
        <dc:title></dc:title>
      </cc:Work>
    </rdf:RDF>
  </metadata>
  <g
     inkscape:label="Ebene 1"
     inkscape:groupmode="layer"
     id="layer1"
     transform="translate(-38.699909,-16.379936)">
    <path
       style="fill:#000000;stroke-width:0.264582"
       d="m 42.496387,28.880845 c -0.219542,-0.01504 -0.349528,-0.05146 -0.401438,-0.112481 -0.04222,-0.04963 -0.29942,-0.495049 -0.57155,-0.989819 -0.27213,-0.494771 -0.69535,-1.229304 -0.940488,-1.632294 -0.54859,-0.901841 -0.690548,-1.243671 -0.756114,-1.820697 -0.06613,-0.582013 0.0035,-0.947968 0.30212,-1.587423 0.493698,-1.057241 0.51128,-1.494691 0.101418,-2.523119 -0.331422,-0.831603 -0.377436,-1.296115 -0.169118,-1.707212 0.19518,-0.385166 0.663326,-0.869679 1.024598,-1.060414 0.46011,-0.242918 0.815464,-0.305367 1.318834,-0.231768 0.427634,0.06252 1.848054,0.007 2.61245,-0.10205 0.264,-0.03768 0.58378,-0.02261 1.375598,0.06479 0.900352,0.09938 1.095642,0.105953 1.534582,0.05163 0.78405,-0.09704 0.986924,-0.08252 1.368364,0.09793 0.38059,0.180048 0.999624,0.741949 1.20782,1.096345 0.219522,0.373676 0.167092,1.008649 -0.139028,1.683784 -0.413752,0.91251 -0.397672,1.444772 0.07438,2.462088 0.374172,0.80638 0.416638,0.97773 0.371922,1.500715 -0.05058,0.591568 -0.280006,1.170946 -0.829828,2.0956 -0.251544,0.42303 -0.603842,1.042155 -0.782882,1.375833 -0.474894,0.885061 -0.704568,1.260763 -0.794258,1.299254 -0.08948,0.0384 -5.40448,0.07377 -5.90738,0.03932 z m 4.7141,-0.223872 1.002762,-0.03995 0.107588,-0.144102 c 0.05917,-0.07926 0.298684,-0.494133 0.532246,-0.921949 0.233562,-0.427815 0.624154,-1.11894 0.867982,-1.535833 0.243826,-0.416892 0.516832,-0.940767 0.606678,-1.164167 0.143966,-0.357969 0.163526,-0.468988 0.164794,-0.935346 l 0.0014,-0.529167 -0.341974,-0.740833 -0.341974,-0.740833 0.0045,-0.529167 c 0.005,-0.588586 0.05744,-0.832307 0.295928,-1.375833 0.31393,-0.715468 0.339914,-1.134204 0.09498,-1.530522 -0.153722,-0.24873 -0.630608,-0.669059 -0.966484,-0.851866 l -0.270266,-0.147097 -0.862794,0.03403 c -0.654242,0.0258 -1.019912,0.01334 -1.51278,-0.05157 -0.625402,-0.08236 -1.761828,-0.07769 -2.819566,0.01159 -0.174624,0.01474 -0.734218,0.03165 -1.24354,0.03757 -0.888296,0.01034 -0.937906,0.0166 -1.217084,0.153759 -0.33208,0.163145 -0.654564,0.454432 -0.9093,0.821334 -0.164478,0.236902 -0.175206,0.279333 -0.170942,0.676098 0.0037,0.34302 0.03212,0.483569 0.149868,0.740834 0.26744,0.58431 0.35691,0.873746 0.3972,1.284956 0.05044,0.514726 -0.02365,0.882055 -0.30965,1.535352 -0.423654,0.967724 -0.47587,1.661287 -0.173488,2.304349 0.08425,0.179167 0.414966,0.766291 0.734926,1.304718 0.319962,0.538427 0.742036,1.270622 0.937944,1.6271 0.254082,0.462333 0.389276,0.655831 0.47159,0.674965 0.277436,0.06449 3.420808,0.0853 4.769406,0.03157 z"
       id="path2796" />
  </g>
</svg>
