<?xml version="1.0" encoding="UTF-8" standalone="no"?>
<svg
   xmlns:dc="http://purl.org/dc/elements/1.1/"
   xmlns:cc="http://creativecommons.org/ns#"
   xmlns:rdf="http://www.w3.org/1999/02/22-rdf-syntax-ns#"
   xmlns:svg="http://www.w3.org/2000/svg"
   xmlns="http://www.w3.org/2000/svg"
   xmlns:sodipodi="http://sodipodi.sourceforge.net/DTD/sodipodi-0.dtd"
   xmlns:inkscape="http://www.inkscape.org/namespaces/inkscape"
   width="13.229167mm"
   height="13.229167mm"
   viewBox="0 0 13.229169 13.229168"
   version="1.1"
   id="svg8"
   sodipodi:docname="VCS_resized_290.svg"
   inkscape:version="1.0.2-2 (e86c870879, 2021-01-15)">
  <defs
     id="defs2" />
  <sodipodi:namedview
     id="base"
     pagecolor="#ffffff"
     bordercolor="#666666"
     borderopacity="1.0"
     inkscape:pageopacity="0.0"
     inkscape:pageshadow="2"
     inkscape:zoom="4"
     inkscape:cx="4.2804694"
     inkscape:cy="40.9069"
     inkscape:document-units="mm"
     inkscape:current-layer="layer1"
     inkscape:document-rotation="0"
     showgrid="false"
     inkscape:window-width="958"
     inkscape:window-height="1008"
     inkscape:window-x="1913"
     inkscape:window-y="0"
     inkscape:window-maximized="0" />
  <metadata
     id="metadata5">
    <rdf:RDF>
      <cc:Work
         rdf:about="">
        <dc:format>image/svg+xml</dc:format>
        <dc:type
           rdf:resource="http://purl.org/dc/dcmitype/StillImage" />
        <dc:title></dc:title>
      </cc:Work>
    </rdf:RDF>
  </metadata>
  <g
     inkscape:label="Ebene 1"
     inkscape:groupmode="layer"
     id="layer1"
     transform="translate(-94.095222,19.246502)">
    <path
       style="fill:#000000;stroke-width:0.264582"
       d="m 99.386135,-6.5028815 -1.480806,-0.026458 -0.03527,-0.2116666 c -0.0194,-0.1164168 -0.05132,-0.4855104 -0.07094,-0.8202084 -0.01962,-0.334698 -0.08138,-1.1205105 -0.137244,-1.7462501 -0.05587,-0.6257396 -0.101726,-1.1788454 -0.101904,-1.2291244 -4e-4,-0.105594 -0.3,-0.39549 -2.011158,-1.945849 -0.683948,-0.619678 -1.27824,-1.158768 -1.320648,-1.197978 -0.05036,-0.04656 -0.05912,-0.08928 -0.02525,-0.123151 0.02852,-0.02852 0.86094,-0.220282 1.849816,-0.426134 2.629166,-0.547303 2.496568,-0.512486 2.58018,-0.677491 1.10969,-2.189892 1.980109,-3.837005 2.039769,-3.859898 0.042,-0.01612 0.11036,-0.0077 0.15192,0.01881 0.0701,0.04462 0.51994,0.89803 1.63624,3.104047 0.24669,0.487495 0.46632,0.886354 0.48808,0.886354 0.0909,0 4.1906,0.894546 4.24023,0.925218 0.11779,0.0728 0.0349,0.18849 -0.44093,0.615132 -0.58638,0.525811 -2.36036,2.162406 -2.63159,2.427801 -0.21296,0.208373 -0.20592,0.163374 -0.39336,2.5141403 -0.12371,1.5516664 -0.14444,1.7283122 -0.20534,1.7498062 -0.10281,0.036286 -2.60613,0.050162 -4.131799,0.022902 z m 2.863775,-0.2642068 1.06546,-3.8e-4 0.0332,-0.2778124 c 0.0182,-0.152797 0.092,-0.968375 0.16387,-1.8123961 0.17205,-2.0200012 0.14082,-1.8746602 0.46825,-2.1789122 0.15109,-0.14039 0.84086,-0.778718 1.53282,-1.418507 1.03213,-0.954314 1.24387,-1.173659 1.17887,-1.221191 -0.0436,-0.03187 -0.46725,-0.137039 -0.9415,-0.233718 -1.88779,-0.384847 -2.96642,-0.629009 -3.02133,-0.683916 -0.0317,-0.03173 -0.48004,-0.884737 -0.99625,-1.895573 -0.51621,-1.010836 -0.95838,-1.844489 -0.98261,-1.852563 -0.0242,-0.0081 -0.46947,0.812921 -0.989441,1.824434 -0.519972,1.011512 -0.983964,1.878862 -1.031096,1.927445 -0.05885,0.06066 -0.698252,0.214618 -2.041208,0.491488 -1.075534,0.221736 -1.968502,0.4165 -1.984374,0.432809 -0.02912,0.02992 0.108702,0.162059 0.976556,0.936327 0.440194,0.392724 1.570992,1.437066 1.957816,1.808127 l 0.165492,0.15875 0.09269,1.084792 c 0.05098,0.5966354 0.126792,1.4538855 0.168476,1.9050001 0.04168,0.4511146 0.07587,0.8614246 0.07597,0.9118002 1.6e-4,0.083541 0.103676,0.093213 1.17758,0.1100402 0.647568,0.010146 1.332179,0.010772 1.521349,0.00138 0.18918,-0.00938 0.82342,-0.01723 1.40943,-0.017436 z"
       id="path5555" />
  </g>
</svg>
