<?xml version="1.0" encoding="UTF-8" standalone="no"?>
<svg
   xmlns:dc="http://purl.org/dc/elements/1.1/"
   xmlns:cc="http://creativecommons.org/ns#"
   xmlns:rdf="http://www.w3.org/1999/02/22-rdf-syntax-ns#"
   xmlns:svg="http://www.w3.org/2000/svg"
   xmlns="http://www.w3.org/2000/svg"
   xmlns:sodipodi="http://sodipodi.sourceforge.net/DTD/sodipodi-0.dtd"
   xmlns:inkscape="http://www.inkscape.org/namespaces/inkscape"
   width="13.229167mm"
   height="13.229167mm"
   viewBox="0 0 13.229169 13.229168"
   version="1.1"
   id="svg8"
   sodipodi:docname="VCS_resized_112.svg"
   inkscape:version="1.0.2-2 (e86c870879, 2021-01-15)">
  <defs
     id="defs2" />
  <sodipodi:namedview
     id="base"
     pagecolor="#ffffff"
     bordercolor="#666666"
     borderopacity="1.0"
     inkscape:pageopacity="0.0"
     inkscape:pageshadow="2"
     inkscape:zoom="2.8284271"
     inkscape:cx="-3.916486"
     inkscape:cy="65.857074"
     inkscape:document-units="mm"
     inkscape:current-layer="layer1"
     inkscape:document-rotation="0"
     showgrid="false"
     inkscape:window-width="958"
     inkscape:window-height="1008"
     inkscape:window-x="1913"
     inkscape:window-y="0"
     inkscape:window-maximized="0" />
  <metadata
     id="metadata5">
    <rdf:RDF>
      <cc:Work
         rdf:about="">
        <dc:format>image/svg+xml</dc:format>
        <dc:type
           rdf:resource="http://purl.org/dc/dcmitype/StillImage" />
        <dc:title></dc:title>
      </cc:Work>
    </rdf:RDF>
  </metadata>
  <g
     inkscape:label="Ebene 1"
     inkscape:groupmode="layer"
     id="layer1"
     transform="translate(-39.236221,-9.1669292)">
    <path
       style="fill:#000000;stroke-width:0.264582"
       d="m 44.713376,21.914995 c -0.0291,-0.01024 -0.38209,-0.09479 -0.784414,-0.187881 l -0.731498,-0.169256 -0.803086,-0.723889 c -0.97879,-0.882265 -1.199924,-1.129113 -1.43824,-1.605481 -0.153642,-0.307113 -0.185054,-0.427375 -0.185054,-0.708508 0,-0.478551 0.153132,-0.747297 0.800364,-1.404637 0.81041,-0.823065 1.05994,-1.263963 1.057252,-1.868071 -0.0024,-0.546363 -0.149572,-0.855635 -0.855618,-1.798423 -0.239754,-0.320146 -0.533458,-0.784489 -0.652676,-1.031875 -0.215472,-0.447121 -0.216752,-0.453404 -0.215532,-1.058333 0.0014,-0.651735 0.0484,-0.82887 0.327966,-1.233658 0.152942,-0.2214513 0.471472,-0.4287023 0.747448,-0.4863253 0.468356,-0.09779 1.103266,0.298265 2.124546,1.3252923 0.861658,0.866506 1.113918,1.003232 1.85097,1.003232 0.446886,0 0.53,-0.01546 0.73547,-0.136846 0.315496,-0.186379 0.804948,-0.624828 1.250018,-1.119762 0.364558,-0.405402 0.884868,-0.8609103 1.13078,-0.9899513 0.210258,-0.11033 0.69228,-0.09084 0.939544,0.038 0.770938,0.4016903 1.032794,1.6543393 0.55717,2.6653543 -0.08719,0.185326 -0.384008,0.640595 -0.659606,1.011709 -0.538866,0.725627 -0.682638,0.98558 -0.805076,1.455654 -0.09719,0.373134 -0.03261,0.809907 0.177694,1.201824 0.07764,0.144686 0.421598,0.55447 0.764356,0.91063 0.723464,0.751759 0.883628,1.027952 0.884372,1.525056 8e-4,0.583326 -0.449478,1.251735 -1.511646,2.243581 -0.764916,0.714274 -0.863924,0.771781 -1.690266,0.981749 -0.735064,0.186774 -0.74512,0.187772 -1.8507,0.183617 -0.611392,-0.0023 -1.135434,-0.01256 -1.164538,-0.0228 z m 3.030822,-0.445677 c 0.676826,-0.17191 0.819444,-0.262651 1.603486,-1.020231 0.642194,-0.620519 1.101374,-1.14358 1.19584,-1.362207 0.04503,-0.104215 0.08208,-0.34589 0.08335,-0.543668 0.0027,-0.4187 -0.09177,-0.593629 -0.622028,-1.152071 -0.565972,-0.596052 -0.93532,-1.066398 -1.077118,-1.371649 -0.114056,-0.245526 -0.136168,-0.366492 -0.131354,-0.71856 0.0094,-0.68845 0.173752,-1.03044 1.207612,-2.513054 0.323622,-0.464093 0.428608,-0.702918 0.493988,-1.123735 0.111052,-0.714788 -0.06215,-1.221399 -0.523508,-1.53125 -0.251328,-0.1687953 -0.35388,-0.1806113 -0.689886,-0.07949 -0.316166,0.09515 -0.681188,0.381999 -1.158886,0.91069 -1.037704,1.148477 -1.718366,1.478359 -2.619268,1.269425 C 44.93977,12.102102 44.669318,11.921024 43.833146,11.1132 43.195986,10.497641 42.987632,10.329907 42.657468,10.166732 42.324316,10.002079 42.218904,9.9734107 42.03656,9.9978687 41.345026,10.090619 40.9499,11.06216 41.2464,11.940722 c 0.132968,0.394004 0.35926,0.787244 0.822182,1.42875 0.430466,0.59653 0.52965,0.767197 0.679564,1.169349 0.197566,0.529978 0.221854,0.885115 0.08804,1.287241 -0.143386,0.43087 -0.323052,0.699499 -0.837652,1.252422 -0.880844,0.946441 -1.025526,1.219131 -0.913184,1.721126 0.07395,0.330457 0.264868,0.637743 0.643192,1.035249 0.303014,0.318376 1.369254,1.273624 1.568204,1.40496 0.137712,0.09091 1.010966,0.320494 1.469554,0.386354 0.174626,0.02508 0.781844,0.03414 1.349376,0.02014 0.910324,-0.02246 1.102158,-0.04331 1.62853,-0.177001 z"
       id="path1834" />
  </g>
</svg>
