<?xml version="1.0" encoding="UTF-8" standalone="no"?>
<svg
   xmlns:dc="http://purl.org/dc/elements/1.1/"
   xmlns:cc="http://creativecommons.org/ns#"
   xmlns:rdf="http://www.w3.org/1999/02/22-rdf-syntax-ns#"
   xmlns:svg="http://www.w3.org/2000/svg"
   xmlns="http://www.w3.org/2000/svg"
   xmlns:sodipodi="http://sodipodi.sourceforge.net/DTD/sodipodi-0.dtd"
   xmlns:inkscape="http://www.inkscape.org/namespaces/inkscape"
   width="13.229167mm"
   height="13.229167mm"
   viewBox="0 0 13.229169 13.229168"
   version="1.1"
   id="svg8"
   sodipodi:docname="VCS_resized_336.svg"
   inkscape:version="1.0.2-2 (e86c870879, 2021-01-15)">
  <defs
     id="defs2" />
  <sodipodi:namedview
     id="base"
     pagecolor="#ffffff"
     bordercolor="#666666"
     borderopacity="1.0"
     inkscape:pageopacity="0.0"
     inkscape:pageshadow="2"
     inkscape:zoom="4"
     inkscape:cx="28.212398"
     inkscape:cy="9.9875225"
     inkscape:document-units="mm"
     inkscape:current-layer="layer1"
     inkscape:document-rotation="0"
     showgrid="false"
     inkscape:window-width="958"
     inkscape:window-height="1008"
     inkscape:window-x="1913"
     inkscape:window-y="0"
     inkscape:window-maximized="0" />
  <metadata
     id="metadata5">
    <rdf:RDF>
      <cc:Work
         rdf:about="">
        <dc:format>image/svg+xml</dc:format>
        <dc:type
           rdf:resource="http://purl.org/dc/dcmitype/StillImage" />
        <dc:title></dc:title>
      </cc:Work>
    </rdf:RDF>
  </metadata>
  <g
     inkscape:label="Ebene 1"
     inkscape:groupmode="layer"
     id="layer1"
     transform="translate(-90.409065,11.065753)">
    <path
       style="fill:#000000;stroke-width:0.264582"
       d="m 96.454739,1.3035184 c -0.34261,-0.36642236 -0.962124,-1.19634036 -1.044512,-1.39925516 -0.03908,-0.0962586 -0.0865,-0.341703 -0.105374,-0.5454322 -0.05814,-0.62754464 -0.253288,-1.95317274 -0.300792,-2.04323534 -0.02475,-0.046925 -0.325718,-0.2114306 -0.668812,-0.3655668 -2.944178,-1.3226813 -3.627292,-1.6614295 -3.603156,-1.7867631 0.0239,-0.1240822 0.642172,-0.3198786 2.132682,-0.6753796 0.669396,-0.159658 1.513288,-0.3672596 1.875316,-0.4613376 l 0.658232,-0.171051 0.145828,-0.3439584 c 0.08021,-0.189177 0.347252,-0.8440208 0.593432,-1.4552082 0.808652,-2.0076168 1.04437,-2.513542 1.171092,-2.513542 0.04221,0 0.101746,0.0467 0.132294,0.103783 0.10338,0.193168 0.375872,1.010594 0.694356,2.0829492 0.37822,1.2734842 0.682068,2.2166264 0.73194,2.271937 0.04131,0.045819 0.166194,0.090811 2.014385,0.7257314 1.53136,0.526079 2.43417,0.892248 2.43417,0.9872748 0,0.1109985 -1.05325,0.5539709 -2.69875,1.1350335 -0.50933,0.179853 -1.108969,0.3968226 -1.332545,0.4821538 l -0.406498,0.1551486 -0.157618,0.6714319 c -0.08669,0.3692874 -0.211656,0.92884744 -0.277702,1.24346544 -0.110514,0.5264622 -0.140778,0.59812820326 -0.379898,0.8995834 -0.397452,0.5010648 -1.161994,1.25359156 -1.273606,1.25359156 -0.05469,0 -0.205204,-0.1131094 -0.334464,-0.2513542 z m 0.656572,-0.3024018 c 0.302796,-0.27224136 0.809318,-0.88077716 0.926516,-1.11311896 0.04404,-0.087312 0.108774,-0.301625 0.143848,-0.47625 0.11822,-0.58858904 0.485438,-2.06341974 0.523666,-2.10315374 0.04062,-0.042224 0.866868,-0.3512186 2.149849,-0.8039862 0.87492,-0.3087598 1.86772,-0.7102412 1.90484,-0.7703013 0.036,-0.058311 -0.50117,-0.2701528 -1.9313,-0.7615914 -1.806623,-0.6208156 -2.082049,-0.7223474 -2.147881,-0.7917932 -0.05899,-0.062228 -0.185704,-0.3913664 -0.278076,-0.7222992 -0.143794,-0.5151576 -0.75942,-2.5167568 -0.894216,-2.9073906 -0.08479,-0.245721 -0.178972,-0.455034 -0.20929,-0.4651398 -0.06478,-0.021593 -0.530578,1.0238586 -1.099676,2.4681464 -0.375694,0.953461 -0.636208,1.539384 -0.684442,1.539384 -0.01108,0 -0.63575,0.1525154 -1.38817,0.3389234 -0.752422,0.1864074 -1.546632,0.3797288 -1.764912,0.4296022 -0.602746,0.1377178 -1.058334,0.2878112 -1.058334,0.348669 0,0.056712 0.924452,0.5111904 2.364976,1.1626687 0.970398,0.4388634 1.532324,0.7165054 1.568448,0.7749556 0.03185,0.051539 0.221604,1.3895779 0.302206,2.13101454 0.04788,0.4404682 0.08863,0.5994944 0.196622,0.7672916 0.290322,0.451114 0.942438,1.19062496 1.049918,1.19062496 0.03445,0 0.180882,-0.1063148 0.325408,-0.236256 z"
       id="path6295" />
  </g>
</svg>
