<?xml version="1.0" encoding="UTF-8" standalone="no"?>
<svg
   xmlns:dc="http://purl.org/dc/elements/1.1/"
   xmlns:cc="http://creativecommons.org/ns#"
   xmlns:rdf="http://www.w3.org/1999/02/22-rdf-syntax-ns#"
   xmlns:svg="http://www.w3.org/2000/svg"
   xmlns="http://www.w3.org/2000/svg"
   xmlns:sodipodi="http://sodipodi.sourceforge.net/DTD/sodipodi-0.dtd"
   xmlns:inkscape="http://www.inkscape.org/namespaces/inkscape"
   width="13.229167mm"
   height="13.229167mm"
   viewBox="0 0 13.229169 13.229168"
   version="1.1"
   id="svg8"
   sodipodi:docname="VCS_resized_196.svg"
   inkscape:version="1.0.2-2 (e86c870879, 2021-01-15)">
  <defs
     id="defs2" />
  <sodipodi:namedview
     id="base"
     pagecolor="#ffffff"
     bordercolor="#666666"
     borderopacity="1.0"
     inkscape:pageopacity="0.0"
     inkscape:pageshadow="2"
     inkscape:zoom="2.8284271"
     inkscape:cx="12.379853"
     inkscape:cy="72.25597"
     inkscape:document-units="mm"
     inkscape:current-layer="layer1"
     inkscape:document-rotation="0"
     showgrid="false"
     inkscape:window-width="958"
     inkscape:window-height="1008"
     inkscape:window-x="1913"
     inkscape:window-y="0"
     inkscape:window-maximized="0" />
  <metadata
     id="metadata5">
    <rdf:RDF>
      <cc:Work
         rdf:about="">
        <dc:format>image/svg+xml</dc:format>
        <dc:type
           rdf:resource="http://purl.org/dc/dcmitype/StillImage" />
        <dc:title></dc:title>
      </cc:Work>
    </rdf:RDF>
  </metadata>
  <g
     inkscape:label="Ebene 1"
     inkscape:groupmode="layer"
     id="layer1"
     transform="translate(-45.287857,-11.562777)">
    <path
       style="fill:#000000;stroke-width:0.264582"
       d="m 48.48717,24.289593 c -0.149446,-0.02297 -0.189588,-0.07654 -0.357078,-0.476524 -0.07666,-0.18308 -0.408984,-0.877016 -0.738486,-1.54208 -0.338078,-0.682376 -0.637246,-1.361092 -0.686662,-1.557819 -0.16538,-0.658374 -0.198672,-1.266716 -0.10812,-1.975572 0.105332,-0.824544 0.04695,-1.382115 -0.22193,-2.119598 -0.201396,-0.552385 -0.338962,-1.161956 -0.338962,-1.501987 0,-0.254248 0.13671,-0.39818 0.773616,-0.814487 0.72143,-0.471554 1.460932,-0.795898 2.348468,-1.030034 0.246948,-0.06515 0.966146,-0.369702 2.133926,-0.903648 l 0.67872,-0.310331 0.544522,0.23258 c 0.299488,0.127919 0.791784,0.357009 1.09399,0.50909 0.331612,0.166878 0.801232,0.346124 1.184466,0.45209 0.739168,0.204384 1.54512,0.592397 2.327418,1.120498 0.290126,0.195854 0.559152,0.415383 0.597834,0.487843 0.102378,0.191774 0.04122,0.823987 -0.12431,1.285058 -0.338066,0.941653 -0.352894,1.040152 -0.308312,2.048146 0.0906,2.048485 0.04412,2.262742 -0.913686,4.211876 -0.286336,0.582692 -0.603954,1.233657 -0.705818,1.446587 -0.101866,0.212932 -0.209022,0.395073 -0.238126,0.404758 -0.07096,0.02362 -6.794698,0.05612 -6.94147,0.03355 z m 6.73375,-0.263523 c 0.118842,-0.08125 1.33831,-2.598941 1.584568,-3.271468 0.228536,-0.624126 0.26393,-1.031505 0.18492,-2.128377 -0.07673,-1.065282 -0.04181,-1.363579 0.268532,-2.293784 0.148906,-0.446319 0.209618,-0.723196 0.219624,-1.001591 l 0.01382,-0.384756 -0.43456,-0.296031 c -0.650454,-0.443101 -1.508204,-0.869761 -2.131898,-1.060446 -0.634172,-0.193888 -0.885084,-0.295342 -1.772708,-0.716779 -0.34925,-0.165822 -0.75723,-0.344109 -0.906622,-0.396194 l -0.271622,-0.0947 -0.416294,0.175742 c -0.228964,0.09666 -0.725858,0.310753 -1.104212,0.475768 -0.378354,0.165014 -0.985574,0.402124 -1.349376,0.526912 -1.272892,0.436612 -2.211434,0.902688 -2.665898,1.32387 -0.144248,0.133684 -0.149848,0.155736 -0.115852,0.456215 0.04034,0.356581 0.16988,0.84971 0.36794,1.400675 0.203706,0.566671 0.265362,1.067643 0.211226,1.716275 -0.02551,0.305594 -0.04342,0.853281 -0.03981,1.217083 0.0082,0.823581 0.10011,1.121554 0.732222,2.373193 0.244762,0.48465 0.554734,1.118534 0.688828,1.408631 0.134094,0.290097 0.27255,0.545717 0.307678,0.568044 0.08174,0.05195 6.553564,0.05363 6.629486,0.0017 z"
       id="path4035" />
  </g>
</svg>
