<?xml version="1.0" encoding="UTF-8" standalone="no"?>
<svg
   xmlns:dc="http://purl.org/dc/elements/1.1/"
   xmlns:cc="http://creativecommons.org/ns#"
   xmlns:rdf="http://www.w3.org/1999/02/22-rdf-syntax-ns#"
   xmlns:svg="http://www.w3.org/2000/svg"
   xmlns="http://www.w3.org/2000/svg"
   xmlns:sodipodi="http://sodipodi.sourceforge.net/DTD/sodipodi-0.dtd"
   xmlns:inkscape="http://www.inkscape.org/namespaces/inkscape"
   width="13.229167mm"
   height="13.229167mm"
   viewBox="0 0 13.229169 13.229168"
   version="1.1"
   id="svg8"
   sodipodi:docname="VCS_resized_181.svg"
   inkscape:version="1.0.2-2 (e86c870879, 2021-01-15)">
  <defs
     id="defs2" />
  <sodipodi:namedview
     id="base"
     pagecolor="#ffffff"
     bordercolor="#666666"
     borderopacity="1.0"
     inkscape:pageopacity="0.0"
     inkscape:pageshadow="2"
     inkscape:zoom="2.8284271"
     inkscape:cx="4.4345086"
     inkscape:cy="45.337253"
     inkscape:document-units="mm"
     inkscape:current-layer="layer1"
     inkscape:document-rotation="0"
     showgrid="false"
     inkscape:window-width="958"
     inkscape:window-height="1008"
     inkscape:window-x="1913"
     inkscape:window-y="0"
     inkscape:window-maximized="0" />
  <metadata
     id="metadata5">
    <rdf:RDF>
      <cc:Work
         rdf:about="">
        <dc:format>image/svg+xml</dc:format>
        <dc:type
           rdf:resource="http://purl.org/dc/dcmitype/StillImage" />
        <dc:title></dc:title>
      </cc:Work>
    </rdf:RDF>
  </metadata>
  <g
     inkscape:label="Ebene 1"
     inkscape:groupmode="layer"
     id="layer1"
     transform="translate(-47.390064,-18.685019)">
    <path
       style="fill:#000000;stroke-width:0.264582"
       d="m 50.737256,31.197172 c -0.0629,-0.04424 -0.315936,-0.467508 -0.562292,-0.940608 -0.246358,-0.4731 -0.626444,-1.172224 -0.84464,-1.553608 -0.47223,-0.825416 -0.648396,-1.246611 -0.728908,-1.742746 -0.08403,-0.517805 -0.0222,-1.047442 0.19639,-1.682268 0.143642,-0.417166 0.19119,-0.651298 0.21139,-1.040935 0.02776,-0.535433 0.03741,-0.491439 -0.3467,-1.580434 -0.08589,-0.243499 -0.172552,-0.605979 -0.192592,-0.805511 -0.0453,-0.45111 0.01992,-0.572695 0.59016,-1.100007 0.664706,-0.614676 1.38704,-0.920657 2.400104,-1.016685 0.305594,-0.02897 0.877094,-0.113447 1.27,-0.187733 1.374822,-0.259935 1.391664,-0.261008 2.010834,-0.128128 0.305594,0.06558 0.734218,0.174989 0.9525,0.243123 0.303666,0.09479 0.565452,0.130032 1.114666,0.150074 0.84417,0.0308 1.043884,0.0919 1.664914,0.509348 0.576708,0.387654 1.014236,0.8392 1.062726,1.096777 0.05701,0.302808 -0.04971,0.885861 -0.25986,1.419776 -0.345842,0.878656 -0.342104,1.452438 0.01632,2.505613 0.209796,0.616455 0.221942,0.684116 0.199498,1.11125 -0.0341,0.649038 -0.25549,1.252294 -0.851346,2.319856 -0.272182,0.487651 -0.654606,1.196202 -0.849834,1.574556 -0.195228,0.378354 -0.390764,0.735542 -0.434526,0.79375 -0.07782,0.103509 -0.150114,0.106154 -3.292,0.1204 -2.804648,0.01272 -3.22695,0.0044 -3.326802,-0.06586 z m 6.343546,-0.252173 c 0.06645,-0.0439 0.260636,-0.35077 0.431516,-0.681928 0.170882,-0.331158 0.549096,-1.03793 0.840478,-1.570604 0.929702,-1.699582 1.01241,-2.157026 0.611356,-3.381336 -0.202666,-0.618686 -0.221552,-0.723008 -0.2184,-1.206416 0.0038,-0.582554 0.04668,-0.783683 0.312512,-1.465702 0.108018,-0.277128 0.19301,-0.60665 0.213592,-0.82811 l 0.03419,-0.367824 -0.258458,-0.276527 c -0.29323,-0.31373 -0.762986,-0.661385 -1.169446,-0.865481 -0.235728,-0.118366 -0.386914,-0.14646 -1.036376,-0.192586 -0.595376,-0.04228 -0.891466,-0.09251 -1.364426,-0.231437 -1.172344,-0.344369 -1.232022,-0.345633 -2.773626,-0.05875 -0.378354,0.07041 -0.9187,0.152779 -1.20077,0.183044 -0.622466,0.06679 -1.234362,0.252933 -1.645728,0.500646 -0.396458,0.238735 -0.974552,0.747146 -1.07882,0.948776 -0.122756,0.237384 -0.04866,0.698951 0.222118,1.383568 0.38269,0.967583 0.40105,1.54681 0.08053,2.540384 -0.220424,0.683283 -0.272172,1.385138 -0.136688,1.853919 0.09882,0.341931 0.388702,0.92094 0.939572,1.876706 0.192906,0.334698 0.501512,0.894292 0.685788,1.243542 l 0.335048,0.635 0.238018,0.03551 c 0.13091,0.01953 1.493336,0.02874 3.02761,0.02047 2.380346,-0.01283 2.807318,-0.02675 2.910418,-0.09486 z"
       id="path2956" />
  </g>
</svg>
