<?xml version="1.0" encoding="UTF-8" standalone="no"?>
<svg
   xmlns:dc="http://purl.org/dc/elements/1.1/"
   xmlns:cc="http://creativecommons.org/ns#"
   xmlns:rdf="http://www.w3.org/1999/02/22-rdf-syntax-ns#"
   xmlns:svg="http://www.w3.org/2000/svg"
   xmlns="http://www.w3.org/2000/svg"
   xmlns:sodipodi="http://sodipodi.sourceforge.net/DTD/sodipodi-0.dtd"
   xmlns:inkscape="http://www.inkscape.org/namespaces/inkscape"
   width="13.229167mm"
   height="13.229167mm"
   viewBox="0 0 13.229169 13.229168"
   version="1.1"
   id="svg8"
   sodipodi:docname="VCS_resized_180.svg"
   inkscape:version="1.0.2-2 (e86c870879, 2021-01-15)">
  <defs
     id="defs2" />
  <sodipodi:namedview
     id="base"
     pagecolor="#ffffff"
     bordercolor="#666666"
     borderopacity="1.0"
     inkscape:pageopacity="0.0"
     inkscape:pageshadow="2"
     inkscape:zoom="2.8284271"
     inkscape:cx="14.333621"
     inkscape:cy="45.986166"
     inkscape:document-units="mm"
     inkscape:current-layer="layer1"
     inkscape:document-rotation="0"
     showgrid="false"
     inkscape:window-width="958"
     inkscape:window-height="1008"
     inkscape:window-x="1913"
     inkscape:window-y="0"
     inkscape:window-maximized="0" />
  <metadata
     id="metadata5">
    <rdf:RDF>
      <cc:Work
         rdf:about="">
        <dc:format>image/svg+xml</dc:format>
        <dc:type
           rdf:resource="http://purl.org/dc/dcmitype/StillImage" />
        <dc:title></dc:title>
      </cc:Work>
    </rdf:RDF>
  </metadata>
  <g
     inkscape:label="Ebene 1"
     inkscape:groupmode="layer"
     id="layer1"
     transform="translate(-44.770924,-18.513327)">
    <path
       style="fill:#000000;stroke-width:0.264582"
       d="m 48.140797,31.040077 c -0.05149,-0.02998 -0.190218,-0.246629 -0.308282,-0.481444 -0.118062,-0.234815 -0.443604,-0.834642 -0.723426,-1.332947 -1.096386,-1.952436 -1.14531,-2.079358 -1.144734,-2.96976 4e-4,-0.525258 0.01732,-0.628577 0.173988,-1.058333 0.242976,-0.666534 0.28067,-0.84084 0.286086,-1.322917 0.0037,-0.333319 -0.02442,-0.502095 -0.13245,-0.79375 -0.07547,-0.203729 -0.18811,-0.509303 -0.250322,-0.679053 -0.17586,-0.479853 -0.228284,-1.023097 -0.120622,-1.249974 0.113476,-0.239133 0.785066,-0.88826 1.144168,-1.105899 0.466344,-0.282634 1.107752,-0.472061 1.731538,-0.511375 0.517934,-0.03264 1.203644,-0.132864 2.2049,-0.322262 0.522558,-0.09885 0.720006,-0.07809 1.704236,0.17912 0.61091,0.159653 0.833168,0.191494 1.534584,0.219851 0.818022,0.03307 0.821196,0.03368 1.190624,0.229985 0.408354,0.216983 1.06413,0.74521 1.318308,1.061891 0.153218,0.190897 0.162786,0.22868 0.154126,0.608542 -0.0091,0.399625 -0.04144,0.521423 -0.360328,1.357508 -0.266122,0.697742 -0.234722,1.327168 0.111364,2.232319 0.436228,1.140914 0.296662,1.83591 -0.735434,3.662258 -0.289576,0.51242 -0.626618,1.134079 -0.748982,1.381464 -0.35223,0.712108 -0.474206,0.879927 -0.66769,0.918623 -0.293882,0.05878 -6.258136,0.03642 -6.361652,-0.02385 z m 6.294346,-0.250686 c 0.053,-0.02837 0.296508,-0.428969 0.541122,-0.890229 0.244612,-0.461259 0.582488,-1.081957 0.75083,-1.37933 0.89601,-1.582765 1.033504,-2.228585 0.684764,-3.216406 -0.255096,-0.722574 -0.319402,-1.00364 -0.318396,-1.391644 0.0012,-0.464706 0.104082,-0.933707 0.333724,-1.52139 0.10272,-0.262874 0.202912,-0.620686 0.22265,-0.795136 0.03431,-0.303283 0.0281,-0.327362 -0.141642,-0.549465 -0.221444,-0.289749 -0.817024,-0.75016 -1.23586,-0.955379 -0.287238,-0.140739 -0.385588,-0.158763 -1.031874,-0.189099 -0.544584,-0.02556 -0.859012,-0.07149 -1.322916,-0.193217 -1.1863,-0.311291 -1.397304,-0.32133 -2.54,-0.120848 -0.422012,0.07404 -1.077058,0.167913 -1.45566,0.208607 -1.134672,0.121961 -1.803484,0.430252 -2.486226,1.146037 l -0.30606,0.320871 0.02817,0.410954 c 0.01888,0.275396 0.07516,0.522902 0.170638,0.750332 0.317552,0.756433 0.361672,0.945266 0.363658,1.556461 0.0018,0.545022 -0.0113,0.619144 -0.205274,1.164166 -0.19646,0.552 -0.207248,0.614901 -0.208726,1.217084 -0.0014,0.600025 0.0078,0.656521 0.16826,1.025736 0.0934,0.214904 0.358446,0.714967 0.588986,1.11125 0.23054,0.396282 0.603402,1.065795 0.828582,1.487805 0.22518,0.422011 0.420404,0.779198 0.43383,0.79375 0.09702,0.105151 5.941756,0.113808 6.137422,0.0091 z"
       id="path2940" />
  </g>
</svg>
