<?xml version="1.0" encoding="UTF-8" standalone="no"?>
<svg
   xmlns:dc="http://purl.org/dc/elements/1.1/"
   xmlns:cc="http://creativecommons.org/ns#"
   xmlns:rdf="http://www.w3.org/1999/02/22-rdf-syntax-ns#"
   xmlns:svg="http://www.w3.org/2000/svg"
   xmlns="http://www.w3.org/2000/svg"
   xmlns:sodipodi="http://sodipodi.sourceforge.net/DTD/sodipodi-0.dtd"
   xmlns:inkscape="http://www.inkscape.org/namespaces/inkscape"
   width="13.229167mm"
   height="13.229167mm"
   viewBox="0 0 13.229169 13.229168"
   version="1.1"
   id="svg8"
   sodipodi:docname="VCS_resized_151.svg"
   inkscape:version="1.0.2-2 (e86c870879, 2021-01-15)">
  <defs
     id="defs2" />
  <sodipodi:namedview
     id="base"
     pagecolor="#ffffff"
     bordercolor="#666666"
     borderopacity="1.0"
     inkscape:pageopacity="0.0"
     inkscape:pageshadow="2"
     inkscape:zoom="2.8284271"
     inkscape:cx="-5.8148416"
     inkscape:cy="63.256733"
     inkscape:document-units="mm"
     inkscape:current-layer="layer1"
     inkscape:document-rotation="0"
     showgrid="false"
     inkscape:window-width="958"
     inkscape:window-height="1008"
     inkscape:window-x="1913"
     inkscape:window-y="0"
     inkscape:window-maximized="0" />
  <metadata
     id="metadata5">
    <rdf:RDF>
      <cc:Work
         rdf:about="">
        <dc:format>image/svg+xml</dc:format>
        <dc:type
           rdf:resource="http://purl.org/dc/dcmitype/StillImage" />
        <dc:title></dc:title>
      </cc:Work>
    </rdf:RDF>
  </metadata>
  <g
     inkscape:label="Ebene 1"
     inkscape:groupmode="layer"
     id="layer1"
     transform="translate(-39.738491,-9.8549347)">
    <path
       style="fill:#000000;stroke-width:0.264582"
       d="m 44.168569,22.512587 c -0.784846,-0.07689 -0.702114,-0.02112 -1.17858,-0.794413 -0.163146,-0.264776 -0.60661,-0.945756 -0.985476,-1.513287 -0.748936,-1.121882 -0.958654,-1.51494 -1.041566,-1.952139 -0.142302,-0.750353 -0.03423,-1.197334 0.468714,-1.938652 0.460824,-0.679231 0.57784,-0.906762 0.64298,-1.250244 0.08351,-0.440341 -0.01056,-0.828006 -0.395764,-1.630946 -0.393706,-0.820665 -0.477488,-1.184267 -0.393542,-1.707914 0.08581,-0.535257 0.443726,-1.051799 0.872698,-1.259461 0.32943,-0.159474 0.659184,-0.122067 1.290902,0.146441 0.276488,0.11752 0.81227,0.293545 1.190624,0.391165 0.679386,0.175291 0.702354,0.177485 1.852084,0.176907 1.397758,-7e-4 1.793694,-0.07515 2.69864,-0.507434 0.72472,-0.346191 0.997894,-0.38291 1.385908,-0.186288 0.324694,0.164535 0.512666,0.378352 0.719056,0.817925 0.146004,0.31096 0.155044,0.366653 0.134764,0.830344 -0.02126,0.486029 -0.02899,0.511439 -0.349266,1.14835 -0.44029,0.875561 -0.526562,1.202808 -0.440526,1.670987 0.08728,0.474932 0.203278,0.722776 0.582726,1.245035 0.175034,0.240914 0.370808,0.556193 0.43505,0.70062 0.23535,0.529104 0.174148,1.416806 -0.140488,2.037711 -0.07415,0.146325 -0.30837,0.533065 -0.520492,0.859423 -0.212122,0.326359 -0.651336,1.012741 -0.976032,1.525296 -0.324698,0.512554 -0.62642,0.961846 -0.670498,0.998427 -0.245234,0.203527 -3.742186,0.333194 -5.181916,0.192147 z m 4.060218,-0.248878 c 0.354258,-0.03181 0.715954,-0.09143 0.803768,-0.132476 0.106962,-0.05 0.254768,-0.227401 0.447798,-0.537468 0.158476,-0.25456 0.513796,-0.808117 0.789602,-1.230128 1.082008,-1.655587 1.223618,-1.959061 1.220584,-2.61575 -0.0023,-0.503586 -0.114922,-0.796287 -0.561218,-1.458918 -0.205856,-0.30564 -0.428824,-0.705295 -0.495486,-0.888122 -0.234864,-0.644133 -0.06715,-1.471607 0.487486,-2.405197 0.210736,-0.354721 0.223902,-0.401262 0.24215,-0.855961 0.01782,-0.443766 0.0078,-0.503256 -0.130224,-0.771521 -0.182166,-0.354144 -0.508112,-0.615202 -0.828008,-0.663174 -0.19623,-0.02943 -0.323216,0.0031 -0.886526,0.226918 -1.16305,0.462158 -1.439018,0.51437 -2.721238,0.514851 -1.293136,4.8e-4 -1.690468,-0.06499 -3.059594,-0.504213 -0.45032,-0.144464 -0.869632,-0.262662 -0.931804,-0.262662 -0.171958,0 -0.48869,0.14765 -0.658732,0.307078 -0.26814,0.251406 -0.402308,0.615658 -0.402894,1.09382 -6e-4,0.410308 0.0089,0.441718 0.341758,1.139473 0.344772,0.722769 0.506084,1.271419 0.502664,1.709651 -0.0027,0.34488 -0.153654,0.699477 -0.577642,1.356809 -0.485212,0.752256 -0.601494,1.091785 -0.571672,1.66921 0.0277,0.536255 0.138024,0.760431 1.041694,2.116667 0.368456,0.552979 0.808766,1.227125 0.97847,1.498101 0.169704,0.270976 0.361154,0.52715 0.425444,0.569275 0.06429,0.04213 0.329144,0.097 0.58856,0.121935 0.698408,0.06714 3.214734,0.06829 3.95506,0.0018 z"
       id="path2460" />
  </g>
</svg>
