<?xml version="1.0" encoding="UTF-8" standalone="no"?>
<svg
   xmlns:dc="http://purl.org/dc/elements/1.1/"
   xmlns:cc="http://creativecommons.org/ns#"
   xmlns:rdf="http://www.w3.org/1999/02/22-rdf-syntax-ns#"
   xmlns:svg="http://www.w3.org/2000/svg"
   xmlns="http://www.w3.org/2000/svg"
   xmlns:sodipodi="http://sodipodi.sourceforge.net/DTD/sodipodi-0.dtd"
   xmlns:inkscape="http://www.inkscape.org/namespaces/inkscape"
   width="13.229167mm"
   height="13.229167mm"
   viewBox="0 0 13.229169 13.229168"
   version="1.1"
   id="svg8"
   sodipodi:docname="VCS_resized_168.svg"
   inkscape:version="1.0.2-2 (e86c870879, 2021-01-15)">
  <defs
     id="defs2" />
  <sodipodi:namedview
     id="base"
     pagecolor="#ffffff"
     bordercolor="#666666"
     borderopacity="1.0"
     inkscape:pageopacity="0.0"
     inkscape:pageshadow="2"
     inkscape:zoom="2.8284271"
     inkscape:cx="-6.0148181"
     inkscape:cy="18.895749"
     inkscape:document-units="mm"
     inkscape:current-layer="layer1"
     inkscape:document-rotation="0"
     showgrid="false"
     inkscape:window-width="958"
     inkscape:window-height="1008"
     inkscape:window-x="1913"
     inkscape:window-y="0"
     inkscape:window-maximized="0" />
  <metadata
     id="metadata5">
    <rdf:RDF>
      <cc:Work
         rdf:about="">
        <dc:format>image/svg+xml</dc:format>
        <dc:type
           rdf:resource="http://purl.org/dc/dcmitype/StillImage" />
        <dc:title></dc:title>
      </cc:Work>
    </rdf:RDF>
  </metadata>
  <g
     inkscape:label="Ebene 1"
     inkscape:groupmode="layer"
     id="layer1"
     transform="translate(-39.791401,-21.592112)">
    <path
       style="fill:#000000;stroke-width:0.264582"
       d="m 43.679749,34.098423 c -0.193946,-0.01012 -0.376152,-0.04713 -0.404902,-0.08224 -0.02875,-0.03511 -0.331002,-0.550885 -0.671668,-1.146172 -0.340666,-0.595287 -0.756428,-1.297756 -0.923912,-1.561042 -0.560014,-0.880341 -0.696718,-1.22525 -0.770726,-1.944583 -0.04991,-0.485055 0.02838,-0.792203 0.401894,-1.576827 0.46866,-0.984488 0.513622,-1.411135 0.227688,-2.160473 -0.0741,-0.194188 -0.190262,-0.497931 -0.258142,-0.674985 -0.307308,-0.801569 -0.205454,-1.404954 0.335946,-1.990158 0.512596,-0.554071 1.124344,-0.744309 1.834366,-0.570444 0.116418,0.02851 0.735542,0.0458 1.375834,0.03843 0.640292,-0.0074 1.771386,-0.0057 2.513542,0.0037 1.0781,0.01369 1.427198,3.92e-4 1.73648,-0.06615 0.53946,-0.116054 1.038008,-0.106611 1.328464,0.02516 0.351626,0.159525 0.851422,0.627865 1.075786,1.00808 0.16106,0.27294 0.198436,0.388343 0.198436,0.612692 0,0.393234 -0.09478,0.788867 -0.274816,1.14715 -0.08565,0.170448 -0.201638,0.489408 -0.257748,0.708801 -0.08516,0.332967 -0.09322,0.454001 -0.04876,0.732318 0.07004,0.438456 0.06143,0.415824 0.467586,1.227918 l 0.35186,0.703525 -0.0043,0.540017 c -0.0065,0.817383 -0.109208,1.078543 -1.034014,2.630225 -0.338252,0.567531 -0.742888,1.267712 -0.899192,1.555958 -0.458114,0.844821 -0.382218,0.80147 -1.4756,0.842843 -0.9133,0.03456 -4.138104,0.03204 -4.824086,-0.0038 z m 4.509948,-0.220702 c 0.540276,-0.02386 1.028432,-0.06843 1.084792,-0.09904 0.05636,-0.03062 0.221534,-0.271785 0.367054,-0.535928 0.145522,-0.264143 0.577884,-1.017001 0.960804,-1.673018 0.929416,-1.592268 0.993184,-1.749818 0.995388,-2.459257 l 0.0018,-0.555625 -0.348696,-0.714375 c -0.440472,-0.902394 -0.487696,-1.087359 -0.42207,-1.653119 0.04812,-0.414861 0.211034,-0.992096 0.31588,-1.119246 0.09956,-0.120743 0.269678,-0.725493 0.269678,-0.958699 0,-0.142222 -0.04634,-0.332734 -0.112454,-0.46233 -0.158498,-0.310681 -0.63269,-0.790654 -0.925708,-0.936995 -0.235886,-0.117807 -0.278642,-0.121739 -0.888058,-0.08166 -0.519468,0.03417 -5.454686,0.04443 -6.598402,0.01373 -0.567168,-0.01523 -1.115324,0.377619 -1.41059,1.010927 -0.185754,0.398416 -0.15035,0.767892 0.138568,1.446072 0.483998,1.1361 0.498592,1.724143 0.06475,2.609027 -0.39819,0.812167 -0.504232,1.204618 -0.469926,1.739159 0.03213,0.500641 0.148812,0.749524 1.061556,2.264261 0.391872,0.650328 0.811912,1.364886 0.933424,1.587908 0.12151,0.223023 0.259178,0.437335 0.305926,0.47625 0.14791,0.123129 2.858502,0.182227 4.676358,0.101959 z"
       id="path2732" />
  </g>
</svg>
