<?xml version="1.0" encoding="UTF-8" standalone="no"?>
<svg
   xmlns:dc="http://purl.org/dc/elements/1.1/"
   xmlns:cc="http://creativecommons.org/ns#"
   xmlns:rdf="http://www.w3.org/1999/02/22-rdf-syntax-ns#"
   xmlns:svg="http://www.w3.org/2000/svg"
   xmlns="http://www.w3.org/2000/svg"
   xmlns:sodipodi="http://sodipodi.sourceforge.net/DTD/sodipodi-0.dtd"
   xmlns:inkscape="http://www.inkscape.org/namespaces/inkscape"
   width="13.229167mm"
   height="13.229167mm"
   viewBox="0 0 13.229169 13.229168"
   version="1.1"
   id="svg8"
   sodipodi:docname="VCS_resized_193.svg"
   inkscape:version="1.0.2-2 (e86c870879, 2021-01-15)">
  <defs
     id="defs2" />
  <sodipodi:namedview
     id="base"
     pagecolor="#ffffff"
     bordercolor="#666666"
     borderopacity="1.0"
     inkscape:pageopacity="0.0"
     inkscape:pageshadow="2"
     inkscape:zoom="2.8284271"
     inkscape:cx="20.194434"
     inkscape:cy="44.554334"
     inkscape:document-units="mm"
     inkscape:current-layer="layer1"
     inkscape:document-rotation="0"
     showgrid="false"
     inkscape:window-width="958"
     inkscape:window-height="1008"
     inkscape:window-x="1913"
     inkscape:window-y="0"
     inkscape:window-maximized="0" />
  <metadata
     id="metadata5">
    <rdf:RDF>
      <cc:Work
         rdf:about="">
        <dc:format>image/svg+xml</dc:format>
        <dc:type
           rdf:resource="http://purl.org/dc/dcmitype/StillImage" />
        <dc:title></dc:title>
      </cc:Work>
    </rdf:RDF>
  </metadata>
  <g
     inkscape:label="Ebene 1"
     inkscape:groupmode="layer"
     id="layer1"
     transform="translate(-43.220249,-18.892168)">
    <path
       style="fill:#000000;stroke-width:0.264582"
       d="m 46.666046,31.578954 c -0.298908,-0.02311 -0.35066,-0.04321 -0.408674,-0.15875 -0.03653,-0.07276 -0.2866,-0.584729 -0.555702,-1.137709 -0.269104,-0.552979 -0.562608,-1.136385 -0.652232,-1.296458 -0.384076,-0.685966 -0.6076,-1.475507 -0.6076,-2.146178 0,-0.185736 0.03819,-0.594407 0.08487,-0.908158 0.118692,-0.797734 0.08276,-1.459113 -0.10717,-1.972747 -0.238104,-0.64391 -0.34258,-1.045886 -0.380452,-1.463818 -0.0347,-0.382955 -0.03164,-0.397433 0.117412,-0.554255 0.233094,-0.245253 0.895782,-0.69497 1.386442,-0.940873 0.241806,-0.121186 0.741868,-0.304361 1.11125,-0.407055 0.864532,-0.240356 1.739516,-0.550541 2.555054,-0.905775 0.128268,-0.05587 0.33324,-0.144602 0.455494,-0.197178 0.122252,-0.05258 0.265126,-0.08243 0.3175,-0.06635 0.252964,0.07768 1.103774,0.421633 1.581688,0.639418 0.324382,0.147822 0.801138,0.307179 1.214656,0.406003 0.383866,0.09174 0.833876,0.239552 1.031978,0.338972 0.855162,0.429177 1.70148,1.023509 1.804252,1.267048 0.0912,0.216129 -0.01144,0.976788 -0.188606,1.397723 -0.302762,0.719331 -0.365998,1.427973 -0.216142,2.42221 0.135054,0.896045 0.08176,1.539833 -0.185008,2.23473 -0.11252,0.293108 -1.620964,3.34343 -1.683808,3.404936 -0.04269,0.04178 -6.180808,0.08249 -6.675206,0.04427 z m 6.378502,-0.242541 c 0.08132,-0.02184 0.304846,-0.420817 0.866732,-1.54709 1.141276,-2.287625 1.178406,-2.429867 1.00232,-3.839778 -0.148162,-1.186326 -0.10758,-1.537911 0.315284,-2.731425 0.05671,-0.160073 0.119384,-0.45914 0.139268,-0.664593 l 0.03615,-0.373553 -0.20992,-0.189648 C 54.82976,21.66091 53.66982,21.011741 53.226004,20.888707 c -0.860622,-0.23858 -1.399794,-0.426105 -2.152826,-0.748754 -0.471002,-0.201808 -0.938594,-0.380268 -1.039094,-0.396577 -0.13998,-0.02272 -0.323402,0.02679 -0.78405,0.211627 -1.039502,0.417101 -1.691376,0.652355 -2.360534,0.851891 -0.831776,0.248026 -1.293462,0.446227 -1.869598,0.802609 -0.464088,0.287074 -0.736814,0.542371 -0.736814,0.689728 0,0.275336 0.145208,0.905656 0.324288,1.407674 0.300304,0.841852 0.357974,1.510995 0.203844,2.365205 -0.07706,0.427045 -0.06242,1.361336 0.02658,1.696844 0.07857,0.296197 1.64304,3.486843 1.744512,3.557835 0.064,0.04477 6.296786,0.05406 6.462238,0.0096 z"
       id="path3971" />
  </g>
</svg>
