<?xml version="1.0" encoding="UTF-8" standalone="no"?>
<svg
   xmlns:dc="http://purl.org/dc/elements/1.1/"
   xmlns:cc="http://creativecommons.org/ns#"
   xmlns:rdf="http://www.w3.org/1999/02/22-rdf-syntax-ns#"
   xmlns:svg="http://www.w3.org/2000/svg"
   xmlns="http://www.w3.org/2000/svg"
   xmlns:sodipodi="http://sodipodi.sourceforge.net/DTD/sodipodi-0.dtd"
   xmlns:inkscape="http://www.inkscape.org/namespaces/inkscape"
   width="13.229167mm"
   height="13.229167mm"
   viewBox="0 0 13.229169 13.229168"
   version="1.1"
   id="svg8"
   sodipodi:docname="VCS_resized_143.svg"
   inkscape:version="1.0.2-2 (e86c870879, 2021-01-15)">
  <defs
     id="defs2" />
  <sodipodi:namedview
     id="base"
     pagecolor="#ffffff"
     bordercolor="#666666"
     borderopacity="1.0"
     inkscape:pageopacity="0.0"
     inkscape:pageshadow="2"
     inkscape:zoom="2.8284271"
     inkscape:cx="-0.047258578"
     inkscape:cy="30.500375"
     inkscape:document-units="mm"
     inkscape:current-layer="layer1"
     inkscape:document-rotation="0"
     showgrid="false"
     inkscape:window-width="958"
     inkscape:window-height="1008"
     inkscape:window-x="1913"
     inkscape:window-y="0"
     inkscape:window-maximized="0" />
  <metadata
     id="metadata5">
    <rdf:RDF>
      <cc:Work
         rdf:about="">
        <dc:format>image/svg+xml</dc:format>
        <dc:type
           rdf:resource="http://purl.org/dc/dcmitype/StillImage" />
        <dc:title></dc:title>
      </cc:Work>
    </rdf:RDF>
  </metadata>
  <g
     inkscape:label="Ebene 1"
     inkscape:groupmode="layer"
     id="layer1"
     transform="translate(-38.212486,-18.521721)">
    <path
       style="fill:#000000;stroke-width:0.264582"
       d="m 42.735948,31.232087 c -0.378354,-0.05552 -0.704776,-0.102179 -0.725382,-0.103692 -0.02061,-0.0015 -0.397094,-0.53258 -0.836642,-1.180147 -0.439548,-0.647568 -0.905408,-1.320271 -1.035242,-1.494896 -0.489914,-0.658924 -0.710026,-1.235483 -0.710026,-1.859839 0,-0.605756 0.09332,-0.818631 0.677514,-1.545568 0.480556,-0.597969 0.645402,-0.98724 0.645402,-1.524062 0,-0.407492 -0.156394,-0.848499 -0.536392,-1.512534 -0.340252,-0.59458 -0.416108,-0.847726 -0.416108,-1.388648 0,-0.693137 0.226682,-1.171518 0.708842,-1.495912 0.388964,-0.261692 0.614196,-0.242146 1.345488,0.116759 1.291244,0.63372 2.29751,0.928345 3.170686,0.928345 0.717278,0 1.701866,-0.248256 2.185252,-0.550995 1.13613,-0.711543 1.420884,-0.791125 1.899214,-0.530786 0.430704,0.234419 0.692648,0.727754 0.731488,1.377658 0.03283,0.549387 -0.06799,0.915293 -0.406944,1.476832 -0.411068,0.681021 -0.549688,1.05214 -0.553422,1.481666 -0.0047,0.535358 0.15839,0.962489 0.555488,1.455209 0.394722,0.489772 0.653898,0.912491 0.729992,1.190625 0.140502,0.513553 0.03008,1.231437 -0.273764,1.779743 -0.214538,0.38715 -2.020708,3.078621 -2.122878,3.163415 -0.04168,0.03459 -0.333804,0.110443 -0.649172,0.168564 -0.873938,0.161065 -3.423344,0.189135 -4.383394,0.04826 z m 4.254418,-0.283724 c 0.244856,-0.0469 0.491108,-0.127193 0.548392,-0.178815 0.09109,-0.08209 0.716424,-0.984176 1.745822,-2.518472 0.172276,-0.256773 0.385458,-0.62121 0.473738,-0.809859 0.148644,-0.317645 0.158854,-0.377011 0.13812,-0.80314 -0.02754,-0.565986 -0.147448,-0.845079 -0.652392,-1.518475 -0.478882,-0.638639 -0.625754,-0.961851 -0.651222,-1.433097 -0.0334,-0.617982 0.167684,-1.211567 0.679718,-2.006487 0.580526,-0.901251 0.350126,-2.090338 -0.456618,-2.356587 -0.258788,-0.08541 -0.461052,-0.02118 -1.17532,0.373233 -0.704802,0.389181 -1.13552,0.552245 -1.736284,0.657329 -1.197778,0.209513 -1.981418,0.05865 -3.942342,-0.758971 -0.425684,-0.177492 -0.837214,-0.322712 -0.914512,-0.322712 -0.358754,0 -0.734548,0.315086 -0.903534,0.75757 -0.12605,0.330055 -0.09693,1.036456 0.05493,1.332638 0.608392,1.186566 0.711534,1.416987 0.78634,1.756697 0.04613,0.209474 0.08411,0.471412 0.08441,0.582083 10e-4,0.367321 -0.208122,0.828864 -0.62345,1.376142 -0.216384,0.285126 -0.46699,0.673193 -0.556904,0.86237 -0.140184,0.294949 -0.163544,0.404277 -0.16395,0.767292 -4e-4,0.376025 0.01922,0.461771 0.175702,0.767291 0.214628,0.419037 0.528724,0.908829 0.899272,1.402292 0.152982,0.203729 0.51602,0.723005 0.80675,1.153945 0.290732,0.430942 0.58033,0.806633 0.643552,0.834872 0.06322,0.02824 0.34117,0.08511 0.61766,0.126375 0.710852,0.106101 3.494386,0.07672 4.122126,-0.04351 z"
       id="path2332" />
  </g>
</svg>
