<?xml version="1.0" encoding="UTF-8" standalone="no"?>
<svg
   xmlns:dc="http://purl.org/dc/elements/1.1/"
   xmlns:cc="http://creativecommons.org/ns#"
   xmlns:rdf="http://www.w3.org/1999/02/22-rdf-syntax-ns#"
   xmlns:svg="http://www.w3.org/2000/svg"
   xmlns="http://www.w3.org/2000/svg"
   xmlns:sodipodi="http://sodipodi.sourceforge.net/DTD/sodipodi-0.dtd"
   xmlns:inkscape="http://www.inkscape.org/namespaces/inkscape"
   width="13.229167mm"
   height="13.229167mm"
   viewBox="0 0 13.229169 13.229168"
   version="1.1"
   id="svg8"
   sodipodi:docname="VCS_resized_179.svg"
   inkscape:version="1.0.2-2 (e86c870879, 2021-01-15)">
  <defs
     id="defs2" />
  <sodipodi:namedview
     id="base"
     pagecolor="#ffffff"
     bordercolor="#666666"
     borderopacity="1.0"
     inkscape:pageopacity="0.0"
     inkscape:pageshadow="2"
     inkscape:zoom="2.8284271"
     inkscape:cx="32.69721"
     inkscape:cy="72.094668"
     inkscape:document-units="mm"
     inkscape:current-layer="layer1"
     inkscape:document-rotation="0"
     showgrid="false"
     inkscape:window-width="958"
     inkscape:window-height="1008"
     inkscape:window-x="1913"
     inkscape:window-y="0"
     inkscape:window-maximized="0" />
  <metadata
     id="metadata5">
    <rdf:RDF>
      <cc:Work
         rdf:about="">
        <dc:format>image/svg+xml</dc:format>
        <dc:type
           rdf:resource="http://purl.org/dc/dcmitype/StillImage" />
        <dc:title></dc:title>
      </cc:Work>
    </rdf:RDF>
  </metadata>
  <g
     inkscape:label="Ebene 1"
     inkscape:groupmode="layer"
     id="layer1"
     transform="translate(-39.912224,-11.605452)">
    <path
       style="fill:#000000;stroke-width:0.264582"
       d="m 43.280861,24.121994 c -0.04812,-0.03638 -0.186146,-0.256646 -0.306726,-0.489479 -0.356806,-0.688976 -0.676518,-1.272831 -1.173398,-2.142857 -0.588964,-1.031259 -0.69795,-1.365627 -0.698634,-2.143393 -6e-4,-0.599108 -0.0014,-0.595282 0.314926,-1.428007 0.09614,-0.253117 0.148606,-0.511727 0.166392,-0.820209 0.02794,-0.484587 -0.01456,-0.677179 -0.349194,-1.582558 -0.09689,-0.262136 -0.177462,-0.601623 -0.196644,-0.828529 -0.0403,-0.47678 0.02076,-0.591235 0.61078,-1.144868 0.644544,-0.604793 1.470208,-0.942693 2.303536,-0.942713 0.352522,-9e-6 1.823872,-0.196202 2.40324,-0.320455 0.214068,-0.04591 0.367232,-0.03632 0.836778,0.05237 0.31611,0.05971 0.75334,0.158658 0.97162,0.219887 0.304252,0.08535 0.575946,0.114386 1.164168,0.124438 0.55486,0.0095 0.830434,0.03703 0.99536,0.09951 0.5018,0.190086 1.349874,0.866153 1.605002,1.279475 0.174648,0.282938 0.10752,0.987456 -0.147264,1.545546 -0.348366,0.763081 -0.373138,1.602651 -0.06993,2.370287 0.262454,0.664465 0.314394,0.873315 0.315008,1.266625 0.001,0.64651 -0.250592,1.353843 -0.851378,2.393487 -0.14855,0.257064 -0.425546,0.765045 -0.615546,1.128847 -0.19,0.363802 -0.43845,0.819072 -0.55211,1.011711 -0.198024,0.335625 -0.21683,0.351647 -0.450284,0.383646 -0.133996,0.01837 -1.581162,0.03339 -3.215922,0.03339 -2.295896,0 -2.992202,-0.01505 -3.05978,-0.06615 z m 5.42282,-0.190306 c 1.020478,-0.03993 0.904854,0.02517 1.28329,-0.722507 0.13258,-0.261937 0.314076,-0.607218 0.403326,-0.767291 0.08925,-0.160073 0.288814,-0.517261 0.443474,-0.79375 0.640924,-1.14579 0.842466,-1.643798 0.89944,-2.2225 0.03699,-0.375759 -0.01952,-0.621134 -0.347352,-1.508125 -0.159934,-0.432721 -0.175318,-0.525279 -0.168318,-1.012673 0.0078,-0.542544 0.04899,-0.709165 0.410308,-1.659619 0.04979,-0.130969 0.103594,-0.40872 0.119568,-0.617226 l 0.02904,-0.3791 -0.285106,-0.302134 c -0.295058,-0.312679 -0.693004,-0.607885 -1.105316,-0.819954 -0.204086,-0.10497 -0.351582,-0.12784 -1.031874,-0.159994 -0.639898,-0.03025 -0.916402,-0.06998 -1.426528,-0.204977 -0.928288,-0.245663 -1.236382,-0.253846 -2.515764,-0.06682 -0.596636,0.08722 -1.297512,0.174416 -1.557506,0.193774 -0.559346,0.04164 -1.036552,0.187581 -1.463654,0.447604 -0.375888,0.228844 -1.043426,0.871614 -1.087478,1.04713 -0.05903,0.235196 0.03917,0.762377 0.218056,1.170567 0.249836,0.570099 0.350456,1.00603 0.350456,1.518327 0,0.382199 -0.02966,0.526806 -0.21881,1.066943 -0.185928,0.530929 -0.22301,0.708316 -0.246762,1.180446 -0.03767,0.748877 0.03286,0.941981 0.90842,2.487084 0.387572,0.683948 0.788566,1.4116 0.891098,1.617004 0.102532,0.205405 0.219528,0.40094 0.259994,0.434523 0.04103,0.03405 0.306324,0.06877 0.599774,0.07848 0.984652,0.0326 3.751126,0.0295 4.638222,-0.0052 z"
       id="path2924" />
  </g>
</svg>
