<?xml version="1.0" encoding="UTF-8" standalone="no"?>
<svg
   xmlns:dc="http://purl.org/dc/elements/1.1/"
   xmlns:cc="http://creativecommons.org/ns#"
   xmlns:rdf="http://www.w3.org/1999/02/22-rdf-syntax-ns#"
   xmlns:svg="http://www.w3.org/2000/svg"
   xmlns="http://www.w3.org/2000/svg"
   xmlns:sodipodi="http://sodipodi.sourceforge.net/DTD/sodipodi-0.dtd"
   xmlns:inkscape="http://www.inkscape.org/namespaces/inkscape"
   width="13.229167mm"
   height="13.229167mm"
   viewBox="0 0 13.229169 13.229168"
   version="1.1"
   id="svg8"
   sodipodi:docname="VCS_resized_163.svg"
   inkscape:version="1.0.2-2 (e86c870879, 2021-01-15)">
  <defs
     id="defs2" />
  <sodipodi:namedview
     id="base"
     pagecolor="#ffffff"
     bordercolor="#666666"
     borderopacity="1.0"
     inkscape:pageopacity="0.0"
     inkscape:pageshadow="2"
     inkscape:zoom="2.8284271"
     inkscape:cx="-5.2161864"
     inkscape:cy="52.589297"
     inkscape:document-units="mm"
     inkscape:current-layer="layer1"
     inkscape:document-rotation="0"
     showgrid="false"
     inkscape:window-width="958"
     inkscape:window-height="1008"
     inkscape:window-x="1913"
     inkscape:window-y="0"
     inkscape:window-maximized="0" />
  <metadata
     id="metadata5">
    <rdf:RDF>
      <cc:Work
         rdf:about="">
        <dc:format>image/svg+xml</dc:format>
        <dc:type
           rdf:resource="http://purl.org/dc/dcmitype/StillImage" />
        <dc:title></dc:title>
      </cc:Work>
    </rdf:RDF>
  </metadata>
  <g
     inkscape:label="Ebene 1"
     inkscape:groupmode="layer"
     id="layer1"
     transform="translate(-39.580097,-12.677361)">
    <path
       style="fill:#000000;stroke-width:0.264582"
       d="m 43.655603,25.23786 c -0.33793,-0.02644 -0.457454,-0.05774 -0.534302,-0.139896 -0.05445,-0.05821 -0.344398,-0.522553 -0.644334,-1.031875 -0.299938,-0.509323 -0.729364,-1.213434 -0.954282,-1.564691 -0.60792,-0.949399 -0.707566,-1.182628 -0.792928,-1.855895 -0.0654,-0.515846 0.0089,-0.893534 0.27969,-1.421289 0.548298,-1.068689 0.57036,-1.12554 0.601346,-1.549611 0.032,-0.437972 0.0014,-0.550182 -0.458776,-1.678306 -0.142454,-0.34928 -0.173578,-0.497816 -0.177922,-0.849123 -0.0048,-0.385877 0.0118,-0.459461 0.176896,-0.784989 0.204688,-0.403611 0.536112,-0.73066 0.902628,-0.890713 0.302196,-0.131965 0.709042,-0.12983 1.253282,0.0066 0.582978,0.146115 1.7101,0.206184 3.4173,0.182122 1.462426,-0.02061 1.790794,-0.05396 2.524388,-0.25634 0.426282,-0.117602 0.730682,-0.101743 1.044006,0.05439 0.579654,0.288853 1.12813,1.045643 1.126492,1.554338 -0.0012,0.365346 -0.134764,0.860927 -0.344146,1.276703 -0.253758,0.503897 -0.363378,0.952655 -0.324222,1.327283 0.04442,0.424945 0.15233,0.707314 0.486032,1.271738 0.160856,0.272073 0.327394,0.61211 0.370084,0.755637 0.09209,0.309618 0.100572,0.867329 0.01912,1.257791 -0.06791,0.325574 -0.372574,0.978297 -0.68662,1.471042 -0.211428,0.331736 -0.771024,1.262828 -1.288036,2.143125 -0.374894,0.63832 -0.361532,0.626046 -0.732666,0.673043 -0.42556,0.05389 -4.692698,0.09357 -5.263036,0.04894 z m 4.98048,-0.270543 c 0.23736,-0.03005 0.397112,-0.07999 0.457398,-0.142974 0.05096,-0.05324 0.277032,-0.418265 0.502394,-0.811171 0.225362,-0.392906 0.623094,-1.05577 0.88385,-1.473031 0.794206,-1.270886 0.980868,-1.786727 0.89421,-2.471144 -0.04539,-0.358491 -0.287244,-0.9408 -0.538672,-1.296961 -0.05229,-0.07407 -0.1599,-0.29661 -0.239134,-0.49453 -0.13233,-0.330556 -0.141446,-0.399291 -0.11196,-0.844281 0.0326,-0.491967 0.163098,-0.968641 0.347776,-1.270298 0.152194,-0.248596 0.32334,-0.815132 0.32334,-1.070329 0,-0.512134 -0.58214,-1.245903 -1.115136,-1.405592 -0.226534,-0.06787 -0.23718,-0.06685 -1.451322,0.139877 -0.356358,0.06067 -0.90601,0.08197 -2.183392,0.08461 -1.859858,0.0038 -2.19916,-0.01437 -3.17931,-0.170568 -0.601376,-0.09584 -0.675106,-0.09769 -0.930654,-0.0234 -0.3497,0.101661 -0.728314,0.427949 -0.917366,0.790583 -0.114358,0.219358 -0.141152,0.34182 -0.140366,0.641527 8e-4,0.332893 0.03284,0.445465 0.315562,1.11125 l 0.31459,0.740834 2e-4,0.582083 2e-4,0.582083 -0.375736,0.767292 c -0.417074,0.851711 -0.52992,1.261754 -0.479636,1.742843 0.05176,0.495227 0.139664,0.665502 1.36762,2.64924 0.333294,0.538427 0.674598,1.10565 0.758452,1.260495 0.08386,0.154845 0.200202,0.307083 0.258544,0.338307 0.05834,0.03122 0.464412,0.07524 0.902376,0.0978 0.935372,0.0482 3.81016,0.01204 4.336052,-0.05454 z"
       id="path2652" />
  </g>
</svg>
