<?xml version="1.0" encoding="UTF-8" standalone="no"?>
<svg
   xmlns:dc="http://purl.org/dc/elements/1.1/"
   xmlns:cc="http://creativecommons.org/ns#"
   xmlns:rdf="http://www.w3.org/1999/02/22-rdf-syntax-ns#"
   xmlns:svg="http://www.w3.org/2000/svg"
   xmlns="http://www.w3.org/2000/svg"
   xmlns:sodipodi="http://sodipodi.sourceforge.net/DTD/sodipodi-0.dtd"
   xmlns:inkscape="http://www.inkscape.org/namespaces/inkscape"
   width="13.229167mm"
   height="13.229167mm"
   viewBox="0 0 13.229169 13.229168"
   version="1.1"
   id="svg8"
   sodipodi:docname="VCS_resized_281.svg"
   inkscape:version="1.0.2-2 (e86c870879, 2021-01-15)">
  <defs
     id="defs2" />
  <sodipodi:namedview
     id="base"
     pagecolor="#ffffff"
     bordercolor="#666666"
     borderopacity="1.0"
     inkscape:pageopacity="0.0"
     inkscape:pageshadow="2"
     inkscape:zoom="4"
     inkscape:cx="31.201427"
     inkscape:cy="28.047765"
     inkscape:document-units="mm"
     inkscape:current-layer="layer1"
     inkscape:document-rotation="0"
     showgrid="false"
     inkscape:window-width="958"
     inkscape:window-height="1008"
     inkscape:window-x="1913"
     inkscape:window-y="0"
     inkscape:window-maximized="0" />
  <metadata
     id="metadata5">
    <rdf:RDF>
      <cc:Work
         rdf:about="">
        <dc:format>image/svg+xml</dc:format>
        <dc:type
           rdf:resource="http://purl.org/dc/dcmitype/StillImage" />
        <dc:title></dc:title>
      </cc:Work>
    </rdf:RDF>
  </metadata>
  <g
     inkscape:label="Ebene 1"
     inkscape:groupmode="layer"
     id="layer1"
     transform="translate(-78.848419,10.537745)">
    <path
       style="fill:#000000;stroke-width:0.264582"
       d="m 82.280363,2.2193628 c -0.0151,-0.03935 -0.05522,-0.581088 -0.08915,-1.203855 -0.03393,-0.62276601 -0.09378,-1.55606901 -0.132996,-2.0740064 l -0.0713,-0.9417046 -0.197426,-0.2224622 c -0.108586,-0.1223544 -0.794976,-0.838737 -1.525314,-1.5919613 -0.730338,-0.7532248 -1.335332,-1.4007956 -1.34443,-1.439047 -0.01922,-0.080818 0.05358,-0.1016058 1.286544,-0.3673242 1.128196,-0.2431394 2.9541,-0.6588114 2.96471,-0.674924 0.0968,-0.1469952 0.837416,-1.4457767 1.19884,-2.1023307 0.967782,-1.7580524 0.96024,-1.7462774 1.11849,-1.7461754 0.09521,6.4e-5 0.216966,0.1833588 0.694216,1.0451042 0.318316,0.5747662 0.799552,1.4374702 1.069415,1.9171197 l 0.490658,0.8720898 0.835586,0.2013962 c 0.459572,0.1107678 1.371366,0.319215 2.02621,0.463216 1.319658,0.2901956 1.454944,0.3332042 1.391664,0.4424262 -0.02326,0.040146 -0.436494,0.4866074 -0.9183,0.9921372 -1.893866,1.9871135 -2.114968,2.2291141 -2.137438,2.3394549 -0.02919,0.1433666 -0.176698,2.36215659 -0.220428,3.3157316 -0.02562,0.558705 -0.05092,0.728789 -0.116118,0.780521 -0.127596,0.10125 -6.284523,0.09599 -6.323431,-0.0054 z m 6.088219,-0.259178 c 0.0289,-0.03638 0.06774,-0.351896 0.08633,-0.701146 0.01858,-0.34925001 0.06877,-1.11125001 0.111528,-1.69333301 0.04276,-0.58208299 0.07826,-1.18813679 0.0789,-1.34678519 l 0.0012,-0.2884514 0.62177,-0.6379312 c 1.22349,-1.2552901 2.3011,-2.4151435 2.27144,-2.4448021 -0.0166,-0.016596 -0.501716,-0.1324018 -1.078046,-0.257347 -1.328476,-0.2880054 -2.65598,-0.600057 -2.797564,-0.6576134 -0.11181,-0.045453 -0.417544,-0.558246 -1.515987,-2.5426947 -0.346414,-0.6258302 -0.632492,-1.0847916 -0.676168,-1.0847916 -0.0417,0 -0.227352,0.2733212 -0.41334,0.6085416 -0.919096,1.6565626 -1.668504,2.9647325 -1.722742,3.0072251 -0.06269,0.049111 -1.283096,0.3329702 -2.902334,0.6750628 -0.515308,0.108868 -0.965956,0.2158852 -1.00144,0.2378148 -0.04303,0.026592 0.301976,0.415869 1.035818,1.1687392 0.605184,0.6208766 1.253994,1.3001545 1.4418,1.5095071 l 0.341466,0.3806408 0.07202,1.0216508 c 0.03961,0.56190739 0.09909,1.47308539 0.13217,2.02483839 0.03308,0.55175301 0.0718,1.02205001 0.08605,1.04510401 0.01424,0.02305 1.319366,0.04192 2.900262,0.04192 2.236185,0 2.886021,-0.01469 2.926899,-0.06615 z"
       id="path5411" />
  </g>
</svg>
