<?xml version="1.0" encoding="UTF-8" standalone="no"?>
<svg
   xmlns:dc="http://purl.org/dc/elements/1.1/"
   xmlns:cc="http://creativecommons.org/ns#"
   xmlns:rdf="http://www.w3.org/1999/02/22-rdf-syntax-ns#"
   xmlns:svg="http://www.w3.org/2000/svg"
   xmlns="http://www.w3.org/2000/svg"
   xmlns:sodipodi="http://sodipodi.sourceforge.net/DTD/sodipodi-0.dtd"
   xmlns:inkscape="http://www.inkscape.org/namespaces/inkscape"
   width="13.229167mm"
   height="13.229167mm"
   viewBox="0 0 13.229169 13.229168"
   version="1.1"
   id="svg8"
   sodipodi:docname="VCS_resized_360.svg"
   inkscape:version="1.0.2-2 (e86c870879, 2021-01-15)">
  <defs
     id="defs2" />
  <sodipodi:namedview
     id="base"
     pagecolor="#ffffff"
     bordercolor="#666666"
     borderopacity="1.0"
     inkscape:pageopacity="0.0"
     inkscape:pageshadow="2"
     inkscape:zoom="4"
     inkscape:cx="8.349886"
     inkscape:cy="20.081797"
     inkscape:document-units="mm"
     inkscape:current-layer="layer1"
     inkscape:document-rotation="0"
     showgrid="false"
     inkscape:window-width="958"
     inkscape:window-height="1008"
     inkscape:window-x="1913"
     inkscape:window-y="0"
     inkscape:window-maximized="0" />
  <metadata
     id="metadata5">
    <rdf:RDF>
      <cc:Work
         rdf:about="">
        <dc:format>image/svg+xml</dc:format>
        <dc:type
           rdf:resource="http://purl.org/dc/dcmitype/StillImage" />
        <dc:title></dc:title>
      </cc:Work>
    </rdf:RDF>
  </metadata>
  <g
     inkscape:label="Ebene 1"
     inkscape:groupmode="layer"
     id="layer1"
     transform="translate(-95.664352,13.736528)">
    <path
       style="fill:#000000;stroke-width:0.264582"
       d="m 100.87534,-1.5829471 c -0.32791,-0.5291134 -0.40867,-1.0194116 -0.40529,-2.4604938 0.002,-0.6658134 -0.0244,-1.3363725 -0.0605,-1.5597041 l -0.0632,-0.3917596 -0.30153,-0.2047668 c -0.165842,-0.1126214 -0.775506,-0.439682 -1.354806,-0.7268004 -1.119926,-0.5550666 -1.723,-0.9155398 -2.045464,-1.2226258 -0.307328,-0.2926714 -0.265896,-0.3824192 0.261158,-0.565711 0.49274,-0.1713578 0.923754,-0.2274198 2.030528,-0.2641118 0.90789,-0.030098 1.947414,-0.1097968 2.124394,-0.1628732 0.15361,-0.046071 0.4514,-0.5081025 0.9176,-1.4236984 0.24629,-0.483712 0.54149,-1.017439 0.656,-1.18606 0.24363,-0.35876 0.89272,-1.08167 0.99371,-1.106718 0.0771,-0.01913 0.18469,0.208493 0.33137,0.701273 0.16418,0.551553 0.17018,0.610185 0.18474,1.803112 0.008,0.6402919 0.0446,1.3501732 0.0818,1.5775148 0.0597,0.365542 0.0871,0.4282726 0.23674,0.5423958 0.0931,0.070976 0.18708,0.129048 0.20894,0.129048 0.0219,0 0.10877,0.049145 0.19313,0.1092114 0.0844,0.060066 0.46903,0.265356 0.85484,0.4562 0.3858,0.1908434 0.88005,0.4544572 1.09833,0.5858086 0.49737,0.299295 1.18873,0.8484568 1.26273,1.0030232 0.0481,0.100447 0.0343,0.1323774 -0.0975,0.2262548 -0.32393,0.2306574 -0.89498,0.3277394 -2.1971,0.373524 -1.10439,0.038832 -1.75018,0.095598 -2.10734,0.1852401 -0.26434,0.066345 -0.516,0.4522454 -1.19188,1.8276618 -0.20857,0.4244434 -0.45874,0.8835718 -0.55594,1.0202846 -0.21372,0.3005936 -0.81158,0.9332082 -0.88195,0.9332082 -0.0278,0 -0.10587,-0.089297 -0.1735,-0.1984374 z m 0.49541,-0.4497918 c 0.31956,-0.340978 0.52165,-0.6692874 1.01792,-1.6536458 0.5127,-1.016936 0.82043,-1.5189534 0.99943,-1.6304414 0.22614,-0.1408515 1.06734,-0.2331217 2.49817,-0.2740221 0.52084,-0.014888 1.04471,-0.052314 1.16416,-0.083169 0.31567,-0.081539 0.66698,-0.2173134 0.66698,-0.2577756 0,-0.074773 -0.41444,-0.4276242 -0.76965,-0.6552782 -0.20502,-0.131399 -0.69244,-0.3969856 -1.08316,-0.5901928 -0.74524,-0.368518 -0.86599,-0.4360672 -1.43448,-0.8024748 l -0.35041,-0.2258506 -0.0644,-0.3862312 c -0.0354,-0.2124272 -0.0836,-0.9934495 -0.10713,-1.7356056 -0.0393,-1.240771 -0.0531,-1.376807 -0.17116,-1.690207 -0.0706,-0.187458 -0.15324,-0.349113 -0.1836,-0.359234 -0.0743,-0.02478 -0.53163,0.458183 -0.71927,0.759654 -0.0831,0.133582 -0.36448,0.658907 -0.62519,1.16739 -0.41658,0.8124821 -0.79957,1.4333104 -0.93639,1.5178664 -0.0831,0.051366 -1.10754,0.1365054 -2.335678,0.194118 -0.976636,0.045815 -1.310056,0.081181 -1.633394,0.1732596 -0.25887,0.073719 -0.411956,0.145343 -0.421944,0.1974142 -0.02727,0.1421828 0.65146,0.573906 1.866432,1.1871838 0.640292,0.323198 1.310284,0.686879 1.488874,0.8081804 0.31838,0.216255 0.32593,0.2270262 0.38794,0.5533982 0.0348,0.1830684 0.0729,0.8567263 0.0847,1.4970179 0.0258,1.3960624 0.0483,1.6871944 0.16107,2.0805612 0.0891,0.3108864 0.15702,0.4329804 0.24078,0.4329804 0.0267,0 0.14341,-0.101203 0.25933,-0.2248958 z"
       id="path6681" />
  </g>
</svg>
