<?xml version="1.0" encoding="UTF-8" standalone="no"?>
<svg
   xmlns:dc="http://purl.org/dc/elements/1.1/"
   xmlns:cc="http://creativecommons.org/ns#"
   xmlns:rdf="http://www.w3.org/1999/02/22-rdf-syntax-ns#"
   xmlns:svg="http://www.w3.org/2000/svg"
   xmlns="http://www.w3.org/2000/svg"
   xmlns:sodipodi="http://sodipodi.sourceforge.net/DTD/sodipodi-0.dtd"
   xmlns:inkscape="http://www.inkscape.org/namespaces/inkscape"
   width="13.229167mm"
   height="13.229167mm"
   viewBox="0 0 13.229169 13.229168"
   version="1.1"
   id="svg8"
   sodipodi:docname="VCS_resized_332.svg"
   inkscape:version="1.0.2-2 (e86c870879, 2021-01-15)">
  <defs
     id="defs2" />
  <sodipodi:namedview
     id="base"
     pagecolor="#ffffff"
     bordercolor="#666666"
     borderopacity="1.0"
     inkscape:pageopacity="0.0"
     inkscape:pageshadow="2"
     inkscape:zoom="4"
     inkscape:cx="24.43408"
     inkscape:cy="43.765836"
     inkscape:document-units="mm"
     inkscape:current-layer="layer1"
     inkscape:document-rotation="0"
     showgrid="false"
     inkscape:window-width="958"
     inkscape:window-height="1008"
     inkscape:window-x="1913"
     inkscape:window-y="0"
     inkscape:window-maximized="0" />
  <metadata
     id="metadata5">
    <rdf:RDF>
      <cc:Work
         rdf:about="">
        <dc:format>image/svg+xml</dc:format>
        <dc:type
           rdf:resource="http://purl.org/dc/dcmitype/StillImage" />
        <dc:title></dc:title>
      </cc:Work>
    </rdf:RDF>
  </metadata>
  <g
     inkscape:label="Ebene 1"
     inkscape:groupmode="layer"
     id="layer1"
     transform="translate(-91.408745,20.002932)">
    <path
       style="fill:#000000;stroke-width:0.264582"
       d="m 97.376194,-7.6866452 c -0.20272,-0.1744796 -0.39979,-0.3616718 -0.43792,-0.4159832 -0.0381,-0.054311 -0.18465,-0.2253934 -0.32561,-0.3801826 -0.31375,-0.3445556 -0.32793,-0.3807872 -0.40478,-1.0343524 -0.14154,-1.2036676 -0.26834,-1.9994896 -0.33076,-2.0759536 -0.0366,-0.04481 -0.45942,-0.268983 -0.93964,-0.498154 -0.48022,-0.229172 -1.40408,-0.681398 -2.05302,-1.004946 -1.410898,-0.703442 -1.422648,-0.719974 -0.67613,-0.951242 0.25977,-0.08047 1.00986,-0.275235 1.66687,-0.4328 2.42588,-0.581776 2.39239,-0.571815 2.49622,-0.742302 0.0515,-0.08458 0.22996,-0.501295 0.39654,-0.926041 0.57344,-1.462097 1.26142,-3.034212 1.40758,-3.216518 0.1518,-0.189332 0.30591,0.18405 1.10429,2.675417 0.26458,0.825641 0.5056,1.555052 0.53561,1.620913 0.0586,0.128701 0.0375,0.120814 2.398076,0.894186 1.39647,0.457508 2.11667,0.740662 2.11667,0.832192 0,0.03503 -0.0714,0.103562 -0.15875,0.152286 -0.2363,0.131868 -1.42996,0.640929 -2.30188,0.981687 -0.42201,0.164928 -0.86254,0.34119 -0.97895,0.391695 -0.11642,0.0505 -0.34766,0.145513 -0.51386,0.211131 -0.16621,0.06562 -0.32777,0.150119 -0.35902,0.187778 -0.0312,0.03766 -0.140356,0.469852 -0.242446,0.960427 -0.39342,1.8904458 -0.29676,1.6276854 -0.78298,2.128575 -0.45124,0.4648496 -1.05817,0.9594226 -1.17739,0.9594226 -0.0386,0 -0.23599,-0.142756 -0.43872,-0.3172348 z m 0.84861,-0.2694174 c 0.46335,-0.369545 0.93019,-0.9063556 0.99712,-1.146575 0.0304,-0.1090268 0.14003,-0.6030436 0.24365,-1.0978144 0.2868,-1.369304 0.30679,-1.425535 0.540286,-1.520289 0.10826,-0.04393 0.82786,-0.335588 1.59912,-0.648128 0.77126,-0.312539 1.58903,-0.653331 1.81726,-0.757316 l 0.41496,-0.189064 -0.19953,-0.102367 c -0.10974,-0.0563 -0.59413,-0.23073 -1.07642,-0.387618 -0.48229,-0.156887 -1.32482,-0.432188 -1.87228,-0.611778 -1.148246,-0.376672 -1.001356,-0.232447 -1.364426,-1.33969 -0.69894,-2.131488 -0.96752,-2.925564 -1.02912,-3.042709 -0.068,-0.129258 -0.0744,-0.121978 -0.28109,0.3175 -0.11634,0.247386 -0.37067,0.842698 -0.56518,1.322917 -0.63562,1.569257 -0.80499,1.982249 -0.87287,2.128365 -0.0779,0.167744 -0.10215,0.17651 -1.26838,0.45907 -3.1143,0.754542 -3.10472,0.75182 -3.03616,0.862753 0.0198,0.03202 0.5741,0.317957 1.2318,0.635426 1.59137,0.768145 2.59996,1.272069 2.62406,1.311063 0.0364,0.05887 0.22939,1.380454 0.37687,2.5804664 0.0316,0.2572998 0.0674,0.3138396 0.48508,0.7672916 0.45769,0.4968552 0.72267,0.7276486 0.83543,0.7276486 0.0343,0 0.21421,-0.1211184 0.39982,-0.2691522 z"
       id="path6231" />
  </g>
</svg>
