<?xml version="1.0" encoding="UTF-8" standalone="no"?>
<svg
   xmlns:dc="http://purl.org/dc/elements/1.1/"
   xmlns:cc="http://creativecommons.org/ns#"
   xmlns:rdf="http://www.w3.org/1999/02/22-rdf-syntax-ns#"
   xmlns:svg="http://www.w3.org/2000/svg"
   xmlns="http://www.w3.org/2000/svg"
   xmlns:sodipodi="http://sodipodi.sourceforge.net/DTD/sodipodi-0.dtd"
   xmlns:inkscape="http://www.inkscape.org/namespaces/inkscape"
   width="13.229167mm"
   height="13.229167mm"
   viewBox="0 0 13.229169 13.229168"
   version="1.1"
   id="svg8"
   sodipodi:docname="VCS_resized_351.svg"
   inkscape:version="1.0.2-2 (e86c870879, 2021-01-15)">
  <defs
     id="defs2" />
  <sodipodi:namedview
     id="base"
     pagecolor="#ffffff"
     bordercolor="#666666"
     borderopacity="1.0"
     inkscape:pageopacity="0.0"
     inkscape:pageshadow="2"
     inkscape:zoom="4"
     inkscape:cx="-7.109163"
     inkscape:cy="16.67382"
     inkscape:document-units="mm"
     inkscape:current-layer="layer1"
     inkscape:document-rotation="0"
     showgrid="false"
     inkscape:window-width="958"
     inkscape:window-height="1008"
     inkscape:window-x="1913"
     inkscape:window-y="0"
     inkscape:window-maximized="0" />
  <metadata
     id="metadata5">
    <rdf:RDF>
      <cc:Work
         rdf:about="">
        <dc:format>image/svg+xml</dc:format>
        <dc:type
           rdf:resource="http://purl.org/dc/dcmitype/StillImage" />
        <dc:title></dc:title>
      </cc:Work>
    </rdf:RDF>
  </metadata>
  <g
     inkscape:label="Ebene 1"
     inkscape:groupmode="layer"
     id="layer1"
     transform="translate(-99.754562,12.834834)">
    <path
       style="fill:#000000;stroke-width:0.264582"
       d="m 105.4559,-0.40090685 c -0.0919,-0.032951 -0.41493,-0.62402025 -0.54613,-0.99921705 -0.16673,-0.4768288 -0.25172,-0.9892494 -0.31195,-1.8807968 -0.0563,-0.8328094 -0.1377,-1.4585317 -0.20319,-1.5611509 -0.0717,-0.1123384 -0.57722,-0.3870801 -1.54503,-0.8396683 -1.64227,-0.7680012 -2.54806,-1.325127 -2.47289,-1.5210119 0.0409,-0.1066086 0.91151,-0.391342 1.41483,-0.4627256 0.20145,-0.028571 0.69457,-0.088186 1.09581,-0.1324774 1.36459,-0.1506294 2.08795,-0.2761504 2.18932,-0.3799036 0.0828,-0.084722 0.73627,-1.3443543 0.73627,-1.4191923 0,-0.081233 0.49822,-1.0619543 0.73919,-1.4550553 0.40914,-0.667425 0.68314,-1.014294 0.78622,-0.995287 0.0586,0.01081 0.13633,0.159463 0.22988,0.439662 0.21519,0.644498 0.30213,1.066445 0.38862,1.8859701 0.0911,0.8633874 0.15699,1.3022454 0.27122,1.8068253 l 0.0813,0.359046 0.51127,0.2554806 c 0.2812,0.1405144 0.77321,0.3685339 1.09336,0.5067095 1.23143,0.5314864 2.41146,1.2139454 2.45062,1.4172856 0.0416,0.2158148 -0.92619,0.5117501 -2.2956,0.7019849 -1.00429,0.1395138 -1.85062,0.300508 -2.08795,0.3971826 -0.0736,0.029967 -0.16081,0.097802 -0.19387,0.1507431 -0.0942,0.1508582 -0.47097,1.0550992 -0.598,1.4352308 -0.16402,0.4908296 -0.70678,1.369758 -1.13022,1.83024565 -0.37915,0.4123172 -0.49336,0.4994604 -0.60306,0.46012 z m 0.46611,-0.68963645 c 0.4119,-0.4501076 0.90968,-1.2671128 1.05587,-1.7330208 0.1027,-0.3272892 0.41831,-1.0833756 0.56926,-1.3637527 0.11983,-0.2225526 0.16783,-0.2616834 0.40473,-0.3299078 0.45094,-0.1298676 1.23786,-0.2782818 2.09704,-0.3955092 0.82895,-0.1131014 1.65659,-0.3216935 1.79076,-0.4513283 0.0625,-0.06042 0.0511,-0.090443 -0.0757,-0.1995652 -0.16862,-0.1450388 -1.1987,-0.675551 -1.87643,-0.9664034 -0.24739,-0.106166 -0.74633,-0.341814 -1.10877,-0.5236617 -0.56145,-0.2816992 -0.66541,-0.3533912 -0.7024,-0.4844182 -0.11696,-0.4141958 -0.30285,-1.4758961 -0.33267,-1.9000371 -0.0533,-0.7581103 -0.27043,-1.8155713 -0.4314,-2.1011263 -0.0862,-0.152971 -0.51172,0.461593 -0.94628,1.366767 -0.80933,1.6857963 -1.03177,2.122473 -1.12345,2.205439 -0.11594,0.1049264 -0.89884,0.2516124 -2.02253,0.3789458 -1.68524,0.1909662 -2.31054,0.3190918 -2.36576,0.4847484 -0.0322,0.096529 0.69652,0.5166467 1.92716,1.1110749 1.53099,0.7395058 1.79998,0.8986214 1.86369,1.1024061 0.072,0.230152 0.16204,0.9979903 0.2145,1.8282037 0.0502,0.7949776 0.17893,1.3649694 0.43231,1.9146868 0.11298,0.24511865 0.19597,0.36072985 0.25896,0.36072985 0.051,0 0.21799,-0.1369218 0.37113,-0.30427085 z"
       id="path6537" />
  </g>
</svg>
