<?xml version="1.0" encoding="UTF-8" standalone="no"?>
<svg
   xmlns:dc="http://purl.org/dc/elements/1.1/"
   xmlns:cc="http://creativecommons.org/ns#"
   xmlns:rdf="http://www.w3.org/1999/02/22-rdf-syntax-ns#"
   xmlns:svg="http://www.w3.org/2000/svg"
   xmlns="http://www.w3.org/2000/svg"
   xmlns:sodipodi="http://sodipodi.sourceforge.net/DTD/sodipodi-0.dtd"
   xmlns:inkscape="http://www.inkscape.org/namespaces/inkscape"
   width="13.229167mm"
   height="13.229167mm"
   viewBox="0 0 13.229169 13.229168"
   version="1.1"
   id="svg8"
   sodipodi:docname="VCS_resized_320.svg"
   inkscape:version="1.0.2-2 (e86c870879, 2021-01-15)">
  <defs
     id="defs2" />
  <sodipodi:namedview
     id="base"
     pagecolor="#ffffff"
     bordercolor="#666666"
     borderopacity="1.0"
     inkscape:pageopacity="0.0"
     inkscape:pageshadow="2"
     inkscape:zoom="4"
     inkscape:cx="26.514245"
     inkscape:cy="38.073037"
     inkscape:document-units="mm"
     inkscape:current-layer="layer1"
     inkscape:document-rotation="0"
     showgrid="false"
     inkscape:window-width="958"
     inkscape:window-height="1008"
     inkscape:window-x="1913"
     inkscape:window-y="0"
     inkscape:window-maximized="0" />
  <metadata
     id="metadata5">
    <rdf:RDF>
      <cc:Work
         rdf:about="">
        <dc:format>image/svg+xml</dc:format>
        <dc:type
           rdf:resource="http://purl.org/dc/dcmitype/StillImage" />
        <dc:title></dc:title>
      </cc:Work>
    </rdf:RDF>
  </metadata>
  <g
     inkscape:label="Ebene 1"
     inkscape:groupmode="layer"
     id="layer1"
     transform="translate(-90.858368,18.49671)">
    <path
       style="fill:#000000;stroke-width:0.264582"
       d="m 96.856069,-6.0781902 c -0.204032,-0.1112404 -0.469026,-0.2641568 -0.588874,-0.3398144 -0.11985,-0.075658 -0.302232,-0.1727916 -0.405294,-0.215854 -0.103062,-0.043062 -0.210558,-0.1219824 -0.23888,-0.1753786 -0.02832,-0.053396 -0.115688,-0.5614278 -0.194146,-1.128959 -0.246396,-1.7823466 -0.283064,-1.9784818 -0.384076,-2.0544606 -0.121284,-0.091226 -0.5264,-0.3241102 -1.945262,-1.1182482 -1.747066,-0.977835 -2.04555,-1.16387 -2.026454,-1.263027 0.01872,-0.09718 0.399338,-0.207531 2.211664,-0.641199 2.021528,-0.483727 2.247594,-0.544926 2.334064,-0.631869 0.04681,-0.04706 0.337174,-0.69279 0.645258,-1.434946 1.066978,-2.570289 1.162362,-2.776382 1.293612,-2.795024 0.08411,-0.01195 0.133418,0.01907 0.168242,0.105834 0.349702,0.871215 0.759924,1.920007 1.010448,2.583357 0.52601,1.39279 0.612282,1.597752 0.690444,1.640317 0.0416,0.02265 0.444734,0.141331 0.895845,0.263725 1.37693,0.373581 3.49513,0.99136 3.53466,1.030894 0.0717,0.07174 -0.0894,0.207555 -0.55452,0.467344 -0.48314,0.269853 -2.36323,1.279955 -3.13113,1.682247 -0.214867,0.1125632 -0.354147,0.223322 -0.385919,0.306887 -0.02734,0.071916 -0.145096,0.7158768 -0.261674,1.4310248 -0.255334,1.5663482 -0.283222,1.6806678 -0.420644,1.7242834 -0.05809,0.018438 -0.259534,0.1270296 -0.447656,0.2413164 -0.188118,0.1142866 -0.35271,0.2077942 -0.365758,0.2077942 -0.01304,0 -0.178062,0.071437 -0.366702,0.15875 -0.44958,0.20809 -0.615914,0.2010774 -1.067248,-0.044994 z m 1.313788,-0.3821954 c 0.354574,-0.176746 0.687554,-0.3528896 0.739952,-0.39143 0.0951,-0.069945 0.141914,-0.2915666 0.52555,-2.4877956 0.113706,-0.6509342 0.128356,-0.6922028 0.278762,-0.7852918 0.08731,-0.05404 0.919369,-0.508671 1.849009,-1.010292 0.92964,-0.501622 1.69893,-0.938073 1.70954,-0.969893 0.021,-0.06304 -0.46688,-0.222012 -1.99751,-0.650839 -1.810375,-0.507202 -2.027837,-0.574078 -2.091525,-0.643198 -0.0349,-0.03787 -0.212586,-0.461769 -0.394868,-0.941988 -0.305562,-0.805001 -0.74175,-1.937922 -1.018676,-2.645833 -0.174482,-0.446031 -0.231412,-0.485865 -0.335566,-0.234798 -0.04754,0.114587 -0.282806,0.672683 -0.522826,1.240215 -0.240018,0.567531 -0.574212,1.36525 -0.742652,1.772708 -0.16844,0.407458 -0.338866,0.767445 -0.378724,0.79997 -0.03986,0.03253 -0.685402,0.207952 -1.434544,0.389837 -2.501216,0.607272 -2.684992,0.657688 -2.684992,0.736599 0,0.06419 1.700352,1.062474 2.999054,1.760755 0.223376,0.120103 0.46953,0.268916 0.547008,0.330695 0.155028,0.123616 0.187244,0.247742 0.316872,1.2208938 0.151544,1.1376754 0.284758,1.9957468 0.314446,2.025435 0.08229,0.082286 1.497644,0.801659 1.580856,0.8034904 0.05288,0.00116 0.38626,-0.142494 0.740834,-0.3192398 z"
       id="path6037" />
  </g>
</svg>
