<?xml version="1.0" encoding="UTF-8" standalone="no"?>
<svg
   xmlns:dc="http://purl.org/dc/elements/1.1/"
   xmlns:cc="http://creativecommons.org/ns#"
   xmlns:rdf="http://www.w3.org/1999/02/22-rdf-syntax-ns#"
   xmlns:svg="http://www.w3.org/2000/svg"
   xmlns="http://www.w3.org/2000/svg"
   xmlns:sodipodi="http://sodipodi.sourceforge.net/DTD/sodipodi-0.dtd"
   xmlns:inkscape="http://www.inkscape.org/namespaces/inkscape"
   width="13.229167mm"
   height="13.229167mm"
   viewBox="0 0 13.229167 13.229167"
   version="1.1"
   id="svg8"
   sodipodi:docname="VCS_resized_64.svg"
   inkscape:version="1.0.2-2 (e86c870879, 2021-01-15)">
  <defs
     id="defs2" />
  <sodipodi:namedview
     id="base"
     pagecolor="#ffffff"
     bordercolor="#666666"
     borderopacity="1.0"
     inkscape:pageopacity="0.0"
     inkscape:pageshadow="2"
     inkscape:zoom="2.8284271"
     inkscape:cx="-12.217603"
     inkscape:cy="79.079182"
     inkscape:document-units="mm"
     inkscape:current-layer="layer1"
     inkscape:document-rotation="0"
     showgrid="false"
     inkscape:window-width="958"
     inkscape:window-height="1008"
     inkscape:window-x="1913"
     inkscape:window-y="0"
     inkscape:window-maximized="0" />
  <metadata
     id="metadata5">
    <rdf:RDF>
      <cc:Work
         rdf:about="">
        <dc:format>image/svg+xml</dc:format>
        <dc:type
           rdf:resource="http://purl.org/dc/dcmitype/StillImage" />
        <dc:title></dc:title>
      </cc:Work>
    </rdf:RDF>
  </metadata>
  <g
     inkscape:label="Ebene 1"
     inkscape:groupmode="layer"
     id="layer1"
     transform="translate(-41.43256,-5.6685781)">
    <path
       style="fill:#000000;stroke-width:0.264582"
       d="m 44.667335,17.350522 c -0.521262,-0.124442 -1.068278,-0.547998 -1.219662,-0.944388 -0.265518,-0.695252 -0.04384,-1.256002 0.849278,-2.148302 0.678488,-0.677866 0.913628,-1.055798 0.965466,-1.551758 0.06534,-0.625115 -0.214518,-1.18218 -1.02239,-2.035111 -0.80713,-0.8521498 -1.030916,-1.2115168 -1.126318,-1.8087108 -0.08716,-0.545621 0.03574,-0.963313 0.377924,-1.284437 0.259556,-0.243578 0.369318,-0.284166 0.768328,-0.28412 0.600742,6.9e-5 0.873718,0.165515 1.85817,1.126209 0.541352,0.528287 0.919404,0.853419 1.085046,0.933161 0.514064,0.247477 1.19046,0.217265 1.629938,-0.0728 0.10495,-0.06927 0.378794,-0.335723 0.60854,-0.592116 0.689008,-0.768919 1.090516,-1.14827 1.378684,-1.302597 0.519666,-0.278307 0.994512,-0.280382 1.411596,-0.0062 0.297578,0.195644 0.52077,0.695173 0.523756,1.172231 0.0044,0.696054 -0.206952,1.126647 -0.991314,2.0200238 -0.92202,1.050169 -1.139926,1.722197 -0.79952,2.465741 0.118038,0.257828 0.291854,0.4591 0.959246,1.110768 0.913078,0.891564 1.08408,1.156678 1.08352,1.67983 -6e-4,0.594004 -0.24052,0.973094 -0.784958,1.240458 -0.270594,0.132882 -0.353226,0.146968 -0.855162,0.145778 -0.4607,-0.001 -0.655072,-0.02963 -1.137708,-0.167006 -0.662284,-0.188516 -0.933102,-0.248194 -1.540788,-0.339528 -0.561362,-0.08437 -1.00398,-0.01432 -2.057546,0.325646 -1.047484,0.338004 -1.54227,0.41791 -1.964126,0.3172 z m 0.7735,-0.277234 c 0.160074,-0.02875 0.564886,-0.143244 0.899584,-0.254436 1.052112,-0.349528 1.247792,-0.389736 1.905,-0.391444 0.589402,-0.0016 0.925316,0.04953 1.719792,0.261412 1.225296,0.32678 1.461766,0.3509 1.936634,0.197536 0.35646,-0.115124 0.702658,-0.437622 0.782752,-0.729162 0.153208,-0.557686 -4e-4,-0.843446 -0.975072,-1.814524 -0.644586,-0.642174 -0.794572,-0.822746 -0.957918,-1.153254 -0.172528,-0.349086 -0.193226,-0.43475 -0.1896,-0.784695 0.0069,-0.668824 0.318834,-1.261202 1.172642,-2.22711 0.861032,-0.9740788 1.016582,-1.8580668 0.428072,-2.4327318 -0.200576,-0.195856 -0.238368,-0.210998 -0.571148,-0.228826 -0.304332,-0.0163 -0.3936,9e-4 -0.611412,0.117855 -0.390832,0.209855 -0.639444,0.43137 -1.012564,0.902206 -0.832456,1.050466 -1.441894,1.400218 -2.247808,1.290002 -0.596186,-0.08153 -0.848856,-0.24699 -1.726114,-1.130325 -0.904854,-0.91112 -1.210378,-1.110423 -1.691568,-1.103467 -0.353536,0.0051 -0.53626,0.09864 -0.755736,0.386832 -0.173088,0.227281 -0.178854,0.250036 -0.161168,0.636149 0.02588,0.565139 0.224516,0.946525 0.843052,1.6187268 0.653634,0.710344 0.920944,1.065325 1.122272,1.490355 0.151954,0.320795 0.169684,0.408102 0.169684,0.835587 0,0.68845 -0.156278,0.98433 -0.975982,1.847834 -0.703886,0.7415 -0.90256,1.065952 -0.90256,1.473968 0,0.327526 0.11206,0.56488 0.3817,0.808484 0.404102,0.365082 0.8486,0.485194 1.417466,0.383028 z"
       id="path1050" />
  </g>
</svg>
