<?xml version="1.0" encoding="UTF-8" standalone="no"?>
<svg
   xmlns:dc="http://purl.org/dc/elements/1.1/"
   xmlns:cc="http://creativecommons.org/ns#"
   xmlns:rdf="http://www.w3.org/1999/02/22-rdf-syntax-ns#"
   xmlns:svg="http://www.w3.org/2000/svg"
   xmlns="http://www.w3.org/2000/svg"
   xmlns:sodipodi="http://sodipodi.sourceforge.net/DTD/sodipodi-0.dtd"
   xmlns:inkscape="http://www.inkscape.org/namespaces/inkscape"
   width="13.229167mm"
   height="13.229167mm"
   viewBox="0 0 13.229169 13.229168"
   version="1.1"
   id="svg8"
   sodipodi:docname="VCS_resized_326.svg"
   inkscape:version="1.0.2-2 (e86c870879, 2021-01-15)">
  <defs
     id="defs2" />
  <sodipodi:namedview
     id="base"
     pagecolor="#ffffff"
     bordercolor="#666666"
     borderopacity="1.0"
     inkscape:pageopacity="0.0"
     inkscape:pageshadow="2"
     inkscape:zoom="4"
     inkscape:cx="14.051651"
     inkscape:cy="26.033422"
     inkscape:document-units="mm"
     inkscape:current-layer="layer1"
     inkscape:document-rotation="0"
     showgrid="false"
     inkscape:window-width="958"
     inkscape:window-height="1008"
     inkscape:window-x="1913"
     inkscape:window-y="0"
     inkscape:window-maximized="0" />
  <metadata
     id="metadata5">
    <rdf:RDF>
      <cc:Work
         rdf:about="">
        <dc:format>image/svg+xml</dc:format>
        <dc:type
           rdf:resource="http://purl.org/dc/dcmitype/StillImage" />
        <dc:title></dc:title>
      </cc:Work>
    </rdf:RDF>
  </metadata>
  <g
     inkscape:label="Ebene 1"
     inkscape:groupmode="layer"
     id="layer1"
     transform="translate(-94.155762,15.31123)">
    <path
       style="fill:#000000;stroke-width:0.264582"
       d="m 100.31011,-2.8304475 c -0.14713,-0.099016 -0.505571,-0.3728154 -0.796531,-0.6084438 -0.47964,-0.3884296 -0.53226,-0.4486794 -0.56373,-0.645532 -0.0191,-0.119414 -0.10628,-0.754543 -0.19375,-1.4113969 -0.0875,-0.6568542 -0.1819,-1.2370384 -0.20987,-1.2892988 -0.0563,-0.10521 -0.38618,-0.296137 -1.375416,-0.796073 -0.819938,-0.4143788 -2.596114,-1.3653754 -2.68552,-1.4378766 -0.109148,-0.088509 -0.0752,-0.1986062 0.07937,-0.257402 0.171038,-0.065059 1.074914,-0.2951777 2.870736,-0.7308624 0.71305,-0.172994 1.36199,-0.339549 1.44208,-0.370122 0.15828,-0.06042 0.21819,-0.176359 0.67261,-1.301668 0.493391,-1.221858 1.228701,-2.91106 1.298841,-2.983798 0.0389,-0.04036 0.10372,-0.06073 0.14401,-0.04527 0.0687,0.02636 0.34914,0.703903 0.64049,1.547402 0.34254,0.99173 0.82793,2.356082 0.92162,2.590532 0.0899,0.224862 0.13406,0.271309 0.31037,0.326173 0.11308,0.03519 0.88425,0.2699917 1.71372,0.5217909 1.80385,0.5475897 2.54,0.8088133 2.54,0.9013217 0,0.037549 -0.0774,0.1132814 -0.17198,0.1682946 -0.15784,0.091801 -1.40875,0.6956456 -2.36802,1.1430984 -1.69703,0.7915814 -1.6282,0.7519856 -1.68911,0.9716876 -0.031,0.1118436 -0.12935,0.5962582 -0.21855,1.0764768 -0.29411,1.5833947 -0.30747,1.6329787 -0.48239,1.7894395 -0.22389,0.2002648 -1.06613,0.8011308 -1.12474,0.802412 -0.0268,5.8e-4 -0.0863,0.034929 -0.1323,0.076317 -0.17913,0.1613572 -0.34129,0.1516576 -0.62194,-0.037202 z m 0.88236,-0.4402752 c 0.64694,-0.425503 0.88417,-0.6332676 0.9458,-0.8283348 0.0298,-0.094453 0.16458,-0.7431458 0.29941,-1.4415399 0.13483,-0.698394 0.27107,-1.3010488 0.30276,-1.3392334 0.0317,-0.038185 0.22619,-0.1485302 0.43222,-0.2452132 3.25723,-1.5284926 3.3644,-1.5817004 3.3644,-1.6704544 0,-0.059215 -0.47549,-0.2366592 -1.13771,-0.4245746 -0.90325,-0.2563111 -2.46161,-0.7341009 -2.72083,-0.834203 l -0.23375,-0.09026 -0.28685,-0.79375 c -0.15777,-0.436562 -0.35853,-0.996156 -0.44613,-1.243541 -0.6134,-1.732247 -0.7076,-1.976581 -0.77013,-1.997423 -0.0589,-0.01965 -0.41268,0.770803 -1.153351,2.57736 -0.27993,0.682768 -0.53073,1.28205 -0.55732,1.331738 -0.0359,0.06716 -0.58481,0.222163 -2.139054,0.6040743 -1.418062,0.3484491 -2.090704,0.5358867 -2.090704,0.5825925 0,0.071052 0.844422,0.5401226 2.529528,1.4051324 0.53267,0.2734324 1.0387,0.5566816 1.12452,0.629442 0.1714,0.1453224 0.13144,-0.051686 0.44328,2.1855981 0.0682,0.4890266 0.1326,0.8951276 0.1432,0.902447 0.0106,0.00732 0.23358,0.1816772 0.49551,0.3874622 0.538421,0.423001 0.810251,0.5987166 0.926041,0.5986008 0.0436,-4.4e-5 0.28178,-0.133206 0.52916,-0.295916 z"
       id="path6135" />
  </g>
</svg>
