<?xml version="1.0" encoding="UTF-8" standalone="no"?>
<svg
   xmlns:dc="http://purl.org/dc/elements/1.1/"
   xmlns:cc="http://creativecommons.org/ns#"
   xmlns:rdf="http://www.w3.org/1999/02/22-rdf-syntax-ns#"
   xmlns:svg="http://www.w3.org/2000/svg"
   xmlns="http://www.w3.org/2000/svg"
   xmlns:sodipodi="http://sodipodi.sourceforge.net/DTD/sodipodi-0.dtd"
   xmlns:inkscape="http://www.inkscape.org/namespaces/inkscape"
   width="13.229167mm"
   height="13.229167mm"
   viewBox="0 0 13.229169 13.229168"
   version="1.1"
   id="svg8"
   sodipodi:docname="VCS_resized_300.svg"
   inkscape:version="1.0.2-2 (e86c870879, 2021-01-15)">
  <defs
     id="defs2" />
  <sodipodi:namedview
     id="base"
     pagecolor="#ffffff"
     bordercolor="#666666"
     borderopacity="1.0"
     inkscape:pageopacity="0.0"
     inkscape:pageshadow="2"
     inkscape:zoom="4"
     inkscape:cx="-1.2951081"
     inkscape:cy="47.762865"
     inkscape:document-units="mm"
     inkscape:current-layer="layer1"
     inkscape:document-rotation="0"
     showgrid="false"
     inkscape:window-width="958"
     inkscape:window-height="1008"
     inkscape:window-x="1913"
     inkscape:window-y="0"
     inkscape:window-maximized="0" />
  <metadata
     id="metadata5">
    <rdf:RDF>
      <cc:Work
         rdf:about="">
        <dc:format>image/svg+xml</dc:format>
        <dc:type
           rdf:resource="http://purl.org/dc/dcmitype/StillImage" />
        <dc:title></dc:title>
      </cc:Work>
    </rdf:RDF>
  </metadata>
  <g
     inkscape:label="Ebene 1"
     inkscape:groupmode="layer"
     id="layer1"
     transform="translate(-95.570427,21.060478)">
    <path
       style="fill:#000000;stroke-width:0.264582"
       d="m 101.21928,-8.4705547 c -0.36381,-0.050918 -0.84418,-0.1096694 -1.06749,-0.1305582 -0.298966,-0.027966 -0.414596,-0.060319 -0.438536,-0.1227022 -0.0179,-0.046597 -0.0781,-0.5269404 -0.13385,-1.0674296 -0.26034,-2.5246843 -0.2732,-2.6222913 -0.35793,-2.7166343 -0.0462,-0.05143 -0.37163,-0.314884 -0.723194,-0.585452 -0.351564,-0.270568 -1.127364,-0.867459 -1.724,-1.326426 -0.632608,-0.486638 -1.084792,-0.870737 -1.084792,-0.921456 0,-0.06356 0.08549,-0.105065 0.3175,-0.154169 0.174626,-0.03696 0.674688,-0.149731 1.11125,-0.250604 0.436562,-0.100873 1.27989,-0.291415 1.874066,-0.423427 0.59417,-0.132012 1.086806,-0.246521 1.094746,-0.254466 0.0338,-0.03384 0.63564,-1.279134 1.26394,-2.615442 0.37215,-0.791515 0.7108,-1.452227 0.75254,-1.468248 0.14207,-0.05452 0.26113,0.06957 0.43838,0.456877 0.0973,0.212707 0.3304,0.708209 0.51791,1.101115 0.18751,0.392906 0.46626,0.988219 0.61944,1.322917 0.15319,0.334698 0.34005,0.739563 0.41527,0.8997 l 0.13675,0.291158 1.10014,0.255825 c 0.60508,0.140704 1.33827,0.311944 1.62931,0.380533 0.29105,0.06859 0.79706,0.187665 1.12448,0.264612 0.39748,0.09341 0.59532,0.16378 0.59532,0.211752 0,0.05929 -1.66862,1.387662 -3.18461,2.535236 -0.19446,0.147203 -0.36773,0.300998 -0.38505,0.341767 -0.0396,0.09336 -0.16078,1.016967 -0.26441,2.016083 -0.13093,1.2623087 -0.20417,1.7560291 -0.26361,1.7769603 -0.13607,0.047922 -2.2077,0.2862172 -2.44222,0.2809234 -0.14294,-0.00323 -0.55755,-0.047526 -0.92135,-0.098444 z m 2.13328,-0.2881864 c 0.54757,-0.069196 1.00868,-0.1389062 1.02468,-0.1549114 0.016,-0.016006 0.0727,-0.4054014 0.12589,-0.865325 0.0532,-0.4599235 0.14573,-1.2529435 0.20556,-1.7622665 0.0598,-0.509323 0.1088,-0.954908 0.10884,-0.99019 4e-5,-0.03528 0.27988,-0.279728 0.62185,-0.543214 0.34197,-0.263487 0.73736,-0.567995 0.87863,-0.676685 1.22049,-0.938999 1.83943,-1.456248 1.79532,-1.500359 -0.0276,-0.02764 -0.42925,-0.133536 -0.89247,-0.235324 -1.94388,-0.427149 -2.96662,-0.668066 -3.08742,-0.727269 -0.0898,-0.04404 -0.20434,-0.230244 -0.38035,-0.618625 -0.1385,-0.305594 -0.32468,-0.710406 -0.41375,-0.899584 -0.0891,-0.189177 -0.37392,-0.795603 -0.63301,-1.347614 -0.25909,-0.552011 -0.49131,-1.010364 -0.51604,-1.018564 -0.0387,-0.01282 -0.54039,1.013619 -1.59714,3.267474 -0.14373,0.306536 -0.29381,0.582305 -0.33353,0.612821 -0.0397,0.03051 -0.643716,0.180058 -1.342216,0.332317 -0.6985,0.15226 -1.508124,0.332608 -1.799166,0.400773 -0.291042,0.06817 -0.606284,0.139949 -0.700538,0.15952 -0.340178,0.07063 -0.46527,-0.04365 2.049914,1.872751 0.82804,0.630911 1.04051,0.830474 1.07667,1.011266 0.0181,0.09034 0.0811,0.621618 0.14005,1.180612 0.059,0.558994 0.14603,1.3195079 0.19348,1.6900313 l 0.0863,0.6736796 0.164566,0.024777 c 0.0905,0.013626 0.50986,0.064407 0.93187,0.1128448 0.42201,0.048437 0.77721,0.097273 0.78934,0.1085236 0.0512,0.047534 0.56943,0.010478 1.50269,-0.107459 z"
       id="path5715" />
  </g>
</svg>
