<?xml version="1.0" encoding="UTF-8" standalone="no"?>
<svg
   xmlns:dc="http://purl.org/dc/elements/1.1/"
   xmlns:cc="http://creativecommons.org/ns#"
   xmlns:rdf="http://www.w3.org/1999/02/22-rdf-syntax-ns#"
   xmlns:svg="http://www.w3.org/2000/svg"
   xmlns="http://www.w3.org/2000/svg"
   xmlns:sodipodi="http://sodipodi.sourceforge.net/DTD/sodipodi-0.dtd"
   xmlns:inkscape="http://www.inkscape.org/namespaces/inkscape"
   width="13.229167mm"
   height="13.229167mm"
   viewBox="0 0 13.229169 13.229168"
   version="1.1"
   id="svg8"
   sodipodi:docname="VCS_resized_207.svg"
   inkscape:version="1.0.2-2 (e86c870879, 2021-01-15)">
  <defs
     id="defs2" />
  <sodipodi:namedview
     id="base"
     pagecolor="#ffffff"
     bordercolor="#666666"
     borderopacity="1.0"
     inkscape:pageopacity="0.0"
     inkscape:pageshadow="2"
     inkscape:zoom="2.8284271"
     inkscape:cx="7.8289198"
     inkscape:cy="72.051969"
     inkscape:document-units="mm"
     inkscape:current-layer="layer1"
     inkscape:document-rotation="0"
     showgrid="false"
     inkscape:window-width="958"
     inkscape:window-height="1008"
     inkscape:window-x="1913"
     inkscape:window-y="0"
     inkscape:window-maximized="0" />
  <metadata
     id="metadata5">
    <rdf:RDF>
      <cc:Work
         rdf:about="">
        <dc:format>image/svg+xml</dc:format>
        <dc:type
           rdf:resource="http://purl.org/dc/dcmitype/StillImage" />
        <dc:title></dc:title>
      </cc:Work>
    </rdf:RDF>
  </metadata>
  <g
     inkscape:label="Ebene 1"
     inkscape:groupmode="layer"
     id="layer1"
     transform="translate(-46.491959,-11.616753)">
    <path
       style="fill:#000000;stroke-width:0.264582"
       d="m 49.354155,24.320428 c -0.05821,-0.05821 -0.105832,-0.132647 -0.105832,-0.165419 0,-0.05933 -0.298572,-0.833946 -0.476748,-1.236873 -0.831936,-1.881331 -0.917804,-2.202206 -1.005938,-3.759022 -0.05388,-0.95167 -0.107176,-1.213121 -0.441896,-2.167644 -0.10206,-0.291042 -0.222248,-0.707761 -0.267086,-0.926042 -0.07689,-0.374331 -0.07602,-0.404365 0.01536,-0.528739 0.12679,-0.172573 1.089592,-0.776293 1.86579,-1.169936 0.338538,-0.171687 0.629832,-0.312158 0.647318,-0.312158 0.12112,0 1.240588,-0.601117 2.150282,-1.15463 0.596636,-0.363029 1.160754,-0.705696 1.253598,-0.761482 l 0.168804,-0.101429 0.540818,0.324826 c 0.297452,0.178655 0.804896,0.493583 1.127654,0.69984 0.517392,0.330638 0.968004,0.565258 2.042044,1.063237 0.547888,0.254028 1.878332,1.033494 2.2225,1.302093 0.196118,0.153058 0.161068,0.478233 -0.15566,1.444059 -0.327596,0.998969 -0.357012,1.152212 -0.398936,2.078277 -0.01844,0.407459 -0.06866,0.937246 -0.111578,1.177306 -0.156032,0.872692 -0.235256,1.090066 -1.406154,3.85815 -0.112724,0.266487 -0.194036,0.387859 -0.274262,0.409381 -0.06272,0.01683 -1.727332,0.03092 -3.69914,0.03132 -3.515044,7e-4 -3.587172,-0.0013 -3.690938,-0.105111 z m 7.281288,-0.199248 c 0.03199,-0.02138 0.119732,-0.193658 0.194986,-0.382835 0.07525,-0.189177 0.314606,-0.76274 0.531896,-1.274583 0.21729,-0.511844 0.466762,-1.154782 0.55438,-1.42875 0.179664,-0.56177 0.327414,-1.513611 0.327524,-2.109959 1.04e-4,-0.566736 0.117926,-1.165319 0.398152,-2.022742 0.298786,-0.914215 0.347196,-1.231369 0.204676,-1.340935 -0.405946,-0.312086 -1.924302,-1.136309 -2.719568,-1.476289 -0.364396,-0.155782 -1.072468,-0.554324 -1.74625,-0.982887 -0.900262,-0.572618 -1.104894,-0.688022 -1.21999,-0.688022 -0.05725,0 -0.28837,0.115449 -0.51361,0.256554 -1.446248,0.906025 -1.906674,1.154874 -3.452234,1.86585 -0.524246,0.241161 -1.17693,0.600723 -1.636138,0.901346 -0.219926,0.143976 -0.268862,0.203671 -0.268862,0.327972 0,0.216512 0.128306,0.69752 0.397488,1.490153 0.243992,0.718458 0.279154,0.927252 0.42328,2.513542 0.04363,0.480218 0.116484,1.013142 0.161894,1.184274 0.04541,0.171131 0.303826,0.825975 0.574258,1.455208 0.27043,0.629233 0.50984,1.201516 0.532022,1.271742 0.02218,0.07023 0.07353,0.207147 0.114112,0.304271 l 0.07378,0.176588 3.505018,-8e-4 c 1.927762,-4.2e-4 3.531192,-0.01831 3.563182,-0.03969 z"
       id="path4211" />
  </g>
</svg>
