<?xml version="1.0" encoding="UTF-8" standalone="no"?>
<svg
   xmlns:dc="http://purl.org/dc/elements/1.1/"
   xmlns:cc="http://creativecommons.org/ns#"
   xmlns:rdf="http://www.w3.org/1999/02/22-rdf-syntax-ns#"
   xmlns:svg="http://www.w3.org/2000/svg"
   xmlns="http://www.w3.org/2000/svg"
   xmlns:sodipodi="http://sodipodi.sourceforge.net/DTD/sodipodi-0.dtd"
   xmlns:inkscape="http://www.inkscape.org/namespaces/inkscape"
   width="13.229167mm"
   height="13.229167mm"
   viewBox="0 0 13.229169 13.229168"
   version="1.1"
   id="svg8"
   sodipodi:docname="VCS_resized_142.svg"
   inkscape:version="1.0.2-2 (e86c870879, 2021-01-15)">
  <defs
     id="defs2" />
  <sodipodi:namedview
     id="base"
     pagecolor="#ffffff"
     bordercolor="#666666"
     borderopacity="1.0"
     inkscape:pageopacity="0.0"
     inkscape:pageshadow="2"
     inkscape:zoom="2.8284271"
     inkscape:cx="-0.4751341"
     inkscape:cy="35.981204"
     inkscape:document-units="mm"
     inkscape:current-layer="layer1"
     inkscape:document-rotation="0"
     showgrid="false"
     inkscape:window-width="958"
     inkscape:window-height="1008"
     inkscape:window-x="1913"
     inkscape:window-y="0"
     inkscape:window-maximized="0" />
  <metadata
     id="metadata5">
    <rdf:RDF>
      <cc:Work
         rdf:about="">
        <dc:format>image/svg+xml</dc:format>
        <dc:type
           rdf:resource="http://purl.org/dc/dcmitype/StillImage" />
        <dc:title></dc:title>
      </cc:Work>
    </rdf:RDF>
  </metadata>
  <g
     inkscape:label="Ebene 1"
     inkscape:groupmode="layer"
     id="layer1"
     transform="translate(-38.325695,-17.071585)">
    <path
       style="fill:#000000;stroke-width:0.264582"
       d="m 43.489035,29.861903 c -0.0291,-0.01142 -0.338668,-0.06239 -0.687916,-0.113264 -0.384098,-0.05595 -0.673322,-0.125442 -0.731984,-0.175867 -0.05334,-0.04585 -0.337952,-0.441032 -0.632468,-0.87818 -0.294518,-0.437149 -0.747536,-1.089296 -1.006708,-1.449217 -0.25917,-0.359921 -0.539614,-0.800555 -0.623206,-0.979187 -0.38067,-0.813474 -0.337286,-1.639214 0.116874,-2.224518 0.114968,-0.148166 0.338644,-0.436081 0.497056,-0.63981 0.695128,-0.893974 0.656782,-1.642409 -0.152648,-2.979434 -0.268392,-0.443332 -0.364656,-0.830553 -0.342466,-1.377566 0.01422,-0.35041 0.04859,-0.519494 0.14592,-0.71765 0.267206,-0.544038 0.644938,-0.825559 1.107698,-0.825559 0.210156,0 0.357846,0.05091 0.760248,0.262083 0.588038,0.308585 1.848612,0.810509 2.266514,0.902461 0.192862,0.04243 0.565018,0.05583 1.084792,0.03904 0.714448,-0.02308 0.839612,-0.04206 1.290096,-0.195603 0.304518,-0.103794 0.665308,-0.279217 0.926042,-0.450259 0.234936,-0.154118 0.552786,-0.345471 0.706336,-0.425227 0.872562,-0.453228 1.758112,0.306479 1.758112,1.508273 0,0.464933 -0.134016,0.878952 -0.456432,1.410082 -0.431104,0.710171 -0.632686,1.290611 -0.572768,1.649232 0.08548,0.511583 0.238426,0.833021 0.628784,1.321447 0.714346,0.893808 0.833544,1.218694 0.72604,1.978876 -0.08363,0.591334 -0.273454,0.942203 -1.427144,2.637862 -1.089694,1.601601 -0.913904,1.446845 -1.835356,1.615745 -0.347432,0.06368 -0.884174,0.09267 -1.984374,0.10715 -0.82947,0.01092 -1.531938,0.01051 -1.561042,-9e-4 z m 3.59208,-0.368921 c 0.229394,-0.04513 0.472166,-0.118144 0.539492,-0.162258 0.120028,-0.07864 1.181064,-1.603431 1.888522,-2.713943 0.515818,-0.809692 0.6152,-1.241001 0.430694,-1.869171 -0.102262,-0.34816 -0.205124,-0.523772 -0.648776,-1.107625 -0.51717,-0.680604 -0.61747,-0.928483 -0.610234,-1.508125 0.0051,-0.408364 0.03134,-0.540164 0.184128,-0.924634 0.098,-0.24661 0.295368,-0.62761 0.438592,-0.846666 0.298996,-0.457302 0.401692,-0.782582 0.402582,-1.275149 0.0012,-0.630989 -0.409054,-1.195792 -0.908232,-1.250561 -0.238882,-0.02621 -0.366662,0.02827 -1.384082,0.590083 -0.84166,0.464762 -1.870318,0.672676 -2.780528,0.562005 -0.603078,-0.07333 -1.208862,-0.271115 -2.383064,-0.77807 -0.800342,-0.345543 -0.959518,-0.397256 -1.154972,-0.375226 -0.338336,0.03814 -0.57404,0.22481 -0.762014,0.603506 -0.151042,0.30429 -0.161,0.359571 -0.143656,0.797496 0.01692,0.427013 0.03718,0.504462 0.219134,0.837212 0.55176,1.009052 0.829732,1.762937 0.83191,2.25621 0.0014,0.30103 -0.24268,0.795682 -0.679054,1.376566 -0.571788,0.76114 -0.657726,0.951898 -0.68605,1.522853 -0.02227,0.448846 -0.0218,0.450793 0.222646,0.926042 0.134728,0.261937 0.400506,0.690562 0.590618,0.952499 0.19011,0.261938 0.619178,0.874343 0.953484,1.360899 0.334304,0.486557 0.636558,0.903093 0.671678,0.925635 0.03512,0.02254 0.32579,0.08183 0.645934,0.131739 0.763242,0.118997 3.461392,0.09849 4.121248,-0.03132 z"
       id="path2314" />
  </g>
</svg>
