<?xml version="1.0" encoding="UTF-8" standalone="no"?>
<svg
   xmlns:dc="http://purl.org/dc/elements/1.1/"
   xmlns:cc="http://creativecommons.org/ns#"
   xmlns:rdf="http://www.w3.org/1999/02/22-rdf-syntax-ns#"
   xmlns:svg="http://www.w3.org/2000/svg"
   xmlns="http://www.w3.org/2000/svg"
   xmlns:sodipodi="http://sodipodi.sourceforge.net/DTD/sodipodi-0.dtd"
   xmlns:inkscape="http://www.inkscape.org/namespaces/inkscape"
   width="13.229167mm"
   height="13.229167mm"
   viewBox="0 0 13.229167 13.229167"
   version="1.1"
   id="svg8"
   sodipodi:docname="VCS_resized_80.svg"
   inkscape:version="1.0.2-2 (e86c870879, 2021-01-15)">
  <defs
     id="defs2" />
  <sodipodi:namedview
     id="base"
     pagecolor="#ffffff"
     bordercolor="#666666"
     borderopacity="1.0"
     inkscape:pageopacity="0.0"
     inkscape:pageshadow="2"
     inkscape:zoom="2.8284271"
     inkscape:cx="-18.926373"
     inkscape:cy="36.47814"
     inkscape:document-units="mm"
     inkscape:current-layer="layer1"
     inkscape:document-rotation="0"
     showgrid="false"
     inkscape:window-width="958"
     inkscape:window-height="1008"
     inkscape:window-x="1913"
     inkscape:window-y="0"
     inkscape:window-maximized="0" />
  <metadata
     id="metadata5">
    <rdf:RDF>
      <cc:Work
         rdf:about="">
        <dc:format>image/svg+xml</dc:format>
        <dc:type
           rdf:resource="http://purl.org/dc/dcmitype/StillImage" />
        <dc:title></dc:title>
      </cc:Work>
    </rdf:RDF>
  </metadata>
  <g
     inkscape:label="Ebene 1"
     inkscape:groupmode="layer"
     id="layer1"
     transform="translate(-43.207588,-16.940105)">
    <path
       style="fill:#000000;stroke-width:0.264582"
       d="m 46.643484,28.886641 c -0.607124,-0.158509 -1.254658,-0.634839 -1.55143,-1.141243 -0.114412,-0.19523 -0.13894,-0.302874 -0.138832,-0.609283 1.86e-4,-0.524397 0.187212,-0.831902 0.999964,-1.644124 0.363102,-0.362865 0.71708,-0.771914 0.82259,-0.950566 0.172998,-0.292927 0.185202,-0.343577 0.18511,-0.768269 -1.06e-4,-0.418613 -0.01582,-0.486497 -0.198474,-0.856056 -0.128556,-0.260115 -0.380892,-0.613499 -0.716938,-1.004039 -0.61546,-0.71526 -0.818576,-1.001729 -0.998128,-1.407729 -0.36613,-0.827885 -0.113364,-1.863463 0.537804,-2.203384 0.328968,-0.171726 0.823762,-0.1537 1.164166,0.04241 0.4525,0.260692 0.593658,0.389624 1.187574,1.08472 0.6268,0.733579 0.80904,0.895078 1.2325,1.092224 0.537184,0.250091 1.291588,0.126847 1.74897,-0.285722 0.117096,-0.105625 0.381108,-0.394452 0.586692,-0.641837 1.044974,-1.257456 1.681132,-1.617648 2.341286,-1.325632 0.329008,0.145536 0.475122,0.284047 0.638716,0.605475 0.197784,0.388607 0.250568,0.83142 0.1542,1.293605 -0.108664,0.521152 -0.321224,0.893863 -0.881018,1.544815 -0.881264,1.02477 -1.14979,1.559551 -1.093698,2.178145 0.04903,0.540722 0.230106,0.819024 1.056894,1.62437 0.876342,0.853617 1.044976,1.128029 1.044222,1.699222 -4e-4,0.28424 -0.02779,0.391615 -0.15788,0.618446 -0.243528,0.424618 -0.615552,0.662469 -1.353812,0.865551 -0.382916,0.105333 -0.602568,0.119003 -2.535896,0.157817 -1.164166,0.02337 -2.497666,0.05547 -2.963332,0.07133 -0.60868,0.02073 -0.921038,0.0094 -1.11125,-0.04024 z M 48.6014,28.60649 c 0.640292,-0.02385 1.640418,-0.03507 2.2225,-0.02494 0.764916,0.01332 1.239322,-0.0053 1.711148,-0.06729 1.085732,-0.14257 1.553014,-0.368967 1.82552,-0.884464 0.127512,-0.24121 0.144992,-0.322192 0.11658,-0.540097 -0.04703,-0.360665 -0.218208,-0.608431 -0.90142,-1.304701 -0.751788,-0.766156 -0.939462,-1.018008 -1.08541,-1.45658 -0.09639,-0.289663 -0.110254,-0.412682 -0.07932,-0.703981 0.07083,-0.666981 0.31768,-1.123932 1.132818,-2.097004 0.555166,-0.66273 0.784046,-1.082797 0.852028,-1.563748 0.08215,-0.58116 -0.07244,-0.998009 -0.482234,-1.300343 -0.132164,-0.09751 -0.240294,-0.127927 -0.454734,-0.127927 -0.51373,0 -0.978242,0.313985 -1.56551,1.058204 -0.5218,0.661255 -0.893208,1.020832 -1.218222,1.179422 -0.425602,0.207669 -0.814988,0.271013 -1.190116,0.193601 -0.61635,-0.12719 -0.967088,-0.386055 -1.674678,-1.236007 -0.58737,-0.705542 -0.80574,-0.904406 -1.182544,-1.076913 -0.661808,-0.302985 -1.21483,-0.06264 -1.41863,0.61653 -0.202612,0.675219 0.04795,1.252498 1.093244,2.518729 0.94743,1.147685 1.161548,1.993509 0.726838,2.871219 -0.06828,0.137855 -0.43091,0.569684 -0.83054,0.989017 -0.945152,0.991753 -1.111284,1.361915 -0.856554,1.908489 0.13888,0.297996 0.611596,0.737211 0.96866,0.900014 0.280446,0.12787 0.863034,0.243371 1.047034,0.207581 0.04366,-0.0085 0.60325,-0.03496 1.243542,-0.05881 z"
       id="path1322" />
  </g>
</svg>
