<?xml version="1.0" encoding="UTF-8" standalone="no"?>
<svg
   xmlns:dc="http://purl.org/dc/elements/1.1/"
   xmlns:cc="http://creativecommons.org/ns#"
   xmlns:rdf="http://www.w3.org/1999/02/22-rdf-syntax-ns#"
   xmlns:svg="http://www.w3.org/2000/svg"
   xmlns="http://www.w3.org/2000/svg"
   xmlns:sodipodi="http://sodipodi.sourceforge.net/DTD/sodipodi-0.dtd"
   xmlns:inkscape="http://www.inkscape.org/namespaces/inkscape"
   width="13.229167mm"
   height="13.229167mm"
   viewBox="0 0 13.229169 13.229168"
   version="1.1"
   id="svg8"
   sodipodi:docname="VCS_resized_218.svg"
   inkscape:version="1.0.2-2 (e86c870879, 2021-01-15)">
  <defs
     id="defs2" />
  <sodipodi:namedview
     id="base"
     pagecolor="#ffffff"
     bordercolor="#666666"
     borderopacity="1.0"
     inkscape:pageopacity="0.0"
     inkscape:pageshadow="2"
     inkscape:zoom="2.8284271"
     inkscape:cx="9.2881289"
     inkscape:cy="82.999988"
     inkscape:document-units="mm"
     inkscape:current-layer="layer1"
     inkscape:document-rotation="0"
     showgrid="false"
     inkscape:window-width="958"
     inkscape:window-height="1008"
     inkscape:window-x="1913"
     inkscape:window-y="0"
     inkscape:window-maximized="0" />
  <metadata
     id="metadata5">
    <rdf:RDF>
      <cc:Work
         rdf:about="">
        <dc:format>image/svg+xml</dc:format>
        <dc:type
           rdf:resource="http://purl.org/dc/dcmitype/StillImage" />
        <dc:title></dc:title>
      </cc:Work>
    </rdf:RDF>
  </metadata>
  <g
     inkscape:label="Ebene 1"
     inkscape:groupmode="layer"
     id="layer1"
     transform="translate(-46.105877,-8.7200899)">
    <path
       style="fill:#000000;stroke-width:0.264582"
       d="m 48.789334,21.499997 c -0.0477,-0.05747 -0.582218,-1.579851 -0.99845,-2.843714 -0.13389,-0.406545 -0.33781,-1.262402 -0.579978,-2.434167 -0.07519,-0.363802 -0.250718,-0.971021 -0.390068,-1.349375 -0.346964,-0.942049 -0.49963,-1.524197 -0.432572,-1.649495 0.05574,-0.104155 0.496952,-0.364421 2.205342,-1.300911 1.276394,-0.699682 1.875528,-1.115864 3.832922,-2.6624931 0.129024,-0.101948 0.264386,-0.173926 0.300806,-0.15995 0.0913,0.03503 0.985434,0.697163 1.687106,1.2493411 0.944736,0.743456 1.069272,0.820592 3.711892,2.299082 0.3535,0.197775 0.71001,0.413241 0.792244,0.478812 l 0.149518,0.119221 -0.09198,0.383254 c -0.05059,0.210789 -0.163502,0.561869 -0.250916,0.780176 -0.196598,0.490982 -0.383862,1.160039 -0.49985,1.78588 -0.172168,0.928966 -0.50622,2.143275 -0.904114,3.286547 -0.221748,0.637148 -0.461246,1.342574 -0.532216,1.567611 -0.07993,0.253432 -0.167344,0.429658 -0.229684,0.463021 -0.160152,0.08571 -7.698548,0.07325 -7.77,-0.01284 z m 7.75053,-0.568298 c 0.06302,-0.189177 0.296882,-0.867833 0.519686,-1.508125 0.38017,-1.09253 0.675184,-2.192484 0.90123,-3.360208 0.0916,-0.473165 0.235008,-0.954311 0.599362,-2.010833 0.267594,-0.775952 0.287366,-0.694145 -0.242994,-1.005415 -0.254718,-0.149494 -0.501116,-0.291898 -0.54755,-0.316454 -2.110766,-1.116235 -2.528064,-1.380199 -4.035706,-2.552808 -0.43251,-0.3363971 -0.840772,-0.6407391 -0.907248,-0.6763161 -0.140326,-0.0751 -0.2525,-0.0049 -1.357202,0.8493111 -1.131028,0.874573 -1.68357,1.238736 -2.664168,1.755869 -0.523874,0.276274 -1.22039,0.652338 -1.547812,0.835699 -0.523824,0.293349 -0.595312,0.35015 -0.595312,0.473006 0,0.151386 0.197062,0.787433 0.495528,1.599398 0.105708,0.287574 0.319454,1.123638 0.487026,1.905 0.208258,0.971071 0.379254,1.616709 0.565008,2.133335 0.146504,0.407458 0.37054,1.059167 0.49786,1.448242 0.12732,0.389075 0.244564,0.728563 0.260544,0.754419 0.01662,0.02689 1.618662,0.04119 3.743106,0.03342 l 3.714052,-0.01359 z"
       id="path4387" />
  </g>
</svg>
