<?xml version="1.0" encoding="UTF-8" standalone="no"?>
<svg
   xmlns:dc="http://purl.org/dc/elements/1.1/"
   xmlns:cc="http://creativecommons.org/ns#"
   xmlns:rdf="http://www.w3.org/1999/02/22-rdf-syntax-ns#"
   xmlns:svg="http://www.w3.org/2000/svg"
   xmlns="http://www.w3.org/2000/svg"
   xmlns:sodipodi="http://sodipodi.sourceforge.net/DTD/sodipodi-0.dtd"
   xmlns:inkscape="http://www.inkscape.org/namespaces/inkscape"
   width="13.229167mm"
   height="13.229167mm"
   viewBox="0 0 13.229169 13.229168"
   version="1.1"
   id="svg8"
   sodipodi:docname="VCS_resized_162.svg"
   inkscape:version="1.0.2-2 (e86c870879, 2021-01-15)">
  <defs
     id="defs2" />
  <sodipodi:namedview
     id="base"
     pagecolor="#ffffff"
     bordercolor="#666666"
     borderopacity="1.0"
     inkscape:pageopacity="0.0"
     inkscape:pageshadow="2"
     inkscape:zoom="2.8284271"
     inkscape:cx="-23.666282"
     inkscape:cy="62.071125"
     inkscape:document-units="mm"
     inkscape:current-layer="layer1"
     inkscape:document-rotation="0"
     showgrid="false"
     inkscape:window-width="958"
     inkscape:window-height="1008"
     inkscape:window-x="1913"
     inkscape:window-y="0"
     inkscape:window-maximized="0" />
  <metadata
     id="metadata5">
    <rdf:RDF>
      <cc:Work
         rdf:about="">
        <dc:format>image/svg+xml</dc:format>
        <dc:type
           rdf:resource="http://purl.org/dc/dcmitype/StillImage" />
        <dc:title></dc:title>
      </cc:Work>
    </rdf:RDF>
  </metadata>
  <g
     inkscape:label="Ebene 1"
     inkscape:groupmode="layer"
     id="layer1"
     transform="translate(-44.461685,-10.168627)">
    <path
       style="fill:#000000;stroke-width:0.264582"
       d="m 48.563325,22.71702 c -0.30015,-0.02115 -0.489786,-0.05999 -0.540416,-0.110679 -0.0429,-0.04295 -0.272466,-0.411467 -0.51015,-0.818925 -0.237682,-0.407458 -0.678518,-1.127831 -0.979632,-1.600828 -0.301114,-0.472997 -0.581056,-0.925434 -0.622092,-1.005417 -0.247846,-0.483066 -0.378152,-1.275677 -0.289242,-1.75938 0.03301,-0.179571 0.201338,-0.575714 0.439498,-1.034301 0.472238,-0.909309 0.539996,-1.180233 0.428692,-1.714055 -0.04378,-0.20996 -0.173942,-0.5883 -0.289252,-0.840757 -0.26934,-0.589682 -0.33719,-0.849538 -0.340922,-1.305679 -0.0037,-0.454087 0.17052,-0.848011 0.537314,-1.214804 0.489196,-0.489197 0.922324,-0.585957 1.702574,-0.380356 0.706786,0.186243 1.713648,0.250729 3.518958,0.225378 1.375726,-0.01932 1.578408,-0.03358 1.957918,-0.137775 0.714722,-0.196227 0.784414,-0.209706 1.084792,-0.20981 0.354598,-1.21e-4 0.62805,0.118297 0.965582,0.418148 0.274134,0.24353 0.594346,0.768149 0.647662,1.061094 0.05716,0.314054 -0.06822,0.880649 -0.314672,1.422042 -0.127542,0.280179 -0.259982,0.616114 -0.29431,0.746521 -0.141662,0.538139 -0.02381,1.162981 0.326392,1.730506 0.44604,0.72284 0.536632,0.955974 0.562468,1.447517 0.03719,0.70751 -0.169112,1.337504 -0.718478,2.194039 -0.240856,0.375528 -0.897508,1.460092 -1.259322,2.079965 -0.453006,0.776113 -0.381932,0.735416 -1.398406,0.800722 -0.91392,0.05872 -3.817712,0.06302 -4.614956,0.0068 z m 4.023094,-0.216321 c 0.670822,-0.03256 1.137356,-0.07899 1.243542,-0.123767 0.136848,-0.05771 0.246216,-0.20453 0.561582,-0.753922 0.215402,-0.375243 0.630188,-1.063261 0.921746,-1.528927 0.833862,-1.331809 1.01402,-1.813771 0.935132,-2.501669 -0.04648,-0.40528 -0.147084,-0.658877 -0.493566,-1.244119 -0.34588,-0.584224 -0.420672,-0.829228 -0.41269,-1.351874 0.0081,-0.527754 0.102796,-0.877398 0.40716,-1.502748 0.421046,-0.865085 0.367628,-1.345941 -0.214192,-1.928126 -0.24376,-0.243911 -0.390914,-0.345307 -0.582002,-0.401026 -0.271166,-0.07907 -0.311156,-0.07503 -1.455934,0.147038 -0.321474,0.06236 -0.857386,0.09432 -1.878542,0.112029 -1.559136,0.02704 -2.507664,-0.02841 -3.469516,-0.202838 -0.719386,-0.130454 -0.985528,-0.107512 -1.336756,0.115231 -0.30076,0.190736 -0.594512,0.623451 -0.672802,0.991081 -0.07946,0.373113 -0.0048,0.708128 0.318638,1.430736 0.464616,1.037867 0.473102,1.599515 0.03691,2.442645 -0.11414,0.220627 -0.265224,0.513889 -0.33574,0.651694 -0.07052,0.137805 -0.167408,0.431178 -0.215316,0.651941 -0.163062,0.751413 -0.001,1.21391 0.935052,2.66938 0.252704,0.392906 0.644018,1.027468 0.869588,1.410137 0.225568,0.38267 0.452958,0.734527 0.50531,0.781904 0.172972,0.156537 2.436994,0.22719 4.332392,0.1352 z"
       id="path2636" />
  </g>
</svg>
