<?xml version="1.0" encoding="UTF-8" standalone="no"?>
<svg
   xmlns:dc="http://purl.org/dc/elements/1.1/"
   xmlns:cc="http://creativecommons.org/ns#"
   xmlns:rdf="http://www.w3.org/1999/02/22-rdf-syntax-ns#"
   xmlns:svg="http://www.w3.org/2000/svg"
   xmlns="http://www.w3.org/2000/svg"
   xmlns:sodipodi="http://sodipodi.sourceforge.net/DTD/sodipodi-0.dtd"
   xmlns:inkscape="http://www.inkscape.org/namespaces/inkscape"
   width="13.229167mm"
   height="13.229167mm"
   viewBox="0 0 13.229169 13.229168"
   version="1.1"
   id="svg8"
   sodipodi:docname="VCS_resized_228.svg"
   inkscape:version="1.0.2-2 (e86c870879, 2021-01-15)">
  <defs
     id="defs2" />
  <sodipodi:namedview
     id="base"
     pagecolor="#ffffff"
     bordercolor="#666666"
     borderopacity="1.0"
     inkscape:pageopacity="0.0"
     inkscape:pageshadow="2"
     inkscape:zoom="2.8284271"
     inkscape:cx="5.586098"
     inkscape:cy="49.446746"
     inkscape:document-units="mm"
     inkscape:current-layer="layer1"
     inkscape:document-rotation="0"
     showgrid="false"
     inkscape:window-width="958"
     inkscape:window-height="1008"
     inkscape:window-x="1913"
     inkscape:window-y="0"
     inkscape:window-maximized="0" />
  <metadata
     id="metadata5">
    <rdf:RDF>
      <cc:Work
         rdf:about="">
        <dc:format>image/svg+xml</dc:format>
        <dc:type
           rdf:resource="http://purl.org/dc/dcmitype/StillImage" />
        <dc:title></dc:title>
      </cc:Work>
    </rdf:RDF>
  </metadata>
  <g
     inkscape:label="Ebene 1"
     inkscape:groupmode="layer"
     id="layer1"
     transform="translate(-47.085373,-17.597717)">
    <path
       style="fill:#000000;stroke-width:0.264582"
       d="m 49.652181,30.365317 c -0.04531,-0.06468 -0.08238,-0.169088 -0.08238,-0.232007 0,-0.09761 -0.232592,-1.02977 -0.63416,-2.541521 -0.05516,-0.207676 -0.13765,-0.574491 -0.183302,-0.815142 -0.09989,-0.526557 -0.702582,-2.336283 -0.97617,-2.931163 -0.277942,-0.604346 -0.552224,-1.389739 -0.517204,-1.480995 0.01632,-0.04253 0.792182,-0.459761 1.724138,-0.927181 2.002664,-1.004431 1.827352,-0.875395 4.29992,-3.164904 0.196444,-0.181901 0.382412,-0.330729 0.413258,-0.330729 0.05226,0 0.368084,0.277789 1.562062,1.373934 1.221798,1.121688 1.32399,1.190451 3.107834,2.091194 0.910066,0.459533 1.684432,0.859005 1.720812,0.887714 0.106484,0.08403 0.08167,0.185588 -0.22936,0.938824 -0.338824,0.820538 -1.05071,2.878146 -1.17171,3.386667 -0.400116,1.681538 -0.93772,3.685066 -1.013118,3.775657 -0.06628,0.07963 -0.416302,0.08726 -4.005438,0.08726 h -3.93281 z m 7.890686,-0.385101 c 0.03411,-0.116416 0.159168,-0.58076 0.277906,-1.031875 0.118736,-0.451114 0.261542,-0.986896 0.317344,-1.190625 0.0558,-0.203729 0.153316,-0.620448 0.2167,-0.926041 0.137054,-0.660794 0.661678,-2.230622 1.14494,-3.425986 0.191118,-0.472739 0.3353,-0.889458 0.320404,-0.926041 -0.0149,-0.03658 -0.202054,-0.153727 -0.415908,-0.260319 -0.213852,-0.106591 -0.945874,-0.470866 -1.626712,-0.809499 -1.45681,-0.724582 -1.780434,-0.967403 -3.581534,-2.687284 -0.205932,-0.196646 -0.421736,-0.357538 -0.479562,-0.357538 -0.06101,0 -0.381388,0.25746 -0.763284,0.61338 -0.650218,0.60599 -1.432622,1.292196 -1.90835,1.673714 -0.134634,0.107971 -0.974024,0.552554 -1.865314,0.987962 -0.931772,0.455185 -1.620526,0.821951 -1.620526,0.862942 0,0.09041 0.242984,0.719293 0.521654,1.350134 0.321178,0.727061 0.831918,2.294331 0.9534,2.925618 0.05881,0.305594 0.188652,0.841375 0.288546,1.190625 0.0999,0.34925 0.270662,0.998297 0.379482,1.442328 l 0.197856,0.807327 3.790468,-0.01358 3.79047,-0.01358 z"
       id="path4547" />
  </g>
</svg>
