<?xml version="1.0" encoding="UTF-8" standalone="no"?>
<svg
   xmlns:dc="http://purl.org/dc/elements/1.1/"
   xmlns:cc="http://creativecommons.org/ns#"
   xmlns:rdf="http://www.w3.org/1999/02/22-rdf-syntax-ns#"
   xmlns:svg="http://www.w3.org/2000/svg"
   xmlns="http://www.w3.org/2000/svg"
   xmlns:sodipodi="http://sodipodi.sourceforge.net/DTD/sodipodi-0.dtd"
   xmlns:inkscape="http://www.inkscape.org/namespaces/inkscape"
   width="13.229167mm"
   height="13.229167mm"
   viewBox="0 0 13.229167 13.229167"
   version="1.1"
   id="svg8"
   sodipodi:docname="VCS_resized_89.svg"
   inkscape:version="1.0.2-2 (e86c870879, 2021-01-15)">
  <defs
     id="defs2" />
  <sodipodi:namedview
     id="base"
     pagecolor="#ffffff"
     bordercolor="#666666"
     borderopacity="1.0"
     inkscape:pageopacity="0.0"
     inkscape:pageshadow="2"
     inkscape:zoom="2.8284271"
     inkscape:cx="8.9889371"
     inkscape:cy="31.901216"
     inkscape:document-units="mm"
     inkscape:current-layer="layer1"
     inkscape:document-rotation="0"
     showgrid="false"
     inkscape:window-width="958"
     inkscape:window-height="1008"
     inkscape:window-x="1913"
     inkscape:window-y="0"
     inkscape:window-maximized="0" />
  <metadata
     id="metadata5">
    <rdf:RDF>
      <cc:Work
         rdf:about="">
        <dc:format>image/svg+xml</dc:format>
        <dc:type
           rdf:resource="http://purl.org/dc/dcmitype/StillImage" />
        <dc:title></dc:title>
      </cc:Work>
    </rdf:RDF>
  </metadata>
  <g
     inkscape:label="Ebene 1"
     inkscape:groupmode="layer"
     id="layer1"
     transform="translate(-35.821663,-18.151083)">
    <path
       style="fill:#000000;stroke-width:0.264582"
       d="M 40.53038,30.366728 C 39.354596,30.243738 38.6594,29.971771 38.121286,29.42427 37.55729,28.850437 37.38908,28.433669 37.512994,27.917131 c 0.07931,-0.330608 0.285364,-0.608991 1.002272,-1.354107 0.83092,-0.863611 1.002916,-1.157864 1.007374,-1.723416 0.0047,-0.590031 -0.270446,-1.133745 -1.01557,-2.007209 -0.815274,-0.955696 -1.092538,-1.584196 -1.029672,-2.334056 0.07911,-0.943603 0.701362,-1.514499 1.488834,-1.365951 0.437276,0.08249 0.88021,0.431525 1.534686,1.209354 0.907042,1.077999 1.203472,1.273973 1.92562,1.273053 0.313538,-4.2e-4 0.46583,-0.02859 0.6703,-0.12408 0.374566,-0.174928 0.532962,-0.323046 1.18747,-1.110428 0.816392,-0.98213 1.19343,-1.252058 1.748886,-1.252058 0.523914,0 0.88277,0.245589 1.121166,0.767291 0.102282,0.223835 0.121056,0.354231 0.1219,0.846667 8e-4,0.504062 -0.01634,0.621094 -0.128376,0.873125 -0.184154,0.414285 -0.341934,0.649411 -0.798968,1.190625 -0.656048,0.776884 -0.893362,1.171877 -1.034078,1.72114 -0.07434,0.290163 -0.07391,0.34582 0.0047,0.621694 0.127286,0.446626 0.361392,0.76363 1.098792,1.487886 0.775124,0.761304 0.942486,1.024131 0.977488,1.535052 0.02116,0.308937 0.0062,0.382789 -0.129388,0.640122 -0.100406,0.19051 -0.261948,0.378477 -0.468122,0.544693 -0.406798,0.32796 -1.384416,0.805314 -1.796476,0.877189 -1.014288,0.176921 -3.379164,0.247268 -4.471458,0.133011 z m 3.545416,-0.30818 c 0.978646,-0.132932 1.30222,-0.226263 1.961282,-0.565706 0.901116,-0.464109 1.247662,-1.096063 0.944484,-1.722343 -0.06077,-0.125527 -0.406084,-0.538279 -0.767374,-0.917228 -0.739042,-0.775165 -0.97588,-1.104966 -1.112322,-1.54892 -0.08087,-0.263137 -0.086,-0.362403 -0.03647,-0.706196 0.09186,-0.637653 0.370136,-1.132123 1.231952,-2.189089 0.17798,-0.218281 0.411736,-0.574316 0.51946,-0.791189 0.184846,-0.372137 0.195834,-0.422729 0.195376,-0.899583 -4e-4,-0.436706 -0.01784,-0.535688 -0.128398,-0.729438 -0.235556,-0.412814 -0.696354,-0.617885 -1.09798,-0.488639 -0.425232,0.136843 -0.778434,0.450501 -1.428346,1.268432 -0.412786,0.519501 -0.821246,0.883393 -1.181248,1.052361 -0.389194,0.182668 -1.113046,0.195151 -1.481668,0.02555 -0.358346,-0.164873 -0.757898,-0.505989 -1.125428,-0.96083 -0.531004,-0.657151 -0.974038,-1.096317 -1.266616,-1.255558 -0.69707,-0.379393 -1.376384,-0.06212 -1.523068,0.711344 -0.07189,0.379091 0.007,0.844594 0.21132,1.247341 0.0886,0.174625 0.411928,0.638969 0.7185,1.031875 0.356648,0.457083 0.646804,0.895432 0.80562,1.217083 0.243294,0.492743 0.2482,0.512674 0.24747,1.005417 -10e-4,0.692166 -0.120774,0.927123 -0.885068,1.736581 -1.26102,1.335537 -1.3522,1.651859 -0.710594,2.465178 0.434184,0.550386 1.340588,0.954128 2.322698,1.034607 0.885914,0.0726 2.987808,0.06026 3.586416,-0.02105 z"
       id="path1466" />
  </g>
</svg>
