<?xml version="1.0" encoding="UTF-8" standalone="no"?>
<svg
   xmlns:dc="http://purl.org/dc/elements/1.1/"
   xmlns:cc="http://creativecommons.org/ns#"
   xmlns:rdf="http://www.w3.org/1999/02/22-rdf-syntax-ns#"
   xmlns:svg="http://www.w3.org/2000/svg"
   xmlns="http://www.w3.org/2000/svg"
   xmlns:sodipodi="http://sodipodi.sourceforge.net/DTD/sodipodi-0.dtd"
   xmlns:inkscape="http://www.inkscape.org/namespaces/inkscape"
   width="13.229167mm"
   height="13.229167mm"
   viewBox="0 0 13.229169 13.229168"
   version="1.1"
   id="svg8"
   sodipodi:docname="VCS_resized_262.svg"
   inkscape:version="1.0.2-2 (e86c870879, 2021-01-15)">
  <defs
     id="defs2" />
  <sodipodi:namedview
     id="base"
     pagecolor="#ffffff"
     bordercolor="#666666"
     borderopacity="1.0"
     inkscape:pageopacity="0.0"
     inkscape:pageshadow="2"
     inkscape:zoom="4"
     inkscape:cx="23.09673"
     inkscape:cy="34.246273"
     inkscape:document-units="mm"
     inkscape:current-layer="layer1"
     inkscape:document-rotation="0"
     showgrid="false"
     inkscape:window-width="958"
     inkscape:window-height="1008"
     inkscape:window-x="1913"
     inkscape:window-y="0"
     inkscape:window-maximized="0" />
  <metadata
     id="metadata5">
    <rdf:RDF>
      <cc:Work
         rdf:about="">
        <dc:format>image/svg+xml</dc:format>
        <dc:type
           rdf:resource="http://purl.org/dc/dcmitype/StillImage" />
        <dc:title></dc:title>
      </cc:Work>
    </rdf:RDF>
  </metadata>
  <g
     inkscape:label="Ebene 1"
     inkscape:groupmode="layer"
     id="layer1"
     transform="translate(-72.652344,13.67628)">
    <path
       style="fill:#000000;stroke-width:0.264582"
       d="m 75.398862,-0.83559267 c -0.01326,-0.0654842 -0.03735,-0.57150003 -0.05353,-1.12447903 -0.01618,-0.5529792 -0.0575,-1.5013972 -0.09182,-2.1075953 l -0.0624,-1.102179 -1.25937,-1.7288626 c -0.692656,-0.9508749 -1.25215,-1.7526089 -1.243324,-1.7816317 0.01418,-0.04665 0.757276,-0.2616702 3.315666,-0.959423 l 0.715422,-0.1951176 0.448746,-0.6312161 c 0.24681,-0.347169 0.794106,-1.147087 1.216216,-1.777595 0.553384,-0.826596 0.79915,-1.150902 0.881038,-1.162592 0.09525,-0.0136 0.263378,0.205747 1.042446,1.360007 1.110692,1.64559 1.443072,2.1078557 1.560958,2.1709471 0.139708,0.07477 1.415968,0.4503082 2.600795,0.7652824 1.250166,0.3323442 1.375832,0.3752836 1.375832,0.4701138 0,0.038298 -0.184546,0.3217186 -0.410104,0.6298238 -0.65734,0.8979111 -1.826711,2.5344541 -1.977159,2.7670479 -0.130074,0.2010976 -0.141918,0.2752364 -0.199008,1.2456984 -0.03339,0.5675315 -0.07614,1.5378907 -0.095,2.1563543 l -0.0343,1.12447923 H 79.276474 75.42298 Z m 7.468704,-0.46302083 c 0.0065,-0.1600728 0.0509,-1.1006666 0.09865,-2.0902082 l 0.08683,-1.7991669 0.2216,-0.2910416 c 0.121882,-0.160073 0.516536,-0.7077604 0.877012,-1.2170834 0.360473,-0.5093228 0.793813,-1.1149423 0.962973,-1.3458215 0.16916,-0.230879 0.307564,-0.4476502 0.307564,-0.4817136 0,-0.034868 -0.317972,-0.1469274 -0.727604,-0.2564214 -0.400183,-0.1069684 -1.246647,-0.3406766 -1.881031,-0.5193508 l -1.153428,-0.3248622 -0.513448,-0.7189279 c -0.282396,-0.395411 -0.811104,-1.164311 -1.174906,-1.708667 -0.363802,-0.544355 -0.678438,-0.984796 -0.699194,-0.978757 -0.02075,0.006 -0.339182,0.462971 -0.707618,1.015405 -0.368436,0.552434 -0.894598,1.319107 -1.169248,1.703717 -0.488306,0.6838099 -0.505444,0.7009883 -0.774046,0.7759161 -0.530476,0.1479778 -2.449566,0.6768142 -2.946976,0.8120862 -0.27649,0.075192 -0.520462,0.1524354 -0.542158,0.171651 -0.0217,0.019216 0.170118,0.319604 0.426256,0.6675296 0.25614,0.3479253 0.772924,1.0612165 1.14841,1.5850915 0.375488,0.523875 0.698216,0.9644064 0.717176,0.9789584 0.04304,0.033036 0.209582,3.0615917 0.208806,3.7971381 l -6e-4,0.54276323 3.611562,-0.013596 3.611562,-0.013596 z"
       id="path5105" />
  </g>
</svg>
