<?xml version="1.0" encoding="UTF-8" standalone="no"?>
<svg
   xmlns:dc="http://purl.org/dc/elements/1.1/"
   xmlns:cc="http://creativecommons.org/ns#"
   xmlns:rdf="http://www.w3.org/1999/02/22-rdf-syntax-ns#"
   xmlns:svg="http://www.w3.org/2000/svg"
   xmlns="http://www.w3.org/2000/svg"
   xmlns:sodipodi="http://sodipodi.sourceforge.net/DTD/sodipodi-0.dtd"
   xmlns:inkscape="http://www.inkscape.org/namespaces/inkscape"
   width="13.229167mm"
   height="13.229167mm"
   viewBox="0 0 13.229169 13.229168"
   version="1.1"
   id="svg8"
   sodipodi:docname="VCS_resized_192.svg"
   inkscape:version="1.0.2-2 (e86c870879, 2021-01-15)">
  <defs
     id="defs2" />
  <sodipodi:namedview
     id="base"
     pagecolor="#ffffff"
     bordercolor="#666666"
     borderopacity="1.0"
     inkscape:pageopacity="0.0"
     inkscape:pageshadow="2"
     inkscape:zoom="2.8284271"
     inkscape:cx="21.279469"
     inkscape:cy="24.793123"
     inkscape:document-units="mm"
     inkscape:current-layer="layer1"
     inkscape:document-rotation="0"
     showgrid="false"
     inkscape:window-width="958"
     inkscape:window-height="1008"
     inkscape:window-x="1913"
     inkscape:window-y="0"
     inkscape:window-maximized="0" />
  <metadata
     id="metadata5">
    <rdf:RDF>
      <cc:Work
         rdf:about="">
        <dc:format>image/svg+xml</dc:format>
        <dc:type
           rdf:resource="http://purl.org/dc/dcmitype/StillImage" />
        <dc:title></dc:title>
      </cc:Work>
    </rdf:RDF>
  </metadata>
  <g
     inkscape:label="Ebene 1"
     inkscape:groupmode="layer"
     id="layer1"
     transform="translate(-42.933167,-24.120655)">
    <path
       style="fill:#000000;stroke-width:0.264582"
       d="m 46.454254,36.814438 -0.380298,-0.02646 -0.843458,-1.679611 c -0.523666,-1.0428 -0.878332,-1.815223 -0.93544,-2.037292 -0.137096,-0.533105 -0.161054,-1.230417 -0.06243,-1.81699 0.193206,-1.149101 0.16542,-1.562883 -0.157006,-2.337939 -0.140922,-0.338755 -0.256262,-0.811398 -0.308486,-1.264113 -0.03261,-0.28268 -0.02539,-0.309216 0.133392,-0.490053 0.22713,-0.258687 0.881362,-0.711587 1.41224,-0.97764 0.241192,-0.120874 0.775692,-0.313381 1.195806,-0.430683 0.771872,-0.215518 1.650926,-0.522435 2.595338,-0.906148 l 0.523112,-0.21254 0.455846,0.169354 c 0.250716,0.09314 0.741596,0.294429 1.090846,0.447299 0.443258,0.194018 0.834732,0.320109 1.296458,0.41758 0.765346,0.161565 1.276006,0.389205 2.0597,0.918164 0.629886,0.425146 0.733678,0.520395 0.78958,0.724599 0.07525,0.274882 -0.0292,0.945517 -0.225514,1.447905 -0.308234,0.788808 -0.33888,1.364688 -0.137174,2.577692 0.16881,1.015174 -0.01518,1.767047 -0.796328,3.254375 -0.206358,0.392906 -0.52395,1.023937 -0.705758,1.402291 -0.18181,0.378354 -0.36459,0.71549 -0.40618,0.749191 -0.07894,0.06397 -5.808646,0.125674 -6.594248,0.07102 z m 6.337924,-0.266993 c 0.119314,-0.06386 1.49335,-2.778041 1.713254,-3.384257 0.239386,-0.659921 0.254806,-0.907638 0.125036,-2.008698 -0.133012,-1.12856 -0.10314,-1.607114 0.142524,-2.283257 C 55,28.246435 55.063094,27.976112 55.063094,27.628299 V 27.302308 L 54.78528,27.091479 c -0.698164,-0.529828 -1.483288,-0.933707 -2.088696,-1.074456 -0.703856,-0.163637 -1.054702,-0.28153 -1.852088,-0.622345 -0.40101,-0.171398 -0.848174,-0.341887 -0.993694,-0.378864 -0.25513,-0.06483 -0.282548,-0.06023 -0.767292,0.128742 -0.830024,0.32357 -1.757874,0.646292 -2.446076,0.850786 -0.83,0.246628 -1.350526,0.474993 -1.902352,0.834596 -0.638124,0.41584 -0.678868,0.463484 -0.677552,0.79229 0.0014,0.35482 0.100474,0.777215 0.340072,1.450147 0.243174,0.682971 0.29603,1.3315 0.167364,2.053521 -0.100698,0.565086 -0.110738,1.440837 -0.02103,1.834817 0.07071,0.310571 1.639864,3.469691 1.776172,3.575912 0.111178,0.08664 6.31104,0.097 6.472072,0.01082 z"
       id="path3955" />
  </g>
</svg>
