<?xml version="1.0" encoding="UTF-8" standalone="no"?>
<svg
   xmlns:dc="http://purl.org/dc/elements/1.1/"
   xmlns:cc="http://creativecommons.org/ns#"
   xmlns:rdf="http://www.w3.org/1999/02/22-rdf-syntax-ns#"
   xmlns:svg="http://www.w3.org/2000/svg"
   xmlns="http://www.w3.org/2000/svg"
   xmlns:sodipodi="http://sodipodi.sourceforge.net/DTD/sodipodi-0.dtd"
   xmlns:inkscape="http://www.inkscape.org/namespaces/inkscape"
   width="13.229167mm"
   height="13.229167mm"
   viewBox="0 0 13.229167 13.229167"
   version="1.1"
   id="svg8"
   sodipodi:docname="VCS_resized_46.svg"
   inkscape:version="1.0.2-2 (e86c870879, 2021-01-15)">
  <defs
     id="defs2" />
  <sodipodi:namedview
     id="base"
     pagecolor="#ffffff"
     bordercolor="#666666"
     borderopacity="1.0"
     inkscape:pageopacity="0.0"
     inkscape:pageshadow="2"
     inkscape:zoom="2.8284271"
     inkscape:cx="-17.757322"
     inkscape:cy="68.699658"
     inkscape:document-units="mm"
     inkscape:current-layer="layer1"
     inkscape:document-rotation="0"
     showgrid="false"
     inkscape:window-width="958"
     inkscape:window-height="1008"
     inkscape:window-x="1913"
     inkscape:window-y="0"
     inkscape:window-maximized="0" />
  <metadata
     id="metadata5">
    <rdf:RDF>
      <cc:Work
         rdf:about="">
        <dc:format>image/svg+xml</dc:format>
        <dc:type
           rdf:resource="http://purl.org/dc/dcmitype/StillImage" />
        <dc:title></dc:title>
      </cc:Work>
    </rdf:RDF>
  </metadata>
  <g
     inkscape:label="Ebene 1"
     inkscape:groupmode="layer"
     id="layer1"
     transform="translate(-42.898277,-8.4148283)">
    <path
       style="fill:#000000;stroke-width:0.264582"
       d="m 46.187568,19.945202 c -0.537438,-0.08326 -0.8466,-0.368716 -1.014194,-0.93641 -0.06819,-0.230984 -0.07149,-0.329088 -0.0196,-0.582082 0.0974,-0.474836 0.281926,-0.791238 0.790666,-1.355718 0.277136,-0.307496 0.552046,-0.677434 0.668502,-0.899582 0.172896,-0.329806 0.198112,-0.424464 0.200288,-0.751826 0.0021,-0.317874 -0.02307,-0.425916 -0.166484,-0.714376 -0.17775,-0.357516 -0.326236,-0.52662 -1.246474,-1.419547 -0.724744,-0.703238 -0.909948,-1.038791 -0.909948,-1.648657 0,-0.356526 0.01726,-0.427294 0.151428,-0.621091 0.211488,-0.305465 0.525138,-0.447815 0.97642,-0.443148 0.1946,0.002 0.454504,0.03935 0.577564,0.08297 0.28447,0.10084 0.783686,0.438549 1.257922,0.850962 0.92686,0.806029 1.568336,1.02716 2.279218,0.785696 0.271236,-0.09213 0.474098,-0.278409 1.504324,-1.381357 0.36576,-0.391579 0.518492,-0.513654 0.817522,-0.653433 0.707908,-0.3309022 1.344952,-0.192723 1.616644,0.350661 0.11326,0.22652 0.132292,0.336903 0.132292,0.767291 0,0.44705 -0.01692,0.537152 -0.152746,0.813794 -0.08401,0.171096 -0.323842,0.516377 -0.53296,0.767291 -0.736154,0.883292 -0.936152,1.265196 -0.945556,1.805582 -0.01058,0.607976 0.259188,1.025174 1.120944,1.733534 0.915866,0.752836 1.225528,1.217928 1.241602,1.8648 0.0097,0.390318 -0.136762,0.668566 -0.448236,0.851568 -0.367322,0.215814 -0.599024,0.272662 -1.02389,0.251206 -0.364636,-0.01842 -0.439124,-0.04567 -1.234414,-0.4517 -1.072116,-0.547364 -1.614556,-0.692508 -2.224128,-0.595128 -0.456784,0.07297 -0.910306,0.321104 -1.532838,0.838652 -0.795828,0.661618 -1.173782,0.800058 -1.883868,0.690046 z m 1.001506,-0.373164 c 0.116416,-0.05544 0.437886,-0.291054 0.714376,-0.523588 0.485414,-0.408248 0.990024,-0.7158 1.375832,-0.83855 0.698772,-0.22232 1.554364,-0.03039 2.69875,0.605398 0.60024,0.333476 0.900534,0.417964 1.327094,0.37338 0.611544,-0.06392 0.948324,-0.369578 0.948324,-0.860694 0,-0.427858 -0.191734,-0.737208 -0.80721,-1.302376 -1.484256,-1.36294 -1.709934,-1.751906 -1.499,-2.583604 0.128696,-0.507436 0.312774,-0.831396 0.857962,-1.509924 0.65528,-0.81555 0.7766,-1.074832 0.75235,-1.607909 -0.01474,-0.32398 -0.04453,-0.444183 -0.147208,-0.594033 -0.173906,-0.253793 -0.285108,-0.313856 -0.640794,-0.346109 -0.53022,-0.04808 -1.030702,0.263018 -1.627556,1.011678 -0.446304,0.559817 -0.799878,0.886827 -1.179326,1.090726 -0.304572,0.163663 -0.38018,0.181918 -0.736302,0.177769 -0.667796,-0.0078 -1.135864,-0.245539 -2.081576,-1.057356 -0.592602,-0.508702 -0.989808,-0.719749 -1.412116,-0.750295 -0.616646,-0.0446 -1.05075,0.334188 -0.990954,0.864692 0.05504,0.48827 0.263148,0.799032 1.061964,1.585773 0.797726,0.785666 1.023954,1.077764 1.204704,1.55547 0.22562,0.59629 0.03209,1.318668 -0.534176,1.993856 -0.144648,0.172474 -0.372686,0.444558 -0.506748,0.604632 -0.134062,0.160072 -0.316038,0.441772 -0.40439,0.625998 -0.140796,0.29358 -0.157092,0.374092 -0.131914,0.651756 0.0499,0.550338 0.339586,0.844182 0.93022,0.94358 0.308272,0.05188 0.556684,0.01878 0.827694,-0.11027 z"
       id="path746" />
  </g>
</svg>
