<?xml version="1.0" encoding="UTF-8" standalone="no"?>
<svg
   xmlns:dc="http://purl.org/dc/elements/1.1/"
   xmlns:cc="http://creativecommons.org/ns#"
   xmlns:rdf="http://www.w3.org/1999/02/22-rdf-syntax-ns#"
   xmlns:svg="http://www.w3.org/2000/svg"
   xmlns="http://www.w3.org/2000/svg"
   xmlns:sodipodi="http://sodipodi.sourceforge.net/DTD/sodipodi-0.dtd"
   xmlns:inkscape="http://www.inkscape.org/namespaces/inkscape"
   width="13.229167mm"
   height="13.229167mm"
   viewBox="0 0 13.229167 13.229167"
   version="1.1"
   id="svg8"
   sodipodi:docname="VCS_resized_58.svg"
   inkscape:version="1.0.2-2 (e86c870879, 2021-01-15)">
  <defs
     id="defs2" />
  <sodipodi:namedview
     id="base"
     pagecolor="#ffffff"
     bordercolor="#666666"
     borderopacity="1.0"
     inkscape:pageopacity="0.0"
     inkscape:pageshadow="2"
     inkscape:zoom="2.8284271"
     inkscape:cx="18.303167"
     inkscape:cy="73.010365"
     inkscape:document-units="mm"
     inkscape:current-layer="layer1"
     inkscape:document-rotation="0"
     showgrid="false"
     inkscape:window-width="958"
     inkscape:window-height="1008"
     inkscape:window-x="1913"
     inkscape:window-y="0"
     inkscape:window-maximized="0" />
  <metadata
     id="metadata5">
    <rdf:RDF>
      <cc:Work
         rdf:about="">
        <dc:format>image/svg+xml</dc:format>
        <dc:type
           rdf:resource="http://purl.org/dc/dcmitype/StillImage" />
        <dc:title></dc:title>
      </cc:Work>
    </rdf:RDF>
  </metadata>
  <g
     inkscape:label="Ebene 1"
     inkscape:groupmode="layer"
     id="layer1"
     transform="translate(-33.357273,-7.2742863)">
    <path
       style="fill:#000000;stroke-width:0.264582"
       d="M 36.406186,18.838555 C 35.784188,18.632084 35.4919,18.31035 35.349642,17.675572 c -0.114656,-0.51162 0.208714,-1.127358 1.001726,-1.907423 0.605464,-0.595576 0.848568,-1.036094 0.848568,-1.537648 0,-0.664158 -0.1841,-1.012131 -0.963422,-1.820982 -1.121214,-1.163697 -1.370292,-1.675003 -1.205162,-2.4739389 0.05329,-0.257849 0.106468,-0.35354 0.309578,-0.557101 0.421548,-0.422484 0.910052,-0.460034 1.585078,-0.121841 0.260686,0.130606 0.55144,0.364199 1.109118,0.8910699 0.926948,0.875742 1.159664,1.007431 1.784186,1.009637 0.69346,0.0024 0.802928,-0.07095 1.938442,-1.2997379 0.651682,-0.705215 1.01459,-0.940034 1.524214,-0.986245 0.734626,-0.06661 1.204932,0.379289 1.296416,1.2291439 0.06824,0.633958 -0.170184,1.144833 -0.949072,2.033573 -0.778986,0.888852 -0.999214,1.395368 -0.888278,2.043006 0.08115,0.473743 0.336654,0.828266 1.04788,1.453962 0.659506,0.580198 0.876632,0.828528 1.032492,1.180874 0.39989,0.904018 -0.102972,1.737023 -1.136994,1.883458 -0.44375,0.06284 -0.757142,-9e-4 -1.654368,-0.33649 -0.830312,-0.310563 -1.273508,-0.411216 -1.813858,-0.411942 -0.525158,-7e-4 -1.005614,0.140208 -1.749158,0.513013 -0.8434,0.422871 -1.541248,0.551072 -2.060842,0.378595 z m 1.102286,-0.268219 c 0.118804,-0.04192 0.520656,-0.218373 0.893006,-0.392126 0.901542,-0.420692 1.19684,-0.502339 1.814708,-0.501743 0.583792,5.6e-4 1.204444,0.151413 2.078712,0.50523 0.496978,0.201127 0.581284,0.219126 1.043372,0.222766 0.428326,0.0034 0.540788,-0.01479 0.760064,-0.122729 0.516334,-0.254175 0.70561,-0.836651 0.44777,-1.377959 -0.07618,-0.159922 -0.394448,-0.518894 -0.941428,-1.061811 -0.956116,-0.949014 -1.113312,-1.197717 -1.154154,-1.826007 -0.02113,-0.325005 -0.0034,-0.423035 0.143616,-0.79375 0.180634,-0.455518 0.38132,-0.751055 1.021994,-1.505024 0.643458,-0.757245 0.803656,-1.170427 0.679056,-1.7514179 -0.2148,-1.001581 -1.285014,-1.070106 -2.152272,-0.137808 -0.172024,0.1849249 -0.465338,0.5123999 -0.651808,0.7277219 -0.677038,0.781792 -1.335466,1.059737 -2.066672,0.87241 -0.53362,-0.136707 -0.82035,-0.329583 -1.597142,-1.074361 C 37.02748,9.5868771 36.738822,9.4026831 36.25815,9.3524431 c -0.441216,-0.04612 -0.712786,0.09876 -0.887162,0.473285 -0.154544,0.3319309 -0.16083,0.5307299 -0.02867,0.9067529 0.135906,0.386678 0.36087,0.70016 0.93128,1.297718 0.615638,0.644937 0.895858,1.019667 1.05415,1.409684 0.372324,0.917365 0.16246,1.584061 -0.806102,2.560831 -0.70789,0.71389 -0.943262,1.14141 -0.884028,1.605716 0.05811,0.455508 0.351648,0.782483 0.86817,0.967062 0.257102,0.09188 0.737622,0.09036 1.002682,-0.0032 z"
       id="path954" />
  </g>
</svg>
