<?xml version="1.0" encoding="UTF-8" standalone="no"?>
<svg
   xmlns:dc="http://purl.org/dc/elements/1.1/"
   xmlns:cc="http://creativecommons.org/ns#"
   xmlns:rdf="http://www.w3.org/1999/02/22-rdf-syntax-ns#"
   xmlns:svg="http://www.w3.org/2000/svg"
   xmlns="http://www.w3.org/2000/svg"
   xmlns:sodipodi="http://sodipodi.sourceforge.net/DTD/sodipodi-0.dtd"
   xmlns:inkscape="http://www.inkscape.org/namespaces/inkscape"
   width="13.229167mm"
   height="13.229167mm"
   viewBox="0 0 13.229169 13.229168"
   version="1.1"
   id="svg8"
   sodipodi:docname="VCS_resized_274.svg"
   inkscape:version="1.0.2-2 (e86c870879, 2021-01-15)">
  <defs
     id="defs2" />
  <sodipodi:namedview
     id="base"
     pagecolor="#ffffff"
     bordercolor="#666666"
     borderopacity="1.0"
     inkscape:pageopacity="0.0"
     inkscape:pageshadow="2"
     inkscape:zoom="4"
     inkscape:cx="10.094756"
     inkscape:cy="41.365823"
     inkscape:document-units="mm"
     inkscape:current-layer="layer1"
     inkscape:document-rotation="0"
     showgrid="false"
     inkscape:window-width="958"
     inkscape:window-height="1008"
     inkscape:window-x="1913"
     inkscape:window-y="0"
     inkscape:window-maximized="0" />
  <metadata
     id="metadata5">
    <rdf:RDF>
      <cc:Work
         rdf:about="">
        <dc:format>image/svg+xml</dc:format>
        <dc:type
           rdf:resource="http://purl.org/dc/dcmitype/StillImage" />
        <dc:title></dc:title>
      </cc:Work>
    </rdf:RDF>
  </metadata>
  <g
     inkscape:label="Ebene 1"
     inkscape:groupmode="layer"
     id="layer1"
     transform="translate(-83.020515,15.865653)">
    <path
       style="fill:#000000;stroke-width:0.264582"
       d="m 86.189401,-2.9800936 c -0.02183,-0.022885 -0.03945,-0.1864684 -0.03915,-0.363519 4e-4,-0.3010446 -0.02029,-0.6970364 -0.161796,-3.0815123 l -0.05543,-0.933978 -0.59203,-0.6932094 c -0.325618,-0.3812656 -0.888698,-1.026585 -1.251292,-1.4340434 -0.362592,-0.4074581 -0.737986,-0.8301993 -0.834208,-0.9394233 -0.09622,-0.109225 -0.17495,-0.230469 -0.17495,-0.269432 0,-0.0745 0.477216,-0.202779 2.42245,-0.651175 0.573976,-0.132306 1.20459,-0.277655 1.401368,-0.322995 l 0.357776,-0.08244 0.94865,-1.592477 c 1.36372,-2.289251 1.30646,-2.201018 1.428384,-2.201018 0.12423,0 0.131792,0.01122 0.980538,1.455208 0.761612,1.295744 1.356337,2.265472 1.413575,2.30491 0.02354,0.01622 0.7632,0.203339 1.643678,0.415819 2.294672,0.553755 2.490098,0.606166 2.512234,0.67375 0.01094,0.0334 -0.177736,0.285005 -0.419278,0.559121 -0.473806,0.5377046 -2.171276,2.5195471 -2.343314,2.7358835 -0.08844,0.1112118 -0.114906,0.2741344 -0.167962,1.0339732 -0.03464,0.4960784 -0.08013,1.4299915 -0.101094,2.0753627 -0.02096,0.6453712 -0.05623,1.2027196 -0.07838,1.2385522 -0.03095,0.050079 -0.827946,0.070829 -3.445177,0.0897 -1.8727,0.013502 -3.422768,0.00583 -3.444596,-0.01706 z m 6.614421,-0.3017828 c 0.02886,-0.03638 0.06949,-0.5304896 0.09027,-1.0980208 0.02078,-0.5675312 0.06586,-1.4879357 0.100176,-2.0453435 l 0.06239,-1.0134686 0.263928,-0.2850154 c 0.354806,-0.3831564 0.56014,-0.616521 1.038746,-1.1805476 0.222266,-0.2619374 0.621064,-0.7314009 0.886214,-1.0432525 0.26515,-0.3118512 0.48209,-0.5911942 0.48209,-0.6207622 0,-0.02957 -0.05358,-0.06586 -0.119062,-0.08064 -0.59262,-0.133799 -2.930522,-0.683724 -3.28968,-0.773803 -0.358646,-0.08995 -0.47783,-0.144308 -0.55527,-0.253246 -0.106706,-0.150109 -1.758713,-2.905031 -1.963291,-3.274024 -0.06858,-0.123692 -0.142324,-0.224895 -0.163882,-0.224895 -0.02156,0 -0.164832,0.220265 -0.318386,0.489479 -0.485446,0.851086 -1.797186,3.026456 -1.87013,3.101399 -0.0385,0.03956 -0.518992,0.177068 -1.067754,0.305582 -0.548764,0.128514 -1.40852,0.330195 -1.910566,0.448181 -0.540648,0.127056 -0.912752,0.239789 -0.912664,0.276501 8.6e-5,0.03409 0.33941,0.445316 0.754064,0.913834 0.414652,0.4685177 1.006588,1.1471741 1.315414,1.5081249 l 0.5615,0.6562736 0.05923,0.9260416 c 0.03258,0.509323 0.08548,1.4380107 0.117562,2.0637501 0.03208,0.6257396 0.06752,1.167474 0.07875,1.2038542 0.01604,0.051945 0.695336,0.066146 3.164146,0.066146 2.451711,0 3.155277,-0.01456 3.196207,-0.066146 z"
       id="path5299" />
  </g>
</svg>
