<?xml version="1.0" encoding="UTF-8" standalone="no"?>
<svg
   xmlns:dc="http://purl.org/dc/elements/1.1/"
   xmlns:cc="http://creativecommons.org/ns#"
   xmlns:rdf="http://www.w3.org/1999/02/22-rdf-syntax-ns#"
   xmlns:svg="http://www.w3.org/2000/svg"
   xmlns="http://www.w3.org/2000/svg"
   xmlns:sodipodi="http://sodipodi.sourceforge.net/DTD/sodipodi-0.dtd"
   xmlns:inkscape="http://www.inkscape.org/namespaces/inkscape"
   width="13.229167mm"
   height="13.229167mm"
   viewBox="0 0 13.229167 13.229167"
   version="1.1"
   id="svg8"
   sodipodi:docname="VCS_resized_41.svg"
   inkscape:version="1.0.2-2 (e86c870879, 2021-01-15)">
  <defs
     id="defs2" />
  <sodipodi:namedview
     id="base"
     pagecolor="#ffffff"
     bordercolor="#666666"
     borderopacity="1.0"
     inkscape:pageopacity="0.0"
     inkscape:pageshadow="2"
     inkscape:zoom="2.8284271"
     inkscape:cx="-9.4562442"
     inkscape:cy="35.676278"
     inkscape:document-units="mm"
     inkscape:current-layer="layer1"
     inkscape:document-rotation="0"
     showgrid="false"
     inkscape:window-width="958"
     inkscape:window-height="1008"
     inkscape:window-x="1913"
     inkscape:window-y="0"
     inkscape:window-maximized="0" />
  <metadata
     id="metadata5">
    <rdf:RDF>
      <cc:Work
         rdf:about="">
        <dc:format>image/svg+xml</dc:format>
        <dc:type
           rdf:resource="http://purl.org/dc/dcmitype/StillImage" />
        <dc:title></dc:title>
      </cc:Work>
    </rdf:RDF>
  </metadata>
  <g
     inkscape:label="Ebene 1"
     inkscape:groupmode="layer"
     id="layer1"
     transform="translate(-40.70195,-17.152264)">
    <path
       style="fill:#000000;stroke-width:0.264582"
       d="m 43.975175,28.67001 c -0.258158,-0.05913 -0.436438,-0.209418 -0.599856,-0.505666 -0.34937,-0.633336 -0.206992,-1.302836 0.454842,-2.1388 0.707122,-0.893168 0.838346,-1.164044 0.84595,-1.746249 0.0074,-0.567316 -0.14321,-0.836401 -0.829364,-1.481667 -1.073266,-1.009309 -1.28396,-1.237327 -1.442432,-1.561042 -0.309452,-0.632124 -0.169854,-1.298877 0.316062,-1.509584 0.70837,-0.307169 1.345594,-0.126717 2.438924,0.690666 0.587684,0.439357 0.869622,0.600473 1.239918,0.708563 0.384324,0.112185 0.68477,0.105721 0.980628,-0.0211 0.369642,-0.158448 0.58336,-0.344289 1.033202,-0.898432 0.490812,-0.604616 0.888256,-0.98729 1.237988,-1.191984 0.339042,-0.198437 0.960226,-0.246409 1.24944,-0.09649 0.245982,0.12751 0.420192,0.458355 0.48407,0.919305 0.08542,0.616393 -0.07594,1.031603 -0.739076,1.901763 -0.636384,0.835059 -0.841718,1.457023 -0.672824,2.037996 0.101258,0.348318 0.547392,0.851843 1.220764,1.377807 0.849908,0.663854 1.190966,1.168292 1.199558,1.774194 0.0058,0.406068 -0.117604,0.611942 -0.48898,0.816044 -0.266654,0.146548 -0.329526,0.15875 -0.818022,0.15875 h -0.529166 l -0.899584,-0.431022 c -0.967474,-0.46355 -1.28387,-0.5623 -1.791508,-0.559144 -0.590862,0.0037 -1.018932,0.236292 -1.859742,1.010606 -0.655742,0.603886 -0.964924,0.766526 -1.479084,0.778054 -0.20515,0.0046 -0.453418,-0.01006 -0.551708,-0.03257 z m 1.185604,-0.393576 c 0.129038,-0.07562 0.44946,-0.338072 0.712052,-0.583224 0.547548,-0.511188 0.817874,-0.707884 1.19147,-0.86694 0.785238,-0.334312 1.51801,-0.206174 2.881646,0.503908 l 0.594026,0.309326 0.511122,-0.0016 c 0.583582,-0.002 0.793468,-0.07995 0.963056,-0.358084 0.310622,-0.509434 -0.101408,-1.266984 -1.08386,-1.992764 -0.477608,-0.35283 -0.959428,-0.87315 -1.136296,-1.227092 -0.193324,-0.386877 -0.208282,-0.655288 -0.06453,-1.157963 0.13474,-0.471159 0.260718,-0.702538 0.695916,-1.278156 0.20501,-0.27116 0.449416,-0.647394 0.543124,-0.836077 0.146538,-0.295055 0.169642,-0.395731 0.165114,-0.719461 -0.004,-0.28677 -0.03397,-0.427472 -0.125812,-0.59088 -0.154048,-0.274093 -0.315598,-0.357972 -0.684174,-0.355234 -0.519852,0.0039 -1.000006,0.336988 -1.56041,1.082593 -0.626044,0.832938 -1.26472,1.27 -1.855848,1.27 -0.578754,0 -1.107606,-0.236413 -1.960724,-0.876501 -0.764594,-0.573669 -1.051806,-0.706167 -1.555414,-0.717551 -0.418852,-0.0095 -0.702816,0.140318 -0.81967,0.432362 -0.183292,0.458092 0.08113,1.025573 0.75958,1.630174 0.91077,0.81163 1.271364,1.211412 1.470072,1.629834 0.17253,0.363299 0.184692,0.421484 0.162002,0.775059 -0.03117,0.485694 -0.271118,1.014281 -0.713422,1.571623 -0.37395,0.471206 -0.60994,0.851322 -0.702322,1.131244 -0.130498,0.39541 -0.04596,0.929008 0.180958,1.142184 0.305906,0.287384 1.013844,0.328552 1.432344,0.0833 z"
       id="path666" />
  </g>
</svg>
