<?xml version="1.0" encoding="UTF-8" standalone="no"?>
<svg
   xmlns:dc="http://purl.org/dc/elements/1.1/"
   xmlns:cc="http://creativecommons.org/ns#"
   xmlns:rdf="http://www.w3.org/1999/02/22-rdf-syntax-ns#"
   xmlns:svg="http://www.w3.org/2000/svg"
   xmlns="http://www.w3.org/2000/svg"
   xmlns:sodipodi="http://sodipodi.sourceforge.net/DTD/sodipodi-0.dtd"
   xmlns:inkscape="http://www.inkscape.org/namespaces/inkscape"
   width="13.229167mm"
   height="13.229167mm"
   viewBox="0 0 13.229169 13.229168"
   version="1.1"
   id="svg8"
   sodipodi:docname="VCS_resized_128.svg"
   inkscape:version="1.0.2-2 (e86c870879, 2021-01-15)">
  <defs
     id="defs2" />
  <sodipodi:namedview
     id="base"
     pagecolor="#ffffff"
     bordercolor="#666666"
     borderopacity="1.0"
     inkscape:pageopacity="0.0"
     inkscape:pageshadow="2"
     inkscape:zoom="2.8284271"
     inkscape:cx="-4.5399568"
     inkscape:cy="60.97719"
     inkscape:document-units="mm"
     inkscape:current-layer="layer1"
     inkscape:document-rotation="0"
     showgrid="false"
     inkscape:window-width="958"
     inkscape:window-height="1008"
     inkscape:window-x="1913"
     inkscape:window-y="0"
     inkscape:window-maximized="0" />
  <metadata
     id="metadata5">
    <rdf:RDF>
      <cc:Work
         rdf:about="">
        <dc:format>image/svg+xml</dc:format>
        <dc:type
           rdf:resource="http://purl.org/dc/dcmitype/StillImage" />
        <dc:title></dc:title>
      </cc:Work>
    </rdf:RDF>
  </metadata>
  <g
     inkscape:label="Ebene 1"
     inkscape:groupmode="layer"
     id="layer1"
     transform="translate(-39.40118,-10.458064)">
    <path
       style="fill:#000000;stroke-width:0.264582"
       d="m 44.567346,23.259897 c -0.378468,-0.07094 -1.403676,-0.325731 -1.427394,-0.354743 -0.0072,-0.0088 -0.297372,-0.385158 -0.644776,-0.836272 -0.347402,-0.451115 -0.7668,-0.986896 -0.931994,-1.190625 -0.511064,-0.630283 -0.779378,-1.256307 -0.779378,-1.818429 0,-0.32555 0.282154,-0.812568 0.758842,-1.309817 0.41718,-0.435173 0.746348,-0.932284 0.83553,-1.261821 0.08667,-0.320268 0.03006,-0.864344 -0.125246,-1.203569 -0.07353,-0.160604 -0.281898,-0.512431 -0.463046,-0.781836 -0.649112,-0.965367 -0.837472,-1.530132 -0.748728,-2.244934 0.09959,-0.802214 0.504464,-1.31936 1.120942,-1.431797 0.383778,-0.07 0.634958,0.0632 2.230638,1.182839 0.845066,0.592957 1.1074,0.693924 1.800746,0.693068 0.495576,-6.2e-4 0.570416,-0.01435 0.849602,-0.155939 0.46164,-0.234123 0.966932,-0.589758 1.460556,-1.027968 0.574354,-0.509879 0.90106,-0.689833 1.249538,-0.688265 0.665926,0.003 1.131754,0.541348 1.245636,1.439563 0.08721,0.687877 -0.06611,1.18523 -0.606634,1.967863 -0.77979,1.129059 -0.918316,1.630655 -0.661156,2.394022 0.135718,0.402876 0.21988,0.524848 0.776024,1.124655 0.651622,0.70278 0.827792,1.137408 0.703574,1.735767 -0.08028,0.386695 -0.23212,0.666525 -0.687894,1.267721 -1.800864,2.375459 -1.567338,2.147351 -2.390382,2.334913 -0.360022,0.08205 -0.754426,0.17064 -0.876454,0.19688 -0.33447,0.07192 -2.257338,0.04955 -2.688546,-0.03128 z m 3.353836,-0.373981 c 0.338202,-0.07451 0.674444,-0.178194 0.747206,-0.230416 0.07276,-0.05222 0.377598,-0.413935 0.677416,-0.803805 1.624808,-2.11282 1.597126,-2.067025 1.597704,-2.643153 4e-4,-0.388681 -0.158832,-0.700028 -0.63449,-1.240702 -0.837512,-0.951983 -1.04537,-1.424644 -0.95347,-2.168134 0.06321,-0.51138 0.244242,-0.901902 0.81874,-1.766196 0.23183,-0.348776 0.434012,-0.720309 0.482222,-0.886145 0.155536,-0.535027 0.08602,-1.195735 -0.166342,-1.580882 -0.11361,-0.173392 -0.491382,-0.398435 -0.66884,-0.398435 -0.348912,0 -0.804424,0.263055 -1.47044,0.849169 -0.391796,0.344791 -0.794958,0.607979 -1.217084,0.794522 -0.259344,0.114609 -0.36308,0.128273 -0.9525,0.125468 -0.92594,-0.0044 -1.063886,-0.06048 -2.275416,-0.92497 -0.27649,-0.197289 -0.716418,-0.470434 -0.97762,-0.60699 -0.403056,-0.210717 -0.508484,-0.244498 -0.696822,-0.223269 -0.487318,0.05493 -0.828182,0.442806 -0.9091,1.034491 -0.0925,0.676394 0.07306,1.157551 0.762054,2.214613 0.584768,0.897167 0.763356,1.717723 0.510994,2.347856 -0.06449,0.16102 -0.273024,0.482488 -0.463416,0.714375 -0.19039,0.231886 -0.45397,0.552579 -0.585736,0.712652 -0.36492,0.443322 -0.462778,0.662667 -0.463854,1.039706 -0.0014,0.482508 0.190912,0.814731 1.281832,2.214669 l 0.948428,1.217083 0.653808,0.166492 c 0.644378,0.164092 0.673174,0.166572 1.99681,0.171979 1.256846,0.0051 1.382452,-0.0032 1.957916,-0.129978 z"
       id="path2090" />
  </g>
</svg>
