<?xml version="1.0" encoding="UTF-8" standalone="no"?>
<svg
   xmlns:dc="http://purl.org/dc/elements/1.1/"
   xmlns:cc="http://creativecommons.org/ns#"
   xmlns:rdf="http://www.w3.org/1999/02/22-rdf-syntax-ns#"
   xmlns:svg="http://www.w3.org/2000/svg"
   xmlns="http://www.w3.org/2000/svg"
   xmlns:sodipodi="http://sodipodi.sourceforge.net/DTD/sodipodi-0.dtd"
   xmlns:inkscape="http://www.inkscape.org/namespaces/inkscape"
   width="13.229167mm"
   height="13.229167mm"
   viewBox="0 0 13.229169 13.229168"
   version="1.1"
   id="svg8"
   sodipodi:docname="VCS_resized_119.svg"
   inkscape:version="1.0.2-2 (e86c870879, 2021-01-15)">
  <defs
     id="defs2" />
  <sodipodi:namedview
     id="base"
     pagecolor="#ffffff"
     bordercolor="#666666"
     borderopacity="1.0"
     inkscape:pageopacity="0.0"
     inkscape:pageshadow="2"
     inkscape:zoom="2.8284271"
     inkscape:cx="1.5162799"
     inkscape:cy="31.607288"
     inkscape:document-units="mm"
     inkscape:current-layer="layer1"
     inkscape:document-rotation="0"
     showgrid="false"
     inkscape:window-width="958"
     inkscape:window-height="1008"
     inkscape:window-x="1913"
     inkscape:window-y="0"
     inkscape:window-maximized="0" />
  <metadata
     id="metadata5">
    <rdf:RDF>
      <cc:Work
         rdf:about="">
        <dc:format>image/svg+xml</dc:format>
        <dc:type
           rdf:resource="http://purl.org/dc/dcmitype/StillImage" />
        <dc:title></dc:title>
      </cc:Work>
    </rdf:RDF>
  </metadata>
  <g
     inkscape:label="Ebene 1"
     inkscape:groupmode="layer"
     id="layer1"
     transform="translate(-37.798801,-18.228851)">
    <path
       style="fill:#000000;stroke-width:0.264582"
       d="m 42.472058,30.863492 -0.85944,-0.219939 -0.72806,-0.815462 c -1.38552,-1.551843 -1.560044,-1.82292 -1.593086,-2.47443 -0.01696,-0.334242 -0.002,-0.411232 0.125774,-0.645923 0.07976,-0.146548 0.37119,-0.498203 0.647622,-0.781457 0.54691,-0.560406 0.799214,-0.913603 0.931984,-1.304671 0.184958,-0.544781 0.04656,-1.138998 -0.421502,-1.809724 -0.946876,-1.356863 -1.088022,-1.647097 -1.121992,-2.307144 -0.02946,-0.572465 0.04742,-0.935103 0.279124,-1.316527 0.135448,-0.222972 0.250322,-0.336869 0.44859,-0.444781 0.623942,-0.339592 1.191426,-0.105637 2.274872,0.937858 0.55013,0.529845 0.953456,0.838992 1.301298,0.997441 0.21525,0.09805 0.356876,0.119683 0.791338,0.120872 0.485176,0.0013 0.550044,-0.01082 0.780294,-0.146171 0.336502,-0.197804 0.7453,-0.546896 1.426868,-1.218471 0.692108,-0.68196 0.93034,-0.832549 1.324552,-0.837258 0.772582,-0.0092 1.31016,0.712114 1.31016,1.758019 0,0.564944 -0.14316,0.976956 -0.532746,1.533229 -0.989044,1.412214 -1.138892,1.727084 -1.093996,2.298785 0.02575,0.327961 0.195496,0.800424 0.370712,1.031856 0.05509,0.07276 0.331172,0.371177 0.61352,0.663148 0.654304,0.676605 0.824522,1.001792 0.788528,1.506436 -0.0411,0.576273 -0.202114,0.82061 -1.560264,2.36769 -0.389478,0.443657 -0.756174,0.832354 -0.814878,0.863772 -0.05871,0.03142 -0.230058,0.08937 -0.380786,0.128771 -0.150726,0.03941 -0.503846,0.132912 -0.784712,0.20779 -0.473272,0.126175 -0.589512,0.13578 -1.5875,0.131187 l -1.076836,-0.005 z m 3.656876,-0.216836 c 0.265868,-0.07105 0.581818,-0.154567 0.70211,-0.185584 0.18968,-0.04891 0.309936,-0.159964 0.905846,-0.83654 1.467786,-1.66648 1.497148,-1.71069 1.501368,-2.26047 0.0034,-0.446924 -0.08475,-0.616384 -0.612896,-1.177854 -0.89539,-0.951885 -1.140216,-1.391813 -1.139612,-2.047781 6e-4,-0.592086 0.206144,-1.08397 0.81843,-1.958037 0.222912,-0.318218 0.461392,-0.675406 0.529956,-0.79375 0.595882,-1.02853 0.21256,-2.410772 -0.672264,-2.424149 -0.396314,-0.006 -0.676662,0.176274 -1.518036,0.986931 -0.60372,0.58168 -0.85538,0.786554 -1.143614,0.931006 -0.35573,0.178277 -0.391494,0.185208 -0.955702,0.185208 -0.582172,0 -0.589162,-0.0015 -1.031876,-0.221866 -0.340604,-0.169538 -0.583018,-0.34884 -1.027814,-0.760229 -0.632528,-0.585019 -1.250734,-1.024868 -1.554052,-1.105692 -0.411566,-0.10967 -0.8893,0.144064 -1.080586,0.573922 -0.148642,0.33403 -0.181986,0.957475 -0.07153,1.337433 0.07964,0.273939 0.435844,0.889716 0.993476,1.717433 0.374364,0.555682 0.534662,0.976447 0.562022,1.475249 0.03682,0.671302 -0.167684,1.098137 -0.887378,1.852083 -0.745308,0.780778 -0.937426,1.119799 -0.878442,1.550134 0.06179,0.450832 0.259028,0.747223 1.222132,1.836533 l 0.935716,1.058333 0.749738,0.19584 0.749736,0.195839 1.209938,0.0026 c 1.120242,0.0024 1.245774,-0.007 1.693334,-0.12659 z"
       id="path1946" />
  </g>
</svg>
