<?xml version="1.0" encoding="UTF-8" standalone="no"?>
<svg
   xmlns:dc="http://purl.org/dc/elements/1.1/"
   xmlns:cc="http://creativecommons.org/ns#"
   xmlns:rdf="http://www.w3.org/1999/02/22-rdf-syntax-ns#"
   xmlns:svg="http://www.w3.org/2000/svg"
   xmlns="http://www.w3.org/2000/svg"
   xmlns:sodipodi="http://sodipodi.sourceforge.net/DTD/sodipodi-0.dtd"
   xmlns:inkscape="http://www.inkscape.org/namespaces/inkscape"
   width="13.229167mm"
   height="13.229167mm"
   viewBox="0 0 13.229169 13.229168"
   version="1.1"
   id="svg8"
   sodipodi:docname="VCS_resized_137.svg"
   inkscape:version="1.0.2-2 (e86c870879, 2021-01-15)">
  <defs
     id="defs2" />
  <sodipodi:namedview
     id="base"
     pagecolor="#ffffff"
     bordercolor="#666666"
     borderopacity="1.0"
     inkscape:pageopacity="0.0"
     inkscape:pageshadow="2"
     inkscape:zoom="2.8284271"
     inkscape:cx="8.4282661"
     inkscape:cy="30.125607"
     inkscape:document-units="mm"
     inkscape:current-layer="layer1"
     inkscape:document-rotation="0"
     showgrid="false"
     inkscape:window-width="958"
     inkscape:window-height="1008"
     inkscape:window-x="1913"
     inkscape:window-y="0"
     inkscape:window-maximized="0" />
  <metadata
     id="metadata5">
    <rdf:RDF>
      <cc:Work
         rdf:about="">
        <dc:format>image/svg+xml</dc:format>
        <dc:type
           rdf:resource="http://purl.org/dc/dcmitype/StillImage" />
        <dc:title></dc:title>
      </cc:Work>
    </rdf:RDF>
  </metadata>
  <g
     inkscape:label="Ebene 1"
     inkscape:groupmode="layer"
     id="layer1"
     transform="translate(-35.970005,-18.620878)">
    <path
       style="fill:#000000;stroke-width:0.264582"
       d="m 41.081657,31.385307 c -0.14552,-0.02668 -0.490802,-0.08704 -0.76729,-0.13414 -0.575378,-0.09801 -0.627194,-0.132697 -0.97705,-0.654149 -0.132454,-0.19742 -0.552604,-0.783603 -0.933668,-1.302629 -0.753528,-1.026342 -0.957914,-1.380571 -1.086758,-1.883504 -0.169678,-0.662314 -0.02121,-1.201644 0.49195,-1.787026 0.443016,-0.50537 0.5978,-0.720674 0.746892,-1.038921 0.120662,-0.257558 0.144368,-0.379082 0.14282,-0.732149 -0.0021,-0.488475 -0.08454,-0.702976 -0.614768,-1.600286 -0.176132,-0.298074 -0.36543,-0.687149 -0.420662,-0.864611 -0.261556,-0.84038 -0.0021,-1.789039 0.601308,-2.198355 0.287728,-0.195186 0.743058,-0.21288 1.070976,-0.04162 1.366326,0.713595 2.220882,1.136699 2.460626,1.218293 0.395704,0.134675 1.501926,0.141521 1.852084,0.01146 0.68773,-0.255443 1.04509,-0.429786 1.315046,-0.64156 0.164402,-0.12897 0.4656,-0.337845 0.669328,-0.464168 0.336782,-0.208821 0.402042,-0.2299 0.718694,-0.232126 0.302808,-0.0021 0.378292,0.01828 0.578144,0.156301 0.59445,0.41054 0.84027,1.319988 0.582428,2.154781 -0.05781,0.187168 -0.239548,0.552817 -0.403864,0.812553 -0.164314,0.259738 -0.373,0.627031 -0.463744,0.816208 -0.14701,0.306473 -0.16499,0.39586 -0.16499,0.820208 0,0.613718 0.10691,0.847708 0.761608,1.666875 0.399312,0.499626 0.505816,0.672431 0.595066,0.965507 0.09496,0.311812 0.101992,0.407211 0.05563,0.754202 -0.0573,0.428838 -0.278134,0.965092 -0.530586,1.288454 -0.083,0.106312 -0.467546,0.645733 -0.854546,1.198712 -1.041044,1.487534 -0.985588,1.428811 -1.4417,1.526657 -0.869016,0.186424 -1.521256,0.246076 -2.621966,0.239795 -0.603032,-0.0034 -1.215482,-0.02809 -1.361004,-0.05477 z m 3.378672,-0.334541 c 0.403062,-0.07113 0.76614,-0.156968 0.80684,-0.190746 0.09892,-0.0821 1.800072,-2.477352 2.045232,-2.879731 0.481008,-0.78947 0.390994,-1.47044 -0.311268,-2.354792 -0.745584,-0.93891 -0.838568,-1.158736 -0.800076,-1.891505 0.03179,-0.605235 0.158238,-0.930438 0.669768,-1.722582 0.369708,-0.572518 0.505708,-1.006853 0.467622,-1.493402 -0.05122,-0.654359 -0.46674,-1.154316 -0.959356,-1.154316 -0.2736,0 -0.59791,0.149898 -1.165902,0.538891 -0.495424,0.339293 -0.992728,0.59166 -1.432782,0.727094 -0.395736,0.121795 -1.502552,0.138599 -1.904998,0.02892 -0.145522,-0.03966 -0.836084,-0.349055 -1.534584,-0.687549 -1.06234,-0.514812 -1.310354,-0.615504 -1.516796,-0.615812 -0.515026,-7.6e-4 -0.945364,0.507182 -0.98727,1.165325 -0.03342,0.524767 0.05973,0.816053 0.52168,1.631397 0.470802,0.830972 0.638742,1.304538 0.647936,1.827086 0.0081,0.458976 -0.180134,0.858499 -0.725762,1.540617 -0.221164,0.276489 -0.476252,0.651156 -0.566864,0.832592 -0.152312,0.304988 -0.162926,0.361298 -0.140648,0.746142 0.02882,0.497809 0.18818,0.824364 0.828724,1.698159 0.222428,0.303427 0.643402,0.886833 0.935496,1.296458 0.292094,0.409626 0.590478,0.773335 0.663076,0.808242 0.33205,0.159661 1.334382,0.267648 2.53647,0.273271 1.04349,0.0049 1.281186,-0.01041 1.923462,-0.123762 z"
       id="path2234" />
  </g>
</svg>
