<?xml version="1.0" encoding="UTF-8" standalone="no"?>
<svg
   xmlns:dc="http://purl.org/dc/elements/1.1/"
   xmlns:cc="http://creativecommons.org/ns#"
   xmlns:rdf="http://www.w3.org/1999/02/22-rdf-syntax-ns#"
   xmlns:svg="http://www.w3.org/2000/svg"
   xmlns="http://www.w3.org/2000/svg"
   xmlns:sodipodi="http://sodipodi.sourceforge.net/DTD/sodipodi-0.dtd"
   xmlns:inkscape="http://www.inkscape.org/namespaces/inkscape"
   width="13.229167mm"
   height="13.229167mm"
   viewBox="0 0 13.229167 13.229167"
   version="1.1"
   id="svg8"
   sodipodi:docname="VCS_resized_52.svg"
   inkscape:version="1.0.2-2 (e86c870879, 2021-01-15)">
  <defs
     id="defs2" />
  <sodipodi:namedview
     id="base"
     pagecolor="#ffffff"
     bordercolor="#666666"
     borderopacity="1.0"
     inkscape:pageopacity="0.0"
     inkscape:pageshadow="2"
     inkscape:zoom="2.8284271"
     inkscape:cx="13.514873"
     inkscape:cy="41.585414"
     inkscape:document-units="mm"
     inkscape:current-layer="layer1"
     inkscape:document-rotation="0"
     showgrid="false"
     inkscape:window-width="958"
     inkscape:window-height="1008"
     inkscape:window-x="1913"
     inkscape:window-y="0"
     inkscape:window-maximized="0" />
  <metadata
     id="metadata5">
    <rdf:RDF>
      <cc:Work
         rdf:about="">
        <dc:format>image/svg+xml</dc:format>
        <dc:type
           rdf:resource="http://purl.org/dc/dcmitype/StillImage" />
        <dc:title></dc:title>
      </cc:Work>
    </rdf:RDF>
  </metadata>
  <g
     inkscape:label="Ebene 1"
     inkscape:groupmode="layer"
     id="layer1"
     transform="translate(-34.624176,-15.588805)">
    <path
       style="fill:#000000;stroke-width:0.264582"
       d="m 38.020445,27.160901 c -0.66521,-0.132604 -1.037626,-0.394168 -1.243884,-0.873628 -0.09372,-0.21786 -0.112848,-0.340894 -0.09247,-0.594768 0.03976,-0.49538 0.272554,-0.896532 0.90419,-1.558138 0.335448,-0.351361 0.606942,-0.692315 0.72112,-0.905609 0.161318,-0.301353 0.183372,-0.389457 0.18521,-0.739933 0.0033,-0.633121 -0.174144,-0.934915 -1.134488,-1.92931 -0.815708,-0.84463 -1.013456,-1.135647 -1.104378,-1.625257 -0.06153,-0.331347 0.0113,-0.75409 0.171664,-0.996419 0.171372,-0.25896 0.598838,-0.475124 0.939562,-0.475124 0.326216,0 0.87321,0.200202 1.164468,0.426199 0.126412,0.09809 0.420242,0.355532 0.652956,0.572097 0.232712,0.216565 0.542274,0.483512 0.687916,0.593215 0.5385,0.40562 1.157028,0.52694 1.724892,0.338326 0.299526,-0.09949 0.453666,-0.238517 1.476784,-1.332009 0.584612,-0.624824 0.960534,-0.832369 1.508126,-0.832632 0.811934,-4e-4 1.251696,0.554086 1.177044,1.484087 -0.03831,0.477268 -0.25524,0.886517 -0.810388,1.528842 -0.91217,1.05541 -1.137298,1.597506 -0.939724,2.262807 0.113698,0.382868 0.319194,0.659008 0.824128,1.107442 1.056008,0.937848 1.340632,1.317504 1.403082,1.871546 0.03754,0.333032 -0.07382,0.72443 -0.260394,0.915266 -0.24072,0.246216 -0.678738,0.438952 -1.068708,0.470256 -0.415328,0.03334 -0.657026,-0.0409 -1.59504,-0.489934 -0.840284,-0.402248 -1.326832,-0.525254 -1.940284,-0.490534 -0.54924,0.03109 -0.895828,0.17189 -1.65547,0.672554 -0.740618,0.488124 -1.28796,0.681982 -1.695914,0.600658 z m 0.881688,-0.415738 c 0.08563,-0.04428 0.37472,-0.224556 0.64242,-0.400608 0.772328,-0.507924 1.167646,-0.673038 1.809644,-0.755848 0.470308,-0.06066 1.270312,0.160068 2.092792,0.577434 0.938208,0.47609 1.373248,0.543244 1.928874,0.297748 0.429822,-0.189912 0.598472,-0.49222 0.561684,-1.006828 -0.02712,-0.379328 -0.371784,-0.824628 -1.170584,-1.512363 -0.573162,-0.49347 -0.881,-0.904363 -1.028232,-1.372451 -0.08194,-0.260517 -0.08785,-0.357195 -0.03963,-0.648224 0.03117,-0.188123 0.12846,-0.495437 0.216196,-0.68292 0.158044,-0.337736 0.2947,-0.526334 1.01234,-1.397138 0.215418,-0.261394 0.414624,-0.566986 0.475596,-0.729589 0.208898,-0.557091 0.08828,-1.188081 -0.2768,-1.448043 -0.176046,-0.125356 -0.563352,-0.183728 -0.855456,-0.128929 -0.31116,0.05837 -0.790998,0.425366 -1.201334,0.918809 -0.531296,0.638903 -0.831046,0.915113 -1.221718,1.125767 -0.308286,0.166232 -0.370824,0.180396 -0.784772,0.177738 -0.336706,-0.0022 -0.526918,-0.03304 -0.756554,-0.122805 -0.336972,-0.131725 -0.908166,-0.56615 -1.360114,-1.034442 -0.690448,-0.715418 -1.404114,-0.990023 -1.963278,-0.755432 -0.569886,0.239089 -0.624946,1.088674 -0.11461,1.76842 0.105282,0.14023 0.479226,0.552621 0.830988,0.916423 0.475662,0.491943 0.693656,0.763167 0.850628,1.058333 0.201214,0.378352 0.211064,0.419155 0.211064,0.874238 0,0.433397 -0.01612,0.51013 -0.175146,0.833137 -0.121408,0.246611 -0.343648,0.536816 -0.724308,0.945803 -0.673504,0.723628 -0.89753,1.108386 -0.893236,1.534106 0.0042,0.417252 0.144542,0.66588 0.495602,0.87805 0.155202,0.0938 0.379568,0.190136 0.498594,0.214082 0.254374,0.05117 0.718658,-0.01034 0.939348,-0.124468 z"
       id="path842" />
  </g>
</svg>
