<?xml version="1.0" encoding="UTF-8" standalone="no"?>
<svg
   xmlns:dc="http://purl.org/dc/elements/1.1/"
   xmlns:cc="http://creativecommons.org/ns#"
   xmlns:rdf="http://www.w3.org/1999/02/22-rdf-syntax-ns#"
   xmlns:svg="http://www.w3.org/2000/svg"
   xmlns="http://www.w3.org/2000/svg"
   xmlns:sodipodi="http://sodipodi.sourceforge.net/DTD/sodipodi-0.dtd"
   xmlns:inkscape="http://www.inkscape.org/namespaces/inkscape"
   width="13.229167mm"
   height="13.229167mm"
   viewBox="0 0 13.229167 13.229167"
   version="1.1"
   id="svg8"
   sodipodi:docname="VCS_resized_100.svg"
   inkscape:version="1.0.2-2 (e86c870879, 2021-01-15)">
  <defs
     id="defs2" />
  <sodipodi:namedview
     id="base"
     pagecolor="#ffffff"
     bordercolor="#666666"
     borderopacity="1.0"
     inkscape:pageopacity="0.0"
     inkscape:pageshadow="2"
     inkscape:zoom="2.8284271"
     inkscape:cx="-14.36161"
     inkscape:cy="43.946496"
     inkscape:document-units="mm"
     inkscape:current-layer="layer1"
     inkscape:document-rotation="0"
     showgrid="false"
     inkscape:window-width="958"
     inkscape:window-height="1008"
     inkscape:window-x="1913"
     inkscape:window-y="0"
     inkscape:window-maximized="0" />
  <metadata
     id="metadata5">
    <rdf:RDF>
      <cc:Work
         rdf:about="">
        <dc:format>image/svg+xml</dc:format>
        <dc:type
           rdf:resource="http://purl.org/dc/dcmitype/StillImage" />
        <dc:title></dc:title>
      </cc:Work>
    </rdf:RDF>
  </metadata>
  <g
     inkscape:label="Ebene 1"
     inkscape:groupmode="layer"
     id="layer1"
     transform="translate(-41.999828,-14.964103)">
    <path
       style="fill:#000000;stroke-width:0.264582"
       d="m 46.867131,27.436071 c -0.718438,-0.149598 -0.95371,-0.244348 -1.689506,-0.680408 -0.939518,-0.556792 -1.51644,-1.248938 -1.57963,-1.895118 -0.04718,-0.482476 0.167812,-0.851566 0.952048,-1.634434 1.0539,-1.05206 1.273022,-1.63837 0.93554,-2.503251 -0.12919,-0.331082 -0.268428,-0.543522 -0.786396,-1.199837 -0.829424,-1.050958 -1.108704,-1.702948 -1.041088,-2.430462 0.101676,-1.093985 0.74353,-1.668876 1.604444,-1.437056 0.333008,0.08967 0.87972,0.553308 1.510824,1.281254 0.650996,0.750887 0.843514,0.917699 1.254028,1.086581 0.603322,0.248202 1.254248,0.115803 1.776268,-0.361293 0.160076,-0.146302 0.503038,-0.519668 0.762136,-0.829702 0.535686,-0.640997 0.987792,-1.051542 1.268402,-1.151801 0.512714,-0.183188 1.075754,-8.4e-4 1.361324,0.440878 0.210658,0.325846 0.279808,0.53478 0.3189,0.963527 0.06705,0.73535 -0.189698,1.402921 -0.856268,2.226407 -0.595454,0.735629 -0.843236,1.136606 -1.007782,1.630863 -0.134072,0.402722 -0.141032,0.461346 -0.08168,0.687918 0.135056,0.515528 0.322036,0.781986 1.092552,1.556946 0.644706,0.648424 0.766256,0.797532 0.864684,1.060738 0.161742,0.432506 0.148762,0.718136 -0.05173,1.138226 -0.274684,0.57555 -1.200806,1.413752 -1.904334,1.723546 -0.156308,0.06883 -0.558042,0.19218 -0.89274,0.274108 -0.569934,0.139512 -0.690794,0.149918 -1.905,0.164024 -1.196832,0.0139 -1.343222,0.0053 -1.905,-0.111654 z m 3.593344,-0.316064 c 0.935384,-0.21115 1.5966,-0.567646 2.249302,-1.212716 0.60049,-0.593468 0.755618,-1.13608 0.467234,-1.634308 -0.0798,-0.137864 -0.39567,-0.518864 -0.701936,-0.846666 -0.306266,-0.327802 -0.63745,-0.69943 -0.735966,-0.825842 -0.21928,-0.281372 -0.426978,-0.834592 -0.426978,-1.137284 0,-0.597818 0.347284,-1.350545 1.018206,-2.206929 0.491394,-0.62723 0.729194,-1.041659 0.862346,-1.502864 0.182182,-0.631032 -0.01852,-1.350484 -0.45783,-1.641208 -0.505922,-0.334803 -1.10118,-0.07614 -1.835828,0.79775 -1.10227,1.311188 -1.39458,1.515703 -2.2101,1.546308 -0.439748,0.0165 -0.50866,0.0049 -0.82021,-0.137915 -0.431012,-0.197598 -0.722092,-0.457797 -1.34928,-1.206129 -0.707814,-0.84453 -1.130542,-1.134598 -1.653498,-1.134598 -0.676922,0 -1.104538,0.850235 -0.875268,1.740306 0.105166,0.408271 0.32122,0.7843 0.900338,1.566986 0.607982,0.821692 0.902372,1.398786 0.97985,1.920797 0.0493,0.332196 0.0427,0.412806 -0.0598,0.730092 -0.144248,0.446492 -0.328048,0.715838 -0.899502,1.318168 -1.068004,1.125702 -1.181828,1.407148 -0.843168,2.084866 0.330014,0.660414 1.543794,1.485466 2.551116,1.734086 0.753,0.185852 1.209396,0.225594 2.297898,0.2001 0.775276,-0.01816 1.079262,-0.0483 1.543076,-0.153 z"
       id="path1642" />
  </g>
</svg>
