<?xml version="1.0" encoding="UTF-8" standalone="no"?>
<svg
   xmlns:dc="http://purl.org/dc/elements/1.1/"
   xmlns:cc="http://creativecommons.org/ns#"
   xmlns:rdf="http://www.w3.org/1999/02/22-rdf-syntax-ns#"
   xmlns:svg="http://www.w3.org/2000/svg"
   xmlns="http://www.w3.org/2000/svg"
   xmlns:sodipodi="http://sodipodi.sourceforge.net/DTD/sodipodi-0.dtd"
   xmlns:inkscape="http://www.inkscape.org/namespaces/inkscape"
   width="13.229167mm"
   height="13.229167mm"
   viewBox="0 0 13.229169 13.229168"
   version="1.1"
   id="svg8"
   sodipodi:docname="VCS_resized_357.svg"
   inkscape:version="1.0.2-2 (e86c870879, 2021-01-15)">
  <defs
     id="defs2" />
  <sodipodi:namedview
     id="base"
     pagecolor="#ffffff"
     bordercolor="#666666"
     borderopacity="1.0"
     inkscape:pageopacity="0.0"
     inkscape:pageshadow="2"
     inkscape:zoom="4"
     inkscape:cx="12.752837"
     inkscape:cy="2.9574392"
     inkscape:document-units="mm"
     inkscape:current-layer="layer1"
     inkscape:document-rotation="0"
     showgrid="false"
     inkscape:window-width="958"
     inkscape:window-height="1008"
     inkscape:window-x="1913"
     inkscape:window-y="0"
     inkscape:window-maximized="0" />
  <metadata
     id="metadata5">
    <rdf:RDF>
      <cc:Work
         rdf:about="">
        <dc:format>image/svg+xml</dc:format>
        <dc:type
           rdf:resource="http://purl.org/dc/dcmitype/StillImage" />
        <dc:title></dc:title>
      </cc:Work>
    </rdf:RDF>
  </metadata>
  <g
     inkscape:label="Ebene 1"
     inkscape:groupmode="layer"
     id="layer1"
     transform="translate(-94.499405,9.2057085)">
    <path
       style="fill:#000000;stroke-width:0.264582"
       d="m 99.886461,3.1148391 c -0.110424,-0.137833 -0.295552,-0.5524474 -0.39515,-0.8849884 -0.0824,-0.2751068 -0.112516,-0.6035616 -0.148122,-1.61532404 -0.02458,-0.6985 -0.07026,-1.3890626 -0.101514,-1.5345834 -0.03125,-0.14552086 -0.06806,-0.31440446 -0.08179,-0.37529726 -0.03321,-0.1472608 -0.59233,-0.4831726 -1.614644,-0.9700556 -0.904588,-0.4308158 -1.953818,-1.0401602 -2.18846,-1.2709552 -0.214824,-0.211302 -0.158082,-0.3341624 0.219038,-0.4742746 0.48842,-0.181464 0.979944,-0.2588238 2.048798,-0.3224562 0.552978,-0.032921 1.278476,-0.091355 1.612214,-0.1298548 l 0.606798,-0.069999 0.171871,-0.2043876 c 0.0945,-0.112413 0.3882,-0.6377225 0.6526,-1.1673547 0.26441,-0.529633 0.59446,-1.1368516 0.73346,-1.3493754 0.28322,-0.4330488 0.83418,-1.1007816 0.90828,-1.1007816 0.0974,0 0.23062,0.2853026 0.37878,0.811045 0.1335,0.473738 0.15762,0.6748388 0.20099,1.6760382 0.048,1.1077369 0.10844,1.6593951 0.2116,1.9307307 0.0652,0.1713986 0.16199,0.2289846 1.60461,0.9543986 0.6641,0.3339386 1.36124,0.7203176 1.5492,0.85862 0.18796,0.1383026 0.41847,0.3066436 0.51223,0.3740918 0.31547,0.2269214 0.30629,0.3440334 -0.0398,0.5082682 -0.38352,0.1819932 -1.01121,0.29528566 -1.93262,0.34882046 -1.00037,0.058122 -1.99866,0.180892 -2.2422,0.275746 -0.16525,0.064357 -0.38483,0.3812964 -0.65164,0.9405742 -0.0902,0.1891772 -0.28368,0.5939896 -0.42983,0.89958344 -0.34884,0.7293954 -0.63458,1.1616892 -1.0572,1.5994502 -0.35225,0.3648746 -0.433359,0.4098184 -0.527491,0.2923206 z m 0.438509,-0.555625 c 0.31717,-0.325319 0.64389,-0.8662812 1.10971,-1.83744664 0.56412,-1.1760744 0.75783,-1.4810936 0.98796,-1.5556188 0.33149,-0.1073466 1.16996,-0.21576816 2.10185,-0.27178526 0.95585,-0.057458 1.58711,-0.1596114 1.89572,-0.306776 l 0.17498,-0.083446 -0.17258,-0.178962 c -0.23217,-0.2407602 -0.87352,-0.6223698 -1.70716,-1.0157826 -0.80342,-0.3791494 -1.7566,-0.9307666 -1.82121,-1.0539566 -0.0939,-0.178972 -0.21808,-1.2133314 -0.24445,-2.0357421 -0.0151,-0.4701154 -0.0538,-1.0095362 -0.0861,-1.1987134 -0.064,-0.3754332 -0.2404,-0.8995832 -0.30273,-0.8995832 -0.0215,0 -0.091,0.048329 -0.15442,0.1073988 -0.27616,0.257283 -0.5812,0.7473982 -1.07519,1.7275484 -0.5885,1.1676793 -0.91367,1.6908435 -1.076285,1.7316577 -0.197504,0.04957 -1.680976,0.1887432 -2.568618,0.2409766 -0.952996,0.056079 -1.719792,0.2216616 -1.719792,0.371373 0,0.1344538 0.64444,0.5292862 1.905,1.1671452 0.669396,0.3387228 1.351398,0.7022328 1.51556,0.8077994 0.296018,0.1903588 0.298982,0.1948408 0.359822,0.5442104 0.03374,0.19374906 0.08361,0.87929466 0.110812,1.52343486 0.04962,1.17480824 0.09259,1.52622204 0.246728,2.01783064 0.145882,0.4652744 0.229203,0.4970498 0.520343,0.1984374 z"
       id="path6633" />
  </g>
</svg>
