<?xml version="1.0" encoding="UTF-8" standalone="no"?>
<svg
   xmlns:dc="http://purl.org/dc/elements/1.1/"
   xmlns:cc="http://creativecommons.org/ns#"
   xmlns:rdf="http://www.w3.org/1999/02/22-rdf-syntax-ns#"
   xmlns:svg="http://www.w3.org/2000/svg"
   xmlns="http://www.w3.org/2000/svg"
   xmlns:sodipodi="http://sodipodi.sourceforge.net/DTD/sodipodi-0.dtd"
   xmlns:inkscape="http://www.inkscape.org/namespaces/inkscape"
   width="13.229167mm"
   height="13.229167mm"
   viewBox="0 0 13.229169 13.229168"
   version="1.1"
   id="svg8"
   sodipodi:docname="VCS_resized_213.svg"
   inkscape:version="1.0.2-2 (e86c870879, 2021-01-15)">
  <defs
     id="defs2" />
  <sodipodi:namedview
     id="base"
     pagecolor="#ffffff"
     bordercolor="#666666"
     borderopacity="1.0"
     inkscape:pageopacity="0.0"
     inkscape:pageshadow="2"
     inkscape:zoom="2.8284271"
     inkscape:cx="9.1734378"
     inkscape:cy="48.992043"
     inkscape:document-units="mm"
     inkscape:current-layer="layer1"
     inkscape:document-rotation="0"
     showgrid="false"
     inkscape:window-width="958"
     inkscape:window-height="1008"
     inkscape:window-x="1913"
     inkscape:window-y="0"
     inkscape:window-maximized="0" />
  <metadata
     id="metadata5">
    <rdf:RDF>
      <cc:Work
         rdf:about="">
        <dc:format>image/svg+xml</dc:format>
        <dc:type
           rdf:resource="http://purl.org/dc/dcmitype/StillImage" />
        <dc:title></dc:title>
      </cc:Work>
    </rdf:RDF>
  </metadata>
  <g
     inkscape:label="Ebene 1"
     inkscape:groupmode="layer"
     id="layer1"
     transform="translate(-46.136223,-17.718025)">
    <path
       style="fill:#000000;stroke-width:0.264582"
       d="m 48.921771,30.479575 c -0.04851,-0.03638 -0.157954,-0.280458 -0.243202,-0.542396 -0.08525,-0.261937 -0.267788,-0.762 -0.405644,-1.11125 -0.56317,-1.426751 -0.768044,-2.200785 -0.92441,-3.4925 -0.07906,-0.653073 -0.211088,-1.184011 -0.458428,-1.843495 -0.295324,-0.78742 -0.43456,-1.422614 -0.33748,-1.539588 0.115684,-0.13939 1.317552,-0.844891 2.42998,-1.426407 0.986194,-0.515527 1.58099,-0.890247 3.041034,-1.915841 0.79327,-0.557225 0.743782,-0.533404 0.889436,-0.428129 0.06865,0.04962 0.220066,0.152905 0.336482,0.229528 0.116416,0.07662 0.604574,0.419167 1.084792,0.76121 0.480218,0.342043 1.11125,0.752162 1.402292,0.911374 0.291042,0.159213 0.826822,0.450387 1.190624,0.647053 1.211938,0.655157 2.012926,1.156531 2.044024,1.279446 0.0404,0.159691 -0.06901,0.657864 -0.247914,1.128808 -0.25195,0.663224 -0.41032,1.283263 -0.474948,1.859467 -0.1416,1.262482 -0.404454,2.256756 -1.00529,3.802616 -0.152712,0.392906 -0.356116,0.926307 -0.452008,1.185335 -0.09589,0.259028 -0.205694,0.490835 -0.244002,0.515127 -0.03831,0.02429 -1.749836,0.04453 -3.803394,0.04498 -2.905704,6.2e-4 -3.7533,-0.01386 -3.821944,-0.06534 z m 7.935748,-1.415521 c 0.770092,-2.02622 0.933448,-2.641134 1.124604,-4.233333 0.04189,-0.348917 0.154738,-0.786008 0.36887,-1.42875 0.380422,-1.141873 0.408198,-1.277745 0.283552,-1.386989 -0.137968,-0.12092 -1.340076,-0.803618 -2.3868,-1.355507 -0.894632,-0.471697 -1.47284,-0.832708 -2.389664,-1.492016 -0.818254,-0.588422 -1.00559,-0.698168 -1.135932,-0.665454 -0.06671,0.01674 -0.308708,0.165719 -0.53778,0.331058 -1.181868,0.853047 -2.235114,1.516524 -3.016716,1.900339 -0.748084,0.367354 -2.105768,1.113029 -2.281342,1.252973 -0.149678,0.1193 -0.05708,0.588544 0.305462,1.547888 0.109984,0.291041 0.24749,0.767291 0.305568,1.058333 0.10143,0.508279 0.138686,0.730527 0.30404,1.813708 0.0959,0.628231 0.184678,0.933217 0.52716,1.811084 0.328392,0.84175 0.661206,1.731135 0.661206,1.766952 0,0.01393 0.02329,0.08657 0.05175,0.161424 l 0.05174,0.136099 3.655884,-0.01359 3.655886,-0.01359 z"
       id="path4307" />
  </g>
</svg>
