<?xml version="1.0" encoding="UTF-8" standalone="no"?>
<svg
   xmlns:dc="http://purl.org/dc/elements/1.1/"
   xmlns:cc="http://creativecommons.org/ns#"
   xmlns:rdf="http://www.w3.org/1999/02/22-rdf-syntax-ns#"
   xmlns:svg="http://www.w3.org/2000/svg"
   xmlns="http://www.w3.org/2000/svg"
   xmlns:sodipodi="http://sodipodi.sourceforge.net/DTD/sodipodi-0.dtd"
   xmlns:inkscape="http://www.inkscape.org/namespaces/inkscape"
   width="13.229167mm"
   height="13.229167mm"
   viewBox="0 0 13.229169 13.229168"
   version="1.1"
   id="svg8"
   sodipodi:docname="VCS_resized_249.svg"
   inkscape:version="1.0.2-2 (e86c870879, 2021-01-15)">
  <defs
     id="defs2" />
  <sodipodi:namedview
     id="base"
     pagecolor="#ffffff"
     bordercolor="#666666"
     borderopacity="1.0"
     inkscape:pageopacity="0.0"
     inkscape:pageshadow="2"
     inkscape:zoom="4"
     inkscape:cx="22.413362"
     inkscape:cy="32.288324"
     inkscape:document-units="mm"
     inkscape:current-layer="layer1"
     inkscape:document-rotation="0"
     showgrid="false"
     inkscape:window-width="958"
     inkscape:window-height="1008"
     inkscape:window-x="1913"
     inkscape:window-y="0"
     inkscape:window-maximized="0" />
  <metadata
     id="metadata5">
    <rdf:RDF>
      <cc:Work
         rdf:about="">
        <dc:format>image/svg+xml</dc:format>
        <dc:type
           rdf:resource="http://purl.org/dc/dcmitype/StillImage" />
        <dc:title></dc:title>
      </cc:Work>
    </rdf:RDF>
  </metadata>
  <g
     inkscape:label="Ebene 1"
     inkscape:groupmode="layer"
     id="layer1"
     transform="translate(-76.110428,-7.0889888)">
    <path
       style="fill:#000000;stroke-width:0.264582"
       d="m 78.705029,19.958257 c -0.02976,-0.03638 -0.07077,-0.256646 -0.09113,-0.48948 -0.02036,-0.232833 -0.08212,-0.816239 -0.13725,-1.296458 -0.05512,-0.480219 -0.138988,-1.218406 -0.186364,-1.640417 l -0.08614,-0.767291 -0.371046,-0.635 c -0.204076,-0.34925 -0.602944,-1.027907 -0.886374,-1.508125 -0.765464,-1.296938 -0.86518,-1.484511 -0.813736,-1.530708 0.0257,-0.02308 0.403922,-0.174149 0.840484,-0.335704 1.989378,-0.736192 2.708314,-1.00854 2.831042,-1.072454 0.204838,-0.106677 0.674514,-0.632448 1.45764,-1.6317296 0.89639,-1.143809 1.331068,-1.64796 1.433794,-1.662955 0.11522,-0.01682 0.07671,-0.06057 1.318082,1.497384 0.535646,0.672248 1.131466,1.3913706 1.371696,1.6555616 0.05608,0.06168 1.693927,0.750522 1.787417,0.75175 0.04922,6.4e-4 1.81117,0.653053 2.010848,0.744566 0.08004,0.03668 0.144992,0.08073 0.144342,0.09789 -6e-4,0.01716 -0.173288,0.322819 -0.383644,0.679249 -0.210358,0.356431 -0.465812,0.795397 -0.567676,0.975481 -0.200062,0.353684 -0.489708,0.850112 -0.766282,1.313338 -0.424804,0.711497 -0.453838,0.796749 -0.506176,1.486262 -0.0271,0.357027 -0.06036,0.686597 -0.07391,0.732377 -0.02147,0.07257 -0.203822,1.728834 -0.261852,2.378427 -0.01138,0.127293 -0.05304,0.251944 -0.09258,0.277002 -0.03955,0.02506 -1.837071,0.04593 -3.994491,0.04637 -3.074726,6.4e-4 -3.93428,-0.01349 -3.976694,-0.06534 z m 7.717547,-0.253216 c 0.07297,-0.03905 0.102378,-0.111221 0.102438,-0.251354 4.6e-5,-0.108117 0.04836,-0.601389 0.107356,-1.09616 0.059,-0.49477 0.13168,-1.125802 0.161514,-1.402291 0.129014,-1.195719 0.136904,-1.233387 0.326964,-1.561042 0.101292,-0.174625 0.499924,-0.865187 0.885848,-1.534583 0.385922,-0.669396 0.746184,-1.280291 0.800582,-1.357544 0.115098,-0.163461 0.127074,-0.287198 0.03135,-0.32393 -0.03715,-0.01426 -0.709856,-0.257935 -1.494896,-0.541506 -2.015423,-0.72801 -2.044717,-0.742658 -2.464499,-1.232452 -0.444936,-0.5191426 -1.364796,-1.6633516 -1.75973,-2.1889206 -0.167632,-0.223082 -0.338398,-0.418501 -0.379478,-0.434265 -0.04546,-0.01744 -0.144102,0.05846 -0.25204,0.193936 -0.09754,0.122429 -0.448344,0.56788 -0.779558,0.98989 -0.64619,0.823333 -1.403594,1.7207756 -1.565984,1.8555246 -0.107216,0.08897 -0.66522,0.31287 -1.846054,0.740745 -1.413334,0.512122 -1.772708,0.656597 -1.772708,0.712663 0,0.031 0.43213,0.793399 0.96029,1.694231 1.03484,1.765026 1.000988,1.682259 1.102742,2.696211 0.02921,0.291042 0.08854,0.791104 0.13186,1.11125 0.04331,0.320146 0.10425,0.878139 0.135412,1.239986 0.03116,0.361846 0.06868,0.677362 0.08338,0.701146 0.04082,0.06604 7.361335,0.05476 7.485209,-0.01153 z"
       id="path4883" />
  </g>
</svg>
