<?xml version="1.0" encoding="UTF-8" standalone="no"?>
<svg
   xmlns:dc="http://purl.org/dc/elements/1.1/"
   xmlns:cc="http://creativecommons.org/ns#"
   xmlns:rdf="http://www.w3.org/1999/02/22-rdf-syntax-ns#"
   xmlns:svg="http://www.w3.org/2000/svg"
   xmlns="http://www.w3.org/2000/svg"
   xmlns:sodipodi="http://sodipodi.sourceforge.net/DTD/sodipodi-0.dtd"
   xmlns:inkscape="http://www.inkscape.org/namespaces/inkscape"
   width="13.229167mm"
   height="13.229167mm"
   viewBox="0 0 13.229167 13.229167"
   version="1.1"
   id="svg8"
   sodipodi:docname="VCS_resized_43.svg"
   inkscape:version="1.0.2-2 (e86c870879, 2021-01-15)">
  <defs
     id="defs2" />
  <sodipodi:namedview
     id="base"
     pagecolor="#ffffff"
     bordercolor="#666666"
     borderopacity="1.0"
     inkscape:pageopacity="0.0"
     inkscape:pageshadow="2"
     inkscape:zoom="2.8284271"
     inkscape:cx="-6.7487792"
     inkscape:cy="48.180828"
     inkscape:document-units="mm"
     inkscape:current-layer="layer1"
     inkscape:document-rotation="0"
     showgrid="false"
     inkscape:window-width="958"
     inkscape:window-height="1008"
     inkscape:window-x="1913"
     inkscape:window-y="0"
     inkscape:window-maximized="0" />
  <metadata
     id="metadata5">
    <rdf:RDF>
      <cc:Work
         rdf:about="">
        <dc:format>image/svg+xml</dc:format>
        <dc:type
           rdf:resource="http://purl.org/dc/dcmitype/StillImage" />
        <dc:title></dc:title>
      </cc:Work>
    </rdf:RDF>
  </metadata>
  <g
     inkscape:label="Ebene 1"
     inkscape:groupmode="layer"
     id="layer1"
     transform="translate(-39.9856,-13.843768)">
    <path
       style="fill:#000000;stroke-width:0.264582"
       d="m 43.256119,25.361418 c -0.766436,-0.159556 -1.104916,-1.108852 -0.700114,-1.96353 0.08778,-0.185335 0.318238,-0.527473 0.512128,-0.760307 0.470814,-0.565379 0.632062,-0.806331 0.766198,-1.144914 0.2086,-0.526552 0.104056,-1.163462 -0.268104,-1.633351 -0.09361,-0.118196 -0.41168,-0.432919 -0.706818,-0.699385 -1.039498,-0.938515 -1.328808,-1.384454 -1.30987,-2.019026 0.01448,-0.485154 0.216466,-0.765244 0.6575,-0.911732 0.58143,-0.19312 1.326216,0.03637 2.05653,0.633673 0.88874,0.726879 1.294216,0.937323 1.878208,0.974802 0.641522,0.04117 0.917848,-0.138936 1.788958,-1.166016 0.452668,-0.533718 0.741256,-0.790312 1.100766,-0.978732 0.448824,-0.235229 1.000434,-0.248141 1.300664,-0.03045 0.07689,0.05575 0.205282,0.229435 0.28532,0.385964 0.122034,0.238666 0.14552,0.351299 0.14552,0.697875 0,0.630581 -0.138034,0.925334 -0.860182,1.836809 -0.170172,0.214787 -0.385322,0.536256 -0.478114,0.714375 -0.153052,0.293797 -0.168742,0.368053 -0.169068,0.800103 -2e-4,0.365649 0.02264,0.518549 0.09866,0.658389 0.145878,0.268343 0.573486,0.703022 1.159644,1.178823 0.865946,0.702911 1.187052,1.231179 1.131708,1.861827 -0.03509,0.399886 -0.142102,0.544296 -0.562568,0.759191 -0.288878,0.147641 -0.391224,0.171979 -0.723204,0.171979 -0.45265,0 -0.64679,-0.06605 -1.634166,-0.555988 -1.182568,-0.586792 -1.840006,-0.632124 -2.645834,-0.182439 -0.203728,0.113689 -0.58713,0.403998 -0.852004,0.64513 -0.758986,0.690957 -1.259016,0.875302 -1.971756,0.726925 z m 1.14754,-0.402734 c 0.127488,-0.07471 0.355744,-0.246526 0.507236,-0.381806 0.686004,-0.612596 0.82516,-0.715935 1.24443,-0.924139 0.427292,-0.212185 0.465866,-0.221282 0.926042,-0.218383 0.600108,0.0038 0.948364,0.113482 1.978022,0.623087 0.64534,0.319396 0.806312,0.377804 1.091222,0.395946 0.971228,0.06184 1.462606,-0.487687 1.115936,-1.248001 -0.150584,-0.330262 -0.496054,-0.714091 -1.032708,-1.147369 -0.897316,-0.724466 -1.27,-1.268066 -1.27,-1.852433 0,-0.344033 0.105082,-0.773458 0.267128,-1.091632 0.05319,-0.104433 0.321386,-0.488638 0.595996,-0.853788 0.578228,-0.768875 0.701424,-1.038625 0.689634,-1.510031 -0.0145,-0.579716 -0.256596,-0.889164 -0.74047,-0.946472 -0.485398,-0.05749 -1.0202,0.264307 -1.562096,0.939926 -0.631372,0.787173 -0.86327,1.001826 -1.373518,1.271371 -0.46344,0.244818 -1.29788,0.101986 -1.938578,-0.331826 -0.137942,-0.0934 -0.456188,-0.332237 -0.707214,-0.530746 -0.639422,-0.505653 -1.034178,-0.692794 -1.47337,-0.698478 -0.583924,-0.0076 -0.913192,0.266607 -0.909392,0.757201 0.0031,0.394698 0.236012,0.800325 0.730412,1.27181 1.31771,1.256642 1.606266,1.637022 1.68651,2.223202 0.06344,0.463393 -0.194148,1.161212 -0.61529,1.666875 -0.680886,0.817534 -0.946968,1.29134 -0.94654,1.685478 4e-4,0.411046 0.08606,0.649222 0.292776,0.814486 0.37893,0.302946 1.009306,0.340371 1.443832,0.08572 z"
       id="path698" />
  </g>
</svg>
