<?xml version="1.0" encoding="UTF-8" standalone="no"?>
<svg
   xmlns:dc="http://purl.org/dc/elements/1.1/"
   xmlns:cc="http://creativecommons.org/ns#"
   xmlns:rdf="http://www.w3.org/1999/02/22-rdf-syntax-ns#"
   xmlns:svg="http://www.w3.org/2000/svg"
   xmlns="http://www.w3.org/2000/svg"
   xmlns:sodipodi="http://sodipodi.sourceforge.net/DTD/sodipodi-0.dtd"
   xmlns:inkscape="http://www.inkscape.org/namespaces/inkscape"
   width="13.229167mm"
   height="13.229167mm"
   viewBox="0 0 13.229167 13.229167"
   version="1.1"
   id="svg8"
   sodipodi:docname="VCS_resized_4.svg"
   inkscape:version="1.0.2-2 (e86c870879, 2021-01-15)">
  <defs
     id="defs2" />
  <sodipodi:namedview
     id="base"
     pagecolor="#ffffff"
     bordercolor="#666666"
     borderopacity="1.0"
     inkscape:pageopacity="0.0"
     inkscape:pageshadow="2"
     inkscape:zoom="2.8284271"
     inkscape:cx="20.832915"
     inkscape:cy="48.86899"
     inkscape:document-units="mm"
     inkscape:current-layer="layer1"
     inkscape:document-rotation="0"
     showgrid="false"
     inkscape:window-width="958"
     inkscape:window-height="1008"
     inkscape:window-x="1913"
     inkscape:window-y="0"
     inkscape:window-maximized="0" />
  <metadata
     id="metadata5">
    <rdf:RDF>
      <cc:Work
         rdf:about="">
        <dc:format>image/svg+xml</dc:format>
        <dc:type
           rdf:resource="http://purl.org/dc/dcmitype/StillImage" />
        <dc:title></dc:title>
      </cc:Work>
    </rdf:RDF>
  </metadata>
  <g
     inkscape:label="Ebene 1"
     inkscape:groupmode="layer"
     id="layer1"
     transform="translate(-32.687946,-13.661692)">
    <path
       style="fill:#000000;stroke-width:0.264582"
       d="m 37.697534,25.829592 c -0.145226,-0.174985 -0.325512,-0.701743 -0.384504,-1.123433 -0.05163,-0.369088 -0.0507,-0.605733 0.0046,-1.181761 0.07313,-0.761069 0.08242,-1.557776 0.0228,-1.955349 -0.05563,-0.370961 -0.335456,-0.587065 -1.55706,-1.202484 -1.625342,-0.818813 -2.390936,-1.432631 -2.180516,-1.748237 0.05606,-0.08408 0.634084,-0.273032 1.027512,-0.335882 0.187574,-0.02997 1.017806,-0.04839 1.870372,-0.04151 0.843192,0.0068 1.585742,-0.0068 1.650114,-0.03024 0.172422,-0.06278 0.580952,-0.638435 0.93531,-1.317948 0.45166,-0.866101 0.814686,-1.387641 1.29935,-1.866711 0.515752,-0.509798 0.544304,-0.504742 0.76588,0.135646 0.186618,0.539348 0.222816,1.089879 0.14635,2.225705 -0.04726,0.701958 -0.0182,1.408768 0.06922,1.684237 0.04256,0.134089 0.701684,0.574051 1.495676,0.998353 0.37434,0.200044 0.84782,0.473869 1.052176,0.608499 0.474378,0.312523 1.144284,0.956448 1.120972,1.077499 -0.02229,0.115751 -0.286098,0.268863 -0.63849,0.370579 -0.22022,0.06356 -0.635848,0.08185 -1.99786,0.08788 -1.417952,0.0063 -1.747652,0.02165 -1.87854,0.08758 -0.23681,0.119282 -0.643416,0.697109 -1.104106,1.569042 -0.534162,1.010987 -0.691866,1.242426 -1.139354,1.672057 -0.377962,0.362878 -0.476244,0.411426 -0.579946,0.286473 z m 0.58328,-0.657431 c 0.296054,-0.311131 0.485348,-0.610922 1.02129,-1.617443 0.36796,-0.691042 0.880122,-1.396532 1.064812,-1.466751 0.26833,-0.102018 1.332574,-0.15752 2.376522,-0.123937 0.895438,0.0288 1.111274,0.02041 1.402292,-0.05456 0.443368,-0.114207 0.524164,-0.188492 0.404182,-0.371608 -0.18608,-0.283996 -0.814146,-0.715184 -1.885848,-1.294702 -0.363802,-0.196724 -0.85567,-0.49631 -1.093038,-0.665745 l -0.43158,-0.308065 -0.06545,-0.534293 c -0.04607,-0.376086 -0.05184,-0.738045 -0.01948,-1.222398 0.07764,-1.161972 0.05747,-1.652538 -0.0845,-2.054669 -0.14776,-0.418548 -0.208158,-0.436374 -0.528148,-0.155884 -0.280366,0.245757 -0.638896,0.773294 -1.016722,1.495988 -0.404104,0.772958 -0.63711,1.151439 -0.879594,1.42875 l -0.20822,0.238125 -1.924452,0.02849 c -1.75787,0.02602 -1.947316,0.0376 -2.188598,0.133786 -0.14528,0.05791 -0.271096,0.141384 -0.27959,0.185488 -0.01814,0.09424 0.539626,0.555504 0.980808,0.811095 0.167068,0.09679 0.607526,0.33194 0.978794,0.522558 0.371268,0.190618 0.875558,0.480002 1.120642,0.643075 0.36062,0.239949 0.458612,0.334191 0.513792,0.494129 0.08077,0.234103 0.09302,1.521721 0.02359,2.477545 -0.06528,0.898583 0.09112,1.715295 0.328482,1.715295 0.05526,0 0.230766,-0.136922 0.390006,-0.304271 z"
       id="path56" />
  </g>
</svg>
