<?xml version="1.0" encoding="UTF-8" standalone="no"?>
<svg
   xmlns:dc="http://purl.org/dc/elements/1.1/"
   xmlns:cc="http://creativecommons.org/ns#"
   xmlns:rdf="http://www.w3.org/1999/02/22-rdf-syntax-ns#"
   xmlns:svg="http://www.w3.org/2000/svg"
   xmlns="http://www.w3.org/2000/svg"
   xmlns:sodipodi="http://sodipodi.sourceforge.net/DTD/sodipodi-0.dtd"
   xmlns:inkscape="http://www.inkscape.org/namespaces/inkscape"
   width="13.229167mm"
   height="13.229167mm"
   viewBox="0 0 13.229169 13.229168"
   version="1.1"
   id="svg8"
   sodipodi:docname="VCS_resized_167.svg"
   inkscape:version="1.0.2-2 (e86c870879, 2021-01-15)">
  <defs
     id="defs2" />
  <sodipodi:namedview
     id="base"
     pagecolor="#ffffff"
     bordercolor="#666666"
     borderopacity="1.0"
     inkscape:pageopacity="0.0"
     inkscape:pageshadow="2"
     inkscape:zoom="2.8284271"
     inkscape:cx="9.7848351"
     inkscape:cy="19.629974"
     inkscape:document-units="mm"
     inkscape:current-layer="layer1"
     inkscape:document-rotation="0"
     showgrid="false"
     inkscape:window-width="958"
     inkscape:window-height="1008"
     inkscape:window-x="1913"
     inkscape:window-y="0"
     inkscape:window-maximized="0" />
  <metadata
     id="metadata5">
    <rdf:RDF>
      <cc:Work
         rdf:about="">
        <dc:format>image/svg+xml</dc:format>
        <dc:type
           rdf:resource="http://purl.org/dc/dcmitype/StillImage" />
        <dc:title></dc:title>
      </cc:Work>
    </rdf:RDF>
  </metadata>
  <g
     inkscape:label="Ebene 1"
     inkscape:groupmode="layer"
     id="layer1"
     transform="translate(-35.611076,-21.397848)">
    <path
       style="fill:#000000;stroke-width:0.264582"
       d="m 39.528099,33.915675 c -0.208676,-0.01913 -0.391886,-0.04734 -0.407134,-0.06268 -0.01524,-0.01534 -0.246962,-0.40825 -0.514918,-0.873125 -0.267958,-0.464874 -0.706638,-1.202414 -0.974844,-1.638976 -0.586446,-0.95456 -0.67973,-1.134086 -0.784476,-1.509718 -0.21978,-0.788174 -0.162166,-1.287827 0.240842,-2.088615 0.60285,-1.19788 0.624354,-1.576676 0.152244,-2.681682 -0.267422,-0.62592 -0.35616,-1.183516 -0.246394,-1.548243 0.160808,-0.534319 0.52313,-0.96083 1.037774,-1.22162 0.364972,-0.184945 0.693864,-0.21628 1.169132,-0.111387 0.302802,0.06683 0.666944,0.08498 1.633226,0.08142 0.683948,-0.0025 1.79123,-2.12e-4 2.460626,0.0051 0.983882,0.0079 1.288056,-0.0074 1.5875,-0.07936 0.568134,-0.13663 1.111534,-0.128361 1.398408,0.02128 0.477418,0.249035 1.041214,0.883376 1.171434,1.318011 0.09986,0.333309 -0.0048,0.919583 -0.265818,1.488346 -0.39416,0.859041 -0.400798,1.55603 -0.02134,2.240559 0.100244,0.180835 0.269616,0.507386 0.376382,0.725668 0.185658,0.379575 0.193932,0.419941 0.1898,0.926041 -0.0067,0.826554 -0.1029,1.063388 -1.121106,2.761408 -0.34583,0.576726 -0.693984,1.177706 -0.773674,1.335512 -0.258726,0.512335 -0.502078,0.837559 -0.653708,0.873636 -0.197638,0.04703 -5.19001,0.08093 -5.653958,0.03839 z m 4.627524,-0.222068 c 0.992556,-0.04291 0.966362,-0.03097 1.268788,-0.578637 0.215532,-0.390315 0.705842,-1.237427 1.299044,-2.244374 0.55092,-0.935174 0.682222,-1.273255 0.712326,-1.83411 0.02157,-0.401885 0.0082,-0.492506 -0.119882,-0.812662 -0.07929,-0.198186 -0.235042,-0.520722 -0.346122,-0.716747 -0.32351,-0.570904 -0.3889,-0.831768 -0.35144,-1.402038 0.03205,-0.487943 0.09361,-0.702213 0.431972,-1.503512 0.205754,-0.487264 0.23014,-0.835742 0.08017,-1.145546 -0.171876,-0.355052 -0.624584,-0.796813 -0.98622,-0.962376 l -0.304704,-0.139497 -0.769978,0.09115 c -0.660246,0.07816 -1.128198,0.0876 -3.283522,0.0662 -1.382448,-0.01373 -2.672102,-0.04156 -2.865898,-0.06185 -0.641916,-0.0672 -1.206934,0.253612 -1.554132,0.882433 -0.21101,0.382165 -0.212422,0.81985 -0.0042,1.314892 0.322822,0.767662 0.40987,1.039651 0.459562,1.435954 0.0659,0.525541 -0.0032,0.812775 -0.39421,1.638865 -0.325934,0.688597 -0.429916,1.116723 -0.390498,1.6078 0.03445,0.429146 0.22673,0.845418 0.868914,1.881104 0.26097,0.420879 0.671466,1.110516 0.912216,1.532527 0.240752,0.42201 0.472082,0.80301 0.514068,0.846666 0.05778,0.06008 0.25922,0.08669 0.828718,0.109489 1.040084,0.04163 2.963378,0.03887 3.995076,-0.0057 z"
       id="path2716" />
  </g>
</svg>
