<?xml version="1.0" encoding="UTF-8" standalone="no"?>
<svg
   xmlns:dc="http://purl.org/dc/elements/1.1/"
   xmlns:cc="http://creativecommons.org/ns#"
   xmlns:rdf="http://www.w3.org/1999/02/22-rdf-syntax-ns#"
   xmlns:svg="http://www.w3.org/2000/svg"
   xmlns="http://www.w3.org/2000/svg"
   xmlns:sodipodi="http://sodipodi.sourceforge.net/DTD/sodipodi-0.dtd"
   xmlns:inkscape="http://www.inkscape.org/namespaces/inkscape"
   width="13.229167mm"
   height="13.229167mm"
   viewBox="0 0 13.229169 13.229168"
   version="1.1"
   id="svg8"
   sodipodi:docname="VCS_resized_116.svg"
   inkscape:version="1.0.2-2 (e86c870879, 2021-01-15)">
  <defs
     id="defs2" />
  <sodipodi:namedview
     id="base"
     pagecolor="#ffffff"
     bordercolor="#666666"
     borderopacity="1.0"
     inkscape:pageopacity="0.0"
     inkscape:pageshadow="2"
     inkscape:zoom="2.8284271"
     inkscape:cx="-8.6570301"
     inkscape:cy="55.216043"
     inkscape:document-units="mm"
     inkscape:current-layer="layer1"
     inkscape:document-rotation="0"
     showgrid="false"
     inkscape:window-width="958"
     inkscape:window-height="1008"
     inkscape:window-x="1913"
     inkscape:window-y="0"
     inkscape:window-maximized="0" />
  <metadata
     id="metadata5">
    <rdf:RDF>
      <cc:Work
         rdf:about="">
        <dc:format>image/svg+xml</dc:format>
        <dc:type
           rdf:resource="http://purl.org/dc/dcmitype/StillImage" />
        <dc:title></dc:title>
      </cc:Work>
    </rdf:RDF>
  </metadata>
  <g
     inkscape:label="Ebene 1"
     inkscape:groupmode="layer"
     id="layer1"
     transform="translate(-40.49049,-11.982368)">
    <path
       style="fill:#000000;stroke-width:0.264582"
       d="m 45.237415,24.5969 -0.846666,-0.206077 -0.763206,-0.780282 c -0.419764,-0.429156 -0.884386,-0.923158 -1.032492,-1.097783 -0.329074,-0.387997 -0.561468,-0.890461 -0.596154,-1.288956 -0.03888,-0.446725 0.08822,-0.681078 0.752574,-1.387602 0.312516,-0.332352 0.649934,-0.726424 0.749818,-0.875716 0.492416,-0.735994 0.43289,-1.457288 -0.19377,-2.347934 -0.995528,-1.414901 -1.114636,-1.655402 -1.153102,-2.328334 -0.0462,-0.808244 0.172632,-1.371764 0.667042,-1.717698 0.205658,-0.143898 0.26977,-0.160515 0.608542,-0.15773 0.508536,0.0042 0.715324,0.136465 1.78349,1.140904 1.013846,0.953363 1.30083,1.104941 2.091978,1.104941 0.601638,0 0.961898,-0.230434 1.980072,-1.266515 0.74527,-0.758379 1.023678,-0.949132 1.449412,-0.993072 0.23567,-0.02432 0.333142,-0.0078 0.518434,0.08784 0.326848,0.168722 0.433586,0.283564 0.633232,0.681315 0.169424,0.337537 0.176934,0.377782 0.174456,0.934806 -0.0031,0.701317 -0.09939,0.991802 -0.53233,1.606276 -0.774444,1.099169 -0.921238,1.337868 -1.03023,1.675233 -0.257206,0.796141 -0.02945,1.397661 0.877042,2.316313 0.675732,0.684799 0.843738,0.977419 0.84201,1.466553 -0.0021,0.605506 -0.182624,0.892144 -1.38547,2.200338 -0.7996,0.869631 -0.984806,1.01388 -1.45474,1.133022 -0.210572,0.05339 -0.573358,0.14647 -0.806192,0.206853 -0.362742,0.09407 -0.571022,0.109042 -1.455208,0.104584 -1.010514,-0.0051 -1.049402,-0.0095 -1.878542,-0.21128 z m 3.857684,-0.295488 0.576848,-0.161823 0.57784,-0.575291 c 0.71177,-0.708631 1.424078,-1.519597 1.548984,-1.763524 0.05149,-0.100549 0.105484,-0.330708 0.119994,-0.511465 0.03579,-0.445926 -0.08755,-0.686406 -0.669084,-1.304461 -0.899392,-0.955876 -1.117474,-1.345395 -1.117474,-1.995922 0,-0.656873 0.202352,-1.086099 1.16324,-2.467441 0.159564,-0.229383 0.343496,-0.571842 0.408738,-0.761019 0.40684,-1.179674 -0.31566,-2.316077 -1.229698,-1.934167 -0.2908,0.121504 -0.53457,0.324303 -1.241864,1.03314 -0.505644,0.506748 -0.742482,0.703458 -1.005416,0.835068 -0.47565,0.238083 -0.881422,0.306163 -1.34003,0.224829 -0.60215,-0.106791 -1.018056,-0.355466 -1.718424,-1.027459 -1.11516,-1.069984 -1.678906,-1.333121 -2.191386,-1.022861 -0.418284,0.253232 -0.604082,0.712848 -0.558286,1.381041 0.03134,0.457277 0.18039,0.812109 0.607042,1.445138 0.903312,1.340257 1.028032,1.600475 1.061052,2.213813 0.03841,0.713489 -0.12453,1.013905 -1.196966,2.206853 -0.486192,0.540826 -0.591384,0.728909 -0.598224,1.069603 -0.01058,0.527203 0.151338,0.789195 1.09985,1.779611 1.16133,1.212635 1.104314,1.171186 1.84558,1.34167 0.34925,0.08032 0.658812,0.154743 0.687916,0.165377 0.02911,0.01063 0.624418,0.01298 1.322918,0.0052 1.234174,-0.01371 1.286272,-0.01868 1.84685,-0.175933 z"
       id="path1898" />
  </g>
</svg>
