<?xml version="1.0" encoding="UTF-8" standalone="no"?>
<svg
   xmlns:dc="http://purl.org/dc/elements/1.1/"
   xmlns:cc="http://creativecommons.org/ns#"
   xmlns:rdf="http://www.w3.org/1999/02/22-rdf-syntax-ns#"
   xmlns:svg="http://www.w3.org/2000/svg"
   xmlns="http://www.w3.org/2000/svg"
   xmlns:sodipodi="http://sodipodi.sourceforge.net/DTD/sodipodi-0.dtd"
   xmlns:inkscape="http://www.inkscape.org/namespaces/inkscape"
   width="13.229167mm"
   height="13.229167mm"
   viewBox="0 0 13.229169 13.229168"
   version="1.1"
   id="svg8"
   sodipodi:docname="VCS_resized_342.svg"
   inkscape:version="1.0.2-2 (e86c870879, 2021-01-15)">
  <defs
     id="defs2" />
  <sodipodi:namedview
     id="base"
     pagecolor="#ffffff"
     bordercolor="#666666"
     borderopacity="1.0"
     inkscape:pageopacity="0.0"
     inkscape:pageshadow="2"
     inkscape:zoom="4"
     inkscape:cx="6.4955744"
     inkscape:cy="17.484936"
     inkscape:document-units="mm"
     inkscape:current-layer="layer1"
     inkscape:document-rotation="0"
     showgrid="false"
     inkscape:window-width="958"
     inkscape:window-height="1008"
     inkscape:window-x="1913"
     inkscape:window-y="0"
     inkscape:window-maximized="0" />
  <metadata
     id="metadata5">
    <rdf:RDF>
      <cc:Work
         rdf:about="">
        <dc:format>image/svg+xml</dc:format>
        <dc:type
           rdf:resource="http://purl.org/dc/dcmitype/StillImage" />
        <dc:title></dc:title>
      </cc:Work>
    </rdf:RDF>
  </metadata>
  <g
     inkscape:label="Ebene 1"
     inkscape:groupmode="layer"
     id="layer1"
     transform="translate(-96.154976,13.049443)">
    <path
       style="fill:#000000;stroke-width:0.264582"
       d="m 102.0907,-0.67155368 c -0.2485,-0.2830312 -0.5289,-0.74309862 -0.78007,-1.27992302 -0.18381,-0.3928596 -0.23381,-0.565461 -0.2606,-0.8995832 -0.0431,-0.537356 -0.22623,-1.9151372 -0.26236,-1.973599 -0.048,-0.077684 -0.48476,-0.3038524 -1.343303,-0.6956294 -1.099187,-0.5015864 -2.594689,-1.2423642 -2.753329,-1.3638222 -0.07885,-0.060367 -0.115238,-0.1289712 -0.09558,-0.1801888 0.06225,-0.1622176 0.943434,-0.3974972 2.895199,-0.7730282 1.180393,-0.2271148 1.696343,-0.3541666 1.769323,-0.4356964 0.0728,-0.081341 0.22254,-0.413994 0.79437,-1.7648191 0.53878,-1.272753 1.08992,-2.323267 1.22985,-2.344177 0.0912,-0.01363 0.13668,0.07131 0.3256,0.608541 0.12076,0.343413 0.31365,1.041105 0.42864,1.550428 0.28452,1.2602543 0.46733,1.9494361 0.57456,2.1661447 0.0992,0.2004726 0.16122,0.2303244 1.59807,0.7692426 1.55978,0.5850224 2.77583,1.146092 2.73693,1.2627832 -0.0583,0.1747912 -0.93654,0.50455 -2.36651,0.8885338 -1.91508,0.5142484 -2.07895,0.5767008 -2.17645,0.8295006 -0.0626,0.1623896 -0.35431,1.176192 -0.49781,1.7302532 -0.0799,0.3083058 -0.16841,0.46802 -0.52815,0.9525 -0.40818,0.5497296 -0.96386,1.13770842 -1.07519,1.13770842 -0.0278,0 -0.12377,-0.083326 -0.21319,-0.1851692 z m 0.58511,-0.48951842 c 0.4497,-0.459332 0.87706,-1.0898314 0.97242,-1.4346352 0.19601,-0.7087622 0.41749,-1.43489 0.53771,-1.7628934 l 0.12948,-0.353258 0.48481,-0.1576746 c 0.26664,-0.086721 0.84199,-0.256103 1.27855,-0.3764042 1.09078,-0.3005826 1.97548,-0.5789164 2.19279,-0.6898692 l 0.18195,-0.092904 -0.22059,-0.1392534 c -0.12132,-0.076589 -0.23449,-0.1392534 -0.25149,-0.1392534 -0.017,0 -0.15439,-0.055897 -0.30532,-0.124217 -0.27906,-0.1263158 -0.52489,-0.2245536 -1.88769,-0.7543498 -1.26066,-0.490092 -1.30745,-0.514921 -1.40344,-0.7446366 -0.0842,-0.2015194 -0.34358,-1.2042642 -0.65962,-2.5500011 -0.18035,-0.767956 -0.37371,-1.339586 -0.46324,-1.369428 -0.10625,-0.03542 -0.4863,0.745668 -1.33611,2.7460557 -0.42488,1.000106 -0.47732,1.083396 -0.72605,1.1532514 -0.11065,0.031076 -0.7965,0.1753608 -1.524113,0.3206322 -2.066379,0.4125678 -2.566455,0.536522 -2.566455,0.6361492 0,0.074213 0.993954,0.5859256 2.407125,1.239247 0.725333,0.3353302 1.361983,0.6528858 1.414783,0.7056792 0.0528,0.052793 0.1201,0.2377388 0.14958,0.4109908 0.0801,0.4709176 0.20672,1.6062974 0.2079,1.864409 10e-4,0.2684266 0.17473,0.7009812 0.50823,1.2670556 0.25909,0.4397646 0.4278,0.64957922 0.52233,0.64957922 0.0322,0 0.19262,-0.136922 0.35646,-0.30427142 z"
       id="path6393" />
  </g>
</svg>
