<?xml version="1.0" encoding="UTF-8" standalone="no"?>
<svg
   xmlns:dc="http://purl.org/dc/elements/1.1/"
   xmlns:cc="http://creativecommons.org/ns#"
   xmlns:rdf="http://www.w3.org/1999/02/22-rdf-syntax-ns#"
   xmlns:svg="http://www.w3.org/2000/svg"
   xmlns="http://www.w3.org/2000/svg"
   xmlns:sodipodi="http://sodipodi.sourceforge.net/DTD/sodipodi-0.dtd"
   xmlns:inkscape="http://www.inkscape.org/namespaces/inkscape"
   width="13.229167mm"
   height="13.229167mm"
   viewBox="0 0 13.229169 13.229168"
   version="1.1"
   id="svg8"
   sodipodi:docname="VCS_resized_198.svg"
   inkscape:version="1.0.2-2 (e86c870879, 2021-01-15)">
  <defs
     id="defs2" />
  <sodipodi:namedview
     id="base"
     pagecolor="#ffffff"
     bordercolor="#666666"
     borderopacity="1.0"
     inkscape:pageopacity="0.0"
     inkscape:pageshadow="2"
     inkscape:zoom="2.8284271"
     inkscape:cx="2.245585"
     inkscape:cy="42.260223"
     inkscape:document-units="mm"
     inkscape:current-layer="layer1"
     inkscape:document-rotation="0"
     showgrid="false"
     inkscape:window-width="958"
     inkscape:window-height="1008"
     inkscape:window-x="1913"
     inkscape:window-y="0"
     inkscape:window-maximized="0" />
  <metadata
     id="metadata5">
    <rdf:RDF>
      <cc:Work
         rdf:about="">
        <dc:format>image/svg+xml</dc:format>
        <dc:type
           rdf:resource="http://purl.org/dc/dcmitype/StillImage" />
        <dc:title></dc:title>
      </cc:Work>
    </rdf:RDF>
  </metadata>
  <g
     inkscape:label="Ebene 1"
     inkscape:groupmode="layer"
     id="layer1"
     transform="translate(-47.969215,-19.499151)">
    <path
       style="fill:#000000;stroke-width:0.264582"
       d="m 51.125387,32.225483 c -0.114688,-0.01701 -0.146368,-0.06787 -0.402234,-0.645816 -0.07087,-0.160073 -0.382786,-0.817556 -0.693152,-1.461074 -0.76281,-1.581612 -0.795864,-1.730942 -0.748326,-3.380801 0.03829,-1.328949 0.0389,-1.324701 -0.340774,-2.369771 -0.117076,-0.322256 -0.267452,-1.029256 -0.267468,-1.25751 -1.2e-5,-0.179308 0.2751,-0.438239 0.873116,-0.82176 0.60066,-0.385218 1.141196,-0.633309 2.000366,-0.918112 0.589986,-0.195573 1.77598,-0.724128 2.746738,-1.224122 0.166156,-0.08558 0.328752,-0.1556 0.361322,-0.1556 0.07048,0 0.608306,0.251699 1.585532,0.742027 0.407348,0.204388 1.015986,0.454222 1.416146,0.581299 0.68426,0.217297 1.487588,0.622902 2.261562,1.141878 0.57999,0.388902 0.583008,0.393093 0.57423,0.797618 -0.0081,0.375323 -0.117172,0.818887 -0.36863,1.499678 -0.15828,0.428531 -0.173902,0.708862 -0.13124,2.355213 0.01978,0.763461 -0.03121,1.108476 -0.258018,1.745829 -0.172856,0.485731 -1.451762,3.191306 -1.56012,3.300491 -0.05939,0.05985 -0.673856,0.07388 -3.50329,0.08004 -1.887196,0.0041 -3.482788,-1.58e-4 -3.54576,-0.0095 z m 6.849142,-0.315087 c 0.05793,-0.05093 0.249086,-0.402167 0.424792,-0.780521 0.175704,-0.378354 0.44902,-0.96176 0.607366,-1.296458 0.687134,-1.452406 0.770156,-1.839016 0.67954,-3.164381 -0.06655,-0.973291 -0.02096,-1.427492 0.205742,-2.049778 0.161056,-0.4421 0.296732,-0.955192 0.337924,-1.27795 0.03232,-0.253268 0.02371,-0.285131 -0.11187,-0.413732 -0.28813,-0.273303 -1.673524,-1.055329 -2.104806,-1.18812 -0.623446,-0.191958 -1.216896,-0.440873 -2.169444,-0.909944 -0.582004,-0.286602 -1.098136,-0.521095 -1.146956,-0.521095 -0.04882,0 -0.382258,0.140634 -0.740974,0.312519 -1.068618,0.512049 -1.67175,0.772457 -2.39846,1.035558 -0.789076,0.28568 -1.362406,0.541669 -1.74456,0.778937 -0.645604,0.400836 -0.812114,0.53218 -0.83652,0.65985 -0.04235,0.221514 0.106414,0.914876 0.331414,1.544703 0.229306,0.641882 0.357336,1.471482 0.289266,1.874377 -0.05697,0.33723 -0.03777,1.595402 0.02928,1.91838 0.07833,0.377312 0.10822,0.447736 0.762494,1.796561 0.296732,0.611732 0.597722,1.248229 0.668864,1.414439 0.07114,0.16621 0.165068,0.312276 0.208724,0.324591 0.04366,0.01232 1.547158,0.02515 3.341118,0.02853 3.036166,0.0057 3.269026,-2.6e-4 3.36707,-0.08647 z"
       id="path4067" />
  </g>
</svg>
