<?xml version="1.0" encoding="UTF-8" standalone="no"?>
<svg
   xmlns:dc="http://purl.org/dc/elements/1.1/"
   xmlns:cc="http://creativecommons.org/ns#"
   xmlns:rdf="http://www.w3.org/1999/02/22-rdf-syntax-ns#"
   xmlns:svg="http://www.w3.org/2000/svg"
   xmlns="http://www.w3.org/2000/svg"
   xmlns:sodipodi="http://sodipodi.sourceforge.net/DTD/sodipodi-0.dtd"
   xmlns:inkscape="http://www.inkscape.org/namespaces/inkscape"
   width="13.229167mm"
   height="13.229167mm"
   viewBox="0 0 13.229167 13.229167"
   version="1.1"
   id="svg8"
   sodipodi:docname="VCS_resized_62.svg"
   inkscape:version="1.0.2-2 (e86c870879, 2021-01-15)">
  <defs
     id="defs2" />
  <sodipodi:namedview
     id="base"
     pagecolor="#ffffff"
     bordercolor="#666666"
     borderopacity="1.0"
     inkscape:pageopacity="0.0"
     inkscape:pageshadow="2"
     inkscape:zoom="2.8284271"
     inkscape:cx="-6.3481352"
     inkscape:cy="76.613242"
     inkscape:document-units="mm"
     inkscape:current-layer="layer1"
     inkscape:document-rotation="0"
     showgrid="false"
     inkscape:window-width="958"
     inkscape:window-height="1008"
     inkscape:window-x="1913"
     inkscape:window-y="0"
     inkscape:window-maximized="0" />
  <metadata
     id="metadata5">
    <rdf:RDF>
      <cc:Work
         rdf:about="">
        <dc:format>image/svg+xml</dc:format>
        <dc:type
           rdf:resource="http://purl.org/dc/dcmitype/StillImage" />
        <dc:title></dc:title>
      </cc:Work>
    </rdf:RDF>
  </metadata>
  <g
     inkscape:label="Ebene 1"
     inkscape:groupmode="layer"
     id="layer1"
     transform="translate(-39.879597,-6.3210249)">
    <path
       style="fill:#000000;stroke-width:0.264582"
       d="m 43.126094,17.979828 c -1.161566,-0.286221 -1.630032,-1.282449 -1.06148,-2.257324 0.08106,-0.139 0.411112,-0.526571 0.733436,-0.861269 0.326658,-0.339195 0.655768,-0.737359 0.743568,-0.899583 0.139192,-0.257173 0.157666,-0.343494 0.15875,-0.741775 0.0018,-0.657061 -0.147744,-0.931033 -1.047226,-1.918697 -0.757308,-0.831548 -0.99171,-1.194722 -1.093564,-1.6943133 -0.153218,-0.751544 0.259078,-1.50919 0.871224,-1.600987 0.703946,-0.105563 1.081398,0.08981 2.129046,1.101988 0.901932,0.871399 1.180174,1.0471583 1.720762,1.0869663 0.610124,0.04493 1.02916,-0.18666 1.657954,-0.9163073 0.93084,-1.08014 1.433564,-1.428935 2.059002,-1.428559 0.60955,3.6e-4 1.006566,0.373412 1.141852,1.072913 0.142206,0.735274 -0.08037,1.2901533 -0.890538,2.2201573 -0.611024,0.701397 -0.846574,1.070629 -0.946574,1.483774 -0.14976,0.618722 0.04121,1.140114 0.63004,1.720125 0.213296,0.210103 0.570746,0.556221 0.794332,0.76915 0.515382,0.490814 0.731904,0.895525 0.734186,1.372295 0.0022,0.459193 -0.136574,0.741629 -0.498732,1.015061 -0.229136,0.173 -0.376272,0.237263 -0.689468,0.301132 -0.35875,0.07316 -0.439168,0.07306 -0.812326,-0.001 -0.227786,-0.04522 -0.694834,-0.165798 -1.03788,-0.267938 -0.343048,-0.102141 -0.866034,-0.224234 -1.162194,-0.271319 -0.669374,-0.10642 -1.069286,-0.05365 -1.91825,0.253096 -1.326166,0.479174 -1.771154,0.572039 -2.21592,0.462444 z m 1.210502,-0.413325 c 1.211206,-0.429105 1.512016,-0.524926 1.843534,-0.587244 0.607154,-0.114132 1.34783,-0.0039 2.672894,0.397793 1.133574,0.343644 1.942072,0.172766 2.235044,-0.472382 0.261926,-0.576777 0.08911,-0.936063 -0.937246,-1.948547 -0.652534,-0.643715 -0.79581,-0.815075 -0.962134,-1.150721 -0.174314,-0.35177 -0.194498,-0.434661 -0.18684,-0.767292 0.01544,-0.670264 0.250696,-1.151012 0.972746,-1.987729 0.801552,-0.928842 0.992998,-1.3207333 0.9317,-1.9071933 -0.03969,-0.379771 -0.126856,-0.562705 -0.369712,-0.775935 -0.2342,-0.20563 -0.549036,-0.256931 -0.912888,-0.148752 -0.358754,0.106664 -0.615426,0.300924 -1.056666,0.799732 -1.102302,1.2461123 -1.440514,1.4735203 -2.19314,1.4746263 -0.40784,6e-4 -0.48434,-0.01649 -0.820208,-0.183287 -0.299964,-0.148962 -0.515126,-0.3274163 -1.131234,-0.9382363 -0.587202,-0.582161 -0.83677,-0.791678 -1.093652,-0.918141 -0.613832,-0.302188 -1.167898,-0.173203 -1.431392,0.333225 -0.1099,0.211224 -0.09281,0.729821 0.03533,1.072315 0.125914,0.3365383 0.380924,0.6810743 0.9218,1.2454173 0.800638,0.835374 1.156018,1.487955 1.152686,2.116666 -0.0033,0.620366 -0.247382,1.069861 -0.98335,1.810817 -0.77378,0.779024 -0.998928,1.212192 -0.88791,1.708274 0.07714,0.344676 0.297178,0.604972 0.692514,0.819198 0.403898,0.218867 0.904294,0.22132 1.508124,0.0074 z"
       id="path1018" />
  </g>
</svg>
