<?xml version="1.0" encoding="UTF-8" standalone="no"?>
<svg
   xmlns:dc="http://purl.org/dc/elements/1.1/"
   xmlns:cc="http://creativecommons.org/ns#"
   xmlns:rdf="http://www.w3.org/1999/02/22-rdf-syntax-ns#"
   xmlns:svg="http://www.w3.org/2000/svg"
   xmlns="http://www.w3.org/2000/svg"
   xmlns:sodipodi="http://sodipodi.sourceforge.net/DTD/sodipodi-0.dtd"
   xmlns:inkscape="http://www.inkscape.org/namespaces/inkscape"
   width="13.229167mm"
   height="13.229167mm"
   viewBox="0 0 13.229169 13.229168"
   version="1.1"
   id="svg8"
   sodipodi:docname="VCS_resized_250.svg"
   inkscape:version="1.0.2-2 (e86c870879, 2021-01-15)">
  <defs
     id="defs2" />
  <sodipodi:namedview
     id="base"
     pagecolor="#ffffff"
     bordercolor="#666666"
     borderopacity="1.0"
     inkscape:pageopacity="0.0"
     inkscape:pageshadow="2"
     inkscape:zoom="2.8284271"
     inkscape:cx="-8.5101353"
     inkscape:cy="37.671265"
     inkscape:document-units="mm"
     inkscape:current-layer="layer1"
     inkscape:document-rotation="0"
     showgrid="false"
     inkscape:window-width="958"
     inkscape:window-height="1008"
     inkscape:window-x="1913"
     inkscape:window-y="0"
     inkscape:window-maximized="0" />
  <metadata
     id="metadata5">
    <rdf:RDF>
      <cc:Work
         rdf:about="">
        <dc:format>image/svg+xml</dc:format>
        <dc:type
           rdf:resource="http://purl.org/dc/dcmitype/StillImage" />
        <dc:title></dc:title>
      </cc:Work>
    </rdf:RDF>
  </metadata>
  <g
     inkscape:label="Ebene 1"
     inkscape:groupmode="layer"
     id="layer1"
     transform="translate(-83.129982,-6.581121)">
    <path
       style="fill:#000000;stroke-width:0.264582"
       d="m 85.717286,19.452831 c -0.03492,-0.03493 -0.0635,-0.148161 -0.0635,-0.251636 0,-0.172876 -0.05039,-0.688754 -0.28968,-2.965697 -0.04741,-0.451115 -0.104996,-0.881141 -0.12797,-0.955615 -0.02297,-0.07447 -0.501252,-0.905621 -1.062838,-1.846994 -0.561586,-0.941372 -1.023764,-1.746873 -1.02706,-1.790002 -0.0061,-0.08031 0.47662,-0.276464 2.16359,-0.879092 1.750502,-0.625325 1.599256,-0.539567 2.18622,-1.2396158 0.284826,-0.339701 0.681552,-0.831952 0.881612,-1.093889 0.90254,-1.18169 1.231898,-1.561042 1.355308,-1.561042 0.06169,0 0.22334,0.157027 0.422186,0.410104 1.024576,1.304004 1.863618,2.348392 2.074414,2.582096 0.287608,0.3188658 0.446408,0.3876888 3.002136,1.3010998 0.898588,0.321153 1.11125,0.406832 1.11125,0.44771 0,0.0165 -0.175184,0.319793 -0.389296,0.673977 -0.214114,0.354184 -0.489546,0.822565 -0.612072,1.040846 -0.122524,0.218282 -0.388892,0.670719 -0.591924,1.005417 -0.539638,0.889586 -0.61235,1.066694 -0.65175,1.5875 -0.01872,0.247385 -0.07903,0.842698 -0.134034,1.322917 -0.05501,0.480218 -0.127242,1.158875 -0.160526,1.508125 -0.04488,0.470967 -0.0827,0.652087 -0.146406,0.701146 -0.122352,0.09423 -7.845502,0.0968 -7.93966,0.0026 z m 7.70367,-0.245722 c 0.04389,-0.02785 0.09477,-0.321468 0.144288,-0.832628 0.04207,-0.434284 0.100988,-0.979757 0.130922,-1.212161 0.02994,-0.232403 0.08946,-0.771866 0.132276,-1.198804 0.07495,-0.747345 0.08547,-0.788756 0.282546,-1.112031 0.112586,-0.184678 0.371596,-0.621529 0.575578,-0.970779 0.20398,-0.34925 0.564864,-0.962587 0.801964,-1.362972 0.2371,-0.400384 0.43109,-0.748859 0.43109,-0.774389 0,-0.05325 -0.368568,-0.195612 -1.74625,-0.674497 -1.708334,-0.593823 -1.870516,-0.67279 -2.223088,-1.0824368 -0.406746,-0.472589 -1.254212,-1.532606 -1.76475,-2.207357 -0.226966,-0.299971 -0.440538,-0.536328 -0.474602,-0.525238 -0.03406,0.01109 -0.392104,0.447021 -0.795642,0.968735 -0.403538,0.521715 -0.968612,1.226023 -1.255718,1.565129 -0.480484,0.5675088 -0.546298,0.6250538 -0.827334,0.7233648 -0.327272,0.114486 -1.93213,0.690904 -2.779178,0.9982 -0.283766,0.102946 -0.515938,0.210055 -0.515938,0.23802 0,0.0634 0.08746,0.214563 1.127288,1.948233 0.53992,0.900192 0.848918,1.468607 0.86299,1.5875 0.01206,0.101865 0.05784,0.506677 0.101744,0.899583 0.0439,0.392907 0.126732,1.131094 0.184064,1.640417 0.05733,0.509323 0.104446,1.023276 0.1047,1.142118 2e-4,0.118842 0.01634,0.231952 0.03574,0.251354 0.05108,0.05108 7.386548,0.04188 7.467308,-0.0094 z"
       id="path4899" />
  </g>
</svg>
