<?xml version="1.0" encoding="UTF-8" standalone="no"?>
<svg
   xmlns:dc="http://purl.org/dc/elements/1.1/"
   xmlns:cc="http://creativecommons.org/ns#"
   xmlns:rdf="http://www.w3.org/1999/02/22-rdf-syntax-ns#"
   xmlns:svg="http://www.w3.org/2000/svg"
   xmlns="http://www.w3.org/2000/svg"
   xmlns:sodipodi="http://sodipodi.sourceforge.net/DTD/sodipodi-0.dtd"
   xmlns:inkscape="http://www.inkscape.org/namespaces/inkscape"
   width="13.229167mm"
   height="13.229167mm"
   viewBox="0 0 13.229169 13.229168"
   version="1.1"
   id="svg8"
   sodipodi:docname="VCS_resized_291.svg"
   inkscape:version="1.0.2-2 (e86c870879, 2021-01-15)">
  <defs
     id="defs2" />
  <sodipodi:namedview
     id="base"
     pagecolor="#ffffff"
     bordercolor="#666666"
     borderopacity="1.0"
     inkscape:pageopacity="0.0"
     inkscape:pageshadow="2"
     inkscape:zoom="4"
     inkscape:cx="12.155935"
     inkscape:cy="39.474798"
     inkscape:document-units="mm"
     inkscape:current-layer="layer1"
     inkscape:document-rotation="0"
     showgrid="false"
     inkscape:window-width="958"
     inkscape:window-height="1008"
     inkscape:window-x="1913"
     inkscape:window-y="0"
     inkscape:window-maximized="0" />
  <metadata
     id="metadata5">
    <rdf:RDF>
      <cc:Work
         rdf:about="">
        <dc:format>image/svg+xml</dc:format>
        <dc:type
           rdf:resource="http://purl.org/dc/dcmitype/StillImage" />
        <dc:title></dc:title>
      </cc:Work>
    </rdf:RDF>
  </metadata>
  <g
     inkscape:label="Ebene 1"
     inkscape:groupmode="layer"
     id="layer1"
     transform="translate(-92.011505,18.867592)">
    <path
       style="fill:#000000;stroke-width:0.264582"
       d="m 96.012891,-6.154671 c -0.191614,-0.025956 -0.192532,-0.02984 -0.284928,-1.207304 -0.0799,-1.0182278 -0.207646,-2.4552274 -0.241074,-2.711854 -0.03188,-0.244731 -0.169488,-0.378872 -2.525472,-2.461795 -0.486214,-0.429861 -0.884024,-0.803303 -0.884024,-0.829872 0,-0.02657 0.04167,-0.06149 0.0926,-0.0776 0.07599,-0.02404 1.842562,-0.396184 3.823228,-0.805407 0.218282,-0.0451 0.429398,-0.113124 0.469146,-0.151167 0.03975,-0.03804 0.515998,-0.946626 1.058334,-2.019072 0.900986,-1.781668 0.997476,-1.949903 1.118354,-1.949903 0.12084,0 0.218074,0.169217 1.123269,1.954816 0.545036,1.075148 1.021286,1.983366 1.058336,2.018261 0.037,0.0349 0.41264,0.136282 0.83465,0.225303 0.42201,0.08902 1.05304,0.223754 1.40229,0.299406 0.34925,0.07565 0.92943,0.196548 1.28929,0.268656 0.72047,0.144368 0.87801,0.203559 0.81538,0.306367 -0.0225,0.03693 -0.26713,0.266431 -0.54362,0.509994 -0.27649,0.243562 -0.6578,0.587258 -0.84735,0.763769 -0.18955,0.17651 -0.70419,0.64653 -1.14364,1.044489 l -0.799,0.723561 -0.0596,0.5728972 c -0.0328,0.3150932 -0.0961,1.0134288 -0.14056,1.5518558 -0.0971,1.1744876 -0.18009,1.9178716 -0.21837,1.9562236 -0.0334,0.033446 -5.157187,0.050888 -5.397219,0.01838 z m 5.152919,-0.294492 c 0.0289,-0.03638 0.0677,-0.256646 0.086,-0.489478 0.15263,-1.9350392 0.31175,-3.442665 0.36927,-3.498915 0.0594,-0.05809 2.99985,-2.717123 3.04894,-2.757144 0.051,-0.04156 -0.12915,-0.111478 -0.44267,-0.171829 -0.53519,-0.103015 -3.45052,-0.73752 -3.53,-0.768283 -0.10077,-0.039 -0.14808,-0.126385 -1.139109,-2.103934 -0.477666,-0.953161 -0.886952,-1.733021 -0.909524,-1.733021 -0.02257,0 -0.465896,0.839391 -0.985166,1.865313 -0.51927,1.025922 -0.970602,1.893679 -1.002962,1.92835 -0.05614,0.06015 -0.897482,0.250466 -3.048628,0.689613 -0.568368,0.116029 -0.978958,0.224708 -0.978958,0.259119 0,0.0326 0.322718,0.342162 0.71715,0.687917 1.051598,0.92182 2.066398,1.837405 2.23476,2.016271 0.162432,0.172567 0.133984,-0.04695 0.385932,2.9780008 0.04727,0.5675302 0.110274,1.0616402 0.14001,1.0980202 0.04185,0.051204 0.613004,0.066146 2.52819,0.066146 1.915955,0 2.485995,-0.01492 2.526745,-0.066146 z"
       id="path5571" />
  </g>
</svg>
