<?xml version="1.0" encoding="UTF-8" standalone="no"?>
<svg
   xmlns:dc="http://purl.org/dc/elements/1.1/"
   xmlns:cc="http://creativecommons.org/ns#"
   xmlns:rdf="http://www.w3.org/1999/02/22-rdf-syntax-ns#"
   xmlns:svg="http://www.w3.org/2000/svg"
   xmlns="http://www.w3.org/2000/svg"
   xmlns:sodipodi="http://sodipodi.sourceforge.net/DTD/sodipodi-0.dtd"
   xmlns:inkscape="http://www.inkscape.org/namespaces/inkscape"
   width="13.229167mm"
   height="13.229167mm"
   viewBox="0 0 13.229169 13.229168"
   version="1.1"
   id="svg8"
   sodipodi:docname="VCS_resized_156.svg"
   inkscape:version="1.0.2-2 (e86c870879, 2021-01-15)">
  <defs
     id="defs2" />
  <sodipodi:namedview
     id="base"
     pagecolor="#ffffff"
     bordercolor="#666666"
     borderopacity="1.0"
     inkscape:pageopacity="0.0"
     inkscape:pageshadow="2"
     inkscape:zoom="2.8284271"
     inkscape:cx="-1.2826922"
     inkscape:cy="44.095255"
     inkscape:document-units="mm"
     inkscape:current-layer="layer1"
     inkscape:document-rotation="0"
     showgrid="false"
     inkscape:window-width="958"
     inkscape:window-height="1008"
     inkscape:window-x="1913"
     inkscape:window-y="0"
     inkscape:window-maximized="0" />
  <metadata
     id="metadata5">
    <rdf:RDF>
      <cc:Work
         rdf:about="">
        <dc:format>image/svg+xml</dc:format>
        <dc:type
           rdf:resource="http://purl.org/dc/dcmitype/StillImage" />
        <dc:title></dc:title>
      </cc:Work>
    </rdf:RDF>
  </metadata>
  <g
     inkscape:label="Ebene 1"
     inkscape:groupmode="layer"
     id="layer1"
     transform="translate(-38.53936,-14.924742)">
    <path
       style="fill:#000000;stroke-width:0.264582"
       d="m 42.922504,27.535612 c -0.451346,-0.03667 -0.689748,-0.07904 -0.750514,-0.133393 -0.04898,-0.04381 -0.249808,-0.345296 -0.446286,-0.669974 -0.196476,-0.324677 -0.628318,-1.004978 -0.959648,-1.511777 -0.91007,-1.392032 -1.071468,-1.771755 -1.071468,-2.520837 0,-0.511282 0.0896,-0.77397 0.478772,-1.403667 0.441364,-0.714139 0.576808,-1.054182 0.57801,-1.451125 0.0012,-0.423753 -0.05862,-0.625733 -0.407984,-1.375702 -0.281262,-0.603774 -0.29695,-0.659838 -0.320294,-1.144622 -0.02228,-0.462721 -0.01216,-0.536822 0.109776,-0.803149 0.07388,-0.161368 0.236586,-0.404342 0.36158,-0.539943 0.468922,-0.50872 0.900642,-0.582506 1.713682,-0.292885 0.802502,0.285869 1.820034,0.425676 3.098112,0.425676 1.221478,0 1.949534,-0.09641 2.511054,-0.332512 0.805872,-0.338847 1.16849,-0.365605 1.591926,-0.117474 0.534656,0.313307 0.86906,0.899991 0.868126,1.523057 -6e-4,0.455246 -0.07387,0.716161 -0.359544,1.281721 -0.288592,0.571348 -0.380716,0.871351 -0.380716,1.239817 0,0.447969 0.166846,0.925572 0.482544,1.381301 0.150546,0.217323 0.34761,0.549913 0.437922,0.73909 0.151956,0.318303 0.163358,0.381455 0.152876,0.846667 -0.01332,0.591527 -0.192506,1.168517 -0.52004,1.674637 -0.369714,0.571294 -0.534154,0.834788 -1.002384,1.606196 -0.650558,1.071791 -0.88743,1.422656 -0.981872,1.454389 -0.414934,0.139419 -3.953864,0.224424 -5.18363,0.124509 z m 4.230354,-0.259679 c 0.391662,-0.03002 0.703928,-0.08026 0.770648,-0.123974 0.06169,-0.04042 0.274908,-0.34375 0.47381,-0.674059 0.198902,-0.330308 0.57601,-0.931345 0.838018,-1.335636 0.586902,-0.905617 0.957016,-1.609117 1.043506,-1.983467 0.13247,-0.573366 -0.01246,-1.139308 -0.477308,-1.863982 -0.45204,-0.704689 -0.529028,-0.923446 -0.529028,-1.503193 0,-0.561254 0.07723,-0.822265 0.477456,-1.613658 0.194802,-0.385192 0.231034,-0.508813 0.252272,-0.860741 0.02285,-0.378634 0.01192,-0.43713 -0.139094,-0.74387 -0.187022,-0.379892 -0.482972,-0.628955 -0.859762,-0.723549 -0.212702,-0.0534 -0.297436,-0.03939 -0.947956,0.156681 -1.137706,0.34292 -1.49975,0.387008 -2.95187,0.359462 -1.33984,-0.02542 -1.696778,-0.07435 -3.00876,-0.412484 -0.399146,-0.102871 -0.653132,-0.141641 -0.786314,-0.120029 -0.286908,0.04656 -0.657918,0.321346 -0.843502,0.624738 -0.152292,0.248966 -0.1618,0.295819 -0.161066,0.79375 8e-4,0.528544 10e-4,0.529826 0.27289,1.088348 0.6221,1.278398 0.630664,1.784509 0.04695,2.774569 -0.411534,0.69802 -0.497908,0.885335 -0.58864,1.276567 -0.163152,0.703495 0.01096,1.180761 0.953134,2.612808 0.296802,0.451115 0.723006,1.121155 0.947124,1.488979 0.289102,0.474478 0.44941,0.68598 0.551792,0.728007 0.335152,0.137576 3.153704,0.170641 4.665702,0.05473 z"
       id="path2540" />
  </g>
</svg>
