<?xml version="1.0" encoding="UTF-8" standalone="no"?>
<svg
   xmlns:dc="http://purl.org/dc/elements/1.1/"
   xmlns:cc="http://creativecommons.org/ns#"
   xmlns:rdf="http://www.w3.org/1999/02/22-rdf-syntax-ns#"
   xmlns:svg="http://www.w3.org/2000/svg"
   xmlns="http://www.w3.org/2000/svg"
   xmlns:sodipodi="http://sodipodi.sourceforge.net/DTD/sodipodi-0.dtd"
   xmlns:inkscape="http://www.inkscape.org/namespaces/inkscape"
   width="13.229167mm"
   height="13.229167mm"
   viewBox="0 0 13.229169 13.229168"
   version="1.1"
   id="svg8"
   sodipodi:docname="VCS_resized_229.svg"
   inkscape:version="1.0.2-2 (e86c870879, 2021-01-15)">
  <defs
     id="defs2" />
  <sodipodi:namedview
     id="base"
     pagecolor="#ffffff"
     bordercolor="#666666"
     borderopacity="1.0"
     inkscape:pageopacity="0.0"
     inkscape:pageshadow="2"
     inkscape:zoom="2.8284271"
     inkscape:cx="-1.9054818"
     inkscape:cy="48.068905"
     inkscape:document-units="mm"
     inkscape:current-layer="layer1"
     inkscape:document-rotation="0"
     showgrid="false"
     inkscape:window-width="958"
     inkscape:window-height="1008"
     inkscape:window-x="1913"
     inkscape:window-y="0"
     inkscape:window-maximized="0" />
  <metadata
     id="metadata5">
    <rdf:RDF>
      <cc:Work
         rdf:about="">
        <dc:format>image/svg+xml</dc:format>
        <dc:type
           rdf:resource="http://purl.org/dc/dcmitype/StillImage" />
        <dc:title></dc:title>
      </cc:Work>
    </rdf:RDF>
  </metadata>
  <g
     inkscape:label="Ebene 1"
     inkscape:groupmode="layer"
     id="layer1"
     transform="translate(-49.06752,-17.962271)">
    <path
       style="fill:#000000;stroke-width:0.264582"
       d="m 51.636829,30.719847 c -0.04531,-0.06468 -0.08238,-0.164176 -0.08238,-0.221093 0,-0.114811 -0.338242,-1.562659 -0.45245,-1.936716 -0.149154,-0.488515 -0.284342,-1.045956 -0.340424,-1.403729 -0.06873,-0.438481 -0.649202,-2.14415 -0.987426,-2.901486 -0.333224,-0.746143 -0.555644,-1.358228 -0.53717,-1.478264 0.01564,-0.101577 0.408178,-0.312467 2.564032,-1.377495 0.960098,-0.474306 1.201152,-0.659079 2.76264,-2.117639 0.53455,-0.499315 1.004848,-0.926888 1.045104,-0.950162 0.04026,-0.02328 0.108524,-0.02255 0.151704,0.0016 0.04318,0.02416 0.507258,0.444048 1.031282,0.933073 1.744212,1.627722 1.65471,1.564646 3.599792,2.536952 1.34146,0.670569 1.723232,0.883455 1.735436,0.967722 0.01522,0.105088 -0.09794,0.419554 -0.483794,1.344408 -0.293332,0.703094 -0.977772,2.727437 -1.065094,3.150186 -0.18971,0.918444 -0.870248,3.482104 -0.935284,3.523318 -0.03931,0.02491 -1.8382,0.04566 -3.997536,0.0461 l -3.92606,8.2e-4 z m 7.857962,-0.252809 c 0.02245,-0.04366 0.10506,-0.353219 0.183574,-0.687917 0.07851,-0.334698 0.212626,-0.853862 0.298028,-1.153698 0.0854,-0.299836 0.225532,-0.876596 0.311402,-1.281689 0.199506,-0.941188 0.71997,-2.476076 1.26084,-3.718318 0.149408,-0.343152 0.271652,-0.667692 0.271652,-0.7212 0,-0.102106 -0.04234,-0.124665 -2.233696,-1.190044 -1.188406,-0.577771 -1.462158,-0.781838 -2.960328,-2.206745 -0.501036,-0.476533 -0.870228,-0.787889 -0.934244,-0.787889 -0.06357,0 -0.41956,0.297075 -0.891394,0.743879 -0.43205,0.409134 -1.050584,0.968486 -1.37452,1.243004 -0.573706,0.486184 -0.631252,0.51976 -2.219836,1.295157 -0.896974,0.437818 -1.641828,0.807001 -1.655234,0.820406 -0.04429,0.04429 0.105774,0.465384 0.414452,1.162979 0.396544,0.896165 0.976216,2.591037 1.058678,3.095408 0.03569,0.218282 0.159414,0.742157 0.274948,1.164167 0.115534,0.42201 0.280874,1.076854 0.367424,1.455208 0.08655,0.378354 0.169828,0.729746 0.185064,0.78087 0.02614,0.0877 0.241696,0.09219 3.815038,0.07937 3.303842,-0.01184 3.792542,-0.02371 3.828152,-0.09295 z"
       id="path4563" />
  </g>
</svg>
