<?xml version="1.0" encoding="UTF-8" standalone="no"?>
<svg
   xmlns:dc="http://purl.org/dc/elements/1.1/"
   xmlns:cc="http://creativecommons.org/ns#"
   xmlns:rdf="http://www.w3.org/1999/02/22-rdf-syntax-ns#"
   xmlns:svg="http://www.w3.org/2000/svg"
   xmlns="http://www.w3.org/2000/svg"
   xmlns:sodipodi="http://sodipodi.sourceforge.net/DTD/sodipodi-0.dtd"
   xmlns:inkscape="http://www.inkscape.org/namespaces/inkscape"
   width="13.229167mm"
   height="13.229167mm"
   viewBox="0 0 13.229169 13.229168"
   version="1.1"
   id="svg8"
   sodipodi:docname="VCS_resized_243.svg"
   inkscape:version="1.0.2-2 (e86c870879, 2021-01-15)">
  <defs
     id="defs2" />
  <sodipodi:namedview
     id="base"
     pagecolor="#ffffff"
     bordercolor="#666666"
     borderopacity="1.0"
     inkscape:pageopacity="0.0"
     inkscape:pageshadow="2"
     inkscape:zoom="4"
     inkscape:cx="5.4907731"
     inkscape:cy="48.497475"
     inkscape:document-units="mm"
     inkscape:current-layer="layer1"
     inkscape:document-rotation="0"
     showgrid="false"
     inkscape:window-width="958"
     inkscape:window-height="1008"
     inkscape:window-x="1913"
     inkscape:window-y="0"
     inkscape:window-maximized="0" />
  <metadata
     id="metadata5">
    <rdf:RDF>
      <cc:Work
         rdf:about="">
        <dc:format>image/svg+xml</dc:format>
        <dc:type
           rdf:resource="http://purl.org/dc/dcmitype/StillImage" />
        <dc:title></dc:title>
      </cc:Work>
    </rdf:RDF>
  </metadata>
  <g
     inkscape:label="Ebene 1"
     inkscape:groupmode="layer"
     id="layer1"
     transform="translate(-77.597321,-11.39238)">
    <path
       style="fill:#000000;stroke-width:0.264582"
       d="m 80.089505,24.184982 c -0.02592,-0.06548 -0.07503,-0.392906 -0.10915,-0.727604 -0.03412,-0.334698 -0.120176,-0.953823 -0.191246,-1.375833 -0.07107,-0.422011 -0.165956,-1.028382 -0.210864,-1.347491 -0.07643,-0.54313 -0.10575,-0.627651 -0.458908,-1.322917 -0.207494,-0.408495 -0.51182,-0.992749 -0.676282,-1.298342 -0.691198,-1.284358 -0.849666,-1.602497 -0.826642,-1.659561 0.01336,-0.03313 0.13991,-0.105258 0.281204,-0.160291 0.141296,-0.05503 0.602182,-0.248192 1.024194,-0.429243 0.42201,-0.181051 1.124478,-0.478655 1.56104,-0.661342 l 0.79375,-0.332157 0.441328,-0.455683 c 0.24273,-0.250625 0.622016,-0.669994 0.84286,-0.931932 0.876786,-1.039936 1.559476,-1.772708 1.651548,-1.772708 0.05854,0 0.470882,0.434872 1.066236,1.124479 0.533932,0.618464 1.153486,1.314979 1.376786,1.547813 0.402648,0.419841 0.41313,0.426429 1.270705,0.798578 0.475588,0.206385 1.31361,0.563573 1.862272,0.79375 0.54866,0.230178 1.00774,0.443428 1.020178,0.47389 0.01244,0.03046 -0.09297,0.268587 -0.234226,0.529167 -0.141262,0.26058 -0.583268,1.116719 -0.982238,1.902531 l -0.725398,1.42875 -0.07751,0.641746 c -0.04263,0.35296 -0.112164,0.82921 -0.154524,1.058334 -0.04236,0.229122 -0.129138,0.809493 -0.192844,1.289712 -0.06371,0.480219 -0.139174,0.902891 -0.16771,0.939271 -0.0407,0.05189 -0.923385,0.06615 -4.094661,0.06615 h -4.04278 z m 7.920303,-0.188869 c 0.03856,-0.02449 0.10989,-0.368526 0.172638,-0.832628 0.05881,-0.434994 0.152432,-1.04093 0.20804,-1.346524 0.05561,-0.305593 0.130028,-0.805656 0.165374,-1.11125 l 0.06426,-0.555625 0.715418,-1.402291 c 0.39348,-0.771261 0.809466,-1.565584 0.924414,-1.765164 0.249146,-0.43258 0.260698,-0.413163 -0.410854,-0.690509 -0.261936,-0.108178 -0.66675,-0.277105 -0.899582,-0.375392 -0.232834,-0.09829 -0.780522,-0.327766 -1.217085,-0.509951 -0.628084,-0.26211 -0.847612,-0.381514 -1.051822,-0.572094 -0.258928,-0.241648 -1.40348,-1.525698 -2.040856,-2.289594 -0.187386,-0.224581 -0.370306,-0.419689 -0.40649,-0.433575 -0.07028,-0.02697 -0.104728,0.0094 -0.998748,1.055164 -1.042074,1.218925 -1.66083,1.862451 -1.897912,1.973894 -0.300716,0.141352 -1.35503,0.590971 -1.385776,0.590971 -0.02354,0 -0.88349,0.356014 -1.21423,0.502687 -0.08731,0.03872 -0.29567,0.130646 -0.46302,0.204278 -0.167348,0.07363 -0.30427,0.143517 -0.30427,0.155298 0,0.01178 0.233984,0.459576 0.519964,0.995099 0.28598,0.535524 0.669832,1.271336 0.853006,1.635138 0.183176,0.363802 0.350992,0.685271 0.372926,0.714375 0.02193,0.0291 0.06811,0.255323 0.10262,0.502708 0.0345,0.247385 0.130406,0.854604 0.213114,1.349375 0.08271,0.494771 0.177762,1.149615 0.211234,1.455208 0.03347,0.305594 0.072,0.609204 0.08563,0.674688 l 0.02477,0.119062 3.795762,-8e-4 c 2.08767,-4.2e-4 3.825331,-0.01959 3.861469,-0.04254 z"
       id="path4787" />
  </g>
</svg>
