<?xml version="1.0" encoding="UTF-8" standalone="no"?>
<svg
   xmlns:dc="http://purl.org/dc/elements/1.1/"
   xmlns:cc="http://creativecommons.org/ns#"
   xmlns:rdf="http://www.w3.org/1999/02/22-rdf-syntax-ns#"
   xmlns:svg="http://www.w3.org/2000/svg"
   xmlns="http://www.w3.org/2000/svg"
   xmlns:sodipodi="http://sodipodi.sourceforge.net/DTD/sodipodi-0.dtd"
   xmlns:inkscape="http://www.inkscape.org/namespaces/inkscape"
   width="13.229167mm"
   height="13.229167mm"
   viewBox="0 0 13.229167 13.229167"
   version="1.1"
   id="svg8"
   sodipodi:docname="VCS_resized_73.svg"
   inkscape:version="1.0.2-2 (e86c870879, 2021-01-15)">
  <defs
     id="defs2" />
  <sodipodi:namedview
     id="base"
     pagecolor="#ffffff"
     bordercolor="#666666"
     borderopacity="1.0"
     inkscape:pageopacity="0.0"
     inkscape:pageshadow="2"
     inkscape:zoom="2.8284271"
     inkscape:cx="14.442611"
     inkscape:cy="34.050695"
     inkscape:document-units="mm"
     inkscape:current-layer="layer1"
     inkscape:document-rotation="0"
     showgrid="false"
     inkscape:window-width="958"
     inkscape:window-height="1008"
     inkscape:window-x="1913"
     inkscape:window-y="0"
     inkscape:window-maximized="0" />
  <metadata
     id="metadata5">
    <rdf:RDF>
      <cc:Work
         rdf:about="">
        <dc:format>image/svg+xml</dc:format>
        <dc:type
           rdf:resource="http://purl.org/dc/dcmitype/StillImage" />
        <dc:title></dc:title>
      </cc:Work>
    </rdf:RDF>
  </metadata>
  <g
     inkscape:label="Ebene 1"
     inkscape:groupmode="layer"
     id="layer1"
     transform="translate(-34.378712,-17.582367)">
    <path
       style="fill:#000000;stroke-width:0.264582"
       d="m 37.646949,29.399587 c -0.393678,-0.08911 -0.778674,-0.302207 -1.067258,-0.590726 -0.299078,-0.299012 -0.389692,-0.494025 -0.42311,-0.910594 -0.04801,-0.598436 0.129732,-0.902924 1.071094,-1.834885 0.651616,-0.64511 0.844336,-0.932587 0.908832,-1.355697 0.10157,-0.666323 -0.12,-1.187889 -0.87271,-2.054322 -0.701666,-0.807676 -0.829706,-0.979576 -1.027116,-1.378939 -0.15404,-0.31163 -0.17036,-0.391207 -0.173626,-0.846667 -0.0033,-0.456598 0.01096,-0.531831 0.155144,-0.820208 0.227322,-0.454644 0.54459,-0.661459 1.014728,-0.661459 0.527348,0 0.834354,0.172044 1.445896,0.810267 1.307928,1.364989 1.335054,1.389721 1.655632,1.509486 0.359558,0.134327 0.824654,0.149458 1.14288,0.03718 0.374944,-0.132288 0.665712,-0.375807 1.16743,-0.97773 0.54509,-0.653957 0.861034,-0.951333 1.24411,-1.170989 0.693182,-0.397474 1.462358,-0.161915 1.78111,0.545463 0.104842,0.232664 0.125422,0.364807 0.125734,0.807364 4e-4,0.476575 -0.01492,0.560721 -0.15349,0.846667 -0.180956,0.373405 -0.341316,0.589612 -0.867188,1.169195 -0.754306,0.831351 -1.066082,1.47112 -0.997814,2.047536 0.06058,0.511522 0.25124,0.795921 1.071746,1.598685 0.64639,0.632413 0.781796,0.793711 0.925234,1.102138 0.148238,0.31875 0.164798,0.399773 0.140598,0.687917 -0.0516,0.614389 -0.430998,1.075586 -1.070556,1.301369 -0.327852,0.115742 -0.407734,0.122936 -1.024768,0.0923 -0.36806,-0.01827 -0.76445,-0.05566 -0.880866,-0.08307 -0.364094,-0.08574 -1.822572,-0.17865 -2.22792,-0.141918 -0.212936,0.0193 -0.751264,0.09157 -1.196284,0.160608 -1.123094,0.174233 -1.491484,0.196136 -1.867462,0.111031 z m 1.402292,-0.341471 c 1.591734,-0.263104 2.39837,-0.274407 4.10104,-0.05747 0.96749,0.123269 1.329686,0.113306 1.689152,-0.04646 0.502946,-0.223545 0.768234,-0.605362 0.770312,-1.108672 0.0016,-0.404858 -0.164194,-0.653893 -0.991494,-1.488669 -0.584814,-0.590096 -0.739124,-0.779907 -0.901566,-1.108967 -0.181354,-0.367373 -0.195326,-0.429051 -0.187138,-0.826129 0.0149,-0.722837 0.253348,-1.181913 1.153728,-2.221283 0.281654,-0.325131 0.580174,-0.733572 0.67625,-0.925258 0.153728,-0.306707 0.172008,-0.391056 0.172008,-0.79375 0,-0.395895 -0.0176,-0.480519 -0.145054,-0.697324 -0.194242,-0.330425 -0.43767,-0.475609 -0.802952,-0.478891 -0.539348,-0.0048 -0.913186,0.26074 -1.70382,1.21044 -0.664384,0.798054 -1.051476,1.07879 -1.636642,1.186963 -0.344762,0.06373 -0.741342,0.0029 -1.116914,-0.171311 -0.262892,-0.121949 -0.782894,-0.614767 -1.559242,-1.47773 -0.520664,-0.578753 -0.83688,-0.761866 -1.316836,-0.762548 -0.404828,-5.8e-4 -0.597924,0.112345 -0.798088,0.466714 -0.09945,0.176057 -0.124736,0.300271 -0.126166,0.619676 -0.0016,0.356771 0.01922,0.441632 0.194728,0.79375 0.108084,0.216848 0.342444,0.560957 0.520804,0.764686 0.954898,1.090728 1.274966,1.61328 1.386318,2.263348 0.04922,0.28736 0.04362,0.391242 -0.03661,0.678402 -0.141244,0.505587 -0.312882,0.760557 -0.90507,1.3445 -0.861504,0.84951 -1.05451,1.146272 -1.037528,1.595271 0.016,0.423275 0.177836,0.679279 0.66359,1.049782 0.401298,0.306084 0.927038,0.357902 1.937186,0.190931 z"
       id="path1210" />
  </g>
</svg>
