<?xml version="1.0" encoding="UTF-8" standalone="no"?>
<svg
   xmlns:dc="http://purl.org/dc/elements/1.1/"
   xmlns:cc="http://creativecommons.org/ns#"
   xmlns:rdf="http://www.w3.org/1999/02/22-rdf-syntax-ns#"
   xmlns:svg="http://www.w3.org/2000/svg"
   xmlns="http://www.w3.org/2000/svg"
   xmlns:sodipodi="http://sodipodi.sourceforge.net/DTD/sodipodi-0.dtd"
   xmlns:inkscape="http://www.inkscape.org/namespaces/inkscape"
   width="13.229167mm"
   height="13.229167mm"
   viewBox="0 0 13.229167 13.229167"
   version="1.1"
   id="svg8"
   sodipodi:docname="VCS_resized_14.svg"
   inkscape:version="1.0.2-2 (e86c870879, 2021-01-15)">
  <defs
     id="defs2" />
  <sodipodi:namedview
     id="base"
     pagecolor="#ffffff"
     bordercolor="#666666"
     borderopacity="1.0"
     inkscape:pageopacity="0.0"
     inkscape:pageshadow="2"
     inkscape:zoom="2.8284271"
     inkscape:cx="38.594637"
     inkscape:cy="43.089358"
     inkscape:document-units="mm"
     inkscape:current-layer="layer1"
     inkscape:document-rotation="0"
     showgrid="false"
     inkscape:window-width="958"
     inkscape:window-height="1008"
     inkscape:window-x="1913"
     inkscape:window-y="0"
     inkscape:window-maximized="0" />
  <metadata
     id="metadata5">
    <rdf:RDF>
      <cc:Work
         rdf:about="">
        <dc:format>image/svg+xml</dc:format>
        <dc:type
           rdf:resource="http://purl.org/dc/dcmitype/StillImage" />
        <dc:title></dc:title>
      </cc:Work>
    </rdf:RDF>
  </metadata>
  <g
     inkscape:label="Ebene 1"
     inkscape:groupmode="layer"
     id="layer1"
     transform="translate(-27.988489,-15.190886)">
    <path
       style="fill:#000000;stroke-width:0.264582"
       d="m 32.422787,27.085306 c -0.07075,-0.05565 -0.185514,-0.227069 -0.255042,-0.380934 -0.112506,-0.248973 -0.126008,-0.352537 -0.12271,-0.941213 0.0033,-0.592919 0.02166,-0.719032 0.176972,-1.217084 0.211792,-0.679171 0.308948,-1.462354 0.22125,-1.783531 -0.109696,-0.401735 -0.499452,-0.739419 -1.520952,-1.317747 -1.127854,-0.638541 -1.81785,-1.297077 -1.81785,-1.734968 0,-0.406714 1.290672,-0.645618 2.301874,-0.426079 1.458026,0.316546 1.930212,0.38287 2.270858,0.318964 0.274534,-0.0515 0.67794,-0.477012 1.05946,-1.117507 0.592454,-0.994612 0.906528,-1.376916 1.405724,-1.711103 0.594158,-0.397759 0.699316,-0.409119 0.863146,-0.09324 0.276788,0.533669 0.31882,1.281565 0.115052,2.047174 -0.264868,0.995183 -0.309816,1.296055 -0.294792,1.973252 0.0039,0.176526 0.04812,0.24667 0.33524,0.531986 0.192554,0.19134 0.596028,0.49225 0.96573,0.720232 1.125712,0.69419 1.614596,1.122692 1.884494,1.65174 0.16162,0.316801 0.121926,0.413869 -0.244078,0.596871 -0.299668,0.149835 -0.351676,0.158524 -0.926042,0.154713 -0.47231,-0.0031 -0.733072,-0.03534 -1.164826,-0.143887 -0.68556,-0.172349 -1.518484,-0.269612 -1.900488,-0.221926 -0.271978,0.03395 -0.308606,0.05773 -0.691586,0.449039 -0.25529,0.260839 -0.505256,0.587943 -0.677934,0.887141 -0.471524,0.81701 -0.819676,1.249799 -1.21887,1.515183 -0.50511,0.335797 -0.605868,0.367808 -0.76463,0.242926 z m 0.786158,-0.553898 c 0.20479,-0.156201 0.59866,-0.686692 0.98109,-1.321398 0.300432,-0.498619 0.780176,-1.055288 1.126838,-1.307522 0.19446,-0.141492 0.23724,-0.150139 0.740834,-0.149763 0.604194,4.8e-4 0.986578,0.05293 1.757864,0.241271 0.768462,0.187647 1.398136,0.183656 1.779614,-0.01128 0.18908,-0.09662 0.187712,-0.248975 -0.005,-0.552789 -0.20982,-0.330853 -0.491662,-0.558068 -1.438836,-1.159958 -0.822052,-0.522381 -1.436984,-1.043845 -1.535022,-1.301704 -0.128248,-0.337319 -0.03767,-1.185392 0.22543,-2.110733 0.197312,-0.693955 0.21653,-1.213995 0.0616,-1.666875 l -0.09957,-0.291042 -0.218722,0.0041 c -0.377854,0.0071 -0.91151,0.50556 -1.355278,1.265889 -0.628418,1.076702 -1.155112,1.659955 -1.51266,1.6751 -0.54991,0.02329 -1.46887,-0.09808 -2.31084,-0.305207 -0.55364,-0.136197 -1.358228,-0.127372 -1.680104,0.01843 -0.226048,0.102392 -0.251354,0.131427 -0.251354,0.288404 0,0.147721 0.05946,0.231542 0.38686,0.545371 0.212772,0.203952 0.587818,0.486965 0.833438,0.628918 0.809998,0.468131 1.395642,0.872474 1.678458,1.158847 0.25091,0.254066 0.284122,0.315252 0.331792,0.611254 0.06642,0.412404 -0.0062,1.043584 -0.190372,1.655298 -0.212086,0.704338 -0.247024,0.894769 -0.241408,1.315887 0.0069,0.514096 0.129266,0.943702 0.28584,1.003172 0.13679,0.05195 0.398378,-0.04217 0.649466,-0.23368 z"
       id="path216" />
  </g>
</svg>
