<?xml version="1.0" encoding="UTF-8" standalone="no"?>
<svg
   xmlns:dc="http://purl.org/dc/elements/1.1/"
   xmlns:cc="http://creativecommons.org/ns#"
   xmlns:rdf="http://www.w3.org/1999/02/22-rdf-syntax-ns#"
   xmlns:svg="http://www.w3.org/2000/svg"
   xmlns="http://www.w3.org/2000/svg"
   xmlns:sodipodi="http://sodipodi.sourceforge.net/DTD/sodipodi-0.dtd"
   xmlns:inkscape="http://www.inkscape.org/namespaces/inkscape"
   width="13.229167mm"
   height="13.229167mm"
   viewBox="0 0 13.229169 13.229168"
   version="1.1"
   id="svg8"
   sodipodi:docname="VCS_resized_201.svg"
   inkscape:version="1.0.2-2 (e86c870879, 2021-01-15)">
  <defs
     id="defs2" />
  <sodipodi:namedview
     id="base"
     pagecolor="#ffffff"
     bordercolor="#666666"
     borderopacity="1.0"
     inkscape:pageopacity="0.0"
     inkscape:pageshadow="2"
     inkscape:zoom="2.8284271"
     inkscape:cx="-10.661634"
     inkscape:cy="28.092783"
     inkscape:document-units="mm"
     inkscape:current-layer="layer1"
     inkscape:document-rotation="0"
     showgrid="false"
     inkscape:window-width="958"
     inkscape:window-height="1008"
     inkscape:window-x="1913"
     inkscape:window-y="0"
     inkscape:window-maximized="0" />
  <metadata
     id="metadata5">
    <rdf:RDF>
      <cc:Work
         rdf:about="">
        <dc:format>image/svg+xml</dc:format>
        <dc:type
           rdf:resource="http://purl.org/dc/dcmitype/StillImage" />
        <dc:title></dc:title>
      </cc:Work>
    </rdf:RDF>
  </metadata>
  <g
     inkscape:label="Ebene 1"
     inkscape:groupmode="layer"
     id="layer1"
     transform="translate(-51.384251,-23.24762)">
    <path
       style="fill:#000000;stroke-width:0.264582"
       d="m 54.441587,35.972845 c -0.09623,-0.02202 -0.107766,-0.04401 -0.548654,-1.046023 -0.166476,-0.378355 -0.395118,-0.872279 -0.50809,-1.09761 -0.604732,-1.206178 -0.69271,-1.597303 -0.711292,-3.162182 -0.01594,-1.342183 -0.02512,-1.402465 -0.358896,-2.354792 -0.236556,-0.674949 -0.342906,-1.289452 -0.256124,-1.479919 0.06889,-0.151194 0.894354,-0.709667 1.571466,-1.063185 0.232834,-0.121561 0.732896,-0.334481 1.11125,-0.473156 0.663356,-0.243132 1.772754,-0.771897 2.738564,-1.305261 0.254732,-0.140674 0.510404,-0.255771 0.568162,-0.255771 0.11858,0 1.015386,0.444581 1.763548,0.874257 0.27416,0.157454 0.805224,0.397161 1.180142,0.532682 0.805576,0.291192 0.903576,0.338381 1.76646,0.85059 0.887446,0.526789 1.154358,0.727677 1.198032,0.901683 0.05693,0.226833 -0.07807,0.883679 -0.312518,1.520547 l -0.21552,0.58545 -0.03799,1.402292 c -0.04463,1.64735 -0.110962,1.989395 -0.580142,2.991552 -0.09493,0.202761 -0.384264,0.83286 -0.642972,1.40022 -0.25871,0.56736 -0.506236,1.067423 -0.550062,1.11125 -0.06928,0.06929 -0.537026,0.0802 -3.583526,0.0836 -1.927112,0.0022 -3.54344,-0.0051 -3.591836,-0.01622 z m 7.002794,-0.318419 c 0.120228,-0.141842 1.280402,-2.735534 1.437948,-3.214688 0.170036,-0.517142 0.236188,-1.196738 0.207046,-2.127068 -0.02521,-0.8047 0.05106,-1.278504 0.329694,-2.048243 0.09605,-0.265333 0.203274,-0.67139 0.238282,-0.902349 l 0.06365,-0.419926 -0.17717,-0.145439 c -0.42646,-0.350079 -1.660532,-1.022138 -2.283216,-1.243408 -0.624246,-0.221824 -1.17879,-0.483409 -2.080378,-0.981337 -0.46897,-0.259003 -0.937588,-0.484694 -1.041374,-0.501536 -0.156432,-0.02539 -0.26399,0.01023 -0.628994,0.208304 -0.94606,0.513386 -1.98594,1.009474 -2.69764,1.286946 -0.837644,0.326572 -1.083472,0.444148 -1.765502,0.844405 -0.529168,0.31055 -0.766108,0.505563 -0.766108,0.630548 0,0.195081 0.232806,1.137756 0.34998,1.417133 0.26324,0.627638 0.295708,0.846628 0.339326,2.288637 0.05105,1.687724 0.04843,1.676994 0.781028,3.201458 0.202802,0.422011 0.45962,0.981604 0.570706,1.243542 0.111088,0.261937 0.227126,0.493745 0.257864,0.515127 0.03074,0.02138 1.570244,0.03924 3.421124,0.03969 3.14039,7.6e-4 3.37048,-0.0054 3.44373,-0.09179 z"
       id="path4115" />
  </g>
</svg>
