<?xml version="1.0" encoding="UTF-8" standalone="no"?>
<svg
   xmlns:dc="http://purl.org/dc/elements/1.1/"
   xmlns:cc="http://creativecommons.org/ns#"
   xmlns:rdf="http://www.w3.org/1999/02/22-rdf-syntax-ns#"
   xmlns:svg="http://www.w3.org/2000/svg"
   xmlns="http://www.w3.org/2000/svg"
   xmlns:sodipodi="http://sodipodi.sourceforge.net/DTD/sodipodi-0.dtd"
   xmlns:inkscape="http://www.inkscape.org/namespaces/inkscape"
   width="13.229167mm"
   height="13.229167mm"
   viewBox="0 0 13.229169 13.229168"
   version="1.1"
   id="svg8"
   sodipodi:docname="VCS_resized_299.svg"
   inkscape:version="1.0.2-2 (e86c870879, 2021-01-15)">
  <defs
     id="defs2" />
  <sodipodi:namedview
     id="base"
     pagecolor="#ffffff"
     bordercolor="#666666"
     borderopacity="1.0"
     inkscape:pageopacity="0.0"
     inkscape:pageshadow="2"
     inkscape:zoom="4"
     inkscape:cx="21.979903"
     inkscape:cy="62.866045"
     inkscape:document-units="mm"
     inkscape:current-layer="layer1"
     inkscape:document-rotation="0"
     showgrid="false"
     inkscape:window-width="958"
     inkscape:window-height="1008"
     inkscape:window-x="1913"
     inkscape:window-y="0"
     inkscape:window-maximized="0" />
  <metadata
     id="metadata5">
    <rdf:RDF>
      <cc:Work
         rdf:about="">
        <dc:format>image/svg+xml</dc:format>
        <dc:type
           rdf:resource="http://purl.org/dc/dcmitype/StillImage" />
        <dc:title></dc:title>
      </cc:Work>
    </rdf:RDF>
  </metadata>
  <g
     inkscape:label="Ebene 1"
     inkscape:groupmode="layer"
     id="layer1"
     transform="translate(-89.412247,25.056528)">
    <path
       style="fill:#000000;stroke-width:0.264582"
       d="m 94.893777,-12.468982 c -0.407458,-0.05227 -0.84799,-0.09742 -0.978958,-0.100333 -0.415184,-0.0092 -0.362258,0.193749 -0.635664,-2.437837 -0.06199,-0.596636 -0.125648,-1.172149 -0.141468,-1.278918 -0.03242,-0.218785 0.04673,-0.148973 -1.789328,-1.578267 -1.574328,-1.22555 -1.825624,-1.432713 -1.825624,-1.505009 0,-0.0709 0.724896,-0.247508 3.280834,-0.799334 0.334698,-0.07226 0.727604,-0.161345 0.873124,-0.197964 l 0.264584,-0.06658 0.265046,-0.52811 c 0.145774,-0.290461 0.41096,-0.837673 0.589298,-1.216027 0.964432,-2.046087 1.09485,-2.300372 1.196324,-2.332578 0.05901,-0.01873 0.134592,-0.002 0.17415,0.03849 0.03844,0.03937 0.47976,0.940741 0.980709,2.003043 0.50095,1.062301 0.93714,1.958567 0.96931,1.991701 0.0552,0.05684 0.34705,0.127636 2.810156,0.681662 1.32143,0.297226 1.624,0.387139 1.60372,0.476559 -0.009,0.03933 -0.67106,0.587237 -1.47143,1.217572 -0.80036,0.630334 -1.591556,1.254182 -1.758206,1.386328 -0.16666,0.132146 -0.31414,0.278674 -0.32775,0.325617 -0.0136,0.04694 -0.0505,0.323477 -0.082,0.614519 -0.0315,0.291042 -0.0906,0.826823 -0.13145,1.190625 -0.0408,0.363802 -0.10369,0.941578 -0.13965,1.283946 -0.036,0.342368 -0.0913,0.642449 -0.12288,0.666846 -0.0739,0.05701 -2.187871,0.276076 -2.571013,0.26642 -0.160072,-0.004 -0.624416,-0.0501 -1.031874,-0.102375 z m 2.566237,-0.289362 c 0.42188,-0.04624 0.7826,-0.100836 0.8016,-0.121332 0.0338,-0.03643 0.14192,-0.856638 0.25962,-1.968726 0.0324,-0.305594 0.092,-0.817563 0.13262,-1.137709 0.0842,-0.6642 0.0344,-0.594793 0.92305,-1.285447 1.274936,-0.990853 2.434166,-1.929497 2.434166,-1.970986 0,-0.0538 -0.21152,-0.112859 -0.84667,-0.236419 -0.24739,-0.04812 -0.64029,-0.135318 -0.87313,-0.193761 -0.23283,-0.05844 -0.838096,-0.19812 -1.345026,-0.310394 -0.60628,-0.134273 -0.95404,-0.236805 -1.01619,-0.299604 -0.052,-0.05251 -0.24815,-0.428847 -0.43597,-0.836305 -0.817745,-1.77401 -1.391833,-2.957384 -1.442979,-2.974432 -0.03033,-0.01011 -0.17024,0.226375 -0.310908,0.525524 -0.367548,0.781633 -0.776804,1.64344 -1.21623,2.561129 l -0.383138,0.800138 -0.602484,0.137167 c -0.736986,0.167789 -2.155024,0.479101 -2.692694,0.591145 -0.576228,0.120081 -0.79375,0.183466 -0.79375,0.231297 0,0.02325 0.351236,0.313228 0.780522,0.644404 0.429286,0.331177 1.176884,0.917679 1.66133,1.303339 l 0.88081,0.7012 0.03603,0.385378 c 0.01982,0.211957 0.08308,0.802096 0.14059,1.311419 0.05751,0.509323 0.128104,1.163945 0.156878,1.454715 0.02877,0.29077 0.06921,0.544795 0.08985,0.564499 0.02064,0.0197 0.43044,0.07473 0.91066,0.122289 0.480218,0.04755 0.896936,0.0969 0.92604,0.109665 0.08429,0.03696 0.991688,-0.01682 1.825403,-0.108193 z"
       id="path5699" />
  </g>
</svg>
