<?xml version="1.0" encoding="UTF-8" standalone="no"?>
<svg
   xmlns:dc="http://purl.org/dc/elements/1.1/"
   xmlns:cc="http://creativecommons.org/ns#"
   xmlns:rdf="http://www.w3.org/1999/02/22-rdf-syntax-ns#"
   xmlns:svg="http://www.w3.org/2000/svg"
   xmlns="http://www.w3.org/2000/svg"
   xmlns:sodipodi="http://sodipodi.sourceforge.net/DTD/sodipodi-0.dtd"
   xmlns:inkscape="http://www.inkscape.org/namespaces/inkscape"
   width="13.229167mm"
   height="13.229167mm"
   viewBox="0 0 13.229167 13.229167"
   version="1.1"
   id="svg8"
   sodipodi:docname="VCS_resized_27.svg"
   inkscape:version="1.0.2-2 (e86c870879, 2021-01-15)">
  <defs
     id="defs2" />
  <sodipodi:namedview
     id="base"
     pagecolor="#ffffff"
     bordercolor="#666666"
     borderopacity="1.0"
     inkscape:pageopacity="0.0"
     inkscape:pageshadow="2"
     inkscape:zoom="2.8284271"
     inkscape:cx="13.136456"
     inkscape:cy="45.98982"
     inkscape:document-units="mm"
     inkscape:current-layer="layer1"
     inkscape:document-rotation="0"
     showgrid="false"
     inkscape:window-width="958"
     inkscape:window-height="1008"
     inkscape:window-x="1913"
     inkscape:window-y="0"
     inkscape:window-maximized="0" />
  <metadata
     id="metadata5">
    <rdf:RDF>
      <cc:Work
         rdf:about="">
        <dc:format>image/svg+xml</dc:format>
        <dc:type
           rdf:resource="http://purl.org/dc/dcmitype/StillImage" />
        <dc:title></dc:title>
      </cc:Work>
    </rdf:RDF>
  </metadata>
  <g
     inkscape:label="Ebene 1"
     inkscape:groupmode="layer"
     id="layer1"
     transform="translate(-34.7243,-14.423472)">
    <path
       style="fill:#000000;stroke-width:0.264582"
       d="m 38.3391,26.020333 c -0.186298,-0.10848 -0.372374,-0.578513 -0.397988,-1.00533 -0.03121,-0.520114 0.06586,-0.853538 0.47055,-1.616155 0.290956,-0.548295 0.523366,-1.229657 0.523366,-1.53437 0,-0.06701 -0.04907,-0.252987 -0.10904,-0.413277 -0.13835,-0.369772 -0.456844,-0.688134 -1.287164,-1.28663 -1.058548,-0.763003 -1.393774,-1.170397 -1.447116,-1.758654 -0.02361,-0.260392 -0.01126,-0.314978 0.09848,-0.435539 0.180218,-0.197982 0.628192,-0.328593 1.110336,-0.323728 0.45701,0.0046 0.788708,0.09899 1.3726,0.390566 0.607758,0.303489 1.032302,0.464427 1.455984,0.551941 0.782882,0.161709 1.121776,-0.03198 1.898402,-1.084978 0.75728,-1.026773 1.087386,-1.302441 1.74122,-1.454075 0.369702,-0.08574 0.52724,-0.05935 0.674656,0.11301 0.229868,0.268768 0.355944,0.957325 0.259952,1.419716 -0.03306,0.159226 -0.217092,0.59388 -0.40897,0.965898 -0.410902,0.796668 -0.542964,1.193642 -0.543516,1.633803 -8e-4,0.57057 0.291156,0.925146 1.401888,1.703068 0.97484,0.682748 1.528136,1.432116 1.432762,1.940497 -0.06009,0.320284 -0.491366,0.5604 -1.058642,0.589397 -0.4552,0.02327 -0.728074,-0.04925 -1.62705,-0.432416 -1.09107,-0.465039 -1.732088,-0.559927 -2.203534,-0.326182 -0.345208,0.171157 -0.749452,0.559905 -1.15073,1.106619 -0.611326,0.832893 -0.990384,1.14069 -1.546974,1.256149 -0.344598,0.07148 -0.537522,0.07168 -0.659468,6.8e-4 z m 0.933942,-0.340101 c 0.301922,-0.143272 0.553932,-0.393407 1.043432,-1.03567 0.549262,-0.720675 0.834434,-0.987646 1.30509,-1.221798 0.312006,-0.155223 0.35609,-0.163091 0.740834,-0.132231 0.491558,0.03943 0.971094,0.172577 1.559412,0.432991 0.856344,0.379052 0.989118,0.416527 1.46905,0.414626 0.480164,-0.0019 0.742894,-0.08892 0.845098,-0.279886 0.220618,-0.412228 -0.241804,-1.055523 -1.302632,-1.812153 -0.672534,-0.479681 -1.12382,-0.904914 -1.327544,-1.250907 -0.124926,-0.212165 -0.132422,-0.261205 -0.10147,-0.663885 0.04067,-0.529062 0.219906,-1.075631 0.52915,-1.613589 0.364384,-0.633879 0.479134,-1.000894 0.440912,-1.410206 -0.06754,-0.723312 -0.342222,-0.908025 -1.011276,-0.680056 -0.317922,0.108327 -0.757088,0.530931 -1.133064,1.090333 -0.419426,0.624049 -0.863624,1.071224 -1.24415,1.252485 -0.311384,0.148326 -0.342624,0.152879 -0.733712,0.106932 -0.512698,-0.06023 -0.895554,-0.18928 -1.746398,-0.588639 -0.794052,-0.372704 -1.1859,-0.459823 -1.638678,-0.364325 -0.580734,0.122486 -0.732608,0.391906 -0.494854,0.877858 0.162712,0.332573 0.473846,0.627532 1.219244,1.15586 0.628046,0.44515 1.183612,0.979397 1.342566,1.291046 0.198124,0.388446 0.199324,0.616173 0.0073,1.389232 -0.03253,0.130968 -0.184808,0.47625 -0.3384,0.767291 -0.464726,0.880614 -0.528014,1.078837 -0.495128,1.550796 0.03205,0.460066 0.105752,0.662481 0.270196,0.742105 0.169956,0.08229 0.60416,0.07235 0.794998,-0.01821 z"
       id="path424" />
  </g>
</svg>
