<?xml version="1.0" encoding="UTF-8" standalone="no"?>
<svg
   xmlns:dc="http://purl.org/dc/elements/1.1/"
   xmlns:cc="http://creativecommons.org/ns#"
   xmlns:rdf="http://www.w3.org/1999/02/22-rdf-syntax-ns#"
   xmlns:svg="http://www.w3.org/2000/svg"
   xmlns="http://www.w3.org/2000/svg"
   xmlns:sodipodi="http://sodipodi.sourceforge.net/DTD/sodipodi-0.dtd"
   xmlns:inkscape="http://www.inkscape.org/namespaces/inkscape"
   width="13.229167mm"
   height="13.229167mm"
   viewBox="0 0 13.229169 13.229168"
   version="1.1"
   id="svg8"
   sodipodi:docname="VCS_resized_160.svg"
   inkscape:version="1.0.2-2 (e86c870879, 2021-01-15)">
  <defs
     id="defs2" />
  <sodipodi:namedview
     id="base"
     pagecolor="#ffffff"
     bordercolor="#666666"
     borderopacity="1.0"
     inkscape:pageopacity="0.0"
     inkscape:pageshadow="2"
     inkscape:zoom="2.8284271"
     inkscape:cx="4.3150024"
     inkscape:cy="64.838972"
     inkscape:document-units="mm"
     inkscape:current-layer="layer1"
     inkscape:document-rotation="0"
     showgrid="false"
     inkscape:window-width="958"
     inkscape:window-height="1008"
     inkscape:window-x="1913"
     inkscape:window-y="0"
     inkscape:window-maximized="0" />
  <metadata
     id="metadata5">
    <rdf:RDF>
      <cc:Work
         rdf:about="">
        <dc:format>image/svg+xml</dc:format>
        <dc:type
           rdf:resource="http://purl.org/dc/dcmitype/StillImage" />
        <dc:title></dc:title>
      </cc:Work>
    </rdf:RDF>
  </metadata>
  <g
     inkscape:label="Ebene 1"
     inkscape:groupmode="layer"
     id="layer1"
     transform="translate(-37.058304,-9.4363003)">
    <path
       style="fill:#000000;stroke-width:0.264582"
       d="m 41.227662,21.991567 -0.595502,-0.05172 -0.670438,-1.117281 c -0.36874,-0.614505 -0.805586,-1.319688 -0.970766,-1.567073 -0.616154,-0.922794 -0.787658,-1.364602 -0.797746,-2.055056 -0.0078,-0.535905 0.06325,-0.782189 0.399594,-1.384527 0.414322,-0.741991 0.460928,-0.843012 0.534042,-1.157535 0.09992,-0.429845 0.025,-0.797844 -0.326766,-1.605031 -0.305086,-0.700073 -0.306578,-0.706036 -0.308618,-1.232643 -0.0018,-0.484364 0.01066,-0.552105 0.148132,-0.800092 0.286466,-0.516779 0.748064,-0.880781 1.199192,-0.94565 0.237948,-0.03422 0.405104,-0.0067 0.9525,0.156612 0.623968,0.186191 1.824962,0.28438 3.232438,0.264273 1.390468,-0.01986 1.905694,-0.08036 2.50902,-0.294581 0.174626,-0.062 0.46551,-0.12505 0.646412,-0.140102 0.282772,-0.02353 0.369642,-0.0074 0.619264,0.11469 0.339088,0.1659 0.685332,0.52956 0.89074,0.935542 0.253218,0.500473 0.185158,1.145284 -0.200534,1.899933 -0.332978,0.651509 -0.417062,1.153743 -0.286316,1.710182 0.07738,0.329304 0.113944,0.403899 0.495558,1.010924 0.455044,0.723828 0.542252,1.168812 0.379326,1.935561 -0.101062,0.475613 -0.263642,0.818658 -0.752372,1.5875 -0.23126,0.363802 -0.595174,0.959114 -0.8087,1.322917 -0.663554,1.130555 -0.792252,1.313338 -0.947746,1.346043 -0.604534,0.12715 -4.13822,0.171557 -5.340714,0.06712 z m 4.722998,-0.252604 c 0.324894,-0.03614 0.504846,-0.08182 0.566224,-0.143742 0.04948,-0.04992 0.368286,-0.555116 0.708452,-1.122647 0.340162,-0.567531 0.713932,-1.17475 0.830598,-1.349375 0.116664,-0.174625 0.331252,-0.554338 0.47686,-0.843807 0.247294,-0.491622 0.266412,-0.558247 0.290092,-1.010953 0.03168,-0.605735 -0.02951,-0.802725 -0.492288,-1.584823 -0.40573,-0.685683 -0.461442,-0.861867 -0.453402,-1.433793 0.0069,-0.487191 0.105924,-0.880251 0.318844,-1.264957 0.375816,-0.679026 0.4693,-1.266628 0.271002,-1.703404 -0.136126,-0.299834 -0.491764,-0.675382 -0.764692,-0.807505 -0.26054,-0.126125 -0.465402,-0.133132 -0.905022,-0.03095 -1.271784,0.295592 -1.38524,0.307029 -3.01625,0.304051 -1.466846,-0.0027 -2.13775,-0.0592 -3.042708,-0.256358 -0.401516,-0.08747 -0.688096,-0.122248 -0.842382,-0.102219 -0.650654,0.08447 -1.164762,0.722395 -1.16729,1.448421 -0.001,0.291583 0.03866,0.426405 0.314342,1.068242 0.237906,0.55388 0.331794,0.84721 0.381736,1.192624 0.06264,0.433263 0.05968,0.477163 -0.05476,0.8103 -0.06655,0.19372 -0.236828,0.557751 -0.378402,0.808957 -0.336852,0.597701 -0.396912,0.748484 -0.47729,1.19825 -0.117994,0.66026 0.0786,1.210675 0.847614,2.373159 0.197654,0.298781 0.603996,0.951657 0.902984,1.450838 0.30635,0.511472 0.591816,0.928828 0.654052,0.956234 0.317242,0.1397 3.889002,0.170551 5.031686,0.04346 z"
       id="path2604" />
  </g>
</svg>
