<?xml version="1.0" encoding="UTF-8" standalone="no"?>
<svg
   xmlns:dc="http://purl.org/dc/elements/1.1/"
   xmlns:cc="http://creativecommons.org/ns#"
   xmlns:rdf="http://www.w3.org/1999/02/22-rdf-syntax-ns#"
   xmlns:svg="http://www.w3.org/2000/svg"
   xmlns="http://www.w3.org/2000/svg"
   xmlns:sodipodi="http://sodipodi.sourceforge.net/DTD/sodipodi-0.dtd"
   xmlns:inkscape="http://www.inkscape.org/namespaces/inkscape"
   width="13.229167mm"
   height="13.229167mm"
   viewBox="0 0 13.229167 13.229167"
   version="1.1"
   id="svg8"
   sodipodi:docname="VCS_resized_8.svg"
   inkscape:version="1.0.2-2 (e86c870879, 2021-01-15)">
  <defs
     id="defs2" />
  <sodipodi:namedview
     id="base"
     pagecolor="#ffffff"
     bordercolor="#666666"
     borderopacity="1.0"
     inkscape:pageopacity="0.0"
     inkscape:pageshadow="2"
     inkscape:zoom="2.8284271"
     inkscape:cx="26.536889"
     inkscape:cy="65.538488"
     inkscape:document-units="mm"
     inkscape:current-layer="layer1"
     inkscape:document-rotation="0"
     showgrid="false"
     inkscape:window-width="958"
     inkscape:window-height="1008"
     inkscape:window-x="1913"
     inkscape:window-y="0"
     inkscape:window-maximized="0" />
  <metadata
     id="metadata5">
    <rdf:RDF>
      <cc:Work
         rdf:about="">
        <dc:format>image/svg+xml</dc:format>
        <dc:type
           rdf:resource="http://purl.org/dc/dcmitype/StillImage" />
        <dc:title></dc:title>
      </cc:Work>
    </rdf:RDF>
  </metadata>
  <g
     inkscape:label="Ebene 1"
     inkscape:groupmode="layer"
     id="layer1"
     transform="translate(-31.17877,-9.2512207)">
    <path
       style="fill:#000000;stroke-width:0.264582"
       d="m 35.950688,21.289611 c -0.367976,-0.429766 -0.482504,-1.426924 -0.28658,-2.495184 0.113636,-0.619602 0.159538,-1.605258 0.08606,-1.847966 -0.08886,-0.293498 -0.489316,-0.608081 -1.379568,-1.083732 -1.49734,-0.800009 -2.32979,-1.481655 -2.222454,-1.819841 0.03218,-0.101389 0.37982,-0.264567 0.795716,-0.373498 0.259468,-0.06796 1.400792,-0.0702 1.905,-0.0037 0.715534,0.09431 1.689234,0.124755 1.888366,0.05904 0.282422,-0.09321 0.651422,-0.569038 1.112234,-1.43424 0.437052,-0.820595 0.815564,-1.296154 1.374234,-1.726586 0.436218,-0.336085 0.489382,-0.318732 0.670088,0.218717 0.227354,0.676195 0.24349,0.952972 0.110388,1.89343 -0.07027,0.49653 -0.12117,1.11315 -0.120816,1.46368 l 6e-4,0.605699 0.309192,0.280986 c 0.170056,0.154542 0.6445,0.475254 1.054322,0.712694 0.409824,0.237439 0.932674,0.564712 1.161894,0.727273 0.44575,0.316125 1.038444,0.952211 1.038444,1.11447 0,0.231814 -0.73631,0.474823 -1.44418,0.476633 -0.197664,5.2e-4 -0.673914,-0.03743 -1.058334,-0.0843 -0.439888,-0.05363 -0.948168,-0.07745 -1.371366,-0.06427 -0.62621,0.01951 -0.682168,0.02991 -0.814222,0.151363 -0.25063,0.230504 -0.67798,0.851828 -1.1088,1.612081 -0.32733,0.577626 -0.504288,0.82543 -0.803258,1.124832 -0.349138,0.349646 -0.665406,0.594252 -0.769004,0.594762 -0.02211,1.06e-4 -0.0797,-0.04593 -0.127968,-0.102302 z m 0.549124,-0.49414 c 0.351598,-0.270036 0.588648,-0.613158 1.232916,-1.784611 0.19139,-0.348001 0.706948,-1.003623 0.91971,-1.169576 0.112722,-0.08792 0.257186,-0.128409 0.555626,-0.155724 0.46175,-0.04226 1.24991,-0.01815 1.752674,0.05361 0.703054,0.100356 1.155608,0.116799 1.46417,0.0532 0.252874,-0.05212 0.558776,-0.165572 0.643168,-0.238535 0.05077,-0.04389 -0.18059,-0.360572 -0.425034,-0.581791 -0.301276,-0.272651 -0.714548,-0.546849 -1.614936,-1.071482 -0.313542,-0.182692 -0.739116,-0.471983 -0.945718,-0.642868 -0.362048,-0.299458 -0.37687,-0.320946 -0.409644,-0.593873 -0.0623,-0.518828 -0.03604,-1.19006 0.07036,-1.798129 0.134562,-0.769023 0.134774,-1.214508 8e-4,-1.641242 -0.156634,-0.498865 -0.171656,-0.514337 -0.386872,-0.398435 -0.411054,0.221367 -0.898674,0.825469 -1.310192,1.623174 -0.253558,0.491506 -0.634172,1.048934 -0.892376,1.30693 -0.188576,0.188423 -0.25994,0.224564 -0.470204,0.238125 -0.332314,0.02143 -1.425712,-0.03515 -2.299498,-0.119006 -0.751864,-0.07215 -1.263686,-0.0309 -1.65735,0.133586 -0.25489,0.106499 -0.23066,0.229787 0.11074,0.563487 0.294484,0.287843 0.691248,0.54278 1.78267,1.14544 0.650338,0.359104 1.150758,0.723893 1.294974,0.943994 0.155004,0.236568 0.161516,1.177922 0.01408,2.035304 -0.142318,0.82761 -0.14919,1.430246 -0.02138,1.875294 0.05008,0.17438 0.101444,0.334914 0.11415,0.356742 0.05125,0.08805 0.267344,0.02754 0.477178,-0.133618 z"
       id="path120" />
  </g>
</svg>
