<?xml version="1.0" encoding="UTF-8" standalone="no"?>
<svg
   xmlns:dc="http://purl.org/dc/elements/1.1/"
   xmlns:cc="http://creativecommons.org/ns#"
   xmlns:rdf="http://www.w3.org/1999/02/22-rdf-syntax-ns#"
   xmlns:svg="http://www.w3.org/2000/svg"
   xmlns="http://www.w3.org/2000/svg"
   xmlns:sodipodi="http://sodipodi.sourceforge.net/DTD/sodipodi-0.dtd"
   xmlns:inkscape="http://www.inkscape.org/namespaces/inkscape"
   width="13.229167mm"
   height="13.229167mm"
   viewBox="0 0 13.229169 13.229168"
   version="1.1"
   id="svg8"
   sodipodi:docname="VCS_resized_269.svg"
   inkscape:version="1.0.2-2 (e86c870879, 2021-01-15)">
  <defs
     id="defs2" />
  <sodipodi:namedview
     id="base"
     pagecolor="#ffffff"
     bordercolor="#666666"
     borderopacity="1.0"
     inkscape:pageopacity="0.0"
     inkscape:pageshadow="2"
     inkscape:zoom="4"
     inkscape:cx="22.564737"
     inkscape:cy="29.577938"
     inkscape:document-units="mm"
     inkscape:current-layer="layer1"
     inkscape:document-rotation="0"
     showgrid="false"
     inkscape:window-width="958"
     inkscape:window-height="1008"
     inkscape:window-x="1913"
     inkscape:window-y="0"
     inkscape:window-maximized="0" />
  <metadata
     id="metadata5">
    <rdf:RDF>
      <cc:Work
         rdf:about="">
        <dc:format>image/svg+xml</dc:format>
        <dc:type
           rdf:resource="http://purl.org/dc/dcmitype/StillImage" />
        <dc:title></dc:title>
      </cc:Work>
    </rdf:RDF>
  </metadata>
  <g
     inkscape:label="Ebene 1"
     inkscape:groupmode="layer"
     id="layer1"
     transform="translate(-77.346298,17.252693)">
    <g
       inkscape:label="Ebene 1"
       id="layer1-6"
       transform="matrix(0.2,0,0,0.2,40.859754,-15.769466)"
       style="stroke-width:5">
      <path
         style="fill:#000000;stroke-width:1.32291"
         d="m 197.13694,56.943767 c -0.0571,-0.181901 -0.17764,-3.009635 -0.26781,-6.283854 -0.0902,-3.274218 -0.28299,-8.137165 -0.42851,-10.806546 l -0.26457,-4.853421 -4.07215,-5.068454 c -2.23969,-2.78765 -5.341,-6.609914 -6.89181,-8.493921 -2.30434,-2.799443 -2.74961,-3.476403 -2.43638,-3.704167 0.2108,-0.153284 4.91691,-1.397304 10.45803,-2.764489 l 10.07476,-2.485792 4.00549,-6.3777492 c 2.20302,-3.5077641 4.79573,-7.657674 5.76159,-9.222023 1.50557,-2.4384955 1.85442,-2.8442708 2.44525,-2.8442708 0.53289,0 0.8294,0.2495479 1.30772,1.1005931 0.6105,1.0862379 6.8635,11.1222123 9.41166,15.1055729 0.97162,1.518854 1.52472,2.121387 2.13193,2.322433 0.45096,0.149312 5.0763,1.331563 10.27853,2.627228 5.20224,1.295662 9.53306,2.430208 9.62407,2.521214 0.23782,0.237826 -0.31911,1.057418 -2.91237,4.285845 -7.36087,9.163781 -8.90761,11.115316 -9.78575,12.346742 l -0.97143,1.362247 -0.28648,5.291667 c -0.15757,2.910416 -0.36439,7.762213 -0.4596,10.78177 l -0.17312,5.490105 H 215.4634 c -14.34628,0 -18.24468,-0.07035 -18.32646,-0.33073 z m 35.34081,-4.696354 c 0.73385,-16.077356 0.82164,-17.327668 1.25632,-17.893352 0.238,-0.30973 2.21866,-2.800425 4.40147,-5.53488 7.59929,-9.51978 8.12909,-10.202751 8.00831,-10.323534 -0.0668,-0.06683 -3.97964,-1.077671 -8.69512,-2.24631 -4.71548,-1.168638 -9.0201,-2.243306 -9.56583,-2.388153 -1.07477,-0.285265 -2.03421,-1.549423 -5.80694,-7.6512707 -5.41849,-8.7636426 -6.34321,-10.1864583 -6.62037,-10.1864583 -0.16788,0 -1.39201,1.788926 -2.72027,3.97539131 -4.28815,7.05876029 -8.3841,13.36293169 -8.84107,13.60749369 -0.24499,0.131115 -4.63647,1.270127 -9.75884,2.531137 -5.12237,1.261012 -9.31341,2.393902 -9.31341,2.517534 0,0.123635 0.63527,0.975704 1.41171,1.893491 0.77644,0.917786 3.62388,4.424481 6.32764,7.792654 l 4.91594,6.12395 0.42076,8.295841 c 0.23142,4.562713 0.42007,9.398045 0.41923,10.745182 l -0.002,2.44934 16.99948,-0.06809 16.99948,-0.06809 z"
         id="path5217" />
      <path
         style="fill:#000000;stroke-width:1.32291"
         d="m 197.13694,56.943767 c -0.0571,-0.181901 -0.17764,-3.009635 -0.26781,-6.283854 -0.0902,-3.274218 -0.28299,-8.137165 -0.42851,-10.806546 l -0.26457,-4.853421 -4.07215,-5.068454 c -2.23969,-2.78765 -5.341,-6.609914 -6.89181,-8.493921 -2.30434,-2.799443 -2.74961,-3.476403 -2.43638,-3.704167 0.2108,-0.153284 4.91691,-1.397304 10.45803,-2.764489 l 10.07476,-2.485792 4.00549,-6.3777492 c 2.20302,-3.5077641 4.79573,-7.657674 5.76159,-9.222023 1.50557,-2.4384955 1.85442,-2.8442708 2.44525,-2.8442708 0.53289,0 0.8294,0.2495479 1.30772,1.1005931 0.6105,1.0862379 6.8635,11.1222123 9.41166,15.1055729 0.97162,1.518854 1.52472,2.121387 2.13193,2.322433 0.45096,0.149312 5.0763,1.331563 10.27853,2.627228 5.20224,1.295662 9.53306,2.430208 9.62407,2.521214 0.23782,0.237826 -0.31911,1.057418 -2.91237,4.285845 -7.36087,9.163781 -8.90761,11.115316 -9.78575,12.346742 l -0.97143,1.362247 -0.28648,5.291667 c -0.15757,2.910416 -0.36439,7.762213 -0.4596,10.78177 l -0.17312,5.490105 H 215.4634 c -14.34628,0 -18.24468,-0.07035 -18.32646,-0.33073 z m 35.34081,-4.696354 c 0.73385,-16.077356 0.82164,-17.327668 1.25632,-17.893352 0.238,-0.30973 2.21866,-2.800425 4.40147,-5.53488 7.59929,-9.51978 8.12909,-10.202751 8.00831,-10.323534 -0.0668,-0.06683 -3.97964,-1.077671 -8.69512,-2.24631 -4.71548,-1.168638 -9.0201,-2.243306 -9.56583,-2.388153 -1.07477,-0.285265 -2.03421,-1.549423 -5.80694,-7.6512707 -5.41849,-8.7636426 -6.34321,-10.1864583 -6.62037,-10.1864583 -0.16788,0 -1.39201,1.788926 -2.72027,3.97539131 -4.28815,7.05876029 -8.3841,13.36293169 -8.84107,13.60749369 -0.24499,0.131115 -4.63647,1.270127 -9.75884,2.531137 -5.12237,1.261012 -9.31341,2.393902 -9.31341,2.517534 0,0.123635 0.63527,0.975704 1.41171,1.893491 0.77644,0.917786 3.62388,4.424481 6.32764,7.792654 l 4.91594,6.12395 0.42076,8.295841 c 0.23142,4.562713 0.42007,9.398045 0.41923,10.745182 l -0.002,2.44934 16.99948,-0.06809 16.99948,-0.06809 z"
         id="path5219" />
    </g>
  </g>
</svg>
