<?xml version="1.0" encoding="UTF-8" standalone="no"?>
<svg
   xmlns:dc="http://purl.org/dc/elements/1.1/"
   xmlns:cc="http://creativecommons.org/ns#"
   xmlns:rdf="http://www.w3.org/1999/02/22-rdf-syntax-ns#"
   xmlns:svg="http://www.w3.org/2000/svg"
   xmlns="http://www.w3.org/2000/svg"
   xmlns:sodipodi="http://sodipodi.sourceforge.net/DTD/sodipodi-0.dtd"
   xmlns:inkscape="http://www.inkscape.org/namespaces/inkscape"
   width="13.229167mm"
   height="13.229167mm"
   viewBox="0 0 13.229169 13.229168"
   version="1.1"
   id="svg8"
   sodipodi:docname="VCS_resized_308.svg"
   inkscape:version="1.0.2-2 (e86c870879, 2021-01-15)">
  <defs
     id="defs2" />
  <sodipodi:namedview
     id="base"
     pagecolor="#ffffff"
     bordercolor="#666666"
     borderopacity="1.0"
     inkscape:pageopacity="0.0"
     inkscape:pageshadow="2"
     inkscape:zoom="4"
     inkscape:cx="10.85329"
     inkscape:cy="48.152665"
     inkscape:document-units="mm"
     inkscape:current-layer="layer1"
     inkscape:document-rotation="0"
     showgrid="false"
     inkscape:window-width="958"
     inkscape:window-height="1008"
     inkscape:window-x="1913"
     inkscape:window-y="0"
     inkscape:window-maximized="0" />
  <metadata
     id="metadata5">
    <rdf:RDF>
      <cc:Work
         rdf:about="">
        <dc:format>image/svg+xml</dc:format>
        <dc:type
           rdf:resource="http://purl.org/dc/dcmitype/StillImage" />
        <dc:title></dc:title>
      </cc:Work>
    </rdf:RDF>
  </metadata>
  <g
     inkscape:label="Ebene 1"
     inkscape:groupmode="layer"
     id="layer1"
     transform="translate(-92.356163,21.163612)">
    <path
       style="fill:#000000;stroke-width:0.264582"
       d="m 97.808798,-8.7478187 c -1.103496,-0.2803054 -1.017148,-0.211925 -1.085106,-0.859308 -0.08624,-0.8215113 -0.355704,-2.7792163 -0.396092,-2.8776263 -0.02452,-0.05975 -0.791372,-0.609876 -1.704114,-1.222499 -2.186482,-1.467547 -2.0771,-1.391618 -2.123206,-1.473829 -0.02219,-0.03956 -0.01818,-0.08563 0.0089,-0.102377 0.05751,-0.03554 1.289608,-0.336721 3.141824,-0.767995 0.721174,-0.16792 1.323436,-0.317519 1.338358,-0.332442 0.02652,-0.02652 0.611622,-1.336276 1.353638,-3.030135 0.540024,-1.232758 0.516862,-1.190625 0.654534,-1.190625 0.101444,0 0.149148,0.0672 0.291132,0.410104 0.09339,0.225558 0.395366,0.922073 0.67105,1.547813 0.275684,0.62574 0.611174,1.38774 0.745534,1.693333 0.13437,0.305594 0.24965,0.563863 0.25619,0.573931 0.007,0.01007 0.44815,0.120683 0.98136,0.245812 1.51615,0.355796 3.3258,0.817773 3.43746,0.877529 0.0558,0.02986 0.0876,0.07662 0.0708,0.103909 -0.0358,0.05793 -0.84632,0.618773 -2.5123,1.738389 -0.65484,0.440087 -1.21839,0.841704 -1.25233,0.892482 -0.0587,0.08775 -0.24912,1.305781 -0.41992,2.6852395 -0.0432,0.34925 -0.0914,0.685919 -0.10702,0.7481528 -0.0248,0.098816 -0.15521,0.144074 -1.02919,0.3571874 -0.550438,0.1342194 -1.078352,0.241073 -1.173144,0.2374536 -0.09479,-0.00362 -0.611548,-0.1181444 -1.148342,-0.254499 z m 2.118926,-0.2194994 c 0.488726,-0.1187984 0.910646,-0.2438142 0.937596,-0.2778126 0.027,-0.033999 0.0889,-0.3356598 0.13755,-0.6703578 0.33098,-2.2750005 0.411,-2.7818315 0.44374,-2.8108155 0.0203,-0.01798 0.7513,-0.512596 1.62443,-1.099146 1.79535,-1.206087 1.86385,-1.255282 1.8154,-1.303736 -0.0318,-0.03184 -2.9191,-0.748938 -3.74686,-0.93059 -0.39065,-0.08573 -0.33002,-0.0037 -0.79741,-1.078837 -0.883026,-2.031194 -1.305262,-2.958669 -1.35441,-2.975051 -0.0309,-0.0103 -0.08711,0.05956 -0.124904,0.155244 -0.0378,0.09569 -0.32794,0.75738 -0.644768,1.470432 -0.316828,0.713052 -0.673624,1.516678 -0.792878,1.785835 -0.119256,0.269157 -0.243138,0.510437 -0.275292,0.536177 -0.0489,0.03914 -1.350636,0.352752 -3.57742,0.861854 -0.459374,0.105024 -0.602948,0.175641 -0.497498,0.244692 0.920784,0.60295 3.215372,2.16357 3.339616,2.271376 l 0.169828,0.147358 0.184792,1.349374 c 0.101636,0.742157 0.200066,1.4971237 0.218736,1.6777061 0.01866,0.1805818 0.0615,0.3511964 0.09517,0.3791426 0.03368,0.027946 0.335072,0.1133338 0.66977,0.1897492 0.334698,0.076415 0.739512,0.1716664 0.899584,0.2116692 0.160072,0.040003 0.312552,0.074758 0.338842,0.077233 0.02629,0.00248 0.447662,-0.092698 0.936384,-0.2114958 z"
       id="path5843" />
  </g>
</svg>
