<?xml version="1.0" encoding="UTF-8" standalone="no"?>
<svg
   xmlns:dc="http://purl.org/dc/elements/1.1/"
   xmlns:cc="http://creativecommons.org/ns#"
   xmlns:rdf="http://www.w3.org/1999/02/22-rdf-syntax-ns#"
   xmlns:svg="http://www.w3.org/2000/svg"
   xmlns="http://www.w3.org/2000/svg"
   xmlns:sodipodi="http://sodipodi.sourceforge.net/DTD/sodipodi-0.dtd"
   xmlns:inkscape="http://www.inkscape.org/namespaces/inkscape"
   width="13.229167mm"
   height="13.229167mm"
   viewBox="0 0 13.229169 13.229168"
   version="1.1"
   id="svg8"
   sodipodi:docname="VCS_resized_309.svg"
   inkscape:version="1.0.2-2 (e86c870879, 2021-01-15)">
  <defs
     id="defs2" />
  <sodipodi:namedview
     id="base"
     pagecolor="#ffffff"
     bordercolor="#666666"
     borderopacity="1.0"
     inkscape:pageopacity="0.0"
     inkscape:pageshadow="2"
     inkscape:zoom="4"
     inkscape:cx="14.816932"
     inkscape:cy="53.342676"
     inkscape:document-units="mm"
     inkscape:current-layer="layer1"
     inkscape:document-rotation="0"
     showgrid="false"
     inkscape:window-width="958"
     inkscape:window-height="1008"
     inkscape:window-x="1913"
     inkscape:window-y="0"
     inkscape:window-maximized="0" />
  <metadata
     id="metadata5">
    <rdf:RDF>
      <cc:Work
         rdf:about="">
        <dc:format>image/svg+xml</dc:format>
        <dc:type
           rdf:resource="http://purl.org/dc/dcmitype/StillImage" />
        <dc:title></dc:title>
      </cc:Work>
    </rdf:RDF>
  </metadata>
  <g
     inkscape:label="Ebene 1"
     inkscape:groupmode="layer"
     id="layer1"
     transform="translate(-91.307449,22.536802)">
    <path
       style="fill:#000000;stroke-width:0.264582"
       d="m 97.587354,-9.912525 c -0.07276,-0.030513 -0.501386,-0.151541 -0.9525,-0.268951 -0.451114,-0.117409 -0.83015,-0.222925 -0.8423,-0.234481 -0.02567,-0.02441 -0.04374,-0.150152 -0.29565,-2.057386 -0.10373,-0.785357 -0.205644,-1.443537 -0.226472,-1.462621 -0.02083,-0.01908 -0.890624,-0.598409 -1.93288,-1.287386 -1.393912,-0.921439 -1.890604,-1.276294 -1.878348,-1.341962 0.01722,-0.09221 0.42558,-0.203787 2.450442,-0.669526 1.483154,-0.341141 1.956456,-0.464466 2.014676,-0.524949 0.06031,-0.06266 0.06321,-0.06904 0.975642,-2.149176 0.944322,-2.152837 0.899824,-2.06375 1.030804,-2.06375 0.100022,0 0.171764,0.129951 0.51855,0.939271 0.346366,0.808347 1.051744,2.423386 1.357808,3.108854 l 0.09451,0.211667 1.396084,0.33458 c 2.22038,0.532125 3.01711,0.736102 3.06594,0.784935 0.025,0.02505 0.0287,0.07183 0.008,0.103971 -0.039,0.06075 -2.85349,1.958871 -3.44283,2.321852 -0.18489,0.11388 -0.35465,0.255735 -0.37724,0.315233 -0.0226,0.0595 -0.11714,0.691585 -0.21013,1.404637 -0.093,0.713052 -0.19725,1.4631 -0.2317,1.666774 -0.0727,0.429908 0.0319,0.368619 -1.193882,0.699239 -0.784184,0.2115042 -1.124354,0.2548196 -1.328576,0.169175 z m 1.280348,-0.446184 c 0.500106,-0.131632 0.918814,-0.248861 0.930462,-0.260509 0.01164,-0.01165 0.128566,-0.790966 0.259816,-1.731816 0.17574,-1.259766 0.25954,-1.724584 0.31794,-1.763554 0.0436,-0.0291 0.8092,-0.536317 1.7013,-1.127141 0.89211,-0.590823 1.6559,-1.107766 1.69732,-1.148762 0.065,-0.06433 0.0541,-0.08261 -0.0794,-0.133512 -0.12638,-0.04818 -1.5765,-0.402482 -3.60939,-0.88186 -0.224816,-0.05302 -0.356964,-0.11559 -0.407732,-0.193073 -0.04131,-0.06305 -0.265034,-0.555021 -0.497158,-1.093269 -1.028036,-2.383788 -1.202296,-2.770862 -1.255408,-2.788566 -0.03102,-0.01034 -0.165048,0.237883 -0.297836,0.551608 -0.13279,0.313725 -0.484406,1.118096 -0.78137,1.787492 -0.296966,0.669396 -0.582322,1.313823 -0.634126,1.43206 l -0.09419,0.214977 -0.733736,0.17466 c -0.403556,0.09606 -0.91233,0.218399 -1.130612,0.271859 -0.218282,0.05346 -0.73025,0.170854 -1.137708,0.260877 -0.974584,0.215321 -1.137708,0.260315 -1.137708,0.313807 0,0.02463 0.788326,0.563892 1.751834,1.198354 0.97437,0.641613 1.772052,1.202073 1.797386,1.262862 0.02505,0.06011 0.08167,0.395044 0.125814,0.744294 0.207324,1.640247 0.348586,2.589579 0.391758,2.63275 0.03597,0.03597 1.662254,0.478573 1.873428,0.509863 0.02201,0.0033 0.449188,-0.10177 0.949294,-0.233401 z"
       id="path5859" />
  </g>
</svg>
