<?xml version="1.0" encoding="UTF-8" standalone="no"?>
<svg
   xmlns:dc="http://purl.org/dc/elements/1.1/"
   xmlns:cc="http://creativecommons.org/ns#"
   xmlns:rdf="http://www.w3.org/1999/02/22-rdf-syntax-ns#"
   xmlns:svg="http://www.w3.org/2000/svg"
   xmlns="http://www.w3.org/2000/svg"
   xmlns:sodipodi="http://sodipodi.sourceforge.net/DTD/sodipodi-0.dtd"
   xmlns:inkscape="http://www.inkscape.org/namespaces/inkscape"
   width="13.229167mm"
   height="13.229167mm"
   viewBox="0 0 13.229169 13.229168"
   version="1.1"
   id="svg8"
   sodipodi:docname="VCS_resized_208.svg"
   inkscape:version="1.0.2-2 (e86c870879, 2021-01-15)">
  <defs
     id="defs2" />
  <sodipodi:namedview
     id="base"
     pagecolor="#ffffff"
     bordercolor="#666666"
     borderopacity="1.0"
     inkscape:pageopacity="0.0"
     inkscape:pageshadow="2"
     inkscape:zoom="2.8284271"
     inkscape:cx="15.65952"
     inkscape:cy="64.288316"
     inkscape:document-units="mm"
     inkscape:current-layer="layer1"
     inkscape:document-rotation="0"
     showgrid="false"
     inkscape:window-width="958"
     inkscape:window-height="1008"
     inkscape:window-x="1913"
     inkscape:window-y="0"
     inkscape:window-maximized="0" />
  <metadata
     id="metadata5">
    <rdf:RDF>
      <cc:Work
         rdf:about="">
        <dc:format>image/svg+xml</dc:format>
        <dc:type
           rdf:resource="http://purl.org/dc/dcmitype/StillImage" />
        <dc:title></dc:title>
      </cc:Work>
    </rdf:RDF>
  </metadata>
  <g
     inkscape:label="Ebene 1"
     inkscape:groupmode="layer"
     id="layer1"
     transform="translate(-44.420113,-13.670886)">
    <path
       style="fill:#000000;stroke-width:0.264582"
       d="m 47.302469,26.397909 c -0.04659,-0.03638 -0.132102,-0.185209 -0.190032,-0.33073 -0.05793,-0.14552 -0.334124,-0.820973 -0.61376,-1.501006 -0.574754,-1.397708 -0.684018,-1.778511 -0.7688,-2.67941 -0.171556,-1.822946 -0.204328,-2.005796 -0.487056,-2.717525 -0.180804,-0.455145 -0.382236,-1.345249 -0.336818,-1.488349 0.06675,-0.2103 1.464918,-1.030758 2.831358,-1.661464 0.413458,-0.190838 1.210968,-0.64057 1.893278,-1.067656 0.648396,-0.405857 1.233738,-0.77151 1.300758,-0.81256 0.113814,-0.06971 0.161734,-0.05012 0.726098,0.296915 0.332332,0.204353 0.878172,0.547503 1.212976,0.762554 0.334804,0.215051 0.811054,0.485587 1.058334,0.601191 1.21071,0.566014 2.397786,1.224373 3.009506,1.669088 l 0.231574,0.168353 -0.0327,0.278231 c -0.01798,0.153026 -0.162976,0.684403 -0.322202,1.180836 -0.274848,0.856921 -0.292354,0.945026 -0.345894,1.740663 -0.100896,1.49938 -0.247102,2.102731 -0.876288,3.616181 -0.22384,0.538427 -0.488646,1.181365 -0.588458,1.42875 -0.09981,0.247386 -0.220548,0.479557 -0.268302,0.515938 -0.06751,0.05143 -0.894612,0.06615 -3.717846,0.06615 -2.824364,0 -3.64984,-0.01469 -3.715726,-0.06615 z m 7.289186,-0.253918 c 0.135108,-0.218611 1.164864,-2.810094 1.302658,-3.27827 0.120772,-0.41034 0.256718,-1.374273 0.257,-1.82226 4e-4,-0.519711 0.130566,-1.166008 0.411228,-2.040657 0.144756,-0.451114 0.278178,-0.920206 0.296496,-1.042426 0.03229,-0.215482 0.02648,-0.226908 -0.19179,-0.376932 -0.552898,-0.380025 -1.4338,-0.857348 -2.73878,-1.48403 -0.363882,-0.174745 -1.042538,-0.564333 -1.508124,-0.865752 -1.378814,-0.892639 -1.324532,-0.872521 -1.705358,-0.632012 -1.293304,0.816778 -2.510432,1.543652 -2.584794,1.543652 -0.0075,0 -0.37879,0.169121 -0.825028,0.375824 -0.79016,0.366012 -1.088294,0.527602 -1.783738,0.9668 l -0.337396,0.213077 0.03224,0.32017 c 0.03235,0.321291 0.190788,0.876913 0.395684,1.387662 0.149612,0.37294 0.303352,1.263639 0.37747,2.186884 0.09692,1.207237 0.239124,1.700772 0.952974,3.307292 0.05173,0.116416 0.182672,0.437885 0.290982,0.714375 0.108312,0.276489 0.20789,0.520568 0.221286,0.542396 0.03966,0.06463 7.096936,0.04901 7.136986,-0.01579 z"
       id="path4227" />
  </g>
</svg>
