<?xml version="1.0" encoding="UTF-8" standalone="no"?>
<svg
   xmlns:dc="http://purl.org/dc/elements/1.1/"
   xmlns:cc="http://creativecommons.org/ns#"
   xmlns:rdf="http://www.w3.org/1999/02/22-rdf-syntax-ns#"
   xmlns:svg="http://www.w3.org/2000/svg"
   xmlns="http://www.w3.org/2000/svg"
   xmlns:sodipodi="http://sodipodi.sourceforge.net/DTD/sodipodi-0.dtd"
   xmlns:inkscape="http://www.inkscape.org/namespaces/inkscape"
   width="13.229167mm"
   height="13.229167mm"
   viewBox="0 0 13.229167 13.229167"
   version="1.1"
   id="svg8"
   sodipodi:docname="VCS_resized_68.svg"
   inkscape:version="1.0.2-2 (e86c870879, 2021-01-15)">
  <defs
     id="defs2" />
  <sodipodi:namedview
     id="base"
     pagecolor="#ffffff"
     bordercolor="#666666"
     borderopacity="1.0"
     inkscape:pageopacity="0.0"
     inkscape:pageshadow="2"
     inkscape:zoom="2.8284271"
     inkscape:cx="31.559549"
     inkscape:cy="53.791484"
     inkscape:document-units="mm"
     inkscape:current-layer="layer1"
     inkscape:document-rotation="0"
     showgrid="false"
     inkscape:window-width="958"
     inkscape:window-height="1008"
     inkscape:window-x="1913"
     inkscape:window-y="0"
     inkscape:window-maximized="0" />
  <metadata
     id="metadata5">
    <rdf:RDF>
      <cc:Work
         rdf:about="">
        <dc:format>image/svg+xml</dc:format>
        <dc:type
           rdf:resource="http://purl.org/dc/dcmitype/StillImage" />
        <dc:title></dc:title>
      </cc:Work>
    </rdf:RDF>
  </metadata>
  <g
     inkscape:label="Ebene 1"
     inkscape:groupmode="layer"
     id="layer1"
     transform="translate(-29.849855,-12.359282)">
    <path
       style="fill:#000000;stroke-width:0.264582"
       d="m 32.826385,24.026554 c -0.344026,-0.134598 -0.717006,-0.403911 -0.88986,-0.642529 -0.207408,-0.286318 -0.307604,-0.783915 -0.222324,-1.104103 0.109018,-0.409303 0.312844,-0.693929 0.952858,-1.330579 0.904998,-0.900243 1.13842,-1.436962 0.932702,-2.144606 -0.146688,-0.504591 -0.356674,-0.808524 -1.146656,-1.659662 -0.743128,-0.800658 -0.975682,-1.301427 -0.933348,-2.009829 0.06558,-1.097445 0.850236,-1.55977 1.842178,-1.085426 0.352304,0.168471 0.483444,0.280171 1.203652,1.025228 0.946346,0.978996 1.164132,1.114116 1.805412,1.12012 0.603328,0.0056 1.022764,-0.231209 1.551716,-0.876259 1.060002,-1.29266 1.808172,-1.7101 2.517824,-1.404816 0.509348,0.219116 0.773968,0.696771 0.77663,1.401865 0.0024,0.622997 -0.226008,1.076781 -0.961224,1.910096 -0.810092,0.918183 -1.051118,1.394251 -1.012548,1.999967 0.0321,0.504199 0.237086,0.868242 0.776374,1.378823 0.889114,0.841783 1.081322,1.056485 1.233194,1.377512 0.281716,0.595486 0.193562,1.116778 -0.264242,1.562572 -0.532864,0.518885 -1.133,0.60609 -2.374886,0.345095 -0.822206,-0.172796 -1.638992,-0.292607 -1.994782,-0.292607 -0.328882,0 -1.044848,0.13466 -1.956794,0.368036 -0.75809,0.194002 -1.438326,0.216642 -1.835876,0.0611 z m 1.376844,-0.246628 c 0.216148,-0.04509 0.412646,-0.09413 0.436666,-0.108977 0.127194,-0.07861 1.604072,-0.337712 1.926022,-0.337899 0.449386,-2.6e-4 1.24156,0.107153 2.133156,0.289243 1.015458,0.207386 1.492848,0.168553 1.967762,-0.160065 0.447986,-0.309984 0.569006,-0.921171 0.282334,-1.425853 -0.08348,-0.146957 -0.474382,-0.585007 -0.879288,-0.985329 -0.613004,-0.606066 -0.756196,-0.778671 -0.899942,-1.084792 -0.398958,-0.84963 -0.194296,-1.675644 0.658982,-2.659661 1.059122,-1.2214 1.278638,-1.71149 1.077108,-2.404728 -0.164906,-0.567256 -0.621496,-0.850796 -1.171756,-0.727653 -0.388408,0.08692 -0.76738,0.36841 -1.201642,0.892543 -0.816524,0.985504 -1.265622,1.333524 -1.863432,1.444036 -0.37943,0.07014 -0.787166,-0.0077 -1.209334,-0.230742 -0.231496,-0.12233 -0.500208,-0.364751 -1.078796,-0.97325 -0.794674,-0.835756 -1.071324,-1.03899 -1.511562,-1.110431 -0.60806,-0.09868 -1.096566,0.348311 -1.096566,1.003364 0,0.597156 0.250354,1.037534 1.19418,2.100601 0.6395,0.720293 0.976256,1.382407 0.974776,1.91656 -0.0016,0.589082 -0.242486,1.073293 -0.831462,1.671571 -1.112316,1.129882 -1.303706,1.537934 -1.012208,2.158067 0.125814,0.267659 0.545354,0.621101 0.878272,0.739905 0.267646,0.09551 0.749978,0.09295 1.22673,-0.0065 z"
       id="path1130" />
  </g>
</svg>
