<?xml version="1.0" encoding="UTF-8" standalone="no"?>
<svg
   xmlns:dc="http://purl.org/dc/elements/1.1/"
   xmlns:cc="http://creativecommons.org/ns#"
   xmlns:rdf="http://www.w3.org/1999/02/22-rdf-syntax-ns#"
   xmlns:svg="http://www.w3.org/2000/svg"
   xmlns="http://www.w3.org/2000/svg"
   xmlns:sodipodi="http://sodipodi.sourceforge.net/DTD/sodipodi-0.dtd"
   xmlns:inkscape="http://www.inkscape.org/namespaces/inkscape"
   width="13.229167mm"
   height="13.229167mm"
   viewBox="0 0 13.229169 13.229168"
   version="1.1"
   id="svg8"
   sodipodi:docname="VCS_resized_197.svg"
   inkscape:version="1.0.2-2 (e86c870879, 2021-01-15)">
  <defs
     id="defs2" />
  <sodipodi:namedview
     id="base"
     pagecolor="#ffffff"
     bordercolor="#666666"
     borderopacity="1.0"
     inkscape:pageopacity="0.0"
     inkscape:pageshadow="2"
     inkscape:zoom="2.8284271"
     inkscape:cx="4.2090095"
     inkscape:cy="59.287635"
     inkscape:document-units="mm"
     inkscape:current-layer="layer1"
     inkscape:document-rotation="0"
     showgrid="false"
     inkscape:window-width="958"
     inkscape:window-height="1008"
     inkscape:window-x="1913"
     inkscape:window-y="0"
     inkscape:window-maximized="0" />
  <metadata
     id="metadata5">
    <rdf:RDF>
      <cc:Work
         rdf:about="">
        <dc:format>image/svg+xml</dc:format>
        <dc:type
           rdf:resource="http://purl.org/dc/dcmitype/StillImage" />
        <dc:title></dc:title>
      </cc:Work>
    </rdf:RDF>
  </metadata>
  <g
     inkscape:label="Ebene 1"
     inkscape:groupmode="layer"
     id="layer1"
     transform="translate(-47.449726,-14.993982)">
    <path
       style="fill:#000000;stroke-width:0.264582"
       d="m 50.58248,27.705199 c -0.06189,-0.02289 -0.156186,-0.14337 -0.209544,-0.267723 -0.05336,-0.124352 -0.396544,-0.84522 -0.762634,-1.601928 -0.36609,-0.756709 -0.704706,-1.529437 -0.752482,-1.717175 -0.115244,-0.452856 -0.171476,-1.20029 -0.123038,-1.635429 0.02152,-0.19336 0.04036,-0.625922 0.04185,-0.96125 0.0028,-0.637608 -0.05017,-0.90094 -0.329986,-1.639271 -0.0717,-0.189178 -0.170324,-0.580642 -0.219172,-0.869922 -0.08537,-0.505523 -0.08501,-0.531229 0.0091,-0.661458 0.147906,-0.204558 1.223574,-0.902349 1.74585,-1.13254 0.253688,-0.111812 0.723752,-0.287105 1.044584,-0.38954 0.577728,-0.184456 1.424024,-0.542788 2.53323,-1.072602 l 0.574062,-0.274202 0.403058,0.176069 c 0.221682,0.09684 0.713448,0.333328 1.092812,0.525532 0.454392,0.230216 0.942548,0.425705 1.430588,0.572899 0.527092,0.158972 0.893506,0.309033 1.27,0.520116 1.07894,0.604911 1.525388,0.925535 1.61709,1.161342 0.06703,0.172373 -0.08585,1.024992 -0.26322,1.467951 -0.252188,0.629807 -0.288648,0.90947 -0.238384,1.828438 0.100798,1.84284 0.02392,2.200618 -0.858476,3.995208 -0.228968,0.465667 -0.515798,1.060979 -0.637398,1.322917 -0.121602,0.261937 -0.252842,0.518899 -0.291648,0.571025 -0.06636,0.08914 -0.275576,0.09562 -3.517158,0.108973 -1.895634,0.0078 -3.497244,-0.0045 -3.559136,-0.02743 z m 6.837118,-0.268922 c 0.04839,-0.03638 0.19824,-0.304271 0.33301,-0.595313 0.13477,-0.291041 0.41197,-0.874448 0.616,-1.296458 0.79967,-1.654014 0.877818,-1.993884 0.78615,-3.41903 -0.05776,-0.897924 -0.0548,-0.992012 0.04689,-1.490989 0.05969,-0.292921 0.158188,-0.647451 0.218876,-0.787845 0.133446,-0.308705 0.257488,-0.864261 0.258744,-1.15885 0.0012,-0.259412 -0.06753,-0.331923 -0.66054,-0.697807 -0.767296,-0.473419 -1.207912,-0.68359 -1.957916,-0.93391 -0.407458,-0.135993 -1.181364,-0.458428 -1.719792,-0.716522 -0.538428,-0.258094 -1.029252,-0.483875 -1.09072,-0.501737 -0.111212,-0.03232 -0.257256,0.01943 -0.920114,0.325996 -1.038714,0.480399 -1.64844,0.733868 -2.328332,0.96791 -0.724566,0.24942 -1.33755,0.528767 -1.852084,0.844026 -0.701962,0.430097 -0.705626,0.434911 -0.66559,0.8748 0.04103,0.450822 0.09224,0.652123 0.325812,1.280822 0.240568,0.647529 0.322172,1.364787 0.2393,2.103366 -0.05704,0.508346 -0.01442,1.519088 0.07932,1.88102 0.01884,0.07276 0.352782,0.794275 0.742084,1.603366 0.389302,0.809091 0.707822,1.4937 0.707822,1.521354 0,0.02765 0.04763,0.0979 0.105834,0.156113 0.10355,0.103551 0.176388,0.105834 3.376552,0.105834 2.534378,0 3.290526,-0.01489 3.358694,-0.06615 z"
       id="path4051" />
  </g>
</svg>
