<?xml version="1.0" encoding="UTF-8" standalone="no"?>
<svg
   xmlns:dc="http://purl.org/dc/elements/1.1/"
   xmlns:cc="http://creativecommons.org/ns#"
   xmlns:rdf="http://www.w3.org/1999/02/22-rdf-syntax-ns#"
   xmlns:svg="http://www.w3.org/2000/svg"
   xmlns="http://www.w3.org/2000/svg"
   xmlns:sodipodi="http://sodipodi.sourceforge.net/DTD/sodipodi-0.dtd"
   xmlns:inkscape="http://www.inkscape.org/namespaces/inkscape"
   width="13.229167mm"
   height="13.229167mm"
   viewBox="0 0 13.229169 13.229168"
   version="1.1"
   id="svg8"
   sodipodi:docname="VCS_resized_271.svg"
   inkscape:version="1.0.2-2 (e86c870879, 2021-01-15)">
  <defs
     id="defs2" />
  <sodipodi:namedview
     id="base"
     pagecolor="#ffffff"
     bordercolor="#666666"
     borderopacity="1.0"
     inkscape:pageopacity="0.0"
     inkscape:pageshadow="2"
     inkscape:zoom="4"
     inkscape:cx="-0.77706508"
     inkscape:cy="51.149654"
     inkscape:document-units="mm"
     inkscape:current-layer="layer1"
     inkscape:document-rotation="0"
     showgrid="false"
     inkscape:window-width="958"
     inkscape:window-height="1008"
     inkscape:window-x="1913"
     inkscape:window-y="0"
     inkscape:window-maximized="0" />
  <metadata
     id="metadata5">
    <rdf:RDF>
      <cc:Work
         rdf:about="">
        <dc:format>image/svg+xml</dc:format>
        <dc:type
           rdf:resource="http://purl.org/dc/dcmitype/StillImage" />
        <dc:title></dc:title>
      </cc:Work>
    </rdf:RDF>
  </metadata>
  <g
     inkscape:label="Ebene 1"
     inkscape:groupmode="layer"
     id="layer1"
     transform="translate(-85.897018,18.454292)">
    <path
       style="fill:#000000;stroke-width:0.264582"
       d="m 88.895619,-6.0596226 c -0.01842,-0.2837656 -0.05797,-1.2065 -0.08787,-2.0505208 -0.0299,-0.8440208 -0.06557,-1.6007684 -0.07927,-1.6816616 -0.0137,-0.080893 -0.162286,-0.316655 -0.330192,-0.523917 -0.668834,-0.825606 -0.91806,-1.126868 -1.667886,-2.016126 -0.429286,-0.509113 -0.780474,-0.958128 -0.780416,-0.997811 7.4e-5,-0.05114 0.601876,-0.217698 2.06677,-0.572004 l 2.066668,-0.499853 0.75891,-1.219939 c 0.4174,-0.670966 0.922168,-1.491257 1.121706,-1.822869 0.372598,-0.619225 0.47484,-0.732737 0.612424,-0.67994 0.04362,0.01674 0.300188,0.395573 0.57016,0.841858 0.269972,0.446286 0.776484,1.269054 1.125582,1.828373 l 0.634722,1.016945 0.28944,0.08414 c 0.159192,0.04628 1.019214,0.262055 1.911164,0.479505 1.8319,0.446601 1.965682,0.484769 1.965682,0.56081 0,0.02998 -0.221676,0.319839 -0.492616,0.644125 -0.541018,0.647542 -1.79886,2.178323 -2.116016,2.575169 l -0.200924,0.2514084 -0.04793,0.884854 c -0.02636,0.4866698 -0.06461,1.4537742 -0.085,2.149121 l -0.03707,1.2642674 h -3.582264 -3.582262 z m 6.883534,0.2222336 c 0.04635,-0.014346 0.06615,-0.1597036 0.06615,-0.4856316 0,-0.2558362 0.0363,-1.1869326 0.08066,-2.069102 l 0.08066,-1.6039454 0.330364,-0.379954 c 0.181698,-0.208975 0.63792,-0.760955 1.013826,-1.226621 0.375904,-0.465667 0.810072,-0.9974 0.964814,-1.181629 0.154742,-0.184228 0.28135,-0.366447 0.28135,-0.404931 0,-0.046 -0.212968,-0.118514 -0.62177,-0.211698 -1.73414,-0.395288 -3.165542,-0.775441 -3.243834,-0.861499 -0.142998,-0.157183 -1.590328,-2.470159 -2.002858,-3.200765 -0.09449,-0.167348 -0.192992,-0.30427 -0.218886,-0.30427 -0.0259,0 -0.19935,0.255984 -0.385458,0.568854 -1.027276,1.726988 -1.791916,2.926757 -1.914486,3.003948 -0.05821,0.03666 -0.510644,0.163345 -1.005416,0.281526 -0.49477,0.118181 -1.316302,0.314332 -1.825624,0.435891 -0.509324,0.121559 -0.945258,0.238427 -0.968746,0.259706 -0.02349,0.02128 0.297984,0.44382 0.714376,0.938981 0.416392,0.49516 0.997844,1.195082 1.292114,1.555381 l 0.535036,0.655088 0.03874,0.3638438 c 0.02131,0.2001144 0.06822,1.1424162 0.10424,2.094005 0.03602,0.9515884 0.08349,1.7592766 0.105486,1.794863 0.03117,0.050438 0.7535,0.057397 3.276558,0.031567 1.780112,-0.018224 3.266334,-0.042348 3.302714,-0.053608 z"
       id="path5251" />
  </g>
</svg>
