<?xml version="1.0" encoding="UTF-8" standalone="no"?>
<svg
   xmlns:dc="http://purl.org/dc/elements/1.1/"
   xmlns:cc="http://creativecommons.org/ns#"
   xmlns:rdf="http://www.w3.org/1999/02/22-rdf-syntax-ns#"
   xmlns:svg="http://www.w3.org/2000/svg"
   xmlns="http://www.w3.org/2000/svg"
   xmlns:sodipodi="http://sodipodi.sourceforge.net/DTD/sodipodi-0.dtd"
   xmlns:inkscape="http://www.inkscape.org/namespaces/inkscape"
   width="13.229167mm"
   height="13.229167mm"
   viewBox="0 0 13.229167 13.229167"
   version="1.1"
   id="svg8"
   sodipodi:docname="VCS_resized_54.svg"
   inkscape:version="1.0.2-2 (e86c870879, 2021-01-15)">
  <defs
     id="defs2" />
  <sodipodi:namedview
     id="base"
     pagecolor="#ffffff"
     bordercolor="#666666"
     borderopacity="1.0"
     inkscape:pageopacity="0.0"
     inkscape:pageshadow="2"
     inkscape:zoom="2.8284271"
     inkscape:cx="15.430632"
     inkscape:cy="53.420665"
     inkscape:document-units="mm"
     inkscape:current-layer="layer1"
     inkscape:document-rotation="0"
     showgrid="false"
     inkscape:window-width="958"
     inkscape:window-height="1008"
     inkscape:window-x="1913"
     inkscape:window-y="0"
     inkscape:window-maximized="0" />
  <metadata
     id="metadata5">
    <rdf:RDF>
      <cc:Work
         rdf:about="">
        <dc:format>image/svg+xml</dc:format>
        <dc:type
           rdf:resource="http://purl.org/dc/dcmitype/StillImage" />
        <dc:title></dc:title>
      </cc:Work>
    </rdf:RDF>
  </metadata>
  <g
     inkscape:label="Ebene 1"
     inkscape:groupmode="layer"
     id="layer1"
     transform="translate(-34.117298,-12.457395)">
    <path
       style="fill:#000000;stroke-width:0.264582"
       d="m 37.368068,24.024557 c -0.646658,-0.119348 -0.985528,-0.407791 -1.16212,-0.989181 -0.105528,-0.347429 -0.10695,-0.381154 -0.02804,-0.664966 0.128282,-0.461402 0.307436,-0.732963 0.856602,-1.298434 0.793718,-0.817283 1.055134,-1.366268 0.93513,-1.963815 -0.102318,-0.509482 -0.262336,-0.752744 -0.99428,-1.511521 -0.384834,-0.398942 -0.786342,-0.855843 -0.892238,-1.015335 -0.55768,-0.839927 -0.435208,-1.784574 0.276922,-2.13595 0.528648,-0.260843 1.169376,-0.106447 1.881856,0.453469 0.190502,0.149709 0.354028,0.289227 0.36339,0.310038 0.0094,0.02081 0.200952,0.209825 0.425756,0.42003 0.743826,0.695525 1.399304,0.900002 2.07835,0.648343 0.269556,-0.0999 0.385422,-0.190117 0.767292,-0.597443 0.959978,-1.023971 1.195792,-1.241017 1.53826,-1.415829 0.783754,-0.400066 1.58639,-0.117162 1.794642,0.632554 0.02925,0.105288 0.05331,0.36318 0.05347,0.573094 4e-4,0.644368 -0.166542,0.956108 -1.072826,2.002186 -0.197312,0.227745 -0.435436,0.56986 -0.529168,0.760255 -0.151532,0.307805 -0.17042,0.396147 -0.17042,0.797077 0,0.351329 0.02384,0.496339 0.107946,0.656643 0.164744,0.313998 0.52685,0.708432 1.09682,1.194743 0.836606,0.713811 1.138504,1.296749 1.003908,1.938448 -0.07545,0.359711 -0.17341,0.488188 -0.566372,0.742813 -0.290438,0.188194 -0.350338,0.205985 -0.750908,0.223037 -0.506002,0.02154 -0.685904,-0.0274 -1.638456,-0.445737 -0.760744,-0.334096 -1.232032,-0.455716 -1.753218,-0.452432 -0.59881,0.0038 -1.021128,0.158186 -1.884736,0.689118 -0.716268,0.440351 -1.160966,0.555212 -1.737558,0.448795 z m 0.921526,-0.336703 c 0.15389,-0.05769 0.49411,-0.23626 0.756048,-0.396829 0.98419,-0.60331 1.64326,-0.778949 2.413996,-0.643319 0.498482,0.08772 1.070038,0.281372 1.581212,0.53574 0.584228,0.290719 0.867776,0.362394 1.303332,0.329453 0.685202,-0.05182 1.07442,-0.388957 1.087772,-0.942213 0.01016,-0.420743 -0.18783,-0.770736 -0.714378,-1.262867 -0.999838,-0.934487 -1.179558,-1.133825 -1.356502,-1.504579 -0.164184,-0.344017 -0.172394,-0.389076 -0.14938,-0.819865 0.03759,-0.703669 0.235184,-1.065546 1.201168,-2.199861 0.531864,-0.624545 0.675104,-1.024386 0.57661,-1.609537 -0.04744,-0.281856 -0.08986,-0.370395 -0.258052,-0.538582 -0.50708,-0.507081 -1.340204,-0.25996 -2.077504,0.616226 -0.617074,0.733317 -0.756656,0.873519 -1.068274,1.073031 -0.45669,0.292394 -0.638892,0.351487 -1.065282,0.345495 -0.305376,-0.0043 -0.445162,-0.03703 -0.732746,-0.171605 -0.432894,-0.202575 -0.640658,-0.361862 -1.327926,-1.018081 -0.638058,-0.609233 -1.078214,-0.857422 -1.520614,-0.857422 -0.385038,0 -0.643828,0.134167 -0.811866,0.420903 -0.115296,0.196738 -0.133066,0.280588 -0.113486,0.53551 0.03901,0.507919 0.237754,0.833352 0.98867,1.618932 0.734704,0.768616 0.99,1.116115 1.16261,1.582488 0.288076,0.778354 0.03424,1.488471 -0.864686,2.418953 -0.715822,0.740955 -0.915224,1.115301 -0.851194,1.597982 0.03901,0.294071 0.104768,0.435463 0.284266,0.611214 0.375242,0.367407 1.01442,0.481932 1.556206,0.278833 z"
       id="path890" />
  </g>
</svg>
