<?xml version="1.0" encoding="UTF-8" standalone="no"?>
<svg
   xmlns:dc="http://purl.org/dc/elements/1.1/"
   xmlns:cc="http://creativecommons.org/ns#"
   xmlns:rdf="http://www.w3.org/1999/02/22-rdf-syntax-ns#"
   xmlns:svg="http://www.w3.org/2000/svg"
   xmlns="http://www.w3.org/2000/svg"
   xmlns:sodipodi="http://sodipodi.sourceforge.net/DTD/sodipodi-0.dtd"
   xmlns:inkscape="http://www.inkscape.org/namespaces/inkscape"
   width="13.229167mm"
   height="13.229167mm"
   viewBox="0 0 13.229169 13.229168"
   version="1.1"
   id="svg8"
   sodipodi:docname="VCS_resized_324.svg"
   inkscape:version="1.0.2-2 (e86c870879, 2021-01-15)">
  <defs
     id="defs2" />
  <sodipodi:namedview
     id="base"
     pagecolor="#ffffff"
     bordercolor="#666666"
     borderopacity="1.0"
     inkscape:pageopacity="0.0"
     inkscape:pageshadow="2"
     inkscape:zoom="4"
     inkscape:cx="11.76563"
     inkscape:cy="31.894444"
     inkscape:document-units="mm"
     inkscape:current-layer="layer1"
     inkscape:document-rotation="0"
     showgrid="false"
     inkscape:window-width="958"
     inkscape:window-height="1008"
     inkscape:window-x="1913"
     inkscape:window-y="0"
     inkscape:window-maximized="0" />
  <metadata
     id="metadata5">
    <rdf:RDF>
      <cc:Work
         rdf:about="">
        <dc:format>image/svg+xml</dc:format>
        <dc:type
           rdf:resource="http://purl.org/dc/dcmitype/StillImage" />
        <dc:title></dc:title>
      </cc:Work>
    </rdf:RDF>
  </metadata>
  <g
     inkscape:label="Ebene 1"
     inkscape:groupmode="layer"
     id="layer1"
     transform="translate(-94.760605,16.861958)">
    <path
       style="fill:#000000;stroke-width:0.264582"
       d="m 101.10875,-4.260901 c -0.0679,-0.027222 -0.44111,-0.2763086 -0.82932,-0.5535252 -0.700999,-0.500579 -0.706223,-0.5058516 -0.762865,-0.769964 -0.03137,-0.1462638 -0.05703,-0.329793 -0.05703,-0.407843 0,-0.07805 -0.04743,-0.4400184 -0.105408,-0.8043746 -0.05797,-0.3643562 -0.135364,-0.8647646 -0.171978,-1.1120194 l -0.06657,-0.449554 -0.370416,-0.216281 c -0.20373,-0.118954 -0.97922,-0.539342 -1.723312,-0.9341946 -1.572628,-0.8345172 -2.033772,-1.1074972 -2.033772,-1.2039172 0,-0.100333 0.156404,-0.145802 2.46506,-0.716631 1.147174,-0.283646 2.104648,-0.532547 2.127718,-0.553113 0.02307,-0.02057 0.228534,-0.499532 0.456593,-1.064366 0.55875,-1.383887 1.30969,-3.120953 1.37929,-3.190553 0.1597,-0.1597 0.27773,0.08913 1.03885,2.190039 0.69408,1.915874 0.77591,2.120907 0.86559,2.168903 0.0459,0.02458 0.41623,0.141181 0.82291,0.259115 2.01354,0.583921 3.5334,1.062716 3.60698,1.136294 0.0812,0.08124 -0.24332,0.263723 -2.13189,1.1986874 l -2.02779,1.0038922 -0.0534,0.1989496 c -0.0293,0.1094228 -0.1503,0.755875 -0.2688,1.43656 -0.1185,0.6806856 -0.23799,1.2797188 -0.26553,1.3311854 -0.0702,0.1310804 -0.82276,0.6494194 -1.30607,0.8995184 -0.44525,0.2304112 -0.41551,0.2226754 -0.58887,0.153192 z m 0.42987,-0.3731788 c 0.12253,-0.061535 0.44263,-0.2563558 0.71133,-0.4329356 0.56198,-0.3693134 0.52984,-0.3080522 0.72763,-1.386641 0.27829,-1.5175696 0.35909,-1.9066208 0.4089,-1.968951 0.0281,-0.035173 0.89437,-0.4811876 1.925,-0.9911428 1.03064,-0.5099552 1.87389,-0.9495328 1.87389,-0.9768388 0,-0.05793 -0.3575,-0.181063 -1.45521,-0.501229 -1.83866,-0.536275 -2.49121,-0.733858 -2.5792,-0.780946 -0.0875,-0.04684 -0.20703,-0.27212 -0.30518,-0.575267 -0.0491,-0.151749 -1.04872,-2.862453 -1.19519,-3.241146 -0.0535,-0.138245 -0.12198,-0.251354 -0.15224,-0.251354 -0.0584,0 -0.33663,0.629635 -1.16929,2.645833 -0.28246,0.683948 -0.535429,1.271362 -0.562147,1.305365 -0.02672,0.034 -0.50567,0.172711 -1.064334,0.30824 -3.346904,0.81194 -3.227632,0.777316 -3.098908,0.899586 0.03978,0.03778 0.58429,0.341994 1.210028,0.6760292 2.142398,1.1436652 2.405852,1.290193 2.479672,1.37914 0.05572,0.06714 0.274718,1.3916242 0.377706,2.284348 0.08888,0.7703978 0.07185,0.7359666 0.520253,1.0519632 0.65489,0.4615128 0.98083,0.6678284 1.05504,0.6678284 0.0382,0 0.16972,-0.050346 0.29225,-0.1118816 z"
       id="path6103" />
  </g>
</svg>
