<?xml version="1.0" encoding="UTF-8" standalone="no"?>
<svg
   xmlns:dc="http://purl.org/dc/elements/1.1/"
   xmlns:cc="http://creativecommons.org/ns#"
   xmlns:rdf="http://www.w3.org/1999/02/22-rdf-syntax-ns#"
   xmlns:svg="http://www.w3.org/2000/svg"
   xmlns="http://www.w3.org/2000/svg"
   xmlns:sodipodi="http://sodipodi.sourceforge.net/DTD/sodipodi-0.dtd"
   xmlns:inkscape="http://www.inkscape.org/namespaces/inkscape"
   width="13.229167mm"
   height="13.229167mm"
   viewBox="0 0 13.229169 13.229168"
   version="1.1"
   id="svg8"
   sodipodi:docname="VCS_resized_338.svg"
   inkscape:version="1.0.2-2 (e86c870879, 2021-01-15)">
  <defs
     id="defs2" />
  <sodipodi:namedview
     id="base"
     pagecolor="#ffffff"
     bordercolor="#666666"
     borderopacity="1.0"
     inkscape:pageopacity="0.0"
     inkscape:pageshadow="2"
     inkscape:zoom="4"
     inkscape:cx="3.0166251"
     inkscape:cy="25.358664"
     inkscape:document-units="mm"
     inkscape:current-layer="layer1"
     inkscape:document-rotation="0"
     showgrid="false"
     inkscape:window-width="958"
     inkscape:window-height="1008"
     inkscape:window-x="1913"
     inkscape:window-y="0"
     inkscape:window-maximized="0" />
  <metadata
     id="metadata5">
    <rdf:RDF>
      <cc:Work
         rdf:about="">
        <dc:format>image/svg+xml</dc:format>
        <dc:type
           rdf:resource="http://purl.org/dc/dcmitype/StillImage" />
        <dc:title></dc:title>
      </cc:Work>
    </rdf:RDF>
  </metadata>
  <g
     inkscape:label="Ebene 1"
     inkscape:groupmode="layer"
     id="layer1"
     transform="translate(-97.075447,15.132701)">
    <path
       style="fill:#000000;stroke-width:0.264582"
       d="m 103.1845,-2.6575965 c -0.22412,-0.2399258 -0.56535,-0.7011962 -0.85739,-1.1590168 -0.25465,-0.3991922 -0.27913,-0.466379 -0.32786,-0.8995834 -0.0621,-0.5520854 -0.196,-1.5894517 -0.24365,-1.8874011 -0.0334,-0.2090472 -0.0361,-0.211047 -0.67585,-0.5148092 -0.35327,-0.167721 -0.89141,-0.4113568 -1.19588,-0.5414132 -0.76153,-0.3252888 -2.391649,-1.1367564 -2.439669,-1.2144544 -0.02163,-0.034995 -0.01714,-0.090358 0.01,-0.1230298 0.07572,-0.091233 1.055809,-0.3646216 2.458189,-0.6856882 0.6985,-0.1599184 1.47241,-0.3442424 1.71979,-0.4096094 0.53174,-0.1405 0.42177,0.02579 1.13692,-1.719329 0.8217,-2.00516 1.1538,-2.712228 1.27391,-2.712228 0.1411,0 0.38319,0.702531 1.03028,2.989792 0.20584,0.727604 0.40764,1.373925 0.44843,1.43627 0.0408,0.06234 0.21223,0.1615826 0.38096,0.2205302 1.34269,0.4690672 3.29524,1.200103 3.65521,1.3685124 0.38318,0.1792684 0.42953,0.2154582 0.37041,0.289169 -0.099,0.1234894 -1.12191,0.5356802 -2.16907,0.8740874 -1.82921,0.5911422 -2.16212,0.7157752 -2.24345,0.8399072 -0.0718,0.1095756 -0.31257,1.0308057 -0.51869,1.9845413 -0.0798,0.3690816 -0.11865,0.4392538 -0.52789,0.9525 -0.48938,0.6137598 -0.93567,1.0567738 -1.06457,1.0567738 -0.0463,0 -0.14534,-0.065484 -0.2201,-0.1455208 z m 0.68656,-0.5915566 c 0.6828,-0.7146734 0.75612,-0.8588644 1.07266,-2.1094238 0.15255,-0.602685 0.30298,-1.1619841 0.33428,-1.2428873 0.0727,-0.187887 0.21979,-0.2506668 1.88395,-0.8039978 1.3713,-0.4559554 1.99327,-0.686054 2.16228,-0.7999422 0.0909,-0.061237 0.082,-0.074817 -0.11414,-0.1748892 -0.11697,-0.059673 -0.30419,-0.141479 -0.41603,-0.181792 -0.11185,-0.040312 -0.87011,-0.3172048 -1.68503,-0.6153156 -0.81491,-0.2981108 -1.54481,-0.5649446 -1.62199,-0.5929634 -0.10638,-0.038619 -0.16628,-0.123742 -0.2476,-0.3518486 -0.13351,-0.374524 -0.33128,-1.03813 -0.51549,-1.729654 -0.17281,-0.64877 -0.4112,-1.432086 -0.55988,-1.839713 -0.0834,-0.228685 -0.12757,-0.291619 -0.17627,-0.251202 -0.078,0.06471 -0.55248,1.136697 -1.11291,2.514248 -0.51591,1.268122 -0.58094,1.394725 -0.7493,1.4587362 -0.15711,0.059733 -1.26049,0.3285918 -2.6101,0.6359974 -1.40339,0.3196574 -1.58052,0.3790708 -1.48243,0.497258 0.0487,0.058716 1.94252,0.9586462 2.85538,1.3568818 0.15849,0.06914 0.45615,0.2115406 0.66146,0.3164448 l 0.3733,0.190735 0.0649,0.3119732 c 0.0685,0.329326 0.13706,0.8507547 0.23234,1.7671819 0.0457,0.4397554 0.0888,0.6117748 0.20662,0.8248772 0.28689,0.518949 0.85462,1.2388728 0.97695,1.2388728 0.0364,0 0.24659,-0.1888098 0.46706,-0.4195774 z"
       id="path6327" />
  </g>
</svg>
