<?xml version="1.0" encoding="UTF-8" standalone="no"?>
<svg
   xmlns:dc="http://purl.org/dc/elements/1.1/"
   xmlns:cc="http://creativecommons.org/ns#"
   xmlns:rdf="http://www.w3.org/1999/02/22-rdf-syntax-ns#"
   xmlns:svg="http://www.w3.org/2000/svg"
   xmlns="http://www.w3.org/2000/svg"
   xmlns:sodipodi="http://sodipodi.sourceforge.net/DTD/sodipodi-0.dtd"
   xmlns:inkscape="http://www.inkscape.org/namespaces/inkscape"
   width="13.229167mm"
   height="13.229167mm"
   viewBox="0 0 13.229167 13.229167"
   version="1.1"
   id="svg8"
   sodipodi:docname="VCS_resized_13.svg"
   inkscape:version="1.0.2-2 (e86c870879, 2021-01-15)">
  <defs
     id="defs2" />
  <sodipodi:namedview
     id="base"
     pagecolor="#ffffff"
     bordercolor="#666666"
     borderopacity="1.0"
     inkscape:pageopacity="0.0"
     inkscape:pageshadow="2"
     inkscape:zoom="2.8284271"
     inkscape:cx="-23.339282"
     inkscape:cy="72.969649"
     inkscape:document-units="mm"
     inkscape:current-layer="layer1"
     inkscape:document-rotation="0"
     showgrid="false"
     inkscape:window-width="958"
     inkscape:window-height="1008"
     inkscape:window-x="1913"
     inkscape:window-y="0"
     inkscape:window-maximized="0" />
  <metadata
     id="metadata5">
    <rdf:RDF>
      <cc:Work
         rdf:about="">
        <dc:format>image/svg+xml</dc:format>
        <dc:type
           rdf:resource="http://purl.org/dc/dcmitype/StillImage" />
        <dc:title></dc:title>
      </cc:Work>
    </rdf:RDF>
  </metadata>
  <g
     inkscape:label="Ebene 1"
     inkscape:groupmode="layer"
     id="layer1"
     transform="translate(-44.375172,-7.2850585)">
    <path
       style="fill:#000000;stroke-width:0.264582"
       d="m 48.794016,19.163799 c -0.26461,-0.404676 -0.32116,-0.631943 -0.319312,-1.28323 0.0012,-0.431369 0.02971,-0.728331 0.08884,-0.926042 0.04787,-0.160072 0.125416,-0.42201 0.172328,-0.582083 0.09846,-0.335982 0.164756,-1.219402 0.112436,-1.498291 -0.05616,-0.299357 -0.450198,-0.640931 -1.380436,-1.196639 -1.268776,-0.757945 -1.779244,-1.180238 -1.965488,-1.625983 -0.06928,-0.165809 -0.06901,-0.200958 0.0024,-0.309873 0.04427,-0.06757 0.218174,-0.178002 0.38645,-0.24541 0.271458,-0.108742 0.389484,-0.122069 1.046788,-0.1182 0.608318,0.0036 0.85442,0.0304 1.375834,0.149948 0.384388,0.08813 0.866816,0.156688 1.222378,0.173715 l 0.587378,0.02813 0.22759,-0.205468 c 0.27013,-0.24387 0.527888,-0.58943 0.844012,-1.13151 0.54141,-0.9283951 0.988868,-1.4215271 1.571776,-1.7322141 0.288948,-0.154008 0.32735,-0.162227 0.428132,-0.09164 0.06089,0.04265 0.166236,0.238292 0.234098,0.434761 0.180952,0.523877 0.173704,1.2816071 -0.01912,1.9976311 -0.18757,0.696555 -0.27496,1.33516 -0.23093,1.68756 0.02967,0.23749 0.07274,0.324642 0.257446,0.521011 0.245452,0.260944 0.678092,0.573041 1.359524,0.980731 0.831006,0.497177 1.416782,1.036856 1.652872,1.522801 0.09497,0.195474 0.10086,0.242203 0.03982,0.315759 -0.134166,0.161659 -0.481622,0.295803 -0.9171,0.354069 -0.459116,0.06143 -0.38313,0.06989 -1.966214,-0.218884 -0.653794,-0.119259 -1.474972,-0.139947 -1.64663,-0.04148 -0.356128,0.204276 -0.795792,0.724927 -1.228084,1.454299 -0.496754,0.838137 -0.760502,1.150536 -1.22023,1.445324 -0.44782,0.287151 -0.601304,0.317399 -0.71651,0.141211 z m 0.736112,-0.452256 c 0.254982,-0.177747 0.62384,-0.659452 1.08555,-1.417658 0.220318,-0.361798 0.497406,-0.722415 0.770832,-1.003203 l 0.426876,-0.438366 0.419792,-0.01775 c 0.591018,-0.02499 1.285136,0.04328 1.8454,0.181489 0.62978,0.155362 1.603958,0.166894 1.871178,0.02215 0.224908,-0.121824 0.250454,-0.198359 0.138544,-0.415049 -0.15803,-0.30599 -0.67487,-0.756425 -1.325562,-1.155247 -0.936098,-0.573753 -1.013212,-0.629425 -1.439982,-1.039604 l -0.392954,-0.377679 0.02656,-0.707113 c 0.02168,-0.577006 0.0583,-0.82395 0.19904,-1.342112 0.203816,-0.750375 0.225468,-1.2667981 0.07192,-1.7152901 -0.13073,-0.381834 -0.205996,-0.421788 -0.51384,-0.272763 -0.439534,0.212775 -0.782864,0.624146 -1.41369,1.6938581 -0.29486,0.500003 -0.637612,0.921302 -0.910154,1.118731 -0.17577,0.127327 -0.265168,0.154252 -0.509506,0.153453 -0.362502,-0.0012 -1.218144,-0.119178 -1.963206,-0.270722 -0.976798,-0.19868 -1.909692,-0.122002 -2.06586,0.1698 -0.144854,0.270664 0.516712,0.895005 1.563152,1.475198 0.968352,0.536897 1.577036,1.045984 1.673058,1.399299 0.09415,0.346418 0.0123,1.178685 -0.194662,1.979506 -0.131462,0.508681 -0.181938,0.81831 -0.181938,1.116069 0,0.416376 0.09335,0.841967 0.217494,0.991547 0.09158,0.11035 0.333302,0.05873 0.601956,-0.128546 z"
       id="path200" />
  </g>
</svg>
