<?xml version="1.0" encoding="UTF-8" standalone="no"?>
<svg
   xmlns:dc="http://purl.org/dc/elements/1.1/"
   xmlns:cc="http://creativecommons.org/ns#"
   xmlns:rdf="http://www.w3.org/1999/02/22-rdf-syntax-ns#"
   xmlns:svg="http://www.w3.org/2000/svg"
   xmlns="http://www.w3.org/2000/svg"
   xmlns:sodipodi="http://sodipodi.sourceforge.net/DTD/sodipodi-0.dtd"
   xmlns:inkscape="http://www.inkscape.org/namespaces/inkscape"
   width="13.229167mm"
   height="13.229167mm"
   viewBox="0 0 13.229169 13.229168"
   version="1.1"
   id="svg8"
   sodipodi:docname="VCS_resized_234.svg"
   inkscape:version="1.0.2-2 (e86c870879, 2021-01-15)">
  <defs
     id="defs2" />
  <sodipodi:namedview
     id="base"
     pagecolor="#ffffff"
     bordercolor="#666666"
     borderopacity="1.0"
     inkscape:pageopacity="0.0"
     inkscape:pageshadow="2"
     inkscape:zoom="2.8284271"
     inkscape:cx="16.526652"
     inkscape:cy="64.522146"
     inkscape:document-units="mm"
     inkscape:current-layer="layer1"
     inkscape:document-rotation="0"
     showgrid="false"
     inkscape:window-width="958"
     inkscape:window-height="1008"
     inkscape:window-x="1913"
     inkscape:window-y="0"
     inkscape:window-maximized="0" />
  <metadata
     id="metadata5">
    <rdf:RDF>
      <cc:Work
         rdf:about="">
        <dc:format>image/svg+xml</dc:format>
        <dc:type
           rdf:resource="http://purl.org/dc/dcmitype/StillImage" />
        <dc:title></dc:title>
      </cc:Work>
    </rdf:RDF>
  </metadata>
  <g
     inkscape:label="Ebene 1"
     inkscape:groupmode="layer"
     id="layer1"
     transform="translate(-65.594566,-31.211124)">
    <path
       style="fill:#000000;stroke-width:0.264582"
       d="m 68.154522,44.025923 c -0.02739,-0.03638 -0.127042,-0.459052 -0.22145,-0.93927 -0.09441,-0.480219 -0.217882,-1.075532 -0.274388,-1.322917 -0.05651,-0.247385 -0.16302,-0.759354 -0.236694,-1.137708 -0.154468,-0.793264 -0.3854,-1.398261 -1.36769,-3.583116 -0.192512,-0.428193 -0.350022,-0.827653 -0.350022,-0.88769 0,-0.08401 0.08839,-0.149795 0.383646,-0.285544 0.211006,-0.09701 0.597958,-0.278048 0.859896,-0.4023 0.261938,-0.124253 0.85725,-0.405633 1.322916,-0.62529 0.465666,-0.219656 0.953824,-0.483745 1.084792,-0.586863 0.130968,-0.103118 0.805042,-0.747841 1.497942,-1.432718 0.6929,-0.684876 1.295732,-1.25323 1.33963,-1.26301 0.0472,-0.01051 0.648612,0.544357 1.471852,1.357953 l 1.392038,1.375733 0.919582,0.45079 c 0.50577,0.247935 1.324395,0.63966 1.819165,0.870501 0.597116,0.278591 0.905698,0.450718 0.917766,0.51193 0.01,0.05072 -0.125522,0.417135 -0.301158,0.814254 -1.013806,2.292256 -1.309374,3.070592 -1.43139,3.769357 -0.058,0.332161 -0.143633,0.751872 -0.190289,0.93269 -0.04666,0.180818 -0.173992,0.76774 -0.282968,1.30427 -0.108974,0.53653 -0.229802,1.013666 -0.268508,1.060302 -0.06341,0.0764 -0.464316,0.08479 -4.05262,0.08479 -3.123962,0 -3.992982,-0.01426 -4.032048,-0.06615 z m 7.84949,-0.238935 c 0.0332,-0.02138 0.11283,-0.300815 0.176958,-0.62096 0.06413,-0.320146 0.187496,-0.87974 0.274148,-1.243542 0.08665,-0.363802 0.213648,-0.971021 0.28221,-1.349375 0.09312,-0.513905 0.193625,-0.855236 0.397303,-1.349375 0.149954,-0.363802 0.303804,-0.744802 0.341888,-0.846667 0.03809,-0.101864 0.253232,-0.590021 0.478104,-1.084791 0.224872,-0.494771 0.412084,-0.945924 0.416028,-1.002564 0.0058,-0.08401 -0.187828,-0.194585 -1.051164,-0.600159 -0.582085,-0.273449 -1.375411,-0.650782 -1.762949,-0.838516 l -0.704616,-0.341337 -1.301944,-1.294233 c -0.716068,-0.711828 -1.32261,-1.294233 -1.34787,-1.294233 -0.02526,0 -0.38437,0.3488 -0.798024,0.775112 -0.413654,0.426311 -1.039216,1.039483 -1.39014,1.362604 -0.606006,0.557995 -0.672428,0.603079 -1.322916,0.89795 -1.347694,0.610918 -2.620116,1.213893 -2.644348,1.253102 -0.0268,0.04337 0.182794,0.557583 0.51664,1.267482 0.183632,0.390483 0.696496,1.61068 0.911902,2.169583 0.03926,0.101865 0.122976,0.459052 0.186038,0.79375 0.06306,0.334698 0.173368,0.858573 0.245126,1.164167 0.07176,0.305594 0.152558,0.650875 0.179554,0.767292 0.027,0.116416 0.102244,0.491463 0.16722,0.833437 l 0.118136,0.621771 3.786178,-8e-4 c 2.082398,-4.2e-4 3.813342,-0.01831 3.846538,-0.03969 z"
       id="path4643" />
  </g>
</svg>
