<?xml version="1.0" encoding="UTF-8" standalone="no"?>
<svg
   xmlns:dc="http://purl.org/dc/elements/1.1/"
   xmlns:cc="http://creativecommons.org/ns#"
   xmlns:rdf="http://www.w3.org/1999/02/22-rdf-syntax-ns#"
   xmlns:svg="http://www.w3.org/2000/svg"
   xmlns="http://www.w3.org/2000/svg"
   xmlns:sodipodi="http://sodipodi.sourceforge.net/DTD/sodipodi-0.dtd"
   xmlns:inkscape="http://www.inkscape.org/namespaces/inkscape"
   width="13.229167mm"
   height="13.229167mm"
   viewBox="0 0 13.229169 13.229168"
   version="1.1"
   id="svg8"
   sodipodi:docname="VCS_resized_354.svg"
   inkscape:version="1.0.2-2 (e86c870879, 2021-01-15)">
  <defs
     id="defs2" />
  <sodipodi:namedview
     id="base"
     pagecolor="#ffffff"
     bordercolor="#666666"
     borderopacity="1.0"
     inkscape:pageopacity="0.0"
     inkscape:pageshadow="2"
     inkscape:zoom="4"
     inkscape:cx="-2.8763257"
     inkscape:cy="18.17264"
     inkscape:document-units="mm"
     inkscape:current-layer="layer1"
     inkscape:document-rotation="0"
     showgrid="false"
     inkscape:window-width="958"
     inkscape:window-height="1008"
     inkscape:window-x="1913"
     inkscape:window-y="0"
     inkscape:window-maximized="0" />
  <metadata
     id="metadata5">
    <rdf:RDF>
      <cc:Work
         rdf:about="">
        <dc:format>image/svg+xml</dc:format>
        <dc:type
           rdf:resource="http://purl.org/dc/dcmitype/StillImage" />
        <dc:title></dc:title>
      </cc:Work>
    </rdf:RDF>
  </metadata>
  <g
     inkscape:label="Ebene 1"
     inkscape:groupmode="layer"
     id="layer1"
     transform="translate(-98.634621,13.231397)">
    <path
       style="fill:#000000;stroke-width:0.264582"
       d="m 104.02269,-1.0608337 c -0.35708,-0.60931 -0.48661,-1.2081684 -0.55506,-2.5661884 -0.0431,-0.8559054 -0.097,-1.3261684 -0.18905,-1.6505636 -0.025,-0.088251 -0.50794,-0.3902419 -0.97273,-0.6083173 -1.50922,-0.708114 -2.571795,-1.2918128 -2.873671,-1.5785778 -0.235042,-0.2232737 -0.176358,-0.2962617 0.391634,-0.4870935 0.523217,-0.1757886 0.734037,-0.2076038 2.561417,-0.3865404 0.58208,-0.056998 1.10595,-0.1138724 1.16416,-0.1263878 0.0582,-0.012516 0.15616,-0.024578 0.21768,-0.026804 0.21141,-0.00765 0.40633,-0.2975134 0.94822,-1.4100772 0.29868,-0.6132433 0.63279,-1.2561803 0.74246,-1.4287503 0.29733,-0.46786 0.77855,-1.081054 0.84839,-1.081054 0.10555,0 0.16426,0.116122 0.33443,0.661458 0.16781,0.537789 0.22134,0.905848 0.32201,2.2141681 0.0487,0.632605 0.14628,1.2698878 0.24179,1.5788128 0.016,0.051759 0.44042,0.2900818 1.01728,0.5712225 0.5444,0.2653252 1.22795,0.6037294 1.51899,0.75201 0.69025,0.3516666 1.45521,0.879513 1.45521,1.004135 0,0.1894681 -1.07928,0.5383383 -1.85208,0.5986739 -1.14867,0.08968 -2.4858,0.30073 -2.67393,0.4220474 -0.12322,0.07946 -0.42173,0.6676622 -0.72102,1.4207564 -0.11333,0.285171 -0.34237,0.7472892 -0.50899,1.0269294 -0.32919,0.5524928 -1.02174,1.33853596 -1.17933,1.33853596 -0.0603,0 -0.15189,-0.091775 -0.23781,-0.23839516 z m 0.55025,-0.3569176 c 0.11709,-0.1236928 0.26141,-0.2873016 0.32073,-0.3635752 0.20392,-0.26221 0.6438,-1.0668936 0.83208,-1.5221208 0.23094,-0.5583588 0.63873,-1.38333 0.73082,-1.4784812 0.12333,-0.1274042 1.0003,-0.2891652 2.34442,-0.432437 0.99971,-0.10656 1.49275,-0.2066216 1.80341,-0.3659983 l 0.18093,-0.092823 -0.2313,-0.187867 c -0.27599,-0.2241586 -0.88984,-0.5571304 -1.79235,-0.9722172 -0.52944,-0.243505 -1.646,-0.8212349 -1.73963,-0.9001167 -0.0777,-0.065434 -0.27929,-1.352822 -0.32239,-2.0584266 -0.0284,-0.4656667 -0.0858,-1.0133537 -0.12743,-1.2170827 -0.0804,-0.393142 -0.23115,-0.858498 -0.28994,-0.894829 -0.14669,-0.09066 -0.59601,0.601017 -1.21238,1.8663 -0.30683,0.6298577 -0.65076,1.2790595 -0.76428,1.4426709 -0.23127,0.3332946 -0.11535,0.2938262 -1.31186,0.4466468 -0.3347,0.042748 -1.03395,0.1138286 -1.55389,0.1579568 -0.99526,0.08447 -1.635267,0.2365206 -1.660017,0.394379 -0.01918,0.1222919 0.634647,0.5124887 1.811757,1.0812493 1.40814,0.6803834 1.86174,0.9544368 1.92752,1.1645329 0.0742,0.2368872 0.16193,1.0489326 0.21766,2.0140094 0.0503,0.871555 0.14508,1.3533872 0.36677,1.8653126 0.0662,0.1527968 0.15095,0.2778124 0.1884,0.2778124 0.0374,0 0.16389,-0.1012032 0.28097,-0.2248954 z"
       id="path6585" />
  </g>
</svg>
