<?xml version="1.0" encoding="UTF-8" standalone="no"?>
<svg
   xmlns:dc="http://purl.org/dc/elements/1.1/"
   xmlns:cc="http://creativecommons.org/ns#"
   xmlns:rdf="http://www.w3.org/1999/02/22-rdf-syntax-ns#"
   xmlns:svg="http://www.w3.org/2000/svg"
   xmlns="http://www.w3.org/2000/svg"
   xmlns:sodipodi="http://sodipodi.sourceforge.net/DTD/sodipodi-0.dtd"
   xmlns:inkscape="http://www.inkscape.org/namespaces/inkscape"
   width="13.229167mm"
   height="13.229167mm"
   viewBox="0 0 13.229169 13.229168"
   version="1.1"
   id="svg8"
   sodipodi:docname="VCS_resized_344.svg"
   inkscape:version="1.0.2-2 (e86c870879, 2021-01-15)">
  <defs
     id="defs2" />
  <sodipodi:namedview
     id="base"
     pagecolor="#ffffff"
     bordercolor="#666666"
     borderopacity="1.0"
     inkscape:pageopacity="0.0"
     inkscape:pageshadow="2"
     inkscape:zoom="4"
     inkscape:cx="16.128192"
     inkscape:cy="22.723574"
     inkscape:document-units="mm"
     inkscape:current-layer="layer1"
     inkscape:document-rotation="0"
     showgrid="false"
     inkscape:window-width="958"
     inkscape:window-height="1008"
     inkscape:window-x="1913"
     inkscape:window-y="0"
     inkscape:window-maximized="0" />
  <metadata
     id="metadata5">
    <rdf:RDF>
      <cc:Work
         rdf:about="">
        <dc:format>image/svg+xml</dc:format>
        <dc:type
           rdf:resource="http://purl.org/dc/dcmitype/StillImage" />
        <dc:title></dc:title>
      </cc:Work>
    </rdf:RDF>
  </metadata>
  <g
     inkscape:label="Ebene 1"
     inkscape:groupmode="layer"
     id="layer1"
     transform="translate(-93.606346,14.435499)">
    <path
       style="fill:#000000;stroke-width:0.264582"
       d="m 99.353449,-2.2080848 c -0.251972,-0.3716084 -0.433214,-0.7254014 -0.645924,-1.2608662 -0.132936,-0.3346466 -0.175804,-0.554564 -0.24044,-1.2334563 -0.09457,-0.9933024 -0.16943,-1.4890084 -0.237206,-1.5706752 -0.02769,-0.033358 -0.449096,-0.2485914 -0.93647,-0.4782958 -1.43256,-0.6751816 -2.938172,-1.4372658 -3.10196,-1.5700968 -0.141868,-0.115053 -0.146164,-0.1292468 -0.06399,-0.2114241 0.15686,-0.1568598 0.926252,-0.3581204 2.385648,-0.6240474 0.785812,-0.1431882 1.595428,-0.2962168 1.799146,-0.340063 0.203718,-0.043847 0.387864,-0.079721 0.409212,-0.079721 0.04573,0 0.239768,-0.3736524 0.42599,-0.8203034 0.535928,-1.285407 1.050945,-2.373108 1.403065,-2.963238 0.20898,-0.350223 0.25886,-0.399861 0.36201,-0.360278 0.11763,0.04514 0.47377,1.254037 0.7063,2.397569 0.12133,0.596636 0.28174,1.306236 0.35648,1.576889 0.1172,0.4244224 0.15688,0.502955 0.28856,0.5710502 0.084,0.043424 0.78894,0.3342964 1.56658,0.646383 1.43985,0.5778409 2.57387,1.1341269 2.53707,1.2445391 -0.061,0.1831292 -1.05271,0.5487912 -2.20139,0.8117358 -1.0363,0.2372186 -2.05403,0.5240596 -2.20094,0.620321 -0.11166,0.073157 -0.2676,0.500419 -0.63671,1.7444979 -0.1642,0.5534258 -0.58437,1.2137554 -1.15762,1.8193242 -0.460449,0.4864006 -0.536877,0.4938952 -0.817415,0.080156 z m 0.714011,-0.3439584 c 0.48194,-0.4928892 0.87668,-1.1170354 1.01819,-1.6098948 0.18009,-0.6272643 0.47526,-1.5027177 0.57674,-1.7105457 0.11657,-0.2387468 0.28621,-0.29755 2.36489,-0.8197548 1.0463,-0.2628536 1.58989,-0.4337786 1.77271,-0.5574084 0.0686,-0.046393 0.065,-0.064949 -0.0265,-0.1367092 -0.16989,-0.1332816 -1.11195,-0.5523684 -2.06565,-0.918928 -0.75726,-0.2910563 -1.68179,-0.6950433 -1.74705,-0.7633995 -0.0306,-0.032041 -0.0822,-0.1415992 -0.11472,-0.2434638 -0.0997,-0.312401 -0.4228,-1.6966326 -0.49407,-2.1166666 -0.0833,-0.490866 -0.34234,-1.438317 -0.45037,-1.647235 -0.0442,-0.08547 -0.10235,-0.141803 -0.12922,-0.125195 -0.0801,0.0495 -0.61007,1.073184 -0.835415,1.61368 -0.634,1.520635 -0.95309,2.1684324 -1.094342,2.2216734 -0.137142,0.051692 -1.872382,0.3917314 -2.7,0.5290946 -0.997264,0.1655208 -1.53312,0.3224435 -1.49494,0.4377865 0.03533,0.106746 0.774072,0.4973484 2.132536,1.1275626 0.699926,0.3247082 1.369518,0.651564 1.48798,0.7263458 0.212494,0.1341422 0.216532,0.1425882 0.300806,0.629148 0.04698,0.2712492 0.11936,0.8668432 0.160842,1.323542 0.0735,0.8092605 0.08164,0.8435517 0.320294,1.3493751 0.265386,0.5624868 0.552652,1.0214568 0.639428,1.0216198 0.02994,5.3e-5 0.199966,-0.148726 0.377821,-0.330627 z"
       id="path6425" />
  </g>
</svg>
