<?xml version="1.0" encoding="UTF-8" standalone="no"?>
<svg
   xmlns:dc="http://purl.org/dc/elements/1.1/"
   xmlns:cc="http://creativecommons.org/ns#"
   xmlns:rdf="http://www.w3.org/1999/02/22-rdf-syntax-ns#"
   xmlns:svg="http://www.w3.org/2000/svg"
   xmlns="http://www.w3.org/2000/svg"
   xmlns:sodipodi="http://sodipodi.sourceforge.net/DTD/sodipodi-0.dtd"
   xmlns:inkscape="http://www.inkscape.org/namespaces/inkscape"
   width="13.229167mm"
   height="13.229167mm"
   viewBox="0 0 13.229169 13.229168"
   version="1.1"
   id="svg8"
   sodipodi:docname="VCS_resized_254.svg"
   inkscape:version="1.0.2-2 (e86c870879, 2021-01-15)">
  <defs
     id="defs2" />
  <sodipodi:namedview
     id="base"
     pagecolor="#ffffff"
     bordercolor="#666666"
     borderopacity="1.0"
     inkscape:pageopacity="0.0"
     inkscape:pageshadow="2"
     inkscape:zoom="2.8284271"
     inkscape:cx="5.6732991"
     inkscape:cy="13.192714"
     inkscape:document-units="mm"
     inkscape:current-layer="layer1"
     inkscape:document-rotation="0"
     showgrid="false"
     inkscape:window-width="958"
     inkscape:window-height="1008"
     inkscape:window-x="1913"
     inkscape:window-y="0"
     inkscape:window-maximized="0" />
  <metadata
     id="metadata5">
    <rdf:RDF>
      <cc:Work
         rdf:about="">
        <dc:format>image/svg+xml</dc:format>
        <dc:type
           rdf:resource="http://purl.org/dc/dcmitype/StillImage" />
        <dc:title></dc:title>
      </cc:Work>
    </rdf:RDF>
  </metadata>
  <g
     inkscape:label="Ebene 1"
     inkscape:groupmode="layer"
     id="layer1"
     transform="translate(-76.541039,-3.5322995)">
    <path
       style="fill:#000000;stroke-width:0.264582"
       d="m 79.219937,16.411085 c -0.03845,-0.03846 -0.0703,-0.181334 -0.07077,-0.3175 -4e-4,-0.136166 -0.04885,-0.795262 -0.107512,-1.464658 -0.05866,-0.669396 -0.130578,-1.5 -0.159822,-1.845788 L 78.828663,12.154435 78.341119,11.39741 C 77.300085,9.7809661 77.108497,9.4807251 76.830935,9.0307571 c -0.157846,-0.25589 -0.276008,-0.476237 -0.262584,-0.489662 0.01342,-0.01342 0.879592,-0.311468 1.924816,-0.66232 l 1.900406,-0.637911 0.255634,-0.269833 c 0.140598,-0.148409 0.719628,-0.891157 1.286732,-1.650552 0.567106,-0.7593954 1.075742,-1.4124548 1.130304,-1.4512434 0.06006,-0.0427 0.12995,-0.053139 0.17713,-0.026458 0.04286,0.024236 0.479008,0.5798476 0.96922,1.2346912 0.490212,0.6548432 1.05147,1.3938772 1.247238,1.6422972 l 0.355944,0.451672 0.569734,0.201798 c 0.313352,0.110989 0.653076,0.233517 0.75494,0.272284 0.101864,0.03877 0.709084,0.240998 1.349374,0.449401 0.640292,0.208403 1.194202,0.407617 1.230912,0.442699 0.05326,0.0509 0.02083,0.132745 -0.160582,0.405254 -0.28559,0.428989 -1.637718,2.5838049 -1.905788,3.0371569 -0.189006,0.319638 -0.203144,0.374768 -0.247434,0.964786 -0.04896,0.652195 -0.188514,2.329271 -0.254632,3.059943 l -0.03831,0.423334 -3.912072,0.02646 c -3.198878,0.02163 -3.924816,0.01371 -3.981978,-0.04347 z m 7.532826,-0.200497 c 0.101504,-0.02723 0.118786,-0.07847 0.146986,-0.43584 0.01758,-0.222743 0.07818,-0.928863 0.134668,-1.569154 0.05649,-0.640292 0.117714,-1.366573 0.136048,-1.613959 l 0.03333,-0.449791 0.57001,-0.899584 c 0.313504,-0.49477 0.666622,-1.057925 0.784706,-1.2514539 0.118084,-0.193529 0.352242,-0.56072 0.520354,-0.815979 0.24878,-0.377748 0.29134,-0.472992 0.22872,-0.511848 -0.04231,-0.02626 -0.874168,-0.313909 -1.848564,-0.639228 l -1.771628,-0.591491 -0.31085,-0.370416 C 85.063073,6.6882991 83.461561,4.5707813 83.325435,4.3498647 83.208655,4.1603453 83.102807,4.2078869 82.854169,4.5615313 82.455979,5.1278909 81.451085,6.4575331 81.044511,6.9560101 l -0.388444,0.47625 -1.824582,0.614272 c -1.285346,0.432731 -1.82298,0.636528 -1.81916,0.689578 0.0049,0.06766 0.419024,0.731547 1.66245,2.6648999 l 0.408398,0.635 0.116688,1.217084 c 0.06418,0.669396 0.142964,1.598083 0.175082,2.06375 0.03285,0.476358 0.08323,0.86367 0.115178,0.885544 0.06671,0.04568 7.093344,0.05361 7.262642,0.0082 z"
       id="path4977" />
  </g>
</svg>
