<?xml version="1.0" encoding="UTF-8" standalone="no"?>
<svg
   xmlns:dc="http://purl.org/dc/elements/1.1/"
   xmlns:cc="http://creativecommons.org/ns#"
   xmlns:rdf="http://www.w3.org/1999/02/22-rdf-syntax-ns#"
   xmlns:svg="http://www.w3.org/2000/svg"
   xmlns="http://www.w3.org/2000/svg"
   xmlns:sodipodi="http://sodipodi.sourceforge.net/DTD/sodipodi-0.dtd"
   xmlns:inkscape="http://www.inkscape.org/namespaces/inkscape"
   width="13.229167mm"
   height="13.229167mm"
   viewBox="0 0 13.229169 13.229168"
   version="1.1"
   id="svg8"
   sodipodi:docname="VCS_resized_107.svg"
   inkscape:version="1.0.2-2 (e86c870879, 2021-01-15)">
  <defs
     id="defs2" />
  <sodipodi:namedview
     id="base"
     pagecolor="#ffffff"
     bordercolor="#666666"
     borderopacity="1.0"
     inkscape:pageopacity="0.0"
     inkscape:pageshadow="2"
     inkscape:zoom="2.8284271"
     inkscape:cx="6.1782939"
     inkscape:cy="50.20495"
     inkscape:document-units="mm"
     inkscape:current-layer="layer1"
     inkscape:document-rotation="0"
     showgrid="false"
     inkscape:window-width="958"
     inkscape:window-height="1008"
     inkscape:window-x="1913"
     inkscape:window-y="0"
     inkscape:window-maximized="0" />
  <metadata
     id="metadata5">
    <rdf:RDF>
      <cc:Work
         rdf:about="">
        <dc:format>image/svg+xml</dc:format>
        <dc:type
           rdf:resource="http://purl.org/dc/dcmitype/StillImage" />
        <dc:title></dc:title>
      </cc:Work>
    </rdf:RDF>
  </metadata>
  <g
     inkscape:label="Ebene 1"
     inkscape:groupmode="layer"
     id="layer1"
     transform="translate(-36.565311,-13.30822)">
    <path
       style="fill:#000000;stroke-width:0.264582"
       d="m 41.36356,25.836744 -0.743662,-0.17055 -0.738006,-0.55246 c -1.061296,-0.79447 -1.519782,-1.303914 -1.693766,-1.882018 -0.189186,-0.62862 -0.04236,-0.9611 0.813368,-1.841796 0.786542,-0.809494 1.021402,-1.198286 1.056004,-1.748124 0.03884,-0.617227 -0.123884,-0.965681 -0.960258,-2.056262 -0.68549,-0.893839 -0.919834,-1.504116 -0.863626,-2.249065 0.04869,-0.64537 0.347536,-1.167369 0.802108,-1.40107 0.171442,-0.08814 0.269884,-0.101968 0.543864,-0.07638 0.474926,0.04435 0.777748,0.261045 1.760342,1.259681 0.963534,0.979264 1.18189,1.113823 1.861888,1.147356 0.64422,0.03177 1.020488,-0.184083 1.782778,-1.022715 1.01312,-1.114583 1.273104,-1.321491 1.732626,-1.378904 0.52247,-0.06528 0.942182,0.190062 1.20907,0.735561 0.16254,0.33222 0.24125,0.903514 0.183156,1.329387 -0.05698,0.417712 -0.378656,1.054697 -0.80263,1.589372 -0.663114,0.836259 -0.881958,1.231234 -0.996862,1.799168 -0.05443,0.269042 -0.05126,0.362078 0.0208,0.60958 0.12114,0.416074 0.324808,0.695508 1.022768,1.403244 0.721588,0.731698 0.892516,1.025748 0.891206,1.533154 -0.0014,0.530694 -0.185336,0.833388 -0.998466,1.642868 -0.856988,0.85314 -1.226828,1.088342 -2.063288,1.31216 -0.561978,0.150372 -0.64507,0.158216 -1.832216,0.17294 -1.237656,0.01536 -1.24706,0.01462 -1.987202,-0.155124 z m 3.654076,-0.283876 c 0.631692,-0.148414 0.872664,-0.26986 1.478104,-0.74495 0.99205,-0.778464 1.461676,-1.420482 1.45761,-1.992678 -0.002,-0.284822 -0.187756,-0.590596 -0.695832,-1.145554 -1.01861,-1.112604 -1.15961,-1.34446 -1.197024,-1.96835 -0.01474,-0.245764 0.0024,-0.511052 0.04278,-0.661459 0.109912,-0.409621 0.446372,-1.005258 0.93397,-1.653414 0.25179,-0.334698 0.531218,-0.763323 0.620954,-0.9525 0.149924,-0.316067 0.16319,-0.389014 0.16359,-0.899584 6e-4,-0.656309 -0.09705,-0.902246 -0.464022,-1.169685 -0.194566,-0.141795 -0.257668,-0.160027 -0.488042,-0.141009 -0.504988,0.04169 -0.611242,0.124342 -1.94082,1.509741 -0.338184,0.352383 -0.548092,0.522215 -0.796732,0.64462 -0.607428,0.299036 -1.325918,0.26989 -1.932358,-0.07839 -0.138236,-0.07939 -0.608528,-0.506404 -1.04509,-0.948922 -0.637534,-0.646232 -0.860502,-0.837514 -1.13293,-0.971926 -0.638802,-0.315175 -1.074408,-0.187204 -1.36295,0.400403 -0.129084,0.262876 -0.149906,0.367972 -0.14961,0.755166 4e-4,0.429277 0.0117,0.472721 0.24951,0.9525 0.137042,0.27649 0.42943,0.740834 0.649752,1.031875 0.220322,0.291042 0.512856,0.753092 0.650074,1.026777 0.245552,0.489762 0.249488,0.505632 0.249488,1.006221 0,0.46649 -0.0142,0.537474 -0.171448,0.857178 -0.114348,0.232482 -0.341542,0.531808 -0.682192,0.89878 -0.67322,0.725244 -0.897064,1.011114 -0.973806,1.243648 -0.158508,0.480278 0.09746,1.078994 0.688794,1.61112 0.442782,0.398444 1.189336,0.971438 1.500358,1.15155 0.711734,0.412164 3.060906,0.54121 4.347876,0.23884 z"
       id="path1754" />
  </g>
</svg>
