<?xml version="1.0" encoding="UTF-8" standalone="no"?>
<svg
   xmlns:dc="http://purl.org/dc/elements/1.1/"
   xmlns:cc="http://creativecommons.org/ns#"
   xmlns:rdf="http://www.w3.org/1999/02/22-rdf-syntax-ns#"
   xmlns:svg="http://www.w3.org/2000/svg"
   xmlns="http://www.w3.org/2000/svg"
   xmlns:sodipodi="http://sodipodi.sourceforge.net/DTD/sodipodi-0.dtd"
   xmlns:inkscape="http://www.inkscape.org/namespaces/inkscape"
   width="13.229167mm"
   height="13.229167mm"
   viewBox="0 0 13.229169 13.229168"
   version="1.1"
   id="svg8"
   sodipodi:docname="VCS_resized_270.svg"
   inkscape:version="1.0.2-2 (e86c870879, 2021-01-15)">
  <defs
     id="defs2" />
  <sodipodi:namedview
     id="base"
     pagecolor="#ffffff"
     bordercolor="#666666"
     borderopacity="1.0"
     inkscape:pageopacity="0.0"
     inkscape:pageshadow="2"
     inkscape:zoom="4"
     inkscape:cx="17.37284"
     inkscape:cy="56.92264"
     inkscape:document-units="mm"
     inkscape:current-layer="layer1"
     inkscape:document-rotation="0"
     showgrid="false"
     inkscape:window-width="958"
     inkscape:window-height="1008"
     inkscape:window-x="1913"
     inkscape:window-y="0"
     inkscape:window-maximized="0" />
  <metadata
     id="metadata5">
    <rdf:RDF>
      <cc:Work
         rdf:about="">
        <dc:format>image/svg+xml</dc:format>
        <dc:type
           rdf:resource="http://purl.org/dc/dcmitype/StillImage" />
        <dc:title></dc:title>
      </cc:Work>
    </rdf:RDF>
  </metadata>
  <g
     inkscape:label="Ebene 1"
     inkscape:groupmode="layer"
     id="layer1"
     transform="translate(-81.094856,19.981728)">
    <path
       style="fill:#000000;stroke-width:0.264582"
       d="m 84.098132,-7.1058453 c -0.01064,-0.036584 -0.04609,-0.6856414 -0.07879,-1.4423496 -0.0327,-0.7567084 -0.07463,-1.7269161 -0.09318,-2.1560181 l -0.03372,-0.780185 -0.655886,-0.807315 c -0.360738,-0.444023 -0.990002,-1.209014 -1.398364,-1.699978 -0.408362,-0.490965 -0.722694,-0.912106 -0.698514,-0.935869 0.0443,-0.04354 1.353898,-0.377205 3.113128,-0.793173 0.53711,-0.126999 0.989124,-0.26214 1.036478,-0.309882 0.09667,-0.09746 0.632506,-0.940086 1.46715,-2.307164 0.781876,-1.280644 0.831922,-1.349791 0.97514,-1.347271 0.09793,0.0017 0.22967,0.184471 0.728108,1.010044 0.334698,0.554367 0.846666,1.378884 1.137708,1.832258 0.480146,0.747958 0.548774,0.831108 0.740832,0.897618 0.116418,0.04031 0.99748,0.262981 1.957918,0.494814 1.8178,0.438786 1.984374,0.487344 1.984374,0.578457 0,0.03028 -0.232172,0.337816 -0.515936,0.683403 -0.283766,0.345588 -0.90854,1.112569 -1.388388,1.704402 l -0.872448,1.076061 -0.04341,1.006566 c -0.02388,0.5536111 -0.07181,1.5304403 -0.10651,2.1707321 l -0.0631,1.1641666 -3.586622,0.0136 c -2.843762,0.010782 -3.590628,-1.588e-4 -3.605962,-0.052917 z m 6.93196,-0.2581298 c 0.02016,-0.032627 0.07322,-0.9786798 0.117896,-2.1023388 l 0.08123,-2.0430171 0.268874,-0.319368 c 0.262368,-0.311641 1.076122,-1.317563 1.92661,-2.381579 0.232636,-0.291042 0.404926,-0.54816 0.38287,-0.571374 -0.02206,-0.02321 -0.866396,-0.24293 -1.87631,-0.488258 -1.009912,-0.245328 -1.86895,-0.464459 -1.908972,-0.48696 -0.09989,-0.05616 -1.474518,-2.207085 -2.115882,-3.3108 -0.08106,-0.139502 -0.174056,-0.244752 -0.20665,-0.233887 -0.03259,0.01086 -0.309524,0.437068 -0.615402,0.947119 -0.997604,1.663504 -1.603638,2.577011 -1.746444,2.632503 -0.07294,0.02834 -0.846988,0.222507 -1.720114,0.431475 -0.873124,0.208968 -1.688702,0.404586 -1.812396,0.434706 -0.123692,0.03012 -0.224896,0.07355 -0.224896,0.09651 0,0.02296 0.256778,0.346367 0.570616,0.718689 0.555742,0.659304 1.429394,1.732324 1.818282,2.233214 l 0.192854,0.248398 0.062,1.426002 c 0.0341,0.7843007 0.07571,1.7415167 0.09246,2.1271469 l 0.03046,0.7011458 H 87.6703 c 2.397544,0 3.333334,-0.016522 3.359786,-0.059322 z"
       id="path5235" />
  </g>
</svg>
