<?xml version="1.0" encoding="UTF-8" standalone="no"?>
<svg
   xmlns:dc="http://purl.org/dc/elements/1.1/"
   xmlns:cc="http://creativecommons.org/ns#"
   xmlns:rdf="http://www.w3.org/1999/02/22-rdf-syntax-ns#"
   xmlns:svg="http://www.w3.org/2000/svg"
   xmlns="http://www.w3.org/2000/svg"
   xmlns:sodipodi="http://sodipodi.sourceforge.net/DTD/sodipodi-0.dtd"
   xmlns:inkscape="http://www.inkscape.org/namespaces/inkscape"
   width="13.229167mm"
   height="13.229167mm"
   viewBox="0 0 13.229169 13.229168"
   version="1.1"
   id="svg8"
   sodipodi:docname="VCS_resized_355.svg"
   inkscape:version="1.0.2-2 (e86c870879, 2021-01-15)">
  <defs
     id="defs2" />
  <sodipodi:namedview
     id="base"
     pagecolor="#ffffff"
     bordercolor="#666666"
     borderopacity="1.0"
     inkscape:pageopacity="0.0"
     inkscape:pageshadow="2"
     inkscape:zoom="4"
     inkscape:cx="5.9929296"
     inkscape:cy="14.124512"
     inkscape:document-units="mm"
     inkscape:current-layer="layer1"
     inkscape:document-rotation="0"
     showgrid="false"
     inkscape:window-width="958"
     inkscape:window-height="1008"
     inkscape:window-x="1913"
     inkscape:window-y="0"
     inkscape:window-maximized="0" />
  <metadata
     id="metadata5">
    <rdf:RDF>
      <cc:Work
         rdf:about="">
        <dc:format>image/svg+xml</dc:format>
        <dc:type
           rdf:resource="http://purl.org/dc/dcmitype/StillImage" />
        <dc:title></dc:title>
      </cc:Work>
    </rdf:RDF>
  </metadata>
  <g
     inkscape:label="Ebene 1"
     inkscape:groupmode="layer"
     id="layer1"
     transform="translate(-96.287964,12.16033)">
    <path
       style="fill:#000000;stroke-width:0.264582"
       d="m 101.68638,0.11534479 c -0.39752,-0.6359974 -0.52281,-1.17813499 -0.58495,-2.53097659 -0.0275,-0.598949 -0.0784,-1.261164 -0.1132,-1.4715893 -0.0602,-0.3646514 -0.0738,-0.3899026 -0.28981,-0.5385134 -0.12465,-0.085757 -0.59122,-0.3341354 -1.036831,-0.551952 -1.237348,-0.604819 -1.722478,-0.8643064 -2.199152,-1.1762862 -0.67078,-0.4390204 -0.676556,-0.561133 -0.03678,-0.777493 0.4607,-0.1557998 0.8851,-0.2194426 2.140106,-0.32093 0.538427,-0.04354 1.205177,-0.1077886 1.481667,-0.1427734 0.44995,-0.056933 0.51847,-0.080318 0.65291,-0.2228358 0.0826,-0.087574 0.40862,-0.6842795 0.72446,-1.3260117 0.69218,-1.4063814 1.40321,-2.4568264 1.60943,-2.3776924 0.0834,0.032 0.29856,0.636097 0.42187,1.18445 0.0425,0.1891768 0.0909,0.6058956 0.10745,0.9260414 0.0641,1.2395354 0.17667,2.1340127 0.29691,2.3599641 0.0247,0.046501 0.49257,0.3045296 1.03962,0.5733966 1.847,0.9077722 2.24557,1.1365372 2.76735,1.5883836 l 0.18521,0.1603846 -0.12124,0.103341 c -0.27036,0.2304632 -1.09679,0.44529 -1.94251,0.504944 -1.29179,0.091119 -2.35533,0.2623209 -2.54207,0.4092075 -0.11774,0.092613 -0.50056,0.8278394 -0.71745,1.3778886 -0.15297,0.3879538 -0.40805,0.8762142 -0.66993,1.28233739 -0.27554,0.4273186 -0.8906,1.0857776 -1.01421,1.0857776 -0.0464,0 -0.11791,-0.053578 -0.15884,-0.1190626 z m 0.41908,-0.4233332 c 0.41746,-0.419841 0.88043,-1.16991939 1.20847,-1.95790819 0.25245,-0.6064176 0.62961,-1.3332624 0.74691,-1.439418 0.16424,-0.1486341 1.24477,-0.3379397 2.43701,-0.4269557 0.91183,-0.06808 1.56296,-0.2040556 1.77767,-0.371231 0.0971,-0.075571 0.0939,-0.084637 -0.0843,-0.2400322 -0.25145,-0.219258 -1.06552,-0.6749812 -1.77789,-0.9952872 -0.323,-0.1452298 -0.704,-0.3282606 -0.84667,-0.406736 -0.14267,-0.078476 -0.40707,-0.2243 -0.58755,-0.3240548 -0.18048,-0.099755 -0.33976,-0.2216442 -0.35395,-0.2708646 -0.022,-0.07617 -0.0923,-0.4521628 -0.21476,-1.1478249 -0.0154,-0.087312 -0.0411,-0.4683124 -0.0571,-0.8466666 -0.0357,-0.8403764 -0.10555,-1.3289754 -0.24983,-1.7462504 -0.13312,-0.385018 -0.14989,-0.406592 -0.25428,-0.327166 -0.23457,0.178462 -0.57675,0.735825 -1.13815,1.8538768 -0.3423,0.6816868 -0.69904,1.3451051 -0.79277,1.4742635 l -0.17042,0.2348326 -0.68091,0.087073 c -0.64894,0.082986 -1.393871,0.155357 -2.321327,0.225524 -0.70419,0.053275 -1.349376,0.2277608 -1.349376,0.3649292 0,0.1148058 0.87593,0.6313894 1.968852,1.1611404 0.57169,0.2771034 1.205471,0.6102518 1.408411,0.7403296 l 0.36897,0.2365052 0.057,0.3610122 c 0.0886,0.5616741 0.16556,1.4726815 0.16556,1.9599345 0,0.7665746 0.32369,1.97295339 0.52937,1.97295339 0.0221,0 0.11711,-0.077391 0.21116,-0.171979 z"
       id="path6601" />
  </g>
</svg>
