<?xml version="1.0" encoding="UTF-8" standalone="no"?>
<svg
   xmlns:dc="http://purl.org/dc/elements/1.1/"
   xmlns:cc="http://creativecommons.org/ns#"
   xmlns:rdf="http://www.w3.org/1999/02/22-rdf-syntax-ns#"
   xmlns:svg="http://www.w3.org/2000/svg"
   xmlns="http://www.w3.org/2000/svg"
   xmlns:sodipodi="http://sodipodi.sourceforge.net/DTD/sodipodi-0.dtd"
   xmlns:inkscape="http://www.inkscape.org/namespaces/inkscape"
   width="13.229167mm"
   height="13.229167mm"
   viewBox="0 0 13.229167 13.229167"
   version="1.1"
   id="svg8"
   sodipodi:docname="VCS_resized_85.svg"
   inkscape:version="1.0.2-2 (e86c870879, 2021-01-15)">
  <defs
     id="defs2" />
  <sodipodi:namedview
     id="base"
     pagecolor="#ffffff"
     bordercolor="#666666"
     borderopacity="1.0"
     inkscape:pageopacity="0.0"
     inkscape:pageshadow="2"
     inkscape:zoom="2.8284271"
     inkscape:cx="3.4988591"
     inkscape:cy="48.880903"
     inkscape:document-units="mm"
     inkscape:current-layer="layer1"
     inkscape:document-rotation="0"
     showgrid="false"
     inkscape:window-width="958"
     inkscape:window-height="1008"
     inkscape:window-x="1913"
     inkscape:window-y="0"
     inkscape:window-maximized="0" />
  <metadata
     id="metadata5">
    <rdf:RDF>
      <cc:Work
         rdf:about="">
        <dc:format>image/svg+xml</dc:format>
        <dc:type
           rdf:resource="http://purl.org/dc/dcmitype/StillImage" />
        <dc:title></dc:title>
      </cc:Work>
    </rdf:RDF>
  </metadata>
  <g
     inkscape:label="Ebene 1"
     inkscape:groupmode="layer"
     id="layer1"
     transform="translate(-37.274246,-13.658541)">
    <path
       style="fill:#000000;stroke-width:0.264582"
       d="m 41.242992,25.75611 c -0.431604,-0.05833 -0.969724,-0.254814 -1.277162,-0.466336 -0.295498,-0.203308 -0.78528,-0.73325 -0.89882,-0.97252 -0.05226,-0.110124 -0.08881,-0.316918 -0.08881,-0.502448 0,-0.495146 0.21602,-0.85682 0.953812,-1.596934 0.9468,-0.949778 1.18329,-1.40258 1.064934,-2.03901 -0.09215,-0.495491 -0.32471,-0.898803 -0.956802,-1.659284 -0.901952,-1.085157 -1.15547,-1.632054 -1.099514,-2.371912 0.07193,-0.951047 0.771596,-1.556926 1.55449,-1.346114 0.372404,0.100278 0.847116,0.463192 1.280254,0.978746 0.725184,0.863169 1.00919,1.13426 1.378908,1.316198 0.299428,0.147349 0.400238,0.170109 0.744194,0.168018 0.326904,-0.002 0.449748,-0.02864 0.68889,-0.149479 0.365804,-0.184838 0.43147,-0.246018 1.037252,-0.966393 0.909334,-1.08135 1.296332,-1.363557 1.874376,-1.366835 0.302928,-0.0017 0.378908,0.01969 0.620892,0.174975 0.224198,0.143867 0.30803,0.242551 0.448582,0.528054 0.161474,0.328 0.172632,0.386041 0.169426,0.881401 -0.0051,0.794635 -0.17521,1.154948 -0.99868,2.115811 -0.556732,0.649623 -0.784034,1.005256 -0.927314,1.450855 -0.248638,0.77326 -0.0562,1.208126 0.996762,2.252479 0.880826,0.87362 1.040098,1.131036 1.035634,1.673796 -0.0048,0.58215 -0.312736,0.984544 -1.02982,1.345662 -0.55702,0.28051 -1.109756,0.446634 -1.679514,0.504774 -0.694578,0.07088 -4.447606,0.106548 -4.891972,0.0465 z m 3.026876,-0.265992 c 1.81742,-0.04621 2.097192,-0.07775 2.838838,-0.320092 0.902546,-0.294912 1.383054,-0.71671 1.435246,-1.259884 0.03797,-0.39518 -0.123844,-0.670508 -0.809882,-1.378 -1.084616,-1.118538 -1.268374,-1.448503 -1.2299,-2.208468 0.0198,-0.39095 0.04741,-0.486174 0.268624,-0.926041 0.139182,-0.276757 0.40861,-0.686175 0.618642,-0.940075 0.62882,-0.760162 0.853666,-1.099396 0.991632,-1.496117 0.321742,-0.925171 -0.103302,-1.839702 -0.853534,-1.836471 -0.51471,0.0022 -0.93966,0.311403 -1.67358,1.217668 -0.481056,0.594021 -0.81807,0.905901 -1.18921,1.100517 -0.233578,0.122482 -0.326594,0.138877 -0.79375,0.139903 -0.50349,0.0011 -0.54544,-0.0077 -0.864552,-0.180565 -0.334638,-0.181322 -0.691462,-0.532677 -1.500618,-1.47762 -0.562872,-0.657329 -1.209604,-0.944217 -1.684814,-0.747379 -0.410608,0.17008 -0.683044,0.760723 -0.603088,1.307494 0.079,0.540205 0.26943,0.883581 0.976582,1.760903 0.717802,0.890535 0.95133,1.31483 1.065902,1.936636 0.05304,0.287844 0.04873,0.384917 -0.02966,0.668491 -0.135216,0.489121 -0.284844,0.70807 -1.00716,1.473772 -0.744508,0.789228 -0.934972,1.087688 -0.93793,1.469754 -0.0049,0.632018 0.623148,1.271658 1.542634,1.571114 0.248292,0.08086 0.677126,0.123098 1.640416,0.161556 0.07276,0.0029 0.882386,-0.01378 1.799166,-0.0371 z"
       id="path1402" />
  </g>
</svg>
