<?xml version="1.0" encoding="UTF-8" standalone="no"?>
<svg
   xmlns:dc="http://purl.org/dc/elements/1.1/"
   xmlns:cc="http://creativecommons.org/ns#"
   xmlns:rdf="http://www.w3.org/1999/02/22-rdf-syntax-ns#"
   xmlns:svg="http://www.w3.org/2000/svg"
   xmlns="http://www.w3.org/2000/svg"
   xmlns:sodipodi="http://sodipodi.sourceforge.net/DTD/sodipodi-0.dtd"
   xmlns:inkscape="http://www.inkscape.org/namespaces/inkscape"
   width="13.229167mm"
   height="13.229167mm"
   viewBox="0 0 13.229167 13.229167"
   version="1.1"
   id="svg8"
   sodipodi:docname="VCS_resized_66.svg"
   inkscape:version="1.0.2-2 (e86c870879, 2021-01-15)">
  <defs
     id="defs2" />
  <sodipodi:namedview
     id="base"
     pagecolor="#ffffff"
     bordercolor="#666666"
     borderopacity="1.0"
     inkscape:pageopacity="0.0"
     inkscape:pageshadow="2"
     inkscape:zoom="2.8284271"
     inkscape:cx="12.956429"
     inkscape:cy="55.53552"
     inkscape:document-units="mm"
     inkscape:current-layer="layer1"
     inkscape:document-rotation="0"
     showgrid="false"
     inkscape:window-width="958"
     inkscape:window-height="1008"
     inkscape:window-x="1913"
     inkscape:window-y="0"
     inkscape:window-maximized="0" />
  <metadata
     id="metadata5">
    <rdf:RDF>
      <cc:Work
         rdf:about="">
        <dc:format>image/svg+xml</dc:format>
        <dc:type
           rdf:resource="http://purl.org/dc/dcmitype/StillImage" />
        <dc:title></dc:title>
      </cc:Work>
    </rdf:RDF>
  </metadata>
  <g
     inkscape:label="Ebene 1"
     inkscape:groupmode="layer"
     id="layer1"
     transform="translate(-34.771931,-11.897839)">
    <path
       style="fill:#000000;stroke-width:0.264582"
       d="m 37.905786,23.584068 c -1.06971,-0.357518 -1.506726,-1.198556 -1.085476,-2.089 0.119156,-0.251874 0.31747,-0.499224 0.806938,-1.006462 0.808514,-0.837868 0.966454,-1.116511 0.966454,-1.705045 0,-0.596437 -0.215228,-0.996123 -1.006414,-1.868949 -0.849692,-0.937369 -1.048834,-1.265068 -1.13393,-1.865954 -0.03662,-0.258613 -0.02967,-0.414644 0.02844,-0.637724 0.101688,-0.39041 0.194498,-0.535977 0.480986,-0.7544 0.219218,-0.167136 0.269834,-0.182321 0.617358,-0.185208 0.62851,-0.0052 0.903002,0.161462 1.860226,1.129619 0.91007,0.920464 1.22416,1.123324 1.794004,1.158686 0.559388,0.03471 0.866702,-0.118949 1.433914,-0.716984 1.148542,-1.210955 1.282202,-1.334093 1.623188,-1.495406 1.033116,-0.488744 1.911054,0.21279 1.830824,1.462955 -0.01864,0.290555 -0.0654,0.468587 -0.188722,0.718576 -0.153962,0.312114 -0.264306,0.456105 -1.065692,1.390658 -0.1747,0.203729 -0.395796,0.523954 -0.491326,0.711612 -0.15853,0.311416 -0.173656,0.383001 -0.17331,0.820208 6e-4,0.664485 0.07208,0.783194 1.054254,1.749014 0.884194,0.869472 1.041416,1.104784 1.078234,1.613774 0.0341,0.471438 -0.06203,0.72707 -0.391522,1.041198 -0.542082,0.516794 -1.213222,0.59593 -2.45572,0.289556 -0.363802,-0.08971 -0.923396,-0.203554 -1.243542,-0.252996 -0.69892,-0.107938 -1.20939,-0.05986 -2.090208,0.19686 -0.305594,0.08907 -0.674688,0.19683 -0.820208,0.23947 -0.382346,0.112034 -1.168786,0.142826 -1.42875,0.05594 z m 1.5875,-0.406816 c 1.082722,-0.328478 1.440768,-0.394856 2.116666,-0.392408 0.648294,0.0024 1.02324,0.06067 2.090208,0.325164 0.715456,0.177352 1.240448,0.18248 1.627686,0.0159 0.499918,-0.21506 0.8098,-0.709096 0.727474,-1.159796 -0.06223,-0.340656 -0.296312,-0.654448 -1.032544,-1.384128 -0.59135,-0.586088 -0.757372,-0.78502 -0.904402,-1.083679 -0.164498,-0.334141 -0.180088,-0.407139 -0.180088,-0.843174 0,-0.728886 0.211588,-1.149272 1.079236,-2.144238 0.780488,-0.895016 0.969262,-1.393327 0.793004,-2.093309 -0.08033,-0.319017 -0.39932,-0.637122 -0.687766,-0.685855 -0.595632,-0.100631 -1.095612,0.187451 -1.797844,1.035898 -0.565202,0.682883 -0.860212,0.95169 -1.25861,1.146813 -0.257802,0.126263 -0.361298,0.145743 -0.773854,0.14565 -0.71749,-1.59e-4 -0.948478,-0.137511 -1.97056,-1.171724 -0.816846,-0.826543 -1.08888,-1.022897 -1.535168,-1.108089 -0.40179,-0.0767 -0.76776,0.120064 -0.973534,0.523413 -0.08615,0.16887 -0.104766,0.286703 -0.08882,0.562198 0.03022,0.522054 0.243132,0.921894 0.855886,1.607322 0.675304,0.755395 0.89304,1.050249 1.102996,1.493658 0.155378,0.328143 0.175032,0.420157 0.175032,0.819442 0,0.722481 -0.161496,1.018765 -1.040364,1.908674 -0.67254,0.68099 -0.863674,1.003634 -0.854564,1.44255 0.009,0.431468 0.19909,0.724888 0.642654,0.991758 0.184374,0.110928 0.398688,0.212898 0.47625,0.226598 0.296506,0.05237 0.902438,-0.02434 1.411024,-0.178634 z"
       id="path1082" />
  </g>
</svg>
