<?xml version="1.0" encoding="UTF-8" standalone="no"?>
<svg
   xmlns:dc="http://purl.org/dc/elements/1.1/"
   xmlns:cc="http://creativecommons.org/ns#"
   xmlns:rdf="http://www.w3.org/1999/02/22-rdf-syntax-ns#"
   xmlns:svg="http://www.w3.org/2000/svg"
   xmlns="http://www.w3.org/2000/svg"
   xmlns:sodipodi="http://sodipodi.sourceforge.net/DTD/sodipodi-0.dtd"
   xmlns:inkscape="http://www.inkscape.org/namespaces/inkscape"
   width="13.229167mm"
   height="13.229167mm"
   viewBox="0 0 13.229167 13.229167"
   version="1.1"
   id="svg8"
   sodipodi:docname="VCS_resized_53.svg"
   inkscape:version="1.0.2-2 (e86c870879, 2021-01-15)">
  <defs
     id="defs2" />
  <sodipodi:namedview
     id="base"
     pagecolor="#ffffff"
     bordercolor="#666666"
     borderopacity="1.0"
     inkscape:pageopacity="0.0"
     inkscape:pageshadow="2"
     inkscape:zoom="2.8284271"
     inkscape:cx="2.5008049"
     inkscape:cy="16.818989"
     inkscape:document-units="mm"
     inkscape:current-layer="layer1"
     inkscape:document-rotation="0"
     showgrid="false"
     inkscape:window-width="958"
     inkscape:window-height="1008"
     inkscape:window-x="1913"
     inkscape:window-y="0"
     inkscape:window-maximized="0" />
  <metadata
     id="metadata5">
    <rdf:RDF>
      <cc:Work
         rdf:about="">
        <dc:format>image/svg+xml</dc:format>
        <dc:type
           rdf:resource="http://purl.org/dc/dcmitype/StillImage" />
        <dc:title></dc:title>
      </cc:Work>
    </rdf:RDF>
  </metadata>
  <g
     inkscape:label="Ebene 1"
     inkscape:groupmode="layer"
     id="layer1"
     transform="translate(-37.538315,-22.141588)">
    <path
       style="fill:#000000;stroke-width:0.264582"
       d="M 40.79546,33.690426 C 40.210382,33.57734 39.925322,33.367122 39.705272,32.88647 39.598424,32.653086 39.577904,32.53853 39.595404,32.273138 39.628684,31.76841 39.82603,31.403736 40.370416,30.841 c 0.822874,-0.850613 1.034614,-1.218578 1.038444,-1.804626 0.004,-0.605927 -0.177892,-0.918463 -1.07323,-1.844486 -0.933142,-0.965119 -1.17697,-1.365071 -1.181408,-1.937852 -0.0058,-0.750288 0.433486,-1.223191 1.142184,-1.229559 0.556476,-0.005 1.19311,0.33193 1.776334,0.940102 0.402666,0.419891 0.985188,0.855114 1.307196,0.976656 0.242914,0.09169 0.384598,0.110975 0.680732,0.09268 0.51976,-0.03212 0.834946,-0.213171 1.312846,-0.754144 0.99138,-1.122221 1.446094,-1.455121 2.046938,-1.498582 0.754882,-0.0546 1.205866,0.381355 1.2556,1.213765 0.0398,0.666108 -0.182236,1.139222 -0.920162,1.960694 -0.757026,0.842736 -1.01494,1.505887 -0.829082,2.131742 0.112382,0.378431 0.319002,0.650069 0.874334,1.149467 0.269066,0.241966 0.61811,0.570907 0.775654,0.73098 0.470784,0.478341 0.663868,1.045569 0.536556,1.576263 -0.07824,0.326132 -0.27514,0.536102 -0.703446,0.75013 -0.57356,0.28661 -1.054094,0.223972 -2.110486,-0.275106 -0.841902,-0.397744 -1.271756,-0.516704 -1.867074,-0.516704 -0.514,0 -0.957312,0.141154 -1.516072,0.482728 -1.201048,0.734212 -1.484116,0.828346 -2.120814,0.705282 z m 1.065612,-0.39361 c 0.13097,-0.06705 0.392906,-0.222618 0.582084,-0.3457 0.829966,-0.53999 1.373032,-0.73679 2.010834,-0.728696 0.557194,0.0071 1.088908,0.16388 1.966816,0.580038 0.750478,0.35575 0.763086,0.359512 1.208184,0.360458 0.37257,8e-4 0.49276,-0.021 0.70008,-0.126952 0.361002,-0.18449 0.527288,-0.448398 0.531002,-0.842742 0.0049,-0.515482 -0.102754,-0.658992 -1.454526,-1.939764 -0.81097,-0.768375 -0.99264,-1.433518 -0.62945,-2.304577 0.15917,-0.381744 0.345958,-0.64912 1.05955,-1.516676 0.453528,-0.551381 0.585916,-0.843656 0.586576,-1.29499 6e-4,-0.421959 -0.05729,-0.595145 -0.274172,-0.820021 -0.232066,-0.240616 -0.58124,-0.317028 -0.95379,-0.208725 -0.423042,0.122981 -0.741648,0.363454 -1.19105,0.898962 -0.568306,0.677194 -0.863686,0.944775 -1.270886,1.151279 -0.318366,0.161453 -0.394912,0.178544 -0.78432,0.17512 -0.61914,-0.0054 -1.042152,-0.214691 -1.713898,-0.847797 -0.27505,-0.259229 -0.581126,-0.546713 -0.680168,-0.638853 -0.09904,-0.09214 -0.32644,-0.246462 -0.505326,-0.342937 -0.281032,-0.151562 -0.376848,-0.175547 -0.704822,-0.17643 -0.301846,-8.2e-4 -0.40954,0.02132 -0.525898,0.108081 -0.260202,0.194016 -0.356224,0.37218 -0.38035,0.705715 -0.03834,0.530099 0.213324,0.966901 1.020464,1.771149 0.510338,0.508507 0.841004,0.925744 1.045796,1.319593 0.152568,0.293415 0.170518,0.374922 0.171248,0.777565 0.0012,0.668874 -0.198348,1.05996 -0.941016,1.844168 -0.712852,0.752722 -0.929336,1.161374 -0.85534,1.614604 0.10442,0.639564 0.625862,1.007362 1.373836,0.969026 0.252902,-0.01296 0.445962,-0.05766 0.608542,-0.140898 z"
       id="path874" />
  </g>
</svg>
