<?xml version="1.0" encoding="UTF-8" standalone="no"?>
<svg
   xmlns:dc="http://purl.org/dc/elements/1.1/"
   xmlns:cc="http://creativecommons.org/ns#"
   xmlns:rdf="http://www.w3.org/1999/02/22-rdf-syntax-ns#"
   xmlns:svg="http://www.w3.org/2000/svg"
   xmlns="http://www.w3.org/2000/svg"
   xmlns:sodipodi="http://sodipodi.sourceforge.net/DTD/sodipodi-0.dtd"
   xmlns:inkscape="http://www.inkscape.org/namespaces/inkscape"
   width="13.229167mm"
   height="13.229167mm"
   viewBox="0 0 13.229169 13.229168"
   version="1.1"
   id="svg8"
   sodipodi:docname="VCS_resized_261.svg"
   inkscape:version="1.0.2-2 (e86c870879, 2021-01-15)">
  <defs
     id="defs2" />
  <sodipodi:namedview
     id="base"
     pagecolor="#ffffff"
     bordercolor="#666666"
     borderopacity="1.0"
     inkscape:pageopacity="0.0"
     inkscape:pageshadow="2"
     inkscape:zoom="4"
     inkscape:cx="15.289718"
     inkscape:cy="25.362138"
     inkscape:document-units="mm"
     inkscape:current-layer="layer1"
     inkscape:document-rotation="0"
     showgrid="false"
     inkscape:window-width="958"
     inkscape:window-height="1008"
     inkscape:window-x="1913"
     inkscape:window-y="0"
     inkscape:window-maximized="0" />
  <metadata
     id="metadata5">
    <rdf:RDF>
      <cc:Work
         rdf:about="">
        <dc:format>image/svg+xml</dc:format>
        <dc:type
           rdf:resource="http://purl.org/dc/dcmitype/StillImage" />
        <dc:title></dc:title>
      </cc:Work>
    </rdf:RDF>
  </metadata>
  <g
     inkscape:label="Ebene 1"
     inkscape:groupmode="layer"
     id="layer1"
     transform="translate(-74.717949,11.325686)">
    <path
       style="fill:#000000;stroke-width:0.264582"
       d="m 77.472204,1.5654675 c -0.01128,-0.03638 -0.03583,-0.4590522 -0.05455,-0.93927081 -0.01872,-0.4802188 -0.06392,-1.444625 -0.100464,-2.14312499 l -0.06644,-1.27 -1.23221,-1.7165142 c -0.677718,-0.944083 -1.243592,-1.746169 -1.2575,-1.782414 -0.02777,-0.07236 -0.03728,-0.06928 2.020622,-0.654156 0.727604,-0.206794 1.47809,-0.421553 1.667746,-0.477242 l 0.34483,-0.101254 0.422462,-0.594459 c 0.64835,-0.912312 1.160572,-1.653867 1.589218,-2.3007465 0.491374,-0.741543 0.58871,-0.788328 0.828194,-0.398068 0.0652,0.106252 0.593566,0.8799095 1.174144,1.7192375 0.710442,1.027069 1.098508,1.542366 1.186834,1.575947 0.180858,0.06876 2.108667,0.634473 2.946571,0.864664 0.881242,0.242096 0.992902,0.287702 0.964264,0.393833 -0.02201,0.08157 -0.83723,1.2566 -1.784136,2.571589 -0.25149,0.34925 -0.513552,0.7161834 -0.58236,0.815408 -0.13336,0.192314 -0.136442,0.2307538 -0.296319,3.69573759 L 85.20588,1.6316133 H 81.3493 c -3.039042,0 -3.86093,-0.014022 -3.8771,-0.066146 z m 7.533554,-1.48166681 c 0.03582,-0.705776 0.08452,-1.64401919 0.108244,-2.08498479 l 0.04312,-0.8017552 0.651589,-0.9180362 c 0.358376,-0.50492 0.88614,-1.2489 1.172812,-1.653289 0.28667,-0.404389 0.51057,-0.763007 0.497552,-0.79693 -0.02226,-0.05802 -0.21383,-0.122511 -1.040118,-0.350177 -0.30815,-0.08491 -1.043506,-0.293767 -2.234071,-0.634539 -0.224646,-0.0643 -0.446094,-0.155334 -0.492108,-0.202297 -0.125104,-0.127685 -1.270428,-1.752466 -2.027844,-2.8767425 -0.151956,-0.225557 -0.305324,-0.409932 -0.340818,-0.409722 -0.03549,2.2e-4 -0.223604,0.244289 -0.418022,0.542396 -0.677204,1.0383745 -1.829938,2.6707105 -1.965428,2.7831575 -0.06998,0.05808 -1.410092,0.453176 -3.078584,0.907638 -0.34925,0.09513 -0.653622,0.189523 -0.676384,0.209767 -0.02276,0.02024 0.189728,0.35632 0.4722,0.746837 0.282474,0.390517 0.671264,0.93625 0.86398,1.21274 0.192718,0.276489 0.486592,0.686459 0.653054,0.911042 l 0.302658,0.4083348 0.0528,0.8616654 c 0.02904,0.4739164 0.07639,1.23075959 0.105214,1.68187419 0.02882,0.4511146 0.05234,1.0285678 0.05226,1.2832292 L 77.70771,1.3670299 h 3.616464 3.616464 z"
       id="path5089" />
  </g>
</svg>
