<?xml version="1.0" encoding="UTF-8" standalone="no"?>
<svg
   xmlns:dc="http://purl.org/dc/elements/1.1/"
   xmlns:cc="http://creativecommons.org/ns#"
   xmlns:rdf="http://www.w3.org/1999/02/22-rdf-syntax-ns#"
   xmlns:svg="http://www.w3.org/2000/svg"
   xmlns="http://www.w3.org/2000/svg"
   xmlns:sodipodi="http://sodipodi.sourceforge.net/DTD/sodipodi-0.dtd"
   xmlns:inkscape="http://www.inkscape.org/namespaces/inkscape"
   width="13.229167mm"
   height="13.229167mm"
   viewBox="0 0 13.229167 13.229167"
   version="1.1"
   id="svg8"
   sodipodi:docname="VCS_resized_35.svg"
   inkscape:version="1.0.2-2 (e86c870879, 2021-01-15)">
  <defs
     id="defs2" />
  <sodipodi:namedview
     id="base"
     pagecolor="#ffffff"
     bordercolor="#666666"
     borderopacity="1.0"
     inkscape:pageopacity="0.0"
     inkscape:pageshadow="2"
     inkscape:zoom="2.8284271"
     inkscape:cx="1.5842118"
     inkscape:cy="68.731809"
     inkscape:document-units="mm"
     inkscape:current-layer="layer1"
     inkscape:document-rotation="0"
     showgrid="false"
     inkscape:window-width="958"
     inkscape:window-height="1008"
     inkscape:window-x="1913"
     inkscape:window-y="0"
     inkscape:window-maximized="0" />
  <metadata
     id="metadata5">
    <rdf:RDF>
      <cc:Work
         rdf:about="">
        <dc:format>image/svg+xml</dc:format>
        <dc:type
           rdf:resource="http://purl.org/dc/dcmitype/StillImage" />
        <dc:title></dc:title>
      </cc:Work>
    </rdf:RDF>
  </metadata>
  <g
     inkscape:label="Ebene 1"
     inkscape:groupmode="layer"
     id="layer1"
     transform="translate(-37.78083,-8.4063215)">
    <path
       style="fill:#000000;stroke-width:0.264582"
       d="m 41.191661,19.942554 c -0.212306,-0.0661 -0.290642,-0.14404 -0.449534,-0.447256 -0.11711,-0.223484 -0.139806,-0.333714 -0.136874,-0.664782 0.0046,-0.515546 0.137654,-0.878512 0.538884,-1.46967 0.639498,-0.942214 0.822572,-1.501569 0.665056,-2.031981 -0.150066,-0.505329 -0.411066,-0.803785 -1.348344,-1.541842 -0.598798,-0.471522 -0.844174,-0.741968 -1.062164,-1.170686 -0.13567,-0.266818 -0.156372,-0.359228 -0.13785,-0.615309 0.01198,-0.165736 0.06417,-0.366004 0.115956,-0.445041 0.253754,-0.387278 1.118626,-0.490057 1.796526,-0.213496 0.199056,0.08121 0.537766,0.262445 0.752688,0.402748 0.842512,0.549997 1.421628,0.788912 1.90928,0.787677 0.236208,-6e-4 0.65702,-0.183327 0.905674,-0.393272 0.09486,-0.0801 0.360688,-0.387399 0.59072,-0.682898 0.5327,-0.684308 0.907258,-1.047387 1.274094,-1.23505 0.245896,-0.125793 0.355328,-0.148888 0.705486,-0.148888 0.399686,0 0.419848,0.006 0.566154,0.169793 0.297604,0.333076 0.402698,1.064222 0.227142,1.580259 -0.09731,0.286046 -0.257594,0.574327 -0.590416,1.061911 -0.367884,0.53895 -0.551584,0.989256 -0.579218,1.41985 -0.04199,0.654373 0.209772,1.03463 1.150084,1.737031 1.042422,0.778675 1.445568,1.317563 1.45069,1.939152 0.0033,0.394948 -0.07475,0.51277 -0.460172,0.695108 -0.277116,0.131098 -0.391544,0.154526 -0.754904,0.154562 -0.493138,4.8e-5 -0.731228,-0.07155 -1.556096,-0.467978 -0.735496,-0.35347 -1.294926,-0.505464 -1.731456,-0.470424 -0.553004,0.04439 -0.84681,0.226282 -1.602294,0.991958 -0.725436,0.735222 -0.938634,0.909774 -1.217084,0.996466 -0.26192,0.08155 -0.8456,0.116986 -1.022028,0.06206 z m 1.061082,-0.369496 c 0.141854,-0.06439 0.482132,-0.362056 0.92604,-0.810068 0.70649,-0.713022 0.96956,-0.90427 1.474618,-1.072024 0.531808,-0.176638 1.479566,0.03373 2.404306,0.533676 0.54876,0.296678 0.984418,0.397362 1.446144,0.334216 0.546272,-0.07471 0.747754,-0.253704 0.747754,-0.664306 0,-0.439937 -0.390178,-0.922144 -1.33424,-1.648936 -0.88886,-0.684295 -1.258676,-1.17929 -1.258676,-1.684732 0,-0.616576 0.197472,-1.148435 0.69742,-1.878376 0.425752,-0.621614 0.570042,-0.980741 0.570162,-1.419075 1.06e-4,-0.385078 -0.13256,-0.748984 -0.307104,-0.842397 -0.179616,-0.09613 -0.673448,-0.06828 -0.930316,0.05246 -0.302432,0.14216 -0.67092,0.499617 -1.059786,1.02806 -0.645444,0.877114 -1.222282,1.296458 -1.783374,1.296458 -0.538144,0 -1.106306,-0.226728 -2.023426,-0.80746 -0.843976,-0.534417 -1.421104,-0.666919 -1.91666,-0.440045 -0.222048,0.101656 -0.284636,0.160526 -0.335942,0.315985 -0.165528,0.501554 0.156816,0.998925 1.184434,1.827569 0.70809,0.570984 1.008334,0.895457 1.232064,1.331489 0.299524,0.583747 0.15008,1.284476 -0.477258,2.23781 -0.613632,0.932508 -0.763514,1.44084 -0.5791,1.964028 0.07256,0.205842 0.13438,0.285124 0.27847,0.357104 0.251876,0.125826 0.754198,0.120326 1.04447,-0.01144 z"
       id="path552" />
  </g>
</svg>
