<?xml version="1.0" encoding="UTF-8" standalone="no"?>
<svg
   xmlns:dc="http://purl.org/dc/elements/1.1/"
   xmlns:cc="http://creativecommons.org/ns#"
   xmlns:rdf="http://www.w3.org/1999/02/22-rdf-syntax-ns#"
   xmlns:svg="http://www.w3.org/2000/svg"
   xmlns="http://www.w3.org/2000/svg"
   xmlns:sodipodi="http://sodipodi.sourceforge.net/DTD/sodipodi-0.dtd"
   xmlns:inkscape="http://www.inkscape.org/namespaces/inkscape"
   width="13.229167mm"
   height="13.229167mm"
   viewBox="0 0 13.229169 13.229168"
   version="1.1"
   id="svg8"
   sodipodi:docname="VCS_resized_233.svg"
   inkscape:version="1.0.2-2 (e86c870879, 2021-01-15)">
  <defs
     id="defs2" />
  <sodipodi:namedview
     id="base"
     pagecolor="#ffffff"
     bordercolor="#666666"
     borderopacity="1.0"
     inkscape:pageopacity="0.0"
     inkscape:pageshadow="2"
     inkscape:zoom="2.8284271"
     inkscape:cx="45.589772"
     inkscape:cy="94.018404"
     inkscape:document-units="mm"
     inkscape:current-layer="layer1"
     inkscape:document-rotation="0"
     showgrid="false"
     inkscape:window-width="958"
     inkscape:window-height="1008"
     inkscape:window-x="1913"
     inkscape:window-y="0"
     inkscape:window-maximized="0" />
  <metadata
     id="metadata5">
    <rdf:RDF>
      <cc:Work
         rdf:about="">
        <dc:format>image/svg+xml</dc:format>
        <dc:type
           rdf:resource="http://purl.org/dc/dcmitype/StillImage" />
        <dc:title></dc:title>
      </cc:Work>
    </rdf:RDF>
  </metadata>
  <g
     inkscape:label="Ebene 1"
     inkscape:groupmode="layer"
     id="layer1"
     transform="translate(-57.904949,-23.406906)">
    <path
       style="fill:#000000;stroke-width:0.264582"
       d="m 60.457223,36.225968 c -0.02671,-0.03638 -0.104144,-0.351896 -0.17207,-0.701146 -0.06792,-0.34925 -0.180788,-0.885031 -0.25081,-1.190625 -0.255826,-1.116488 -0.37532,-1.672087 -0.409714,-1.905 -0.04524,-0.306393 -0.551826,-1.605045 -1.123322,-2.879698 -0.24688,-0.550636 -0.462116,-1.067375 -0.478304,-1.148309 -0.02885,-0.144249 -0.01182,-0.155663 0.863014,-0.578325 0.490842,-0.237145 1.274884,-0.615972 1.742314,-0.841837 0.99664,-0.481584 1.115022,-0.57527 2.727624,-2.158602 0.600254,-0.589359 1.122694,-1.071562 1.160978,-1.071562 0.03829,0 0.559416,0.48328 1.158068,1.073956 0.598652,0.590677 1.266226,1.225595 1.483498,1.41093 0.404698,0.345209 0.678688,0.490382 2.700586,1.4309 0.96418,0.448503 1.164166,0.563406 1.164166,0.668871 0,0.04296 -0.129806,0.371441 -0.288456,0.729957 -0.818418,1.849439 -1.32808,3.200942 -1.428126,3.787052 -0.04719,0.27649 -0.166664,0.84799 -0.265488,1.27 -0.225698,0.963803 -0.332028,1.44972 -0.376334,1.719792 -0.0191,0.116417 -0.06832,0.265245 -0.10938,0.330729 l -0.07466,0.119063 h -3.987508 c -3.128826,0 -3.99797,-0.01424 -4.03608,-0.06615 z m 7.846788,-0.238935 c 0.03239,-0.02138 0.122212,-0.34844 0.19961,-0.726794 0.0774,-0.378355 0.188256,-0.866511 0.246348,-1.084792 0.05809,-0.218281 0.177888,-0.777875 0.266214,-1.243542 0.173774,-0.916168 0.332076,-1.35754 1.241872,-3.462561 0.306968,-0.710242 0.428366,-1.047802 0.392406,-1.091131 -0.05842,-0.07039 -0.383248,-0.231984 -1.426376,-0.709577 -1.810398,-0.828884 -1.852878,-0.852412 -2.38125,-1.318796 -0.27649,-0.244053 -0.898416,-0.845318 -1.38206,-1.336146 -0.483642,-0.490828 -0.909234,-0.892414 -0.945762,-0.892414 -0.03653,0 -0.379006,0.324837 -0.761066,0.72186 -0.38206,0.397023 -1.019974,1.010195 -1.417588,1.362604 -0.6574,0.582664 -0.777318,0.6656 -1.322916,0.91495 -1.66393,0.760449 -2.589976,1.203385 -2.638724,1.262125 -0.03852,0.04641 0.02751,0.245737 0.229594,0.693154 0.526584,1.165867 0.61343,1.367512 0.806054,1.871557 0.105664,0.27649 0.248472,0.645584 0.317352,0.820209 0.06888,0.174625 0.150856,0.479817 0.18217,0.678206 0.06048,0.383167 0.126264,0.68563 0.370412,1.703044 0.08381,0.34925 0.202302,0.885031 0.26332,1.190625 0.06102,0.305593 0.12143,0.58539 0.13425,0.62177 0.01836,0.05209 0.824824,0.06597 3.795282,0.06534 2.074586,-4.2e-4 3.798472,-0.0183 3.830858,-0.03969 z"
       id="path4627" />
  </g>
</svg>
