<?xml version="1.0" encoding="UTF-8" standalone="no"?>
<svg
   xmlns:dc="http://purl.org/dc/elements/1.1/"
   xmlns:cc="http://creativecommons.org/ns#"
   xmlns:rdf="http://www.w3.org/1999/02/22-rdf-syntax-ns#"
   xmlns:svg="http://www.w3.org/2000/svg"
   xmlns="http://www.w3.org/2000/svg"
   xmlns:sodipodi="http://sodipodi.sourceforge.net/DTD/sodipodi-0.dtd"
   xmlns:inkscape="http://www.inkscape.org/namespaces/inkscape"
   width="13.229167mm"
   height="13.229167mm"
   viewBox="0 0 13.229169 13.229168"
   version="1.1"
   id="svg8"
   sodipodi:docname="VCS_resized_113.svg"
   inkscape:version="1.0.2-2 (e86c870879, 2021-01-15)">
  <defs
     id="defs2" />
  <sodipodi:namedview
     id="base"
     pagecolor="#ffffff"
     bordercolor="#666666"
     borderopacity="1.0"
     inkscape:pageopacity="0.0"
     inkscape:pageshadow="2"
     inkscape:zoom="2.8284271"
     inkscape:cx="22.425022"
     inkscape:cy="70.652851"
     inkscape:document-units="mm"
     inkscape:current-layer="layer1"
     inkscape:document-rotation="0"
     showgrid="false"
     inkscape:window-width="958"
     inkscape:window-height="1008"
     inkscape:window-x="1913"
     inkscape:window-y="0"
     inkscape:window-maximized="0" />
  <metadata
     id="metadata5">
    <rdf:RDF>
      <cc:Work
         rdf:about="">
        <dc:format>image/svg+xml</dc:format>
        <dc:type
           rdf:resource="http://purl.org/dc/dcmitype/StillImage" />
        <dc:title></dc:title>
      </cc:Work>
    </rdf:RDF>
  </metadata>
  <g
     inkscape:label="Ebene 1"
     inkscape:groupmode="layer"
     id="layer1"
     transform="translate(-32.266697,-7.8980465)">
    <path
       style="fill:#000000;stroke-width:0.264582"
       d="m 37.31964,20.549216 c -1.153204,-0.271525 -1.055154,-0.219061 -1.93824,-1.037121 -1.265386,-1.172212 -1.581692,-1.633176 -1.579514,-2.301875 0.0016,-0.490276 0.117514,-0.698778 0.770908,-1.386633 0.899168,-0.94659 1.120058,-1.363658 1.067698,-2.015947 -0.0359,-0.447253 -0.212108,-0.799328 -0.792428,-1.583327 -0.642926,-0.868581 -0.892568,-1.397862 -0.928022,-1.967555 -0.05065,-0.8138453 0.200248,-1.4434423 0.69715,-1.7494293 0.219254,-0.135015 0.312218,-0.159924 0.582578,-0.156098 0.176932,0.0025 0.381002,0.03525 0.45349,0.07278 0.284806,0.147435 0.744878,0.531031 1.428256,1.190844 0.828134,0.7995783 1.087082,0.9601893 1.666528,1.0336553 0.77247,0.09794 1.036342,-0.04309 2.121368,-1.1338353 0.438958,-0.441269 0.91015,-0.876523 1.047092,-0.96723 0.346806,-0.229715 0.68243,-0.269635 1.025634,-0.121992 0.492806,0.211999 0.782346,0.642647 0.86923,1.292849 0.10992,0.8226123 -0.08202,1.3716963 -0.82461,2.3590023 -0.615884,0.81884 -0.823508,1.240998 -0.86068,1.750003 -0.04858,0.665226 0.157484,1.052864 1.025582,1.929237 0.63724,0.643316 0.809022,0.955107 0.809022,1.468406 0,0.269772 -0.03192,0.402487 -0.156712,0.651507 -0.240916,0.480752 -1.259898,1.573505 -2.17855,2.336272 -0.04747,0.03941 -0.273686,0.119 -0.50271,0.176861 -0.229022,0.05786 -0.547372,0.142143 -0.707444,0.187291 -0.205828,0.05805 -0.60866,0.08791 -1.375834,0.101969 -1.041524,0.01909 -1.11012,0.01392 -1.719792,-0.129633 z m 3.408418,-0.344067 0.695638,-0.180071 0.382138,-0.342987 c 0.401364,-0.360239 1.238156,-1.204294 1.506302,-1.519371 0.275458,-0.323672 0.351288,-0.523218 0.352994,-0.928906 0.002,-0.453567 -0.03107,-0.512232 -0.68764,-1.223137 -0.97524,-1.055953 -1.166308,-1.423721 -1.120568,-2.15687 0.04053,-0.649588 0.154208,-0.8744 1.243104,-2.458298 0.330532,-0.48079 0.452062,-0.846856 0.45879,-1.381956 0.0069,-0.5455933 -0.170802,-0.9346593 -0.531162,-1.1631923 -0.281932,-0.178796 -0.43435,-0.195353 -0.755442,-0.08207 -0.218194,0.07698 -0.826044,0.507668 -0.860214,0.609496 -0.03799,0.113198 -1.037262,1.0752653 -1.287774,1.2398263 -0.544338,0.357572 -1.146788,0.440308 -1.780364,0.2445 -0.486032,-0.150209 -0.76807,-0.350269 -1.519604,-1.0779133 -1.14178,-1.105482 -1.662756,-1.313727 -2.193058,-0.876607 -0.27804,0.229183 -0.410964,0.518869 -0.44508,0.96998 -0.04909,0.6491113 0.174182,1.1900833 0.896972,2.1732673 0.171168,0.232833 0.42091,0.643211 0.55498,0.911949 0.21282,0.426591 0.246834,0.541636 0.267942,0.906285 0.0395,0.682355 -0.17436,1.144499 -0.860486,1.859474 -1.019516,1.06238 -1.153922,1.429199 -0.788394,2.151654 0.110042,0.217492 0.365484,0.503779 0.993958,1.113971 0.46522,0.451689 0.931778,0.878113 1.036796,0.947612 0.112728,0.0746 0.460698,0.189717 0.849474,0.281029 0.61421,0.144259 0.733792,0.154929 1.776794,0.158535 1.106276,0.0038 1.125724,0.0019 1.813904,-0.176205 z"
       id="path1850" />
  </g>
</svg>
