<?xml version="1.0" encoding="UTF-8" standalone="no"?>
<svg
   xmlns:dc="http://purl.org/dc/elements/1.1/"
   xmlns:cc="http://creativecommons.org/ns#"
   xmlns:rdf="http://www.w3.org/1999/02/22-rdf-syntax-ns#"
   xmlns:svg="http://www.w3.org/2000/svg"
   xmlns="http://www.w3.org/2000/svg"
   xmlns:sodipodi="http://sodipodi.sourceforge.net/DTD/sodipodi-0.dtd"
   xmlns:inkscape="http://www.inkscape.org/namespaces/inkscape"
   width="13.229167mm"
   height="13.229167mm"
   viewBox="0 0 13.229169 13.229168"
   version="1.1"
   id="svg8"
   sodipodi:docname="VCS_resized_287.svg"
   inkscape:version="1.0.2-2 (e86c870879, 2021-01-15)">
  <defs
     id="defs2" />
  <sodipodi:namedview
     id="base"
     pagecolor="#ffffff"
     bordercolor="#666666"
     borderopacity="1.0"
     inkscape:pageopacity="0.0"
     inkscape:pageshadow="2"
     inkscape:zoom="4"
     inkscape:cx="8.9304738"
     inkscape:cy="36.486674"
     inkscape:document-units="mm"
     inkscape:current-layer="layer1"
     inkscape:document-rotation="0"
     showgrid="false"
     inkscape:window-width="958"
     inkscape:window-height="1008"
     inkscape:window-x="1913"
     inkscape:window-y="0"
     inkscape:window-maximized="0" />
  <metadata
     id="metadata5">
    <rdf:RDF>
      <cc:Work
         rdf:about="">
        <dc:format>image/svg+xml</dc:format>
        <dc:type
           rdf:resource="http://purl.org/dc/dcmitype/StillImage" />
        <dc:title></dc:title>
      </cc:Work>
    </rdf:RDF>
  </metadata>
  <g
     inkscape:label="Ebene 1"
     inkscape:groupmode="layer"
     id="layer1"
     transform="translate(-90.029739,18.063469)">
    <path
       style="fill:#000000;stroke-width:0.264582"
       d="m 93.704979,-5.3489844 c -0.03288,-0.053199 -0.08828,-0.6877266 -0.184912,-2.1179224 -0.03048,-0.4511146 -0.08217,-1.098858 -0.114858,-1.439429 l -0.05944,-0.6192214 -1.30245,-1.2326908 c -2.070912,-1.959995 -1.9953,-1.884135 -1.936582,-1.94292 0.02958,-0.02962 0.624894,-0.172772 1.322916,-0.318126 1.099608,-0.228978 2.492272,-0.526671 2.868918,-0.613252 0.13622,-0.03131 0.20521,-0.150747 1.390008,-2.40638 0.741472,-1.411623 0.832908,-1.561522 0.9525,-1.561522 0.119488,0 0.209118,0.146226 0.926042,1.510774 0.436563,0.830926 0.900907,1.711989 1.031875,1.957917 l 0.238126,0.447142 0.767292,0.171258 c 0.422006,0.09419 1.338786,0.292307 2.037286,0.440255 1.24747,0.264225 1.56109,0.347311 1.561,0.413553 -2e-5,0.0183 -0.73821,0.745784 -1.64041,1.616637 -1.10869,1.070163 -1.640674,1.619012 -1.641294,1.6933334 -6e-4,0.06048 -0.02387,0.327785 -0.05192,0.5940108 -0.02805,0.2662258 -0.08736,1.0044134 -0.131788,1.6404166 -0.04443,0.6360034 -0.09579,1.3051976 -0.114134,1.4870986 l -0.03335,0.3307292 h -2.926445 c -1.84646,0 -2.938228,-0.019066 -2.958372,-0.051661 z m 5.657409,-0.3849016 c 0.01504,-0.094588 0.06383,-0.695854 0.108416,-1.3361458 0.04458,-0.6402916 0.109448,-1.4737292 0.144146,-1.8520832 l 0.06308,-0.6879168 0.50558,-0.4756392 c 0.27808,-0.261602 0.92821,-0.891196 1.44475,-1.399098 0.51654,-0.507902 0.96878,-0.941764 1.00497,-0.964136 0.1777,-0.109819 -0.11017,-0.183464 -3.470184,-0.887776 -0.257248,-0.05392 -0.486382,-0.118548 -0.50919,-0.143612 -0.02281,-0.02507 -0.475928,-0.873056 -1.00693,-1.884426 -0.531003,-1.01137 -0.984407,-1.838854 -1.007567,-1.838854 -0.02316,0 -0.23736,0.375047 -0.476004,0.833437 -0.238642,0.458391 -0.683558,1.30344 -0.988698,1.877887 -0.53134,1.00028 -0.562976,1.046636 -0.748098,1.096143 -0.219546,0.05871 -3.727274,0.796283 -3.786962,0.796283 -0.123198,0 0.138748,0.273799 1.464408,1.53067 0.80799,0.766064 1.480212,1.4434744 1.49383,1.5053572 0.04786,0.2174996 0.12752,1.13108 0.212834,2.4408474 0.04739,0.7276042 0.09684,1.3764948 0.10987,1.4419792 l 0.0237,0.1190624 h 2.695344 2.695345 z"
       id="path5507" />
  </g>
</svg>
