<?xml version="1.0" encoding="UTF-8" standalone="no"?>
<svg
   xmlns:dc="http://purl.org/dc/elements/1.1/"
   xmlns:cc="http://creativecommons.org/ns#"
   xmlns:rdf="http://www.w3.org/1999/02/22-rdf-syntax-ns#"
   xmlns:svg="http://www.w3.org/2000/svg"
   xmlns="http://www.w3.org/2000/svg"
   xmlns:sodipodi="http://sodipodi.sourceforge.net/DTD/sodipodi-0.dtd"
   xmlns:inkscape="http://www.inkscape.org/namespaces/inkscape"
   width="13.229167mm"
   height="13.229167mm"
   viewBox="0 0 13.229169 13.229168"
   version="1.1"
   id="svg8"
   sodipodi:docname="VCS_resized_286.svg"
   inkscape:version="1.0.2-2 (e86c870879, 2021-01-15)">
  <defs
     id="defs2" />
  <sodipodi:namedview
     id="base"
     pagecolor="#ffffff"
     bordercolor="#666666"
     borderopacity="1.0"
     inkscape:pageopacity="0.0"
     inkscape:pageshadow="2"
     inkscape:zoom="4"
     inkscape:cx="19.411691"
     inkscape:cy="33.736674"
     inkscape:document-units="mm"
     inkscape:current-layer="layer1"
     inkscape:document-rotation="0"
     showgrid="false"
     inkscape:window-width="958"
     inkscape:window-height="1008"
     inkscape:window-x="1913"
     inkscape:window-y="0"
     inkscape:window-maximized="0" />
  <metadata
     id="metadata5">
    <rdf:RDF>
      <cc:Work
         rdf:about="">
        <dc:format>image/svg+xml</dc:format>
        <dc:type
           rdf:resource="http://purl.org/dc/dcmitype/StillImage" />
        <dc:title></dc:title>
      </cc:Work>
    </rdf:RDF>
  </metadata>
  <g
     inkscape:label="Ebene 1"
     inkscape:groupmode="layer"
     id="layer1"
     transform="translate(-87.256584,17.335865)">
    <path
       style="fill:#000000;stroke-width:0.264582"
       d="m 93.06444,-4.5672673 -2.168138,-0.026458 -0.03573,-0.2116666 c -0.01966,-0.1164166 -0.05052,-0.4974166 -0.06859,-0.8466666 -0.01808,-0.34925 -0.07688,-1.1910548 -0.130676,-1.8706768 l -0.09782,-1.2356766 -0.60233,-0.6060238 c -0.33128,-0.3333132 -1.06072,-1.0380663 -1.620974,-1.5661173 -0.560256,-0.528051 -1.018646,-0.989205 -1.018646,-1.024787 0,-0.07249 0.07082,-0.0897 2.275416,-0.552906 0.858572,-0.180394 1.669938,-0.350981 1.803032,-0.379083 0.275766,-0.05822 0.157002,0.132383 1.558598,-2.501397 0.84796,-1.593422 0.800664,-1.518141 0.941194,-1.498138 0.118298,0.01684 0.128812,0.03437 0.930341,1.551055 0.16919,0.320146 0.48199,0.903552 0.695114,1.296458 0.213124,0.392907 0.427844,0.795766 0.477158,0.895243 l 0.08966,0.180867 1.025472,0.228728 c 0.56401,0.125801 1.509411,0.328802 2.100881,0.451114 0.59148,0.122312 1.115228,0.251496 1.163888,0.287075 0.0786,0.05751 0.0531,0.09896 -0.23043,0.373435 -0.175388,0.169811 -0.906638,0.890194 -1.624988,1.600853 -1.204271,1.1913711 -1.308403,1.3089483 -1.335677,1.5081255 -0.01628,0.1188102 -0.07791,0.8708624 -0.136974,1.671227 -0.05907,0.8003646 -0.121456,1.6397552 -0.138642,1.8653124 l -0.03125,0.4101042 -0.667124,0.00357 c -0.36692,0.00196 -0.738564,0.00792 -0.825878,0.01323 -0.08731,0.00531 -1.134411,-0.00225 -2.326887,-0.0168 z m 3.536721,-0.2661534 c 0.02604,-0.026042 0.06709,-0.4869344 0.244106,-2.7406082 l 0.101082,-1.2869692 1.497903,-1.4718919 c 0.82385,-0.809541 1.48195,-1.488585 1.46244,-1.508988 -0.0195,-0.0204 -0.90986,-0.22376 -1.978567,-0.451906 -1.068702,-0.228147 -1.972654,-0.446341 -2.00878,-0.484877 -0.03613,-0.03853 -0.500128,-0.885643 -1.031112,-1.882461 -0.530985,-0.996817 -0.983417,-1.812395 -1.005407,-1.812395 -0.02199,0 -0.48572,0.833874 -1.030512,1.853054 -0.544794,1.019181 -1.029822,1.873305 -1.077842,1.898054 -0.08765,0.04518 -0.733426,0.187012 -2.773614,0.609193 -0.604344,0.125058 -1.115708,0.24428 -1.136366,0.264938 -0.02066,0.02066 0.636554,0.696976 1.46047,1.50293 l 1.498028,1.4653723 0.09879,1.27 c 0.05434,0.6985 0.123758,1.5770676 0.154272,1.9523722 0.03052,0.3753046 0.05548,0.7143278 0.05548,0.753385 0,0.057775 0.347754,0.073869 1.865312,0.086328 2.467315,0.020257 3.573291,0.01549 3.604311,-0.01553 z"
       id="path5491" />
  </g>
</svg>
