<?xml version="1.0" encoding="UTF-8" standalone="no"?>
<svg
   xmlns:dc="http://purl.org/dc/elements/1.1/"
   xmlns:cc="http://creativecommons.org/ns#"
   xmlns:rdf="http://www.w3.org/1999/02/22-rdf-syntax-ns#"
   xmlns:svg="http://www.w3.org/2000/svg"
   xmlns="http://www.w3.org/2000/svg"
   xmlns:sodipodi="http://sodipodi.sourceforge.net/DTD/sodipodi-0.dtd"
   xmlns:inkscape="http://www.inkscape.org/namespaces/inkscape"
   width="13.229167mm"
   height="13.229167mm"
   viewBox="0 0 13.229167 13.229167"
   version="1.1"
   id="svg8"
   sodipodi:docname="VCS_resized_81.svg"
   inkscape:version="1.0.2-2 (e86c870879, 2021-01-15)">
  <defs
     id="defs2" />
  <sodipodi:namedview
     id="base"
     pagecolor="#ffffff"
     bordercolor="#666666"
     borderopacity="1.0"
     inkscape:pageopacity="0.0"
     inkscape:pageshadow="2"
     inkscape:zoom="2.8284271"
     inkscape:cx="3.9254479"
     inkscape:cy="41.300315"
     inkscape:document-units="mm"
     inkscape:current-layer="layer1"
     inkscape:document-rotation="0"
     showgrid="false"
     inkscape:window-width="958"
     inkscape:window-height="1008"
     inkscape:window-x="1913"
     inkscape:window-y="0"
     inkscape:window-maximized="0" />
  <metadata
     id="metadata5">
    <rdf:RDF>
      <cc:Work
         rdf:about="">
        <dc:format>image/svg+xml</dc:format>
        <dc:type
           rdf:resource="http://purl.org/dc/dcmitype/StillImage" />
        <dc:title></dc:title>
      </cc:Work>
    </rdf:RDF>
  </metadata>
  <g
     inkscape:label="Ebene 1"
     inkscape:groupmode="layer"
     id="layer1"
     transform="translate(-37.161377,-15.664238)">
    <path
       style="fill:#000000;stroke-width:0.264582"
       d="m 40.915756,27.663933 c -0.625898,-0.102886 -1.148152,-0.379992 -1.56861,-0.832304 -0.356818,-0.383848 -0.434952,-0.561072 -0.438812,-0.995318 -0.0046,-0.519258 0.157474,-0.793508 0.92343,-1.562408 0.935018,-0.938614 1.15512,-1.338953 1.09024,-1.983009 -0.04883,-0.484694 -0.314086,-0.964161 -0.937888,-1.695272 -0.297078,-0.348184 -0.632014,-0.774219 -0.744304,-0.946744 -0.40232,-0.618147 -0.51675,-1.339891 -0.303006,-1.911169 0.214448,-0.573166 0.606204,-0.870773 1.146244,-0.870773 0.586852,0 0.903682,0.238574 2.197542,1.654767 0.3509,0.384076 0.539492,0.544768 0.767292,0.653777 0.55202,0.264159 1.211328,0.212084 1.688172,-0.13334 0.118368,-0.08575 0.454356,-0.43993 0.74664,-0.787077 0.881984,-1.047536 1.271032,-1.335575 1.853166,-1.372026 0.319752,-0.02002 0.37949,-0.0067 0.630358,0.140322 0.346042,0.202831 0.564584,0.560716 0.649376,1.063417 0.128254,0.760384 -0.13411,1.438096 -0.900308,2.325576 -0.623498,0.722194 -0.863756,1.083213 -1.006664,1.512651 -0.234784,0.705526 -0.03212,1.302125 0.672564,1.979849 1.155122,1.110933 1.339776,1.380559 1.339776,1.956285 0,0.791252 -0.48549,1.2626 -1.613958,1.566944 -0.489706,0.132072 -0.61993,0.143966 -1.74625,0.15949 -1.307648,0.01802 -3.002304,0.06253 -3.730626,0.09797 -0.247384,0.01204 -0.568854,0.0023 -0.714374,-0.0216 z m 3.598332,-0.34579 c 1.666046,-0.01724 2.300844,-0.08148 2.924094,-0.295912 0.662126,-0.227806 1.068228,-0.740664 0.997144,-1.259274 -0.04714,-0.3439 -0.293016,-0.68378 -1.039806,-1.437322 -0.908766,-0.916983 -1.138412,-1.413409 -1.003442,-2.169155 0.08452,-0.473293 0.355154,-1.006083 0.76497,-1.506003 1.026628,-1.252341 1.20074,-1.57136 1.21299,-2.2225 0.0084,-0.445138 -0.146864,-0.806344 -0.449806,-1.046598 -0.261172,-0.207129 -0.526848,-0.234481 -0.90327,-0.09299 -0.37405,0.140596 -0.702496,0.431906 -1.283696,1.13855 -0.506944,0.616363 -0.750394,0.84112 -1.152206,1.063746 -0.255742,0.141694 -0.32212,0.15438 -0.807804,0.15438 -0.480858,0 -0.55728,-0.01423 -0.837106,-0.155903 -0.31549,-0.159727 -0.839272,-0.655387 -1.345742,-1.273489 -0.542064,-0.66154 -1.098404,-1.031233 -1.55187,-1.031233 -0.237708,0 -0.561524,0.188573 -0.706018,0.411149 -0.455544,0.701714 -0.243488,1.47799 0.71887,2.631559 0.267078,0.320146 0.575992,0.721486 0.686472,0.891867 0.555588,0.856819 0.604808,1.727215 0.136416,2.412314 -0.09071,0.13268 -0.44828,0.535691 -0.794598,0.89558 -0.67459,0.701028 -0.88318,1.034334 -0.882036,1.409406 0.002,0.62685 0.77965,1.359524 1.598144,1.50554 0.153296,0.02735 0.695436,0.0369 1.20476,0.02122 0.509322,-0.01568 1.640416,-0.03589 2.51354,-0.04493 z"
       id="path1338" />
  </g>
</svg>
