<?xml version="1.0" encoding="UTF-8" standalone="no"?>
<svg
   xmlns:dc="http://purl.org/dc/elements/1.1/"
   xmlns:cc="http://creativecommons.org/ns#"
   xmlns:rdf="http://www.w3.org/1999/02/22-rdf-syntax-ns#"
   xmlns:svg="http://www.w3.org/2000/svg"
   xmlns="http://www.w3.org/2000/svg"
   xmlns:sodipodi="http://sodipodi.sourceforge.net/DTD/sodipodi-0.dtd"
   xmlns:inkscape="http://www.inkscape.org/namespaces/inkscape"
   width="13.229167mm"
   height="13.229167mm"
   viewBox="0 0 13.229169 13.229168"
   version="1.1"
   id="svg8"
   sodipodi:docname="VCS_resized_303.svg"
   inkscape:version="1.0.2-2 (e86c870879, 2021-01-15)">
  <defs
     id="defs2" />
  <sodipodi:namedview
     id="base"
     pagecolor="#ffffff"
     bordercolor="#666666"
     borderopacity="1.0"
     inkscape:pageopacity="0.0"
     inkscape:pageshadow="2"
     inkscape:zoom="4"
     inkscape:cx="41.34329"
     inkscape:cy="38.053614"
     inkscape:document-units="mm"
     inkscape:current-layer="layer1"
     inkscape:document-rotation="0"
     showgrid="false"
     inkscape:window-width="958"
     inkscape:window-height="1008"
     inkscape:window-x="1913"
     inkscape:window-y="0"
     inkscape:window-maximized="0" />
  <metadata
     id="metadata5">
    <rdf:RDF>
      <cc:Work
         rdf:about="">
        <dc:format>image/svg+xml</dc:format>
        <dc:type
           rdf:resource="http://purl.org/dc/dcmitype/StillImage" />
        <dc:title></dc:title>
      </cc:Work>
    </rdf:RDF>
  </metadata>
  <g
     inkscape:label="Ebene 1"
     inkscape:groupmode="layer"
     id="layer1"
     transform="translate(-84.289017,18.491571)">
    <path
       style="fill:#000000;stroke-width:0.264582"
       d="m 90.248826,-5.9004884 c -0.291042,-0.054439 -0.778546,-0.1360476 -1.08334,-0.1813518 -0.304796,-0.045305 -0.56953,-0.1072176 -0.588298,-0.1375844 -0.01876,-0.030367 -0.04868,-0.189884 -0.06648,-0.3544828 -0.0178,-0.1645984 -0.06909,-0.6088328 -0.11398,-0.987187 -0.04489,-0.3783542 -0.117802,-1.0212916 -0.16202,-1.42875 -0.04422,-0.4074583 -0.0932,-0.7833476 -0.10886,-0.8353096 -0.02872,-0.0953 -0.120632,-0.1670268 -1.607648,-1.254508 -1.767992,-1.292968 -2.116666,-1.560643 -2.116666,-1.624957 0,-0.03671 0.05358,-0.07913 0.119062,-0.09427 0.883968,-0.204273 1.728134,-0.400916 1.812396,-0.422184 0.05821,-0.01469 0.391584,-0.08805 0.740834,-0.163014 1.087574,-0.233443 1.743956,-0.403179 1.803282,-0.466316 0.0524,-0.05577 0.302566,-0.585863 1.264802,-2.680072 0.652838,-1.42084 0.657218,-1.42875 0.791172,-1.42875 0.104788,0 0.16338,0.09146 0.415296,0.64823 0.638364,1.41088 1.146903,2.524011 1.371933,3.00302 l 0.23617,0.502709 0.86867,0.204093 c 3.38422,0.79512 3.55372,0.838412 3.57872,0.914054 0.0234,0.0709 -0.16575,0.222494 -1.54324,1.236644 -0.5732,0.422011 -1.28403,0.946008 -1.57963,1.164437 l -0.53744,0.3971448 -0.11511,0.8463968 c -0.0633,0.4655186 -0.16632,1.2869282 -0.22893,1.8253552 -0.0626,0.538427 -0.13121,0.9964696 -0.15246,1.0178722 -0.0448,0.045166 -2.198749,0.4140936 -2.360511,0.4043166 -0.05971,-0.00361 -0.346682,-0.051103 -0.637724,-0.105541 z m 1.588502,-0.310877 c 0.523324,-0.087118 1.004033,-0.1706536 1.068243,-0.1856348 0.13018,-0.030374 0.14917,-0.1000468 0.22348,-0.8201358 0.0519,-0.5033814 0.31539,-2.5571006 0.35049,-2.7323686 0.0142,-0.071145 0.2629,-0.2859694 0.67137,-0.5800334 1.32698,-0.955307 2.68604,-1.980644 2.68604,-2.026464 0,-0.02602 -0.0323,-0.05972 -0.0718,-0.07488 -0.14163,-0.05435 -1.27547,-0.324627 -3.49433,-0.83295 -0.2297,-0.05262 -0.44848,-0.127158 -0.48619,-0.165637 -0.0377,-0.03848 -0.22217,-0.403337 -0.40991,-0.810796 -0.904767,-1.963622 -1.272627,-2.766654 -1.342481,-2.930609 -0.04942,-0.116007 -0.09435,-0.160831 -0.127736,-0.127445 -0.02832,0.02832 -0.17773,0.32316 -0.332014,0.655192 -0.154284,0.332033 -0.342118,0.734664 -0.417406,0.894737 -0.07529,0.160073 -0.349624,0.755386 -0.609632,1.322917 l -0.472742,1.031875 -0.470256,0.120571 c -0.25864,0.06631 -0.863162,0.206087 -1.34338,0.310609 -1.453952,0.316458 -2.240446,0.518194 -2.260276,0.579761 -0.01036,0.03214 0.321334,0.304805 0.73708,0.605916 1.693002,1.226183 2.493448,1.822429 2.569362,1.9139 0.03615,0.04355 0.125672,0.5766389 0.198944,1.184633 0.07327,0.607994 0.168838,1.4001638 0.212368,1.760377 0.04353,0.3602138 0.092,0.6757296 0.107708,0.701146 0.0157,0.025417 0.09264,0.047257 0.170958,0.048534 0.120438,0.00196 1.886714,0.290757 1.88965,0.3089652 6e-4,0.00342 0.429176,-0.065065 0.9525,-0.1521832 z"
       id="path5763" />
  </g>
</svg>
