<?xml version="1.0" encoding="UTF-8" standalone="no"?>
<svg
   xmlns:dc="http://purl.org/dc/elements/1.1/"
   xmlns:cc="http://creativecommons.org/ns#"
   xmlns:rdf="http://www.w3.org/1999/02/22-rdf-syntax-ns#"
   xmlns:svg="http://www.w3.org/2000/svg"
   xmlns="http://www.w3.org/2000/svg"
   xmlns:sodipodi="http://sodipodi.sourceforge.net/DTD/sodipodi-0.dtd"
   xmlns:inkscape="http://www.inkscape.org/namespaces/inkscape"
   width="13.229167mm"
   height="13.229167mm"
   viewBox="0 0 13.229167 13.229167"
   version="1.1"
   id="svg8"
   sodipodi:docname="VCS_resized_92.svg"
   inkscape:version="1.0.2-2 (e86c870879, 2021-01-15)">
  <defs
     id="defs2" />
  <sodipodi:namedview
     id="base"
     pagecolor="#ffffff"
     bordercolor="#666666"
     borderopacity="1.0"
     inkscape:pageopacity="0.0"
     inkscape:pageshadow="2"
     inkscape:zoom="2.8284271"
     inkscape:cx="-3.0101942"
     inkscape:cy="43.922144"
     inkscape:document-units="mm"
     inkscape:current-layer="layer1"
     inkscape:document-rotation="0"
     showgrid="false"
     inkscape:window-width="958"
     inkscape:window-height="1008"
     inkscape:window-x="1913"
     inkscape:window-y="0"
     inkscape:window-maximized="0" />
  <metadata
     id="metadata5">
    <rdf:RDF>
      <cc:Work
         rdf:about="">
        <dc:format>image/svg+xml</dc:format>
        <dc:type
           rdf:resource="http://purl.org/dc/dcmitype/StillImage" />
        <dc:title></dc:title>
      </cc:Work>
    </rdf:RDF>
  </metadata>
  <g
     inkscape:label="Ebene 1"
     inkscape:groupmode="layer"
     id="layer1"
     transform="translate(-38.996433,-14.970546)">
    <path
       style="fill:#000000;stroke-width:0.264582"
       d="m 43.683049,27.266281 c -1.03702,-0.139667 -1.810506,-0.480999 -2.384718,-1.052356 -0.440572,-0.43838 -0.65799,-0.833563 -0.65799,-1.19597 0,-0.518171 0.229702,-0.880812 1.086974,-1.716055 0.458776,-0.446986 0.834838,-0.972815 0.923176,-1.290833 0.08455,-0.30438 0.06073,-0.640571 -0.07204,-1.016681 -0.140308,-0.39746 -0.324096,-0.685704 -0.823048,-1.290819 -0.690076,-0.836909 -0.946506,-1.276929 -1.061614,-1.821678 -0.14251,-0.674433 0.103736,-1.535114 0.522168,-1.825089 0.719054,-0.498304 1.463754,-0.206617 2.398934,0.939624 0.90615,1.110656 1.286644,1.37186 1.997832,1.37148 0.690102,-3.8e-4 1.042828,-0.251738 2.0536,-1.463495 0.449858,-0.539309 0.927946,-0.957565 1.170364,-1.023894 0.527814,-0.144417 1.078986,0.05535 1.35922,0.492635 0.217448,0.33931 0.293848,0.624112 0.295724,1.102391 0.0028,0.701873 -0.243576,1.262132 -0.889814,2.023833 -0.804764,0.94855 -1.161982,1.641107 -1.118282,2.168074 0.04358,0.525475 0.294154,0.919015 1.074398,1.687369 0.811304,0.798942 0.978784,1.050698 1.01718,1.529034 0.04799,0.597882 -0.159834,0.958382 -0.84565,1.466883 -0.478254,0.354603 -1.003376,0.637794 -1.361462,0.734217 -0.128112,0.0345 -0.529526,0.108251 -0.892032,0.163898 -0.800922,0.122946 -2.936594,0.132762 -3.792916,0.01743 z m 3.437274,-0.263659 c 0.682356,-0.106331 1.228244,-0.231712 1.40073,-0.321723 0.07489,-0.03908 0.157882,-0.0712 0.184428,-0.07138 0.113792,-7.6e-4 0.885444,-0.498957 1.10824,-0.715492 0.365502,-0.355236 0.49112,-0.648924 0.465432,-1.088158 -0.01232,-0.21077 -0.261114,-0.541347 -0.99248,-1.31876 -0.539694,-0.573673 -0.709236,-0.792316 -0.860808,-1.1101 -0.1643,-0.344466 -0.188014,-0.443924 -0.183084,-0.767826 0.0098,-0.645127 0.321018,-1.29782 1.03987,-2.180975 0.77098,-0.947199 0.965008,-1.383113 0.924798,-2.077702 -0.02901,-0.501189 -0.149768,-0.761218 -0.463672,-0.998466 -0.211374,-0.159755 -0.264506,-0.176243 -0.502708,-0.156001 -0.498424,0.04236 -0.911708,0.33622 -1.472166,1.046774 -0.505894,0.641378 -0.960902,1.08082 -1.319624,1.274477 -0.310444,0.167595 -0.364792,0.179318 -0.834772,0.180064 -0.432256,6.8e-4 -0.543496,-0.01846 -0.79375,-0.136636 -0.369946,-0.174692 -0.762782,-0.529866 -1.188122,-1.074212 -0.97563,-1.248607 -1.76972,-1.601402 -2.345906,-1.042232 -0.248226,0.240895 -0.358442,0.579524 -0.347624,1.068033 0.0096,0.433999 0.238424,0.959112 0.655066,1.503344 0.752658,0.983151 0.896456,1.187678 1.05077,1.494531 0.330486,0.657171 0.395532,1.164171 0.216222,1.685347 -0.148898,0.432779 -0.27565,0.607538 -0.98225,1.354283 -0.705766,0.745863 -0.919844,1.07316 -0.920576,1.407435 -0.0016,0.713366 0.71319,1.420175 1.838772,1.818332 0.800908,0.283309 3.1653,0.407481 4.323214,0.227044 z"
       id="path1514" />
  </g>
</svg>
