<?xml version="1.0" encoding="UTF-8" standalone="no"?>
<svg
   xmlns:dc="http://purl.org/dc/elements/1.1/"
   xmlns:cc="http://creativecommons.org/ns#"
   xmlns:rdf="http://www.w3.org/1999/02/22-rdf-syntax-ns#"
   xmlns:svg="http://www.w3.org/2000/svg"
   xmlns="http://www.w3.org/2000/svg"
   xmlns:sodipodi="http://sodipodi.sourceforge.net/DTD/sodipodi-0.dtd"
   xmlns:inkscape="http://www.inkscape.org/namespaces/inkscape"
   width="13.229167mm"
   height="13.229167mm"
   viewBox="0 0 13.229169 13.229168"
   version="1.1"
   id="svg8"
   sodipodi:docname="VCS_resized_272.svg"
   inkscape:version="1.0.2-2 (e86c870879, 2021-01-15)">
  <defs
     id="defs2" />
  <sodipodi:namedview
     id="base"
     pagecolor="#ffffff"
     bordercolor="#666666"
     borderopacity="1.0"
     inkscape:pageopacity="0.0"
     inkscape:pageshadow="2"
     inkscape:zoom="4"
     inkscape:cx="20.597945"
     inkscape:cy="43.126522"
     inkscape:document-units="mm"
     inkscape:current-layer="layer1"
     inkscape:document-rotation="0"
     showgrid="false"
     inkscape:window-width="958"
     inkscape:window-height="1008"
     inkscape:window-x="1913"
     inkscape:window-y="0"
     inkscape:window-maximized="0" />
  <metadata
     id="metadata5">
    <rdf:RDF>
      <cc:Work
         rdf:about="">
        <dc:format>image/svg+xml</dc:format>
        <dc:type
           rdf:resource="http://purl.org/dc/dcmitype/StillImage" />
        <dc:title></dc:title>
      </cc:Work>
    </rdf:RDF>
  </metadata>
  <g
     inkscape:label="Ebene 1"
     inkscape:groupmode="layer"
     id="layer1"
     transform="translate(-80.241547,16.331505)">
    <path
       style="fill:#000000;stroke-width:0.264582"
       d="m 83.276828,-3.5928037 c -0.014,-0.094589 -0.05213,-0.874448 -0.08474,-1.733021 -0.03261,-0.8585728 -0.07346,-1.7733771 -0.09079,-2.0328979 l -0.0315,-0.4718558 -0.693136,-0.8265318 c -0.381224,-0.4545922 -1.002698,-1.1902372 -1.381052,-1.6347658 -0.378354,-0.444528 -0.687916,-0.84758 -0.687916,-0.895669 0,-0.05876 0.06942,-0.103119 0.211666,-0.135259 0.199772,-0.04514 2.056206,-0.492149 3.33375,-0.802736 l 0.582084,-0.141511 0.153094,-0.246783 c 0.230594,-0.371704 1.163202,-1.899927 1.651326,-2.705949 0.44341,-0.732185 0.530824,-0.834339 0.668686,-0.781436 0.04388,0.01684 0.269186,0.34805 0.500682,0.736026 0.583734,0.978313 1.394144,2.29977 1.63785,2.670682 l 0.203778,0.310145 1.931458,0.479771 c 1.062302,0.263875 1.996944,0.4965 2.07698,0.516946 0.08004,0.02045 0.14552,0.062 0.14552,0.09235 0,0.04848 -0.809152,1.041711 -1.97758,2.4274752 -0.207466,0.2460556 -0.487404,0.5847694 -0.622082,0.7526972 l -0.244872,0.3053238 -0.03652,0.8877195 c -0.02009,0.488245 -0.05851,1.2091876 -0.08539,1.6020938 -0.02688,0.3929062 -0.04908,0.9584532 -0.04934,1.2567708 l -4e-4,0.5423958 H 86.845368 83.30235 Z m 6.862232,-0.8466668 c 0.10414,-2.6249639 0.157794,-3.4005831 0.242952,-3.5120341 0.04713,-0.061676 0.299996,-0.3614308 0.561934,-0.6661218 0.261938,-0.304691 0.72628,-0.8602886 1.031874,-1.2346606 0.305594,-0.374372 0.647612,-0.782668 0.760042,-0.907324 0.112428,-0.124655 0.192788,-0.256947 0.178576,-0.293981 -0.01422,-0.03703 -0.35623,-0.147039 -0.76004,-0.244455 -0.403812,-0.09741 -1.222358,-0.294496 -1.818994,-0.437957 -0.596636,-0.143461 -1.133444,-0.281104 -1.192906,-0.305873 -0.05946,-0.02477 -0.33222,-0.410931 -0.606128,-0.858137 -0.27391,-0.447206 -0.66705,-1.086946 -0.873646,-1.421644 -0.206596,-0.334698 -0.468614,-0.769276 -0.582262,-0.965729 -0.113646,-0.196453 -0.224716,-0.357188 -0.246822,-0.357188 -0.0221,0 -0.175228,0.232172 -0.340276,0.515938 -0.304344,0.523257 -0.447906,0.759499 -1.36597,2.24778 -0.492986,0.79918 -0.522202,0.834633 -0.735086,0.891974 -0.121932,0.03284 -0.959884,0.235891 -1.862112,0.451218 -0.90223,0.215328 -1.686056,0.410776 -1.741838,0.434328 -0.09084,0.03835 -0.06574,0.08389 0.240464,0.436313 0.188036,0.21642 0.78386,0.9193076 1.324052,1.5619726 l 0.982168,1.1684816 0.08801,1.6625599 c 0.04841,0.914408 0.08758,1.8550446 0.08706,2.0903032 -6e-4,0.235259 0.01492,0.4436184 0.03432,0.4630208 0.0194,0.019404 1.5044,0.035278 3.299996,0.035278 h 3.264718 z"
       id="path5267" />
  </g>
</svg>
