<?xml version="1.0" encoding="UTF-8" standalone="no"?>
<svg
   xmlns:dc="http://purl.org/dc/elements/1.1/"
   xmlns:cc="http://creativecommons.org/ns#"
   xmlns:rdf="http://www.w3.org/1999/02/22-rdf-syntax-ns#"
   xmlns:svg="http://www.w3.org/2000/svg"
   xmlns="http://www.w3.org/2000/svg"
   xmlns:sodipodi="http://sodipodi.sourceforge.net/DTD/sodipodi-0.dtd"
   xmlns:inkscape="http://www.inkscape.org/namespaces/inkscape"
   width="13.229167mm"
   height="13.229167mm"
   viewBox="0 0 13.229167 13.229167"
   version="1.1"
   id="svg8"
   sodipodi:docname="VCS_resized_98.svg"
   inkscape:version="1.0.2-2 (e86c870879, 2021-01-15)">
  <defs
     id="defs2" />
  <sodipodi:namedview
     id="base"
     pagecolor="#ffffff"
     bordercolor="#666666"
     borderopacity="1.0"
     inkscape:pageopacity="0.0"
     inkscape:pageshadow="2"
     inkscape:zoom="2.8284271"
     inkscape:cx="-1.438532"
     inkscape:cy="56.217195"
     inkscape:document-units="mm"
     inkscape:current-layer="layer1"
     inkscape:document-rotation="0"
     showgrid="false"
     inkscape:window-width="958"
     inkscape:window-height="1008"
     inkscape:window-x="1913"
     inkscape:window-y="0"
     inkscape:window-maximized="0" />
  <metadata
     id="metadata5">
    <rdf:RDF>
      <cc:Work
         rdf:about="">
        <dc:format>image/svg+xml</dc:format>
        <dc:type
           rdf:resource="http://purl.org/dc/dcmitype/StillImage" />
        <dc:title></dc:title>
      </cc:Work>
    </rdf:RDF>
  </metadata>
  <g
     inkscape:label="Ebene 1"
     inkscape:groupmode="layer"
     id="layer1"
     transform="translate(-38.580597,-11.71748)">
    <path
       style="fill:#000000;stroke-width:0.264582"
       d="m 43.424791,24.164067 c -0.753778,-0.161191 -0.821288,-0.18384 -1.389292,-0.46608 -0.863628,-0.429134 -1.35486,-0.863839 -1.677422,-1.484399 -0.220312,-0.423848 -0.23603,-0.643427 -0.07657,-1.069621 0.09084,-0.242794 0.22942,-0.419189 0.76025,-0.967715 0.357036,-0.368939 0.748402,-0.812846 0.8697,-0.986458 0.617342,-0.883592 0.462986,-1.560261 -0.674514,-2.956989 -1.020862,-1.253509 -1.246976,-2.174468 -0.771986,-3.144306 0.163122,-0.333063 0.224988,-0.405501 0.462814,-0.5419 0.29493,-0.169149 0.592568,-0.202661 0.93598,-0.105384 0.310548,0.08797 0.854408,0.545659 1.331552,1.120579 0.625456,0.753624 0.968448,1.080695 1.295614,1.235469 0.388072,0.183588 0.826764,0.222174 1.188538,0.10454 0.461994,-0.150219 0.708222,-0.361371 1.388524,-1.190725 0.394224,-0.480598 0.886278,-0.972326 1.142228,-1.141472 0.111016,-0.07337 0.311626,-0.139128 0.487102,-0.15968 0.73334,-0.08589 1.306162,0.503235 1.396838,1.436594 0.07407,0.76243 -0.184534,1.420325 -0.91398,2.325183 -0.575892,0.714378 -0.754416,0.977907 -0.905506,1.336669 -0.198202,0.470629 -0.223904,0.728647 -0.10949,1.099083 0.137738,0.445944 0.3223,0.689575 1.082594,1.429091 0.520014,0.505798 0.684572,0.701894 0.79932,0.9525 0.317896,0.694281 0.199228,1.154763 -0.481096,1.86685 -0.625428,0.654627 -1.25783,1.050941 -1.876718,1.1761 -0.133546,0.02701 -0.397592,0.08726 -0.58677,0.133888 -0.257708,0.06352 -0.688962,0.08953 -1.719792,0.103722 -1.285004,0.01769 -1.414262,0.01072 -1.957916,-0.105539 z m 3.444234,-0.268518 c 0.780212,-0.160735 1.115148,-0.271199 1.549428,-0.511014 0.964188,-0.532434 1.580892,-1.359855 1.466806,-1.967986 -0.04849,-0.258461 -0.247498,-0.527966 -0.897628,-1.215592 -0.725578,-0.767425 -0.90997,-1.0278 -1.046732,-1.478056 -0.09643,-0.317473 -0.102838,-0.406222 -0.05355,-0.741541 0.07573,-0.515184 0.422546,-1.188726 0.956136,-1.856877 0.738028,-0.924143 0.973494,-1.428532 0.978442,-2.095905 0.0031,-0.41609 -0.08428,-0.689054 -0.29872,-0.933283 -0.56128,-0.639263 -1.239368,-0.398618 -2.18247,0.774533 -0.617832,0.768539 -0.946402,1.075254 -1.362992,1.272335 -0.27705,0.131067 -0.396414,0.156339 -0.738576,0.156373 -0.737628,5.3e-5 -1.230838,-0.278143 -1.85224,-1.044848 -0.848152,-1.046474 -1.430596,-1.493475 -1.94746,-1.494593 -0.658332,-0.0014 -1.089076,0.865461 -0.86448,1.739789 0.10776,0.419506 0.330874,0.803139 0.929042,1.597452 0.297206,0.394662 0.631238,0.910266 0.751606,1.160159 0.209166,0.434251 0.216652,0.468075 0.216642,0.978958 -1.6e-5,0.717924 -0.09806,0.908919 -0.923898,1.799811 -1.136754,1.226298 -1.220356,1.428199 -0.878116,2.120677 0.167926,0.339774 0.254858,0.444024 0.596942,0.715866 0.602792,0.479017 1.28587,0.800088 2.051748,0.964395 0.83791,0.17976 0.804782,0.176565 1.925388,0.185698 0.854658,0.007 1.052096,-0.0084 1.62468,-0.126351 z"
       id="path1610" />
  </g>
</svg>
