<?xml version="1.0" encoding="UTF-8" standalone="no"?>
<svg
   xmlns:dc="http://purl.org/dc/elements/1.1/"
   xmlns:cc="http://creativecommons.org/ns#"
   xmlns:rdf="http://www.w3.org/1999/02/22-rdf-syntax-ns#"
   xmlns:svg="http://www.w3.org/2000/svg"
   xmlns="http://www.w3.org/2000/svg"
   xmlns:sodipodi="http://sodipodi.sourceforge.net/DTD/sodipodi-0.dtd"
   xmlns:inkscape="http://www.inkscape.org/namespaces/inkscape"
   width="13.229167mm"
   height="13.229167mm"
   viewBox="0 0 13.229167 13.229167"
   version="1.1"
   id="svg8"
   sodipodi:docname="VCS_resized_32.svg"
   inkscape:version="1.0.2-2 (e86c870879, 2021-01-15)">
  <defs
     id="defs2" />
  <sodipodi:namedview
     id="base"
     pagecolor="#ffffff"
     bordercolor="#666666"
     borderopacity="1.0"
     inkscape:pageopacity="0.0"
     inkscape:pageshadow="2"
     inkscape:zoom="2.8284271"
     inkscape:cx="5.3538368"
     inkscape:cy="62.238586"
     inkscape:document-units="mm"
     inkscape:current-layer="layer1"
     inkscape:document-rotation="0"
     showgrid="false"
     inkscape:window-width="958"
     inkscape:window-height="1008"
     inkscape:window-x="1913"
     inkscape:window-y="0"
     inkscape:window-maximized="0" />
  <metadata
     id="metadata5">
    <rdf:RDF>
      <cc:Work
         rdf:about="">
        <dc:format>image/svg+xml</dc:format>
        <dc:type
           rdf:resource="http://purl.org/dc/dcmitype/StillImage" />
        <dc:title></dc:title>
      </cc:Work>
    </rdf:RDF>
  </metadata>
  <g
     inkscape:label="Ebene 1"
     inkscape:groupmode="layer"
     id="layer1"
     transform="translate(-36.783451,-10.12432)">
    <path
       style="fill:#000000;stroke-width:0.264582"
       d="m 40.363386,21.712914 c -0.199354,-0.02313 -0.401926,-0.261466 -0.52906,-0.622462 -0.202268,-0.57434 -0.06528,-1.211342 0.425976,-1.980864 0.674772,-1.05698 0.794762,-1.627868 0.476158,-2.265452 -0.172148,-0.344498 -0.446078,-0.612446 -1.240168,-1.213082 -0.551176,-0.416902 -1.00797,-0.899982 -1.150126,-1.216312 -0.07094,-0.157856 -0.114806,-0.365663 -0.116754,-0.553086 -0.0042,-0.406744 0.117848,-0.566597 0.53134,-0.695773 0.630974,-0.197118 1.350508,-0.04847 2.174472,0.449236 0.499468,0.301696 0.80151,0.444549 1.199246,0.567193 0.450418,0.138889 0.74961,0.141641 1.05735,0.0097 0.33696,-0.144438 0.6059,-0.406085 1.12707,-1.096506 0.727466,-0.963715 1.158512,-1.275254 1.833334,-1.325042 0.33531,-0.02474 0.399358,-0.01438 0.524154,0.08479 0.07819,0.06213 0.193588,0.249348 0.25643,0.416035 0.09363,0.248331 0.110312,0.3843 0.0924,0.752858 -0.02528,0.519988 -0.109048,0.739561 -0.546908,1.433498 -0.379018,0.600685 -0.553016,1.037683 -0.590316,1.482585 -0.05507,0.65682 0.15771,0.938122 1.454722,1.92322 0.88736,0.67396 1.17625,1.082802 1.21723,1.72265 0.02549,0.397908 0.0012,0.432868 -0.461536,0.664842 -0.248592,0.124618 -0.346124,0.143222 -0.714376,0.13627 -0.495328,-0.0094 -0.757916,-0.08588 -1.48481,-0.432726 -0.596426,-0.284594 -0.948488,-0.397086 -1.470788,-0.469948 -0.30535,-0.0426 -0.404308,-0.03475 -0.656616,0.05205 -0.35926,0.123604 -0.791936,0.448018 -1.121248,0.840692 -0.54998,0.655802 -0.968158,1.051856 -1.229174,1.164142 -0.26444,0.11376 -0.80304,0.201048 -1.057998,0.171466 z m 0.98882,-0.422438 c 0.20541,-0.105026 0.562834,-0.457852 1.139278,-1.124618 0.35436,-0.409886 0.838562,-0.754588 1.253024,-0.892026 0.250028,-0.08291 0.361102,-0.0921 0.639158,-0.05286 0.579984,0.08183 0.964946,0.204168 1.647834,0.523654 0.783854,0.366722 1.140132,0.45267 1.556998,0.375608 0.761032,-0.140684 0.904716,-0.518906 0.458804,-1.207716 -0.188776,-0.291604 -0.374514,-0.459656 -1.327884,-1.201444 -0.758218,-0.589946 -1.11191,-1.083576 -1.110468,-1.549828 0.0016,-0.541154 0.21676,-1.146252 0.644862,-1.814154 0.482088,-0.752131 0.624334,-1.25469 0.495596,-1.75098 -0.10391,-0.400589 -0.248124,-0.524692 -0.608068,-0.523274 -0.552048,0.0022 -1.020852,0.338049 -1.574342,1.127938 -0.38176,0.544812 -0.890722,1.044594 -1.242092,1.21969 -0.57861,0.288333 -1.316996,0.114896 -2.56278,-0.60196 -0.6264,-0.360447 -0.963672,-0.477663 -1.360422,-0.472805 -0.593716,0.0073 -0.91098,0.220498 -0.900084,0.60493 0.01196,0.422219 0.374626,0.870001 1.267286,1.564751 0.616194,0.479578 1.105506,0.990334 1.276212,1.33214 0.268586,0.53779 0.0766,1.445334 -0.47656,2.252828 -0.08624,0.125886 -0.241666,0.411636 -0.345394,0.635 -0.16213,0.349116 -0.188894,0.461822 -0.190688,0.802992 -0.0025,0.469926 0.100552,0.71042 0.353594,0.825434 0.221856,0.100838 0.695906,0.06488 0.966136,-0.0733 z"
       id="path504" />
  </g>
</svg>
