<?xml version="1.0" encoding="UTF-8" standalone="no"?>
<svg
   xmlns:dc="http://purl.org/dc/elements/1.1/"
   xmlns:cc="http://creativecommons.org/ns#"
   xmlns:rdf="http://www.w3.org/1999/02/22-rdf-syntax-ns#"
   xmlns:svg="http://www.w3.org/2000/svg"
   xmlns="http://www.w3.org/2000/svg"
   xmlns:sodipodi="http://sodipodi.sourceforge.net/DTD/sodipodi-0.dtd"
   xmlns:inkscape="http://www.inkscape.org/namespaces/inkscape"
   width="13.229167mm"
   height="13.229167mm"
   viewBox="0 0 13.229169 13.229168"
   version="1.1"
   id="svg8"
   sodipodi:docname="VCS_resized_165.svg"
   inkscape:version="1.0.2-2 (e86c870879, 2021-01-15)">
  <defs
     id="defs2" />
  <sodipodi:namedview
     id="base"
     pagecolor="#ffffff"
     bordercolor="#666666"
     borderopacity="1.0"
     inkscape:pageopacity="0.0"
     inkscape:pageshadow="2"
     inkscape:zoom="2.8284271"
     inkscape:cx="21.45282"
     inkscape:cy="43.240166"
     inkscape:document-units="mm"
     inkscape:current-layer="layer1"
     inkscape:document-rotation="0"
     showgrid="false"
     inkscape:window-width="958"
     inkscape:window-height="1008"
     inkscape:window-x="1913"
     inkscape:window-y="0"
     inkscape:window-maximized="0" />
  <metadata
     id="metadata5">
    <rdf:RDF>
      <cc:Work
         rdf:about="">
        <dc:format>image/svg+xml</dc:format>
        <dc:type
           rdf:resource="http://purl.org/dc/dcmitype/StillImage" />
        <dc:title></dc:title>
      </cc:Work>
    </rdf:RDF>
  </metadata>
  <g
     inkscape:label="Ebene 1"
     inkscape:groupmode="layer"
     id="layer1"
     transform="translate(-32.523922,-15.150985)">
    <path
       style="fill:#000000;stroke-width:0.264582"
       d="m 36.50427,27.672093 c -0.203728,-0.01712 -0.398722,-0.04949 -0.433318,-0.07194 -0.0346,-0.02244 -0.139802,-0.177224 -0.233794,-0.343958 -0.35487,-0.629519 -1.18141,-2.016568 -1.507668,-2.530075 -0.425532,-0.669756 -0.59292,-1.079393 -0.660144,-1.615513 -0.07725,-0.616071 -10e-4,-0.955275 0.37444,-1.667135 0.578682,-1.097033 0.614358,-1.548685 0.19874,-2.516139 -0.29232,-0.680449 -0.378672,-1.040281 -0.34879,-1.45341 0.05413,-0.748379 0.730502,-1.491068 1.48249,-1.62785 0.125578,-0.02284 0.389006,0.0061 0.740832,0.08128 0.515834,0.110284 0.677372,0.11686 2.927212,0.119173 2.28214,0.0023 2.4016,-0.0024 2.87017,-0.114996 0.937358,-0.225164 1.336312,-0.123149 1.907878,0.487855 0.467544,0.499806 0.560314,0.726735 0.5279,1.291313 -0.02315,0.403269 -0.05579,0.522435 -0.27229,0.994332 -0.47754,1.04086 -0.45787,1.586259 0.09168,2.542113 0.396322,0.689335 0.471432,0.927571 0.464846,1.474435 -0.0084,0.69631 -0.191852,1.207746 -0.74916,2.088341 -0.257296,0.406553 -0.78112,1.289174 -1.231222,2.074559 -0.44673,0.7795 -0.362894,0.728183 -1.28147,0.784399 -0.853244,0.05222 -4.258512,0.05447 -4.868334,0.0032 z m 4.259792,-0.214045 c 0.596636,-0.02602 1.127048,-0.06376 1.178692,-0.08388 0.05164,-0.02011 0.18593,-0.194531 0.298412,-0.387597 0.514114,-0.882436 0.918564,-1.564497 1.27503,-2.150195 0.68486,-1.125275 0.883944,-1.676424 0.829272,-2.295769 -0.02648,-0.300009 -0.0899,-0.46678 -0.443548,-1.166312 l -0.41265,-0.816247 0.0031,-0.559586 c 0.0034,-0.60266 0.07451,-0.89704 0.34676,-1.434944 0.420236,-0.830284 0.359258,-1.383868 -0.21577,-1.958897 -0.390744,-0.390744 -0.6188,-0.4853 -1.105302,-0.458277 -0.222558,0.01236 -0.571338,0.05392 -0.775066,0.09235 -0.269684,0.05087 -0.98201,0.07013 -2.619376,0.07081 -1.913204,8e-4 -2.350198,-0.01369 -2.927084,-0.09707 -0.641496,-0.09271 -0.693436,-0.09318 -0.961548,-0.0087 -0.376932,0.118817 -0.772986,0.477677 -0.957394,0.86748 -0.126576,0.267564 -0.138706,0.342308 -0.113374,0.698625 0.02261,0.317961 0.07239,0.494187 0.245072,0.867611 0.279796,0.605043 0.372182,0.932491 0.382866,1.357019 0.01198,0.476115 -0.06989,0.76439 -0.40436,1.423693 -0.52575,1.036365 -0.575164,1.668703 -0.191926,2.456086 0.115894,0.238111 0.399464,0.730954 0.630156,1.095207 0.23069,0.364252 0.627478,1.019096 0.88175,1.455208 0.254272,0.436112 0.508328,0.840556 0.56457,0.898765 0.08969,0.09283 0.194764,0.109506 0.854994,0.135726 1.241682,0.04931 2.48883,0.04892 3.636696,-0.0011 z"
       id="path2684" />
  </g>
</svg>
