<?xml version="1.0" encoding="UTF-8" standalone="no"?>
<svg
   xmlns:dc="http://purl.org/dc/elements/1.1/"
   xmlns:cc="http://creativecommons.org/ns#"
   xmlns:rdf="http://www.w3.org/1999/02/22-rdf-syntax-ns#"
   xmlns:svg="http://www.w3.org/2000/svg"
   xmlns="http://www.w3.org/2000/svg"
   xmlns:sodipodi="http://sodipodi.sourceforge.net/DTD/sodipodi-0.dtd"
   xmlns:inkscape="http://www.inkscape.org/namespaces/inkscape"
   width="13.229167mm"
   height="13.229167mm"
   viewBox="0 0 13.229169 13.229168"
   version="1.1"
   id="svg8"
   sodipodi:docname="VCS_resized_220.svg"
   inkscape:version="1.0.2-2 (e86c870879, 2021-01-15)">
  <defs
     id="defs2" />
  <sodipodi:namedview
     id="base"
     pagecolor="#ffffff"
     bordercolor="#666666"
     borderopacity="1.0"
     inkscape:pageopacity="0.0"
     inkscape:pageshadow="2"
     inkscape:zoom="2.8284271"
     inkscape:cx="11.108501"
     inkscape:cy="80.836647"
     inkscape:document-units="mm"
     inkscape:current-layer="layer1"
     inkscape:document-rotation="0"
     showgrid="false"
     inkscape:window-width="958"
     inkscape:window-height="1008"
     inkscape:window-x="1913"
     inkscape:window-y="0"
     inkscape:window-maximized="0" />
  <metadata
     id="metadata5">
    <rdf:RDF>
      <cc:Work
         rdf:about="">
        <dc:format>image/svg+xml</dc:format>
        <dc:type
           rdf:resource="http://purl.org/dc/dcmitype/StillImage" />
        <dc:title></dc:title>
      </cc:Work>
    </rdf:RDF>
  </metadata>
  <g
     inkscape:label="Ebene 1"
     inkscape:groupmode="layer"
     id="layer1"
     transform="translate(-45.624237,-9.2924738)">
    <path
       style="fill:#000000;stroke-width:0.264582"
       d="m 48.327244,22.103896 c -0.03968,-0.02514 -0.137854,-0.268853 -0.218164,-0.541586 -0.08031,-0.272733 -0.305586,-0.984034 -0.500612,-1.580669 -0.195024,-0.596635 -0.41055,-1.334823 -0.478946,-1.640417 -0.290924,-1.299863 -0.57367,-2.370226 -0.725372,-2.745975 -0.286348,-0.709246 -0.569568,-1.658458 -0.520828,-1.745553 0.04796,-0.08571 0.677722,-0.440967 2.807108,-1.583552 0.546826,-0.293416 1.307578,-0.842924 2.555928,-1.846205 0.518084,-0.416376 0.965516,-0.7570477 0.99429,-0.7570477 0.05761,0 0.703904,0.4930687 1.670096,1.2741397 0.855322,0.691444 1.331984,1.01137 2.293852,1.539589 0.451114,0.247734 1.161126,0.637306 1.577802,0.865717 0.416676,0.22841 0.779614,0.456439 0.80653,0.50673 0.0349,0.06522 -0.01246,0.270985 -0.165174,0.717527 -0.46681,1.365024 -0.522932,1.551633 -0.681644,2.266505 -0.09046,0.407459 -0.247836,1.050396 -0.349722,1.42875 -0.240846,0.894377 -1.12164,3.616489 -1.219962,3.770313 l -0.0761,0.119062 -3.848466,-8e-4 c -2.116658,-4.2e-4 -3.880934,-0.02138 -3.920612,-0.04652 z m 7.942096,-1.143297 c 0.608422,-1.807145 0.769718,-2.376056 1.20518,-4.250831 0.09012,-0.387978 0.259812,-0.971384 0.377098,-1.296458 0.117286,-0.325074 0.276724,-0.777829 0.354306,-1.006122 l 0.14106,-0.415078 -0.121852,-0.09867 C 58.10895,13.79936 57.331286,13.372225 55.887096,12.609261 55.150536,12.220137 54.336904,11.650325 53.134512,10.681536 52.692016,10.32501 52.30119,10.033307 52.26601,10.033307 c -0.07477,0 -0.343616,0.199576 -1.248912,0.927118 -1.149822,0.924056 -1.73671,1.317916 -2.697086,1.81001 -1.515352,0.776463 -2.169582,1.142345 -2.169582,1.213351 0,0.09379 0.251584,0.857141 0.459464,1.394104 0.225454,0.582356 0.595888,1.955726 0.785016,2.910417 0.04901,0.247385 0.28707,1.05701 0.52903,1.799166 0.241958,0.742157 0.466738,1.450738 0.499508,1.574626 l 0.05958,0.225249 3.74172,-0.01358 3.741718,-0.01358 z"
       id="path4419" />
  </g>
</svg>
