<?xml version="1.0" encoding="UTF-8" standalone="no"?>
<svg
   xmlns:dc="http://purl.org/dc/elements/1.1/"
   xmlns:cc="http://creativecommons.org/ns#"
   xmlns:rdf="http://www.w3.org/1999/02/22-rdf-syntax-ns#"
   xmlns:svg="http://www.w3.org/2000/svg"
   xmlns="http://www.w3.org/2000/svg"
   xmlns:sodipodi="http://sodipodi.sourceforge.net/DTD/sodipodi-0.dtd"
   xmlns:inkscape="http://www.inkscape.org/namespaces/inkscape"
   width="13.229167mm"
   height="13.229167mm"
   viewBox="0 0 13.229169 13.229168"
   version="1.1"
   id="svg8"
   sodipodi:docname="VCS_resized_159.svg"
   inkscape:version="1.0.2-2 (e86c870879, 2021-01-15)">
  <defs
     id="defs2" />
  <sodipodi:namedview
     id="base"
     pagecolor="#ffffff"
     bordercolor="#666666"
     borderopacity="1.0"
     inkscape:pageopacity="0.0"
     inkscape:pageshadow="2"
     inkscape:zoom="2.8284271"
     inkscape:cx="7.444821"
     inkscape:cy="55.292494"
     inkscape:document-units="mm"
     inkscape:current-layer="layer1"
     inkscape:document-rotation="0"
     showgrid="false"
     inkscape:window-width="958"
     inkscape:window-height="1008"
     inkscape:window-x="1913"
     inkscape:window-y="0"
     inkscape:window-maximized="0" />
  <metadata
     id="metadata5">
    <rdf:RDF>
      <cc:Work
         rdf:about="">
        <dc:format>image/svg+xml</dc:format>
        <dc:type
           rdf:resource="http://purl.org/dc/dcmitype/StillImage" />
        <dc:title></dc:title>
      </cc:Work>
    </rdf:RDF>
  </metadata>
  <g
     inkscape:label="Ebene 1"
     inkscape:groupmode="layer"
     id="layer1"
     transform="translate(-36.230206,-11.962139)">
    <path
       style="fill:#000000;stroke-width:0.264582"
       d="m 40.502973,24.528945 c -0.334698,-0.02756 -0.63868,-0.07496 -0.675516,-0.105347 -0.03684,-0.03039 -0.296718,-0.438973 -0.577518,-0.907973 -0.280798,-0.469001 -0.750634,-1.221823 -1.044082,-1.672937 -0.65647,-1.009191 -0.822152,-1.437161 -0.82384,-2.128047 -0.0014,-0.570276 0.06075,-0.7594 0.502128,-1.528186 0.367084,-0.639377 0.436922,-0.81844 0.483062,-1.238559 0.03608,-0.328472 -0.09933,-0.828551 -0.394012,-1.455208 -0.254802,-0.541845 -0.351348,-0.976526 -0.308324,-1.388165 0.08455,-0.808931 0.786086,-1.522252 1.497102,-1.522252 0.15402,0 0.46295,0.05981 0.690756,0.133733 0.676986,0.219683 1.747574,0.337208 3.068646,0.336866 1.42434,-3.8e-4 1.950112,-0.05835 2.661598,-0.293507 0.323562,-0.106942 0.677182,-0.187142 0.846668,-0.192022 0.523598,-0.01507 1.022754,0.326891 1.380254,0.945594 0.170008,0.294222 0.180642,0.341275 0.178368,0.789128 -0.0026,0.507929 0.0039,0.486742 -0.479542,1.561041 -0.18102,0.402238 -0.202276,0.494548 -0.20105,0.873125 0.0016,0.517615 0.09417,0.797621 0.443188,1.341712 0.474894,0.74032 0.557408,0.968898 0.556722,1.542247 -8e-4,0.631685 -0.144316,1.102171 -0.523452,1.715481 -0.148334,0.23995 -0.48401,0.787781 -0.745946,1.217402 -0.935272,1.534001 -1.115194,1.803588 -1.245064,1.865553 -0.321892,0.153586 -3.86678,0.227512 -5.290146,0.110321 z m 4.5697,-0.256291 c 0.257764,-0.02806 0.51044,-0.07339 0.561506,-0.100718 0.05107,-0.02733 0.303608,-0.401856 0.561206,-0.832281 0.257596,-0.430426 0.657432,-1.080249 0.888522,-1.444051 0.784764,-1.235445 0.966926,-1.710696 0.921334,-2.403717 -0.02625,-0.399061 -0.16306,-0.728223 -0.573174,-1.379067 -0.359226,-0.570082 -0.436056,-0.832436 -0.403144,-1.376591 0.03169,-0.523994 0.122016,-0.822923 0.459304,-1.520094 0.316448,-0.654094 0.34349,-1.020914 0.110192,-1.494806 -0.28885,-0.586738 -0.823364,-0.915456 -1.333588,-0.820135 -0.129448,0.02418 -0.42512,0.0942 -0.657046,0.155598 -0.730676,0.193423 -1.416138,0.26432 -2.564812,0.265279 -1.212804,0.001 -2.207238,-0.09364 -3.078572,-0.293012 -0.67176,-0.153709 -0.948842,-0.160408 -1.236184,-0.02989 -0.30684,0.139379 -0.643648,0.544467 -0.746306,0.897598 -0.131304,0.451667 -0.07623,0.789446 0.248224,1.522343 0.1532,0.346059 0.31026,0.748261 0.349022,0.893782 0.106314,0.399121 0.08984,0.873607 -0.04266,1.228327 -0.115938,0.310395 -0.162286,0.401397 -0.460818,0.904776 -0.33576,0.566154 -0.48395,1.229073 -0.381516,1.706702 0.07758,0.36173 0.396696,0.986368 0.848188,1.660225 0.196218,0.292858 0.611948,0.95434 0.923844,1.469958 0.513378,0.848703 0.58306,0.94044 0.735784,0.968663 0.661768,0.122294 3.81582,0.135961 4.870692,0.02111 z"
       id="path2588" />
  </g>
</svg>
