<?xml version="1.0" encoding="UTF-8" standalone="no"?>
<svg
   xmlns:dc="http://purl.org/dc/elements/1.1/"
   xmlns:cc="http://creativecommons.org/ns#"
   xmlns:rdf="http://www.w3.org/1999/02/22-rdf-syntax-ns#"
   xmlns:svg="http://www.w3.org/2000/svg"
   xmlns="http://www.w3.org/2000/svg"
   xmlns:sodipodi="http://sodipodi.sourceforge.net/DTD/sodipodi-0.dtd"
   xmlns:inkscape="http://www.inkscape.org/namespaces/inkscape"
   width="13.229167mm"
   height="13.229167mm"
   viewBox="0 0 13.229169 13.229168"
   version="1.1"
   id="svg8"
   sodipodi:docname="VCS_resized_302.svg"
   inkscape:version="1.0.2-2 (e86c870879, 2021-01-15)">
  <defs
     id="defs2" />
  <sodipodi:namedview
     id="base"
     pagecolor="#ffffff"
     bordercolor="#666666"
     borderopacity="1.0"
     inkscape:pageopacity="0.0"
     inkscape:pageshadow="2"
     inkscape:zoom="4"
     inkscape:cx="-3.9943435"
     inkscape:cy="23.422596"
     inkscape:document-units="mm"
     inkscape:current-layer="layer1"
     inkscape:document-rotation="0"
     showgrid="false"
     inkscape:window-width="958"
     inkscape:window-height="1008"
     inkscape:window-x="1913"
     inkscape:window-y="0"
     inkscape:window-maximized="0" />
  <metadata
     id="metadata5">
    <rdf:RDF>
      <cc:Work
         rdf:about="">
        <dc:format>image/svg+xml</dc:format>
        <dc:type
           rdf:resource="http://purl.org/dc/dcmitype/StillImage" />
        <dc:title></dc:title>
      </cc:Work>
    </rdf:RDF>
  </metadata>
  <g
     inkscape:label="Ebene 1"
     inkscape:groupmode="layer"
     id="layer1"
     transform="translate(-96.284599,14.620448)">
    <path
       style="fill:#000000;stroke-width:0.264582"
       d="m 102.30386,-2.0048964 c -0.24738,-0.040597 -0.746,-0.1162484 -1.10803,-0.1681148 -0.76885,-0.1101492 -0.69902,-0.024413 -0.7965,-0.9779734 -0.0939,-0.9187054 -0.31795,-2.7540354 -0.34697,-2.8425499 -0.0143,-0.043656 -0.492156,-0.4246564 -1.061886,-0.8466668 -2.110792,-1.5635166 -2.586818,-1.933303 -2.586818,-2.009496 0,-0.055014 0.148316,-0.1128576 0.502708,-0.1960578 0.481558,-0.1130544 3.455066,-0.7890098 3.782536,-0.8598674 0.17007,-0.036799 0.10504,0.091256 1.62034,-3.1908155 0.43872,-0.950241 0.5514,-1.098262 0.70995,-0.932639 0.0602,0.06288 1.0692,2.19235 1.19749,2.527265 0.0408,0.106617 0.67899,1.477815 0.71205,1.5300012 0.0134,0.021105 0.50851,0.1417379 1.76721,0.4305535 0.53843,0.123545 1.35714,0.3174804 1.81936,0.4309666 0.46222,0.1134866 0.84918,0.2063394 0.8599,0.2063394 0.0107,0 0.0195,0.033426 0.0195,0.07428 0,0.040854 -0.82028,0.6891024 -1.82284,1.4405524 l -1.82283,1.366273 -0.0524,0.3453847 c -0.0566,0.3730568 -0.23202,1.8554706 -0.32579,2.7530934 -0.0319,0.3055938 -0.0862,0.5820616 -0.12053,0.6143736 -0.0608,0.057171 -2.17948,0.3988436 -2.39082,0.3855614 -0.0582,-0.00366 -0.30824,-0.039867 -0.55563,-0.080464 z M 103.91,-2.3371486 c 0.57778,-0.084446 1.07005,-0.173726 1.09392,-0.1984 0.0239,-0.024673 0.12937,-0.7473298 0.23443,-1.6059028 0.10506,-0.8585728 0.20811,-1.6667564 0.22899,-1.795963 0.0366,-0.2266065 0.0614,-0.2523981 0.69944,-0.7287185 2.1119,-1.5765954 2.70435,-2.0417198 2.65873,-2.0873398 -0.0271,-0.027098 -0.51139,-0.154262 -1.07619,-0.2825882 -0.5648,-0.128326 -1.46674,-0.3356854 -2.00431,-0.4607978 l -0.97739,-0.2274776 -0.16978,-0.3438697 c -0.0934,-0.189129 -0.26614,-0.558183 -0.3839,-0.82012 -0.62899,-1.398996 -1.27495,-2.751029 -1.31215,-2.746387 -0.0625,0.0078 -0.24596,0.38753 -1.41604,2.931595 -0.1941,0.42201 -0.38532,0.8173519 -0.42495,0.8785369 -0.0809,0.1248596 -0.31174,0.1858032 -2.610564,0.6891136 -0.766152,0.1677432 -1.42813,0.3306732 -1.471064,0.3620664 -0.06323,0.046238 0.03044,0.1372542 0.493204,0.4792018 2.670824,1.9735424 2.816294,2.089624 2.848034,2.2726174 0.0259,0.1495671 0.1524,1.2064061 0.29143,2.4357555 0.12257,1.0838102 0.11364,1.050126 0.28992,1.0934488 0.0872,0.021432 0.44431,0.07936 0.79356,0.1287288 0.60575,0.085627 1.08067,0.1578462 1.13771,0.1730064 0.0146,0.00387 0.49919,-0.06206 1.07697,-0.1465062 z"
       id="path5747" />
  </g>
</svg>
