<?xml version="1.0" encoding="UTF-8" standalone="no"?>
<svg
   xmlns:dc="http://purl.org/dc/elements/1.1/"
   xmlns:cc="http://creativecommons.org/ns#"
   xmlns:rdf="http://www.w3.org/1999/02/22-rdf-syntax-ns#"
   xmlns:svg="http://www.w3.org/2000/svg"
   xmlns="http://www.w3.org/2000/svg"
   xmlns:sodipodi="http://sodipodi.sourceforge.net/DTD/sodipodi-0.dtd"
   xmlns:inkscape="http://www.inkscape.org/namespaces/inkscape"
   width="13.229167mm"
   height="13.229167mm"
   viewBox="0 0 13.229167 13.229167"
   version="1.1"
   id="svg8"
   sodipodi:docname="VCS_resized_69.svg"
   inkscape:version="1.0.2-2 (e86c870879, 2021-01-15)">
  <defs
     id="defs2" />
  <sodipodi:namedview
     id="base"
     pagecolor="#ffffff"
     bordercolor="#666666"
     borderopacity="1.0"
     inkscape:pageopacity="0.0"
     inkscape:pageshadow="2"
     inkscape:zoom="2.8284271"
     inkscape:cx="28.982388"
     inkscape:cy="27.604023"
     inkscape:document-units="mm"
     inkscape:current-layer="layer1"
     inkscape:document-rotation="0"
     showgrid="false"
     inkscape:window-width="958"
     inkscape:window-height="1008"
     inkscape:window-x="1913"
     inkscape:window-y="0"
     inkscape:window-maximized="0" />
  <metadata
     id="metadata5">
    <rdf:RDF>
      <cc:Work
         rdf:about="">
        <dc:format>image/svg+xml</dc:format>
        <dc:type
           rdf:resource="http://purl.org/dc/dcmitype/StillImage" />
        <dc:title></dc:title>
      </cc:Work>
    </rdf:RDF>
  </metadata>
  <g
     inkscape:label="Ebene 1"
     inkscape:groupmode="layer"
     id="layer1"
     transform="translate(-30.531729,-19.288048)">
    <path
       style="fill:#000000;stroke-width:0.264582"
       d="m 33.940275,31.051466 c -0.572882,-0.07578 -1.210002,-0.481449 -1.42836,-0.909464 -0.05841,-0.114498 -0.120276,-0.358868 -0.137474,-0.543045 -0.02879,-0.308291 -0.01628,-0.365863 0.157686,-0.725408 0.15465,-0.319634 0.295492,-0.495788 0.77574,-0.970235 0.32273,-0.318832 0.659682,-0.693297 0.748778,-0.832143 0.21004,-0.327317 0.330716,-0.78827 0.28543,-1.090259 -0.08633,-0.575696 -0.300258,-0.926657 -1.13553,-1.862899 -0.721602,-0.808831 -0.951372,-1.218045 -0.993004,-1.768515 -0.0515,-0.68088 0.156174,-1.189787 0.596586,-1.461977 0.29842,-0.184433 0.794592,-0.177554 1.213934,0.01683 0.261598,0.121263 0.466576,0.29997 1.164166,1.014955 0.716842,0.734715 0.89941,0.89268 1.190626,1.030177 0.429596,0.202833 0.851028,0.218761 1.30399,0.04929 0.330946,-0.123823 0.587936,-0.356313 1.305482,-1.181021 0.68076,-0.782431 1.154352,-1.084224 1.703236,-1.085374 0.258096,-5.4e-4 0.370316,0.02962 0.59979,0.161215 0.244152,0.140011 0.304922,0.209649 0.449792,0.515441 0.149682,0.315946 0.167502,0.404519 0.167502,0.832554 0,0.446336 -0.01338,0.505867 -0.196134,0.873125 -0.12861,0.258443 -0.372464,0.594526 -0.708316,0.976214 -0.870224,0.988987 -1.114796,1.466487 -1.069792,2.088648 0.04243,0.586576 0.241252,0.86592 1.404486,1.973287 0.58372,0.555686 0.780414,0.940488 0.743618,1.454776 -0.03004,0.41978 -0.113142,0.601369 -0.412006,0.900233 -0.485648,0.485648 -1.200856,0.575434 -2.513522,0.315547 -1.705784,-0.337719 -1.981254,-0.329873 -3.889376,0.110786 -0.574288,0.132625 -0.956164,0.166362 -1.327328,0.117264 z m 1.350046,-0.422389 c 1.76375,-0.421508 2.032774,-0.421413 4.429974,0.0016 0.510194,0.09002 0.668768,0.09902 0.921524,0.0523 0.95412,-0.176378 1.411158,-0.939718 1.006454,-1.680966 -0.08993,-0.164709 -0.443736,-0.56964 -0.883228,-1.010847 -0.60779,-0.610161 -0.76277,-0.798495 -0.906052,-1.101051 -0.155066,-0.327436 -0.172358,-0.411261 -0.16808,-0.814778 0.0078,-0.733446 0.263882,-1.225941 1.15574,-2.2225 0.512948,-0.573163 0.823866,-1.160973 0.823866,-1.557562 0,-0.762787 -0.398988,-1.249127 -1.02209,-1.245857 -0.475208,0.0025 -0.912436,0.312558 -1.59228,1.129181 -0.583674,0.701103 -0.780572,0.876499 -1.238476,1.103225 -0.282382,0.139818 -0.392584,0.165039 -0.714374,0.16349 -0.659076,-0.0032 -1.180982,-0.293415 -1.825316,-1.0151 -0.944784,-1.058203 -1.351024,-1.352906 -1.862464,-1.351103 -0.549042,0.0019 -0.900536,0.344912 -0.94208,0.919254 -0.04433,0.612799 0.211522,1.126168 0.990144,1.986766 0.570792,0.630884 0.877632,1.085432 1.036298,1.535146 0.156164,0.442625 0.165888,0.756886 0.03627,1.172119 -0.141756,0.454115 -0.32419,0.707571 -0.987926,1.37254 -0.688762,0.690042 -0.873536,0.993796 -0.873536,1.436026 0,0.357926 0.137784,0.63505 0.435304,0.875517 0.410116,0.331473 0.596726,0.397481 1.141846,0.403896 0.25863,0.003 0.602252,-0.04701 1.038484,-0.15126 z"
       id="path1146" />
  </g>
</svg>
