<?xml version="1.0" encoding="UTF-8" standalone="no"?>
<svg
   xmlns:dc="http://purl.org/dc/elements/1.1/"
   xmlns:cc="http://creativecommons.org/ns#"
   xmlns:rdf="http://www.w3.org/1999/02/22-rdf-syntax-ns#"
   xmlns:svg="http://www.w3.org/2000/svg"
   xmlns="http://www.w3.org/2000/svg"
   xmlns:sodipodi="http://sodipodi.sourceforge.net/DTD/sodipodi-0.dtd"
   xmlns:inkscape="http://www.inkscape.org/namespaces/inkscape"
   width="13.229167mm"
   height="13.229167mm"
   viewBox="0 0 13.229167 13.229167"
   version="1.1"
   id="svg8"
   sodipodi:docname="VCS_resized_15.svg"
   inkscape:version="1.0.2-2 (e86c870879, 2021-01-15)">
  <defs
     id="defs2" />
  <sodipodi:namedview
     id="base"
     pagecolor="#ffffff"
     bordercolor="#666666"
     borderopacity="1.0"
     inkscape:pageopacity="0.0"
     inkscape:pageshadow="2"
     inkscape:zoom="2.8284271"
     inkscape:cx="8.3006804"
     inkscape:cy="54.65433"
     inkscape:document-units="mm"
     inkscape:current-layer="layer1"
     inkscape:document-rotation="0"
     showgrid="false"
     inkscape:window-width="958"
     inkscape:window-height="1008"
     inkscape:window-x="1913"
     inkscape:window-y="0"
     inkscape:window-maximized="0" />
  <metadata
     id="metadata5">
    <rdf:RDF>
      <cc:Work
         rdf:about="">
        <dc:format>image/svg+xml</dc:format>
        <dc:type
           rdf:resource="http://purl.org/dc/dcmitype/StillImage" />
        <dc:title></dc:title>
      </cc:Work>
    </rdf:RDF>
  </metadata>
  <g
     inkscape:label="Ebene 1"
     inkscape:groupmode="layer"
     id="layer1"
     transform="translate(-36.003765,-12.130987)">
    <path
       style="fill:#000000;stroke-width:0.264582"
       d="m 40.333372,23.96788 c -0.04705,-0.052 -0.140042,-0.21273 -0.206638,-0.357188 -0.105702,-0.229282 -0.121084,-0.34668 -0.121084,-0.924108 0,-0.581824 0.0176,-0.713988 0.14623,-1.09779 0.31206,-0.931158 0.40468,-1.783883 0.229924,-2.116866 -0.156216,-0.297654 -0.548978,-0.607046 -1.460946,-1.150831 -1.046118,-0.623778 -1.542941,-1.064277 -1.718331,-1.523531 -0.1325,-0.346946 -0.05135,-0.459063 0.448642,-0.619831 0.561563,-0.180566 1.248237,-0.163323 2.116357,0.05314 0.912872,0.227628 1.562176,0.326505 1.875978,0.28568 0.228344,-0.02971 0.300032,-0.07237 0.557776,-0.331927 0.163584,-0.164737 0.48398,-0.603437 0.716938,-0.981667 0.493836,-0.801787 0.939292,-1.301896 1.407352,-1.580019 0.435906,-0.259018 0.606408,-0.251206 0.766494,0.03512 0.291294,0.520998 0.309932,1.285452 0.05313,2.179299 -0.242098,0.84268 -0.297672,1.128377 -0.297672,1.530252 0,0.434713 0.03977,0.529485 0.351222,0.836953 0.252742,0.24951 0.40411,0.357866 1.483704,1.062098 0.81431,0.531183 1.37104,1.15265 1.404516,1.567832 0.01434,0.177892 0.0024,0.191478 -0.302568,0.343958 -0.298532,0.149266 -0.353852,0.158638 -0.926042,0.1569 -0.514582,-0.0016 -0.714756,-0.02925 -1.296458,-0.179348 -0.927374,-0.239288 -1.827824,-0.28836 -2.10848,-0.114904 -0.29668,0.183358 -0.7935,0.752652 -1.096612,1.256578 -0.607978,1.010768 -0.830624,1.257922 -1.437544,1.595792 -0.346694,0.193002 -0.464966,0.208022 -0.585892,0.0744 z m 0.799682,-0.501296 c 0.294094,-0.210964 0.515414,-0.493592 0.998668,-1.27531 0.360354,-0.582918 0.980934,-1.278824 1.273656,-1.428254 0.287086,-0.146552 1.31908,-0.0749 2.209376,0.153404 0.993994,0.254894 1.558266,0.26692 1.997668,0.04257 0.405932,-0.207256 -0.109648,-0.89706 -1.150524,-1.539304 -0.808672,-0.498969 -1.082078,-0.699572 -1.46773,-1.076902 l -0.371936,-0.363909 0.02749,-0.728545 c 0.02261,-0.599208 0.05323,-0.808396 0.1725,-1.178337 0.246012,-0.763067 0.320974,-1.274921 0.24242,-1.655248 -0.0369,-0.178628 -0.102646,-0.393552 -0.146114,-0.477609 -0.07178,-0.138814 -0.09686,-0.149623 -0.273454,-0.117857 -0.461698,0.08305 -1.027778,0.654756 -1.531878,1.547092 -0.272194,0.481823 -0.620822,0.921938 -0.923964,1.166429 -0.26917,0.217091 -0.291308,0.224689 -0.655296,0.224896 -0.434286,2.6e-4 -1.06859,-0.101407 -1.898702,-0.304285 -0.770146,-0.188222 -1.5128,-0.196862 -1.89853,-0.02209 -0.252953,0.114613 -0.257485,0.120822 -0.226701,0.310532 0.05497,0.338745 0.559137,0.78489 1.569605,1.388975 0.734422,0.439056 1.228598,0.808429 1.440818,1.07694 l 0.17314,0.219065 -0.009,0.663141 c -0.0084,0.61428 -0.02521,0.715776 -0.22868,1.377516 -0.120812,0.392906 -0.230084,0.85725 -0.242826,1.031874 -0.02636,0.361272 0.104042,0.991786 0.23148,1.119224 0.119482,0.119482 0.392356,0.05844 0.688538,-0.154016 z"
       id="path232" />
  </g>
</svg>
