<?xml version="1.0" encoding="UTF-8" standalone="no"?>
<svg
   xmlns:dc="http://purl.org/dc/elements/1.1/"
   xmlns:cc="http://creativecommons.org/ns#"
   xmlns:rdf="http://www.w3.org/1999/02/22-rdf-syntax-ns#"
   xmlns:svg="http://www.w3.org/2000/svg"
   xmlns="http://www.w3.org/2000/svg"
   xmlns:sodipodi="http://sodipodi.sourceforge.net/DTD/sodipodi-0.dtd"
   xmlns:inkscape="http://www.inkscape.org/namespaces/inkscape"
   width="13.229167mm"
   height="13.229167mm"
   viewBox="0 0 13.229167 13.229167"
   version="1.1"
   id="svg8"
   sodipodi:docname="VCS_resized_94.svg"
   inkscape:version="1.0.2-2 (e86c870879, 2021-01-15)">
  <defs
     id="defs2" />
  <sodipodi:namedview
     id="base"
     pagecolor="#ffffff"
     bordercolor="#666666"
     borderopacity="1.0"
     inkscape:pageopacity="0.0"
     inkscape:pageshadow="2"
     inkscape:zoom="2.8284271"
     inkscape:cx="3.3602186"
     inkscape:cy="37.058539"
     inkscape:document-units="mm"
     inkscape:current-layer="layer1"
     inkscape:document-rotation="0"
     showgrid="false"
     inkscape:window-width="958"
     inkscape:window-height="1008"
     inkscape:window-x="1913"
     inkscape:window-y="0"
     inkscape:window-maximized="0" />
  <metadata
     id="metadata5">
    <rdf:RDF>
      <cc:Work
         rdf:about="">
        <dc:format>image/svg+xml</dc:format>
        <dc:type
           rdf:resource="http://purl.org/dc/dcmitype/StillImage" />
        <dc:title></dc:title>
      </cc:Work>
    </rdf:RDF>
  </metadata>
  <g
     inkscape:label="Ebene 1"
     inkscape:groupmode="layer"
     id="layer1"
     transform="translate(-37.310928,-16.786541)">
    <path
       style="fill:#000000;stroke-width:0.264582"
       d="m 41.952241,29.110185 c -1.377428,-0.253747 -2.34208,-0.834539 -2.829312,-1.703457 -0.140524,-0.250605 -0.184194,-0.392061 -0.190078,-0.615681 -0.0119,-0.452233 0.167296,-0.752589 0.924038,-1.548822 0.358136,-0.376826 0.728744,-0.797987 0.823572,-0.935912 0.345286,-0.502212 0.406054,-0.9179 0.21693,-1.483917 -0.138698,-0.415093 -0.30911,-0.681756 -0.927608,-1.451526 -0.801422,-0.997433 -1.072804,-1.635153 -1.005234,-2.362193 0.0835,-0.898418 0.563184,-1.434074 1.281142,-1.430631 0.537626,0.0026 1.007598,0.345707 1.818224,1.327491 0.61418,0.743862 0.865956,0.967079 1.271814,1.127557 0.229148,0.09061 0.369704,0.110536 0.661402,0.09379 0.654296,-0.03757 0.94241,-0.243501 1.835084,-1.311642 0.79565,-0.952044 1.155674,-1.216572 1.672996,-1.22923 0.682912,-0.01671 1.166258,0.480016 1.28737,1.323001 0.108854,0.757673 -0.179038,1.527979 -0.88473,2.367243 -1.033562,1.229196 -1.285936,1.91383 -0.985074,2.672291 0.135842,0.342454 0.408306,0.678097 0.990214,1.219829 0.631862,0.588237 0.807992,0.820268 0.933366,1.229598 0.12085,0.394559 0.09466,0.638448 -0.11137,1.036956 -0.265536,0.513619 -1.40114,1.330834 -2.092022,1.505481 -0.912262,0.230611 -1.254386,0.266816 -2.645834,0.279996 -1.247764,0.01182 -1.438112,0.0016 -2.04489,-0.110219 z m 3.79114,-0.290131 c 0.919572,-0.181587 1.389512,-0.366834 1.955898,-0.770998 0.824628,-0.588442 1.087542,-1.215244 0.750776,-1.789892 -0.0796,-0.135823 -0.423506,-0.539338 -0.76424,-0.8967 -0.717374,-0.752385 -0.87086,-0.961192 -1.022712,-1.391345 -0.08695,-0.246301 -0.105642,-0.398803 -0.08709,-0.710491 0.03784,-0.635743 0.31193,-1.180104 1.086788,-2.158424 0.727862,-0.918983 0.941708,-1.46227 0.847298,-2.152607 -0.05389,-0.394027 -0.178498,-0.6389 -0.427808,-0.840683 -0.162456,-0.131487 -0.242884,-0.157398 -0.49939,-0.160883 -0.516768,-0.007 -0.898908,0.276744 -1.643,1.22004 -0.479962,0.608454 -0.879578,0.974931 -1.268204,1.163035 -0.260524,0.126101 -0.368658,0.147038 -0.753938,0.145984 -0.367204,-0.001 -0.503232,-0.02577 -0.740834,-0.134892 -0.369462,-0.169676 -0.800712,-0.564237 -1.326978,-1.214086 -0.522418,-0.645097 -0.895448,-0.972656 -1.26559,-1.11132 -0.747106,-0.279884 -1.34571,0.239166 -1.340648,1.162475 0.0035,0.629693 0.249862,1.124708 1.07018,2.149902 0.49948,0.624226 0.843936,1.310661 0.918936,1.831259 0.05096,0.353701 0.04491,0.42814 -0.0616,0.757805 -0.152824,0.473043 -0.287754,0.662737 -1.027358,1.444342 -1.058062,1.118148 -1.128518,1.392117 -0.567652,2.207308 0.373942,0.543506 1.413662,1.082166 2.408902,1.248008 0.320796,0.05346 0.654702,0.109065 0.742014,0.123576 0.08731,0.01451 0.682626,0.01664 1.322918,0.0047 0.874086,-0.01626 1.29602,-0.04769 1.693332,-0.126146 z"
       id="path1546" />
  </g>
</svg>
