<?xml version="1.0" encoding="UTF-8" standalone="no"?>
<svg
   xmlns:dc="http://purl.org/dc/elements/1.1/"
   xmlns:cc="http://creativecommons.org/ns#"
   xmlns:rdf="http://www.w3.org/1999/02/22-rdf-syntax-ns#"
   xmlns:svg="http://www.w3.org/2000/svg"
   xmlns="http://www.w3.org/2000/svg"
   xmlns:sodipodi="http://sodipodi.sourceforge.net/DTD/sodipodi-0.dtd"
   xmlns:inkscape="http://www.inkscape.org/namespaces/inkscape"
   width="13.229167mm"
   height="13.229167mm"
   viewBox="0 0 13.229169 13.229168"
   version="1.1"
   id="svg8"
   sodipodi:docname="VCS_resized_288.svg"
   inkscape:version="1.0.2-2 (e86c870879, 2021-01-15)">
  <defs
     id="defs2" />
  <sodipodi:namedview
     id="base"
     pagecolor="#ffffff"
     bordercolor="#666666"
     borderopacity="1.0"
     inkscape:pageopacity="0.0"
     inkscape:pageshadow="2"
     inkscape:zoom="4"
     inkscape:cx="10.137209"
     inkscape:cy="40.83718"
     inkscape:document-units="mm"
     inkscape:current-layer="layer1"
     inkscape:document-rotation="0"
     showgrid="false"
     inkscape:window-width="958"
     inkscape:window-height="1008"
     inkscape:window-x="1913"
     inkscape:window-y="0"
     inkscape:window-maximized="0" />
  <metadata
     id="metadata5">
    <rdf:RDF>
      <cc:Work
         rdf:about="">
        <dc:format>image/svg+xml</dc:format>
        <dc:type
           rdf:resource="http://purl.org/dc/dcmitype/StillImage" />
        <dc:title></dc:title>
      </cc:Work>
    </rdf:RDF>
  </metadata>
  <g
     inkscape:label="Ebene 1"
     inkscape:groupmode="layer"
     id="layer1"
     transform="translate(-89.710457,19.21454)">
    <path
       style="fill:#000000;stroke-width:0.264582"
       d="m 93.440218,-6.5560286 c -0.02522,-0.066325 -0.08543,-0.655684 -0.133808,-1.3096874 -0.04838,-0.6540033 -0.117372,-1.5399569 -0.15332,-1.9687851 l -0.06536,-0.7796879 -0.183166,-0.192166 c -0.100742,-0.105692 -0.844988,-0.811416 -1.65388,-1.568277 -0.808894,-0.756861 -1.461864,-1.402996 -1.451046,-1.435854 0.01082,-0.03286 0.851232,-0.232929 1.867588,-0.444598 1.016356,-0.21167 1.988016,-0.414587 2.159244,-0.450927 l 0.311326,-0.06607 0.420808,-0.792614 c 0.231444,-0.435938 0.691104,-1.31649 1.021468,-1.956782 0.330364,-0.640291 0.637888,-1.187857 0.683388,-1.216812 0.05487,-0.03492 0.110382,-0.03492 0.164846,0 0.04516,0.02895 0.482646,0.826552 0.97218,1.772437 0.489535,0.945886 0.946691,1.825434 1.015905,1.954552 l 0.12584,0.234761 1.534579,0.327829 c 0.84402,0.180306 1.79014,0.381286 2.10248,0.446623 0.82356,0.172273 0.82417,0.173342 0.35352,0.6132 -0.49829,0.465692 -1.31029,1.238038 -2.21401,2.105893 l -0.710429,0.682233 -0.06763,0.8258921 c -0.0372,0.4542408 -0.10742,1.3616732 -0.156048,2.0165169 -0.04863,0.6548438 -0.11216,1.2203906 -0.141184,1.2567708 -0.04105,0.051446 -0.686664,0.066146 -2.905107,0.066146 h -2.85233 z m 5.577375,-0.2101388 c 0.01224,-0.03638 0.06059,-0.5781146 0.107448,-1.2038542 0.04686,-0.6257395 0.119198,-1.5068021 0.160756,-1.9579167 l 0.07556,-0.8202077 0.305472,-0.291042 c 1.643261,-1.565627 2.688191,-2.571758 2.701541,-2.601226 0.009,-0.01959 -0.0268,-0.0491 -0.0794,-0.06558 -0.1362,-0.04271 -3.048787,-0.661272 -3.429265,-0.728293 -0.174626,-0.03076 -0.369414,-0.08853 -0.432864,-0.128378 -0.106938,-0.06716 -0.369294,-0.547775 -1.571195,-2.878297 -0.247334,-0.479589 -0.47245,-0.879564 -0.500256,-0.888832 -0.02781,-0.0093 -0.187494,0.252153 -0.354864,0.580938 -0.167368,0.328785 -0.392848,0.764478 -0.501064,0.968207 -0.108216,0.20373 -0.403274,0.766995 -0.655684,1.2517 -0.25241,0.484706 -0.49415,0.910516 -0.5372,0.946244 -0.04305,0.03573 -0.274458,0.105483 -0.51424,0.155009 -0.239782,0.04953 -1.121312,0.230234 -1.958954,0.401572 -0.966902,0.197777 -1.51756,0.333165 -1.508126,0.370795 0.0082,0.0326 0.360144,0.378405 0.782154,0.768456 0.42201,0.390052 1.097864,1.032935 1.501894,1.428629 l 0.734604,0.719444 0.07016,0.8684505 c 0.03859,0.4776482 0.107632,1.3566072 0.153426,1.9532425 0.04579,0.5966354 0.09367,1.1145574 0.106386,1.1509376 0.01808,0.051728 0.600564,0.066146 2.672278,0.066146 2.072179,0 2.654003,-0.014406 2.671407,-0.066146 z"
       id="path5523" />
  </g>
</svg>
