<?xml version="1.0" encoding="UTF-8" standalone="no"?>
<svg
   xmlns:dc="http://purl.org/dc/elements/1.1/"
   xmlns:cc="http://creativecommons.org/ns#"
   xmlns:rdf="http://www.w3.org/1999/02/22-rdf-syntax-ns#"
   xmlns:svg="http://www.w3.org/2000/svg"
   xmlns="http://www.w3.org/2000/svg"
   xmlns:sodipodi="http://sodipodi.sourceforge.net/DTD/sodipodi-0.dtd"
   xmlns:inkscape="http://www.inkscape.org/namespaces/inkscape"
   width="13.229167mm"
   height="13.229167mm"
   viewBox="0 0 13.229169 13.229168"
   version="1.1"
   id="svg8"
   sodipodi:docname="VCS_resized_199.svg"
   inkscape:version="1.0.2-2 (e86c870879, 2021-01-15)">
  <defs
     id="defs2" />
  <sodipodi:namedview
     id="base"
     pagecolor="#ffffff"
     bordercolor="#666666"
     borderopacity="1.0"
     inkscape:pageopacity="0.0"
     inkscape:pageshadow="2"
     inkscape:zoom="2.8284271"
     inkscape:cx="-5.1678523"
     inkscape:cy="40.078788"
     inkscape:document-units="mm"
     inkscape:current-layer="layer1"
     inkscape:document-rotation="0"
     showgrid="false"
     inkscape:window-width="958"
     inkscape:window-height="1008"
     inkscape:window-x="1913"
     inkscape:window-y="0"
     inkscape:window-maximized="0" />
  <metadata
     id="metadata5">
    <rdf:RDF>
      <cc:Work
         rdf:about="">
        <dc:format>image/svg+xml</dc:format>
        <dc:type
           rdf:resource="http://purl.org/dc/dcmitype/StillImage" />
        <dc:title></dc:title>
      </cc:Work>
    </rdf:RDF>
  </metadata>
  <g
     inkscape:label="Ebene 1"
     inkscape:groupmode="layer"
     id="layer1"
     transform="translate(-49.930687,-20.076323)">
    <path
       style="fill:#000000;stroke-width:0.264582"
       d="m 52.98682,32.764757 c -0.05724,-0.02971 -0.157288,-0.184981 -0.222326,-0.345054 -0.156268,-0.384616 -0.276832,-0.645454 -0.781232,-1.690186 -0.736716,-1.525912 -0.78795,-1.758753 -0.769172,-3.495647 l 0.01344,-1.243542 -0.248026,-0.714375 c -0.270522,-0.779166 -0.360514,-1.153805 -0.360514,-1.500829 0,-0.27429 0.0902,-0.369014 0.758266,-0.796303 0.650272,-0.415906 1.195272,-0.680848 1.867576,-0.907889 0.754944,-0.254948 1.11751,-0.413281 2.309572,-1.008597 0.546216,-0.272781 1.028922,-0.495965 1.072678,-0.495965 0.04376,0 0.572948,0.252365 1.17598,0.560812 0.723406,0.370017 1.339626,0.642744 1.81128,0.801637 0.700274,0.235912 1.33023,0.553779 2.187248,1.103656 0.597396,0.383298 0.670872,0.469385 0.66995,0.784941 -10e-4,0.3367 -0.11757,0.840123 -0.313272,1.352704 -0.225486,0.590587 -0.27178,1.0127 -0.23307,2.12514 0.05107,1.467571 -0.02021,1.759412 -0.870304,3.563401 -0.26058,0.552979 -0.57059,1.213776 -0.68891,1.468438 l -0.21513,0.463021 -0.387078,0.0079 c -1.768522,0.03603 -6.690002,0.01188 -6.77696,-0.03325 z m 6.928102,-0.227344 c 0.07165,-0.04558 1.277096,-2.594017 1.477106,-3.122761 0.225862,-0.597084 0.251456,-0.82139 0.257898,-2.260157 l 0.0062,-1.375834 0.172412,-0.47625 c 0.237756,-0.656742 0.388204,-1.268116 0.368948,-1.499301 -0.01488,-0.17877 -0.05154,-0.217803 -0.465952,-0.49624 -0.634636,-0.426401 -1.484844,-0.85797 -2.0682,-1.049824 -0.274042,-0.09013 -1.04842,-0.435962 -1.72084,-0.768522 -0.67242,-0.33256 -1.261362,-0.604654 -1.308762,-0.604654 -0.0474,0 -0.525586,0.213361 -1.062634,0.474135 -1.102598,0.535387 -1.431314,0.679006 -2.147482,0.938257 -0.933744,0.338014 -1.793082,0.779342 -2.374542,1.219489 -0.177078,0.134043 -0.178236,0.137716 -0.145148,0.460675 0.03582,0.349641 0.15151,0.781407 0.372234,1.389225 0.227392,0.626187 0.255076,0.868388 0.24681,2.15926 -0.0097,1.522059 0.02577,1.681844 0.66304,2.98335 0.251122,0.512866 0.561538,1.169612 0.689816,1.459436 0.128276,0.289823 0.262334,0.545443 0.297906,0.568044 0.08283,0.05263 6.658562,0.05426 6.74123,0.0017 z"
       id="path4083" />
  </g>
</svg>
