<?xml version="1.0" encoding="UTF-8" standalone="no"?>
<svg
   xmlns:dc="http://purl.org/dc/elements/1.1/"
   xmlns:cc="http://creativecommons.org/ns#"
   xmlns:rdf="http://www.w3.org/1999/02/22-rdf-syntax-ns#"
   xmlns:svg="http://www.w3.org/2000/svg"
   xmlns="http://www.w3.org/2000/svg"
   xmlns:sodipodi="http://sodipodi.sourceforge.net/DTD/sodipodi-0.dtd"
   xmlns:inkscape="http://www.inkscape.org/namespaces/inkscape"
   width="13.229167mm"
   height="13.229167mm"
   viewBox="0 0 13.229169 13.229168"
   version="1.1"
   id="svg8"
   sodipodi:docname="VCS_resized_268.svg"
   inkscape:version="1.0.2-2 (e86c870879, 2021-01-15)">
  <defs
     id="defs2" />
  <sodipodi:namedview
     id="base"
     pagecolor="#ffffff"
     bordercolor="#666666"
     borderopacity="1.0"
     inkscape:pageopacity="0.0"
     inkscape:pageshadow="2"
     inkscape:zoom="4"
     inkscape:cx="14.410747"
     inkscape:cy="25.777936"
     inkscape:document-units="mm"
     inkscape:current-layer="layer1"
     inkscape:document-rotation="0"
     showgrid="false"
     inkscape:window-width="958"
     inkscape:window-height="1008"
     inkscape:window-x="1913"
     inkscape:window-y="0"
     inkscape:window-maximized="0" />
  <metadata
     id="metadata5">
    <rdf:RDF>
      <cc:Work
         rdf:about="">
        <dc:format>image/svg+xml</dc:format>
        <dc:type
           rdf:resource="http://purl.org/dc/dcmitype/StillImage" />
        <dc:title></dc:title>
      </cc:Work>
    </rdf:RDF>
  </metadata>
  <g
     inkscape:label="Ebene 1"
     inkscape:groupmode="layer"
     id="layer1"
     transform="translate(-79.503708,16.247276)">
    <path
       style="fill:#000000;stroke-width:0.264582"
       d="m 82.3872,-3.4290894 c -0.01334,-0.065484 -0.0515,-1.0589026 -0.08479,-2.207596 l -0.06054,-2.0885339 -0.42728,-0.5456528 c -0.235004,-0.300109 -0.851766,-1.0742968 -1.37058,-1.7204173 -0.724144,-0.9018316 -0.92813,-1.1882956 -0.877996,-1.2330026 0.03592,-0.03203 0.968782,-0.282533 2.073034,-0.556673 l 2.00773,-0.498437 0.429642,-0.661459 c 0.236304,-0.363802 0.761412,-1.191286 1.166908,-1.838854 0.645194,-1.030364 0.75383,-1.177175 0.869918,-1.175633 0.115286,0.0015 0.232706,0.162627 0.896766,1.230313 1.335598,2.147399 1.512558,2.402846 1.70804,2.465586 0.09553,0.03066 0.983307,0.259617 1.972849,0.508795 2.139236,0.538685 1.984374,0.493343 1.984374,0.581005 0,0.03891 -0.173232,0.281384 -0.384962,0.53883 -0.21173,0.257446 -0.585412,0.7300214 -0.830404,1.0501673 -0.244992,0.3201458 -0.684632,0.8796226 -0.976976,1.2432812 l -0.531538,0.661198 -0.03558,0.7940104 c -0.01956,0.4367058 -0.0532,1.4190883 -0.07474,2.1830727 l -0.03916,1.3890626 H 86.106682 82.41145 Z m 7.147783,-0.2513542 c 0.0053,-0.043656 0.03824,-0.98425 0.07314,-2.0902082 l 0.06345,-2.0108333 0.14483,-0.15875 c 0.07966,-0.087312 0.339312,-0.4087812 0.577016,-0.714375 0.822608,-1.0575566 1.011242,-1.2988809 1.439724,-1.8418779 0.236716,-0.299981 0.417206,-0.558607 0.401088,-0.574725 -0.01612,-0.01612 -0.860436,-0.23776 -1.876264,-0.492537 -1.015828,-0.254778 -1.885361,-0.484723 -1.932295,-0.510989 -0.07524,-0.04211 -0.436834,-0.580784 -1.120194,-1.668799 -0.115736,-0.184267 -0.41978,-0.668406 -0.675654,-1.075864 -0.255876,-0.407459 -0.492912,-0.740834 -0.52675,-0.740834 -0.03384,0 -0.200354,0.226219 -0.370038,0.502709 -0.971942,1.583715 -1.87953,2.96348 -1.979208,3.008896 -0.06256,0.02851 -0.849034,0.2333 -1.747712,0.455098 -2.040902,0.503703 -2.030844,0.500997 -2.030804,0.546483 2e-5,0.02071 0.315534,0.430666 0.701146,0.91102 0.385612,0.4803541 0.953988,1.1964779 1.263058,1.5913861 l 0.561944,0.7180146 0.06023,1.5836138 c 0.03313,0.8709875 0.06005,1.8118167 0.05983,2.0907315 -2e-4,0.2789152 0.01564,0.5231654 0.03525,0.542779 0.01962,0.019612 1.573056,0.029535 3.452092,0.022048 2.990432,-0.011914 3.417639,-0.023509 3.426123,-0.092987 z"
       id="path5201" />
  </g>
</svg>
