<?xml version="1.0" encoding="UTF-8" standalone="no"?>
<svg
   xmlns:dc="http://purl.org/dc/elements/1.1/"
   xmlns:cc="http://creativecommons.org/ns#"
   xmlns:rdf="http://www.w3.org/1999/02/22-rdf-syntax-ns#"
   xmlns:svg="http://www.w3.org/2000/svg"
   xmlns="http://www.w3.org/2000/svg"
   xmlns:sodipodi="http://sodipodi.sourceforge.net/DTD/sodipodi-0.dtd"
   xmlns:inkscape="http://www.inkscape.org/namespaces/inkscape"
   width="13.229167mm"
   height="13.229167mm"
   viewBox="0 0 13.229167 13.229167"
   version="1.1"
   id="svg8"
   sodipodi:docname="VCS_resized_11.svg"
   inkscape:version="1.0.2-2 (e86c870879, 2021-01-15)">
  <defs
     id="defs2" />
  <sodipodi:namedview
     id="base"
     pagecolor="#ffffff"
     bordercolor="#666666"
     borderopacity="1.0"
     inkscape:pageopacity="0.0"
     inkscape:pageshadow="2"
     inkscape:zoom="2.8284271"
     inkscape:cx="-5.7930743"
     inkscape:cy="63.805526"
     inkscape:document-units="mm"
     inkscape:current-layer="layer1"
     inkscape:document-rotation="0"
     showgrid="false"
     inkscape:window-width="958"
     inkscape:window-height="1008"
     inkscape:window-x="1913"
     inkscape:window-y="0"
     inkscape:window-maximized="0" />
  <metadata
     id="metadata5">
    <rdf:RDF>
      <cc:Work
         rdf:about="">
        <dc:format>image/svg+xml</dc:format>
        <dc:type
           rdf:resource="http://purl.org/dc/dcmitype/StillImage" />
        <dc:title></dc:title>
      </cc:Work>
    </rdf:RDF>
  </metadata>
  <g
     inkscape:label="Ebene 1"
     inkscape:groupmode="layer"
     id="layer1"
     transform="translate(-39.732738,-9.709733)">
    <path
       style="fill:#000000;stroke-width:0.264582"
       d="m 44.298307,21.672272 c -0.14104,-0.155848 -0.29007,-0.544272 -0.357162,-0.930889 -0.07656,-0.441193 -0.03865,-0.868548 0.143628,-1.619107 0.149106,-0.613963 0.210958,-1.282759 0.15385,-1.663577 -0.06393,-0.426303 -0.386396,-0.705441 -1.597438,-1.382793 -1.208712,-0.676048 -1.872058,-1.266173 -1.872058,-1.665419 0,-0.184037 0.05042,-0.221719 0.502708,-0.375697 0.317536,-0.108104 0.464844,-0.125338 1.031874,-0.120727 0.428868,0.0035 0.87,0.04462 1.254526,0.116991 0.707078,0.13307 1.462488,0.196878 1.732064,0.146305 0.327352,-0.06141 0.685748,-0.489619 1.288156,-1.539078 0.457868,-0.797654 1.011448,-1.39372 1.549136,-1.668027 0.206218,-0.105205 0.207686,-0.105211 0.311552,-0.0013 0.0574,0.0574 0.15892,0.277983 0.225608,0.490191 0.168002,0.534606 0.159688,1.178629 -0.02651,2.053033 -0.124554,0.584941 -0.168984,1.068516 -0.149302,1.625022 0.01124,0.317744 0.413108,0.671598 1.482366,1.305247 0.640006,0.379272 0.93976,0.592481 1.29442,0.920698 0.306518,0.283666 0.678932,0.792402 0.659024,0.900265 -0.0282,0.152806 -0.556252,0.376014 -1.029536,0.435185 -0.340586,0.04258 -0.54002,0.03651 -0.9525,-0.02902 -1.387176,-0.220363 -1.603178,-0.243591 -2.06294,-0.221838 -0.427666,0.02023 -0.504952,0.03967 -0.67581,0.169994 -0.282018,0.215106 -0.653208,0.708346 -1.0791,1.433916 -0.495782,0.84464 -0.720668,1.119477 -1.181912,1.444441 -0.417182,0.293922 -0.514148,0.320428 -0.644648,0.176228 z m 0.5503,-0.426361 c 0.327478,-0.207681 0.564946,-0.500904 1.010088,-1.247249 0.444768,-0.745716 0.788528,-1.199967 1.16262,-1.536308 l 0.268008,-0.240962 h 0.705408 c 0.52184,0 0.909368,0.03565 1.489172,0.137013 0.912768,0.159565 1.515372,0.149002 1.871752,-0.03281 0.11466,-0.0585 0.208472,-0.121638 0.208472,-0.140318 0,-0.01868 -0.05979,-0.135986 -0.132866,-0.260681 -0.18773,-0.320337 -0.703994,-0.738805 -1.463196,-1.186025 -0.639922,-0.376955 -1.090782,-0.698875 -1.485978,-1.061009 -0.193916,-0.177694 -0.198796,-0.191616 -0.232218,-0.662469 -0.03715,-0.523392 0.02737,-1.09531 0.20213,-1.791675 0.143774,-0.572893 0.117248,-1.373308 -0.05673,-1.71199 -0.134446,-0.261722 -0.184928,-0.262041 -0.594448,-0.0038 -0.314728,0.198492 -0.615292,0.588448 -1.135668,1.473435 -0.268336,0.456349 -0.542906,0.843012 -0.763106,1.074639 l -0.343958,0.361808 -0.503334,-6.8e-4 c -0.475734,-6.4e-4 -1.358518,-0.09474 -2.110202,-0.224936 -0.476048,-0.08246 -1.300822,-0.03359 -1.566882,0.09283 -0.336428,0.159863 -0.3158,0.285526 0.115278,0.702226 0.199392,0.192742 0.564586,0.466971 0.811544,0.609397 1.082458,0.624282 1.369798,0.805283 1.708926,1.076483 0.19818,0.158487 0.38677,0.351473 0.41909,0.428859 0.03292,0.07883 0.05695,0.419941 0.05465,0.775701 -0.0033,0.508462 -0.03672,0.778709 -0.167734,1.356167 -0.17759,0.782713 -0.202876,1.243394 -0.09126,1.662524 0.1462,0.548982 0.23098,0.596778 0.620446,0.349786 z"
       id="path168" />
  </g>
</svg>
