<?xml version="1.0" encoding="UTF-8" standalone="no"?>
<svg
   xmlns:dc="http://purl.org/dc/elements/1.1/"
   xmlns:cc="http://creativecommons.org/ns#"
   xmlns:rdf="http://www.w3.org/1999/02/22-rdf-syntax-ns#"
   xmlns:svg="http://www.w3.org/2000/svg"
   xmlns="http://www.w3.org/2000/svg"
   xmlns:sodipodi="http://sodipodi.sourceforge.net/DTD/sodipodi-0.dtd"
   xmlns:inkscape="http://www.inkscape.org/namespaces/inkscape"
   width="13.229167mm"
   height="13.229167mm"
   viewBox="0 0 13.229169 13.229168"
   version="1.1"
   id="svg8"
   sodipodi:docname="VCS_resized_170.svg"
   inkscape:version="1.0.2-2 (e86c870879, 2021-01-15)">
  <defs
     id="defs2" />
  <sodipodi:namedview
     id="base"
     pagecolor="#ffffff"
     bordercolor="#666666"
     borderopacity="1.0"
     inkscape:pageopacity="0.0"
     inkscape:pageshadow="2"
     inkscape:zoom="2.8284271"
     inkscape:cx="-9.1213529"
     inkscape:cy="34.121757"
     inkscape:document-units="mm"
     inkscape:current-layer="layer1"
     inkscape:document-rotation="0"
     showgrid="false"
     inkscape:window-width="958"
     inkscape:window-height="1008"
     inkscape:window-x="1913"
     inkscape:window-y="0"
     inkscape:window-maximized="0" />
  <metadata
     id="metadata5">
    <rdf:RDF>
      <cc:Work
         rdf:about="">
        <dc:format>image/svg+xml</dc:format>
        <dc:type
           rdf:resource="http://purl.org/dc/dcmitype/StillImage" />
        <dc:title></dc:title>
      </cc:Work>
    </rdf:RDF>
  </metadata>
  <g
     inkscape:label="Ebene 1"
     inkscape:groupmode="layer"
     id="layer1"
     transform="translate(-40.613338,-17.563564)">
    <path
       style="fill:#000000;stroke-width:0.264582"
       d="m 44.463957,30.050898 c -0.216956,-0.01495 -0.35152,-0.0523 -0.405606,-0.112604 -0.04451,-0.04963 -0.25306,-0.399799 -0.463432,-0.778153 -0.210374,-0.378354 -0.662652,-1.15226 -1.005062,-1.719792 -0.666816,-1.10522 -0.811144,-1.446605 -0.867654,-2.052309 -0.04893,-0.524408 0.03163,-0.871639 0.370946,-1.598941 0.492284,-1.055171 0.507972,-1.439571 0.100422,-2.460625 -0.21103,-0.528706 -0.257528,-0.707945 -0.277774,-1.070776 -0.0219,-0.392422 -0.01026,-0.464504 0.116966,-0.724545 0.292486,-0.597821 0.876138,-1.062976 1.50225,-1.197253 0.202866,-0.04351 0.373532,-0.0415 0.682676,0.008 0.462004,0.07401 1.831186,0.06921 2.606552,-0.0091 0.338538,-0.03421 0.767004,-0.03132 1.321132,0.0089 0.451056,0.03274 1.035218,0.04542 1.298136,0.02818 0.26292,-0.01724 0.695994,-0.04647 0.962386,-0.06496 0.443104,-0.03074 0.508444,-0.02246 0.767292,0.09723 0.558578,0.258287 1.183604,0.908264 1.3171,1.369675 0.08409,0.290646 -0.08548,1.22602 -0.261816,1.444254 -0.02555,0.03162 -0.0865,0.176547 -0.135456,0.322068 -0.267906,0.796402 -0.220068,1.186024 0.271354,2.210017 0.296906,0.618678 0.353302,0.782021 0.374532,1.084791 0.05143,0.733486 -0.140572,1.289714 -0.862816,2.499567 -0.2693,0.451115 -0.632612,1.082146 -0.80736,1.402292 -0.453044,0.82999 -0.708548,1.236168 -0.801686,1.274444 -0.09247,0.038 -5.309612,0.07364 -5.803082,0.03965 z m 4.60294,-0.225185 c 0.869982,-0.03838 1.009736,-0.05667 1.093718,-0.143122 0.05296,-0.05451 0.2447,-0.37296 0.426098,-0.707658 0.181398,-0.334698 0.556348,-0.988658 0.833222,-1.453244 0.554552,-0.93052 0.868532,-1.563775 0.964054,-1.944368 0.03438,-0.136988 0.05273,-0.434644 0.04077,-0.661458 -0.01966,-0.373021 -0.05277,-0.478059 -0.346698,-1.100305 -0.178724,-0.378354 -0.351882,-0.796874 -0.384794,-0.930045 -0.08588,-0.347474 0.0085,-1.115871 0.189388,-1.541859 0.425774,-1.002702 0.469754,-1.289844 0.25734,-1.680121 -0.170058,-0.312452 -0.664386,-0.794207 -0.992264,-0.967025 -0.19339,-0.101933 -0.2831,-0.113745 -0.723474,-0.09526 -0.676848,0.02842 -1.782042,0.03254 -2.619374,0.0098 -0.378354,-0.01029 -1.521354,-0.0082 -2.54,0.0047 l -1.852084,0.02341 -0.26563,0.135542 c -0.309458,0.157904 -0.706388,0.562158 -0.873384,0.889497 -0.176164,0.345311 -0.129762,0.886812 0.12496,1.458206 0.250036,0.560887 0.352892,0.96921 0.351302,1.394623 -0.0018,0.477976 -0.06957,0.734291 -0.364378,1.377945 -0.305114,0.666141 -0.401244,1.089062 -0.359828,1.583061 0.03718,0.443441 0.196488,0.775636 1.055296,2.20048 0.333302,0.55298 0.73077,1.237386 0.88326,1.520904 0.152492,0.283518 0.305078,0.533549 0.33908,0.555625 0.146386,0.09504 3.1884,0.140198 4.763424,0.07071 z"
       id="path2764" />
  </g>
</svg>
