<?xml version="1.0" encoding="UTF-8" standalone="no"?>
<svg
   xmlns:dc="http://purl.org/dc/elements/1.1/"
   xmlns:cc="http://creativecommons.org/ns#"
   xmlns:rdf="http://www.w3.org/1999/02/22-rdf-syntax-ns#"
   xmlns:svg="http://www.w3.org/2000/svg"
   xmlns="http://www.w3.org/2000/svg"
   xmlns:sodipodi="http://sodipodi.sourceforge.net/DTD/sodipodi-0.dtd"
   xmlns:inkscape="http://www.inkscape.org/namespaces/inkscape"
   width="13.229167mm"
   height="13.229167mm"
   viewBox="0 0 13.229169 13.229168"
   version="1.1"
   id="svg8"
   sodipodi:docname="VCS_resized_340.svg"
   inkscape:version="1.0.2-2 (e86c870879, 2021-01-15)">
  <defs
     id="defs2" />
  <sodipodi:namedview
     id="base"
     pagecolor="#ffffff"
     bordercolor="#666666"
     borderopacity="1.0"
     inkscape:pageopacity="0.0"
     inkscape:pageshadow="2"
     inkscape:zoom="4"
     inkscape:cx="19.910945"
     inkscape:cy="38.263019"
     inkscape:document-units="mm"
     inkscape:current-layer="layer1"
     inkscape:document-rotation="0"
     showgrid="false"
     inkscape:window-width="958"
     inkscape:window-height="1008"
     inkscape:window-x="1913"
     inkscape:window-y="0"
     inkscape:window-maximized="0" />
  <metadata
     id="metadata5">
    <rdf:RDF>
      <cc:Work
         rdf:about="">
        <dc:format>image/svg+xml</dc:format>
        <dc:type
           rdf:resource="http://purl.org/dc/dcmitype/StillImage" />
        <dc:title></dc:title>
      </cc:Work>
    </rdf:RDF>
  </metadata>
  <g
     inkscape:label="Ebene 1"
     inkscape:groupmode="layer"
     id="layer1"
     transform="translate(-92.605492,18.546978)">
    <path
       style="fill:#000000;stroke-width:0.264582"
       d="M 98.431776,-6.3610506 C 98.054034,-6.845491 97.579,-7.6876412 97.548088,-7.9276734 c -0.01228,-0.095275 -0.059,-0.4946956 -0.103848,-0.887602 -0.139108,-1.2187666 -0.180456,-1.4174206 -0.317462,-1.5251876 -0.06756,-0.05314 -0.546282,-0.285356 -1.063828,-0.51603 -0.517548,-0.230674 -1.41858,-0.657532 -2.002296,-0.948574 -1.268138,-0.632296 -1.284952,-0.656059 -0.62185,-0.878871 0.2417,-0.08122 0.729856,-0.209434 1.084792,-0.284932 0.929902,-0.197797 2.74493,-0.605415 2.959148,-0.664564 0.20751,-0.0573 0.178762,-0.0065 0.657954,-1.161424 0.782544,-1.885973 1.337778,-3.050966 1.480116,-3.105586 0.04575,-0.01756 0.103736,0.0013 0.128864,0.04194 0.09501,0.153602 0.432302,1.199992 0.610242,1.893137 0.10175,0.396396 0.29552,1.121376 0.43059,1.611066 0.2426,0.879509 0.24788,0.891488 0.43409,0.984118 0.16891,0.08402 0.87355,0.350376 2.46392,0.931349 0.7143,0.260942 1.74625,0.749471 1.74625,0.826686 0,0.143255 -1.02384,0.55581 -2.27542,0.916878 -0.46566,0.13434 -1.14085,0.341501 -1.50042,0.460357 -0.77848,0.2573288 -0.68918,0.122025 -1.06173,1.608778 -0.1948,0.77742 -0.29229,1.0751578 -0.38621,1.1794622 -0.0691,0.076739 -0.261018,0.320194 -0.426492,0.5410116 -0.341214,0.4553348 -0.839248,0.9478888 -0.958434,0.9478888 -0.04391,0 -0.221338,-0.181474 -0.394288,-0.4032752 z m 0.844606,-0.324329 c 0.355834,-0.3724364 0.663362,-0.7735584 0.801938,-1.046001 0.0447,-0.087806 0.15693,-0.4688056 0.24949,-0.8466666 0.19997,-0.8163672 0.41723,-1.5109888 0.49798,-1.5921008 0.0743,-0.07468 0.89762,-0.353671 2.17481,-0.736991 0.55298,-0.165965 1.21711,-0.386149 1.47585,-0.489298 0.4041,-0.161101 0.45792,-0.196693 0.3817,-0.252425 -0.1088,-0.07956 -0.83573,-0.397509 -1.30192,-0.569453 -1.19827,-0.441948 -2.56505,-0.9709 -2.63058,-1.018054 -0.0803,-0.05778 -0.39627,-1.077113 -0.63073,-2.034739 -0.27679,-1.130542 -0.591492,-2.092686 -0.68264,-2.087025 -0.06192,0.0038 -0.413826,0.700947 -0.71965,1.425566 -0.122832,0.291042 -0.398988,0.945886 -0.613678,1.455209 -0.214692,0.509323 -0.418866,0.95238 -0.453722,0.984571 -0.06576,0.06073 -1.385056,0.375036 -2.762126,0.658045 -0.964592,0.198238 -1.508126,0.357292 -1.508126,0.441322 0,0.07217 0.941908,0.551538 2.258498,1.149419 1.11666,0.507091 1.65724,0.777328 1.657642,0.828662 1.6e-4,0.02146 0.02454,0.181897 0.05416,0.356522 0.061,0.3596498 0.184166,1.3509726 0.236686,1.905 0.03599,0.3796586 0.101022,0.5300202 0.492054,1.1377084 0.301334,0.4682908 0.489186,0.6879166 0.588396,0.6879166 0.05099,0 0.246276,-0.1607344 0.433972,-0.3571876 z"
       id="path6359" />
  </g>
</svg>
