<?xml version="1.0" encoding="UTF-8" standalone="no"?>
<svg
   xmlns:dc="http://purl.org/dc/elements/1.1/"
   xmlns:cc="http://creativecommons.org/ns#"
   xmlns:rdf="http://www.w3.org/1999/02/22-rdf-syntax-ns#"
   xmlns:svg="http://www.w3.org/2000/svg"
   xmlns="http://www.w3.org/2000/svg"
   xmlns:sodipodi="http://sodipodi.sourceforge.net/DTD/sodipodi-0.dtd"
   xmlns:inkscape="http://www.inkscape.org/namespaces/inkscape"
   width="13.229167mm"
   height="13.229167mm"
   viewBox="0 0 13.229169 13.229168"
   version="1.1"
   id="svg8"
   sodipodi:docname="VCS_resized_289.svg"
   inkscape:version="1.0.2-2 (e86c870879, 2021-01-15)">
  <defs
     id="defs2" />
  <sodipodi:namedview
     id="base"
     pagecolor="#ffffff"
     bordercolor="#666666"
     borderopacity="1.0"
     inkscape:pageopacity="0.0"
     inkscape:pageshadow="2"
     inkscape:zoom="4"
     inkscape:cx="13.524604"
     inkscape:cy="43.942463"
     inkscape:document-units="mm"
     inkscape:current-layer="layer1"
     inkscape:document-rotation="0"
     showgrid="false"
     inkscape:window-width="958"
     inkscape:window-height="1008"
     inkscape:window-x="1913"
     inkscape:window-y="0"
     inkscape:window-maximized="0" />
  <metadata
     id="metadata5">
    <rdf:RDF>
      <cc:Work
         rdf:about="">
        <dc:format>image/svg+xml</dc:format>
        <dc:type
           rdf:resource="http://purl.org/dc/dcmitype/StillImage" />
        <dc:title></dc:title>
      </cc:Work>
    </rdf:RDF>
  </metadata>
  <g
     inkscape:label="Ebene 1"
     inkscape:groupmode="layer"
     id="layer1"
     transform="translate(-88.814209,20.036146)">
    <path
       style="fill:#000000;stroke-width:0.264582"
       d="m 92.590598,-7.3249166 c -0.02928,-0.03638 -0.07999,-0.4352396 -0.112684,-0.8863542 -0.08685,-1.1981877 -0.208278,-2.6840822 -0.245192,-3.0002812 -0.03188,-0.273081 -0.03718,-0.279784 -0.732768,-0.926042 -0.38536,-0.358033 -0.961254,-0.888676 -1.279764,-1.179206 -0.844538,-0.77035 -1.3464,-1.256517 -1.3464,-1.304292 0,-0.05847 0.183356,-0.101592 1.984374,-0.466686 0.873126,-0.176996 1.765926,-0.363649 1.984002,-0.414783 0.470768,-0.110386 0.298294,0.144867 1.544184,-2.285328 0.485294,-0.9466 0.916636,-1.74274 0.958538,-1.7692 0.0419,-0.02646 0.111796,-0.03444 0.155324,-0.01774 0.04353,0.0167 0.524822,0.895602 1.069542,1.953109 0.544719,1.057507 1.018357,1.950298 1.052529,1.98398 0.05003,0.04931 2.16883,0.521475 3.885037,0.865761 0.18173,0.03646 0.3699,0.09516 0.41816,0.130444 0.0809,0.05912 0.0796,0.07207 -0.0161,0.164815 -0.0571,0.05536 -0.80722,0.760595 -1.66689,1.567188 l -1.563039,1.466532 -0.06285,0.623677 c -0.03456,0.343022 -0.09746,1.0761143 -0.139766,1.6290933 -0.13285,1.7364557 -0.145282,1.8511509 -0.204968,1.8909607 -0.03206,0.021383 -1.311479,0.039242 -2.843161,0.039687 -2.165026,6.2e-4 -2.796724,-0.013912 -2.838108,-0.065336 z m 5.464237,-0.2626222 c 0.01356,-0.037459 0.04851,-0.353857 0.07768,-0.703107 0.02917,-0.34925 0.08978,-1.0755311 0.13469,-1.6139583 0.04491,-0.5384269 0.09884,-1.1367269 0.119846,-1.3295569 l 0.03819,-0.350598 0.586616,-0.548986 c 1.148343,-1.074675 2.429883,-2.29578 2.445773,-2.330432 0.0232,-0.05055 -0.0382,-0.06567 -1.471347,-0.362955 -0.713052,-0.147905 -1.569396,-0.32551 -1.902988,-0.394679 -0.407416,-0.08448 -0.628724,-0.156117 -0.674144,-0.218231 -0.03719,-0.05086 -0.486125,-0.909785 -0.997637,-1.908725 -0.51151,-0.99894 -0.94911,-1.816254 -0.972442,-1.816254 -0.02333,0 -0.203808,0.315515 -0.401054,0.701146 -1.417792,2.77187 -1.594876,3.096343 -1.708112,3.12979 -0.161888,0.04782 -1.812072,0.390735 -2.842164,0.590621 -0.55298,0.107303 -1.027428,0.215395 -1.054332,0.240205 -0.04761,0.04391 0.280404,0.368086 1.318914,1.303496 0.261938,0.235932 0.75714,0.698814 1.100448,1.028626 l 0.624196,0.599658 0.158326,1.9579167 c 0.08708,1.0768541 0.16763,1.9851929 0.179,2.0185315 0.03189,0.09351 5.206729,0.1009078 5.240535,0.00749 z"
       id="path5539" />
  </g>
</svg>
