<?xml version="1.0" encoding="UTF-8" standalone="no"?>
<svg
   xmlns:dc="http://purl.org/dc/elements/1.1/"
   xmlns:cc="http://creativecommons.org/ns#"
   xmlns:rdf="http://www.w3.org/1999/02/22-rdf-syntax-ns#"
   xmlns:svg="http://www.w3.org/2000/svg"
   xmlns="http://www.w3.org/2000/svg"
   xmlns:sodipodi="http://sodipodi.sourceforge.net/DTD/sodipodi-0.dtd"
   xmlns:inkscape="http://www.inkscape.org/namespaces/inkscape"
   width="13.229167mm"
   height="13.229167mm"
   viewBox="0 0 13.229169 13.229168"
   version="1.1"
   id="svg8"
   sodipodi:docname="VCS_resized_186.svg"
   inkscape:version="1.0.2-2 (e86c870879, 2021-01-15)">
  <defs
     id="defs2" />
  <sodipodi:namedview
     id="base"
     pagecolor="#ffffff"
     bordercolor="#666666"
     borderopacity="1.0"
     inkscape:pageopacity="0.0"
     inkscape:pageshadow="2"
     inkscape:zoom="2.8284271"
     inkscape:cx="12.196492"
     inkscape:cy="73.454248"
     inkscape:document-units="mm"
     inkscape:current-layer="layer1"
     inkscape:document-rotation="0"
     showgrid="false"
     inkscape:window-width="958"
     inkscape:window-height="1008"
     inkscape:window-x="1913"
     inkscape:window-y="0"
     inkscape:window-maximized="0" />
  <metadata
     id="metadata5">
    <rdf:RDF>
      <cc:Work
         rdf:about="">
        <dc:format>image/svg+xml</dc:format>
        <dc:type
           rdf:resource="http://purl.org/dc/dcmitype/StillImage" />
        <dc:title></dc:title>
      </cc:Work>
    </rdf:RDF>
  </metadata>
  <g
     inkscape:label="Ebene 1"
     inkscape:groupmode="layer"
     id="layer1"
     transform="translate(-45.336372,-11.245731)">
    <path
       style="fill:#000000;stroke-width:0.264582"
       d="m 49.158088,23.902081 c -0.287502,-0.0088 -0.532242,-0.04224 -0.57611,-0.07865 -0.04195,-0.03481 -0.16734,-0.254123 -0.27865,-0.487357 -0.224534,-0.470468 -0.666678,-1.311055 -1.113742,-2.117394 -0.511844,-0.923182 -0.624854,-1.306286 -0.624384,-2.116667 2e-4,-0.401649 0.03221,-0.643933 0.132696,-1.005417 0.07282,-0.261937 0.145362,-0.690562 0.161216,-0.9525 0.03133,-0.517572 -0.0223,-0.779478 -0.341322,-1.666875 -0.09361,-0.26038 -0.17683,-0.619907 -0.197628,-0.853762 l -0.03593,-0.403972 0.22857,-0.247967 c 0.314266,-0.34094 0.976706,-0.830938 1.382682,-1.022752 0.42621,-0.201375 0.731608,-0.292246 1.65661,-0.492926 0.407458,-0.0884 1.142636,-0.269424 1.633728,-0.40228 l 0.892894,-0.241557 0.562314,0.169555 c 0.309272,0.09325 0.788532,0.250652 1.065022,0.349772 0.369338,0.132405 0.67883,0.19924 1.166558,0.251921 0.756626,0.08173 0.99544,0.170921 1.698694,0.634463 0.54258,0.357636 0.98041,0.770041 1.030844,0.970986 0.05999,0.239006 -0.06304,1.018731 -0.211658,1.341436 -0.345778,0.750825 -0.385596,1.436082 -0.1403,2.41456 0.20875,0.832695 0.227526,1.128042 0.107848,1.696405 -0.122214,0.580408 -0.277404,0.970992 -0.650856,1.638095 -0.16059,0.286861 -0.510114,0.95019 -0.776722,1.474065 -0.26661,0.523875 -0.524976,0.993553 -0.57415,1.04373 -0.08204,0.08371 -0.320496,0.09243 -2.893896,0.105833 -1.542468,0.008 -3.029416,0.0077 -3.304332,-7.6e-4 z m 5.765054,-0.266382 0.238124,-0.03576 0.806404,-1.534584 c 1.06901,-2.034318 1.141784,-2.221189 1.143728,-2.936875 0.0012,-0.444235 -0.02888,-0.672329 -0.150074,-1.137713 -0.242928,-0.93283 -0.201202,-1.587392 0.160506,-2.517935 0.111454,-0.286726 0.189688,-0.599201 0.212188,-0.847496 l 0.03564,-0.393309 -0.217298,-0.217299 c -0.231118,-0.231118 -0.937212,-0.719633 -1.325472,-0.917035 -0.150124,-0.07633 -0.48103,-0.155231 -0.923442,-0.220192 -0.737592,-0.108304 -0.829492,-0.132408 -1.80593,-0.473676 -0.842544,-0.294472 -1.157116,-0.299121 -2.116666,-0.03128 -0.378354,0.105611 -0.973668,0.252783 -1.322918,0.327048 -0.784604,0.166841 -1.21462,0.304558 -1.693332,0.542308 -0.41527,0.206241 -0.967234,0.598208 -1.237914,0.87908 -0.177914,0.184613 -0.179244,0.189631 -0.14325,0.540951 0.01998,0.195036 0.08531,0.488029 0.145172,0.651097 0.05986,0.163068 0.169818,0.463174 0.244344,0.666904 0.20946,0.572589 0.228588,1.378719 0.04915,2.071248 -0.16308,0.629397 -0.221906,1.317909 -0.145686,1.70516 0.06903,0.350738 0.347728,0.974954 0.746854,1.672785 0.166846,0.291714 0.494222,0.89929 0.727502,1.350169 0.323934,0.62609 0.453444,0.82801 0.548152,0.854621 0.164198,0.04613 5.717974,0.04778 6.024216,0.0018 z"
       id="path3036" />
  </g>
</svg>
