<?xml version="1.0" encoding="UTF-8" standalone="no"?>
<svg
   xmlns:dc="http://purl.org/dc/elements/1.1/"
   xmlns:cc="http://creativecommons.org/ns#"
   xmlns:rdf="http://www.w3.org/1999/02/22-rdf-syntax-ns#"
   xmlns:svg="http://www.w3.org/2000/svg"
   xmlns="http://www.w3.org/2000/svg"
   xmlns:sodipodi="http://sodipodi.sourceforge.net/DTD/sodipodi-0.dtd"
   xmlns:inkscape="http://www.inkscape.org/namespaces/inkscape"
   width="13.229167mm"
   height="13.229167mm"
   viewBox="0 0 13.229169 13.229168"
   version="1.1"
   id="svg8"
   sodipodi:docname="VCS_resized_164.svg"
   inkscape:version="1.0.2-2 (e86c870879, 2021-01-15)">
  <defs
     id="defs2" />
  <sodipodi:namedview
     id="base"
     pagecolor="#ffffff"
     bordercolor="#666666"
     borderopacity="1.0"
     inkscape:pageopacity="0.0"
     inkscape:pageshadow="2"
     inkscape:zoom="2.8284271"
     inkscape:cx="11.293972"
     inkscape:cy="53.034883"
     inkscape:document-units="mm"
     inkscape:current-layer="layer1"
     inkscape:document-rotation="0"
     showgrid="false"
     inkscape:window-width="958"
     inkscape:window-height="1008"
     inkscape:window-x="1913"
     inkscape:window-y="0"
     inkscape:window-maximized="0" />
  <metadata
     id="metadata5">
    <rdf:RDF>
      <cc:Work
         rdf:about="">
        <dc:format>image/svg+xml</dc:format>
        <dc:type
           rdf:resource="http://purl.org/dc/dcmitype/StillImage" />
        <dc:title></dc:title>
      </cc:Work>
    </rdf:RDF>
  </metadata>
  <g
     inkscape:label="Ebene 1"
     inkscape:groupmode="layer"
     id="layer1"
     transform="translate(-35.211784,-12.559466)">
    <path
       style="fill:#000000;stroke-width:0.264582"
       d="m 39.301007,25.113661 c -0.518644,-0.03302 -0.533252,-0.04165 -0.772596,-0.456486 -0.427736,-0.741368 -0.916746,-1.554993 -1.382822,-2.300767 -0.564276,-0.902904 -0.718438,-1.263004 -0.784596,-1.832705 -0.0709,-0.610543 -0.0031,-0.887787 0.428842,-1.753013 0.445858,-0.893136 0.511544,-1.175513 0.399004,-1.715259 -0.04311,-0.206761 -0.162352,-0.561898 -0.264978,-0.789193 -0.502854,-1.113711 -0.43717,-1.873179 0.217858,-2.518955 0.485144,-0.47829 0.92277,-0.583039 1.713984,-0.410254 0.795118,0.173638 1.06335,0.183526 4.070096,0.150031 1.113476,-0.0124 1.28782,-0.02656 1.666874,-0.135314 0.862764,-0.24754 1.303478,-0.150453 1.875398,0.413141 0.69034,0.680288 0.76723,1.396641 0.258172,2.405291 -0.248254,0.491894 -0.365594,1.02701 -0.305852,1.394798 0.07729,0.475809 0.133374,0.627529 0.40026,1.082765 0.405982,0.692494 0.494626,0.955974 0.495348,1.472324 0.001,0.749638 -0.167814,1.20424 -0.855024,2.301875 -0.218658,0.34925 -0.537978,0.879753 -0.709598,1.178894 -0.17162,0.299142 -0.431366,0.739673 -0.577212,0.978959 l -0.265176,0.435064 -0.290448,0.03953 c -0.313378,0.04265 -4.794102,0.0926 -5.317534,0.05927 z m 4.150508,-0.229503 c 0.919812,-0.04121 1.100878,-0.06303 1.212142,-0.146103 0.07194,-0.05371 0.341148,-0.461689 0.598238,-0.906615 0.257092,-0.444927 0.662002,-1.122147 0.899802,-1.504933 1.070978,-1.723951 1.127112,-2.277997 0.366648,-3.618894 -0.352316,-0.621226 -0.431752,-0.939628 -0.375868,-1.506584 0.04601,-0.466812 0.147378,-0.796422 0.425402,-1.383295 0.332312,-0.701468 0.266636,-1.2307 -0.217966,-1.756432 -0.419544,-0.455151 -0.797866,-0.600073 -1.317448,-0.504665 -1.102208,0.202391 -1.481642,0.223287 -3.571874,0.196707 -1.573318,-0.02001 -2.17064,-0.04627 -2.513542,-0.110521 -0.247386,-0.04635 -0.570132,-0.08431 -0.717214,-0.08435 -0.49405,-1.34e-4 -0.97575,0.340223 -1.273062,0.899511 -0.07322,0.137748 -0.0978,0.293688 -0.09591,0.608542 0.0023,0.386911 0.02408,0.472052 0.252836,0.989592 0.543488,1.229596 0.529938,1.699896 -0.08355,2.899783 -0.47687,0.93268 -0.525724,1.57404 -0.175202,2.300076 0.09884,0.204719 0.43291,0.777028 0.742386,1.271799 0.309478,0.49477 0.73092,1.190908 0.936538,1.546971 0.205618,0.356064 0.410154,0.677533 0.454522,0.714375 0.148308,0.123154 2.639052,0.176311 4.453124,0.09504 z"
       id="path2668" />
  </g>
</svg>
