<?xml version="1.0" encoding="UTF-8" standalone="no"?>
<svg
   xmlns:dc="http://purl.org/dc/elements/1.1/"
   xmlns:cc="http://creativecommons.org/ns#"
   xmlns:rdf="http://www.w3.org/1999/02/22-rdf-syntax-ns#"
   xmlns:svg="http://www.w3.org/2000/svg"
   xmlns="http://www.w3.org/2000/svg"
   xmlns:sodipodi="http://sodipodi.sourceforge.net/DTD/sodipodi-0.dtd"
   xmlns:inkscape="http://www.inkscape.org/namespaces/inkscape"
   width="13.229167mm"
   height="13.229167mm"
   viewBox="0 0 13.229169 13.229168"
   version="1.1"
   id="svg8"
   sodipodi:docname="VCS_resized_353.svg"
   inkscape:version="1.0.2-2 (e86c870879, 2021-01-15)">
  <defs
     id="defs2" />
  <sodipodi:namedview
     id="base"
     pagecolor="#ffffff"
     bordercolor="#666666"
     borderopacity="1.0"
     inkscape:pageopacity="0.0"
     inkscape:pageshadow="2"
     inkscape:zoom="4"
     inkscape:cx="0.26091899"
     inkscape:cy="29.12264"
     inkscape:document-units="mm"
     inkscape:current-layer="layer1"
     inkscape:document-rotation="0"
     showgrid="false"
     inkscape:window-width="958"
     inkscape:window-height="1008"
     inkscape:window-x="1913"
     inkscape:window-y="0"
     inkscape:window-maximized="0" />
  <metadata
     id="metadata5">
    <rdf:RDF>
      <cc:Work
         rdf:about="">
        <dc:format>image/svg+xml</dc:format>
        <dc:type
           rdf:resource="http://purl.org/dc/dcmitype/StillImage" />
        <dc:title></dc:title>
      </cc:Work>
    </rdf:RDF>
  </metadata>
  <g
     inkscape:label="Ebene 1"
     inkscape:groupmode="layer"
     id="layer1"
     transform="translate(-97.804558,16.128584)">
    <path
       style="fill:#000000;stroke-width:0.264582"
       d="m 103.26138,-3.9180622 c -0.40748,-0.6488642 -0.53699,-1.1985112 -0.61781,-2.6219938 -0.0524,-0.9235308 -0.1362,-1.5538282 -0.22058,-1.6596578 -0.0877,-0.1100412 -0.6352,-0.4104052 -1.47249,-0.8078644 -1.026119,-0.4870974 -2.010041,-1.0323778 -2.280341,-1.2637458 -0.288276,-0.246753 -0.27169,-0.348481 0.07816,-0.479376 0.593518,-0.222064 1.035234,-0.296828 2.546141,-0.430956 1.13793,-0.101017 1.77147,-0.214357 1.89014,-0.338145 0.0585,-0.06098 0.37864,-0.667949 0.71152,-1.348828 0.33288,-0.68088 0.6789,-1.34763 0.76893,-1.481667 0.37379,-0.556475 0.7038,-0.958079 0.78729,-0.958079 0.0603,0 0.12454,0.09812 0.1992,0.304271 0.2446,0.675416 0.32562,1.074473 0.40557,1.997604 0.10804,1.247551 0.23813,2.033016 0.36256,2.189252 0.0543,0.06813 0.61294,0.347637 2.22026,1.110801 0.84696,0.4021438 1.72973,0.9762944 1.72973,1.1250136 0,0.2200274 -0.9722,0.5314944 -1.96593,0.6298278 -1.35566,0.134148 -2.39029,0.3233902 -2.551,0.466596 -0.13096,0.116704 -0.33664,0.533483 -0.64391,1.3047598 -0.13913,0.34925 -0.38622,0.8589932 -0.54908,1.1327628 -0.32525,0.546727 -1.01591,1.3278622 -1.17408,1.3278622 -0.0577,0 -0.15209,-0.083472 -0.22428,-0.1984374 z m 0.63453,-0.5091758 c 0.37221,-0.4062218 0.78266,-1.1095652 1.10076,-1.88623 0.28746,-0.7018364 0.57495,-1.279533 0.68028,-1.3669464 0.17387,-0.1442996 1.0635,-0.3202364 2.43678,-0.48191 0.86268,-0.101562 1.73063,-0.3034406 1.80215,-0.419171 0.09,-0.1456896 -0.72178,-0.6221306 -2.12023,-1.2443158 -0.46178,-0.2054508 -1.1418,-0.5571428 -1.45437,-0.7521678 -0.1255,-0.07831 -0.20134,-0.171306 -0.21914,-0.26872 -0.015,-0.08193 -0.0765,-0.410905 -0.13681,-0.731051 -0.0603,-0.320146 -0.13488,-0.939271 -0.16577,-1.375833 -0.0309,-0.436562 -0.0889,-0.929478 -0.12889,-1.095368 -0.0977,-0.405407 -0.24541,-0.783174 -0.30614,-0.783174 -0.189,0 -0.68701,0.845466 -1.41823,2.407709 -0.14984,0.320145 -0.36665,0.727886 -0.48179,0.906091 -0.18188,0.281495 -0.23515,0.32781 -0.40595,0.352985 -0.83094,0.122472 -1.48001,0.203552 -2.20744,0.275748 -1.410625,0.140002 -1.931455,0.255735 -1.931455,0.429185 0,0.124931 0.708354,0.5378588 2.037295,1.1876178 1.40821,0.6885188 1.69461,0.8681636 1.74048,1.091708 0.0647,0.3153642 0.19099,1.5778342 0.19137,1.9132608 6e-4,0.4710074 0.0807,0.951195 0.24395,1.4612482 0.1662,0.5192766 0.26555,0.7165308 0.36087,0.7165308 0.0403,0 0.21236,-0.1517386 0.38228,-0.3371966 z"
       id="path6569" />
  </g>
</svg>
