<?xml version="1.0" encoding="UTF-8" standalone="no"?>
<svg
   xmlns:dc="http://purl.org/dc/elements/1.1/"
   xmlns:cc="http://creativecommons.org/ns#"
   xmlns:rdf="http://www.w3.org/1999/02/22-rdf-syntax-ns#"
   xmlns:svg="http://www.w3.org/2000/svg"
   xmlns="http://www.w3.org/2000/svg"
   xmlns:sodipodi="http://sodipodi.sourceforge.net/DTD/sodipodi-0.dtd"
   xmlns:inkscape="http://www.inkscape.org/namespaces/inkscape"
   width="13.229167mm"
   height="13.229167mm"
   viewBox="0 0 13.229167 13.229167"
   version="1.1"
   id="svg8"
   sodipodi:docname="VCS_resized_34.svg"
   inkscape:version="1.0.2-2 (e86c870879, 2021-01-15)">
  <defs
     id="defs2" />
  <sodipodi:namedview
     id="base"
     pagecolor="#ffffff"
     bordercolor="#666666"
     borderopacity="1.0"
     inkscape:pageopacity="0.0"
     inkscape:pageshadow="2"
     inkscape:zoom="2.8284271"
     inkscape:cx="12.2931"
     inkscape:cy="87.428368"
     inkscape:document-units="mm"
     inkscape:current-layer="layer1"
     inkscape:document-rotation="0"
     showgrid="false"
     inkscape:window-width="958"
     inkscape:window-height="1008"
     inkscape:window-x="1913"
     inkscape:window-y="0"
     inkscape:window-maximized="0" />
  <metadata
     id="metadata5">
    <rdf:RDF>
      <cc:Work
         rdf:about="">
        <dc:format>image/svg+xml</dc:format>
        <dc:type
           rdf:resource="http://purl.org/dc/dcmitype/StillImage" />
        <dc:title></dc:title>
      </cc:Work>
    </rdf:RDF>
  </metadata>
  <g
     inkscape:label="Ebene 1"
     inkscape:groupmode="layer"
     id="layer1"
     transform="translate(-34.947437,-3.4595234)">
    <path
       style="fill:#000000;stroke-width:0.264582"
       d="m 38.337092,15.007562 c -0.328084,-0.146894 -0.586462,-0.742438 -0.535786,-1.234951 0.0435,-0.422781 0.19693,-0.827503 0.472026,-1.245133 0.545666,-0.828389 0.687494,-1.14367 0.743808,-1.653459 0.06592,-0.596784 -0.234138,-1.0567437 -1.182756,-1.8130262 -1.117488,-0.8909152 -1.42875,-1.3138706 -1.42875,-1.9414428 0,-0.371677 0.13665,-0.5749337 0.478486,-0.7117085 0.25498,-0.1020228 0.88991,-0.1225842 1.18839,-0.038484 0.268888,0.075762 0.776486,0.3341348 1.341762,0.6829723 0.584576,0.360746 0.958996,0.5006376 1.414736,0.528574 0.31323,0.0192 0.413532,0.00347 0.60689,-0.095172 0.383054,-0.1954198 0.56137,-0.3660204 1.065856,-1.0197351 0.534314,-0.6923682 0.796462,-0.9464716 1.206882,-1.1698508 0.328134,-0.1785922 0.854556,-0.2432446 1.11207,-0.1365786 0.384742,0.1593658 0.5981,1.0779306 0.394742,1.6994871 -0.09741,0.2977234 -0.282322,0.650782 -0.481504,0.9193408 -0.408834,0.5512324 -0.672654,1.2125362 -0.675536,1.6933334 -0.0034,0.5678584 0.222846,0.8554084 1.384424,1.7595074 0.94948,0.739014 1.344554,1.340717 1.265804,1.927837 -0.03592,0.267845 -0.09841,0.336747 -0.48014,0.529443 -0.279728,0.141207 -0.367226,0.159314 -0.743998,0.15397 -0.520732,-0.0074 -0.623606,-0.03786 -1.458864,-0.432125 -0.76975,-0.363345 -1.435008,-0.548893 -1.826678,-0.509481 -0.5241,0.05274 -0.830672,0.255635 -1.671572,1.106294 -0.545342,0.551672 -0.844722,0.813722 -1.0164,0.889662 -0.26939,0.119164 -1.00093,0.188166 -1.173892,0.110726 z m 1.073588,-0.35668 c 0.124888,-0.05021 0.466192,-0.353381 0.937246,-0.83253 0.611676,-0.622188 0.810026,-0.789636 1.137708,-0.960457 0.36722,-0.191432 0.427224,-0.206384 0.803012,-0.200099 0.551042,0.0092 1.109008,0.171013 1.87192,0.542812 0.73094,0.356217 1.131822,0.453061 1.5484,0.374059 0.333102,-0.06317 0.570314,-0.179842 0.643434,-0.316466 0.09325,-0.174246 0.06348,-0.56311 -0.05976,-0.780428 C 46.119848,12.17307 45.695764,11.751989 45.138482,11.331789 44.45256,10.814591 44.092994,10.437487 43.90568,10.038858 L 43.749464,9.7064052 43.828734,9.236302 c 0.09296,-0.5513276 0.232922,-0.8783088 0.649554,-1.5175166 0.446862,-0.6855868 0.55277,-0.9542664 0.55277,-1.4023395 0,-0.6470736 -0.189742,-0.8928428 -0.689302,-0.8928428 -0.53839,0 -1.09302,0.4062432 -1.614964,1.1828902 -0.243658,0.3625507 -0.722732,0.8427631 -1.05078,1.0532709 -0.22362,0.1434968 -0.326614,0.1736984 -0.647642,0.1899094 -0.577862,0.02918 -1.142744,-0.1765294 -2.0535,-0.7478124 -0.637322,-0.3997677 -0.990644,-0.5304749 -1.417812,-0.5245043 -0.75919,0.010612 -1.057608,0.3962523 -0.780014,1.0080007 0.166602,0.3671484 0.387952,0.6073494 1.047758,1.1369902 0.745514,0.5984388 1.113046,0.9798986 1.312558,1.3622962 0.125954,0.241409 0.149358,0.349324 0.148246,0.683542 -0.0016,0.48932 -0.160684,0.908612 -0.620592,1.635962 -0.475646,0.752243 -0.583312,1.020883 -0.585,1.459663 -0.0014,0.375366 0.07986,0.620213 0.253916,0.764667 0.203676,0.169034 0.687002,0.179092 1.07675,0.0224 z"
       id="path536" />
  </g>
</svg>
