<?xml version="1.0" encoding="UTF-8" standalone="no"?>
<svg
   xmlns:dc="http://purl.org/dc/elements/1.1/"
   xmlns:cc="http://creativecommons.org/ns#"
   xmlns:rdf="http://www.w3.org/1999/02/22-rdf-syntax-ns#"
   xmlns:svg="http://www.w3.org/2000/svg"
   xmlns="http://www.w3.org/2000/svg"
   xmlns:sodipodi="http://sodipodi.sourceforge.net/DTD/sodipodi-0.dtd"
   xmlns:inkscape="http://www.inkscape.org/namespaces/inkscape"
   width="13.229167mm"
   height="13.229167mm"
   viewBox="0 0 13.229169 13.229168"
   version="1.1"
   id="svg8"
   sodipodi:docname="VCS_resized_158.svg"
   inkscape:version="1.0.2-2 (e86c870879, 2021-01-15)">
  <defs
     id="defs2" />
  <sodipodi:namedview
     id="base"
     pagecolor="#ffffff"
     bordercolor="#666666"
     borderopacity="1.0"
     inkscape:pageopacity="0.0"
     inkscape:pageshadow="2"
     inkscape:zoom="2.8284271"
     inkscape:cx="2.4758705"
     inkscape:cy="50.716466"
     inkscape:document-units="mm"
     inkscape:current-layer="layer1"
     inkscape:document-rotation="0"
     showgrid="false"
     inkscape:window-width="958"
     inkscape:window-height="1008"
     inkscape:window-x="1913"
     inkscape:window-y="0"
     inkscape:window-maximized="0" />
  <metadata
     id="metadata5">
    <rdf:RDF>
      <cc:Work
         rdf:about="">
        <dc:format>image/svg+xml</dc:format>
        <dc:type
           rdf:resource="http://purl.org/dc/dcmitype/StillImage" />
        <dc:title></dc:title>
      </cc:Work>
    </rdf:RDF>
  </metadata>
  <g
     inkscape:label="Ebene 1"
     inkscape:groupmode="layer"
     id="layer1"
     transform="translate(-37.544907,-13.17288)">
    <path
       style="fill:#000000;stroke-width:0.264582"
       d="m 41.815492,25.746868 c -0.551278,-0.04953 -0.66505,-0.07515 -0.73051,-0.164498 -0.04264,-0.05821 -0.293764,-0.463021 -0.558046,-0.899583 -0.264282,-0.436563 -0.720078,-1.161606 -1.012882,-1.611206 -0.643308,-0.987805 -0.77932,-1.324468 -0.815838,-2.019395 -0.03349,-0.637284 0.02185,-0.815697 0.514434,-1.658594 0.56603,-0.968573 0.61901,-1.468173 0.244358,-2.304347 -0.425022,-0.948596 -0.472752,-1.107641 -0.476416,-1.5875 -0.0041,-0.534833 0.112528,-0.826247 0.494332,-1.235321 0.473906,-0.507756 0.94412,-0.598601 1.723544,-0.332987 0.755402,0.257427 1.68163,0.363686 3.095626,0.355137 1.409058,-0.0085 1.952962,-0.07473 2.66636,-0.324592 0.683984,-0.239557 0.964026,-0.257004 1.321092,-0.08231 0.494188,0.241783 0.950514,0.855126 1.018566,1.369044 0.04921,0.371583 -0.06278,0.860158 -0.316514,1.38087 -0.335794,0.689121 -0.42337,1.028646 -0.387538,1.502444 0.03305,0.436971 0.160686,0.737799 0.64107,1.510927 0.33954,0.546454 0.430352,0.889076 0.377586,1.424574 -0.03595,0.364877 -0.184012,0.889291 -0.33186,1.175438 -0.04408,0.08531 -0.26433,0.442494 -0.489452,0.79375 -0.225122,0.351257 -0.608616,0.972024 -0.852208,1.379482 -0.625648,1.046524 -0.741536,1.203645 -0.92402,1.252771 -0.519254,0.139786 -3.935686,0.189633 -5.201684,0.07589 z m 4.51329,-0.250112 c 0.28961,-0.02988 0.563454,-0.07461 0.608542,-0.09939 0.04509,-0.02479 0.293888,-0.398112 0.552888,-0.829612 0.259,-0.431501 0.661694,-1.082203 0.894876,-1.446005 0.233182,-0.363802 0.533242,-0.887318 0.666798,-1.163368 0.238924,-0.493831 0.242832,-0.510439 0.242832,-1.031875 0,-0.608777 -0.0486,-0.747298 -0.52963,-1.50966 -0.3809,-0.603665 -0.449328,-0.812627 -0.449328,-1.372146 0,-0.555489 0.0849,-0.863127 0.425522,-1.541895 0.45263,-0.901968 0.410456,-1.444488 -0.156182,-2.009153 -0.424872,-0.423394 -0.662584,-0.482993 -1.272506,-0.319045 -1.226044,0.329562 -1.27253,0.335609 -2.769792,0.360284 -1.557356,0.02567 -2.128776,-0.02544 -3.2385,-0.289617 -0.320146,-0.07621 -0.70732,-0.137538 -0.860388,-0.136276 -0.536928,0.0044 -1.041718,0.476966 -1.182756,1.107193 -0.08497,0.379688 -0.0057,0.795201 0.247748,1.298463 0.305238,0.606122 0.460372,1.13445 0.463938,1.580012 0.0038,0.47398 -0.05954,0.661201 -0.462076,1.365973 -0.421874,0.738623 -0.52739,1.053913 -0.528094,1.577984 -6e-4,0.403502 0.01448,0.461408 0.240228,0.926042 0.132444,0.272594 0.453814,0.817094 0.714156,1.210001 0.260342,0.392906 0.670398,1.042476 0.911234,1.443489 0.240838,0.401013 0.490724,0.763736 0.555304,0.80605 0.251748,0.164951 3.557632,0.213652 4.925186,0.07256 z"
       id="path2572" />
  </g>
</svg>
