<?xml version="1.0" encoding="UTF-8" standalone="no"?>
<svg
   xmlns:dc="http://purl.org/dc/elements/1.1/"
   xmlns:cc="http://creativecommons.org/ns#"
   xmlns:rdf="http://www.w3.org/1999/02/22-rdf-syntax-ns#"
   xmlns:svg="http://www.w3.org/2000/svg"
   xmlns="http://www.w3.org/2000/svg"
   xmlns:sodipodi="http://sodipodi.sourceforge.net/DTD/sodipodi-0.dtd"
   xmlns:inkscape="http://www.inkscape.org/namespaces/inkscape"
   width="13.229167mm"
   height="13.229167mm"
   viewBox="0 0 13.229169 13.229168"
   version="1.1"
   id="svg8"
   sodipodi:docname="VCS_resized_209.svg"
   inkscape:version="1.0.2-2 (e86c870879, 2021-01-15)">
  <defs
     id="defs2" />
  <sodipodi:namedview
     id="base"
     pagecolor="#ffffff"
     bordercolor="#666666"
     borderopacity="1.0"
     inkscape:pageopacity="0.0"
     inkscape:pageshadow="2"
     inkscape:zoom="2.8284271"
     inkscape:cx="4.5865718"
     inkscape:cy="53.672319"
     inkscape:document-units="mm"
     inkscape:current-layer="layer1"
     inkscape:document-rotation="0"
     showgrid="false"
     inkscape:window-width="958"
     inkscape:window-height="1008"
     inkscape:window-x="1913"
     inkscape:window-y="0"
     inkscape:window-maximized="0" />
  <metadata
     id="metadata5">
    <rdf:RDF>
      <cc:Work
         rdf:about="">
        <dc:format>image/svg+xml</dc:format>
        <dc:type
           rdf:resource="http://purl.org/dc/dcmitype/StillImage" />
        <dc:title></dc:title>
      </cc:Work>
    </rdf:RDF>
  </metadata>
  <g
     inkscape:label="Ebene 1"
     inkscape:groupmode="layer"
     id="layer1"
     transform="translate(-47.349831,-16.479702)">
    <path
       style="fill:#000000;stroke-width:0.264582"
       d="m 50.213332,29.192932 c -0.05972,-0.05093 -0.2153,-0.378354 -0.345734,-0.727604 -0.130432,-0.34925 -0.347576,-0.896938 -0.482542,-1.217084 -0.562074,-1.333268 -0.669322,-1.783733 -0.793708,-3.33375 -0.05658,-0.705001 -0.13729,-1.081126 -0.377704,-1.760054 -0.246,-0.69471 -0.39054,-1.247978 -0.39054,-1.494911 0,-0.110384 0.04772,-0.188886 0.17198,-0.282924 0.404658,-0.306239 1.193262,-0.756652 2.156354,-1.231608 1.200078,-0.591828 1.318416,-0.659503 2.73137,-1.56202 0.585474,-0.373968 1.091744,-0.679941 1.12505,-0.679941 0.0333,0 0.173406,0.07365 0.311336,0.163671 0.137932,0.09002 0.667504,0.436749 1.176828,0.770511 0.748142,0.490263 2.001386,1.182485 2.140848,1.182485 0.0736,0 2.090108,1.168815 2.307992,1.337764 0.246176,0.190888 0.222912,0.418297 -0.161156,1.575373 -0.269896,0.813112 -0.345296,1.210591 -0.401006,2.113946 -0.06531,1.059031 -0.312666,1.989246 -0.893526,3.360208 -0.135642,0.320146 -0.344856,0.830302 -0.464922,1.133681 -0.120066,0.303378 -0.261784,0.595081 -0.314932,0.648229 -0.09169,0.09169 -0.282894,0.09663 -3.74202,0.09663 -3.395156,0 -3.65284,-0.0064 -3.753968,-0.0926 z m 7.333074,-0.238125 c 0.02888,-0.03638 0.165444,-0.351896 0.303476,-0.701146 0.138034,-0.34925 0.346964,-0.861219 0.46429,-1.137708 0.528798,-1.246161 0.673468,-1.843654 0.805796,-3.327945 0.07011,-0.786393 0.226862,-1.572256 0.3442,-1.725597 0.06342,-0.08288 0.313956,-0.979144 0.347614,-1.243542 0.02934,-0.230467 0.02382,-0.242268 -0.171578,-0.366962 -0.624416,-0.398472 -1.378972,-0.813559 -2.318558,-1.275458 -0.732752,-0.360219 -1.382782,-0.732962 -2.112986,-1.211635 -0.668968,-0.438532 -1.104932,-0.691361 -1.192142,-0.691361 -0.08465,0 -0.472482,0.215825 -1.009096,0.561546 -1.191288,0.767505 -1.788376,1.104405 -2.75015,1.551744 -0.886786,0.412459 -1.068204,0.508924 -1.733022,0.921491 -0.327998,0.203547 -0.436562,0.299285 -0.436562,0.384984 0,0.183455 0.254182,1.109543 0.398916,1.453419 0.190426,0.452431 0.327908,1.089366 0.393012,1.820774 0.09541,1.071943 0.210122,1.724108 0.39556,2.248958 0.18345,0.519222 1.03212,2.62126 1.105608,2.738438 0.03251,0.05184 0.806048,0.06615 3.577298,0.06615 2.765368,0 3.547256,-0.01441 3.588324,-0.06615 z"
       id="path4243" />
  </g>
</svg>
